<svg xmlns="http://www.w3.org/2000/svg" width="56" height="56" class="wd-accent-apple wd-accent" focusable="false" role="presentation" viewBox="0 0 56 56"><g fill="none" fill-rule="evenodd" class="wd-icon-container"><path fill="#005DBA" fill-rule="nonzero" d="M45.288 6.239a2 2 0 0 1 .97 2.398c-1.254 3.792-3.573 6.46-6.896 7.86 8.014 2.181 11.47 9.514 9.099 18.839-2.529 9.94-11.55 18.89-17.781 15.431-1.387-.77-3.773-.77-5.159 0-6.258 3.476-15.246-5.464-17.781-15.431-2.414-9.49 1.21-16.918 9.53-18.952 3.305-.807 6.74-.323 9.84 1.272.286-4.999-1.273-8.563-4.665-10.824a1 1 0 1 1 1.11-1.664c2.359 1.573 3.97 3.682 4.835 6.3 1.368-2.848 3.482-4.885 6.303-6.025 3.416-1.38 6.998-1.094 10.595.796zm-6.832 12.088c-2.941-.719-5.948-.223-8.62 1.197C30.974 20.514 32.35 21 34 21a1 1 0 0 1 0 2c-2.393 0-4.411-.83-6-2.462-3.041-2.173-6.697-3.08-10.255-2.21-7.163 1.75-10.222 8.04-8.067 16.515 2.156 8.475 9.992 16.886 14.872 14.176 1.99-1.106 5.11-1.105 7.1 0 4.844 2.687 12.717-5.7 14.872-14.176 2.156-8.475-.904-14.765-8.066-16.516zM14.713 22.16a1 1 0 1 1 1.084 1.682c-2.69 1.734-3.461 4.783-2.23 9.401a1 1 0 1 1-1.932.516c-1.435-5.382-.437-9.333 3.078-11.599zm3.153-1.659a1 1 0 1 1 1 1.732 1 1 0 0 1-1-1.732zm11.27-4.453c.013.519.005 1.052-.022 1.598a15.364 15.364 0 0 1 1.935-.833 14.736 14.736 0 0 1-1.913-.765zm6.307-8.75c-2.85 1.152-4.823 3.387-5.92 6.706 3.095 1.626 6.067 1.863 8.916.712 2.85-1.151 4.822-3.386 5.92-6.706-3.096-1.625-6.067-1.863-8.916-.712z" class="color-500"/><path fill="#FFF" d="M28 20.538C29.59 22.17 31.607 23 34 23a1 1 0 0 0 0-2c-1.65 0-3.025-.486-4.165-1.476 2.673-1.42 5.68-1.916 8.62-1.197 7.163 1.751 10.223 8.04 8.067 16.516-2.155 8.475-10.028 16.863-14.872 14.176-1.99-1.105-5.11-1.106-7.1 0-4.88 2.71-12.716-5.7-14.872-14.176-2.155-8.475.904-14.765 8.067-16.516 3.558-.87 7.214.038 10.255 2.211zM14.713 22.16c-3.515 2.266-4.513 6.217-3.078 11.599a1 1 0 0 0 1.932-.516c-1.231-4.618-.46-7.667 2.23-9.401a1 1 0 1 0-1.084-1.682zm4.153.073a1 1 0 1 0-1-1.732 1 1 0 0 0 1 1.732zm10.657-8.229c3.095 1.626 6.067 1.863 8.916.712 2.85-1.151 4.822-3.386 5.92-6.706-3.096-1.625-6.067-1.863-8.916-.712-2.85 1.152-4.823 3.387-5.92 6.706z" class="french-vanilla-100"/></g></svg>