<svg xmlns="http://www.w3.org/2000/svg" width="56" height="56" class="wd-accent-arrow-down-circle wd-accent" focusable="false" role="presentation" viewBox="0 0 56 56"><g fill="none" fill-rule="evenodd" class="wd-icon-container"><circle cx="28" cy="28" r="22" fill="#FFF" class="french-vanilla-100"/><path fill="#005DBA" fill-rule="nonzero" d="M28 4c13.255 0 24 10.745 24 24S41.255 52 28 52 4 41.255 4 28 14.745 4 28 4zm0 2C15.85 6 6 15.85 6 28s9.85 22 22 22 22-9.85 22-22S40.15 6 28 6zm.495 12c.279 0 .505.228.505.5v15.626l5.703-5.701a.495.495 0 0 1 .71.003l.7.7a.506.506 0 0 1 .004.711l-7.778 7.778a.493.493 0 0 1-.708 0l-.275-.276-.428-.428-.005-.005-7.07-7.069a.495.495 0 0 1 .004-.71l.7-.701a.506.506 0 0 1 .711-.003L27 34.156V18.5c0-.276.214-.5.505-.5h.99z" class="color-500"/></g></svg>