<svg xmlns="http://www.w3.org/2000/svg" width="56" height="56" class="wd-accent-arrow-right-circle wd-accent" focusable="false" role="presentation" viewBox="0 0 56 56"><g fill="none" fill-rule="evenodd" class="wd-icon-container"><circle cx="28" cy="28" r="22" fill="#FFF" class="french-vanilla-100"/><path fill="#005DBA" fill-rule="nonzero" d="M28 4c13.255 0 24 10.745 24 24S41.255 52 28 52 4 41.255 4 28 14.745 4 28 4zm0 2C15.85 6 6 15.85 6 28s9.85 22 22 22 22-9.85 22-22S40.15 6 28 6zm-.06 13.849l7.777 7.777a.498.498 0 0 1 .144.352.48.48 0 0 1-.144.356l-7.778 7.778a.506.506 0 0 1-.71-.003l-.701-.7a.495.495 0 0 1-.003-.711l5.702-5.703H20.6a.505.505 0 0 1-.5-.505v-.99c0-.29.224-.505.5-.505h11.657l-5.732-5.732a.506.506 0 0 1 .003-.71l.7-.701a.495.495 0 0 1 .711-.003z" class="color-500"/></g></svg>