<svg xmlns="http://www.w3.org/2000/svg" width="56" height="56" class="wd-accent-atomic wd-accent" focusable="false" role="presentation" viewBox="0 0 56 56"><g fill="none" fill-rule="evenodd" class="wd-icon-container"><path fill="#005DBA" fill-rule="nonzero" d="M33 36.66C21.557 43.267 10.105 45.005 7.215 40 4.325 34.995 11.557 25.946 23 19.34c11.443-6.607 22.895-8.345 25.785-3.34 2.89 5.005-4.342 14.054-15.785 20.66zm-1-1.732C42.558 28.832 49.134 20.604 47.053 17 44.972 13.396 34.558 14.976 24 21.072 13.442 27.168 6.866 35.396 8.947 39c2.081 3.604 12.495 2.024 23.053-4.072zm-9 1.732C11.557 30.054 4.326 21.005 7.215 16c2.89-5.005 14.342-3.267 25.785 3.34C44.443 25.946 51.674 34.995 48.785 40c-2.89 5.005-14.342 3.267-25.785-3.34zm1-1.732C34.558 41.024 44.972 42.604 47.053 39c2.08-3.604-4.495-11.832-15.053-17.928S11.028 13.396 8.947 17C6.867 20.604 13.442 28.832 24 34.928zM38 28c0 13.213-4.22 24-10 24S18 41.213 18 28 22.22 4 28 4s10 10.787 10 24zm-2 0c0-12.192-3.838-22-8-22s-8 9.808-8 22 3.838 22 8 22 8-9.808 8-22zm-8 5a5 5 0 1 1 0-10 5 5 0 0 1 0 10zm0-2a3 3 0 1 0 0-6 3 3 0 0 0 0 6z" class="color-500"/></g></svg>