<svg xmlns="http://www.w3.org/2000/svg" width="56" height="56" class="wd-accent-award-star wd-accent" focusable="false" role="presentation" viewBox="0 0 56 56"><g fill="none" fill-rule="evenodd" class="wd-icon-container"><path fill="#005DBA" fill-rule="nonzero" d="M28 5c8.837 0 16 7.163 16 16 0 5.235-2.514 9.883-6.401 12.802l1.393 16.025c.146 1.67-1.706 2.767-3.101 1.837L28 46.404l-7.89 5.26c-1.396.93-3.248-.167-3.102-1.837L18.4 33.802C14.514 30.882 12 26.235 12 21c0-8.837 7.163-16 16-16zm7.698 30.03c-.493.271-1.002.517-1.526.736.013.052.021.105.025.16l.6 8a1 1 0 1 1-1.994.149l-.573-7.64a15.964 15.964 0 0 1-3.23.534V41a1 1 0 0 1-2 0v-4.03a16.005 16.005 0 0 1-2.247-.3l-.556 7.405a1 1 0 1 1-1.994-.15l.584-7.793a15.913 15.913 0 0 1-2.485-1.102L19 50l9-6 9 6-1.302-14.97zM28 7c-7.732 0-14 6.268-14 14s6.268 14 14 14 14-6.268 14-14S35.732 7 28 7zm0 1c7.18 0 13 5.82 13 13s-5.82 13-13 13-13-5.82-13-13S20.82 8 28 8zm0 2c-6.075 0-11 4.925-11 11s4.925 11 11 11 11-4.925 11-11-4.925-11-11-11zm1.785 3.098l1.692 3.348 3.804.54c1.655.234 2.309 2.276 1.098 3.428l-2.724 2.592.641 3.648c.286 1.627-1.413 2.88-2.883 2.125L28 27.027l-3.413 1.752c-1.47.755-3.169-.498-2.883-2.125l.64-3.648-2.723-2.592c-1.21-1.152-.557-3.194 1.098-3.429l3.804-.54 1.692-3.347c.74-1.464 2.83-1.464 3.57 0zM28 14l-2.163 4.28-4.837.686 3.5 3.33L23.674 27 28 24.78 32.326 27l-.826-4.703 3.5-3.331-4.837-.687L28 14z" class="color-500"/><path fill="#FFF" d="M35.698 35.03L37 50l-9-6-9 6 1.302-14.97c.79.434 1.62.804 2.485 1.102l-.584 7.793a1 1 0 1 0 1.994.15l.556-7.405c.732.151 1.482.252 2.247.3V41a1 1 0 0 0 2 0v-4.03a15.964 15.964 0 0 0 3.23-.535l.573 7.64a1 1 0 1 0 1.994-.15l-.6-8a1.007 1.007 0 0 0-.025-.159 15.931 15.931 0 0 0 1.526-.736zM28 7c7.732 0 14 6.268 14 14s-6.268 14-14 14-14-6.268-14-14S20.268 7 28 7zm0 1c-7.18 0-13 5.82-13 13s5.82 13 13 13 13-5.82 13-13S35.18 8 28 8zm0 2c6.075 0 11 4.925 11 11s-4.925 11-11 11-11-4.925-11-11 4.925-11 11-11zm1.785 3.098c-.74-1.464-2.83-1.464-3.57 0l-1.692 3.348-3.804.54c-1.655.234-2.309 2.276-1.098 3.428l2.724 2.592-.641 3.648c-.286 1.627 1.413 2.88 2.883 2.125L28 27.027l3.413 1.752c1.47.755 3.169-.498 2.883-2.125l-.64-3.648 2.723-2.592c1.21-1.152.557-3.194-1.098-3.429l-3.804-.54zM28 14l2.163 4.28 4.837.686-3.5 3.33.826 4.704L28 24.78 23.674 27l.826-4.703-3.5-3.331 4.837-.687L28 14z" class="french-vanilla-100"/></g></svg>