<svg xmlns="http://www.w3.org/2000/svg" width="56" height="56" class="wd-accent-award-ribbons wd-accent" focusable="false" role="presentation" viewBox="0 0 56 56"><g fill="none" fill-rule="evenodd" class="wd-icon-container"><path fill="#005DBA" fill-rule="nonzero" d="M21.16 5.36a2 2 0 0 1 3.066-.982L28 7.101l3.774-2.723a2 2 0 0 1 3.065.982l1.56 4.622 4.602.13a2 2 0 0 1 1.869 2.54l-1.343 4.779 3.73 3.013a2 2 0 0 1 0 3.112l-3.73 3.013.44 1.567 7.274 14.64c.765 1.54-.642 3.264-2.304 2.823l-8.216-2.181-4.394 7.276c-.89 1.472-3.099 1.21-3.619-.43l-2.483-7.837-2.483 7.837c-.52 1.64-2.729 1.902-3.618.43l-4.395-7.276-8.215 2.181c-1.662.441-3.07-1.283-2.304-2.823l6.236-12.552 1.027-3.655-3.73-3.013a2 2 0 0 1 0-3.112l3.73-3.013-1.343-4.779a2 2 0 0 1 1.87-2.54l4.6-.13zm-7.154 28.232L9 43.666l9.665-2.566 5.17 8.56 3.34-10.544-.418-1.321-2.532 1.827a2 2 0 0 1-3.065-.982l-1.56-4.622-4.602-.13a1.986 1.986 0 0 1-.993-.296zm28.314-.251c-.341.324-.8.532-1.32.547l-4.6.13-1.56 4.622a2 2 0 0 1-3.066.982l-3.033-2.188 3.874 12.226 5.17-8.56 9.665 2.566zM32.944 6L28 9.567 23.056 6l-2.006 5.942-5.994.17 1.699 6.046L12 22l4.755 3.842-1.7 6.047 5.995.17L23.056 38 28 34.433 32.944 38l2.006-5.942 5.994-.17-1.699-6.046L44 22l-4.755-3.842 1.7-6.047-5.995-.17L32.944 6zM28 13a9 9 0 1 1 0 18 9 9 0 0 1 0-18zm0 2a7 7 0 1 0 0 14 7 7 0 0 0 0-14z" class="color-500"/><path fill="#FFF" d="M14.006 33.592c.287.178.625.285.993.296l4.602.13 1.56 4.622a2 2 0 0 0 3.065.982l2.532-1.827.418 1.32-3.34 10.545-5.17-8.56-9.665 2.566 5.005-10.074zm28.314-.251l5.13 10.325-9.665-2.566-5.17 8.56-3.874-12.226 3.033 2.188a2 2 0 0 0 3.065-.982l1.56-4.622 4.602-.13c.52-.015.978-.223 1.319-.547zM32.944 6l2.006 5.942 5.994.17-1.699 6.046L44 22l-4.755 3.842 1.7 6.047-5.995.17L32.944 38 28 34.433 23.056 38l-2.006-5.942-5.994-.17 1.699-6.046L12 22l4.755-3.842-1.7-6.047 5.995-.17L23.056 6 28 9.567 32.944 6zM28 13a9 9 0 1 0 0 18 9 9 0 0 0 0-18zm0 2a7 7 0 1 1 0 14 7 7 0 0 1 0-14z" class="french-vanilla-100"/></g></svg>