<svg xmlns="http://www.w3.org/2000/svg" width="56" height="56" class="wd-accent-award wd-accent" focusable="false" role="presentation" viewBox="0 0 56 56"><g fill="none" fill-rule="nonzero" class="wd-icon-container"><path fill="#005DBA" d="M17.785 35.633a2.993 2.993 0 0 1-1.43-1.996l-.273-1.348-1.436-.273a3 3 0 0 1-2.387-3.508l.28-1.343-1.162-.747a3 3 0 0 1-.9-4.147l.058-.086.754-1.086-.754-1.087a3 3 0 0 1 .755-4.175 302 302 0 0 1 1.248-.805l-.269-1.292a3 3 0 0 1 2.326-3.548l1.487-.284.273-1.347a3 3 0 0 1 3.515-2.349l1.488.29.823-1.199a3 3 0 0 1 4.11-.817l1.268.825 1.268-.825a3 3 0 0 1 4.11.817l.823 1.2 1.488-.29a3 3 0 0 1 3.515 2.348l.273 1.347 1.436.273a3 3 0 0 1 2.387 3.508l-.279 1.343 1.162.748a3 3 0 0 1 .899 4.146c-.028.044-.028.044-.058.086L43.83 21.1l.753 1.086a3 3 0 0 1-.755 4.175c-.028.02-.444.288-1.248.805l.27 1.293a3 3 0 0 1-2.327 3.548l-1.487.283-.273 1.348a2.993 2.993 0 0 1-1.43 1.996l1.219 14.009c.145 1.67-1.707 2.768-3.102 1.837l-7.89-5.26-7.891 5.26c-1.396.93-3.247-.166-3.102-1.837l1.218-14.01zm17.573.372a3.053 3.053 0 0 1-.11-.02l-1.488-.29-.823 1.2a3.04 3.04 0 0 1-.126.17l1.231 6.566a1 1 0 1 1-1.966.369l-1.096-5.848a2.99 2.99 0 0 1-2.153-.44l-1.268-.825-1.268.825c-.513.333-1.09.49-1.66.485L23.541 44a1 1 0 1 1-1.966-.369l1.15-6.135a3.002 3.002 0 0 1-.545-.602l-.823-1.2-1.488.291a3.053 3.053 0 0 1-.11.02l-1.2 13.81 9-6 9 6-1.202-13.81zm-8.344-1.15a1 1 0 0 1 1.09 0l1.814 1.18a1 1 0 0 0 1.37-.272l1.195-1.741a1 1 0 0 1 1.016-.416l2.132.416a1 1 0 0 0 1.172-.782l.407-2.007a1 1 0 0 1 .793-.783l2.096-.399c.558-.116.905-.645.792-1.186l-.409-1.965a1 1 0 0 1 .438-1.045l1.74-1.119c.482-.334.595-.957.28-1.41l-1.15-1.657a1 1 0 0 1 0-1.14l1.15-1.657c.318-.493.184-1.112-.28-1.41l-1.74-1.12a1 1 0 0 1-.438-1.045l.41-1.965a1.004 1.004 0 0 0-.793-1.186l-2.096-.398a1 1 0 0 1-.793-.784l-.407-2.006a1 1 0 0 0-1.172-.783l-2.132.416a1 1 0 0 1-1.016-.415l-1.195-1.741a1 1 0 0 0-1.37-.273l-1.813 1.18a1 1 0 0 1-1.091 0L25.2 6.162a1 1 0 0 0-1.37.273l-1.194 1.74a1 1 0 0 1-1.016.416l-2.133-.416a1 1 0 0 0-1.172.783l-.406 2.006a1 1 0 0 1-.793.784l-2.096.398a1.004 1.004 0 0 0-.793 1.186l.41 1.965a1 1 0 0 1-.439 1.045l-1.739 1.12c-.482.334-.595.957-.28 1.41l1.149 1.657a1 1 0 0 1 0 1.14l-1.15 1.656c-.317.493-.183 1.112.281 1.411l1.74 1.12a1 1 0 0 1 .437 1.044l-.409 1.965c-.106.56.25 1.083.793 1.186l2.096.399a1 1 0 0 1 .793.783l.406 2.007a1 1 0 0 0 1.172.782l2.133-.416a1 1 0 0 1 1.016.416l1.194 1.74a1 1 0 0 0 1.37.273l1.814-1.18zm.545-2.04c-6.627 0-12-5.372-12-12 0-6.627 5.373-12 12-12 6.628 0 12 5.373 12 12 0 6.628-5.372 12-12 12zm0-2c5.523 0 10-4.477 10-10s-4.477-10-10-10-10 4.477-10 10 4.477 10 10 10zm0-18a1 1 0 1 1 0 2 6 6 0 0 0-6 6 1 1 0 1 1-2 0 8 8 0 0 1 8-8z" class="color-500"/><path fill="#FFF" d="M35.358 36.005a3.053 3.053 0 0 1-.11-.02l-1.488-.29-.823 1.2a3.04 3.04 0 0 1-.126.17l1.231 6.566a1 1 0 1 1-1.966.369l-1.096-5.848a2.99 2.99 0 0 1-2.153-.44l-1.268-.825-1.268.825c-.513.333-1.09.49-1.66.485L23.541 44a1 1 0 1 1-1.966-.369l1.15-6.135a3.002 3.002 0 0 1-.545-.602l-.823-1.2-1.488.291a3.053 3.053 0 0 1-.11.02l-1.2 13.81 9-6 9 6-1.202-13.81zm-8.344-1.15a1 1 0 0 1 1.09 0l1.814 1.18a1 1 0 0 0 1.37-.272l1.195-1.741a1 1 0 0 1 1.016-.416l2.132.416a1 1 0 0 0 1.172-.782l.407-2.007a1 1 0 0 1 .793-.783l2.096-.399c.558-.116.905-.645.792-1.186l-.409-1.965a1 1 0 0 1 .438-1.045l1.74-1.119c.482-.334.595-.957.28-1.41l-1.15-1.657a1 1 0 0 1 0-1.14l1.15-1.657c.318-.493.184-1.112-.28-1.41l-1.74-1.12a1 1 0 0 1-.438-1.045l.41-1.965a1.004 1.004 0 0 0-.793-1.186l-2.096-.398a1 1 0 0 1-.793-.784l-.407-2.006a1 1 0 0 0-1.172-.783l-2.132.416a1 1 0 0 1-1.016-.415l-1.195-1.741a1 1 0 0 0-1.37-.273l-1.813 1.18a1 1 0 0 1-1.091 0L25.2 6.162a1 1 0 0 0-1.37.273l-1.194 1.74a1 1 0 0 1-1.016.416l-2.133-.416a1 1 0 0 0-1.172.783l-.406 2.006a1 1 0 0 1-.793.784l-2.096.398a1.004 1.004 0 0 0-.793 1.186l.41 1.965a1 1 0 0 1-.439 1.045l-1.739 1.12c-.482.334-.595.957-.28 1.41l1.149 1.657a1 1 0 0 1 0 1.14l-1.15 1.656c-.317.493-.183 1.112.281 1.411l1.74 1.12a1 1 0 0 1 .437 1.044l-.409 1.965c-.106.56.25 1.083.793 1.186l2.096.399a1 1 0 0 1 .793.783l.406 2.007a1 1 0 0 0 1.172.782l2.133-.416a1 1 0 0 1 1.016.416l1.194 1.74a1 1 0 0 0 1.37.273l1.814-1.18zm.545-2.04c-6.627 0-12-5.372-12-12 0-6.627 5.373-12 12-12 6.628 0 12 5.373 12 12 0 6.628-5.372 12-12 12zm0-2c5.523 0 10-4.477 10-10s-4.477-10-10-10-10 4.477-10 10 4.477 10 10 10zm0-18a1 1 0 1 1 0 2 6 6 0 0 0-6 6 1 1 0 1 1-2 0 8 8 0 0 1 8-8z" class="french-vanilla-100"/></g></svg>