<svg xmlns="http://www.w3.org/2000/svg" width="56" height="56" class="wd-accent-award-medal wd-accent" focusable="false" role="presentation" viewBox="0 0 56 56"><g fill="none" fill-rule="evenodd" class="wd-icon-container"><path fill="#005DBA" fill-rule="nonzero" d="M31.748 6.501a2 2 0 0 1 2.725 1.133l1.35 3.734 3.9 1.31a2 2 0 0 1 1.152 2.792L39.105 19l1.77 3.53a2 2 0 0 1-1.152 2.792l-2.611.877 1.88 21.628c.146 1.67-1.706 2.767-3.101 1.837L28 44.404l-7.89 5.26c-1.396.93-3.248-.167-3.102-1.837l1.88-21.628-2.611-.877a2 2 0 0 1-1.152-2.792l1.77-3.53-1.77-3.53a2 2 0 0 1 1.152-2.792l3.9-1.31 1.35-3.734a2 2 0 0 1 2.725-1.133L28 8.246zm3.526 21.65l-.801 2.215a2 2 0 0 1-2.725 1.133L28 29.754l-3.748 1.745a2 2 0 0 1-2.725-1.133l-.801-2.215L19 48l9-6 9 6-1.726-19.85zM23.446 33h.116a1 1 0 0 1 .936 1.061l-.5 8a1 1 0 0 1-1.996-.124l.5-8a1 1 0 0 1 1.06-.936zm8.992 0a1 1 0 0 1 1.06.937l.5 8a1 1 0 0 1-1.996.124l-.5-8a1 1 0 0 1 .936-1.06zM28 33a1 1 0 0 1 1 1v5a1 1 0 0 1-2 0v-5a1 1 0 0 1 1-1zm4.592-24.686L28 10.453l-4.592-2.139-1.679 4.642-4.816 1.618L19.132 19l-2.219 4.426 4.816 1.618 1.679 4.642L28 27.547l4.592 2.139 1.679-4.642 4.816-1.618L36.868 19l2.219-4.426-4.816-1.618-1.679-4.642zM28 12a7 7 0 1 1 0 14 7 7 0 0 1 0-14zm0 2a5 5 0 1 0 0 10 5 5 0 0 0 0-10z" class="color-500"/><path fill="#FFF" d="M35.274 28.15L37 48l-9-6-9 6 1.726-19.85.801 2.216a2 2 0 0 0 2.725 1.133L28 29.754l3.748 1.745a2 2 0 0 0 2.725-1.133l.801-2.215zm-12.772 5.788l-.5 8a1 1 0 0 0 1.996.124l.5-8a1 1 0 0 0-1.996-.124zm10.996 0a1 1 0 0 0-1.996.124l.5 8a1 1 0 0 0 1.996-.124l-.5-8zM28 33a1 1 0 0 1 1 1v5a1 1 0 0 1-2 0v-5a1 1 0 0 1 1-1zm4.592-24.686l1.679 4.642 4.816 1.618L36.868 19l2.219 4.426-4.816 1.618-1.679 4.642L28 27.547l-4.592 2.139-1.679-4.642-4.816-1.618L19.132 19l-2.219-4.426 4.816-1.618 1.679-4.642L28 10.453l4.592-2.139zM28 12a7 7 0 1 0 0 14 7 7 0 0 0 0-14zm0 2a5 5 0 1 1 0 10 5 5 0 0 1 0-10z" class="french-vanilla-100"/></g></svg>