<svg xmlns="http://www.w3.org/2000/svg" width="56" height="56" class="wd-accent-backpack wd-accent" focusable="false" role="presentation" viewBox="0 0 56 56"><g fill="none" fill-rule="evenodd" class="wd-icon-container"><path fill="#005DBA" fill-rule="nonzero" d="M42 4a2 2 0 0 1 2 2c0 2.276-.475 4.441-1.332 6.401A16.921 16.921 0 0 1 45 21v13h2a2 2 0 0 1 2 2v12a2 2 0 0 1-2 2h-2a2 2 0 0 1-2 2H13a2 2 0 0 1-2-2H9a2 2 0 0 1-2-2V36a2 2 0 0 1 2-2h2V21c0-3.137.85-6.076 2.332-8.599A15.946 15.946 0 0 1 12 6a2 2 0 0 1 2-2zm1 42H13v4h30v-4zM11 36H9v12h2V36zm36 0h-2v12h2V36zm-5.462-21.468A16.077 16.077 0 0 1 39 17.62V26h-5v-5.163A15.955 15.955 0 0 1 28 22c-2.122 0-4.147-.413-6-1.163V26h-5v-8.381a16.077 16.077 0 0 1-2.538-3.087A14.941 14.941 0 0 0 13 21v23h30V21c0-2.316-.525-4.51-1.462-6.468zM38 29a2 2 0 0 1 2 2v8a2 2 0 0 1-2 2H18a2 2 0 0 1-2-2v-8a2 2 0 0 1 2-2zm0 2a5 5 0 0 1-5 5H23a5 5 0 0 1-5-5v8h20zm-2 0H20a3 3 0 0 0 3 3h10a3 3 0 0 0 3-3zm1-21h-1v14h1V10zm-17 0h-1v14h1V10zm22-4H14a13.94 13.94 0 0 0 3 8.661V8h5v10.653A13.946 13.946 0 0 0 28 20c2.147 0 4.181-.483 6-1.347V8h5v6.661A13.94 13.94 0 0 0 42 6z" class="color-500"/><path fill="#FFF" d="M39 17.619a16.077 16.077 0 0 0 2.538-3.087A14.941 14.941 0 0 1 43 21v23H13V21c0-2.316.525-4.51 1.462-6.468A16.077 16.077 0 0 0 17 17.62V26h5v-5.163A15.955 15.955 0 0 0 28 22c2.122 0 4.147-.413 6-1.163V26h5v-8.381zM18 29a2 2 0 0 0-2 2v8a2 2 0 0 0 2 2h20a2 2 0 0 0 2-2v-8a2 2 0 0 0-2-2H18zm20 2v8H18v-8a5 5 0 0 0 5 5h10a5 5 0 0 0 5-5zm-18 0h16a3 3 0 0 1-3 3H23a3 3 0 0 1-3-3zm14-12.347A13.946 13.946 0 0 1 28 20c-2.147 0-4.181-.483-6-1.347V8h-5v6.661A13.94 13.94 0 0 1 14 6h28a13.94 13.94 0 0 1-3 8.661V8h-5v10.653zM9 36h2v12H9V36zm36 0h2v12h-2V36zm-9-12V10h1v14h-1zm-17 0V10h1v14h-1zm-6 22h30v4H13v-4z" class="french-vanilla-100"/></g></svg>