<svg xmlns="http://www.w3.org/2000/svg" width="56" height="56" class="wd-accent-band-aids wd-accent" focusable="false" role="presentation" viewBox="0 0 56 56"><g fill="none" fill-rule="evenodd" class="wd-icon-container"><path fill="#005DBA" fill-rule="nonzero" d="M7.243 7.243c3.905-3.906 10.237-3.906 14.142 0l6.364 6.364 6.364-6.364c3.905-3.906 10.237-3.906 14.142 0 3.905 3.905 3.905 10.237 0 14.142l-6.364 6.364 6.364 6.364c3.905 3.905 3.905 10.237 0 14.142-3.905 3.905-10.237 3.905-14.142 0l-6.364-6.364-6.364 6.364c-3.905 3.905-10.237 3.905-14.142 0-3.906-3.905-3.906-10.237 0-14.142l6.364-6.364-6.364-6.364c-3.906-3.905-3.906-10.237 0-14.142zm7.778 21.92l-6.364 6.364A8 8 0 0 0 19.97 46.84l6.364-6.364L15.02 29.163zm4.95-20.506A8 8 0 1 0 8.657 19.97l26.87 26.87A8 8 0 1 0 46.84 35.527zM11 43a1 1 0 1 1 0 2 1 1 0 0 1 0-2zm5 0a1 1 0 1 1 0 2 1 1 0 0 1 0-2zm23 0a1 1 0 1 1 0 2 1 1 0 0 1 0-2zm5 0a1 1 0 1 1 0 2 1 1 0 0 1 0-2zm0-5a1 1 0 1 1 0 2 1 1 0 0 1 0-2zm-33 0a1 1 0 1 1 0 2 1 1 0 0 1 0-2zm5 0a1 1 0 1 1 0 2 1 1 0 0 1 0-2zm5 0a1 1 0 1 1 0 2 1 1 0 0 1 0-2zm13 0a1 1 0 1 1 0 2 1 1 0 0 1 0-2zm5 0a1 1 0 1 1 0 2 1 1 0 0 1 0-2zM24.213 19.97a3 3 0 0 1 4.243 0l7.07 7.072a3 3 0 0 1 0 4.242l-4.242 4.243a3 3 0 0 1-4.242 0l-7.071-7.071a3 3 0 0 1 0-4.243zM16 33a1 1 0 1 1 0 2 1 1 0 0 1 0-2zm23 0a1 1 0 1 1 0 2 1 1 0 0 1 0-2zM27.042 21.385a1 1 0 0 0-1.415 0l-4.242 4.242a1 1 0 0 0 0 1.415l7.07 7.07a1 1 0 0 0 1.415 0l4.243-4.242a1 1 0 0 0 0-1.414zM46.84 8.657a8 8 0 0 0-11.314 0l-6.364 6.364 11.314 11.314 6.364-6.364a8 8 0 0 0 0-11.314zM39 20a1 1 0 1 1 0 2 1 1 0 0 1 0-2zm-23 0a1 1 0 1 1 0 2 1 1 0 0 1 0-2zm18-5a1 1 0 1 1 0 2 1 1 0 0 1 0-2zm5 0a1 1 0 1 1 0 2 1 1 0 0 1 0-2zm5 0a1 1 0 1 1 0 2 1 1 0 0 1 0-2zm-33 0a1 1 0 1 1 0 2 1 1 0 0 1 0-2zm5 0a1 1 0 1 1 0 2 1 1 0 0 1 0-2zm5 0a1 1 0 1 1 0 2 1 1 0 0 1 0-2zm18-5a1 1 0 1 1 0 2 1 1 0 0 1 0-2zm5 0a1 1 0 1 1 0 2 1 1 0 0 1 0-2zm-33 0a1 1 0 1 1 0 2 1 1 0 0 1 0-2zm5 0a1 1 0 1 1 0 2 1 1 0 0 1 0-2z" class="color-500"/><path fill="#FFF" d="M15.02 29.163l11.315 11.314-6.364 6.364A8 8 0 1 1 8.657 35.527l6.364-6.364zm4.95-20.506l26.87 26.87A8 8 0 1 1 35.528 46.84L8.657 19.97A8 8 0 1 1 19.97 8.657zM11 43a1 1 0 1 0 0 2 1 1 0 0 0 0-2zm5 0a1 1 0 1 0 0 2 1 1 0 0 0 0-2zm23 0a1 1 0 1 0 0 2 1 1 0 0 0 0-2zm5 0a1 1 0 1 0 0 2 1 1 0 0 0 0-2zm-33-5a1 1 0 1 0 0 2 1 1 0 0 0 0-2zm5 0a1 1 0 1 0 0 2 1 1 0 0 0 0-2zm5 0a1 1 0 1 0 0 2 1 1 0 0 0 0-2zm13 0a1 1 0 1 0 0 2 1 1 0 0 0 0-2zm5 0a1 1 0 1 0 0 2 1 1 0 0 0 0-2zm5 0a1 1 0 1 0 0 2 1 1 0 0 0 0-2zM24.213 19.97l-4.242 4.243a3 3 0 0 0 0 4.243l7.07 7.07a3 3 0 0 0 4.243 0l4.243-4.242a3 3 0 0 0 0-4.242l-7.071-7.071a3 3 0 0 0-4.243 0zM16 33a1 1 0 1 0 0 2 1 1 0 0 0 0-2zm23 0a1 1 0 1 0 0 2 1 1 0 0 0 0-2zM27.042 21.385l7.07 7.07a1 1 0 0 1 0 1.415l-4.242 4.243a1 1 0 0 1-1.414 0l-7.071-7.071a1 1 0 0 1 0-1.415l4.242-4.242a1 1 0 0 1 1.415 0zM46.84 8.657a8 8 0 0 1 0 11.314l-6.364 6.364L29.163 15.02l6.364-6.364a8 8 0 0 1 11.314 0zM39 20a1 1 0 1 0 0 2 1 1 0 0 0 0-2zm-23 0a1 1 0 1 0 0 2 1 1 0 0 0 0-2zm18-5a1 1 0 1 0 0 2 1 1 0 0 0 0-2zm5 0a1 1 0 1 0 0 2 1 1 0 0 0 0-2zm5 0a1 1 0 1 0 0 2 1 1 0 0 0 0-2zm-33 0a1 1 0 1 0 0 2 1 1 0 0 0 0-2zm5 0a1 1 0 1 0 0 2 1 1 0 0 0 0-2zm5 0a1 1 0 1 0 0 2 1 1 0 0 0 0-2zm18-5a1 1 0 1 0 0 2 1 1 0 0 0 0-2zm5 0a1 1 0 1 0 0 2 1 1 0 0 0 0-2zm-33 0a1 1 0 1 0 0 2 1 1 0 0 0 0-2zm5 0a1 1 0 1 0 0 2 1 1 0 0 0 0-2z" class="french-vanilla-100"/></g></svg>