<svg xmlns="http://www.w3.org/2000/svg" width="56" height="56" class="wd-accent-bank wd-accent" focusable="false" role="presentation" viewBox="0 0 56 56"><g fill="none" fill-rule="evenodd" class="wd-icon-container"><path fill="#005DBA" fill-rule="nonzero" d="M45 8a3 3 0 0 1 3 3v34a3 3 0 0 1-3 3h-1v.99A1 1 0 0 1 42.997 50h-4.994A1 1 0 0 1 37 48.99V48H19v.99A1 1 0 0 1 17.997 50h-4.994A1 1 0 0 1 12 48.99V48h-1a3 3 0 0 1-3-3V11a3 3 0 0 1 3-3h34zm0 2H11a1 1 0 0 0-1 1v6h2v-4a1 1 0 0 1 1-1h30a1 1 0 0 1 1 1v30a1 1 0 0 1-1 1H13a1 1 0 0 1-1-1v-4h-2v6a1 1 0 0 0 1 1h34a1 1 0 0 0 1-1V11a1 1 0 0 0-1-1zm-3 4H14v3h2a1 1 0 0 1 0 2h-2v18h2a1 1 0 0 1 0 2h-2v3h28V14zm-30 5h-2v18h2V19zm8.294 1.294a.997.997 0 0 1 1.414 0l1.459 1.458a7.965 7.965 0 0 1 4.905-1.68c1.849 0 3.551.627 4.906 1.68l1.458-1.458a.997.997 0 0 1 1.414 0 .997.997 0 0 1 0 1.414l-1.458 1.459a7.965 7.965 0 0 1 1.68 4.905 7.965 7.965 0 0 1-1.68 4.906l1.458 1.458a.997.997 0 0 1 0 1.414.997.997 0 0 1-1.414 0l-1.458-1.458a7.965 7.965 0 0 1-4.906 1.68 7.965 7.965 0 0 1-4.905-1.68l-1.459 1.458a.997.997 0 0 1-1.414 0 .997.997 0 0 1 0-1.414l1.458-1.458a7.965 7.965 0 0 1-1.68-4.906c0-1.849.627-3.55 1.68-4.905l-1.458-1.459a.997.997 0 0 1 0-1.414zm7.778 1.778a6 6 0 1 0 0 12 6 6 0 0 0 0-12zM28 24a4 4 0 1 1 0 8 4 4 0 0 1 0-8zm0 2a2 2 0 1 0 0 4 2 2 0 0 0 0-4z" class="color-500"/><path fill="#FFF" d="M12 19v18h-2V19h2zm0-2h-2v-6a1 1 0 0 1 1-1h34a1 1 0 0 1 1 1v34a1 1 0 0 1-1 1H11a1 1 0 0 1-1-1v-6h2v4a1 1 0 0 0 1 1h30a1 1 0 0 0 1-1V13a1 1 0 0 0-1-1H13a1 1 0 0 0-1 1v4zm2 22h2a1 1 0 0 0 0-2h-2V19h2a1 1 0 0 0 0-2h-2v-3h28v28H14v-3zm9.167-17.248l-1.459-1.458a.997.997 0 0 0-1.414 0 .997.997 0 0 0 0 1.414l1.458 1.459a7.965 7.965 0 0 0-1.68 4.905c0 1.849.627 3.551 1.68 4.906l-1.458 1.458a.997.997 0 0 0 0 1.414.997.997 0 0 0 1.414 0l1.459-1.458a7.965 7.965 0 0 0 4.905 1.68 7.965 7.965 0 0 0 4.906-1.68l1.458 1.458a.997.997 0 0 0 1.414 0 .997.997 0 0 0 0-1.414l-1.458-1.458a7.965 7.965 0 0 0 1.68-4.906 7.965 7.965 0 0 0-1.68-4.905l1.458-1.459a.997.997 0 0 0 0-1.414.997.997 0 0 0-1.414 0l-1.458 1.458a7.965 7.965 0 0 0-4.906-1.68 7.965 7.965 0 0 0-4.905 1.68zm4.905 12.32a6 6 0 1 1 0-12 6 6 0 0 1 0 12zM28 32a4 4 0 1 0 0-8 4 4 0 0 0 0 8zm0-2a2 2 0 1 1 0-4 2 2 0 0 1 0 4z" class="french-vanilla-100"/></g></svg>