<svg xmlns="http://www.w3.org/2000/svg" width="56" height="56" class="wd-accent-bitcoin wd-accent" focusable="false" role="presentation" viewBox="0 0 56 56"><g fill="none" fill-rule="evenodd" class="wd-icon-container"><path fill="#005DBA" d="M43.45 41a18.056 18.056 0 0 0 3.679-5h-3.793a20.009 20.009 0 0 1-3.137 5h3.25zm-9.113 4.691A17.897 17.897 0 0 0 40.953 43H38.23a20.045 20.045 0 0 1-3.892 2.691zM47.976 34c.557-1.577.901-3.256.997-5h-3.998a19.942 19.942 0 0 1-.89 5h3.89zm-4.64-14h3.793a18.09 18.09 0 0 0-3.675-5H40.2a20.009 20.009 0 0 1 3.137 5zm-2.371-7a17.97 17.97 0 0 0-6.69-2.724A20.044 20.044 0 0 1 38.229 13h2.736zm4.01 14h3.998a17.93 17.93 0 0 0-.997-5h-3.892c.5 1.59.806 3.266.891 5zM26 34h-3v2a1 1 0 0 1-2 0v-2h-2V22h2v-2a1 1 0 0 1 2 0v2h3v-2a1 1 0 0 1 2 0v2h.5a3.5 3.5 0 0 1 2.45 6 3.5 3.5 0 0 1-2.45 6H28v2a1 1 0 0 1-2 0v-2zm-5-10v3h7.5a1.5 1.5 0 0 0 0-3H21zm0 8h7.5a1.5 1.5 0 0 0 0-3H21v3zm4-24h7c10.688.613 19 9.373 19 20 0 10.632-8.319 19.39-18.89 19.97l-6.955.03H25C13.954 48 5 39.046 5 28S13.954 8 25 8zm.106 38C35 45.942 43 37.906 43 28c0-9.941-8.059-18-18-18S7 18.059 7 28c0 9.926 8.035 17.976 17.955 18h.151zM25 43c-8.284 0-15-6.716-15-15 0-8.284 6.716-15 15-15 8.284 0 15 6.716 15 15 0 8.284-6.716 15-15 15zm0-2c7.18 0 13-5.82 13-13s-5.82-13-13-13-13 5.82-13 13 5.82 13 13 13z" class="color-500"/><path fill="#FFF" d="M43.45 41a18.056 18.056 0 0 0 3.679-5h-3.793a20.009 20.009 0 0 1-3.137 5h3.25zm-9.113 4.691A17.897 17.897 0 0 0 40.953 43H38.23a20.045 20.045 0 0 1-3.892 2.691zM47.976 34c.557-1.577.901-3.256.997-5h-3.998a19.942 19.942 0 0 1-.89 5h3.89zm-4.64-14h3.793a18.09 18.09 0 0 0-3.675-5H40.2a20.009 20.009 0 0 1 3.137 5zm-2.371-7a17.97 17.97 0 0 0-6.69-2.724A20.044 20.044 0 0 1 38.229 13h2.736zm4.01 14h3.998a17.93 17.93 0 0 0-.997-5h-3.892c.5 1.59.806 3.266.891 5zM26 34h-3v2a1 1 0 0 1-2 0v-2h-2V22h2v-2a1 1 0 0 1 2 0v2h3v-2a1 1 0 0 1 2 0v2h.5a3.5 3.5 0 0 1 2.45 6 3.5 3.5 0 0 1-2.45 6H28v2a1 1 0 0 1-2 0v-2zm-5-10v3h7.5a1.5 1.5 0 0 0 0-3H21zm0 8h7.5a1.5 1.5 0 0 0 0-3H21v3zm4.106 14C35 45.942 43 37.906 43 28c0-9.941-8.059-18-18-18S7 18.059 7 28c0 9.926 8.035 17.976 17.955 18h.151zM25 43c-8.284 0-15-6.716-15-15 0-8.284 6.716-15 15-15 8.284 0 15 6.716 15 15 0 8.284-6.716 15-15 15zm0-2c7.18 0 13-5.82 13-13s-5.82-13-13-13-13 5.82-13 13 5.82 13 13 13z" class="french-vanilla-100"/></g></svg>