<svg xmlns="http://www.w3.org/2000/svg" width="56" height="56" class="wd-accent-blockchain wd-accent" focusable="false" role="presentation" viewBox="0 0 56 56"><g fill="none" fill-rule="nonzero" class="wd-icon-container"><path fill="#005DBA" d="M30 23.277V23a2 2 0 0 1 1.106-1.789l8-4a2 2 0 0 1 1.788 0l8 4A2 2 0 0 1 50 23v9a2 2 0 0 1-1.106 1.789l-8 4a2 2 0 0 1-1.788 0l-8-4A2 2 0 0 1 30 32v-6.42l-2.655-1.517L20 27.736v2.528l7.894 3.947A2 2 0 0 1 29 36v9a2 2 0 0 1-1.106 1.789l-8 4a2 2 0 0 1-1.788 0l-8-4A2 2 0 0 1 9 45v-9a2 2 0 0 1 1.106-1.789L18 30.264v-2.528l-7.894-3.947A2 2 0 0 1 9 22v-9a2 2 0 0 1 1.106-1.789l8-4a2 2 0 0 1 1.788 0l8 4A2 2 0 0 1 29 13v9c0 .223-.037.44-.107.644l1.107.633zM32 32l7 3.5v-7.382l-7-3.5V32zm-8.496-10.132a1 1 0 1 1 .992-1.736L27 21.562v-6.944l-7 3.5V25.5l5.258-2.63-1.754-1.002zM20 32.5V36a1 1 0 0 1-2 0v-3.5l-6.382 3.191L19 39.382l7.382-3.691L20 32.5zm21 3l7-3.5v-7.382l-7 3.5V35.5zM40 19l-7.382 3.691L40 26.382l7.382-3.691L40 19zm-22-.882l-7-3.5V22l7 3.5v-7.382zm8.382-5.427L19 9l-7.382 3.691L19 16.382l7.382-3.691zM27 45v-7.382l-7 3.5V48.5l7-3.5zm-9-3.882l-7-3.5V45l7 3.5v-7.382z" class="color-500"/><path fill="#FFF" d="M32 32l7 3.5v-7.382l-7-3.5V32zm-8.496-10.132a1 1 0 1 1 .992-1.736L27 21.562v-6.944l-7 3.5V25.5l5.258-2.63-1.754-1.002zM20 32.5V36a1 1 0 0 1-2 0v-3.5l-6.382 3.191L19 39.382l7.382-3.691L20 32.5zm21 3l7-3.5v-7.382l-7 3.5V35.5zM40 19l-7.382 3.691L40 26.382l7.382-3.691L40 19zm-22-.882l-7-3.5V22l7 3.5v-7.382zm8.382-5.427L19 9l-7.382 3.691L19 16.382l7.382-3.691zM27 45v-7.382l-7 3.5V48.5l7-3.5zm-9-3.882l-7-3.5V45l7 3.5v-7.382z" class="french-vanilla-100"/></g></svg>