<svg xmlns="http://www.w3.org/2000/svg" width="56" height="56" class="wd-accent-box-barcode wd-accent" focusable="false" role="presentation" viewBox="0 0 56 56"><g fill="none" fill-rule="evenodd" class="wd-icon-container"><path fill="#005DBA" fill-rule="nonzero" d="M35.579 6a2 2 0 0 1 1.258.445l10.42 8.429A2 2 0 0 1 48 16.429V48a2 2 0 0 1-2 2H10a2 2 0 0 1-2-2V16.429a2 2 0 0 1 .742-1.555l10.421-8.429A2 2 0 0 1 20.421 6H35.58zM46 17H10v31h36V17zM14 35v10h-1V35h1zm4 0v10h-3V35h3zm2 0v10h-1V35h1zm4 0v10h-2V35h2zm2 0v10h-1V35h1zm2 0v10h-1V35h1zm3 0v10h-2V35h2zm4 0v10h-2V35h2zM27 8h-6.579l-8.655 7H27V8zm8.579 0H29v7h15.234l-8.655-7z" class="color-500"/><path fill="#FFF" d="M27 8v7H11.766l8.655-7H27zm2 0h6.579l8.655 7H29V8zm-19 9h36v31H10V17zm3 18v10h1V35h-1zm2 0v10h3V35h-3zm4 0v10h1V35h-1zm3 0v10h2V35h-2zm3 0v10h1V35h-1zm2 0v10h1V35h-1zm2 0v10h2V35h-2zm4 0v10h2V35h-2z" class="french-vanilla-100"/></g></svg>