<svg xmlns="http://www.w3.org/2000/svg" width="56" height="56" class="wd-accent-box-conveyor wd-accent" focusable="false" role="presentation" viewBox="0 0 56 56"><g fill="none" fill-rule="evenodd" class="wd-icon-container"><path fill="#005DBA" fill-rule="nonzero" d="M39.196 6.01l10 1c1.742.174 2.435 2.343 1.118 3.495l-8 7a2.005 2.005 0 0 1-.314.226v14.332a2 2 0 0 1 .966.576l6.5 7c.235.253 1.26 1.622 1.566 2.092A6 6 0 0 1 46 51H10a6 6 0 0 1-5.238-8.928c.226-.405.817-1.216 1.772-2.433l6.5-7a2 2 0 0 1 .966-.576v-14.33a2.007 2.007 0 0 1-.317-.228l-8-7C4.366 9.353 5.06 7.185 6.801 7.01l10-1a2 2 0 0 1 1.613.576l3 3c.127.126.233.266.319.414h11.53c.131-.226.31-.431.534-.6l4-3a2 2 0 0 1 1.4-.39zM41.528 41H14.472A5.978 5.978 0 0 1 16 45a5.978 5.978 0 0 1-1.528 4h27.056A5.978 5.978 0 0 1 40 45c0-1.537.578-2.938 1.528-4zM10 41a4 4 0 1 0 0 8 4 4 0 0 0 0-8zm36 0a4 4 0 1 0 0 8 4 4 0 0 0 0-8zm-36 1a3 3 0 1 1 0 6 3 3 0 0 1 0-6zm36 0a3 3 0 1 1 0 6 3 3 0 0 1 0-6zm-9 2a1 1 0 0 1 0 2H19a1 1 0 0 1 0-2zm-27 0a1 1 0 1 0 0 2 1 1 0 0 0 0-2zm36 0a1 1 0 1 0 0 2 1 1 0 0 0 0-2zm-4-9.462V36a2 2 0 0 1-2 2H16a2 2 0 0 1-2-2v-1.462l-4.148 4.467C9.901 39.002 9.95 39 10 39h36c.05 0 .099.002.148.005L42 34.538zM40 18H16v18h24V18zm-7-6H22v4h11v-4zm2 1.606V16h2.873L35 13.606zm-15 .222L17.828 16H20v-2.172zM17 8L7 9l8 7 5-5-3-3zm21.997 0l-4 3 6 5 8-7-10-1z" class="color-500"/><path fill="#FFF" d="M33 12H22v4h11v-4zm2 1.606L37.873 16H35v-2.394zM41.528 41A5.978 5.978 0 0 0 40 45c0 1.537.578 2.938 1.528 4H14.472A5.978 5.978 0 0 0 16 45a5.978 5.978 0 0 0-1.528-4h27.056zM10 41a4 4 0 1 1 0 8 4 4 0 0 1 0-8zm36 0a4 4 0 1 1 0 8 4 4 0 0 1 0-8zm-36 1a3 3 0 1 0 0 6 3 3 0 0 0 0-6zm36 0a3 3 0 1 0 0 6 3 3 0 0 0 0-6zm-9 2H19a1 1 0 0 0 0 2h18a1 1 0 0 0 0-2zm-27 0a1 1 0 1 1 0 2 1 1 0 0 1 0-2zm36 0a1 1 0 1 1 0 2 1 1 0 0 1 0-2zm-4-9.462l4.148 4.467A2.029 2.029 0 0 0 46 39H10c-.05 0-.099.002-.148.005L14 34.538V36a2 2 0 0 0 2 2h24a2 2 0 0 0 2-2v-1.462zM40 18v18H16V18h24zM17 8l3 3-5 5-8-7 10-1zm21.997 0l10 1-8 7-6-5 4-3zM20 13.828V16h-2.172L20 13.828z" class="french-vanilla-100"/></g></svg>