<svg xmlns="http://www.w3.org/2000/svg" width="56" height="56" class="wd-accent-briefcase wd-accent" focusable="false" role="presentation" viewBox="0 0 56 56"><g fill="none" fill-rule="evenodd" class="wd-icon-container"><path fill="#005DBA" fill-rule="nonzero" d="M29 46h18a1 1 0 0 0 1-1V28h-5v2a2 2 0 0 1-2 2h-4a2 2 0 0 1-2-2v-2h-6v18zm-2 0V28h-6v2a2 2 0 0 1-2 2h-4a2 2 0 0 1-2-2v-2H8v17a1 1 0 0 0 1 1h18zm8-34h14a3 3 0 0 1 3 3v11a2 2 0 0 1-2 2v17a3 3 0 0 1-3 3H9a3 3 0 0 1-3-3V28a2 2 0 0 1-2-2V15a3 3 0 0 1 3-3h14V9h2v3h10V9h2v3zm0 14v-2a2 2 0 0 1 2-2h4a2 2 0 0 1 2 2v2h7V15a1 1 0 0 0-1-1H7a1 1 0 0 0-1 1v11h7v-2a2 2 0 0 1 2-2h4a2 2 0 0 1 2 2v2h14zm-20-2v6h4v-6h-4zm22 0v6h4v-6h-4zM20 7h16a1 1 0 0 1 0 2H20a1 1 0 0 1 0-2z" class="color-500"/><path fill="#FFF" d="M35 28v2a2 2 0 0 0 2 2h4a2 2 0 0 0 2-2v-2h5v17a1 1 0 0 1-1 1H29V28h6zm-22 0v2a2 2 0 0 0 2 2h4a2 2 0 0 0 2-2v-2h6v18H9a1 1 0 0 1-1-1V28h5zm28-4v6h-4v-6h4zm-22 0v6h-4v-6h4zm30-10a1 1 0 0 1 1 1v11h-7v-2a2 2 0 0 0-2-2h-4a2 2 0 0 0-2 2v2H21v-2a2 2 0 0 0-2-2h-4a2 2 0 0 0-2 2v2H6V15a1 1 0 0 1 1-1h42z" class="french-vanilla-100"/></g></svg>