<svg xmlns="http://www.w3.org/2000/svg" width="56" height="56" class="wd-accent-briefcase-alt wd-accent" focusable="false" role="presentation" viewBox="0 0 56 56"><g fill="none" fill-rule="evenodd" class="wd-icon-container"><path fill="#005DBA" fill-rule="nonzero" d="M20 15v-2a4 4 0 0 1 4-4h8a4 4 0 0 1 4 4v2h12a4 4 0 0 1 4 4v25a4 4 0 0 1-4 4H8a4 4 0 0 1-4-4V19a4 4 0 0 1 4-4h12zm14-2a2 2 0 0 0-2-2h-8a2 2 0 0 0-2 2v2h12v-2zM6 39v5a2 2 0 0 0 2 2h2v-7H6zm44-2V19a2 2 0 0 0-2-2H8a2 2 0 0 0-2 2v18h44zM11 21h33a1 1 0 0 1 0 2H11a1 1 0 0 1 0-2zm1 18v7h2v-7h-2zm4 0v7h24v-7H16zm26 0v7h2v-7h-2zm4 0v7h2a2 2 0 0 0 2-2v-5h-4z" class="color-500"/><path fill="#FFF" d="M6 39h4v7H8a2 2 0 0 1-2-2v-5zm44-2H6V19a2 2 0 0 1 2-2h40a2 2 0 0 1 2 2v18zM11 21a1 1 0 0 0 0 2h33a1 1 0 0 0 0-2H11zm1 18h2v7h-2v-7zm4 0h24v7H16v-7zm26 0h2v7h-2v-7zm4 0h4v5a2 2 0 0 1-2 2h-2v-7z" class="french-vanilla-100"/></g></svg>