<svg xmlns="http://www.w3.org/2000/svg" width="56" height="56" class="wd-accent-building-small wd-accent" focusable="false" role="presentation" viewBox="0 0 56 56"><g fill="none" fill-rule="nonzero" class="wd-icon-container"><path fill="#005DBA" d="M44 26a4.992 4.992 0 0 1-4-2 4.992 4.992 0 0 1-4 2 4.992 4.992 0 0 1-4-2 4.992 4.992 0 0 1-4 2 4.992 4.992 0 0 1-4-2 4.992 4.992 0 0 1-4 2 4.992 4.992 0 0 1-4-2 4.992 4.992 0 0 1-4 2 4.983 4.983 0 0 1-2-.416V46h3V32.5a5.5 5.5 0 0 1 11 0V46h22V25.584A4.983 4.983 0 0 1 44 26zm4 20h3a1 1 0 0 1 0 2H5a1 1 0 0 1 0-2h3V24a4.978 4.978 0 0 1-1-3V10a2 2 0 0 1 2-2h38a2 2 0 0 1 2 2v11a4.978 4.978 0 0 1-1 3v22zm-9-36h-6v11a3 3 0 0 0 6 0V10zm-8 0h-6v11a3 3 0 0 0 6 0V10zm-8 0h-6v11a3 3 0 0 0 6 0V10zm-8 0H9v11a3 3 0 0 0 6 0V10zm3.5 19a3.5 3.5 0 0 0-3.5 3.5V46h7V32.5a3.5 3.5 0 0 0-3.5-3.5zm9.5 0h14a2 2 0 0 1 2 2v10a2 2 0 0 1-2 2H28a2 2 0 0 1-2-2V31a2 2 0 0 1 2-2zm0 2v10h14V31H28zm-8 8a1 1 0 1 1 0-2 1 1 0 0 1 0 2zm21-29v11a3 3 0 0 0 6 0V10h-6z" class="color-500"/><path fill="#FFF" d="M44 26a4.992 4.992 0 0 1-4-2 4.992 4.992 0 0 1-4 2 4.992 4.992 0 0 1-4-2 4.992 4.992 0 0 1-4 2 4.992 4.992 0 0 1-4-2 4.992 4.992 0 0 1-4 2 4.992 4.992 0 0 1-4-2 4.992 4.992 0 0 1-4 2 4.983 4.983 0 0 1-2-.416V46h3V32.5a5.5 5.5 0 0 1 11 0V46h22V25.584A4.983 4.983 0 0 1 44 26zm-5-16h-6v11a3 3 0 0 0 6 0V10zm-8 0h-6v11a3 3 0 0 0 6 0V10zm-8 0h-6v11a3 3 0 0 0 6 0V10zm-8 0H9v11a3 3 0 0 0 6 0V10zm3.5 19a3.5 3.5 0 0 0-3.5 3.5V46h7V32.5a3.5 3.5 0 0 0-3.5-3.5zm9.5 0h14a2 2 0 0 1 2 2v10a2 2 0 0 1-2 2H28a2 2 0 0 1-2-2V31a2 2 0 0 1 2-2zm0 2v10h14V31H28zm-8 8a1 1 0 1 1 0-2 1 1 0 0 1 0 2zm21-29v11a3 3 0 0 0 6 0V10h-6z" class="french-vanilla-100"/></g></svg>