<svg xmlns="http://www.w3.org/2000/svg" width="56" height="56" class="wd-accent-building-medium wd-accent" focusable="false" role="presentation" viewBox="0 0 56 56"><g fill="none" fill-rule="nonzero" class="wd-icon-container"><path fill="#005DBA" d="M31 36h-5v11h5V36zm2 0v11h5V36h-5zm-19-5v16h10V36a2 2 0 0 1 2-2h12a2 2 0 0 1 2 2v11h2V14H14v15h28v2H14zm30-17v33h7a1 1 0 0 1 0 2H5a1 1 0 0 1 0-2h7V14h-2V9h36v5h-2zm-32-3v1h32v-1H12zm5 5h4a2 2 0 0 1 2 2v7a2 2 0 0 1-2 2h-4a2 2 0 0 1-2-2v-7a2 2 0 0 1 2-2zm0 2v7h4v-7h-4zm0 16h4a2 2 0 0 1 2 2v7a2 2 0 0 1-2 2h-4a2 2 0 0 1-2-2v-7a2 2 0 0 1 2-2zm0 2v7h4v-7h-4zm9-20h4a2 2 0 0 1 2 2v7a2 2 0 0 1-2 2h-4a2 2 0 0 1-2-2v-7a2 2 0 0 1 2-2zm0 2v7h4v-7h-4zm9-2h4a2 2 0 0 1 2 2v7a2 2 0 0 1-2 2h-4a2 2 0 0 1-2-2v-7a2 2 0 0 1 2-2zm0 2v7h4v-7h-4z" class="color-500"/><path fill="#FFF" d="M31 36h-5v11h5V36zm2 0v11h5V36h-5zm-19-5v16h10V36a2 2 0 0 1 2-2h12a2 2 0 0 1 2 2v11h2V14H14v15h28v2H14zm-2-20v1h32v-1H12zm5 5h4a2 2 0 0 1 2 2v7a2 2 0 0 1-2 2h-4a2 2 0 0 1-2-2v-7a2 2 0 0 1 2-2zm0 2v7h4v-7h-4zm0 16h4a2 2 0 0 1 2 2v7a2 2 0 0 1-2 2h-4a2 2 0 0 1-2-2v-7a2 2 0 0 1 2-2zm0 2v7h4v-7h-4zm9-20h4a2 2 0 0 1 2 2v7a2 2 0 0 1-2 2h-4a2 2 0 0 1-2-2v-7a2 2 0 0 1 2-2zm0 2v7h4v-7h-4zm9-2h4a2 2 0 0 1 2 2v7a2 2 0 0 1-2 2h-4a2 2 0 0 1-2-2v-7a2 2 0 0 1 2-2zm0 2v7h4v-7h-4z" class="french-vanilla-100"/></g></svg>