<svg xmlns="http://www.w3.org/2000/svg" width="56" height="56" class="wd-accent-building-large wd-accent" focusable="false" role="presentation" viewBox="0 0 56 56"><g fill="none" fill-rule="nonzero" class="wd-icon-container"><path fill="#005DBA" d="M40 6a2 2 0 0 1 2 2v3h3a2 2 0 0 1 2 2v2h1a2 2 0 0 1 2 2v28h1a1 1 0 0 1 0 2H5a1 1 0 0 1 0-2h1V17a2 2 0 0 1 2-2h1v-2a2 2 0 0 1 2-2h25V8a2 2 0 0 1 2-2h2zM12 37H8v8h2v-5a2 2 0 0 1 2-2v-1zm12 0h-4v1a2 2 0 0 1 2 2v5h2v-8zm6 0h-4v8h4v-8zm6 0h-4v8h4v-8zm6 0h-4v8h4v-8zm6 0h-4v8h4v-8zm-33 3h-3v5h3v-5zm5 0h-3v5h3v-5zm-2-3h-4v1h4v-1zm30-10h-4v8h4v-8zm-36 0H8v8h4v-8zm30 0h-4v8h4v-8zm-6 0h-4v8h4v-8zm-6 0h-4v8h4v-8zm-6 0h-4v8h4v-8zm-6 0h-4v8h4v-8zm30-10h-4v8h4v-8zm-36 0H8v8h4v-8zm6 0h-4v8h4v-8zm6 0h-4v8h4v-8zm6 0h-4v8h4v-8zm6 0h-4v8h4v-8zm6 0h-4v8h4v-8zm3-4H11v2h34v-2zm-5-5h-2v3h2V8z" class="color-500"/><path fill="#FFF" d="M12 37v1a2 2 0 0 0-2 2v5H8v-8h4zm12 0v8h-2v-5a2 2 0 0 0-2-2v-1h4zm6 0v8h-4v-8h4zm6 0v8h-4v-8h4zm6 0v8h-4v-8h4zm6 0v8h-4v-8h4zm-33 3v5h-3v-5h3zm5 0v5h-3v-5h3zm-2-3v1h-4v-1h4zm30-10v8h-4v-8h4zm-36 0v8H8v-8h4zm30 0v8h-4v-8h4zm-6 0v8h-4v-8h4zm-6 0v8h-4v-8h4zm-6 0v8h-4v-8h4zm-6 0v8h-4v-8h4zm30-10v8h-4v-8h4zm-36 0v8H8v-8h4zm6 0v8h-4v-8h4zm6 0v8h-4v-8h4zm6 0v8h-4v-8h4zm6 0v8h-4v-8h4zm6 0v8h-4v-8h4zm3-4v2H11v-2h34zm-5-5v3h-2V8h2z" class="french-vanilla-100"/></g></svg>