<svg xmlns="http://www.w3.org/2000/svg" width="56" height="56" class="wd-accent-building wd-accent" focusable="false" role="presentation" viewBox="0 0 56 56"><g fill="none" fill-rule="evenodd" class="wd-icon-container"><path fill="#005DBA" fill-rule="nonzero" d="M29.928 6.775l19.036 10.47A2 2 0 0 1 50 18.997v2a2 2 0 0 1-2 2h-2v1a2 2 0 0 1-2 2v12a2 2 0 0 1 2 2v1a2 2 0 0 1 2 2v2a2 2 0 0 1 2 2v2a2 2 0 0 1-2 2H8a2 2 0 0 1-2-2v-2a2 2 0 0 1 2-2v-2a2 2 0 0 1 2-2v-1a2 2 0 0 1 2-2v-12a2 2 0 0 1-2-2v-1H8a2 2 0 0 1-2-2v-2a2 2 0 0 1 1.036-1.752l19.036-10.47a4 4 0 0 1 3.856 0zM48 46.997H8v2h40v-2zm-2-4H10v2h36v-2zm-26-3h-8v1h8v-1zm12 0h-8v1h8v-1zm12 0h-8v1h8v-1zm-22-16a2 2 0 0 1-2 2v12a2 2 0 0 1 2 2 2 2 0 0 1 2-2v-12a2 2 0 0 1-2-2zm12 0a2 2 0 0 1-2 2v12a2 2 0 0 1 2 2 2 2 0 0 1 2-2v-12a2 2 0 0 1-2-2zm-16 2h-4v12h4v-12zm12 0h-4v12h4v-12zm12 0h-4v12h4v-12zm2-3h-8v1h8v-1zm-12 0h-8v1h8v-1zm-12 0h-8v1h8v-1zm7.036-14.47l-15.4 8.47H21a1 1 0 1 1 0 2H8v2h40v-2H35.267c-.7 0-1.267-.447-1.267-1 0-.552.567-1 1.267-1h9.097l-15.4-8.47a2 2 0 0 0-1.928 0zm2.076 3.088l3 2c1.646 1.098.869 3.664-1.11 3.664h-6c-1.979 0-2.756-2.566-1.11-3.664l3-2a2 2 0 0 1 2.22 0zm-1.11 1.664l-3 2h6l-3-2z" class="color-500"/><path fill="#FFF" d="M14 25.997v12h4v-12h-4zm12 0v12h4v-12h-4zm-6 14v1h-8v-1h8zm22-14v12h-4v-12h4zm-32 17v2h36v-2H10zm26-20v1h8v-1h-8zm-12 17v1h8v-1h-8zm0-17v1h8v-1h-8zm12 17v1h8v-1h-8zm-24-17v1h8v-1h-8zm36 24v2H8v-2h40zM27.036 8.527a2 2 0 0 1 1.928 0l15.4 8.47h-9.097c-.7 0-1.267.448-1.267 1 0 .553.567 1 1.267 1H48v2H8v-2h13a1 1 0 0 0 0-2h-9.364zm2.076 3.088a2 2 0 0 0-2.22 0l-3 2c-1.646 1.098-.869 3.664 1.11 3.664h6c1.979 0 2.756-2.566 1.11-3.664zm-1.11 1.664l3 2h-6l3-2z" class="french-vanilla-100"/></g></svg>