<svg xmlns="http://www.w3.org/2000/svg" width="56" height="56" class="wd-accent-building-home wd-accent" focusable="false" role="presentation" viewBox="0 0 56 56"><g fill="none" fill-rule="nonzero" class="wd-icon-container"><path fill="#005DBA" d="M42 33v-2h-5v2h5zm0 2h-5v2h5v-2zm-23-2v-2h-5v2h5zm0 2h-5v2h5v-2zm27-9H10v20h13V31a2 2 0 0 1 2-2h6a2 2 0 0 1 2 2v15h13V26zm2 0v20h3a1 1 0 0 1 0 2H5a1 1 0 0 1 0-2h3V26H6c-2.072 0-2.777-2.764-.958-3.756L15 16.813V11a2 2 0 0 1 2-2h2a2 2 0 0 1 2 2v2.54l6.042-3.296a2 2 0 0 1 1.916 0l22 12C52.777 23.236 52.072 26 50 26h-2zM19 14.63V11h-2v4.722l2-1.091zM25 31v15h6V31h-6zm-11-2h5a2 2 0 0 1 2 2v6a2 2 0 0 1-2 2h-5a2 2 0 0 1-2-2v-6a2 2 0 0 1 2-2zm23 0h5a2 2 0 0 1 2 2v6a2 2 0 0 1-2 2h-5a2 2 0 0 1-2-2v-6a2 2 0 0 1 2-2zm-9-17L6 24h44L28 12z" class="color-500"/><path fill="#FFF" d="M42 33v-2h-5v2h5zm0 2h-5v2h5v-2zm-23-2v-2h-5v2h5zm0 2h-5v2h5v-2zm27-9H10v20h13V31a2 2 0 0 1 2-2h6a2 2 0 0 1 2 2v15h13V26zM19 14.63V11h-2v4.722l2-1.091zM25 31v15h6V31h-6zm-11-2h5a2 2 0 0 1 2 2v6a2 2 0 0 1-2 2h-5a2 2 0 0 1-2-2v-6a2 2 0 0 1 2-2zm23 0h5a2 2 0 0 1 2 2v6a2 2 0 0 1-2 2h-5a2 2 0 0 1-2-2v-6a2 2 0 0 1 2-2zm-9-17L6 24h44L28 12z" class="french-vanilla-100"/></g></svg>