<svg xmlns="http://www.w3.org/2000/svg" width="56" height="56" class="wd-accent-building-flag wd-accent" focusable="false" role="presentation" viewBox="0 0 56 56"><g fill="none" fill-rule="evenodd" class="wd-icon-container"><path fill="#005DBA" fill-rule="nonzero" d="M34 4a2 2 0 0 1 2 2v2a2 2 0 0 1-2 2h-4v2h18a2 2 0 0 1 1.977 1.696l2 13A2 2 0 0 1 50 29h-2v21a2 2 0 0 1-2 2H10a2 2 0 0 1-2-2V29H6a2 2 0 0 1-1.977-2.304l2-13A2 2 0 0 1 8 12h20V6a2 2 0 0 1 2-2zm12 25H10v21h36V29zM19 40a2 2 0 0 1 2 2v4a2 2 0 0 1-2 2h-4a2 2 0 0 1-2-2v-4a2 2 0 0 1 2-2h4zm11 0a2 2 0 0 1 2 2v4a2 2 0 0 1-2 2h-4a2 2 0 0 1-2-2v-4a2 2 0 0 1 2-2h4zm11 0a2 2 0 0 1 2 2v4a2 2 0 0 1-2 2h-4a2 2 0 0 1-2-2v-4a2 2 0 0 1 2-2h4zm-22 2h-4v4h4v-4zm11 0h-4v4h4v-4zm11 0h-4v4h4v-4zM19 31a2 2 0 0 1 2 2v4a2 2 0 0 1-2 2h-4a2 2 0 0 1-2-2v-4a2 2 0 0 1 2-2h4zm11 0a2 2 0 0 1 2 2v4a2 2 0 0 1-2 2h-4a2 2 0 0 1-2-2v-4a2 2 0 0 1 2-2h4zm11 0a2 2 0 0 1 2 2v4a2 2 0 0 1-2 2h-4a2 2 0 0 1-2-2v-4a2 2 0 0 1 2-2h4zm-22 2h-4v4h4v-4zm11 0h-4v4h4v-4zm11 0h-4v4h4v-4zm7-19H8L6 27h44l-2-13zM34 6h-4v2h4V6z" class="color-500"/><path fill="#FFF" d="M46 29v21H10V29h36zM19 40h-4a2 2 0 0 0-2 2v4a2 2 0 0 0 2 2h4a2 2 0 0 0 2-2v-4a2 2 0 0 0-2-2zm11 0h-4a2 2 0 0 0-2 2v4a2 2 0 0 0 2 2h4a2 2 0 0 0 2-2v-4a2 2 0 0 0-2-2zm11 0h-4a2 2 0 0 0-2 2v4a2 2 0 0 0 2 2h4a2 2 0 0 0 2-2v-4a2 2 0 0 0-2-2zm-22 2v4h-4v-4h4zm11 0v4h-4v-4h4zm11 0v4h-4v-4h4zM19 31h-4a2 2 0 0 0-2 2v4a2 2 0 0 0 2 2h4a2 2 0 0 0 2-2v-4a2 2 0 0 0-2-2zm11 0h-4a2 2 0 0 0-2 2v4a2 2 0 0 0 2 2h4a2 2 0 0 0 2-2v-4a2 2 0 0 0-2-2zm11 0h-4a2 2 0 0 0-2 2v4a2 2 0 0 0 2 2h4a2 2 0 0 0 2-2v-4a2 2 0 0 0-2-2zm-22 2v4h-4v-4h4zm11 0v4h-4v-4h4zm11 0v4h-4v-4h4zM8 14L6 27h44l-2-13H8zm22-8v2h4V6h-4z" class="french-vanilla-100"/></g></svg>