<svg xmlns="http://www.w3.org/2000/svg" width="56" height="56" class="wd-accent-bus wd-accent" focusable="false" role="presentation" viewBox="0 0 56 56"><g fill="none" fill-rule="evenodd" class="wd-icon-container"><path fill="#005DBA" fill-rule="nonzero" d="M38 14a5 5 0 0 1 5 5v5.21l6.331.703A3 3 0 0 1 52 27.895V35a2 2 0 0 1-2 2h-1a6 6 0 1 1-12 0H20a6 6 0 1 1-12 0H6a2 2 0 0 1-2-2V19a5 5 0 0 1 5-5zM14 33a4 4 0 1 0 0 8 4 4 0 0 0 0-8zm29 0a4 4 0 1 0 0 8 4 4 0 0 0 0-8zm-29 1a3 3 0 1 1 0 6 3 3 0 0 1 0-6zm29 0a3 3 0 1 1 0 6 3 3 0 0 1 0-6zm-29 2a1 1 0 1 0 0 2 1 1 0 0 0 0-2zm29 0a1 1 0 1 0 0 2 1 1 0 0 0 0-2zm-5-20H9a3 3 0 0 0-3 3v16h2.341a6.002 6.002 0 0 1 11.318 0H29V20a2 2 0 0 1 2-2h3a2 2 0 0 1 2 2v15h1.341a6.002 6.002 0 0 1 11.318 0H50v-7.105a1 1 0 0 0-.89-.994L41 26h-1.5a2.5 2.5 0 0 1-2.5-2.5v-3a2.5 2.5 0 0 1 2.5-2.5h1.33A3.001 3.001 0 0 0 38 16zm-4 4h-3v15h3V20zm-8 8a1 1 0 0 1 0 2H9a1 1 0 0 1 0-2zm21 0a1 1 0 0 1 0 2h-8a1 1 0 0 1 0-2zM12 18a2 2 0 0 1 2 2v4a2 2 0 0 1-2 2h-2a2 2 0 0 1-2-2v-4a2 2 0 0 1 2-2zm7 0a2 2 0 0 1 2 2v4a2 2 0 0 1-2 2h-2a2 2 0 0 1-2-2v-4a2 2 0 0 1 2-2zm7 0a2 2 0 0 1 2 2v4a2 2 0 0 1-2 2h-2a2 2 0 0 1-2-2v-4a2 2 0 0 1 2-2zm-14 2h-2v4h2v-4zm7 0h-2v4h2v-4zm7 0h-2v4h2v-4zm15 0h-1.5a.5.5 0 0 0-.5.5v3a.5.5 0 0 0 .5.5H41v-4z" class="color-500"/><path fill="#FFF" d="M29 35h-9.341A6.002 6.002 0 0 0 8.34 35H6V19a3 3 0 0 1 3-3h29c1.306 0 2.417.835 2.83 2H39.5a2.5 2.5 0 0 0-2.5 2.5v3a2.5 2.5 0 0 0 2.5 2.5H41l8.11.901a1 1 0 0 1 .89.994V35h-1.341a6.002 6.002 0 0 0-11.318 0H36V20a2 2 0 0 0-2-2h-3a2 2 0 0 0-2 2v15zM10 18a2 2 0 0 0-2 2v4a2 2 0 0 0 2 2h2a2 2 0 0 0 2-2v-4a2 2 0 0 0-2-2h-2zm7 0a2 2 0 0 0-2 2v4a2 2 0 0 0 2 2h2a2 2 0 0 0 2-2v-4a2 2 0 0 0-2-2h-2zm7 0a2 2 0 0 0-2 2v4a2 2 0 0 0 2 2h2a2 2 0 0 0 2-2v-4a2 2 0 0 0-2-2h-2zm10 2v15h-3V20h3zM9 28a1 1 0 0 0 0 2h17a1 1 0 0 0 0-2H9zm30 0a1 1 0 0 0 0 2h8a1 1 0 0 0 0-2h-8zm-29-8h2v4h-2v-4zm7 0h2v4h-2v-4zm7 0h2v4h-2v-4zM14 33a4 4 0 1 1 0 8 4 4 0 0 1 0-8zm29 0a4 4 0 1 1 0 8 4 4 0 0 1 0-8zm-29 1a3 3 0 1 0 0 6 3 3 0 0 0 0-6zm29 0a3 3 0 1 0 0 6 3 3 0 0 0 0-6zm-29 2a1 1 0 1 1 0 2 1 1 0 0 1 0-2zm29 0a1 1 0 1 1 0 2 1 1 0 0 1 0-2zm-2-16v4h-1.5a.5.5 0 0 1-.5-.5v-3a.5.5 0 0 1 .5-.5H41z" class="french-vanilla-100"/></g></svg>