<svg xmlns="http://www.w3.org/2000/svg" width="56" height="56" class="wd-accent-cake wd-accent" focusable="false" role="presentation" viewBox="0 0 56 56"><g fill="none" fill-rule="nonzero" class="wd-icon-container"><path fill="#005DBA" d="M38 13.824V20h5a4 4 0 0 1 4 4v6a2 2 0 0 1-1 1.732V41c0 .35-.06.687-.17 1H49a2 2 0 0 1 2 2v1a2 2 0 0 1-2 2H7a2 2 0 0 1-2-2v-1a2 2 0 0 1 2-2h3.17c-.11-.313-.17-.65-.17-1v-9.268A2 2 0 0 1 9 30v-6a4 4 0 0 1 4-4h5v-6.176c-1.165-.423-2-1.557-2-2.824 0-1.49.67-3.498 1.586-4.414C18.846 5.326 21 6.218 21 8c0 .45.041.581.164.766.024.035.186.264.24.347.383.573.596 1.148.596 1.887 0 1.267-.835 2.4-2 2.824V20h7v-6.176c-1.165-.423-2-1.557-2-2.824 0-1.49.67-3.498 1.586-4.414C27.846 5.326 30 6.218 30 8c0 .45.041.581.164.766.024.035.186.264.24.347.383.573.596 1.148.596 1.887 0 1.267-.835 2.4-2 2.824V20h7v-6.176c-1.165-.423-2-1.557-2-2.824 0-1.49.67-3.498 1.586-4.414C36.846 5.326 39 6.218 39 8c0 .45.041.581.164.766.024.035.186.264.24.347.383.573.596 1.148.596 1.887 0 1.267-.835 2.4-2 2.824zm4.293 17.62l-2.58-1.106a8.016 8.016 0 0 0-5.693-.236l-1.593.53a14 14 0 0 1-8.854 0l-1.593-.53a8.016 8.016 0 0 0-5.692.236l-2.581 1.106a6.872 6.872 0 0 1-1.707.483V41a1 1 0 0 0 1 1h30a1 1 0 0 0 1-1v-9.073a6.872 6.872 0 0 1-1.707-.483zM7 44v1h42v-1H7zm6-22a2 2 0 0 0-2 2v6c.66 0 1.313-.134 1.92-.394L15.5 28.5a10.016 10.016 0 0 1 7.112-.296l1.593.531a12 12 0 0 0 7.59 0l1.593-.53a10.016 10.016 0 0 1 7.112.295l2.58 1.106c.607.26 1.26.394 1.92.394v-6a2 2 0 0 0-2-2H13zm6-10c.552 0 1-.5 1-1 0-1-1-1-1-3-.5.5-1 2-1 3 0 .5.448 1 1 1zm9 0c.552 0 1-.5 1-1 0-1-1-1-1-3-.5.5-1 2-1 3 0 .5.448 1 1 1zm9 0c.552 0 1-.5 1-1 0-1-1-1-1-3-.5.5-1 2-1 3 0 .5.448 1 1 1z" class="color-500"/><path fill="#FFF" d="M42.293 31.444l-2.58-1.106a8.016 8.016 0 0 0-5.693-.236l-1.593.53a14 14 0 0 1-8.854 0l-1.593-.53a8.016 8.016 0 0 0-5.692.236l-2.581 1.106a6.872 6.872 0 0 1-1.707.483V41a1 1 0 0 0 1 1h30a1 1 0 0 0 1-1v-9.073a6.872 6.872 0 0 1-1.707-.483zM7 44v1h42v-1H7zm6-22a2 2 0 0 0-2 2v6c.66 0 1.313-.134 1.92-.394L15.5 28.5a10.016 10.016 0 0 1 7.112-.296l1.593.531a12 12 0 0 0 7.59 0l1.593-.53a10.016 10.016 0 0 1 7.112.295l2.58 1.106c.607.26 1.26.394 1.92.394v-6a2 2 0 0 0-2-2H13zm6-10c.552 0 1-.5 1-1 0-1-1-1-1-3-.5.5-1 2-1 3 0 .5.448 1 1 1zm9 0c.552 0 1-.5 1-1 0-1-1-1-1-3-.5.5-1 2-1 3 0 .5.448 1 1 1zm9 0c.552 0 1-.5 1-1 0-1-1-1-1-3-.5.5-1 2-1 3 0 .5.448 1 1 1z" class="french-vanilla-100"/></g></svg>