<svg xmlns="http://www.w3.org/2000/svg" width="56" height="56" class="wd-accent-calculator wd-accent" focusable="false" role="presentation" viewBox="0 0 56 56"><g fill="none" fill-rule="evenodd" class="wd-icon-container"><path fill="#005DBA" fill-rule="nonzero" d="M44 7a2 2 0 0 1 2 2v38a2 2 0 0 1-2 2H12a2 2 0 0 1-2-2V9a2 2 0 0 1 2-2h32zm0 2H12v38h32V9zM20 37a2 2 0 0 1 2 2v4a2 2 0 0 1-2 2h-4a2 2 0 0 1-2-2v-4a2 2 0 0 1 2-2h4zm10 0a2 2 0 0 1 2 2v4a2 2 0 0 1-2 2h-4a2 2 0 0 1-2-2v-4a2 2 0 0 1 2-2h4zm10-10a2 2 0 0 1 2 2v14a2 2 0 0 1-2 2h-4a2 2 0 0 1-2-2V29a2 2 0 0 1 2-2h4zM20 39h-4v4h4v-4zm10 0h-4v4h4v-4zm10-10h-4v14h4V29zm-20-2a2 2 0 0 1 2 2v4a2 2 0 0 1-2 2h-4a2 2 0 0 1-2-2v-4a2 2 0 0 1 2-2h4zm10 0a2 2 0 0 1 2 2v4a2 2 0 0 1-2 2h-4a2 2 0 0 1-2-2v-4a2 2 0 0 1 2-2h4zm-10 2h-4v4h4v-4zm10 0h-4v4h4v-4zm10-18a2 2 0 0 1 2 2v10a2 2 0 0 1-2 2H16a2 2 0 0 1-2-2V13a2 2 0 0 1 2-2h24zm0 2H16v10h24V13z" class="color-500"/><path fill="#FFF" d="M44 9v38H12V9h32zM20 37h-4a2 2 0 0 0-2 2v4a2 2 0 0 0 2 2h4a2 2 0 0 0 2-2v-4a2 2 0 0 0-2-2zm10 0h-4a2 2 0 0 0-2 2v4a2 2 0 0 0 2 2h4a2 2 0 0 0 2-2v-4a2 2 0 0 0-2-2zm10-10h-4a2 2 0 0 0-2 2v14a2 2 0 0 0 2 2h4a2 2 0 0 0 2-2V29a2 2 0 0 0-2-2zM20 39v4h-4v-4h4zm10 0v4h-4v-4h4zm10-10v14h-4V29h4zm-20-2h-4a2 2 0 0 0-2 2v4a2 2 0 0 0 2 2h4a2 2 0 0 0 2-2v-4a2 2 0 0 0-2-2zm10 0h-4a2 2 0 0 0-2 2v4a2 2 0 0 0 2 2h4a2 2 0 0 0 2-2v-4a2 2 0 0 0-2-2zm-10 2v4h-4v-4h4zm10 0v4h-4v-4h4zm10-18H16a2 2 0 0 0-2 2v10a2 2 0 0 0 2 2h24a2 2 0 0 0 2-2V13a2 2 0 0 0-2-2zm0 2v10H16V13h24z" class="french-vanilla-100"/></g></svg>