<svg xmlns="http://www.w3.org/2000/svg" width="56" height="56" class="wd-accent-calendar-speech-bubble wd-accent" focusable="false" role="presentation" viewBox="0 0 56 56"><g fill="none" fill-rule="evenodd" class="wd-icon-container"><path fill="#005DBA" fill-rule="nonzero" d="M43 4a2 2 0 0 1 2 2v16.767c4.23 2.62 7 6.871 7 11.733 0 3.94-1.843 7.601-5 10.28V50c0 1.696-1.978 2.622-3.28 1.536l-3.786-3.155A19.784 19.784 0 0 1 35 49c-7.503 0-13.948-4.153-16.172-10H6a2 2 0 0 1-2-2V6a2 2 0 0 1 2-2zm-8 18c-8.284 0-15 5.596-15 12.5S26.716 47 35 47c1.903 0 3.724-.295 5.399-.834L45 50v-6.183c3.069-2.289 5-5.615 5-9.317C50 27.596 43.284 22 35 22zm8-8H6v23h12.25a12.58 12.58 0 0 1-.24-2H16a1 1 0 0 1-1-1v-3a1 1 0 0 1 1-1h2.828c.687-1.804 1.775-3.447 3.172-4.857V24a1 1 0 0 1 1-1h1.634a18.093 18.093 0 0 1 4.77-2.197A.999.999 0 0 1 29 20v-3a1 1 0 0 1 1-1h3a1 1 0 0 1 1 1v3.025a20.22 20.22 0 0 1 2 0V17a1 1 0 0 1 1-1h3a1 1 0 0 1 1 1v3c0 .329-.159.62-.404.803.832.247 1.635.547 2.404.897V14zM12 30a1 1 0 0 1 1 1v3a1 1 0 0 1-1 1H9a1 1 0 0 1-1-1v-3a1 1 0 0 1 1-1zm0-7a1 1 0 0 1 1 1v3a1 1 0 0 1-1 1H9a1 1 0 0 1-1-1v-3a1 1 0 0 1 1-1zm7 0a1 1 0 0 1 1 1v3a1 1 0 0 1-1 1h-3a1 1 0 0 1-1-1v-3a1 1 0 0 1 1-1zm-7-7a1 1 0 0 1 1 1v3a1 1 0 0 1-1 1H9a1 1 0 0 1-1-1v-3a1 1 0 0 1 1-1zm7 0a1 1 0 0 1 1 1v3a1 1 0 0 1-1 1h-3a1 1 0 0 1-1-1v-3a1 1 0 0 1 1-1zm7 0a1 1 0 0 1 1 1v3a1 1 0 0 1-1 1h-3a1 1 0 0 1-1-1v-3a1 1 0 0 1 1-1zM43 6H6v6h37V6zM10 7a2 2 0 1 1 0 4 2 2 0 0 1 0-4zm29 0a2 2 0 1 1 0 4 2 2 0 0 1 0-4z" class="color-500"/><path fill="#FFF" d="M40.596 20.803A.999.999 0 0 0 41 20v-3a1 1 0 0 0-1-1h-3a1 1 0 0 0-1 1v3.025a20.22 20.22 0 0 0-2 0V17a1 1 0 0 0-1-1h-3a1 1 0 0 0-1 1v3c0 .329.159.62.404.803A18.093 18.093 0 0 0 24.634 23H23a1 1 0 0 0-1 1v1.143c-1.397 1.41-2.485 3.053-3.172 4.857H16a1 1 0 0 0-1 1v3a1 1 0 0 0 1 1h2.01c.027.68.108 1.348.24 2H6V14h37v7.7c-.769-.35-1.572-.65-2.404-.897zM9 16a1 1 0 0 0-1 1v3a1 1 0 0 0 1 1h3a1 1 0 0 0 1-1v-3a1 1 0 0 0-1-1H9zm0 7a1 1 0 0 0-1 1v3a1 1 0 0 0 1 1h3a1 1 0 0 0 1-1v-3a1 1 0 0 0-1-1H9zm0 7a1 1 0 0 0-1 1v3a1 1 0 0 0 1 1h3a1 1 0 0 0 1-1v-3a1 1 0 0 0-1-1H9zm7-14a1 1 0 0 0-1 1v3a1 1 0 0 0 1 1h3a1 1 0 0 0 1-1v-3a1 1 0 0 0-1-1h-3zm0 7a1 1 0 0 0-1 1v3a1 1 0 0 0 1 1h3a1 1 0 0 0 1-1v-3a1 1 0 0 0-1-1h-3zm7-7a1 1 0 0 0-1 1v3a1 1 0 0 0 1 1h3a1 1 0 0 0 1-1v-3a1 1 0 0 0-1-1h-3zM6 6h37v6H6V6zm4 5a2 2 0 1 0 0-4 2 2 0 0 0 0 4zm29 0a2 2 0 1 0 0-4 2 2 0 0 0 0 4zm1.399 35.166A17.637 17.637 0 0 1 35 47c-8.284 0-15-5.596-15-12.5S26.716 22 35 22c8.284 0 15 5.596 15 12.5 0 3.702-1.931 7.028-5 9.317V50l-4.601-3.834z" class="french-vanilla-100"/></g></svg>