<svg xmlns="http://www.w3.org/2000/svg" width="56" height="56" class="wd-accent-calendar-chart wd-accent" focusable="false" role="presentation" viewBox="0 0 56 56"><g fill="none" fill-rule="evenodd" class="wd-icon-container"><path fill="#005DBA" fill-rule="nonzero" d="M43 28.378V17H6v23h22c0-1.708.357-3.333 1-4.803V34a1 1 0 0 1 1-1h.252a12.068 12.068 0 0 1 1.81-2H30a1 1 0 0 1-1-1v-3a1 1 0 0 1 1-1h3a1 1 0 0 1 1 1v2.605a11.941 11.941 0 0 1 2-.922C31.34 30.33 28 34.775 28 40c0 .681.057 1.35.166 2H6a2 2 0 0 1-2-2V9a2 2 0 0 1 2-2h37a2 2 0 0 1 2 2v20.088a11.912 11.912 0 0 0-2-.71zM47.418 41a2 2 0 0 1 1.854 2.75A10.002 10.002 0 0 1 40 50c-5.523 0-10-4.477-10-10 0-4.11 2.503-7.756 6.25-9.272A2 2 0 0 1 39 32.582V41h8.418zm2.533-2H41v-8.95A10.003 10.003 0 0 1 49.95 39zM6 9v6h37V9H6zm4 5a2 2 0 1 1 0-4 2 2 0 0 1 0 4zm29 0a2 2 0 1 1 0-4 2 2 0 0 1 0 4zM9 19h3a1 1 0 0 1 1 1v3a1 1 0 0 1-1 1H9a1 1 0 0 1-1-1v-3a1 1 0 0 1 1-1zm0 7h3a1 1 0 0 1 1 1v3a1 1 0 0 1-1 1H9a1 1 0 0 1-1-1v-3a1 1 0 0 1 1-1zm0 7h3a1 1 0 0 1 1 1v3a1 1 0 0 1-1 1H9a1 1 0 0 1-1-1v-3a1 1 0 0 1 1-1zm7-14h3a1 1 0 0 1 1 1v3a1 1 0 0 1-1 1h-3a1 1 0 0 1-1-1v-3a1 1 0 0 1 1-1zm0 7h3a1 1 0 0 1 1 1v3a1 1 0 0 1-1 1h-3a1 1 0 0 1-1-1v-3a1 1 0 0 1 1-1zm0 7h3a1 1 0 0 1 1 1v3a1 1 0 0 1-1 1h-3a1 1 0 0 1-1-1v-3a1 1 0 0 1 1-1zm7-14h3a1 1 0 0 1 1 1v3a1 1 0 0 1-1 1h-3a1 1 0 0 1-1-1v-3a1 1 0 0 1 1-1zm0 7h3a1 1 0 0 1 1 1v3a1 1 0 0 1-1 1h-3a1 1 0 0 1-1-1v-3a1 1 0 0 1 1-1zm0 7h3a1 1 0 0 1 1 1v3a1 1 0 0 1-1 1h-3a1 1 0 0 1-1-1v-3a1 1 0 0 1 1-1zm7-14h3a1 1 0 0 1 1 1v3a1 1 0 0 1-1 1h-3a1 1 0 0 1-1-1v-3a1 1 0 0 1 1-1zm7 0h3a1 1 0 0 1 1 1v3a1 1 0 0 1-1 1h-3a1 1 0 0 1-1-1v-3a1 1 0 0 1 1-1zm0 13.582A8.003 8.003 0 0 0 40 48a8.003 8.003 0 0 0 7.418-5H37V32.582zm4-4.54V27a1 1 0 0 0-1-1h-3a1 1 0 0 0-1 1v1.683a11.98 11.98 0 0 1 5-.642z" class="color-500"/><path fill="#FFF" d="M43 28.378a11.968 11.968 0 0 0-2-.337V27a1 1 0 0 0-1-1h-3a1 1 0 0 0-1 1v1.683c-.699.247-1.368.557-2 .922V27a1 1 0 0 0-1-1h-3a1 1 0 0 0-1 1v3a1 1 0 0 0 1 1h2.063a12.068 12.068 0 0 0-1.81 2H30a1 1 0 0 0-1 1v1.197A11.96 11.96 0 0 0 28 40H6V17h37v11.378zM6 9h37v6H6V9zm4 5a2 2 0 1 0 0-4 2 2 0 0 0 0 4zm29 0a2 2 0 1 0 0-4 2 2 0 0 0 0 4zM9 19a1 1 0 0 0-1 1v3a1 1 0 0 0 1 1h3a1 1 0 0 0 1-1v-3a1 1 0 0 0-1-1H9zm0 7a1 1 0 0 0-1 1v3a1 1 0 0 0 1 1h3a1 1 0 0 0 1-1v-3a1 1 0 0 0-1-1H9zm0 7a1 1 0 0 0-1 1v3a1 1 0 0 0 1 1h3a1 1 0 0 0 1-1v-3a1 1 0 0 0-1-1H9zm7-14a1 1 0 0 0-1 1v3a1 1 0 0 0 1 1h3a1 1 0 0 0 1-1v-3a1 1 0 0 0-1-1h-3zm0 7a1 1 0 0 0-1 1v3a1 1 0 0 0 1 1h3a1 1 0 0 0 1-1v-3a1 1 0 0 0-1-1h-3zm0 7a1 1 0 0 0-1 1v3a1 1 0 0 0 1 1h3a1 1 0 0 0 1-1v-3a1 1 0 0 0-1-1h-3zm7-14a1 1 0 0 0-1 1v3a1 1 0 0 0 1 1h3a1 1 0 0 0 1-1v-3a1 1 0 0 0-1-1h-3zm0 7a1 1 0 0 0-1 1v3a1 1 0 0 0 1 1h3a1 1 0 0 0 1-1v-3a1 1 0 0 0-1-1h-3zm0 7a1 1 0 0 0-1 1v3a1 1 0 0 0 1 1h3a1 1 0 0 0 1-1v-3a1 1 0 0 0-1-1h-3zm7-14a1 1 0 0 0-1 1v3a1 1 0 0 0 1 1h3a1 1 0 0 0 1-1v-3a1 1 0 0 0-1-1h-3zm7 0a1 1 0 0 0-1 1v3a1 1 0 0 0 1 1h3a1 1 0 0 0 1-1v-3a1 1 0 0 0-1-1h-3zm0 13.582V43h10.418A8.003 8.003 0 0 1 32 40a8.003 8.003 0 0 1 5-7.418z" class="french-vanilla-100"/></g></svg>