<svg xmlns="http://www.w3.org/2000/svg" width="56" height="56" class="wd-accent-call-bell wd-accent" focusable="false" role="presentation" viewBox="0 0 56 56"><g fill="none" fill-rule="evenodd" class="wd-icon-container"><path fill="#005DBA" fill-rule="nonzero" d="M50 39a2 2 0 0 1 2 2v2a2 2 0 0 1-2 2H6a2 2 0 0 1-2-2v-2a2 2 0 0 1 2-2h44zm0 2H6v2h44v-2zM32 10a2 2 0 0 1 2 2v2a2 2 0 0 1-2 2h-3v1h11.248a8.8 8.8 0 0 1 8.8 8.8v2.88c0 2.219.581 4.4 1.686 6.324C51.5 36.337 50.538 38 49 38H7c-1.538 0-2.5-1.663-1.734-2.996a12.701 12.701 0 0 0 1.686-6.325V25.8a8.8 8.8 0 0 1 8.8-8.8H27v-1h-3a2 2 0 0 1-2-2v-2a2 2 0 0 1 2-2h8zm8.248 9H15.752a6.8 6.8 0 0 0-6.8 6.8v2.88A14.7 14.7 0 0 1 8.768 31H32a1 1 0 0 1 0 2H8.303A14.7 14.7 0 0 1 7 36h42a14.7 14.7 0 0 1-1.303-3H37a1 1 0 0 1 0-2h10.232a14.7 14.7 0 0 1-.184-2.32V25.8a6.8 6.8 0 0 0-6.8-6.8zM32 12h-8v2h8v-2z" class="color-500"/><path fill="#FFF" d="M8.768 31a14.7 14.7 0 0 0 .184-2.32V25.8a6.8 6.8 0 0 1 6.8-6.8h24.496a6.8 6.8 0 0 1 6.8 6.8v2.88c0 .78.062 1.555.184 2.32H37a1 1 0 0 0 0 2h10.697A14.7 14.7 0 0 0 49 36H7a14.7 14.7 0 0 0 1.303-3H32a1 1 0 0 0 0-2H8.768zM6 41v2h44v-2H6zm18-29v2h8v-2h-8z" class="french-vanilla-100"/></g></svg>