<svg xmlns="http://www.w3.org/2000/svg" width="56" height="56" fill="none" class="wd-accent-candidate-engagement wd-accent" focusable="false" role="presentation" viewBox="0 0 56 56"><g class="wd-icon-container"><g fill="#fff" class="french-vanilla-100"><path d="M7.988 36.883l7.397-8.347a.782.782 0 0 1 1.088-.08l1.39 1.166a.65.65 0 0 1 .066.932l-.19.213-.019.021-1.51 1.687-5.782 6.454a4.716 4.716 0 1 0 7.222 6.06l5.353-6.813-.002-.002 1.4-1.78.02-.023.175-.223a.65.65 0 0 1 .929-.097l1.39 1.167a.781.781 0 0 1 .11 1.085l-.072.09a.916.916 0 0 1-.031.042l-1.442 1.82-.003-.003-5.387 6.785A7.902 7.902 0 1 1 7.988 36.883zM29.977 15.5c0-5.799 4.7-10.5 10.5-10.5 5.799 0 10.5 4.701 10.5 10.5S46.276 26 40.477 26c-5.8 0-10.5-4.701-10.5-10.5z"/><path d="M38.727 13.75a1.75 1.75 0 1 1 3.5 0v1.75a1.75 1.75 0 1 1-3.5 0v-1.75zM12.977 10a6 6 0 1 1 12 0 6 6 0 0 1-12 0zM39.977 36a6 6 0 1 1 12 0 6 6 0 0 1-12 0z"/></g><g fill="#0875E1" class="color-500"><path fill-rule="evenodd" d="M12.977 10a6 6 0 1 1 12 0 6 6 0 0 1-12 0zm6 4a4 4 0 1 1 0-8 4 4 0 0 1 0 8zM40.477 5c-5.8 0-10.5 4.701-10.5 10.5s4.7 10.5 10.5 10.5c5.799 0 10.5-4.701 10.5-10.5S46.276 5 40.477 5zM36 22.727A8.46 8.46 0 0 0 40.477 24a8.46 8.46 0 0 0 4.5-1.288l.023-.031V22a2 2 0 0 0-2-2h-5a2 2 0 0 0-2 2v.727zm10.893-1.651A4.001 4.001 0 0 0 43 18h-.05A3.49 3.49 0 0 0 44 15.5v-2a3.5 3.5 0 1 0-7 0v2c0 .98.402 1.865 1.05 2.5H38a4.002 4.002 0 0 0-3.902 3.118 8.5 8.5 0 1 1 12.795-.042zM40.5 12a1.5 1.5 0 0 0-1.5 1.5v2a1.5 1.5 0 0 0 3 0v-2a1.5 1.5 0 0 0-1.5-1.5zM13.889 27.209L6.49 35.556c-3.696 4.17-3.223 10.57 1.046 14.152 4.27 3.582 10.653 2.937 14.119-1.428l4.11-5.175.004.003 2.72-3.431a3.06 3.06 0 0 0 .054-.072l.047-.059a2.782 2.782 0 0 0-.39-3.86l-1.39-1.167a2.65 2.65 0 0 0-3.788.393l-.162.206-.03.038-2.6 3.304.003.003-4.157 5.29a2.716 2.716 0 1 1-4.159-3.49l4.49-5.012v.001l2.802-3.13.012-.014.002-.001.018-.021.177-.198a2.65 2.65 0 0 0-.27-3.798l-1.39-1.167a2.782 2.782 0 0 0-3.87.286zm11.588 13.043l1.476-1.859a.954.954 0 0 0-.166-1.282l-1.022-.858a.954.954 0 0 0-1.345.118l-1.417 1.804 2.474 2.077zm-1.244 1.566l-2.466-2.07-4.117 5.241a4.716 4.716 0 1 1-7.222-6.06l4.446-4.964-2.466-2.07-4.42 4.987A7.902 7.902 0 1 0 20.09 47.037l4.143-5.219zm-6.495-11.05l-1.529 1.706-2.473-2.076 1.538-1.736a.954.954 0 0 1 1.327-.098l1.021.857c.406.34.456.944.116 1.346zM45.977 30a6 6 0 1 0 0 12 6 6 0 0 0 0-12zm-4 6a4 4 0 1 0 8 0 4 4 0 0 0-8 0z" clip-rule="evenodd"/><path d="M15.168 23.093A1 1 0 0 0 17.166 23l-.171-3.653a1 1 0 1 0-1.998.094l.17 3.652zM20.297 24.008a1 1 0 0 0 1.517 1.304l2.384-2.772a1 1 0 0 0-1.516-1.304l-2.385 2.772zM12.29 25.507a1 1 0 0 1-1.412.077l-2.723-2.44a1 1 0 0 1 1.335-1.49l2.723 2.441a1 1 0 0 1 .077 1.412zM28.874 31.387a1 1 0 1 0 1.517 1.304l2.384-2.773a1 1 0 1 0-1.516-1.304l-2.385 2.773zM31.893 36.943a1 1 0 0 1 .795-1.17l3.592-.684a1 1 0 0 1 .375 1.964l-3.592.685a1 1 0 0 1-1.17-.795zM32.07 40.922a1 1 0 1 0-.725 1.864l3.407 1.327a1 1 0 0 0 .726-1.864l-3.408-1.327z"/></g></g></svg>