<svg xmlns="http://www.w3.org/2000/svg" width="56" height="56" class="wd-accent-candidate-pipeline wd-accent" focusable="false" role="presentation" viewBox="0 0 56 56"><g fill="none" fill-rule="evenodd" class="wd-icon-container"><path fill="#005CB9" d="M23.585 33.777A42.94 42.94 0 0 0 28.17 34a3 3 0 1 1 5.772-.41 37.743 37.743 0 0 0 6.435-1.49c1.562-.512 3.039.974 2.52 2.532l-1 3a2 2 0 0 1-1.155 1.225c-.791.316-1.614.597-2.47.843a4 4 0 1 1-7.119 1.196c-1.02.07-2.07.104-3.154.104-4.907 0-9.156-.708-12.743-2.143a2 2 0 0 1-1.154-1.225l-1-3c-.52-1.558.957-3.044 2.519-2.533l.384.123a3.99 3.99 0 0 1 1.372-3.243 36.757 36.757 0 0 1-4.01-1.082 2 2 0 0 1-1.265-1.265l-1-3c-.509-1.525.9-2.997 2.446-2.555C18.033 22.358 22.85 23 28 23c.6 0 1.196-.009 1.788-.026A5.973 5.973 0 0 1 29 20c0-.343.029-.68.084-1.007a81.44 81.44 0 0 1-2.337-.003 4.502 4.502 0 0 1-8.671-.664 50.64 50.64 0 0 1-6.626-1.403 2 2 0 0 1-1.347-1.29l-1-3c-.5-1.498.851-2.956 2.382-2.573C16.653 11.352 22.157 12 28 12s11.347-.648 16.515-1.94c1.53-.383 2.881 1.075 2.382 2.572l-1 3a2 2 0 0 1-1.347 1.291 48.221 48.221 0 0 1-3.94.944c.252.663.39 1.382.39 2.133a6.01 6.01 0 0 1-.193 1.514c.553-.136 1.1-.282 1.644-.437 1.546-.442 2.955 1.03 2.446 2.555l-1 3a2 2 0 0 1-1.265 1.265C38.415 29.303 33.537 30 28 30a59.39 59.39 0 0 1-4.643-.175c.407.626.643 1.373.643 2.175 0 .638-.15 1.241-.415 1.777zm-5.403-.942a38.17 38.17 0 0 0 3.162.646 2 2 0 1 0-3.162-.646zm12.432 1.088c.3-.018.6-.039.897-.063a1 1 0 1 0-.897.063zm2.895 6.744a2 2 0 1 0 2.476-.408c-.8.163-1.626.299-2.476.408zm-1.313-17.814a52.318 52.318 0 0 0 6.249-.819A3.981 3.981 0 0 0 39 20c0-.637-.149-1.24-.414-1.775-2.354.371-4.835.609-7.444.713a4.004 4.004 0 0 0 1.054 3.915zm-11.94-4.251a2.5 2.5 0 0 0 4.298.323 67.706 67.706 0 0 1-4.299-.323zM24 49a3 3 0 1 1 0-6 3 3 0 0 1 0 6zm0-2a1 1 0 1 0 0-2 1 1 0 0 0 0 2zM11 12l1 3c4.666 1.333 10 2 16 2s11.334-.667 16-2l1-3c-5.33 1.333-10.997 2-17 2s-11.67-.667-17-2zm2 11l1 3c4 1.333 8.667 2 14 2s10-.667 14-2l1-3c-4.667 1.333-9.667 2-15 2s-10.333-.667-15-2zm2 11l1 3c3.333 1.333 7.333 2 12 2s8.667-.667 12-2l1-3c-4.076 1.333-8.41 2-13 2s-8.924-.667-13-2z" class="color-500"/><path fill="#FFF" d="M18.182 32.835a38.17 38.17 0 0 0 3.162.646 2 2 0 1 0-3.162-.646zm12.432 1.088c.3-.018.6-.039.897-.063a1 1 0 1 0-.897.063zm2.895 6.744a2 2 0 1 0 2.476-.408c-.8.163-1.626.299-2.476.408zm-1.313-17.814a52.318 52.318 0 0 0 6.249-.819A3.981 3.981 0 0 0 39 20c0-.637-.149-1.24-.414-1.775-2.354.371-4.835.609-7.444.713a4.004 4.004 0 0 0 1.054 3.915zm-11.94-4.251a2.5 2.5 0 0 0 4.298.323 67.706 67.706 0 0 1-4.299-.323zM24 47a1 1 0 1 0 0-2 1 1 0 0 0 0 2zM11 12l1 3c4.666 1.333 10 2 16 2s11.334-.667 16-2l1-3c-5.33 1.333-10.997 2-17 2s-11.67-.667-17-2zm2 11l1 3c4 1.333 8.667 2 14 2s10-.667 14-2l1-3c-4.667 1.333-9.667 2-15 2s-10.333-.667-15-2zm2 11l1 3c3.333 1.333 7.333 2 12 2s8.667-.667 12-2l1-3c-4.076 1.333-8.41 2-13 2s-8.924-.667-13-2z" class="french-vanilla-100"/></g></svg>