<svg xmlns="http://www.w3.org/2000/svg" width="56" height="56" class="wd-accent-car wd-accent" focusable="false" role="presentation" viewBox="0 0 56 56"><g fill="none" fill-rule="evenodd" class="wd-icon-container"><path fill="#005DBA" fill-rule="nonzero" d="M38.001 7a7 7 0 0 1 6.977 6.429l.98 11.976a8.003 8.003 0 0 1 5.463 7.05l.574 8.409A2 2 0 0 1 50 43h-2v5a3 3 0 0 1-6 0v-5H14v5.01a2.99 2.99 0 0 1-5.98 0V43H6a2 2 0 0 1-1.995-2.136l.574-8.41a8.003 8.003 0 0 1 5.463-7.049l.98-11.976A7 7 0 0 1 18 7H38zm5.438 20H12.561a6 6 0 0 0-5.986 5.591L6 41h44l-.575-8.409A6 6 0 0 0 43.44 27zM35 37a1 1 0 0 1 0 2H21a1 1 0 0 1 0-2zm-21.5-7a4.5 4.5 0 1 1 0 9 4.5 4.5 0 0 1 0-9zm29 0a4.5 4.5 0 1 1 0 9 4.5 4.5 0 0 1 0-9zm0 2a2.5 2.5 0 1 0 0 5 2.5 2.5 0 0 0 0-5zm-29 0a2.5 2.5 0 1 0 0 5 2.5 2.5 0 0 0 0-5zM35 33a1 1 0 0 1 0 2H21a1 1 0 0 1 0-2zm0-4a1 1 0 0 1 0 2H21a1 1 0 0 1 0-2zm3.001-20H18a5 5 0 0 0-4.984 4.592l-.934 11.422c.158-.01.319-.014.48-.014h1.591l.854-11.228A3 3 0 0 1 17.998 11h20.004a3 3 0 0 1 2.992 2.772L41.848 25h1.591c.161 0 .322.005.48.014l-.934-11.422A5 5 0 0 0 38 9zM33.5 22a3 3 0 0 0-3 3h6a3 3 0 0 0-3-3zm4.502-9H17.998a1 1 0 0 0-.997.924L16.158 25H28.5a5 5 0 0 1 10 0h1.342l-.843-11.076a1 1 0 0 0-.997-.924z" class="color-500"/><path fill="#FFF" d="M43.92 25.014l-.935-11.422A5 5 0 0 0 38 9H18a5 5 0 0 0-4.984 4.592l-.934 11.422c.158-.01.319-.014.48-.014h1.591l.854-11.228A3 3 0 0 1 17.998 11h20.004a3 3 0 0 1 2.992 2.772L41.848 25h1.591c.161 0 .322.005.48.014zM12.56 27h30.88a6 6 0 0 1 5.985 5.591L50 41H6l.575-8.409A6 6 0 0 1 12.56 27zM21 35h14a1 1 0 0 0 0-2H21a1 1 0 0 0 0 2zm0 4h14a1 1 0 0 0 0-2H21a1 1 0 0 0 0 2zm0-8h14a1 1 0 0 0 0-2H21a1 1 0 0 0 0 2zm-7.5-1a4.5 4.5 0 1 1 0 9 4.5 4.5 0 0 1 0-9zm29 2a2.5 2.5 0 1 1 0 5 2.5 2.5 0 0 1 0-5zm0-2a4.5 4.5 0 1 1 0 9 4.5 4.5 0 0 1 0-9zm-29 2a2.5 2.5 0 1 1 0 5 2.5 2.5 0 0 1 0-5z" class="french-vanilla-100"/></g></svg>