<svg xmlns="http://www.w3.org/2000/svg" width="56" height="56" class="wd-accent-chair wd-accent" focusable="false" role="presentation" viewBox="0 0 56 56"><g fill="none" fill-rule="evenodd" class="wd-icon-container"><path fill="#005DBA" fill-rule="nonzero" d="M29 38v5.256l9.287 2.786a1 1 0 0 1-.574 1.916L29 45.344V47a1 1 0 1 1-2 0v-1.656l-8.713 2.614a1 1 0 0 1-.574-1.916L27 43.256V38h-7.5a4.5 4.5 0 1 1 0-9H25v-3h-3.801a3 3 0 0 1-2.994-3.192l.9-14A3 3 0 0 1 22.1 6h11.802a3 3 0 0 1 2.994 2.808l.9 14A3 3 0 0 1 34.8 26H31v3h5.5a4.5 4.5 0 1 1 0 9H29zm-1 13a1 1 0 1 1 0-2 1 1 0 0 1 0 2zm-10 0a1 1 0 1 1 0-2 1 1 0 0 1 0 2zm20 0a1 1 0 1 1 0-2 1 1 0 0 1 0 2zM21.101 8.936l-.9 14A1 1 0 0 0 21.2 24h13.602a1 1 0 0 0 .998-1.064l-.9-14A1 1 0 0 0 33.9 8H22.099a1 1 0 0 0-.998.936zM27 29h2v-3h-2v3zm-7.5 2a2.5 2.5 0 1 0 0 5h17a2.5 2.5 0 1 0 0-5h-17z" class="color-500"/><path fill="#FFF" d="M27 29h2v-3h-2v3zM21.101 8.936l-.9 14A1 1 0 0 0 21.2 24h13.602a1 1 0 0 0 .998-1.064l-.9-14A1 1 0 0 0 33.9 8H22.099a1 1 0 0 0-.998.936zM19.5 31a2.5 2.5 0 1 0 0 5h17a2.5 2.5 0 1 0 0-5h-17z" class="french-vanilla-100"/></g></svg>