<svg xmlns="http://www.w3.org/2000/svg" width="56" height="56" class="wd-accent-chart-bar-arrow wd-accent" focusable="false" role="presentation" viewBox="0 0 56 56"><g fill="none" fill-rule="evenodd" class="wd-icon-container"><path fill="#005DBA" fill-rule="nonzero" d="M45.501 10H43a1 1 0 0 1 0-2h6v6a1 1 0 0 1-2 0v-2.657L28.667 27.745a1 1 0 0 1-1.331.002l-8.399-7.465L8.588 27.81a1 1 0 0 1-1.176-1.618l11-8a1 1 0 0 1 1.252.062l8.334 7.407L45.5 10zM45 18h2a2 2 0 0 1 2 2v26a2 2 0 0 1-2 2h-2a2 2 0 0 1-2-2V20a2 2 0 0 1 2-2zm-9 6h2a2 2 0 0 1 2 2v20a2 2 0 0 1-2 2h-2a2 2 0 0 1-2-2V26a2 2 0 0 1 2-2zm-9 6h2a2 2 0 0 1 2 2v14a2 2 0 0 1-2 2h-2a2 2 0 0 1-2-2V32a2 2 0 0 1 2-2zm-9-4h2a2 2 0 0 1 2 2v18a2 2 0 0 1-2 2h-2a2 2 0 0 1-2-2V28a2 2 0 0 1 2-2zm-9 4h2a2 2 0 0 1 2 2v14a2 2 0 0 1-2 2H9a2 2 0 0 1-2-2V32a2 2 0 0 1 2-2z" class="color-500"/><path fill="#FFF" d="M45 20h2v26h-2V20zm-9 6h2v20h-2V26zm-9 6h2v14h-2V32zm-9-4h2v18h-2V28zm-9 4h2v14H9V32z" class="french-vanilla-100"/></g></svg>