<svg xmlns="http://www.w3.org/2000/svg" width="56" height="56" class="wd-accent-chart-bar-scatter wd-accent" focusable="false" role="presentation" viewBox="0 0 56 56"><g fill="none" fill-rule="evenodd" class="wd-icon-container"><path fill="#005DBA" fill-rule="nonzero" d="M7 32h8a2 2 0 0 1 2 2v16a2 2 0 0 1-2 2H7a2 2 0 0 1-2-2V34a2 2 0 0 1 2-2zm0 2v16h8V34H7zm34-14h8a2 2 0 0 1 2 2v28a2 2 0 0 1-2 2h-8a2 2 0 0 1-2-2V22a2 2 0 0 1 2-2zm0 2v28h8V22h-8zm-17 6v22h8V28h-8zm8-2a2 2 0 0 1 2 2v22a2 2 0 0 1-2 2h-8a2 2 0 0 1-2-2V28a2 2 0 0 1 2-2h8zM48 4a4 4 0 1 1-2.58 7.057l-6.618 4.697a4 4 0 0 1-7.75 1.892l-7.406-.998a4 4 0 0 1-5.91 1.65l-6.108 5.016a4 4 0 1 1-1.27-1.545l6.063-4.98a4 4 0 1 1 7.566-2.113l7.246.977a4.002 4.002 0 0 1 6.489-1.584l6.54-4.642A4 4 0 0 1 48 4zM8 23a2 2 0 1 0 0 4 2 2 0 0 0 0-4zm27-8a2 2 0 1 0 0 4 2 2 0 0 0 0-4zm-15-2a2 2 0 1 0 0 4 2 2 0 0 0 0-4zm28-7a2 2 0 1 0 0 4 2 2 0 0 0 0-4z" class="color-500"/><path fill="#FFF" d="M8 27a2 2 0 1 0 0-4 2 2 0 0 0 0 4zm12-10a2 2 0 1 0 0-4 2 2 0 0 0 0 4zm15 2a2 2 0 1 0 0-4 2 2 0 0 0 0 4zm13-9a2 2 0 1 0 0-4 2 2 0 0 0 0 4zM7 34h8v16H7zm34-12h8v28h-8zm-17 6h8v22h-8z" class="french-vanilla-100"/></g></svg>