<svg xmlns="http://www.w3.org/2000/svg" width="56" height="56" class="wd-accent-chart-bar-straight-arrow wd-accent" focusable="false" role="presentation" viewBox="0 0 56 56"><g fill="none" fill-rule="evenodd" class="wd-icon-container"><path fill="#005DBA" fill-rule="nonzero" d="M18 31a1 1 0 0 1 1 1v16a1 1 0 0 1-1 1h-8a1 1 0 0 1-1-1V32a1 1 0 0 1 1-1h8zm14-6a1 1 0 0 1 1 1v22a1 1 0 0 1-1 1h-8a1 1 0 0 1-1-1V26a1 1 0 0 1 1-1h8zm14-6a1 1 0 0 1 1 1v28a1 1 0 0 1-1 1h-8a1 1 0 0 1-1-1V20a1 1 0 0 1 1-1h8zM17 33h-6v14h6V33zm14-6h-6v20h6V27zm14-6h-6v26h6V21zM41.47 7.462a1 1 0 0 1 1.27-.62l5.674 1.953-1.953 5.673a1 1 0 0 1-1.891-.65l.836-2.43L8.428 28.903a1 1 0 1 1-.856-1.808L44.55 9.58l-2.461-.847a1 1 0 0 1-.652-1.159z" class="color-500"/><path fill="#FFF" d="M11 47h6V33h-6v14zm14 0h6V27h-6v20zm14 0h6V21h-6v26z" class="french-vanilla-100"/></g></svg>