<svg xmlns="http://www.w3.org/2000/svg" width="56" height="56" class="wd-accent-chart-bar wd-accent" focusable="false" role="presentation" viewBox="0 0 56 56"><g fill="none" fill-rule="evenodd" class="wd-icon-container"><path fill="#005DBA" fill-rule="nonzero" d="M10 32v16h8V32h-8zm0-2h8a2 2 0 0 1 2 2v16a2 2 0 0 1-2 2h-8a2 2 0 0 1-2-2V32a2 2 0 0 1 2-2zM38 9v39h8V9h-8zm0-2h8a2 2 0 0 1 2 2v39a2 2 0 0 1-2 2h-8a2 2 0 0 1-2-2V9a2 2 0 0 1 2-2zM24 20v28h8V20h-8zm0-2h8a2 2 0 0 1 2 2v28a2 2 0 0 1-2 2h-8a2 2 0 0 1-2-2V20a2 2 0 0 1 2-2z" class="color-500"/><path fill="#FFF" d="M10 32h8v16h-8zm14-12h8v28h-8zM38 9h8v39h-8z" class="french-vanilla-100"/></g></svg>