<svg xmlns="http://www.w3.org/2000/svg" width="56" height="56" class="wd-accent-chart-pie-bar wd-accent" focusable="false" role="presentation" viewBox="0 0 56 56"><g fill="none" fill-rule="evenodd" class="wd-icon-container"><path fill="#005DBA" fill-rule="nonzero" d="M27 6.203v5.06a2 2 0 0 1-1.65 1.97C18.25 14.497 13 20.703 13 28c0 8.284 6.716 15 15 15 7.298 0 13.503-5.25 14.767-12.35a2 2 0 0 1 1.97-1.65h5.06a2 2 0 0 1 1.982 2.27C50.167 43.088 40.037 52 28 52 14.745 52 4 41.255 4 28 4 15.963 12.912 5.833 24.73 4.221A2 2 0 0 1 27 6.203zm-2 0C14.269 7.666 6 16.867 6 28c0 12.15 9.85 22 22 22 11.133 0 20.334-8.269 21.797-19h-5.06C43.318 38.958 36.364 45 28 45c-9.389 0-17-7.611-17-17 0-8.365 6.042-15.32 14-16.736V6.203zM37 20a2 2 0 0 1 2 2v12a2 2 0 0 1-2 2h-2a2 2 0 0 1-2-2V22a2 2 0 0 1 2-2h2zm-8 4a2 2 0 0 1 2 2v8a2 2 0 0 1-2 2h-2a2 2 0 0 1-2-2v-8a2 2 0 0 1 2-2h2zm-8 2a2 2 0 0 1 2 2v6a2 2 0 0 1-2 2h-2a2 2 0 0 1-2-2v-6a2 2 0 0 1 2-2h2zm0 2h-2v6h2v-6zm8-2h-2v8h2v-8zm8-4h-2v12h2V22zM31.27 4.221C41.91 5.672 50.328 14.09 51.78 24.73A2 2 0 0 1 49.797 27h-5.06a2 2 0 0 1-1.97-1.65c-1.096-6.158-5.959-11.02-12.118-12.117A2 2 0 0 1 29 11.263v-5.06a2 2 0 0 1 2.27-1.982z" class="color-500"/><path fill="#FFF" d="M25 6.203v5.06C17.042 12.682 11 19.636 11 28c0 9.389 7.611 17 17 17 8.365 0 15.32-6.042 16.736-14h5.061C48.334 41.731 39.133 50 28 50 15.85 50 6 40.15 6 28 6 16.867 14.269 7.666 25 6.203zM19 28h2v6h-2v-6zm8-2h2v8h-2v-8zm8-4h2v12h-2V22z" class="french-vanilla-100"/></g></svg>