<svg xmlns="http://www.w3.org/2000/svg" width="56" height="56" class="wd-accent-chart-scatter wd-accent" focusable="false" role="presentation" viewBox="0 0 56 56"><g fill="none" fill-rule="evenodd" class="wd-icon-container"><path fill="#005DBA" fill-rule="nonzero" d="M46 9a4 4 0 1 1-.792 7.922l-8.712 17.952a4 4 0 1 1-6.313 1.926l-5.429-3.9A3.986 3.986 0 0 1 22 34a3.981 3.981 0 0 1-2.047-.563l-7.608 8.37a4 4 0 1 1-1.48-1.345l7.678-8.448a4 4 0 1 1 7.273-.813l5.429 3.9a3.986 3.986 0 0 1 3.425-1.045l8.74-18.008A4 4 0 0 1 46 9zM9 42a2 2 0 1 0 0 4 2 2 0 0 0 0-4zm25-6a2 2 0 1 0 0 4 2 2 0 0 0 0-4zm-12-8a2 2 0 1 0 0 4 2 2 0 0 0 0-4zm24-17a2 2 0 1 0 0 4 2 2 0 0 0 0-4z" class="color-500"/><path fill="#FFF" d="M9 46a2 2 0 1 0 0-4 2 2 0 0 0 0 4zm13-14a2 2 0 1 0 0-4 2 2 0 0 0 0 4zm12 8a2 2 0 1 0 0-4 2 2 0 0 0 0 4zm12-25a2 2 0 1 0 0-4 2 2 0 0 0 0 4z" class="french-vanilla-100"/></g></svg>