<svg xmlns="http://www.w3.org/2000/svg" width="56" height="56" class="wd-accent-checkmark wd-accent" focusable="false" role="presentation" viewBox="0 0 56 56"><g fill="none" fill-rule="evenodd" class="wd-icon-container"><path fill="#005DBA" fill-rule="nonzero" d="M22.992 48.215l26.634-38.068a2 2 0 0 0-3.276-2.294L22.38 42.083 9.414 29.118a2 2 0 1 0-2.828 2.829l16.406 16.269zm21.72-41.51a4 4 0 0 1 6.553 4.589L24.63 49.36a2 2 0 0 1-3.047.274L5.172 33.36a4 4 0 1 1 5.656-5.657L22.11 38.984 44.71 6.706z" class="color-500"/><path fill="#FFF" d="M22.992 48.215l26.634-38.068a2 2 0 0 0-3.276-2.294L22.38 42.083 9.414 29.118a2 2 0 1 0-2.828 2.829l16.406 16.269z" class="french-vanilla-100"/></g></svg>