<svg xmlns="http://www.w3.org/2000/svg" width="56" height="56" class="wd-accent-checklist-paper-search wd-accent" focusable="false" role="presentation" viewBox="0 0 56 56"><g fill="none" fill-rule="nonzero" class="wd-icon-container"><path fill="#005DBA" d="M36 45.677a12.9 12.9 0 0 1-1.948-.627l-1.411 1.411c-.28.28-.622.46-.982.539H35a1 1 0 0 0 1-1v-.323zm0-25.302V7a1 1 0 0 0-1-1H7a1 1 0 0 0-1 1v39a1 1 0 0 0 1 1h13.041c.038-.454.231-.898.579-1.246l4.432-4.432a2.007 2.007 0 0 1 .1-1.322H20a1 1 0 0 1 0-2h6.96l.021-.021a12.962 12.962 0 0 1-.976-4.953c0-1.782.358-3.48 1.007-5.026H20a1 1 0 0 1 0-2h8.065A13.018 13.018 0 0 1 36 20.375zm2 25.613V46a3 3 0 0 1-3 3h-6.312l-2.411 2.411a2 2 0 0 1-2.829 0L21.037 49H7a3 3 0 0 1-3-3V7a3 3 0 0 1 3-3h28a3 3 0 0 1 3 3v13.065c.332-.026.667-.039 1.005-.039 7.18 0 13 5.82 13 13s-5.82 13-13 13c-.338 0-.673-.013-1.005-.038zm-5.82-1.895a13.067 13.067 0 0 1-4.242-4.242l-.954.954 4.242 4.242.954-.954zM30.793 47a2 2 0 0 1-.085-.02l-.02.02h.105zm-1.688-1.246l-2.828-2.828-4.243 4.242 2.828 2.829 4.243-4.243zM15.219 11.375a1 1 0 1 1 1.562 1.25l-4 5a1 1 0 0 1-1.488.082l-2-2a1 1 0 0 1 1.414-1.414l1.21 1.21 3.302-4.128zm0 12a1 1 0 1 1 1.562 1.25l-4 5a1 1 0 0 1-1.488.082l-2-2a1 1 0 0 1 1.414-1.414l1.21 1.21 3.302-4.128zm.003 11.997a1 1 0 0 1 1.556 1.256l-4.051 5.015a1 1 0 0 1-1.497.067l-1.949-2.015a1 1 0 0 1 1.438-1.39l1.162 1.201 3.341-4.134zM20 14h12a1 1 0 0 1 0 2H20a1 1 0 0 1 0-2zm19.005 30.026c6.075 0 11-4.925 11-11s-4.925-11-11-11c-6.076 0-11 4.925-11 11s4.924 11 11 11zm0-2a9 9 0 1 1 0-18 9 9 0 0 1 0 18zm0-2a7 7 0 1 0 0-14 7 7 0 0 0 0 14z" class="color-500"/><path fill="#FFF" d="M36 45.677a12.9 12.9 0 0 1-1.948-.627l-1.411 1.411c-.28.28-.622.46-.982.539H35a1 1 0 0 0 1-1v-.323zm0-25.302V7a1 1 0 0 0-1-1H7a1 1 0 0 0-1 1v39a1 1 0 0 0 1 1h13.041c.038-.454.231-.898.579-1.246l4.432-4.432a2.007 2.007 0 0 1 .1-1.322H20a1 1 0 0 1 0-2h6.96l.021-.021a12.962 12.962 0 0 1-.976-4.953c0-1.782.358-3.48 1.007-5.026H20a1 1 0 0 1 0-2h8.065A13.018 13.018 0 0 1 36 20.375zm-3.82 23.718a13.067 13.067 0 0 1-4.242-4.242l-.954.954 4.242 4.242.954-.954zM30.793 47a2 2 0 0 1-.085-.02l-.02.02h.105zm-1.688-1.246l-2.828-2.828-4.243 4.242 2.828 2.829 4.243-4.243zM15.219 11.375a1 1 0 1 1 1.562 1.25l-4 5a1 1 0 0 1-1.488.082l-2-2a1 1 0 0 1 1.414-1.414l1.21 1.21 3.302-4.128zm0 12a1 1 0 1 1 1.562 1.25l-4 5a1 1 0 0 1-1.488.082l-2-2a1 1 0 0 1 1.414-1.414l1.21 1.21 3.302-4.128zm.003 11.997a1 1 0 0 1 1.556 1.256l-4.051 5.015a1 1 0 0 1-1.497.067l-1.949-2.015a1 1 0 0 1 1.438-1.39l1.162 1.201 3.341-4.134zM20 14h12a1 1 0 0 1 0 2H20a1 1 0 0 1 0-2zm19.005 30.026c6.075 0 11-4.925 11-11s-4.925-11-11-11c-6.076 0-11 4.925-11 11s4.924 11 11 11zm0-2a9 9 0 1 1 0-18 9 9 0 0 1 0 18zm0-2a7 7 0 1 0 0-14 7 7 0 0 0 0 14z" class="french-vanilla-100"/></g></svg>