<svg xmlns="http://www.w3.org/2000/svg" width="56" height="56" class="wd-accent-checklist wd-accent" focusable="false" role="presentation" viewBox="0 0 56 56"><g fill="none" fill-rule="nonzero" class="wd-icon-container"><path fill="#005DBA" d="M45 30.75c4.097 1.6 7 5.586 7 10.25 0 6.075-4.925 11-11 11-2.923 0-5.58-1.14-7.55-3H14a3 3 0 0 1-3-3V7a3 3 0 0 1 3-3h28a3 3 0 0 1 3 3v23.75zm-2-.569V7a1 1 0 0 0-1-1H14a1 1 0 0 0-1 1v39a1 1 0 0 0 1 1h17.779A10.949 10.949 0 0 1 30 41c0-.337.015-.67.045-1H27a1 1 0 0 1 0-2h3.414c1.306-4.617 5.55-8 10.586-8 .683 0 1.351.062 2 .181zM22.22 11.375a1 1 0 1 1 1.56 1.25l-4 5a1 1 0 0 1-1.487.082l-2-2a1 1 0 0 1 1.414-1.414l1.21 1.21 3.302-4.128zm0 12a1 1 0 1 1 1.56 1.25l-4 5a1 1 0 0 1-1.487.082l-2-2a1 1 0 0 1 1.414-1.414l1.21 1.21 3.302-4.128zm.002 11.997a1 1 0 0 1 1.556 1.256l-4.051 5.015a1 1 0 0 1-1.497.067l-1.949-2.015a1 1 0 1 1 1.438-1.39l1.162 1.201 3.341-4.134zM27 14h12a1 1 0 0 1 0 2H27a1 1 0 0 1 0-2zm0 12h12a1 1 0 0 1 0 2H27a1 1 0 0 1 0-2zm14 24a9 9 0 1 0 0-18 9 9 0 0 0 0 18zm4.2-13.6a1 1 0 0 1 1.6 1.2l-6 8a1 1 0 0 1-1.507.107l-3-3a1 1 0 0 1 1.414-1.414l2.185 2.185L45.2 36.4z" class="color-500"/><path fill="#FFF" d="M43 30.181V7a1 1 0 0 0-1-1H14a1 1 0 0 0-1 1v39a1 1 0 0 0 1 1h17.779A10.949 10.949 0 0 1 30 41c0-.337.015-.67.045-1H27a1 1 0 0 1 0-2h3.414c1.306-4.617 5.55-8 10.586-8 .683 0 1.351.062 2 .181zM22.22 11.375a1 1 0 1 1 1.56 1.25l-4 5a1 1 0 0 1-1.487.082l-2-2a1 1 0 0 1 1.414-1.414l1.21 1.21 3.302-4.128zm0 12a1 1 0 1 1 1.56 1.25l-4 5a1 1 0 0 1-1.487.082l-2-2a1 1 0 0 1 1.414-1.414l1.21 1.21 3.302-4.128zm.002 11.997a1 1 0 0 1 1.556 1.256l-4.051 5.015a1 1 0 0 1-1.497.067l-1.949-2.015a1 1 0 1 1 1.438-1.39l1.162 1.201 3.341-4.134zM27 14h12a1 1 0 0 1 0 2H27a1 1 0 0 1 0-2zm0 12h12a1 1 0 0 1 0 2H27a1 1 0 0 1 0-2zm14 24a9 9 0 1 0 0-18 9 9 0 0 0 0 18zm4.2-13.6a1 1 0 0 1 1.6 1.2l-6 8a1 1 0 0 1-1.507.107l-3-3a1 1 0 0 1 1.414-1.414l2.185 2.185L45.2 36.4z" class="french-vanilla-100"/></g></svg>