<svg xmlns="http://www.w3.org/2000/svg" width="56" height="56" class="wd-accent-checkmarked-page wd-accent" focusable="false" role="presentation" viewBox="0 0 56 56"><g fill="none" fill-rule="evenodd" class="wd-icon-container"><path fill="#005DBA" d="M44 4a3 3 0 0 1 3 3v42a3 3 0 0 1-3 3H12a3 3 0 0 1-3-3V7a3 3 0 0 1 3-3h32zm0 2H12a1 1 0 0 0-1 1v42a1 1 0 0 0 1 1h32a1 1 0 0 0 1-1V7a1 1 0 0 0-1-1zM21.625 39.22a1 1 0 0 1 .156 1.405l-4 5a1 1 0 0 1-1.488.082l-2-2a1 1 0 0 1 1.414-1.414l1.21 1.21 3.302-4.128a1 1 0 0 1 1.406-.156zM40 42a1 1 0 0 1 0 2H26a1 1 0 0 1 0-2h14zM21.628 29.222a1 1 0 0 1 .15 1.406l-4.051 5.015a1 1 0 0 1-1.497.067l-1.949-2.015a1 1 0 1 1 1.438-1.39l1.162 1.201 3.341-4.134a1 1 0 0 1 1.406-.15zM40 32a1 1 0 0 1 0 2H26a1 1 0 0 1 0-2h14zM21.625 19.22a1 1 0 0 1 .156 1.405l-4 5a1 1 0 0 1-1.488.082l-2-2a1 1 0 0 1 1.414-1.414l1.21 1.21 3.302-4.128a1 1 0 0 1 1.406-.156zM40 22a1 1 0 0 1 0 2H26a1 1 0 0 1 0-2h14zM21.625 9.22a1 1 0 0 1 .156 1.405l-4 5a1 1 0 0 1-1.488.082l-2-2a1 1 0 0 1 1.414-1.414l1.21 1.21 3.302-4.128a1 1 0 0 1 1.406-.156zM40 12a1 1 0 0 1 0 2H26a1 1 0 0 1 0-2h14z" class="color-500"/><path fill="#FFF" d="M44 6a1 1 0 0 1 1 1v42a1 1 0 0 1-1 1H12a1 1 0 0 1-1-1V7a1 1 0 0 1 1-1zM21.625 39.22a1 1 0 0 0-1.406.155l-3.302 4.128-1.21-1.21a1 1 0 0 0-1.414 1.414l2 2a1 1 0 0 0 1.488-.082l4-5a1 1 0 0 0-.156-1.406zM40 42H26a1 1 0 0 0 0 2h14a1 1 0 0 0 0-2zM21.628 29.222a1 1 0 0 0-1.406.15l-3.34 4.134-1.163-1.201a1 1 0 1 0-1.438 1.39l1.949 2.015a1 1 0 0 0 1.497-.067l4.05-5.015a1 1 0 0 0-.149-1.406zM40 32H26a1 1 0 0 0 0 2h14a1 1 0 0 0 0-2zM21.625 19.22a1 1 0 0 0-1.406.155l-3.302 4.128-1.21-1.21a1 1 0 0 0-1.414 1.414l2 2a1 1 0 0 0 1.488-.082l4-5a1 1 0 0 0-.156-1.406zM40 22H26a1 1 0 0 0 0 2h14a1 1 0 0 0 0-2zM21.625 9.22a1 1 0 0 0-1.406.155l-3.302 4.128-1.21-1.21a1 1 0 0 0-1.414 1.414l2 2a1 1 0 0 0 1.488-.082l4-5a1 1 0 0 0-.156-1.406zM40 12H26a1 1 0 0 0 0 2h14a1 1 0 0 0 0-2z" class="french-vanilla-100"/></g></svg>