<svg xmlns="http://www.w3.org/2000/svg" width="56" height="56" class="wd-accent-circle-loading wd-accent" focusable="false" role="presentation" viewBox="0 0 56 56"><g fill="none" fill-rule="nonzero" class="wd-icon-container"><path fill="#005DBA" d="M28 42a4 4 0 1 1 0 8 4 4 0 0 1 0-8zm0 2a2 2 0 1 0 0 4 2 2 0 0 0 0-4zm12.5-8a4.5 4.5 0 1 1 0 9 4.5 4.5 0 0 1 0-9zm-26 1a3.5 3.5 0 1 1 0 7 3.5 3.5 0 0 1 0-7zm26 1a2.5 2.5 0 1 0 0 5 2.5 2.5 0 0 0 0-5zm-26 1a1.5 1.5 0 1 0 0 3 1.5 1.5 0 0 0 0-3zM46 23a5 5 0 1 1 0 10 5 5 0 0 1 0-10zm-36 2a3 3 0 1 1 0 6 3 3 0 0 1 0-6zm36 0a3 3 0 1 0 0 6 3 3 0 0 0 0-6zm-36 2a1 1 0 1 0 0 2 1 1 0 0 0 0-2zM41.5 9a5.5 5.5 0 1 1 0 11 5.5 5.5 0 0 1 0-11zM15 12a3 3 0 1 1 0 6 3 3 0 0 1 0-6zm26.5-1a3.5 3.5 0 1 0 0 7 3.5 3.5 0 0 0 0-7zM28 4a6 6 0 1 1 0 12 6 6 0 0 1 0-12zM15 14a1 1 0 1 0 0 2 1 1 0 0 0 0-2zm13-8a4 4 0 1 0 0 8 4 4 0 0 0 0-8z" class="color-500"/><path fill="#FFF" d="M46 31a3 3 0 1 0 0-6 3 3 0 0 0 0 6zm-36-2a1 1 0 1 0 0-2 1 1 0 0 0 0 2zm18-15a4 4 0 1 0 0-8 4 4 0 0 0 0 8zm-13 2a1 1 0 1 0 0-2 1 1 0 0 0 0 2zm-.5 26a1.5 1.5 0 1 0 0-3 1.5 1.5 0 0 0 0 3zm27-24a3.5 3.5 0 1 0 0-7 3.5 3.5 0 0 0 0 7zm-1 25a2.5 2.5 0 1 0 0-5 2.5 2.5 0 0 0 0 5zM28 48a2 2 0 1 0 0-4 2 2 0 0 0 0 4z" class="french-vanilla-100"/></g></svg>