<svg xmlns="http://www.w3.org/2000/svg" width="56" height="56" class="wd-accent-circuit-board wd-accent" focusable="false" role="presentation" viewBox="0 0 56 56"><g fill="none" fill-rule="evenodd" class="wd-icon-container"><path fill="#005DBA" fill-rule="nonzero" d="M46 8a2 2 0 0 1 2 2v36a2 2 0 0 1-2 2H10a2 2 0 0 1-2-2V10a2 2 0 0 1 2-2h36zm-19 2H10v36h5v-5c0-.042.003-.083.008-.124A4.002 4.002 0 0 1 16 33a4 4 0 0 1 .992 7.876c.005.04.008.082.008.124v5h4V32.414l-5.707-5.707A1 1 0 0 1 15 26v-6c0-.042.003-.083.008-.124A4.002 4.002 0 0 1 16 12a4 4 0 0 1 .992 7.876c.005.04.008.082.008.124v5.586l5.707 5.707A1 1 0 0 1 23 32v14h4v-6.126A4.002 4.002 0 0 1 28 32a4 4 0 0 1 1 7.874V46h17V10h-5v5c0 .042-.003.083-.008.124A4.002 4.002 0 0 1 40 23a4 4 0 0 1-.992-7.876A1.01 1.01 0 0 1 39 15v-5h-4v12.586l5.707 5.707A1 1 0 0 1 41 29v7.126A4.002 4.002 0 0 1 40 44a4 4 0 0 1-1-7.874v-6.712l-5.707-5.707A1 1 0 0 1 33 23V10h-4v12.126A4.002 4.002 0 0 1 28 30a4 4 0 0 1-1-7.874V10zm13 28a2 2 0 1 0 0 4 2 2 0 0 0 0-4zm-24-3a2 2 0 1 0 0 4 2 2 0 0 0 0-4zm12-1a2 2 0 1 0 0 4 2 2 0 0 0 0-4zm0-10a2 2 0 1 0 0 4 2 2 0 0 0 0-4zm12-7a2 2 0 1 0 0 4 2 2 0 0 0 0-4zm-24-3a2 2 0 1 0 0 4 2 2 0 0 0 0-4z" class="color-500"/><path fill="#FFF" d="M27 10v12.126A4.002 4.002 0 0 0 28 30a4 4 0 0 0 1-7.874V10h4v13a1 1 0 0 0 .206.608l.087.1L39 29.413v6.712A4.002 4.002 0 0 0 40 44a4 4 0 0 0 1-7.874V29a1 1 0 0 0-.293-.707L35 22.586V10h4v5c0 .021 0 .042.002.063l.006.061A4.002 4.002 0 0 0 40 23a4 4 0 0 0 .992-7.876A1.01 1.01 0 0 0 41 15v-5h5v36H29v-6.126A4.002 4.002 0 0 0 28 32a4 4 0 0 0-1 7.874V46h-4V32a1 1 0 0 0-.206-.608l-.087-.1L17 25.587V20a1.01 1.01 0 0 0-.008-.124A4.002 4.002 0 0 0 16 12a4 4 0 0 0-.992 7.876A1.01 1.01 0 0 0 15 20v6a1 1 0 0 0 .293.707L21 32.414V46h-4v-5a1.01 1.01 0 0 0-.008-.124A4.002 4.002 0 0 0 16 33a4 4 0 0 0-.992 7.876A1.01 1.01 0 0 0 15 41v5h-5V10h17zm13 28a2 2 0 1 1 0 4 2 2 0 0 1 0-4zm-24-3a2 2 0 1 1 0 4 2 2 0 0 1 0-4zm12-1a2 2 0 1 1 0 4 2 2 0 0 1 0-4zm0-10a2 2 0 1 1 0 4 2 2 0 0 1 0-4zm12-7a2 2 0 1 1 0 4 2 2 0 0 1 0-4zm-24-3a2 2 0 1 1 0 4 2 2 0 0 1 0-4z" class="french-vanilla-100"/></g></svg>