<svg xmlns="http://www.w3.org/2000/svg" width="56" height="56" class="wd-accent-circle-checkmark wd-accent" focusable="false" role="presentation" viewBox="0 0 56 56"><g fill="none" fill-rule="evenodd" class="wd-icon-container"><path fill="#005DBA" fill-rule="nonzero" d="M25.913 34.5l-8.206-8.207a1 1 0 0 0-1.414 1.414l9 9a1 1 0 0 0 1.49-.086l18.052-22.785A21.907 21.907 0 0 1 50 28c0 12.15-9.85 22-22 22S6 40.15 6 28 15.85 6 28 6c3.904 0 7.657 1.017 10.964 2.922a1 1 0 1 0 .999-1.733A23.892 23.892 0 0 0 28 4C14.745 4 4 14.745 4 28s10.745 24 24 24 24-10.745 24-24a23.915 23.915 0 0 0-6.48-16.402 1 1 0 0 0-1.513.062L25.913 34.5z" class="color-500"/></g></svg>