<svg xmlns="http://www.w3.org/2000/svg" width="56" height="56" class="wd-accent-clean-energy wd-accent" focusable="false" role="presentation" viewBox="0 0 56 56"><g fill="none" fill-rule="evenodd" class="wd-icon-container"><path fill="#005DBA" fill-rule="nonzero" d="M31 31v3.794a8.19 8.19 0 0 1 .61-.683c2.044-2.043 4.904-2.796 8.393-2.337a2 2 0 0 1 1.723 1.723c.459 3.49-.294 6.35-2.337 8.392-2.042 2.042-4.9 2.795-8.389 2.337V50a2 2 0 0 1-2 2h-2a2 2 0 0 1-2-2v-.774c-3.488.458-6.347-.295-8.39-2.337-2.042-2.043-2.795-4.903-2.336-8.392a2 2 0 0 1 1.723-1.723c3.49-.459 6.35.294 8.392 2.337.218.218.422.446.611.683V31h-1c-5.523 0-10-4.477-10-10v-5a2 2 0 0 1 2-2h3V6a2 2 0 0 1 2-2h2a2 2 0 0 1 2 2v8h6V6a2 2 0 0 1 2-2h2a2 2 0 0 1 2 2v8h3a2 2 0 0 1 2 2v5c0 5.523-4.477 10-10 10h-1zM16 16v5a8 8 0 0 0 8 8h8a8 8 0 0 0 8-8v-5H16zm5-10v8h2V6h-2zm12 0v8h2V6h-2zm-1.743 36.243c2.917.383 5.156-.206 6.718-1.768 1.562-1.562 2.151-3.801 1.768-6.718-2.917-.383-5.156.206-6.718 1.768-1.562 1.562-2.151 3.801-1.768 6.718zM27 31v19h2V31h-2zm-2.257 16.243c.383-2.917-.206-5.156-1.768-6.718-1.562-1.562-3.801-2.151-6.718-1.768-.383 2.917.206 5.156 1.768 6.718 1.562 1.562 3.801 2.151 6.718 1.768z" class="color-500"/><path fill="#FFF" d="M31.257 42.243c2.917.383 5.156-.206 6.718-1.768 1.562-1.562 2.151-3.801 1.768-6.718-2.917-.383-5.156.206-6.718 1.768-1.562 1.562-2.151 3.801-1.768 6.718zm-6.514 5c.383-2.917-.206-5.156-1.768-6.718-1.562-1.562-3.801-2.151-6.718-1.768-.383 2.917.206 5.156 1.768 6.718 1.562 1.562 3.801 2.151 6.718 1.768zM16 16h24v5a8 8 0 0 1-8 8h-8a8 8 0 0 1-8-8v-5zm5-10h2v8h-2zm12 0h2v8h-2zm-6 25h2v19h-2z" class="french-vanilla-100"/></g></svg>