<svg xmlns="http://www.w3.org/2000/svg" width="56" height="56" class="wd-accent-clipboard-chart wd-accent" focusable="false" role="presentation" viewBox="0 0 56 56"><g fill="none" fill-rule="nonzero" class="wd-icon-container"><path fill="#005DBA" d="M16 8a4.992 4.992 0 0 1 4-2h4.535A3.998 3.998 0 0 1 28 4c1.48 0 2.773.804 3.465 2H36c1.636 0 3.088.786 4 2h6a2 2 0 0 1 2 2v40a2 2 0 0 1-2 2H10a2 2 0 0 1-2-2V10a2 2 0 0 1 2-2h6zm-.9 2H14v36h28V10h-1.1c.066.323.1.658.1 1v1a2 2 0 0 1-2 2H17a2 2 0 0 1-2-2v-1c0-.342.034-.677.1-1zM12 10h-2v40h36V10h-2v36a2 2 0 0 1-2 2H14a2 2 0 0 1-2-2V10zm14-2h-6a3 3 0 0 0-3 3v1h22v-1a3 3 0 0 0-3-3h-6a2 2 0 1 0-4 0zm2 24a7 7 0 0 1 0-14v7h7a7 7 0 0 1-7 7zm-5-7a5 5 0 0 0 9.584 2H26v-6.584A5.001 5.001 0 0 0 23 25zm-5 10h20a1 1 0 0 1 0 2H18a1 1 0 0 1 0-2zm0 3h20a1 1 0 0 1 0 2H18a1 1 0 0 1 0-2zm20 3a1 1 0 0 1 0 2H18a1 1 0 0 1 0-2h20zm-9-24a7 7 0 0 1 7 7h-7z" class="color-500"/><path fill="#FFF" d="M15.1 10H14v36h28V10h-1.1c.066.323.1.658.1 1v1a2 2 0 0 1-2 2H17a2 2 0 0 1-2-2v-1c0-.342.034-.677.1-1zM12 10h-2v40h36V10h-2v36a2 2 0 0 1-2 2H14a2 2 0 0 1-2-2V10zm14-2h-6a3 3 0 0 0-3 3v1h22v-1a3 3 0 0 0-3-3h-6a2 2 0 1 0-4 0zm2 24a7 7 0 0 1 0-14v7h7a7 7 0 0 1-7 7zm-5-7a5 5 0 0 0 9.584 2H26v-6.584A5.001 5.001 0 0 0 23 25zm-5 10h20a1 1 0 0 1 0 2H18a1 1 0 0 1 0-2zm0 3h20a1 1 0 0 1 0 2H18a1 1 0 0 1 0-2zm20 3a1 1 0 0 1 0 2H18a1 1 0 0 1 0-2h20zm-9-24a7 7 0 0 1 7 7h-7z" class="french-vanilla-100"/></g></svg>