<svg xmlns="http://www.w3.org/2000/svg" width="56" height="56" class="wd-accent-clipboard-clock wd-accent" focusable="false" role="presentation" viewBox="0 0 56 56"><g fill="none" fill-rule="nonzero" class="wd-icon-container"><path fill="#005DBA" d="M42 52H6a2 2 0 0 1-2-2V10a2 2 0 0 1 2-2h6a4.992 4.992 0 0 1 4-2h4.535A3.998 3.998 0 0 1 24 4c1.48 0 2.773.804 3.465 2H32c1.636 0 3.088.786 4 2h6a2 2 0 0 1 2 2v20.414c4.617 1.306 8 5.55 8 10.586 0 5.49-4.022 10.04-9.28 10.866A1.995 1.995 0 0 1 42 52zM30 41c0-5.035 3.383-9.28 8-10.586V10h-1.1c.066.323.1.658.1 1v1a2 2 0 0 1-2 2H13a2 2 0 0 1-2-2v-1c0-.342.034-.677.1-1H10v36h21.2c-.767-1.5-1.2-3.2-1.2-5zm4.674 9a11.063 11.063 0 0 1-2.16-2H10a2 2 0 0 1-2-2V10H6v40h28.674zM42 30.045V10h-2v20.045a11.14 11.14 0 0 1 2 0zM22 8h-6a3 3 0 0 0-3 3v1h22v-1a3 3 0 0 0-3-3h-6a2 2 0 1 0-4 0zm19 42a9 9 0 1 0 0-18 9 9 0 0 0 0 18zm4-9a1 1 0 0 1 0 2h-4c-.718 0-1.054-.217-1.317-.947l-1.628-4.727a1 1 0 0 1 1.89-.651L41.436 41H45zM18.22 17.375a1 1 0 1 1 1.56 1.25l-4 5a1 1 0 0 1-1.487.082l-2-2a1 1 0 0 1 1.414-1.414l1.21 1.21 3.302-4.128zM22 40h6a1 1 0 0 1 0 2h-6a1 1 0 0 1 0-2zm0-9h10a1 1 0 0 1 0 2H22a1 1 0 0 1 0-2zm0-9h13a1 1 0 0 1 0 2H22a1 1 0 0 1 0-2zm-7 12a2 2 0 1 1 0-4 2 2 0 0 1 0 4zm0 9a2 2 0 1 1 0-4 2 2 0 0 1 0 4z" class="color-500"/><path fill="#FFF" d="M30 41c0-5.035 3.383-9.28 8-10.586V10h-1.1c.066.323.1.658.1 1v1a2 2 0 0 1-2 2H13a2 2 0 0 1-2-2v-1c0-.342.034-.677.1-1H10v36h21.2c-.767-1.5-1.2-3.2-1.2-5zm4.674 9a11.063 11.063 0 0 1-2.16-2H10a2 2 0 0 1-2-2V10H6v40h28.674zM42 30.045V10h-2v20.045a11.14 11.14 0 0 1 2 0zM22 8h-6a3 3 0 0 0-3 3v1h22v-1a3 3 0 0 0-3-3h-6a2 2 0 1 0-4 0zm19 42a9 9 0 1 0 0-18 9 9 0 0 0 0 18zm4-9a1 1 0 0 1 0 2h-4c-.718 0-1.054-.217-1.317-.947l-1.628-4.727a1 1 0 0 1 1.89-.651L41.436 41H45zM18.22 17.375a1 1 0 1 1 1.56 1.25l-4 5a1 1 0 0 1-1.487.082l-2-2a1 1 0 0 1 1.414-1.414l1.21 1.21 3.302-4.128zM22 40h6a1 1 0 0 1 0 2h-6a1 1 0 0 1 0-2zm0-9h10a1 1 0 0 1 0 2H22a1 1 0 0 1 0-2zm0-9h13a1 1 0 0 1 0 2H22a1 1 0 0 1 0-2zm-7 12a2 2 0 1 1 0-4 2 2 0 0 1 0 4zm0 9a2 2 0 1 1 0-4 2 2 0 0 1 0 4z" class="french-vanilla-100"/></g></svg>