<svg xmlns="http://www.w3.org/2000/svg" width="56" height="56" class="wd-accent-clipboard-person wd-accent" focusable="false" role="presentation" viewBox="0 0 56 56"><g fill="none" fill-rule="nonzero" class="wd-icon-container"><path fill="#005DBA" d="M34 49.486A11.067 11.067 0 0 1 32.514 48H10a2 2 0 0 1-2-2V10H6v40h28.674a11.045 11.045 0 0 1-.674-.514zm0-2.829V46a3 3 0 0 1 3-3h1.354A3.99 3.99 0 0 1 37 40v-2a4 4 0 1 1 8 0v2a3.99 3.99 0 0 1-1.354 3H45a3 3 0 0 1 3 3v.657a9 9 0 1 0-14 0zm8.72 5.21A1.995 1.995 0 0 1 42 52H6a2 2 0 0 1-2-2V10a2 2 0 0 1 2-2h6a4.992 4.992 0 0 1 4-2h4.535A3.998 3.998 0 0 1 24 4c1.48 0 2.773.804 3.465 2H32c1.636 0 3.088.786 4 2h6a2 2 0 0 1 2 2v20.414c4.617 1.306 8 5.55 8 10.586 0 5.49-4.022 10.04-9.28 10.866zM31.2 46a10.922 10.922 0 0 1-1.019-3H14a1 1 0 0 1 0-2h16c0-1.04.144-2.046.414-3H14a1 1 0 0 1 0-2h17.2a11.028 11.028 0 0 1 6.8-5.586V10h-1.1c.066.323.1.658.1 1v1a2 2 0 0 1-2 2H13a2 2 0 0 1-2-2v-1c0-.342.034-.677.1-1H10v36h21.2zM42 30.045V10h-2v20.045a11.14 11.14 0 0 1 2 0zM22 8h-6a3 3 0 0 0-3 3v1h22v-1a3 3 0 0 0-3-3h-6a2 2 0 1 0-4 0zm2 24a7 7 0 0 1 0-14v7h7a7 7 0 0 1-7 7zm-5-7a5 5 0 0 0 9.584 2H22v-6.584A5.001 5.001 0 0 0 19 25zm13-1h-7v-7a7 7 0 0 1 7 7zm9 12a2 2 0 0 0-2 2v2a2 2 0 1 0 4 0v-2a2 2 0 0 0-2-2zm5 10a1 1 0 0 0-1-1h-8a1 1 0 0 0-1 1v2.485A8.951 8.951 0 0 0 41 50a8.951 8.951 0 0 0 5-1.515V46z" class="color-500"/><path fill="#FFF" d="M34 49.486A11.067 11.067 0 0 1 32.514 48H10a2 2 0 0 1-2-2V10H6v40h28.674a11.045 11.045 0 0 1-.674-.514zm0-2.829V46a3 3 0 0 1 3-3h1.354A3.99 3.99 0 0 1 37 40v-2a4 4 0 1 1 8 0v2a3.99 3.99 0 0 1-1.354 3H45a3 3 0 0 1 3 3v.657a9 9 0 1 0-14 0zM31.2 46a10.922 10.922 0 0 1-1.019-3H14a1 1 0 0 1 0-2h16c0-1.04.144-2.046.414-3H14a1 1 0 0 1 0-2h17.2a11.028 11.028 0 0 1 6.8-5.586V10h-1.1c.066.323.1.658.1 1v1a2 2 0 0 1-2 2H13a2 2 0 0 1-2-2v-1c0-.342.034-.677.1-1H10v36h21.2zM42 30.045V10h-2v20.045a11.14 11.14 0 0 1 2 0zM22 8h-6a3 3 0 0 0-3 3v1h22v-1a3 3 0 0 0-3-3h-6a2 2 0 1 0-4 0zm2 24a7 7 0 0 1 0-14v7h7a7 7 0 0 1-7 7zm-5-7a5 5 0 0 0 9.584 2H22v-6.584A5.001 5.001 0 0 0 19 25zm13-1h-7v-7a7 7 0 0 1 7 7zm9 12a2 2 0 0 0-2 2v2a2 2 0 1 0 4 0v-2a2 2 0 0 0-2-2zm5 10a1 1 0 0 0-1-1h-8a1 1 0 0 0-1 1v2.485A8.951 8.951 0 0 0 41 50a8.951 8.951 0 0 0 5-1.515V46z" class="french-vanilla-100"/></g></svg>