<svg xmlns="http://www.w3.org/2000/svg" width="56" height="56" class="wd-accent-clipboard-chart-compass wd-accent" focusable="false" role="presentation" viewBox="0 0 56 56"><g fill="none" fill-rule="nonzero" class="wd-icon-container"><path fill="#005DBA" d="M40 49.945V49a1 1 0 0 1 2 0v.945A9.004 9.004 0 0 0 49.945 42H49a1 1 0 0 1 0-2h.945A9.004 9.004 0 0 0 42 32.055V33a1 1 0 0 1-2 0v-.945A9.004 9.004 0 0 0 32.055 40H33a1 1 0 0 1 0 2h-.945A9.004 9.004 0 0 0 40 49.945zm.297 2.033A2.002 2.002 0 0 1 40 52H7a2 2 0 0 1-2-2V10a2 2 0 0 1 2-2h6a4.992 4.992 0 0 1 4-2h4.535A3.998 3.998 0 0 1 25 4c1.48 0 2.773.804 3.465 2H33c1.636 0 3.088.786 4 2h6a2 2 0 0 1 2 2v20.75c4.097 1.6 7 5.586 7 10.25 0 6.075-4.925 11-11 11-.236 0-.47-.007-.703-.022zM31.199 46C30.433 44.5 30 42.8 30 41c0-.477.03-.947.09-1.408A2 2 0 0 1 30 39V21a2 2 0 0 1 2-2h2a2 2 0 0 1 2 2v10.2a10.922 10.922 0 0 1 3-1.019V10h-1.1c.066.323.1.658.1 1v1a2 2 0 0 1-2 2H14a2 2 0 0 1-2-2v-1c0-.342.034-.677.1-1H11v36h20.2zm3.475 4a11.063 11.063 0 0 1-2.16-2H11a2 2 0 0 1-2-2V10H7v40h27.674zM43 30.181V10h-2v20c.683 0 1.351.062 2 .181zm-9 2.333V21h-2v13.674a11.063 11.063 0 0 1 2-2.16zM23 8h-6a3 3 0 0 0-3 3v1h22v-1a3 3 0 0 0-3-3h-6a2 2 0 1 0-4 0zm-7 22h2a2 2 0 0 1 2 2v7a2 2 0 0 1-2 2h-2a2 2 0 0 1-2-2v-7a2 2 0 0 1 2-2zm0 2v7h2v-7h-2zm8-6h2a2 2 0 0 1 2 2v11a2 2 0 0 1-2 2h-2a2 2 0 0 1-2-2V28a2 2 0 0 1 2-2zm0 2v11h2V28h-2zm15.714 11.714l6-3.428-3.428 6-6 3.428 3.428-6z" class="color-500"/><path fill="#FFF" d="M40 49.945V49a1 1 0 0 1 2 0v.945A9.004 9.004 0 0 0 49.945 42H49a1 1 0 0 1 0-2h.945A9.004 9.004 0 0 0 42 32.055V33a1 1 0 0 1-2 0v-.945A9.004 9.004 0 0 0 32.055 40H33a1 1 0 0 1 0 2h-.945A9.004 9.004 0 0 0 40 49.945zM31.2 46c-.767-1.5-1.2-3.2-1.2-5 0-.477.03-.947.09-1.408A2 2 0 0 1 30 39V21a2 2 0 0 1 2-2h2a2 2 0 0 1 2 2v10.2a10.922 10.922 0 0 1 3-1.019V10h-1.1c.066.323.1.658.1 1v1a2 2 0 0 1-2 2H14a2 2 0 0 1-2-2v-1c0-.342.034-.677.1-1H11v36h20.2zm3.474 4a11.063 11.063 0 0 1-2.16-2H11a2 2 0 0 1-2-2V10H7v40h27.674zM43 30.181V10h-2v20c.683 0 1.351.062 2 .181zm-9 2.333V21h-2v13.674a11.063 11.063 0 0 1 2-2.16zM23 8h-6a3 3 0 0 0-3 3v1h22v-1a3 3 0 0 0-3-3h-6a2 2 0 1 0-4 0zm-7 22h2a2 2 0 0 1 2 2v7a2 2 0 0 1-2 2h-2a2 2 0 0 1-2-2v-7a2 2 0 0 1 2-2zm0 2v7h2v-7h-2zm8-6h2a2 2 0 0 1 2 2v11a2 2 0 0 1-2 2h-2a2 2 0 0 1-2-2V28a2 2 0 0 1 2-2zm0 2v11h2V28h-2zm15.714 11.714l6-3.428-3.428 6-6 3.428 3.428-6z" class="french-vanilla-100"/></g></svg>