<svg xmlns="http://www.w3.org/2000/svg" width="56" height="56" class="wd-accent-clipboard-checklist wd-accent" focusable="false" role="presentation" viewBox="0 0 56 56"><g fill="none" fill-rule="nonzero" class="wd-icon-container"><path fill="#005DBA" d="M20 6h4.535A3.998 3.998 0 0 1 28 4c1.48 0 2.773.804 3.465 2H36c1.636 0 3.088.786 4 2h6a2 2 0 0 1 2 2v40a2 2 0 0 1-2 2H10a2 2 0 0 1-2-2V10a2 2 0 0 1 2-2h6a4.992 4.992 0 0 1 4-2zm-4.9 4H14v36h28V10h-1.1c.066.323.1.658.1 1v1a2 2 0 0 1-2 2H17a2 2 0 0 1-2-2v-1c0-.342.034-.677.1-1zM12 10h-2v40h36V10h-2v36a2 2 0 0 1-2 2H14a2 2 0 0 1-2-2V10zm14-2h-6a3 3 0 0 0-3 3v1h22v-1a3 3 0 0 0-3-3h-6a2 2 0 1 0-4 0zm-2.78 8.375a1 1 0 1 1 1.56 1.25l-4 5a1 1 0 0 1-1.487.082l-2-2a1 1 0 0 1 1.414-1.414l1.21 1.21 3.302-4.128zM19 27h3a2 2 0 0 1 2 2v3a2 2 0 0 1-2 2h-3a2 2 0 0 1-2-2v-3a2 2 0 0 1 2-2zm0 2v3h3v-3h-3zm0 8h3a2 2 0 0 1 2 2v3a2 2 0 0 1-2 2h-3a2 2 0 0 1-2-2v-3a2 2 0 0 1 2-2zm0 2v3h3v-3h-3zm8-12h11a1 1 0 0 1 0 2H27a1 1 0 0 1 0-2zm0-10h11a1 1 0 0 1 0 2H27a1 1 0 0 1 0-2zm0 20h11a1 1 0 0 1 0 2H27a1 1 0 0 1 0-2zm0-6h8a1 1 0 0 1 0 2h-8a1 1 0 0 1 0-2zm0-10h8a1 1 0 0 1 0 2h-8a1 1 0 0 1 0-2zm0 20h8a1 1 0 0 1 0 2h-8a1 1 0 0 1 0-2z" class="color-500"/><path fill="#FFF" d="M15.1 10H14v36h28V10h-1.1c.066.323.1.658.1 1v1a2 2 0 0 1-2 2H17a2 2 0 0 1-2-2v-1c0-.342.034-.677.1-1zM12 10h-2v40h36V10h-2v36a2 2 0 0 1-2 2H14a2 2 0 0 1-2-2V10zm14-2h-6a3 3 0 0 0-3 3v1h22v-1a3 3 0 0 0-3-3h-6a2 2 0 1 0-4 0zm-2.78 8.375a1 1 0 1 1 1.56 1.25l-4 5a1 1 0 0 1-1.487.082l-2-2a1 1 0 0 1 1.414-1.414l1.21 1.21 3.302-4.128zM19 27h3a2 2 0 0 1 2 2v3a2 2 0 0 1-2 2h-3a2 2 0 0 1-2-2v-3a2 2 0 0 1 2-2zm0 2v3h3v-3h-3zm0 8h3a2 2 0 0 1 2 2v3a2 2 0 0 1-2 2h-3a2 2 0 0 1-2-2v-3a2 2 0 0 1 2-2zm0 2v3h3v-3h-3zm8-12h11a1 1 0 0 1 0 2H27a1 1 0 0 1 0-2zm0-10h11a1 1 0 0 1 0 2H27a1 1 0 0 1 0-2zm0 20h11a1 1 0 0 1 0 2H27a1 1 0 0 1 0-2zm0-6h8a1 1 0 0 1 0 2h-8a1 1 0 0 1 0-2zm0-10h8a1 1 0 0 1 0 2h-8a1 1 0 0 1 0-2zm0 20h8a1 1 0 0 1 0 2h-8a1 1 0 0 1 0-2z" class="french-vanilla-100"/></g></svg>