<svg xmlns="http://www.w3.org/2000/svg" width="56" height="56" class="wd-accent-closed-book wd-accent" focusable="false" role="presentation" viewBox="0 0 56 56"><g fill="none" fill-rule="evenodd" class="wd-icon-container"><path fill="#005DBA" fill-rule="nonzero" d="M40 4a2 2 0 0 1 2 2v1.268A2 2 0 0 1 43 9v1.268A2 2 0 0 1 44 12v3h1a2 2 0 0 1 2 2v4a2 2 0 0 1-2 2h-1v4h1a2 2 0 0 1 2 2v4a2 2 0 0 1-2 2h-1v4h1a2 2 0 0 1 2 2v4a2 2 0 0 1-2 2h-1v3a2 2 0 0 1-2 2H9a2 2 0 0 1-2-2V12c0-.13.013-.258.036-.382-.26-4.79.948-7.511 3.852-7.615l.056-.002L40 4zm2 8H12v38h30V12zm-32 0H9v38h1V12zm31-3H10v1h31V9zm-1-3H11v1h29V6z" class="color-500"/><path fill="#FFF" d="M11 6h29v1H11V6zm-1 3h31v1H10V9zm2 3h30v38H12V12zm-3 0h1v38H9V12z" class="french-vanilla-100"/></g></svg>