<svg xmlns="http://www.w3.org/2000/svg" width="56" height="56" class="wd-accent-cloud-platform wd-accent" focusable="false" role="presentation" viewBox="0 0 56 56"><g fill="none" fill-rule="evenodd" class="wd-icon-container"><path fill="#005DBA" fill-rule="nonzero" d="M27 36.126v-8.051L10 18.32v18.926a1 1 0 0 0 .502.867l17 9.753a1 1 0 0 0 .996 0l17-9.753a1 1 0 0 0 .502-.867V17.753a1 1 0 0 0-.502-.867l-17-9.753a1 1 0 0 0-.996 0l-5.807 3.332a4 4 0 1 1-1.219-1.606l6.031-3.461a3 3 0 0 1 2.986 0l17 9.753A3 3 0 0 1 48 17.753v19.494a3 3 0 0 1-1.507 2.602l-17 9.753a3 3 0 0 1-2.986 0l-17-9.753A3 3 0 0 1 8 37.247V18.32a2 2 0 0 1 2.995-1.734l17.015 9.761 7.019-3.864a4 4 0 1 1 .74 1.875L29 28.087v8.04A4.002 4.002 0 0 1 28 44a4 4 0 0 1-1-7.874zM39 24a2 2 0 1 0 0-4 2 2 0 0 0 0 4zM18 14a2 2 0 1 0 0-4 2 2 0 0 0 0 4zm10 28a2 2 0 1 0 0-4 2 2 0 0 0 0 4z" class="color-500"/></g></svg>