<svg xmlns="http://www.w3.org/2000/svg" width="56" height="56" class="wd-accent-cocktail wd-accent" focusable="false" role="presentation" viewBox="0 0 56 56"><g fill="none" fill-rule="evenodd" class="wd-icon-container"><path fill="#005DBA" fill-rule="nonzero" d="M40.5 5a8.5 8.5 0 1 1-.489 16.986C37.3 27.073 32.078 30.62 26 30.971v14.044c4.58.143 8 1.3 8 3.985a2 2 0 0 1-2 2H18a2 2 0 0 1-2-2c0-2.686 3.42-3.842 8-3.985V30.971C15.077 30.453 8 23.053 8 14a2 2 0 0 1 2-2h22.132A8.503 8.503 0 0 1 40.5 5zM25 47c-3.866 0-7 .895-7 2h14c0-1.105-3.134-2-7-2zm13.752-27H11.248c2.315 5.298 7.601 9 13.752 9 6.151 0 11.437-3.702 13.752-9zM40.5 7a6.503 6.503 0 0 0-6.326 5H40a2 2 0 0 1 2 2c0 2.107-.383 4.125-1.084 5.987A6.5 6.5 0 0 0 40.5 7zm-.5 7H10c0 1.385.188 2.727.54 4h28.92c.352-1.273.54-2.615.54-4z" class="color-500"/><path fill="#FFF" d="M40.5 7a6.5 6.5 0 0 1 .416 12.987C41.616 18.125 42 16.107 42 14a2 2 0 0 0-2-2h-5.826A6.503 6.503 0 0 1 40.5 7zm-.5 7c0 1.385-.188 2.727-.54 4H10.54a15.015 15.015 0 0 1-.54-4h30zM25 47c3.866 0 7 .895 7 2H18c0-1.105 3.134-2 7-2zM11.248 20c2.315 5.298 7.601 9 13.752 9 6.151 0 11.437-3.702 13.752-9H11.248z" class="french-vanilla-100"/></g></svg>