<svg xmlns="http://www.w3.org/2000/svg" width="56" height="56" class="wd-accent-code wd-accent" focusable="false" role="presentation" viewBox="0 0 56 56"><g fill="none" fill-rule="evenodd" class="wd-icon-container"><path fill="#005DBA" fill-rule="nonzero" d="M50 8a2 2 0 0 1 2 2v36a2 2 0 0 1-2 2H6a2 2 0 0 1-2-2V10a2 2 0 0 1 2-2h44zm0 8H6v30h44V16zM35.052 29.684a1 1 0 0 1 1.897.632l-4 12a1 1 0 1 1-1.897-.632zM14 39a1 1 0 0 1 0 2h-4a1 1 0 0 1 0-2zm4 0a1 1 0 1 1 0 2 1 1 0 0 1 0-2zm21.128-7.565a1 1 0 0 1 1.386-.277l5.94 3.96a1 1 0 0 1 0 1.664l-5.94 3.96a1 1 0 1 1-1.109-1.664l4.692-3.128-4.692-3.128a1 1 0 0 1-.277-1.387zm-11.743-.277a1 1 0 1 1 1.11 1.664l-4.692 3.128 4.692 3.128a1 1 0 0 1-1.11 1.664l-5.94-3.96a1 1 0 0 1 0-1.664zM10 35a1 1 0 1 1 0 2 1 1 0 0 1 0-2zm5 0a1 1 0 0 1 0 2h-1a1 1 0 0 1 0-2zm2-4a1 1 0 0 1 0 2h-7a1 1 0 0 1 0-2zm-5-4a1 1 0 0 1 0 2h-2a1 1 0 0 1 0-2zm4 0a1 1 0 1 1 0 2 1 1 0 0 1 0-2zm7 0a1 1 0 0 1 0 2h-3a1 1 0 0 1 0-2zm-9-4a1 1 0 0 1 0 2h-4a1 1 0 0 1 0-2zm13 0a1 1 0 0 1 0 2h-9a1 1 0 0 1 0-2zm4 0a1 1 0 1 1 0 2 1 1 0 0 1 0-2zm14 0a1 1 0 0 1 0 2H35a1 1 0 0 1 0-2zm-15-4a1 1 0 0 1 0 2H10a1 1 0 0 1 0-2zm6 0a1 1 0 0 1 0 2h-2a1 1 0 0 1 0-2zm10 0a1 1 0 0 1 0 2h-6a1 1 0 0 1 0-2zm4-9H6v4h44v-4zm-36 1a1 1 0 1 1 0 2 1 1 0 0 1 0-2zm-3 0a1 1 0 1 1 0 2 1 1 0 0 1 0-2zm-3 0a1 1 0 1 1 0 2 1 1 0 0 1 0-2z" class="color-500"/><path fill="#FFF" d="M50 14H6v-4h44v4zm0 2v30H6V16h44zm-36-3a1 1 0 1 0 0-2 1 1 0 0 0 0 2zm-3 0a1 1 0 1 0 0-2 1 1 0 0 0 0 2zm-3 0a1 1 0 1 0 0-2 1 1 0 0 0 0 2zm2 6a1 1 0 0 0 0 2h20a1 1 0 0 0 0-2H10zm24 0a1 1 0 0 0 0 2h2a1 1 0 0 0 0-2h-2zm6 0a1 1 0 0 0 0 2h6a1 1 0 0 0 0-2h-6zm-30 4a1 1 0 0 0 0 2h4a1 1 0 0 0 0-2h-4zm0 16a1 1 0 0 0 0 2h4a1 1 0 0 0 0-2h-4zm0-12a1 1 0 0 0 0 2h2a1 1 0 0 0 0-2h-2zm0 4a1 1 0 0 0 0 2h7a1 1 0 0 0 0-2h-7zm8-8a1 1 0 0 0 0 2h9a1 1 0 0 0 0-2h-9zm13 0a1 1 0 1 0 0 2 1 1 0 0 0 0-2zm-15 4a1 1 0 1 0 0 2 1 1 0 0 0 0-2zm-6 8a1 1 0 1 0 0 2 1 1 0 0 0 0-2zm8 4a1 1 0 1 0 0 2 1 1 0 0 0 0-2zm17-16a1 1 0 0 0 0 2h10a1 1 0 0 0 0-2H35zm-15 4a1 1 0 0 0 0 2h3a1 1 0 0 0 0-2h-3zm-6 8a1 1 0 0 0 0 2h1a1 1 0 0 0 0-2h-1zm18.949 7.316l4-12a1 1 0 0 0-1.897-.632l-4 12a1 1 0 1 0 1.897.632zm6.456-3.238a1 1 0 1 0 1.11 1.664l5.94-3.96a1 1 0 0 0 0-1.664l-5.94-3.96a1 1 0 1 0-1.11 1.664l4.692 3.128-4.692 3.128zm-10.91-6.256a1 1 0 1 0-1.11-1.664l-5.94 3.96a1 1 0 0 0 0 1.664l5.94 3.96a1 1 0 1 0 1.11-1.664l-4.692-3.128 4.692-3.128z" class="french-vanilla-100"/></g></svg>