<svg xmlns="http://www.w3.org/2000/svg" width="56" height="56" class="wd-accent-coffee wd-accent" focusable="false" role="presentation" viewBox="0 0 56 56"><g fill="none" fill-rule="nonzero" class="wd-icon-container"><path fill="#005DBA" d="M43.91 23a6 6 0 0 1 5.366 8.683l-3 6A6 6 0 0 1 40.91 41h-1.923c-1.06 2.527-2.402 4.653-4.035 6.376A2 2 0 0 1 33.5 48h-13a2 2 0 0 1-1.451-.624c-4.77-5.032-7.064-13.501-7.05-25.379A2 2 0 0 1 14 20h26a2 2 0 0 1 2 1.997c0 .337 0 .672-.004 1.003h1.914zm-4.172 16h1.172a4 4 0 0 0 3.578-2.211l3-6A4 4 0 0 0 43.91 25h-1.958c-.186 5.468-.918 10.136-2.214 14zM14 22c-.014 11.413 2.152 19.413 6.5 24h13c4.348-4.587 6.515-12.587 6.5-24H14zm4.293-11.293a1 1 0 1 1 1.414-1.414c1.724 1.724 1.724 3.69 0 5.414-.943.943-.943 1.643 0 2.586a1 1 0 0 1-1.414 1.414c-1.724-1.724-1.724-3.69 0-5.414.943-.943.943-1.643 0-2.586zm7.926-2.082a1 1 0 1 1 1.562-1.25c1.625 2.032 1.625 4.218 0 6.25-1.041 1.301-1.041 2.449 0 3.75a1 1 0 1 1-1.562 1.25c-1.625-2.032-1.625-4.218 0-6.25 1.041-1.301 1.041-2.449 0-3.75zm8.074 2.082a1 1 0 1 1 1.414-1.414c1.724 1.724 1.724 3.69 0 5.414-.943.943-.943 1.643 0 2.586a1 1 0 0 1-1.414 1.414c-1.724-1.724-1.724-3.69 0-5.414.943-.943.943-1.643 0-2.586z" class="color-500"/><path fill="#FFF" d="M14 22c-.014 11.413 2.152 19.413 6.5 24h13c4.348-4.587 6.515-12.587 6.5-24H14z" class="french-vanilla-100"/></g></svg>