<svg xmlns="http://www.w3.org/2000/svg" width="56" height="56" class="wd-accent-community wd-accent" focusable="false" role="presentation" viewBox="0 0 56 56"><g fill="none" fill-rule="nonzero" class="wd-icon-container"><path fill="#005DBA" d="M47.784 33.95a8 8 0 1 1-8.463 13.54A19.908 19.908 0 0 1 28 51a19.908 19.908 0 0 1-11.321-3.51 8 8 0 0 1-8.463-13.54A20.163 20.163 0 0 1 8 31c0-8.211 4.949-15.267 12.026-18.347a8 8 0 1 1 15.948 0C43.05 15.733 48 22.789 48 31c0 1.002-.074 1.987-.216 2.95zm-1.92-.732c.09-.727.136-1.467.136-2.218 0-7.245-4.28-13.49-10.451-16.345a8.003 8.003 0 0 1-15.098 0C14.281 17.509 10 23.755 10 31c0 .751.046 1.491.135 2.218a8 8 0 0 1 8.04 12.867A17.916 17.916 0 0 0 28.001 49c3.625 0 7-1.071 9.824-2.915a8 8 0 0 1 8.04-12.867zM28 18a6 6 0 1 0 0-12 6 6 0 0 0 0 12zM12 47a6 6 0 1 0 0-12 6 6 0 0 0 0 12zm32 0a6 6 0 1 0 0-12 6 6 0 0 0 0 12z" class="color-500"/><path fill="#FFF" d="M28 18a6 6 0 1 0 0-12 6 6 0 0 0 0 12zM12 47a6 6 0 1 0 0-12 6 6 0 0 0 0 12zm32 0a6 6 0 1 0 0-12 6 6 0 0 0 0 12z" class="french-vanilla-100"/></g></svg>