<svg xmlns="http://www.w3.org/2000/svg" width="56" height="56" class="wd-accent-connected wd-accent" focusable="false" role="presentation" viewBox="0 0 56 56"><g fill="none" fill-rule="nonzero" class="wd-icon-container"><path fill="#005DBA" d="M23.027 34.267a9 9 0 1 0 13.29 11.973 8 8 0 1 1 .925 2.044A10.973 10.973 0 0 1 29 52c-6.075 0-11-4.925-11-11 0-3.239 1.4-6.15 3.627-8.163a8 8 0 0 1 10.779-11.515A9 9 0 1 0 19.379 8.904a8 8 0 1 1-1.045-1.792A10.964 10.964 0 0 1 26 4c6.075 0 11 4.925 11 11 0 2.961-1.17 5.65-3.073 7.627a8 8 0 0 1-10.9 11.64zM12 18a6 6 0 1 0 0-12 6 6 0 0 0 0 12zm32 32a6 6 0 1 0 0-12 6 6 0 0 0 0 12zM28 34a6 6 0 1 0 0-12 6 6 0 0 0 0 12z" class="color-500"/><path fill="#FFF" d="M12 18a6 6 0 1 0 0-12 6 6 0 0 0 0 12zm32 32a6 6 0 1 0 0-12 6 6 0 0 0 0 12zM28 34a6 6 0 1 0 0-12 6 6 0 0 0 0 12z" class="french-vanilla-100"/></g></svg>