<svg xmlns="http://www.w3.org/2000/svg" width="56" height="56" class="wd-accent-connected-square wd-accent" focusable="false" role="presentation" viewBox="0 0 56 56"><g fill="none" fill-rule="nonzero" class="wd-icon-container"><path fill="#005DBA" d="M15.293 34.707l1.414-1.414 7.816 7.816a6 6 0 1 1-1.414 1.414l-7.816-7.816zm27.23-1.816l-7.816 7.816-1.414-1.414 7.816-7.816a6 6 0 1 1 1.414 1.414zm-21.23-17.598l1.414 1.414-7.816 7.816a6 6 0 1 1-1.414-1.414l7.816-7.816zm11.598-1.816l7.816 7.816-1.414 1.414-7.816-7.816a6 6 0 1 1 1.414-1.414zM28 14a4 4 0 1 0 0-8 4 4 0 0 0 0 8zM10 32a4 4 0 1 0 0-8 4 4 0 0 0 0 8zm36 0a4 4 0 1 0 0-8 4 4 0 0 0 0 8zM28 50a4 4 0 1 0 0-8 4 4 0 0 0 0 8z" class="color-500"/><path fill="#FFF" d="M28 14a4 4 0 1 0 0-8 4 4 0 0 0 0 8zM10 32a4 4 0 1 0 0-8 4 4 0 0 0 0 8zm36 0a4 4 0 1 0 0-8 4 4 0 0 0 0 8zM28 50a4 4 0 1 0 0-8 4 4 0 0 0 0 8z" class="french-vanilla-100"/></g></svg>