<svg xmlns="http://www.w3.org/2000/svg" width="56" height="56" class="wd-accent-credit-card wd-accent" focusable="false" role="presentation" viewBox="0 0 56 56"><g fill="none" fill-rule="evenodd" class="wd-icon-container"><path fill="#005DBA" fill-rule="nonzero" d="M47 13a5 5 0 0 1 5 5v20a5 5 0 0 1-5 5H9a5 5 0 0 1-5-5V18a5 5 0 0 1 5-5h38zm3 11H6v14a3 3 0 0 0 3 3h38a3 3 0 0 0 3-3V24zm-4 7a2 2 0 0 1 2 2v4a2 2 0 0 1-2 2h-8a2 2 0 0 1-2-2v-4a2 2 0 0 1 2-2zm0 2h-8v4h8v-4zm-18 0a1 1 0 0 1 0 2H10a1 1 0 0 1 0-2zm-7-4a1 1 0 0 1 0 2H10a1 1 0 0 1 0-2zm29-9H6v2h44v-2zm-3-5H9a3 3 0 0 0-3 3h44a3 3 0 0 0-3-3z" class="color-500"/><path fill="#FFF" d="M9 15h38a3 3 0 0 1 3 3v20a3 3 0 0 1-3 3H9a3 3 0 0 1-3-3V18a3 3 0 0 1 3-3zm-3 7v2h44v-2H6zm0-4v2h44v-2H6zm4 11a1 1 0 0 0 0 2h11a1 1 0 0 0 0-2H10zm0 4a1 1 0 0 0 0 2h18a1 1 0 0 0 0-2H10zm28 0h8v4h-8v-4zm0-2a2 2 0 0 0-2 2v4a2 2 0 0 0 2 2h8a2 2 0 0 0 2-2v-4a2 2 0 0 0-2-2h-8z" class="french-vanilla-100"/></g></svg>