<svg xmlns="http://www.w3.org/2000/svg" width="56" height="56" class="wd-accent-credits wd-accent" focusable="false" role="presentation" viewBox="0 0 56 56"><g fill="none" fill-rule="evenodd" class="wd-icon-container"><path fill="#005DBA" fill-rule="nonzero" d="M36.419 43.186a1 1 0 0 1 1.395.233l5 7a1 1 0 1 1-1.628 1.162l-5-7a1 1 0 0 1 .233-1.395zM28 44a1 1 0 0 1 1 1v6a1 1 0 0 1-2 0v-6a1 1 0 0 1 1-1zm-9.814-.581a1 1 0 1 1 1.628 1.162l-5 7a1 1 0 1 1-1.628-1.162zm24.982-5.974a1 1 0 0 1 1.387-.277l6 4a1 1 0 1 1-1.11 1.664l-6-4a1 1 0 0 1-.277-1.387zm-31.723-.277a1 1 0 1 1 1.11 1.664l-6 4a1 1 0 1 1-1.11-1.664zM28 14c8.476 0 15.623 4.454 15.986 10.516h.024l-.04 8.032-.01.193c-.608 5.945-7.668 10.227-15.96 10.227-8.292 0-15.352-4.282-15.96-10.227l-.01-.193-.04-8.032h.024C12.377 18.454 19.524 14 28 14zm5 21.463a22.914 22.914 0 0 1-4 .516v4.966c1.4-.064 2.744-.26 4-.57v-4.912zm-10 0v4.912c1.256.31 2.6.506 4 .57V35.98a22.914 22.914 0 0 1-4-.516zm15-1.833c-.924.501-1.93.933-3 1.285v4.844a14.99 14.99 0 0 0 3-1.502zm-20 0v4.62h-.011A14.98 14.98 0 0 0 21 39.76v-4.845a18.207 18.207 0 0 1-3-1.285zm23.98-3.208A11.95 11.95 0 0 1 40 32.334v4.256c1.119-1.197 1.819-2.576 1.97-4.052zm-27.96 0l.01 2.116c.151 1.476.851 2.855 1.97 4.052v-4.256a11.95 11.95 0 0 1-1.98-1.912zM28 16c-7.732 0-14 4.03-14 9s6.268 9 14 9 14-4.03 14-9-6.268-9-14-9zm0 3c5.45 0 10 2.528 10 6s-4.55 6-10 6-10-2.528-10-6 4.55-6 10-6zm23 8a1 1 0 0 1 0 2h-5a1 1 0 0 1 0-2zm-41 0a1 1 0 0 1 0 2H5a1 1 0 0 1 0-2zm18-6c-4.492 0-8 1.949-8 4s3.508 4 8 4 8-1.949 8-4-3.508-4-8-4zm21.553-5.894a1 1 0 0 1 .894 1.788l-6 3a1 1 0 0 1-.894-1.788zm-44.447.447a1 1 0 0 1 1.341-.447l6 3a1 1 0 0 1-.894 1.788l-6-3a1 1 0 0 1-.447-1.341zm36.08-10.134a1 1 0 0 1 1.628 1.162l-5 7a1 1 0 1 1-1.628-1.162zM13.42 5.186a1 1 0 0 1 1.395.233l5 7a1 1 0 1 1-1.628 1.162l-5-7a1 1 0 0 1 .233-1.395zM28 4a1 1 0 0 1 1 1v6a1 1 0 0 1-2 0V5a1 1 0 0 1 1-1z" class="color-500"/><path fill="#FFF" d="M38 33.63v4.627a14.99 14.99 0 0 1-3 1.502v-4.844a18.207 18.207 0 0 0 3-1.285zm2-1.296a11.95 11.95 0 0 0 1.98-1.912l-.01 2.116c-.151 1.476-.851 2.855-1.97 4.052v-4.256zm-7 3.129a22.914 22.914 0 0 1-4 .516v4.966c1.4-.064 2.744-.26 4-.57v-4.912zm-10 0c1.275.282 2.616.459 4 .516v4.966c-1.4-.064-2.744-.26-4-.57v-4.912zm-2-.548v4.844a14.98 14.98 0 0 1-3.011-1.51H18v-4.62c.924.502 1.93.934 3 1.286zm-5-2.581v4.256c-1.119-1.197-1.819-2.576-1.97-4.052l-.01-2.116c.56.69 1.226 1.33 1.98 1.912zM28 16c7.732 0 14 4.03 14 9s-6.268 9-14 9-14-4.03-14-9 6.268-9 14-9zm0 15c5.45 0 10-2.528 10-6s-4.55-6-10-6-10 2.528-10 6 4.55 6 10 6zm0-2c-4.492 0-8-1.949-8-4s3.508-4 8-4 8 1.949 8 4-3.508 4-8 4z" class="french-vanilla-100"/></g></svg>