<svg xmlns="http://www.w3.org/2000/svg" width="56" height="56" class="wd-accent-credentials wd-accent" focusable="false" role="presentation" viewBox="0 0 56 56"><g fill="none" fill-rule="evenodd" class="wd-icon-container"><path fill="#FFF" d="M0 0h56v56H0z"/><path fill="#FFF" d="M39 8l8 4v9l-8 4-8-4v-9l8-4zm-22.74 9.035l8.485 2.71a.39.39 0 0 1 .255.366v.053c-.009.518-.1 4.719-.943 9.25-.9 4.84-6.001 7.43-8.057 9.586-1.89-2.155-7.157-4.586-8.057-9.586-.844-4.681-.934-8.758-.942-9.26L7 20.102a.387.387 0 0 1 .254-.357l8.486-2.71a.991.991 0 0 1 .52 0zM39 31l8 4v9l-8 4-8-4v-9l8-4z" class="french-vanilla-100"/><path fill="#005CB9" fill-rule="nonzero" d="M39.894 6.211l8 4A2 2 0 0 1 49 12v9a2 2 0 0 1-1.106 1.789l-8 4a2 2 0 0 1-1.788 0l-7.666-3.832-5.824 2.692a54.585 54.585 0 0 1-.559 3.765c-.082.443-.2.867-.347 1.274l5.837 2.937c.158-.167.346-.308.559-.414l8-4a2 2 0 0 1 1.788 0l8 4A2 2 0 0 1 49 35v9a2 2 0 0 1-1.106 1.789l-8 4a2 2 0 0 1-1.788 0l-8-4A2 2 0 0 1 29 44l-.001-8.411-6.18-3.111C20.927 35.448 17.573 37.351 16 39c-1.89-2.155-7.157-4.586-8.057-9.586-.844-4.681-.934-8.758-.942-9.26v-.052a.387.387 0 0 1 .254-.357l8.485-2.71a.991.991 0 0 1 .52 0l8.485 2.71a.39.39 0 0 1 .255.366v.053c-.005.26-.03 1.445-.16 3.134l4.193-1.938A2 2 0 0 1 29 21v-9a2 2 0 0 1 1.106-1.789l8-4a2 2 0 0 1 1.788 0zM31 36.618V44l7 3.5v-7.382l-7-3.5zm16-.001l-7 3.5V47.5l7-3.5v-7.383zM39 31l-7.381 3.691L39 38.382l7.381-3.691L39 31zM15.999 19.007L9 21.285l.009.26a55.536 55.536 0 0 0 .79 7.47c.34 1.927 1.46 3.477 3.459 5.192.275.237.56.472.928.767.047.038.713.57.899.721.38.309.685.568.942.805.239-.211.517-.45.802-.692l.285-.241c.807-.68 1.575-1.307 1.547-1.282 2.042-1.774 3.19-3.356 3.541-5.275.337-1.843.56-3.76.692-5.638A52.801 52.801 0 0 0 23 21.285l-7.001-2.278zM16 21c1.62 0 3 1.15 3 2.667v1.666c0 .724-.314 1.364-.818 1.836 1.054.37 1.818 1.322 1.818 2.467V32h-8v-2.364c0-1.145.764-2.098 1.818-2.47-.504-.469-.818-1.109-.818-1.833v-1.666C13 22.149 14.38 21 16 21zm1.2 8h-2.4c-.462 0-.8.307-.8.636V30h4v-.364c0-.329-.338-.636-.8-.636zM16 23c-.589 0-1 .343-1 .667v1.666c0 .324.411.667 1 .667s1-.343 1-.667v-1.666c0-.324-.411-.667-1-.667zm15-9.382V21l7 3.5v-7.382l-7-3.5zm16-.001l-7 3.5V24.5l7-3.5v-7.383zM39 8l-7.381 3.691L39 15.382l7.381-3.691L39 8z" class="color-500"/></g></svg>