<svg xmlns="http://www.w3.org/2000/svg" width="56" height="56" class="wd-accent-cupcake wd-accent" focusable="false" role="presentation" viewBox="0 0 56 56"><g fill="none" fill-rule="nonzero" class="wd-icon-container"><path fill="#005DBA" d="M38.998 32.059a1.01 1.01 0 0 1-.014.12l-2 11a1 1 0 1 1-1.968-.358l1.957-10.762h-3.975L31.996 43.09a1 1 0 1 1-1.992-.182l.987-10.85h-5.982l.987 10.85a1 1 0 1 1-1.992.182l-1-11c0-.008-1.326-.018-3.977-.032l1.957 10.762a1 1 0 1 1-1.968.358l-2-11a1.01 1.01 0 0 1-.014-.12H14l2.693 14.31A2 2 0 0 0 18.66 48H36.89a2 2 0 0 0 1.954-1.571L42 32.059h-3.002zM11 27.5a5.5 5.5 0 0 1 5.016-5.479 5 5 0 0 1 3.803-8.018A4.604 4.604 0 0 1 19 11.375C19 7.427 22.998 5 28.875 5a2 2 0 0 1 1.973 2.327c.002-.012.008-.017.226.15.527.408 1.53.827 2.979 1.197A3.917 3.917 0 0 1 37 12.469c0 .564-.132 1.097-.368 1.57a5 5 0 0 1 3.352 7.982 5.5 5.5 0 0 1 3.732 9.01c.251.419.353.932.237 1.457l-3.155 14.37A4 4 0 0 1 36.891 50H18.66a4 4 0 0 1-3.931-3.26l-2.693-14.312a1.986 1.986 0 0 1 .249-1.396A5.478 5.478 0 0 1 11 27.5zm3.112 2.559h27.776A3.5 3.5 0 0 0 39.5 24h-23a3.5 3.5 0 0 0-2.388 6.059zM36 16H20a3 3 0 0 0 0 6h16a3 3 0 0 0 0-6zm-15-4.625A2.625 2.625 0 0 0 23.625 14h9.844c.845 0 1.531-.686 1.531-1.531 0-.876-.594-1.64-1.442-1.857-3.38-.863-4.94-2.067-4.683-3.612C23.625 7 21 9 21 11.375z" class="color-500"/><path fill="#FFF" d="M38.998 32.059a1.01 1.01 0 0 1-.014.12l-2 11a1 1 0 1 1-1.968-.358l1.957-10.762h-3.975L31.996 43.09a1 1 0 1 1-1.992-.182l.987-10.85h-5.982l.987 10.85a1 1 0 1 1-1.992.182l-1-11c0-.008-1.326-.018-3.977-.032l1.957 10.762a1 1 0 1 1-1.968.358l-2-11a1.01 1.01 0 0 1-.014-.12H14l2.693 14.31A2 2 0 0 0 18.66 48H36.89a2 2 0 0 0 1.954-1.571L42 32.059h-3.002zm-24.886-2h27.776A3.5 3.5 0 0 0 39.5 24h-23a3.5 3.5 0 0 0-2.388 6.059zM36 16H20a3 3 0 0 0 0 6h16a3 3 0 0 0 0-6zm-15-4.625A2.625 2.625 0 0 0 23.625 14h9.844c.845 0 1.531-.686 1.531-1.531 0-.876-.594-1.64-1.442-1.857-3.38-.863-4.94-2.067-4.683-3.612C23.625 7 21 9 21 11.375z" class="french-vanilla-100"/></g></svg>