<svg xmlns="http://www.w3.org/2000/svg" width="56" height="56" class="wd-accent-daas wd-accent" focusable="false" role="presentation" viewBox="0 0 56 56"><g fill="none" fill-rule="nonzero" class="wd-icon-container"><path fill="#005DBA" d="M27.996 45.514c.709 0 1.258.236 1.648.707.39.472.584 1.138.584 2v1.164c0 .865-.194 1.531-.582 2-.388.469-.936.703-1.642.703-.712 0-1.262-.236-1.652-.708-.39-.471-.584-1.136-.584-1.995v-1.169c0-.864.194-1.53.582-2 .388-.468.937-.702 1.646-.702zm-6.381.088V52h-1.486v-4.729l-1.459.427v-1.125l2.809-.971h.136zm14.906 0V52h-1.485v-4.729l-1.46.427v-1.125l2.809-.971h.136zm-8.525 1.054c-.255 0-.44.106-.556.317-.116.21-.178.53-.187.958v1.634c0 .478.06.827.18 1.049.12.22.31.331.571.331a.596.596 0 0 0 .558-.323c.12-.215.182-.553.185-1.013v-1.582c0-.46-.06-.803-.18-1.03a.602.602 0 0 0-.571-.34zm-3.727-9.142c.709 0 1.258.236 1.648.707.39.472.584 1.138.584 2v1.164c0 .865-.194 1.531-.582 2-.388.469-.935.703-1.641.703-.712 0-1.263-.236-1.653-.708-.39-.471-.584-1.136-.584-1.995v-1.169c0-.864.194-1.53.582-2 .388-.468.937-.702 1.646-.702zm14.906 0c.71 0 1.259.236 1.648.707.39.472.585 1.138.585 2v1.164c0 .865-.194 1.531-.583 2-.388.469-.935.703-1.64.703-.713 0-1.264-.236-1.653-.708-.39-.471-.585-1.136-.585-1.995v-1.169c0-.864.194-1.53.583-2 .388-.468.936-.702 1.645-.702zm-21.287.088V44h-1.485v-4.729l-1.46.427v-1.125l2.809-.971h.136zm14.906 0V44H31.31v-4.729l-1.459.427v-1.125l2.808-.971h.136zm-8.525 1.054c-.255 0-.44.106-.556.317-.116.21-.178.53-.187.958v1.634c0 .478.06.827.18 1.049.12.22.311.331.572.331a.596.596 0 0 0 .558-.323c.12-.215.182-.553.185-1.013v-1.582c0-.46-.06-.803-.18-1.03a.602.602 0 0 0-.572-.34zm14.906 0c-.255 0-.44.106-.556.317-.115.21-.178.53-.186.958v1.634c0 .478.06.827.18 1.049.12.22.31.331.571.331a.596.596 0 0 0 .558-.323c.12-.215.182-.553.185-1.013v-1.582c0-.46-.06-.803-.18-1.03a.602.602 0 0 0-.572-.34zM25.727 4A13.39 13.39 0 0 1 36.83 9.87a7.037 7.037 0 0 1 2.535-.47c3.861 0 7 3.107 7 6.95a6.91 6.91 0 0 1-.277 1.94A9.176 9.176 0 0 1 50 25.8c0 5.086-4.156 9.2-9.273 9.2h-24.09C10.766 35 6 30.281 6 24.45c0-4.356 2.683-8.179 6.615-9.77C13.828 8.553 19.276 4 25.727 4zm0 2c-5.913 0-10.772 4.472-11.313 10.186C10.72 17.156 8 20.489 8 24.45 8 29.172 11.867 33 16.636 33h24.091C44.744 33 48 29.776 48 25.8c0-3.006-1.861-5.583-4.505-6.66a4.893 4.893 0 0 0 .869-2.79c0-2.734-2.239-4.95-5-4.95a5.01 5.01 0 0 0-3.28 1.214A11.372 11.372 0 0 0 25.727 6z" class="color-500"/><path fill="#FFF" d="M40.727 33h-24.09C11.866 33 8 29.172 8 24.45c0-3.961 2.721-7.293 6.414-8.264C14.955 10.472 19.814 6 25.727 6c4.607 0 8.573 2.713 10.357 6.614a5.01 5.01 0 0 1 3.28-1.214c2.761 0 5 2.216 5 4.95 0 1.035-.321 1.995-.87 2.79C46.14 20.217 48 22.794 48 25.8c0 3.976-3.256 7.2-7.273 7.2z" class="french-vanilla-100"/></g></svg>