<svg xmlns="http://www.w3.org/2000/svg" width="56" height="56" class="wd-accent-dashboard wd-accent" focusable="false" role="presentation" viewBox="0 0 56 56"><g fill="none" fill-rule="nonzero" class="wd-icon-container"><path fill="#005DBA" d="M15 28v-5a2 2 0 0 1 2-2h4a2 2 0 0 1 2 2v16a2 2 0 0 1-2 2H11a2 2 0 0 1-2-2v-9a2 2 0 0 1 2-2h4zm0 2h-4v9h4v-9zM7 11h18a2 2 0 0 1 2 2v31a2 2 0 0 1-2 2H7a2 2 0 0 1-2-2V13a2 2 0 0 1 2-2zm0 2v31h18V13H7zm24-2h18a2 2 0 0 1 2 2v16a2 2 0 0 1-2 2H31a2 2 0 0 1-2-2V13a2 2 0 0 1 2-2zm0 2v16h18V13H31zm0 20h18a2 2 0 0 1 2 2v9a2 2 0 0 1-2 2H31a2 2 0 0 1-2-2v-9a2 2 0 0 1 2-2zm0 2v9h18v-9H31zm10 2h5a1 1 0 0 1 0 2h-5a1 1 0 0 1 0-2zM10 16h12a1 1 0 0 1 0 2H10a1 1 0 0 1 0-2zm31 24h5a1 1 0 0 1 0 2h-5a1 1 0 0 1 0-2zm-2.765-13.493l-.794.39-1.44-.844-.034-.638a4 4 0 0 0-1.878-3.18l-.618-.386V20.15l.618-.385a4 4 0 0 0 1.878-3.181l.034-.638 1.44-.844.794.39a4 4 0 0 0 3.53 0l.794-.39 1.44.844.034.638a4 4 0 0 0 1.878 3.18l.618.386v1.698l-.618.385a4 4 0 0 0-1.878 3.181l-.034.638-1.44.844-.794-.39a4 4 0 0 0-3.53 0zm3.9-2.017A6.001 6.001 0 0 1 44.21 21a6.001 6.001 0 0 1-2.073-3.49 6 6 0 0 1-4.272 0A6.001 6.001 0 0 1 35.791 21a6.001 6.001 0 0 1 2.073 3.49 6 6 0 0 1 4.272 0zM40 22a1 1 0 1 1 0-2 1 1 0 0 1 0 2zm-23 1v16h4V23h-4zm20.143 13.486a1 1 0 0 1 1.714 1.028l-3 5a1 1 0 0 1-1.564.193l-2-2a1 1 0 0 1 1.414-1.414l1.094 1.094 2.342-3.901z" class="color-500"/><path fill="#FFF" d="M15 28v-5a2 2 0 0 1 2-2h4a2 2 0 0 1 2 2v16a2 2 0 0 1-2 2H11a2 2 0 0 1-2-2v-9a2 2 0 0 1 2-2h4zm0 2h-4v9h4v-9zM7 13v31h18V13H7zm24 0v16h18V13H31zm0 22v9h18v-9H31zm10 2h5a1 1 0 0 1 0 2h-5a1 1 0 0 1 0-2zM10 16h12a1 1 0 0 1 0 2H10a1 1 0 0 1 0-2zm31 24h5a1 1 0 0 1 0 2h-5a1 1 0 0 1 0-2zm-2.765-13.493l-.794.39-1.44-.844-.034-.638a4 4 0 0 0-1.878-3.18l-.618-.386V20.15l.618-.385a4 4 0 0 0 1.878-3.181l.034-.638 1.44-.844.794.39a4 4 0 0 0 3.53 0l.794-.39 1.44.844.034.638a4 4 0 0 0 1.878 3.18l.618.386v1.698l-.618.385a4 4 0 0 0-1.878 3.181l-.034.638-1.44.844-.794-.39a4 4 0 0 0-3.53 0zm3.9-2.017A6.001 6.001 0 0 1 44.21 21a6.001 6.001 0 0 1-2.073-3.49 6 6 0 0 1-4.272 0A6.001 6.001 0 0 1 35.791 21a6.001 6.001 0 0 1 2.073 3.49 6 6 0 0 1 4.272 0zM40 22a1 1 0 1 1 0-2 1 1 0 0 1 0 2zm-23 1v16h4V23h-4zm20.143 13.486a1 1 0 0 1 1.714 1.028l-3 5a1 1 0 0 1-1.564.193l-2-2a1 1 0 0 1 1.414-1.414l1.094 1.094 2.342-3.901z" class="french-vanilla-100"/></g></svg>