<svg xmlns="http://www.w3.org/2000/svg" width="56" height="56" class="wd-accent-data-loading wd-accent" focusable="false" role="presentation" viewBox="0 0 56 56"><g fill="none" fill-rule="nonzero" class="wd-icon-container"><path fill="#005DBA" d="M14.143 41A18.95 18.95 0 0 0 28 47c10.493 0 19-8.507 19-19S38.493 9 28 9 9 17.507 9 28c0 2.375.435 4.688 1.274 6.855a1 1 0 0 1-1.865.722A20.95 20.95 0 0 1 7 28C7 16.402 16.402 7 28 7s21 9.402 21 21-9.402 21-21 21a20.947 20.947 0 0 1-15-6.302V47a1 1 0 0 1-2 0v-8h8a1 1 0 0 1 0 2h-4.857zM18 20.5c0-2.77 3.89-3.5 10-3.5 6.11 0 10 .73 10 3.5v14.864C38 38.179 33.985 39 28 39s-10-.821-10-3.636V20.5zm2 4.864C20 26.267 23.582 27 28 27s8-.733 8-1.636v-2.328c-1.73.725-4.5.964-8 .964s-6.27-.24-8-.964v2.328zm0 5C20 31.267 23.582 32 28 32s8-.733 8-1.636v-2.41C34.251 28.726 31.453 29 28 29c-3.453 0-6.251-.274-8-1.046v2.41zm0 2.59v2.41C20 36.267 23.582 37 28 37s8-.733 8-1.636v-2.41C34.251 33.726 31.453 34 28 34c-3.453 0-6.251-.274-8-1.046zM28 22c4.418 0 8-.672 8-1.5S32.418 19 28 19s-8 .672-8 1.5 3.582 1.5 8 1.5z" class="color-500"/><path fill="#FFF" d="M20 25.364C20 26.267 23.582 27 28 27s8-.733 8-1.636v-2.328c-1.73.725-4.5.964-8 .964s-6.27-.24-8-.964v2.328zm0 5C20 31.267 23.582 32 28 32s8-.733 8-1.636v-2.41C34.251 28.726 31.453 29 28 29c-3.453 0-6.251-.274-8-1.046v2.41zm0 2.59v2.41C20 36.267 23.582 37 28 37s8-.733 8-1.636v-2.41C34.251 33.726 31.453 34 28 34c-3.453 0-6.251-.274-8-1.046zM28 22c4.418 0 8-.672 8-1.5S32.418 19 28 19s-8 .672-8 1.5 3.582 1.5 8 1.5z" class="french-vanilla-100"/></g></svg>