<svg xmlns="http://www.w3.org/2000/svg" width="56" height="56" class="wd-accent-data-clock wd-accent" focusable="false" role="presentation" viewBox="0 0 56 56"><g fill="none" fill-rule="nonzero" class="wd-icon-container"><path fill="#005DBA" d="M44 30.414c4.617 1.306 8 5.55 8 10.586 0 6.075-4.925 11-11 11a10.965 10.965 0 0 1-7.74-3.183c-1.628.124-3.394.183-5.26.183-9.237 0-16-1.45-16-5v-6c0-.335.082-.651.228-.929A2.575 2.575 0 0 1 12 36v-6c0-.335.082-.651.228-.929A2.575 2.575 0 0 1 12 28v-6c0-.335.082-.651.228-.929A2.575 2.575 0 0 1 12 20v-8c.001-3.55 6.764-5 16-5 9.235 0 15.998 1.449 16 4.998V20c0 .381-.078.738-.228 1.071.146.278.228.594.228.929v6c0 .381-.078.738-.228 1.071.146.278.228.594.228.929v.414zm-10.313 2.369A68.389 68.389 0 0 1 28 33c-6.232 0-11.337-.66-14-2.18V36c0 1.657 6.268 3 14 3 .744 0 1.475-.012 2.188-.036a10.986 10.986 0 0 1 3.499-6.181zM30 41c-.652-.008-1.32 0-2 0-6.232 0-11.337-.66-14-2.18V44c0 1.657 6.268 3 14 3 1.285 0 2.529-.037 3.71-.106A10.949 10.949 0 0 1 30 41zM14 20c0 1.657 6.268 3 14 3s14-1.343 14-3v-5.18C39.337 16.34 34.232 17 28 17s-11.337-.66-14-2.18V20zm0 2.82V28c0 1.657 6.268 3 14 3s14-1.343 14-3v-5.18C39.337 24.34 34.232 25 28 25s-11.337-.66-14-2.18zM28 15c7.732 0 14-1.343 14-3s-6.268-3-14-3-14 1.343-14 3 6.268 3 14 3zm13 35a9 9 0 1 0 0-18 9 9 0 0 0 0 18zm.677-9H45a1 1 0 0 1 0 2h-4a1 1 0 0 1-.928-.629l-2-5a1 1 0 0 1 1.856-.742L41.677 41z" class="color-500"/><path fill="#FFF" d="M33.687 32.783A68.389 68.389 0 0 1 28 33c-6.232 0-11.337-.66-14-2.18V36c0 1.657 6.268 3 14 3 .744 0 1.475-.012 2.188-.036a10.986 10.986 0 0 1 3.499-6.181zM30 41c-.652-.008-1.32 0-2 0-6.232 0-11.337-.66-14-2.18V44c0 1.657 6.268 3 14 3 1.285 0 2.529-.037 3.71-.106A10.949 10.949 0 0 1 30 41zM14 20c0 1.657 6.268 3 14 3s14-1.343 14-3v-5.18C39.337 16.34 34.232 17 28 17s-11.337-.66-14-2.18V20zm0 2.82V28c0 1.657 6.268 3 14 3s14-1.343 14-3v-5.18C39.337 24.34 34.232 25 28 25s-11.337-.66-14-2.18zM28 15c7.732 0 14-1.343 14-3s-6.268-3-14-3-14 1.343-14 3 6.268 3 14 3zm13 35a9 9 0 1 0 0-18 9 9 0 0 0 0 18zm.677-9H45a1 1 0 0 1 0 2h-4a1 1 0 0 1-.928-.629l-2-5a1 1 0 0 1 1.856-.742L41.677 41z" class="french-vanilla-100"/></g></svg>