<svg xmlns="http://www.w3.org/2000/svg" width="56" height="56" class="wd-accent-data-refresh wd-accent" focusable="false" role="presentation" viewBox="0 0 56 56"><g fill="none" fill-rule="nonzero" class="wd-icon-container"><path fill="#005DBA" d="M40 13a1 1 0 0 1 2 0v8h-8a1 1 0 0 1 0-2h5.218a14.272 14.272 0 0 0-8.988-5.01 1 1 0 1 1 .278-1.98A16.27 16.27 0 0 1 40 16.874V13zM17 39.676V44a1 1 0 0 1-2 0v-6.923V36h8a1 1 0 0 1 0 2h-4.856a14.266 14.266 0 0 0 8.215 4.008 1 1 0 1 1-.256 1.984A16.264 16.264 0 0 1 17 39.676zM29 27.5c0-2.77 3.89-3.5 10-3.5 6.11 0 10 .73 10 3.5v14.864C49 45.179 44.985 46 39 46s-10-.821-10-3.636V27.5zm2 2.536v2.328C31 33.267 34.582 34 39 34s8-.733 8-1.636v-2.328c-1.73.725-4.5.964-8 .964s-6.27-.24-8-.964zm0 4.918v2.41C31 38.267 34.582 39 39 39s8-.733 8-1.636v-2.41C45.251 35.726 42.453 36 39 36c-3.453 0-6.251-.274-8-1.046zm0 5v2.41C31 43.267 34.582 44 39 44s8-.733 8-1.636v-2.41C45.251 40.726 42.453 41 39 41c-3.453 0-6.251-.274-8-1.046zM7 14.5c0-2.77 3.89-3.5 10-3.5 6.11 0 10 .73 10 3.5v14.864C27 32.179 22.985 33 17 33s-10-.821-10-3.636V14.5zm2 4.864C9 20.267 12.582 21 17 21s8-.733 8-1.636v-2.328c-1.73.725-4.5.964-8 .964s-6.27-.24-8-.964v2.328zm0 5C9 25.267 12.582 26 17 26s8-.733 8-1.636v-2.41C23.251 22.726 20.453 23 17 23c-3.453 0-6.251-.274-8-1.046v2.41zm0 2.59v2.41C9 30.267 12.582 31 17 31s8-.733 8-1.636v-2.41C23.251 27.726 20.453 28 17 28c-3.453 0-6.251-.274-8-1.046zM17 16c4.418 0 8-.672 8-1.5S21.418 13 17 13s-8 .672-8 1.5 3.582 1.5 8 1.5zm22 13c4.418 0 8-.672 8-1.5S43.418 26 39 26s-8 .672-8 1.5 3.582 1.5 8 1.5z" class="color-500"/><path fill="#FFF" d="M31 30.036v2.328C31 33.267 34.582 34 39 34s8-.733 8-1.636v-2.328c-1.73.725-4.5.964-8 .964s-6.27-.24-8-.964zm0 4.918v2.41C31 38.267 34.582 39 39 39s8-.733 8-1.636v-2.41C45.251 35.726 42.453 36 39 36c-3.453 0-6.251-.274-8-1.046zm0 5v2.41C31 43.267 34.582 44 39 44s8-.733 8-1.636v-2.41C45.251 40.726 42.453 41 39 41c-3.453 0-6.251-.274-8-1.046zM9 19.364C9 20.267 12.582 21 17 21s8-.733 8-1.636v-2.328c-1.73.725-4.5.964-8 .964s-6.27-.24-8-.964v2.328zm0 5C9 25.267 12.582 26 17 26s8-.733 8-1.636v-2.41C23.251 22.726 20.453 23 17 23c-3.453 0-6.251-.274-8-1.046v2.41zm0 2.59v2.41C9 30.267 12.582 31 17 31s8-.733 8-1.636v-2.41C23.251 27.726 20.453 28 17 28c-3.453 0-6.251-.274-8-1.046zM17 16c4.418 0 8-.672 8-1.5S21.418 13 17 13s-8 .672-8 1.5 3.582 1.5 8 1.5zm22 13c4.418 0 8-.672 8-1.5S43.418 26 39 26s-8 .672-8 1.5 3.582 1.5 8 1.5z" class="french-vanilla-100"/></g></svg>