<svg xmlns="http://www.w3.org/2000/svg" width="56" height="56" class="wd-accent-desk wd-accent" focusable="false" role="presentation" viewBox="0 0 56 56"><g fill="none" fill-rule="evenodd" class="wd-icon-container"><path fill="#005DBA" d="M31.652 30.918L36.909 20H27a1 1 0 0 1 0-2h22a1 1 0 0 1 0 2h-9.872l-5.607 11.646a1 1 0 0 1-.544 1.854l8.897 16.014a1 1 0 1 1-1.748.972L35.967 43H12.033l-4.159 7.486a1 1 0 1 1-1.748-.972l9.182-16.527c-2.857-.269-4.488-1.638-5.072-4.078-.416-1.736-.371-3.018.064-7.938.092-1.046.152-1.78.202-2.538.32-4.808-.472-8.773-2.36-11.919a1 1 0 0 1 1.715-1.028c2.113 3.52 2.987 7.889 2.64 13.08-.05.775-.111 1.522-.205 2.581-.41 4.631-.453 5.87-.111 7.296.387 1.616 1.322 2.387 3.402 2.56 1.794.15 3.278.065 6.536-.279 4.612-.486 7.12-.537 9.533.194zm-14.104 2.155L13.144 41h21.712l-4.657-8.382c-1.899-.39-4.12-.3-7.87.095-2.129.225-3.54.343-4.781.36z" class="color-500"/></g></svg>