<svg xmlns="http://www.w3.org/2000/svg" width="56" height="56" class="wd-accent-dna wd-accent" focusable="false" role="presentation" viewBox="0 0 56 56"><g fill="none" fill-rule="evenodd" class="wd-icon-container"><path fill="#005DBA" fill-rule="nonzero" d="M33.938 17.368a1 1 0 1 1-.253 1.984c-6.104-.778-10.173-.069-12.233 1.991C19.02 23.776 18.48 29 20.014 37.011a1 1 0 0 1-.794 1.17c-.445.085-1.005.062-1.089-.378-.034-.18-.063-.319-.081-.416-1.649-8.604-1.047-14.423 1.988-17.458 2.6-2.6 7.243-3.409 13.9-2.561zm5.845-12.94l9.988 9.987a1 1 0 1 1-1.414 1.415C41.635 9.1 38.26 5.717 38.236 5.678c-.347 1.029-.565 2.238-.653 3.628.018.015 1.998 1.993 5.941 5.934a1 1 0 1 1-1.414 1.414l-4.54-4.54c.09 1.918.407 4.09.87 6.512l.156.801c1.589 8.297.843 13.628-2.295 16.766-2.65 2.65-7.42 3.44-14.286 2.51a1 1 0 1 1 .268-1.982c1.23.167 2.38.274 3.449.324l-5.024-5.023a1 1 0 1 1 1.415-1.414l6.346 6.346c.025.025.049.052.07.079 1.384-.088 2.585-.304 3.606-.646L21.493 25.736a1 1 0 0 1 1.414-1.414l11.145 11.144c.308-.21.586-.439.835-.688.45-.449.84-.963 1.171-1.548L25.261 22.433a1 1 0 1 1 1.414-1.415l10.206 10.206c.305-1.075.48-2.311.518-3.724l-5.201-5.202a1 1 0 0 1 1.414-1.414l3.696 3.697a45.16 45.16 0 0 0-.677-4.778l-.15-.796c-1.187-6.2-1.25-10.937-.047-14.234.116-.318.376-.576.68-.658h2c.243.03.483.127.669.312zM4.113 37.114c.022-.402.36-.638.705-.766 2.664-.99 6.27-1.174 10.831-.584a1 1 0 1 1-.256 1.983 38.264 38.264 0 0 0-3.397-.296l4.683 4.683a1 1 0 0 1-1.414 1.414c-3.993-4-6.002-6.021-6.028-6.063-1.4.101-2.612.337-3.634.706a1 1 0 0 1 .238.176l10.01 10.01a1 1 0 0 1-1.414 1.414l-10.01-10.01a.996.996 0 0 1-.292-.667l-.021-2zm15.742 14.37a1 1 0 1 1-1.87-.71c1.151-3.034 1.243-7.25.146-12.972a1 1 0 0 1 .794-1.17c.428-.082.934-.426 1.089.378l.082.416c1.16 6.055 1.06 10.627-.241 14.058zm20.51-31.171a1 1 0 1 1 .27-1.982c4.4.599 7.792.447 10.159-.423a1 1 0 1 1 .69 1.878c-2.723 1-6.424 1.166-11.119.527zM46.72 4.293l5.219 5.218a1 1 0 1 1-1.415 1.415l-5.218-5.219a1 1 0 1 1 1.414-1.414zM5.707 45.305l5.219 5.218a1 1 0 1 1-1.415 1.415l-5.218-5.219a1 1 0 0 1 1.414-1.414z" class="color-500"/></g></svg>