<svg xmlns="http://www.w3.org/2000/svg" width="56" height="56" class="wd-accent-document-ribbon wd-accent" focusable="false" role="presentation" viewBox="0 0 56 56"><g fill="none" fill-rule="nonzero" class="wd-icon-container"><path fill="#005DBA" d="M33.284 34.349a8 8 0 1 1 13.432 0L46.813 39H50V11H6v28h27.187l.097-4.651zm11.475 2.082A7.964 7.964 0 0 1 40 38a7.964 7.964 0 0 1-4.759-1.569L35 48l5-2.087L45 48l-.241-11.569zM46.855 41L47 47.958a2 2 0 0 1-2.77 1.888L40 48.08l-4.23 1.766A2 2 0 0 1 33 47.958L33.145 41H6a2 2 0 0 1-2-2V11a2 2 0 0 1 2-2h44a2 2 0 0 1 2 2v28a2 2 0 0 1-2 2h-3.145zM40 36a6 6 0 1 0 0-12 6 6 0 0 0 0 12zm0-2a4 4 0 1 1 0-8 4 4 0 0 1 0 8zm0-2a2 2 0 1 0 0-4 2 2 0 0 0 0 4zM11 14h33a1 1 0 0 1 0 2H11a1 1 0 0 1 0-2zm0 4h33a1 1 0 0 1 0 2H11a1 1 0 0 1 0-2zm0 4h18a1 1 0 0 1 0 2H11a1 1 0 0 1 0-2zm0 8h18a1 1 0 0 1 0 2H11a1 1 0 0 1 0-2zm0 4h18a1 1 0 0 1 0 2H11a1 1 0 0 1 0-2z" class="color-500"/><path fill="#FFF" d="M33.284 34.349a8 8 0 1 1 13.432 0L46.813 39H50V11H6v28h27.187l.097-4.651zm11.475 2.082A7.964 7.964 0 0 1 40 38a7.964 7.964 0 0 1-4.759-1.569L35 48l5-2.087L45 48l-.241-11.569zM40 36a6 6 0 1 0 0-12 6 6 0 0 0 0 12zm0-2a4 4 0 1 1 0-8 4 4 0 0 1 0 8zm0-2a2 2 0 1 0 0-4 2 2 0 0 0 0 4zM11 14h33a1 1 0 0 1 0 2H11a1 1 0 0 1 0-2zm0 4h33a1 1 0 0 1 0 2H11a1 1 0 0 1 0-2zm0 4h18a1 1 0 0 1 0 2H11a1 1 0 0 1 0-2zm0 8h18a1 1 0 0 1 0 2H11a1 1 0 0 1 0-2zm0 4h18a1 1 0 0 1 0 2H11a1 1 0 0 1 0-2z" class="french-vanilla-100"/></g></svg>