<svg xmlns="http://www.w3.org/2000/svg" width="56" height="56" class="wd-accent-double-diamond wd-accent" focusable="false" role="presentation" viewBox="0 0 56 56"><g fill="none" fill-rule="nonzero" class="wd-icon-container"><path fill="#005DBA" d="M18.414 15.586L28 25.172l9.586-9.586a2 2 0 0 1 2.828 0l11 11a2 2 0 0 1 0 2.828l-11 11a2 2 0 0 1-2.828 0L28 30.828l-9.586 9.586a2 2 0 0 1-2.828 0l-11-11a2 2 0 0 1 0-2.828l11-11a2 2 0 0 1 2.828 0zM18 18v20l9-9v-2l-9-9zm-2 0L6 28l10 10V18zm22 0l-9 9v2l9 9V18zm2 0v20l10-10-10-10z" class="color-500"/><path fill="#FFF" d="M18 38l9-9v-2l-9-9v20zm-2 0L6 28l10-10v20zm22-20l-9 9v2l9 9V18zm2 0l10 10-10 10V18z" class="french-vanilla-100"/></g></svg>