<svg xmlns="http://www.w3.org/2000/svg" width="56" height="56" class="wd-accent-easel-graph wd-accent" focusable="false" role="presentation" viewBox="0 0 56 56"><g fill="none" fill-rule="nonzero" class="wd-icon-container"><path fill="#005DBA" d="M12 8a2 2 0 0 1 2-2h28a2 2 0 0 1 2 2h6a2 2 0 0 1 2 2v30a2 2 0 0 1-2 2h-4.787l1.738 4.526a3 3 0 0 1-5.602 2.15L38.787 42H16.213l-2.562 6.677a3 3 0 1 1-5.602-2.15L9.787 42H6a2 2 0 0 1-2-2V10a2 2 0 0 1 2-2h6zm0 2H6v30h44V10h-6a2 2 0 0 1-2 2H14a2 2 0 0 1-2-2zm-.071 32l-2.013 5.243a1 1 0 0 0 1.867.717L14.071 42H11.93zm31.142 0H40.93l2.288 5.96a1 1 0 1 0 1.867-.717L43.07 42zM14 8v2h28V8H14zm27 9h4a2 2 0 0 1 2 2v16a2 2 0 0 1-2 2h-4a2 2 0 0 1-2-2V19a2 2 0 0 1 2-2zm0 2v16h4V19h-4zm-10 1h4a2 2 0 0 1 2 2v13a2 2 0 0 1-2 2h-4a2 2 0 0 1-2-2V22a2 2 0 0 1 2-2zm0 2v13h4V22h-4zm-10 3h4a2 2 0 0 1 2 2v8a2 2 0 0 1-2 2h-4a2 2 0 0 1-2-2v-8a2 2 0 0 1 2-2zm0 2v8h4v-8h-4zm-10 2h4a2 2 0 0 1 2 2v4a2 2 0 0 1-2 2h-4a2 2 0 0 1-2-2v-4a2 2 0 0 1 2-2zm0 2v4h4v-4h-4zm-1-16h19a1 1 0 0 1 0 2H10a1 1 0 0 1 0-2zm0 4h11a1 1 0 0 1 0 2H10a1 1 0 0 1 0-2z" class="color-500"/><path fill="#FFF" d="M12 10H6v30h44V10h-6a2 2 0 0 1-2 2H14a2 2 0 0 1-2-2zm-.071 32l-2.013 5.243a1 1 0 0 0 1.867.717L14.071 42H11.93zm31.142 0H40.93l2.288 5.96a1 1 0 1 0 1.867-.717L43.07 42zM14 8v2h28V8H14zm27 9h4a2 2 0 0 1 2 2v16a2 2 0 0 1-2 2h-4a2 2 0 0 1-2-2V19a2 2 0 0 1 2-2zm0 2v16h4V19h-4zm-10 1h4a2 2 0 0 1 2 2v13a2 2 0 0 1-2 2h-4a2 2 0 0 1-2-2V22a2 2 0 0 1 2-2zm0 2v13h4V22h-4zm-10 3h4a2 2 0 0 1 2 2v8a2 2 0 0 1-2 2h-4a2 2 0 0 1-2-2v-8a2 2 0 0 1 2-2zm0 2v8h4v-8h-4zm-10 2h4a2 2 0 0 1 2 2v4a2 2 0 0 1-2 2h-4a2 2 0 0 1-2-2v-4a2 2 0 0 1 2-2zm0 2v4h4v-4h-4zm-1-16h19a1 1 0 0 1 0 2H10a1 1 0 0 1 0-2zm0 4h11a1 1 0 0 1 0 2H10a1 1 0 0 1 0-2z" class="french-vanilla-100"/></g></svg>