<svg xmlns="http://www.w3.org/2000/svg" width="56" height="56" class="wd-accent-easel-info wd-accent" focusable="false" role="presentation" viewBox="0 0 56 56"><g fill="none" fill-rule="evenodd" class="wd-icon-container"><path fill="#005DBA" fill-rule="nonzero" d="M45.696 41.19l1.697 4.321c.594 1.512-.179 3.209-1.726 3.79-1.546.58-3.282-.176-3.875-1.688l-2.522-6.422H16.615l-2.522 6.422c-.594 1.512-2.33 2.268-3.876 1.687-1.547-.58-2.32-2.277-1.726-3.789l1.697-4.32H6c-1.105 0-2-.875-2-1.955V9.91c0-1.08.895-1.955 2-1.955h6C12 6.875 12.895 6 14 6h28c1.105 0 2 .875 2 1.955h6c1.105 0 2 .875 2 1.955v29.326c0 1.08-.895 1.955-2 1.955h-4.304zm-31.224 0H12.33l-1.972 5.022a.97.97 0 0 0 .576 1.263 1.007 1.007 0 0 0 1.292-.562l2.246-5.722zm29.082 0h-2.142l2.247 5.723c.198.504.776.755 1.292.562a.97.97 0 0 0 .575-1.263l-1.972-5.021zM12 9.91H6v29.326h44V9.91h-6c0 1.08-.895 1.955-2 1.955H14c-1.105 0-2-.875-2-1.955zm2-1.955V9.91h28V7.955H14zM21 17h24a1 1 0 0 1 0 2H21a1 1 0 0 1 0-2zm0 11h24a1 1 0 0 1 0 2H21a1 1 0 0 1 0-2zm0-8h20a1 1 0 0 1 0 2H21a1 1 0 0 1 0-2zm0 11h20a1 1 0 0 1 0 2H21a1 1 0 0 1 0-2zm-7-7a4 4 0 1 1 0-8 4 4 0 0 1 0 8zm0-2a2 2 0 1 0 0-4 2 2 0 0 0 0 4zm0 13a4 4 0 1 1 0-8 4 4 0 0 1 0 8zm0-2a2 2 0 1 0 0-4 2 2 0 0 0 0 4z" class="color-500"/><path fill="#FFF" d="M14.472 41.16l-2.246 5.71a1.008 1.008 0 0 1-1.292.56.968.968 0 0 1-.576-1.26l1.972-5.01h2.142zm29.082 0l1.972 5.01a.968.968 0 0 1-.575 1.26 1.008 1.008 0 0 1-1.292-.56l-2.247-5.71h2.142zM12 9.95c0 1.078.895 1.951 2 1.951h28c1.105 0 2-.873 2-1.95h6V39.21H6V9.95h6zM14 8h28v1.95H14V8zm7 9a1 1 0 0 0 0 2h24a1 1 0 0 0 0-2H21zm0 11a1 1 0 0 0 0 2h24a1 1 0 0 0 0-2H21zm0-8a1 1 0 0 0 0 2h20a1 1 0 0 0 0-2H21zm0 11a1 1 0 0 0 0 2h20a1 1 0 0 0 0-2H21zm-7-7a4 4 0 1 0 0-8 4 4 0 0 0 0 8zm0-2a2 2 0 1 1 0-4 2 2 0 0 1 0 4zm0 13a4 4 0 1 0 0-8 4 4 0 0 0 0 8zm0-2a2 2 0 1 1 0-4 2 2 0 0 1 0 4z" class="french-vanilla-100"/></g></svg>