<svg xmlns="http://www.w3.org/2000/svg" width="56" height="56" class="wd-accent-easel-arrow wd-accent" focusable="false" role="presentation" viewBox="0 0 56 56"><g fill="none" fill-rule="evenodd" class="wd-icon-container"><path fill="#005DBA" fill-rule="nonzero" d="M42 6a2 2 0 0 1 2 2h6a2 2 0 0 1 2 2v30a2 2 0 0 1-2 2h-4.304l1.697 4.42a3 3 0 0 1-5.601 2.15L39.27 42H16.615l-2.522 6.57a3 3 0 0 1-5.602-2.15L10.188 42H6a2 2 0 0 1-2-2V10a2 2 0 0 1 2-2h6a2 2 0 0 1 2-2h28zM14.472 42H12.33l-1.972 5.137a1 1 0 0 0 1.868.716L14.472 42zm29.082 0h-2.142l2.247 5.853a1 1 0 1 0 1.867-.716L43.554 42zM12 10H6v30h44V10h-6a2 2 0 0 1-2 2H14a2 2 0 0 1-2-2zm18.293 7.293a1 1 0 0 1 1.414 0l8 8a1 1 0 0 1 0 1.414l-8 8a1 1 0 0 1-1.414-1.414L36.586 27H16a1 1 0 0 1 0-2h20.586l-6.293-6.293a1 1 0 0 1 0-1.414zM42 8H14v2h28V8z" class="color-500"/><path fill="#FFF" d="M14.472 42l-2.246 5.853a1 1 0 1 1-1.868-.716L12.33 42h2.142zm29.082 0l1.972 5.137a1 1 0 1 1-1.867.716L41.412 42h2.142zM12 10a2 2 0 0 0 2 2h28a2 2 0 0 0 2-2h6v30H6V10h6zm24.586 17l-6.293 6.293a1 1 0 0 0 1.414 1.414l8-8a1 1 0 0 0 0-1.414l-8-8a1 1 0 0 0-1.414 1.414L36.586 25H16a1 1 0 0 0 0 2h20.586zM14 8h28v2H14V8z" class="french-vanilla-100"/></g></svg>