<svg xmlns="http://www.w3.org/2000/svg" width="56" height="56" fill="none" class="wd-accent-education-finance wd-accent" focusable="false" role="presentation" viewBox="0 0 56 56"><g class="wd-icon-container"><path fill="#fff" d="M0 0h56v56H0z"/><g fill="#0875E1" fill-rule="evenodd" class="color-500" clip-rule="evenodd"><path d="M24 14.998a4 4 0 1 0 8 0 4 4 0 0 0-8 0zm6 0a2 2 0 1 1-4 0 2 2 0 0 1 4 0z"/><path d="M46 23.997v-1h2a2 2 0 0 0 2-2v-2a2 2 0 0 0-1.036-1.752L29.928 6.775a4 4 0 0 0-3.856 0L7.036 17.245A2 2 0 0 0 6 18.997v2a2 2 0 0 0 2 2h2v1a2 2 0 0 0 2 2v12a2 2 0 0 0-2 2v1a2 2 0 0 0-2 2v2a2 2 0 0 0-2 2v2a2 2 0 0 0 2 2h40a2 2 0 0 0 2-2V47.83c-.313.11-.65.171-1 .171h-1v.998H8v-2h14.762A2.989 2.989 0 0 1 22 45v-.002H10v-2h12v-3a2 2 0 0 0-2-2v-12a2 2 0 0 0 2-2 2 2 0 0 0 2 2v4.173c.313-.11.65-.171 1-.171h1v-4.003h4V30h2v-4.003a2 2 0 0 0 2-2 2 2 0 0 0 2 2V30h2v-4.003h4V30h2v-4.003a2 2 0 0 0 2-2zm-32 14v-12h4v12h-4zm-2 3v-1h8v1h-8zm24-17v-1h8v1h-8zm-12 0v-1h8v1h-8zm-12 0v-1h8v1h-8zm16.964-15.47l15.4 8.47h-9.097c-.7 0-1.267.448-1.267 1 0 .553.567 1 1.267 1H48v2H8v-2h13a1 1 0 1 0 0-2h-9.364l15.4-8.47a2 2 0 0 1 1.928 0z"/><path d="M42 39a5 5 0 1 1-10 0 5 5 0 0 1 10 0zm-2 0a3 3 0 1 1-6 0 3 3 0 0 1 6 0z"/><path d="M22 33a3 3 0 0 1 3-3h24a3 3 0 0 1 3 3v12a3 3 0 0 1-3 3H25a3 3 0 0 1-3-3V33zm25-1h2a1 1 0 0 1 1 1v2a3 3 0 0 1-3-3zm-2 0H29a5 5 0 0 1-5 5v8a1 1 0 0 0 1 1h2a3 3 0 0 0-3-3v-2a5 5 0 0 1 5 5h16a5 5 0 0 1 5-5v-4a5 5 0 0 1-5-5zm2 14a3 3 0 0 1 3-3v2a1 1 0 0 1-1 1h-2zM27 32h-2a1 1 0 0 0-1 1v2a3 3 0 0 0 3-3z"/></g><g fill="#fff" class="french-vanilla-100"><path d="M48 48H25c-.89 0-1.689-.387-2.238-1.002H8v2h40V48zM22 44.998v-2H10v2h12zM30 30v-4.003h-4V30h4zM38 30h4v-4.003h-4V30zM14 25.997v12h4v-12h-4zM12 39.998v1h8v-1h-8zM36 22.997v1h8v-1h-8zM24 22.997v1h8v-1h-8zM12 22.997v1h8v-1h-8zM28 16.997a2 2 0 1 0 0-4 2 2 0 0 0 0 4z"/><path fill-rule="evenodd" d="M44.364 16.997l-15.4-8.47a2 2 0 0 0-1.928 0l-15.4 8.47H21a1 1 0 1 1 0 2H8v2h40v-2H35.267c-.7 0-1.267-.447-1.267-1 0-.552.567-1 1.267-1h9.097zm-16.364 2a4 4 0 1 1 0-8 4 4 0 0 1 0 8z" clip-rule="evenodd"/><path d="M50 33a1 1 0 0 0-1-1h-2a3 3 0 0 0 3 3v-2zM40 39a3 3 0 1 1-6 0 3 3 0 0 1 6 0z"/><path fill-rule="evenodd" d="M29 32h16a5 5 0 0 0 5 5v4a5 5 0 0 0-5 5H29a5 5 0 0 0-5-5v-4a5 5 0 0 0 5-5zm13 7a5 5 0 1 1-10 0 5 5 0 0 1 10 0z" clip-rule="evenodd"/><path d="M24 45v-2a3 3 0 0 1 3 3h-2a1 1 0 0 1-1-1zM50 43a3 3 0 0 0-3 3h2a1 1 0 0 0 1-1v-2zM24 33a1 1 0 0 1 1-1h2a3 3 0 0 1-3 3v-2z"/></g></g></svg>