<svg xmlns="http://www.w3.org/2000/svg" width="56" height="56" class="wd-accent-electric-plug wd-accent" focusable="false" role="presentation" viewBox="0 0 56 56"><g fill="none" fill-rule="evenodd" class="wd-icon-container"><path fill="#005DBA" fill-rule="nonzero" d="M43 10h7a2 2 0 0 1 2 2v2a2 2 0 0 1-2 2h-7v4h7a2 2 0 0 1 2 2v2a2 2 0 0 1-2 2h-7v1a2 2 0 0 1-2 2H30a7 7 0 0 1-7-7v-3h-8.832c-3.78 0-6.829 2.92-6.829 6.5s3.048 6.5 6.83 6.5h18.578c4.867 0 8.829 3.796 8.829 8.5 0 4.704-3.962 8.5-8.83 8.5H10.502v-2h22.246c3.78 0 6.829-2.92 6.829-6.5s-3.048-6.5-6.83-6.5H13.794v-.008c-4.694-.189-8.454-3.91-8.454-8.492 0-4.704 3.963-8.5 8.83-8.5H23v-3a7 7 0 0 1 7-7h11a2 2 0 0 1 2 2v1zM29 23a1 1 0 0 1 2 0v4h2v-4a1 1 0 0 1 2 0v4h2v-4a1 1 0 0 1 2 0v4h2V9h-2v4a1 1 0 0 1-2 0V9h-2v4a1 1 0 0 1-2 0V9h-2v4a1 1 0 0 1-2 0V9.1a5.002 5.002 0 0 0-4 4.9v8a5.002 5.002 0 0 0 4 4.9V23zm21-11h-7v2h7v-2zm0 10h-7v2h7v-2z" class="color-500"/><path fill="#FFF" d="M29 26.9a5.002 5.002 0 0 1-4-4.9v-8a5.002 5.002 0 0 1 4-4.9V13a1 1 0 0 0 2 0V9h2v4a1 1 0 0 0 2 0V9h2v4a1 1 0 0 0 2 0V9h2v18h-2v-4a1 1 0 0 0-2 0v4h-2v-4a1 1 0 0 0-2 0v4h-2v-4a1 1 0 0 0-2 0v3.9zM43 24h7v-2h-7v2zm0-10h7v-2h-7v2z" class="french-vanilla-100"/></g></svg>