<svg xmlns="http://www.w3.org/2000/svg" width="56" height="56" class="wd-accent-elevator wd-accent" focusable="false" role="presentation" viewBox="0 0 56 56"><g fill="none" fill-rule="nonzero" class="wd-icon-container"><path fill="#005DBA" d="M44 47h7a1 1 0 0 1 0 2H5a1 1 0 0 1 0-2h7V13h32v34zM27 15H14v32h13V15zm2 0v32h13V15H29zm19 11l3 3h-6l3-3zm0 9l-3-3h6l-3 3zM28 11a3 3 0 1 1 0-6 3 3 0 0 1 0 6zm0-2a1 1 0 1 0 0-2 1 1 0 0 0 0 2z" class="color-500"/><path fill="#FFF" d="M27 15H14v32h13V15zm2 0v32h13V15H29zm-1-6a1 1 0 1 0 0-2 1 1 0 0 0 0 2z" class="french-vanilla-100"/></g></svg>