<svg xmlns="http://www.w3.org/2000/svg" width="56" height="56" class="wd-accent-email-template wd-accent" focusable="false" role="presentation" viewBox="0 0 56 56"><g fill="none" fill-rule="nonzero" class="wd-icon-container"><path fill="#FFF" d="M12 29.794l16.002 8.445L44 29.796V6H12v23.794zM46.003 47.74V31l-15.859 8.37 15.86 8.37zM10 31v19h36L10 31z" class="french-vanilla-100"/><path fill="#005CB9" d="M8.704 29.476L10 28.324V6a2 2 0 0 1 2-2h32a2 2 0 0 1 2 2v22.324l1.257 1.117c.447.358.746.908.746 1.559v19c0 .342-.086.665-.238.947a1.932 1.932 0 0 1-1.715 1.052l-.047.001H9.953a1.932 1.932 0 0 1-1.715-1.053A1.991 1.991 0 0 1 8 50V31c0-.63.28-1.165.704-1.524zm3.296.318l16.002 8.445L44 29.796V6H12v23.794zM46.003 47.74V31l-15.859 8.37 15.86 8.37zM39 11h2a1 1 0 0 1 1 1v2a1 1 0 0 1-1 1h-2a1 1 0 0 1-1-1v-2a1 1 0 0 1 1-1zm0 6h2a1 1 0 0 1 1 1v2a1 1 0 0 1-1 1h-2a1 1 0 0 1-1-1v-2a1 1 0 0 1 1-1zm0 6h2a1 1 0 0 1 1 1v2a1 1 0 0 1-1 1h-2a1 1 0 0 1-1-1v-2a1 1 0 0 1 1-1zm-22.286 5h8.572c.394 0 .714.448.714 1s-.32 1-.714 1h-8.572c-.394 0-.714-.448-.714-1s.32-1 .714-1zm-.014-4h12.6c.387 0 .7.448.7 1s-.313 1-.7 1H16.7c-.387 0-.7-.448-.7-1s.313-1 .7-1zM10 31v19h36L10 31zM34.1 6h1.8c.055 0 .1 6.492.1 14.5S35.955 35 35.9 35h-1.8c-.055 0-.1-6.492-.1-14.5S34.045 6 34.1 6zm-17.6 5h1a.5.5 0 0 1 .5.5v1a.5.5 0 0 1-.5.5h-1a.5.5 0 0 1-.5-.5v-1a.5.5 0 0 1 .5-.5zm0 8h1a.5.5 0 0 1 .5.5v1a.5.5 0 0 1-.5.5h-1a.5.5 0 0 1-.5-.5v-1a.5.5 0 0 1 .5-.5zm4-8h1a.5.5 0 0 1 .5.5v1a.5.5 0 0 1-.5.5h-1a.5.5 0 0 1-.5-.5v-1a.5.5 0 0 1 .5-.5zm0 8h1a.5.5 0 0 1 .5.5v1a.5.5 0 0 1-.5.5h-1a.5.5 0 0 1-.5-.5v-1a.5.5 0 0 1 .5-.5zm4-8h1a.5.5 0 0 1 .5.5v1a.5.5 0 0 1-.5.5h-1a.5.5 0 0 1-.5-.5v-1a.5.5 0 0 1 .5-.5zm0 8h1a.5.5 0 0 1 .5.5v1a.5.5 0 0 1-.5.5h-1a.5.5 0 0 1-.5-.5v-1a.5.5 0 0 1 .5-.5zm4 0h1a.5.5 0 0 1 .5.5v1a.5.5 0 0 1-.5.5h-1a.5.5 0 0 1-.5-.5v-1a.5.5 0 0 1 .5-.5zm0-8h1a.5.5 0 0 1 .5.5v1a.5.5 0 0 1-.5.5h-1a.5.5 0 0 1-.5-.5v-1a.5.5 0 0 1 .5-.5zm0 4h1a.5.5 0 0 1 .5.5v1a.5.5 0 0 1-.5.5h-1a.5.5 0 0 1-.5-.5v-1a.5.5 0 0 1 .5-.5zm-12 0h1a.5.5 0 0 1 .5.5v1a.5.5 0 0 1-.5.5h-1a.5.5 0 0 1-.5-.5v-1a.5.5 0 0 1 .5-.5z" class="color-500"/></g></svg>