<svg xmlns="http://www.w3.org/2000/svg" width="56" height="56" class="wd-accent-employees wd-accent" focusable="false" role="presentation" viewBox="0 0 56 56"><g fill="none" fill-rule="evenodd" class="wd-icon-container"><path fill="#005DBA" fill-rule="nonzero" d="M33.615 25.46l3.026 4.438A10.964 10.964 0 0 1 41 29c6.075 0 11 4.925 11 11s-4.925 11-11 11c-5.392 0-9.878-3.88-10.819-9H25.82c-.94 5.12-5.427 9-10.819 9-6.075 0-11-4.925-11-11s4.925-11 11-11c1.549 0 3.023.32 4.36.898l3.025-4.437A10.995 10.995 0 0 1 17 16c0-6.075 4.925-11 11-11s11 4.925 11 11c0 4.024-2.16 7.543-5.385 9.46zm-1.827.87c-1.181.434-2.457.67-3.788.67s-2.607-.236-3.788-.67l-3.088 4.53A10.99 10.99 0 0 1 26 40h4a10.99 10.99 0 0 1 4.876-9.14l-3.088-4.53zM8 45.657V45a3 3 0 0 1 3-3h1.354A3.99 3.99 0 0 1 11 39v-2a4 4 0 1 1 8 0v2a3.99 3.99 0 0 1-1.354 3H19a3 3 0 0 1 3 3v.657a9 9 0 1 0-14 0zm26 0V45a3 3 0 0 1 3-3h1.354A3.99 3.99 0 0 1 37 39v-2a4 4 0 1 1 8 0v2a3.99 3.99 0 0 1-1.354 3H45a3 3 0 0 1 3 3v.657a9 9 0 1 0-14 0zm-13-24V21a3 3 0 0 1 3-3h1.354A3.99 3.99 0 0 1 24 15v-2a4 4 0 1 1 8 0v2a3.99 3.99 0 0 1-1.354 3H32a3 3 0 0 1 3 3v.657a9 9 0 1 0-14 0zM28 11a2 2 0 0 0-2 2v2a2 2 0 1 0 4 0v-2a2 2 0 0 0-2-2zm5 10a1 1 0 0 0-1-1h-8a1 1 0 0 0-1 1v2.485A8.951 8.951 0 0 0 28 25a8.951 8.951 0 0 0 5-1.515V21zm8 14a2 2 0 0 0-2 2v2a2 2 0 1 0 4 0v-2a2 2 0 0 0-2-2zm5 10a1 1 0 0 0-1-1h-8a1 1 0 0 0-1 1v2.485A8.951 8.951 0 0 0 41 49a8.951 8.951 0 0 0 5-1.515V45zM15 35a2 2 0 0 0-2 2v2a2 2 0 1 0 4 0v-2a2 2 0 0 0-2-2zm5 10a1 1 0 0 0-1-1h-8a1 1 0 0 0-1 1v2.485A8.951 8.951 0 0 0 15 49a8.951 8.951 0 0 0 5-1.515V45z" class="color-500"/><path fill="#FFF" d="M21 21.657a9 9 0 1 1 14 0V21a3 3 0 0 0-3-3h-1.354A3.99 3.99 0 0 0 32 15v-2a4 4 0 1 0-8 0v2a3.99 3.99 0 0 0 1.354 3H24a3 3 0 0 0-3 3v.657zM33 21v2.485A8.951 8.951 0 0 1 28 25a8.951 8.951 0 0 1-5-1.515V21a1 1 0 0 1 1-1h8a1 1 0 0 1 1 1zm-5-10a2 2 0 0 1 2 2v2a2 2 0 1 1-4 0v-2a2 2 0 0 1 2-2zm17 33a1 1 0 0 1 1 1v2.485A8.951 8.951 0 0 1 41 49a8.951 8.951 0 0 1-5-1.515V45a1 1 0 0 1 1-1h8zm-4-13a9 9 0 0 1 7 14.657V45a3 3 0 0 0-3-3h-1.354A3.99 3.99 0 0 0 45 39v-2a4 4 0 1 0-8 0v2a3.99 3.99 0 0 0 1.354 3H37a3 3 0 0 0-3 3v.657A9 9 0 0 1 41 31zm0 4a2 2 0 0 1 2 2v2a2 2 0 1 1-4 0v-2a2 2 0 0 1 2-2zm-22 9a1 1 0 0 1 1 1v2.485A8.951 8.951 0 0 1 15 49a8.951 8.951 0 0 1-5-1.515V45a1 1 0 0 1 1-1h8zm-4-13a9 9 0 0 1 7 14.657V45a3 3 0 0 0-3-3h-1.354A3.99 3.99 0 0 0 19 39v-2a4 4 0 1 0-8 0v2a3.99 3.99 0 0 0 1.354 3H11a3 3 0 0 0-3 3v.657A9 9 0 0 1 15 31zm0 4a2 2 0 0 1 2 2v2a2 2 0 1 1-4 0v-2a2 2 0 0 1 2-2z" class="french-vanilla-100"/></g></svg>