<svg xmlns="http://www.w3.org/2000/svg" width="56" height="56" class="wd-accent-escalator wd-accent" focusable="false" role="presentation" viewBox="0 0 56 56"><g fill="none" fill-rule="nonzero" class="wd-icon-container"><path fill="#005DBA" d="M36 33a1 1 0 0 1 0-2h5a1 1 0 0 1 1 1v5a1 1 0 0 1-2 0v-2.586l-9.293 9.293a1 1 0 0 1-1.414-1.414L38.586 33H36zm1.414-23.243A6 6 0 0 1 41.657 8H46a6 6 0 0 1 6 6v3a6 6 0 0 1-6 6h-5.172L18.586 45.243A6 6 0 0 1 14.343 47H10a6 6 0 0 1-6-6v-3a6 6 0 0 1 6-6h4.343a2 2 0 0 0 1.414-.586l3.25-3.25A2.027 2.027 0 0 1 19 28V18a4.002 4.002 0 0 1 2.675-3.775A3.981 3.981 0 0 1 21 12v-1a4 4 0 1 1 8 0v1c0 .823-.249 1.589-.675 2.225a4.012 4.012 0 0 1 2.373 2.248l6.716-6.716zM29 18.172V18a2 2 0 0 0-2-2h-4a2 2 0 0 0-2 2v8.172l8-8zM25 9a2 2 0 0 0-2 2v1a2 2 0 1 0 4 0v-1a2 2 0 0 0-2-2zM10 34a4 4 0 0 0-4 4v3a4 4 0 0 0 4 4h4.343a4 4 0 0 0 2.829-1.172l22.242-22.242A2 2 0 0 1 40.828 21H46a4 4 0 0 0 4-4v-3a4 4 0 0 0-4-4h-4.343a4 4 0 0 0-2.829 1.172L17.172 32.828A4 4 0 0 1 14.343 34H10z" class="color-500"/><path fill="#FFF" d="M29 18.172V18a2 2 0 0 0-2-2h-4a2 2 0 0 0-2 2v8.172l8-8zM25 9a2 2 0 0 0-2 2v1a2 2 0 1 0 4 0v-1a2 2 0 0 0-2-2zM10 34a4 4 0 0 0-4 4v3a4 4 0 0 0 4 4h4.343a4 4 0 0 0 2.829-1.172l22.242-22.242A2 2 0 0 1 40.828 21H46a4 4 0 0 0 4-4v-3a4 4 0 0 0-4-4h-4.343a4 4 0 0 0-2.829 1.172L17.172 32.828A4 4 0 0 1 14.343 34H10z" class="french-vanilla-100"/></g></svg>