<svg xmlns="http://www.w3.org/2000/svg" width="56" height="56" class="wd-accent-exclamation-circle wd-accent" focusable="false" role="presentation" viewBox="0 0 56 56"><g fill="none" fill-rule="evenodd" class="wd-icon-container"><path fill="#005DBA" d="M28 4c13.255 0 24 10.745 24 24S41.255 52 28 52 4 41.255 4 28 14.745 4 28 4zm0 2C15.85 6 6 15.85 6 28s9.85 22 22 22 22-9.85 22-22S40.15 6 28 6zm.495 30c.279 0 .505.216.505.495v2.01a.493.493 0 0 1-.505.495h-.99a.496.496 0 0 1-.505-.495v-2.01c0-.273.214-.495.505-.495h.99zm0-19c.279 0 .505.226.505.496v15.008a.493.493 0 0 1-.505.496h-.99a.503.503 0 0 1-.505-.496V17.496c0-.274.214-.496.505-.496h.99z" class="color-500"/><path fill="#FFF" d="M28 50C15.85 50 6 40.15 6 28S15.85 6 28 6s22 9.85 22 22-9.85 22-22 22zm-1-13.505v2.01c0 .28.226.495.505.495h.99c.291 0 .505-.222.505-.495v-2.01a.496.496 0 0 0-.505-.495h-.99a.493.493 0 0 0-.505.495zm0-18.999v15.008c0 .27.226.496.505.496h.99c.291 0 .505-.222.505-.496V17.496a.503.503 0 0 0-.505-.496h-.99a.493.493 0 0 0-.505.496z" class="french-vanilla-100"/></g></svg>