<svg xmlns="http://www.w3.org/2000/svg" width="56" height="56" class="wd-accent-expo wd-accent" focusable="false" role="presentation" viewBox="0 0 56 56"><g fill="none" fill-rule="nonzero" class="wd-icon-container"><path fill="#005DBA" d="M23 35.772c-.537.188-1.048.41-1.532.666a1 1 0 0 1-.936-1.768C22.643 33.554 25.136 33 28 33s5.357.554 7.468 1.67a1 1 0 1 1-.936 1.768A11.133 11.133 0 0 0 33 35.772V44h5V29.5c-2.798-1-6.13-1.5-10-1.5s-7.202.5-10 1.5V44h5v-8.228zM31 44v-8.748A17 17 0 0 0 28 35a17 17 0 0 0-3 .252V44h6zm-4-27.991V8.5a1 1 0 0 1 .578-.907 1.994 1.994 0 0 1 2.034-.497l7 2.25c1.883.605 1.839 3.284-.063 3.827l-7 2a2.01 2.01 0 0 1-.549.078v.758c6.449.114 12.08 1.34 16.88 3.695A2 2 0 0 1 47 21.5v2.465c.6.218 1.19.447 1.77.69A2 2 0 0 1 50 26.5V42h1a1 1 0 0 1 0 2H40a2 2 0 0 1-2 2H18a2 2 0 0 1-2-2H5a1 1 0 0 1 0-2h1V26.5a2 2 0 0 1 1.23-1.846c.58-.242 1.17-.471 1.77-.689V21.5a2 2 0 0 1 1.12-1.796C14.92 17.35 20.55 16.123 27 16.01zm13 20.303c2.87.163 5.536.39 8 .681V32c-.076 0-.154-.009-.232-.027-2.387-.57-4.977-1.015-7.768-1.338v5.677zm-24-5.677c-2.791.323-5.38.769-7.768 1.338A1.003 1.003 0 0 1 8 32v4.993c2.464-.29 5.13-.518 8-.68v-5.678zM40 42h8v-3a1.01 1.01 0 0 1-.118-.007c-2.423-.289-5.05-.514-7.882-.677V42zm-24 0v-3.684c-2.832.163-5.46.388-7.882.677A1.01 1.01 0 0 1 8 39v3h8zm1.327-14.383C20.357 26.534 23.915 26 28 26s7.643.534 10.673 1.617a2 2 0 0 1 1.112.98c2.948.326 5.686.784 8.215 1.376V26.5C42.405 24.167 35.738 23 28 23c-7.738 0-14.405 1.167-20 3.5v3.473c2.529-.592 5.267-1.05 8.215-1.375a2 2 0 0 1 1.112-.981zM45 23.297V21.5C40.244 19.167 34.577 18 28 18s-12.244 1.167-17 3.5v1.797C15.996 21.763 21.664 21 28 21s12.004.763 17 2.297zM29 9v4.25l7-2L29 9z" class="color-500"/><path fill="#FFF" d="M23 35.772c-.537.188-1.048.41-1.532.666a1 1 0 0 1-.936-1.768C22.643 33.554 25.136 33 28 33s5.357.554 7.468 1.67a1 1 0 1 1-.936 1.768A11.133 11.133 0 0 0 33 35.772V44h5V29.5c-2.798-1-6.13-1.5-10-1.5s-7.202.5-10 1.5V44h5v-8.228zM31 44v-8.748A17 17 0 0 0 28 35a17 17 0 0 0-3 .252V44h6zm9-7.688c2.87.163 5.536.39 8 .681V32c-.076 0-.154-.009-.232-.027-2.387-.57-4.977-1.015-7.768-1.338v5.677zm-24-5.677c-2.791.323-5.38.769-7.768 1.338A1.003 1.003 0 0 1 8 32v4.993c2.464-.29 5.13-.518 8-.68v-5.678zM40 42h8v-3a1.01 1.01 0 0 1-.118-.007c-2.423-.289-5.05-.514-7.882-.677V42zm-24 0v-3.684c-2.832.163-5.46.388-7.882.677A1.01 1.01 0 0 1 8 39v3h8zm1.327-14.383C20.357 26.534 23.915 26 28 26s7.643.534 10.673 1.617a2 2 0 0 1 1.112.98c2.948.326 5.686.784 8.215 1.376V26.5C42.405 24.167 35.738 23 28 23c-7.738 0-14.405 1.167-20 3.5v3.473c2.529-.592 5.267-1.05 8.215-1.375a2 2 0 0 1 1.112-.981zM45 23.297V21.5C40.244 19.167 34.577 18 28 18s-12.244 1.167-17 3.5v1.797C15.996 21.763 21.664 21 28 21s12.004.763 17 2.297zM29 9v4.25l7-2L29 9z" class="french-vanilla-100"/></g></svg>