<svg xmlns="http://www.w3.org/2000/svg" width="56" height="56" class="wd-accent-face-id wd-accent" focusable="false" role="presentation" viewBox="0 0 56 56"><g fill="none" fill-rule="evenodd" class="wd-icon-container"><path fill="#005DBA" d="M18.993 21.867L19 22v4c0 1.333-2 1.333-2 0v-4c0-1.287 1.864-1.332 1.993-.133zm20 0L39 22v4c0 1.333-2 1.333-2 0v-4c0-1.287 1.864-1.332 1.993-.133zM19.469 39.31a1 1 0 1 1 1.313-1.509A10.952 10.952 0 0 0 28 40.5c2.702 0 5.25-.977 7.242-2.72a1 1 0 1 1 1.317 1.505A12.952 12.952 0 0 1 28 42.5a12.951 12.951 0 0 1-8.53-3.19zM39 6a1 1 0 0 1 0-2h5a8 8 0 0 1 8 8v5a1 1 0 0 1-2 0v-5a6 6 0 0 0-6-6h-5zm11 33a1 1 0 0 1 2 0v5a8 8 0 0 1-8 8h-5a1 1 0 0 1 0-2h5a6 6 0 0 0 6-6v-5zM17 50a1 1 0 0 1 0 2h-5a8 8 0 0 1-8-8v-5a1 1 0 0 1 2 0v5a6 6 0 0 0 6 6h5zM6 17a1 1 0 0 1-2 0v-5a8 8 0 0 1 8-8h5a1 1 0 0 1 0 2h-5a6 6 0 0 0-6 6v5zm22 5a1 1 0 0 1 2 0v9.103C30 32.773 28.305 34 26 34a1 1 0 0 1 0-2c1.314 0 2-.497 2-.897V22z" class="color-500"/></g></svg>