<svg xmlns="http://www.w3.org/2000/svg" width="56" height="56" class="wd-accent-financial-aid wd-accent" focusable="false" role="presentation" viewBox="0 0 56 56"><g fill="none" fill-rule="evenodd" class="wd-icon-container"><path fill="#005DBA" fill-rule="nonzero" d="M35 4a2 2 0 0 1 2 2v13h13a2 2 0 0 1 2 2v14a2 2 0 0 1-2 2h-4.436l-1.347 5.403a3 3 0 0 1-3.637 2.185L37 43.695V50a2 2 0 0 1-2 2H21a2 2 0 0 1-2-2V39.207l-6.559-1.635A2.989 2.989 0 0 1 11.287 37H6a2 2 0 0 1-2-2V21a2 2 0 0 1 2-2h9.874l1.331-2.854A2.992 2.992 0 0 1 19 14.559V6a2 2 0 0 1 2-2zM21 39.706V50h14v-6.803l-14-3.49zm21.941-.455c-2.076-.518-4.166.691-4.667 2.7l2.79.696a1 1 0 0 0 1.212-.728zM21.284 22.257c-.772 3.095-3.957 4.939-7.091 4.157l-.832 3.336.06.015c3.077.767 4.916 3.916 4.174 7.03l18.739 4.673c.772-3.096 3.957-4.94 7.091-4.158l.832-3.335-.06-.015c-3.077-.767-4.916-3.917-4.174-7.031zm1.825 8.184c.771-3.096 3.957-4.94 7.091-4.158 3.134.782 5.081 3.905 4.31 7-.772 3.096-3.958 4.94-7.092 4.159-3.134-.782-5.081-3.905-4.31-7.001zm-10.171 1.265l-.696 2.79a1 1 0 0 0 .729 1.211l2.668.666c.518-2.077-.691-4.166-2.701-4.667zm16.778-3.482c-2.076-.518-4.166.691-4.667 2.7-.5 2.01.776 4.06 2.853 4.577 2.076.518 4.166-.692 4.667-2.701.5-2.01-.776-4.059-2.853-4.576zM13.501 21H6v14h4.094c.06-.512.117-.882.162-1.064l3.145-12.614c.028-.11.061-.218.1-.322zM50 21H38.653l6.7 4.351c.602.39 1.016.96 1.22 1.592a2.998 2.998 0 0 1 .789 2.846L46.062 35H50V21zm-8.021 6.352c-.518 2.076.691 4.166 2.701 4.667l.696-2.79a1 1 0 0 0-.729-1.212zm-25.425-6.275a1 1 0 0 0-1.212.729l-.665 2.668c2.076.518 4.166-.692 4.667-2.701zm8.224-2.504a5.865 5.865 0 0 1-1.628 2.087l13.118 3.271zm3.656-1.824a4.905 4.905 0 0 1-.802.948l8.028 3.744zm-8.087-.242a1 1 0 0 0-1.329.484l-1.103 2.364 2.226.555a3.884 3.884 0 0 0 2.824-2.182zM35 6H21v8.618c.085.03.17.066.254.105l.66-1.016a3 3 0 0 1 4.15-.882L35 18.628V6zm-10.025 8.502a1 1 0 0 0-1.383.294l-.508.78 2.446 1.141c.488-.224.917-.58 1.227-1.058z" class="color-500"/><path fill="#FFF" d="M21 39.706l14 3.49V50H21V39.706zm21.941-.455l-.665 2.668a1 1 0 0 1-1.212.728l-2.79-.695c.501-2.01 2.59-3.219 4.667-2.701zM21.284 22.257l18.74 4.672c-.743 3.114 1.096 6.264 4.172 7.03l.06.016-.83 3.335c-3.135-.781-6.32 1.062-7.092 4.158l-18.74-4.672c.743-3.115-1.096-6.264-4.172-7.031l-.06-.015.83-3.336c3.135.782 6.32-1.062 7.092-4.157zm1.825 8.184c-.772 3.096 1.175 6.219 4.309 7 3.134.782 6.32-1.062 7.092-4.157.771-3.096-1.176-6.22-4.31-7-3.134-.782-6.32 1.061-7.091 4.157zm-10.171 1.265c2.01.5 3.219 2.59 2.701 4.667l-2.668-.666a1 1 0 0 1-.729-1.212l.696-2.79zm16.778-3.482c2.077.517 3.354 2.566 2.853 4.576-.501 2.01-2.59 3.219-4.667 2.7-2.077-.517-3.354-2.566-2.853-4.575.501-2.01 2.59-3.219 4.667-2.701zM13.501 21a3.033 3.033 0 0 0-.1.322l-3.145 12.614c-.045.182-.101.552-.162 1.064H6V21h7.5zM50 21v14h-3.938l1.3-5.211a2.998 2.998 0 0 0-.788-2.846 2.988 2.988 0 0 0-1.22-1.592L38.654 21H50zm-8.021 6.352l2.668.665a1 1 0 0 1 .729 1.212l-.696 2.79c-2.01-.501-3.219-2.59-2.701-4.667zm-25.425-6.275l2.79.696c-.501 2.01-2.59 3.219-4.667 2.7l.665-2.667a1 1 0 0 1 1.212-.729zm8.224-2.504l11.49 5.358-13.118-3.27a5.865 5.865 0 0 0 1.628-2.088zm3.656-1.824l7.226 4.692-8.028-3.744c.3-.274.57-.591.802-.948zm-8.087-.242l2.618 1.221a3.884 3.884 0 0 1-2.824 2.182l-2.226-.555 1.103-2.364a1 1 0 0 1 1.329-.484zM35 6v12.628l-8.936-5.803a3 3 0 0 0-4.15.882l-.66 1.016a3.277 3.277 0 0 0-.254-.105V6h14zm-10.025 8.502l1.782 1.157c-.31.478-.739.834-1.227 1.058l-2.446-1.14.508-.781a1 1 0 0 1 1.383-.294z" class="french-vanilla-100"/></g></svg>