<svg xmlns="http://www.w3.org/2000/svg" width="56" height="56" class="wd-accent-financial-paper wd-accent" focusable="false" role="presentation" viewBox="0 0 56 56"><g fill="none" fill-rule="nonzero" class="wd-icon-container"><path fill="#005DBA" d="M37.125 36.759c.886.198 1.854.326 2.875.363v-2c-1-.04-1.965-.17-2.875-.38v2.017zm-2-.622v-2.023c-1.162-.471-2.178-1.09-2.985-1.822l.006 1.103c.163 1.045 1.281 2.042 2.98 2.742zm6.875.94a14.914 14.914 0 0 0 3-.545V34.51c-.937.282-1.945.475-3 .566v2.003zm5-1.354c1.202-.654 1.972-1.475 2.105-2.328l.005-1.103A9.47 9.47 0 0 1 47 33.718v2.005zM33 23.29c1.925-1.343 4.645-2.158 7.625-2.158 5.73 0 10.5 3.013 10.5 7h.005l-.026 5.338-.007.12c-.205 1.639-1.472 3.03-3.374 4.01.89 1.024 1.402 2.226 1.402 3.532h.005l-.026 5.338-.007.12c-.408 3.261-5.02 5.542-10.472 5.542s-10.063-2.281-10.471-5.542l-.008-.12-.018-3.755c-.983-.768-1.654-1.687-1.9-2.716H7a2 2 0 0 1-2-2V6a2 2 0 0 1 2-2h24a2 2 0 0 1 2 2v17.291zm-2 2.005V6H7v32h19.139l-.01-2H25a2 2 0 0 1-2-2V20a2 2 0 0 1 2-2h2a2 2 0 0 1 2 2v9.291c.35-.243.724-.47 1.123-.677l-.003-.48h.005c0-1.022.313-1.98.875-2.838zM45.109 38.58c-.16.041-.32.08-.483.118A9.904 9.904 0 0 1 43 39.718v2.005c1.202-.654 1.972-1.475 2.105-2.328l.004-.814zm-14.975-7.642c-1.258.883-2.009 2.01-2.009 3.194 0 2.64 3.737 5 8.5 5 .637 0 1.255-.042 1.848-.121-4.468-.512-7.966-2.6-8.32-5.421l-.007-.12-.012-2.532zm2.991 11.82c.886.198 1.854.326 2.875.363v-2c-1-.04-1.965-.17-2.875-.38v2.017zm-2-.622v-2.023c-1.162-.471-2.178-1.09-2.985-1.822l.006 1.103c.163 1.045 1.281 2.042 2.98 2.742zm6.875.94a14.914 14.914 0 0 0 3-.545V40.51c-.937.282-1.945.475-3 .566v2.003zM27 31.297V20h-2v14h1.127c.026-.971.336-1.883.873-2.704zm5.775 13.436c1.514.858 3.564 1.401 5.85 1.401 4.764 0 8.5-2.36 8.5-5 0-.316-.053-.628-.156-.933-.87 2.933-5.238 4.933-10.344 4.933-1.352 0-2.652-.14-3.85-.4zm2.35 5.027c.886.198 1.854.326 2.875.363v-2c-1-.04-1.965-.17-2.875-.38v2.017zm-2-.622v-2.023c-1.162-.471-2.178-1.09-2.985-1.822l.006 1.103c.163 1.045 1.281 2.042 2.98 2.742zm6.875.94a14.914 14.914 0 0 0 3-.545V47.51c-.937.282-1.945.475-3 .566v2.003zm5-1.354c1.202-.654 1.972-1.475 2.105-2.328l.005-1.103A9.47 9.47 0 0 1 45 46.718v2.005zM18 24h2a2 2 0 0 1 2 2v8a2 2 0 0 1-2 2h-2a2 2 0 0 1-2-2v-8a2 2 0 0 1 2-2zm0 2v8h2v-8h-2zm-7 0h2a2 2 0 0 1 2 2v6a2 2 0 0 1-2 2h-2a2 2 0 0 1-2-2v-6a2 2 0 0 1 2-2zm0 2v6h2v-6h-2zm29.625 5.133c4.764 0 8.5-2.36 8.5-5s-3.736-5-8.5-5c-4.763 0-8.5 2.36-8.5 5s3.737 5 8.5 5zm0-1c-3.516 0-6.5-1.627-6.5-4 0-2.372 2.984-4 6.5-4 3.517 0 6.5 1.628 6.5 4 0 2.373-2.983 4-6.5 4zm0-2c2.559 0 4.5-1.059 4.5-2 0-.94-1.941-2-4.5-2-2.558 0-4.5 1.06-4.5 2 0 .941 1.942 2 4.5 2zM10 8h15a1 1 0 0 1 0 2H10a1 1 0 1 1 0-2zm0 4h18a1 1 0 0 1 0 2H10a1 1 0 0 1 0-2zm0 4h8a1 1 0 0 1 0 2h-8a1 1 0 0 1 0-2zm0 4h5a1 1 0 0 1 0 2h-5a1 1 0 0 1 0-2z" class="color-500"/><path fill="#FFF" d="M37.125 36.759c.886.198 1.854.326 2.875.363v-2c-1-.04-1.965-.17-2.875-.38v2.017zm-2-.622v-2.023c-1.162-.471-2.178-1.09-2.985-1.822l.006 1.103c.163 1.045 1.281 2.042 2.98 2.742zm6.875.94a14.914 14.914 0 0 0 3-.545V34.51c-.937.282-1.945.475-3 .566v2.003zm5-1.354c1.202-.654 1.972-1.475 2.105-2.328l.005-1.103A9.47 9.47 0 0 1 47 33.718v2.005zM31 25.296V6H7v32h19.139l-.01-2H25a2 2 0 0 1-2-2V20a2 2 0 0 1 2-2h2a2 2 0 0 1 2 2v9.291c.35-.243.724-.47 1.123-.677l-.003-.48h.005c0-1.022.313-1.98.875-2.838zM45.109 38.58c-.16.041-.32.08-.483.118A9.904 9.904 0 0 1 43 39.718v2.005c1.202-.654 1.972-1.475 2.105-2.328l.004-.814zm-14.975-7.642c-1.258.883-2.009 2.01-2.009 3.194 0 2.64 3.737 5 8.5 5 .637 0 1.255-.042 1.848-.121-4.468-.512-7.966-2.6-8.32-5.421l-.007-.12-.012-2.532zm2.991 11.82c.886.198 1.854.326 2.875.363v-2c-1-.04-1.965-.17-2.875-.38v2.017zm-2-.622v-2.023c-1.162-.471-2.178-1.09-2.985-1.822l.006 1.103c.163 1.045 1.281 2.042 2.98 2.742zm6.875.94a14.914 14.914 0 0 0 3-.545V40.51c-.937.282-1.945.475-3 .566v2.003zM27 31.297V20h-2v14h1.127c.026-.971.336-1.883.873-2.704zm5.775 13.436c1.514.858 3.564 1.401 5.85 1.401 4.764 0 8.5-2.36 8.5-5 0-.316-.053-.628-.156-.933-.87 2.933-5.238 4.933-10.344 4.933-1.352 0-2.652-.14-3.85-.4zm2.35 5.027c.886.198 1.854.326 2.875.363v-2c-1-.04-1.965-.17-2.875-.38v2.017zm-2-.622v-2.023c-1.162-.471-2.178-1.09-2.985-1.822l.006 1.103c.163 1.045 1.281 2.042 2.98 2.742zm6.875.94a14.914 14.914 0 0 0 3-.545V47.51c-.937.282-1.945.475-3 .566v2.003zm5-1.354c1.202-.654 1.972-1.475 2.105-2.328l.005-1.103A9.47 9.47 0 0 1 45 46.718v2.005zM18 24h2a2 2 0 0 1 2 2v8a2 2 0 0 1-2 2h-2a2 2 0 0 1-2-2v-8a2 2 0 0 1 2-2zm0 2v8h2v-8h-2zm-7 0h2a2 2 0 0 1 2 2v6a2 2 0 0 1-2 2h-2a2 2 0 0 1-2-2v-6a2 2 0 0 1 2-2zm0 2v6h2v-6h-2zm29.625 5.133c4.764 0 8.5-2.36 8.5-5s-3.736-5-8.5-5c-4.763 0-8.5 2.36-8.5 5s3.737 5 8.5 5zm0-1c-3.516 0-6.5-1.627-6.5-4 0-2.372 2.984-4 6.5-4 3.517 0 6.5 1.628 6.5 4 0 2.373-2.983 4-6.5 4zm0-2c2.559 0 4.5-1.059 4.5-2 0-.94-1.941-2-4.5-2-2.558 0-4.5 1.06-4.5 2 0 .941 1.942 2 4.5 2zM10 8h15a1 1 0 0 1 0 2H10a1 1 0 1 1 0-2zm0 4h18a1 1 0 0 1 0 2H10a1 1 0 0 1 0-2zm0 4h8a1 1 0 0 1 0 2h-8a1 1 0 0 1 0-2zm0 4h5a1 1 0 0 1 0 2h-5a1 1 0 0 1 0-2z" class="french-vanilla-100"/></g></svg>