<svg xmlns="http://www.w3.org/2000/svg" width="56" height="56" class="wd-accent-fingerprint-android wd-accent" focusable="false" role="presentation" viewBox="0 0 56 56"><g fill="none" fill-rule="evenodd" class="wd-icon-container"><path fill="#005DBA" d="M12.705 44.73a1 1 0 0 1-1.885.67C9.607 41.99 9 38.523 9 35c0-10.493 8.507-19 19-19s19 8.507 19 19a7 7 0 0 1-14 0 5 5 0 0 0-10 0c0 6.536 3.72 12.403 9.476 15.249a1 1 0 0 1-.886 1.793A18.998 18.998 0 0 1 21 35a7 7 0 0 1 14 0 5 5 0 0 0 10 0c0-9.389-7.611-17-17-17s-17 7.611-17 17c0 3.293.568 6.534 1.705 9.73zm9.375 4.69a1 1 0 0 1-1.557 1.254A24.895 24.895 0 0 1 15 35c0-7.18 5.82-13 13-13s13 5.82 13 13a1 1 0 0 1-2 0c0-6.075-4.925-11-11-11s-11 4.925-11 11a22.896 22.896 0 0 0 5.08 14.42zM8.84 22.547a1 1 0 0 1-1.68-1.084A24.976 24.976 0 0 1 28.182 10a24.977 24.977 0 0 1 21.082 11.558 1 1 0 0 1-1.685 1.077A22.978 22.978 0 0 0 28.182 12 22.977 22.977 0 0 0 8.84 22.548zM16.4 8.414a1 1 0 1 1-.8-1.833A30.897 30.897 0 0 1 28.003 4c4.356 0 8.587.9 12.488 2.619a1 1 0 0 1-.806 1.83A28.895 28.895 0 0 0 28.003 6c-4.047 0-7.976.829-11.603 2.414zm25.966 37.331a1 1 0 0 1 .428 1.954c-.911.2-1.846.301-2.794.301-7.18 0-13-5.82-13-13a1 1 0 0 1 2 0c0 6.075 4.925 11 11 11 .803 0 1.595-.086 2.366-.255z" class="color-500"/></g></svg>