<svg xmlns="http://www.w3.org/2000/svg" width="56" height="56" class="wd-accent-flag-triangle wd-accent" focusable="false" role="presentation" viewBox="0 0 56 56"><g fill="none" fill-rule="nonzero" class="wd-icon-container"><path fill="#005DBA" d="M13 33.483V14.132l-2-.57v20.49l2-.569zm2-.569l32-9.106L15 14.7v18.213zM11 9v2.562c.18 0 .364.025.547.077l36 10.245c1.937.551 1.937 3.296 0 3.847l-36 10.245a2.011 2.011 0 0 1-.547.078V49a1 1 0 0 1-2 0V9c0-.086.01-.17.031-.25a2 2 0 1 1 1.938 0c.02.08.031.164.031.25z" class="color-500"/><path fill="#FFF" d="M13 33.483V14.132l-2-.57v20.49l2-.569zm2-.569l32-9.106L15 14.7v18.213z" class="french-vanilla-100"/></g></svg>