<svg xmlns="http://www.w3.org/2000/svg" width="56" height="56" class="wd-accent-flag-flat wd-accent" focusable="false" role="presentation" viewBox="0 0 56 56"><g fill="none" fill-rule="nonzero" class="wd-icon-container"><path fill="#005DBA" d="M13 34V14h-2v20h2zm2 0h30V14H15v20zM8 7a2 2 0 1 1 2.969 1.75c.02.08.031.164.031.25v3h36v24H11v13a1 1 0 0 1-2 0V9c0-.086.01-.17.031-.25A2 2 0 0 1 8 7z" class="color-500"/><path fill="#FFF" d="M13 34V14h-2v20h2zm2 0h30V14H15v20z" class="french-vanilla-100"/></g></svg>