<svg xmlns="http://www.w3.org/2000/svg" width="56" height="56" class="wd-accent-flag-wave wd-accent" focusable="false" role="presentation" viewBox="0 0 56 56"><g fill="none" fill-rule="nonzero" class="wd-icon-container"><path fill="#005DBA" d="M13 13.213c-.66.093-1.326.217-2 .37v19.183c.674-.139 1.34-.248 2-.327V13.213zm14.988 23.432c5.034 3.88 10.696 4.99 16.988 3.328V21.299c-6.292 1.178-11.954-.173-16.988-4.053-3.943-3.04-8.273-4.447-12.988-4.223V32.29c4.715-.135 9.045 1.317 12.988 4.356zM8 7a2 2 0 1 1 2.969 1.75c.02.08.031.164.031.25v2.536c6.697-1.413 12.82-.029 18.21 4.126 4.58 3.531 9.665 4.744 15.398 3.672l2.368-.444v22.623l-1.49.394c-6.887 1.819-13.19.584-18.719-3.677-4.571-3.524-9.64-4.682-15.364-3.505l-.403.082V49a1 1 0 0 1-2 0V9c0-.086.01-.17.031-.25A2 2 0 0 1 8 7z" class="color-500"/><path fill="#FFF" d="M13 13.213c-.66.093-1.326.217-2 .37v19.183c.674-.139 1.34-.248 2-.327V13.213zm14.988 23.432c5.034 3.88 10.696 4.99 16.988 3.328V21.299c-6.292 1.178-11.954-.173-16.988-4.053-3.943-3.04-8.273-4.447-12.988-4.223V32.29c4.715-.135 9.045 1.317 12.988 4.356z" class="french-vanilla-100"/></g></svg>