<svg xmlns="http://www.w3.org/2000/svg" width="56" height="56" class="wd-accent-fun wd-accent" focusable="false" role="presentation" viewBox="0 0 56 56"><g fill="none" fill-rule="nonzero" class="wd-icon-container"><path fill="#005DBA" d="M19.293 24.859a7.97 7.97 0 0 1-.701 2.377c-.227.131-.435.29-.622.477-1.953 1.953-.845 6.227 2.475 9.546 3.32 3.32 7.593 4.428 9.546 2.475.493-.493.79-1.134.907-1.87a9.941 9.941 0 0 1 2.066-.533c-.04 1.466-.536 2.794-1.559 3.817-.58.58-1.257.99-2.002 1.244-4.244 1.655-10.8 4.2-19.67 7.634-1.65.644-3.26-1.016-2.568-2.645 3.65-8.55 6.393-14.984 8.229-19.303a5.143 5.143 0 0 1 1.162-1.779c.765-.765 1.7-1.235 2.737-1.44zm5.096 17.3c-1.848-.649-3.724-1.85-5.358-3.486-1.724-1.723-2.966-3.715-3.587-5.658L9.006 48.163l15.383-6.003zm-.808-27.114a1 1 0 0 1 1.849-.764c2.16 5.226 1.074 10.296-3.18 15.049a1 1 0 1 1-1.49-1.334c3.761-4.203 4.675-8.467 2.821-12.95zm.615 19.34a1 1 0 0 1-1.38-1.447c7.238-6.91 11.825-12.807 13.761-17.648 1.203-3.005.807-5.2-.652-6.425-1.185-.995-2.912-1.128-3.795-.422-.839.671-1.1 1.37-.956 2.085.112.564.499 1.1.779 1.24a1 1 0 0 1-.894 1.788c-2.169-1.084-2.858-4.531-.178-6.675 1.673-1.338 4.453-1.124 6.33.453 2.166 1.82 2.728 4.937 1.223 8.7-2.063 5.158-6.81 11.261-14.238 18.351zm3.877 2.1a1 1 0 0 1-1.136-1.645c4.845-3.345 8.952-5.398 12.35-6.154 3.409-.757 5.88.067 7.112 2.53a1 1 0 1 1-1.789.894c-.769-1.538-2.297-2.047-4.889-1.471-3.104.69-6.997 2.636-11.648 5.847zm9.042-10.03a1 1 0 0 1-1.22-1.585c4.493-3.455 8.347-5.207 11.61-5.207a1 1 0 1 1 0 2c-2.736 0-6.215 1.581-10.39 4.793zm4.39 8.208a1 1 0 1 1 0-2 1 1 0 0 1 0 2zm-21-16a1 1 0 1 1 0-2 1 1 0 0 1 0 2zm22-3a1 1 0 1 1 0-2 1 1 0 0 1 0 2z" class="color-500"/><path fill="#FFF" d="M31.422 31.992a63.975 63.975 0 0 0-4.485 2.848 1 1 0 0 0 1.136 1.646 62.474 62.474 0 0 1 4.22-2.688c.467 1.208.702 2.41.671 3.533a9.941 9.941 0 0 0-2.066.533c-.116.736-.414 1.377-.907 1.87-1.953 1.953-6.227.845-9.546-2.475-3.32-3.32-4.428-7.593-2.475-9.546.187-.187.395-.346.622-.477a7.97 7.97 0 0 0 .701-2.377c1.117-.221 2.352-.136 3.615.219-.565.977-1.28 1.95-2.148 2.918a1 1 0 1 0 1.49 1.334c1.038-1.16 1.887-2.338 2.547-3.533a14.764 14.764 0 0 1 3.08 2.01 111.363 111.363 0 0 1-5.062 5.131 1 1 0 0 0 1.381 1.447 113.483 113.483 0 0 0 5.13-5.2 15.556 15.556 0 0 1 2.096 2.807zM24.389 42.16L9.006 48.163l6.438-15.148c.62 1.943 1.863 3.935 3.587 5.658 1.634 1.635 3.51 2.837 5.358 3.487z" class="french-vanilla-100"/></g></svg>