<svg xmlns="http://www.w3.org/2000/svg" width="56" height="56" class="wd-accent-gauge wd-accent" focusable="false" role="presentation" viewBox="0 0 56 56"><g fill="none" fill-rule="evenodd" class="wd-icon-container"><path fill="#005DBA" fill-rule="nonzero" d="M41.143 20.356l1.545-1.338A23.896 23.896 0 0 0 28 14C14.745 14 4 24.745 4 38a1 1 0 0 0 1 1h3a1 1 0 0 0 0-2H6.022c.102-2.27.548-4.452 1.287-6.493l1.818.772a1 1 0 0 0 .781-1.841l-1.833-.778a22.035 22.035 0 0 1 3.678-5.493l1.398 1.398a1 1 0 0 0 1.414-1.414l-1.398-1.398a22.035 22.035 0 0 1 5.5-3.681l.74 1.83a1 1 0 0 0 1.854-.75l-.746-1.846A21.916 21.916 0 0 1 27 16.022V18a1 1 0 0 0 2 0v-1.978c2.27.102 4.452.548 6.493 1.287l-.772 1.818a1 1 0 0 0 1.841.781l.778-1.833a21.992 21.992 0 0 1 3.803 2.281zm4.23 1.085A23.919 23.919 0 0 1 52 38a1 1 0 0 1-1 1h-3a1 1 0 0 1 0-2h1.978a21.916 21.916 0 0 0-1.284-6.485l-1.847.746a1 1 0 1 1-.749-1.854l1.83-.74a22.041 22.041 0 0 0-3.92-5.758L31.806 36.046a4 4 0 1 1-3.115-2.965l16.088-13.932a1 1 0 0 1 1.388 1.437l-.795.855zM27.608 38.98a2 2 0 1 0 .626-3.95 2 2 0 0 0-.626 3.95z" class="color-500"/><path fill="#FFF" d="M27.609 39.293a2 2 0 1 0 .626-3.95 2 2 0 0 0-.626 3.95z" class="french-vanilla-100"/></g></svg>