<svg xmlns="http://www.w3.org/2000/svg" width="56" height="56" class="wd-accent-glasses wd-accent" focusable="false" role="presentation" viewBox="0 0 56 56"><g fill="none" fill-rule="evenodd" class="wd-icon-container"><path fill="#005DBA" d="M24.82 22.911A5.972 5.972 0 0 1 28 22c1.168 0 2.258.334 3.18.911A9.498 9.498 0 0 1 39.5 18a9.498 9.498 0 0 1 8.373 5.008A1.01 1.01 0 0 1 48 23h2a1 1 0 0 1 0 2h-1.332c.216.797.332 1.635.332 2.5a9.5 9.5 0 1 1-18.609-2.707A3.982 3.982 0 0 0 28 24c-.897 0-1.724.295-2.391.793.254.858.391 1.767.391 2.707A9.5 9.5 0 1 1 7.332 25H6a1 1 0 0 1 0-2h2c.043 0 .085.003.127.008A9.498 9.498 0 0 1 16.5 18a9.498 9.498 0 0 1 8.32 4.911z" class="color-500"/><path fill="#FFF" d="M16.5 20a7.5 7.5 0 1 1 0 15 7.5 7.5 0 0 1 0-15zm23 0a7.5 7.5 0 1 1 0 15 7.5 7.5 0 0 1 0-15zm-23 2a5.5 5.5 0 0 0-5.5 5.5 1 1 0 0 0 2 0 3.5 3.5 0 0 1 3.5-3.5 1 1 0 0 0 0-2z" class="french-vanilla-100"/></g></svg>