<svg xmlns="http://www.w3.org/2000/svg" width="56" height="56" class="wd-accent-globe-earth wd-accent" focusable="false" role="presentation" viewBox="0 0 56 56"><g fill="none" fill-rule="nonzero" class="wd-icon-container"><path fill="#005DBA" d="M28 4c13.255 0 24 10.745 24 24S41.255 52 28 52 4 41.255 4 28 14.745 4 28 4zm-14.66 7.598l-.164.146A21.943 21.943 0 0 0 6 28c0 11.38 8.641 20.743 19.72 21.883.846-3.201 1.266-5.832 1.266-7.883 0-.242.011-.884.013-1.259a7.534 7.534 0 0 1-.97-.479c-.75-.437-1.615-1.084-2.65-2.02-2.405-2.17-2.347-4.163-.848-6.765.717-1.243.695-1.202.75-1.443.019-.085.046-.03-.174-.14a20.792 20.792 0 0 0-1.032-.48c-.345-.15-1.67-.707-1.638-.694-.705-.3-1.251-.544-1.788-.805-2.604-1.27-4.467-2.741-5.79-4.89-.84-1.365-1.046-2.608-.765-3.986.072-.35.171-.704.311-1.125.053-.16.109-.32.187-.54l.19-.538c.663-1.897.888-3.35.558-5.238zm23.813-3.61c-5.599.898-6.792 2.185-4.956 4.368a1 1 0 0 1-.476 1.601c-1.648.497-2.683 1.732-3.441 3.766-.17.457-.321.935-.493 1.542-.014.048-.32 1.158-.407 1.449-.395 1.319-.734 1.962-1.534 2.233a1 1 0 0 1-1.094-.313c-2.398-2.923-3.245-3.263-4.95-1.895-.53.56-.885 1.386-.848 1.873.07.115.356.103.836-.06 1.909-.646 3.45.117 4.775 1.733.156.19.305.388.465.61l.361.515.007.01-.007-.01c.054.077.098.138.133.185.378.057.985-.08 3.067-.631 2.314-.612 3.861-.837 5.544-.62.336.042.665.105.989.187 2.91.739 4.632 2.909 5.113 6.315 5.136 2.69 4.977 6.933-.24 11.88-3.205 3.037-6.154 5.388-8.856 7.052C41.804 48.253 50 39.084 50 28c0-.219-.003-.436-.01-.653a48.47 48.47 0 0 1-1.25-1.628c-.17-.228-1.268-1.723-1.597-2.164-1.187-1.589-2.082-2.686-2.945-3.56-1.06-1.076-1.963-1.679-2.67-1.796-2.978-.495-3.21-3.545-1.31-8.496a21.824 21.824 0 0 0-3.065-1.714zM30.3 6.119l.08-.144C29.154 8.251 26.733 10 24.692 10c-1.864 0-2.19-1.356-1.487-3.475a21.889 21.889 0 0 0-8.123 3.665c.694 2.792.475 4.77-.412 7.306l-.193.545c-.074.21-.126.36-.174.503a7.726 7.726 0 0 0-.249.894c-.181.888-.06 1.613.509 2.538 1.094 1.779 2.67 3.024 4.963 4.14.429.21.87.41 1.413.644l.28.12.744.313.269.114c.267.113.516.22.642.275.435.19.799.357 1.132.525 1.022.514 1.452 1.366 1.225 2.369-.075.333-.214.662-.425 1.056-.076.141-.157.284-.27.477l-.272.467c-1.082 1.878-1.11 2.868.454 4.282.94.847 1.694 1.413 2.318 1.776.22.129.412.225.602.307.092.04.382.155.44.18.559.243.859.644.912 1.278.005.056.007.177.008.33l-.001.34-.003.368c-.004.302-.008.573-.008.663 0 1.99-.35 4.411-1.046 7.273 3.097-1.526 6.664-4.19 10.68-7.999 4.463-4.231 4.463-6.878.26-8.87a1 1 0 0 1-.567-.806c-.29-2.94-1.496-4.574-3.681-5.129a6.31 6.31 0 0 0-.751-.142c-1.36-.174-2.697.02-4.778.57-3.014.798-3.392.877-4.25.596l-.085-.029c-.306-.084-.49-.24-.695-.481a4.72 4.72 0 0 1-.248-.324l-.066-.093-.004-.005-.015-.022a72.75 72.75 0 0 0-.335-.478 9.842 9.842 0 0 0-.387-.508c-.856-1.044-1.633-1.429-2.587-1.106-1.91.647-3.346-.034-3.471-1.684-.085-1.123.523-2.52 1.453-3.465l.082-.074c2.533-2.058 4.37-1.666 6.91 1.107.02-.06.039-.123.059-.19.08-.267.38-1.354.398-1.421.186-.655.352-1.18.544-1.696.772-2.071 1.857-3.586 3.484-4.465-1.533-2.618-.101-4.626 3.764-5.826a21.953 21.953 0 0 0-3.354-.614zm11.59 4.821l-.003.01c-1.285 3.527-1.118 5.096-.03 5.277 1.219.202 2.434 1.015 3.765 2.364.942.955 1.886 2.112 3.123 3.769.153.204.465.627.775 1.047a21.995 21.995 0 0 0-7.63-12.467zM27.966 6.001L28 6c-.845 0-1.68.048-2.5.14l.1-.22c-.433.937-.665 1.643-.708 2.07.954-.1 2.177-.888 3.073-1.99z" class="color-500"/><path fill="#FFF" d="M13.34 11.598c.33 1.889.105 3.34-.558 5.238l-.19.538c-.078.22-.134.38-.187.54-.14.421-.24.775-.31 1.125-.282 1.378-.075 2.62.764 3.985 1.323 2.15 3.186 3.621 5.79 4.89.537.262 1.083.507 1.788.806-.032-.013 1.293.544 1.638.695.404.176.736.33 1.032.478.22.111.193.056.173.141-.054.241-.032.2-.749 1.443-1.5 2.602-1.557 4.595.847 6.765 1.036.936 1.9 1.583 2.651 2.02a7.534 7.534 0 0 0 .97.48c-.002.374-.013 1.016-.013 1.258 0 2.05-.42 4.682-1.264 7.882C14.642 48.742 6 39.38 6 28c0-6.44 2.767-12.233 7.176-16.256zm23.813-3.61c1.071.491 2.096 1.065 3.066 1.714-1.9 4.952-1.67 8.002 1.31 8.497.706.117 1.609.72 2.669 1.795.863.875 1.758 1.972 2.945 3.561.329.441 1.428 1.936 1.597 2.164.497.67.892 1.186 1.25 1.628l.007.29L50 28c0 11.084-8.197 20.254-18.86 21.778 2.703-1.663 5.652-4.015 8.856-7.052 5.218-4.947 5.377-9.19.24-11.88-.48-3.406-2.202-5.576-5.112-6.315a8.31 8.31 0 0 0-.989-.188c-1.683-.216-3.23.009-5.544.62-.434.116-.804.213-1.12.293l-.517.13c-.824.199-1.178.247-1.43.209a8.014 8.014 0 0 1-.133-.185l.008.012-.001-.002-.007-.01a91.99 91.99 0 0 0-.33-.47l-.03-.044c-.16-.223-.31-.42-.466-.61-1.325-1.617-2.866-2.38-4.775-1.733-.48.162-.765.174-.836.059-.037-.487.317-1.313.848-1.873 1.705-1.368 2.552-1.028 4.95 1.895a1 1 0 0 0 1.094.313c.8-.27 1.14-.914 1.534-2.233.087-.291.393-1.4.407-1.45.172-.606.322-1.084.493-1.541.758-2.034 1.793-3.269 3.44-3.766a1 1 0 0 0 .477-1.6c-1.836-2.184-.643-3.47 4.961-4.37zM30.3 6.119c1.146.12 2.266.327 3.354.615-3.865 1.2-5.297 3.208-3.764 5.826-1.627.879-2.712 2.394-3.484 4.465a21.559 21.559 0 0 0-.544 1.696c-.019.067-.319 1.154-.398 1.42l-.059.191c-2.54-2.773-4.377-3.165-6.91-1.107l-.082.074c-.93.945-1.538 2.342-1.453 3.465.125 1.65 1.56 2.331 3.471 1.684.954-.323 1.731.062 2.587 1.106.126.154.25.318.387.508.065.09.27.385.335.478l.015.022.07.098c.097.136.171.234.248.324.206.242.39.397.695.481l.085.029c.858.281 1.236.202 4.25-.596 2.08-.55 3.419-.744 4.778-.57.256.033.507.08.75.142 2.186.555 3.392 2.189 3.682 5.129a1 1 0 0 0 .567.806c4.203 1.992 4.203 4.639-.26 8.87-4.016 3.808-7.583 6.473-10.68 7.999.696-2.862 1.046-5.283 1.046-7.273 0-.09.004-.361.008-.663l.003-.368v-.34c0-.153-.002-.274-.007-.33-.053-.634-.353-1.035-.912-1.278-.058-.025-.348-.14-.44-.18a5.542 5.542 0 0 1-.602-.307c-.624-.363-1.379-.929-2.318-1.776-1.565-1.414-1.536-2.404-.454-4.282l.273-.467c.112-.193.193-.336.269-.477.211-.394.35-.723.425-1.056.227-1.003-.203-1.855-1.225-2.37a22.692 22.692 0 0 0-1.132-.524 85.076 85.076 0 0 0-.642-.275l-.27-.114c-.4-.17-.765-.323-.742-.313l-.28-.12a32.482 32.482 0 0 1-1.414-.643c-2.293-1.117-3.869-2.362-4.963-4.141-.57-.925-.69-1.65-.509-2.538.053-.26.132-.542.25-.894.047-.144.099-.293.173-.503l.193-.545c.887-2.537 1.106-4.514.413-7.305a21.868 21.868 0 0 1 8.123-3.667C22.502 8.644 22.828 10 24.692 10c2.04 0 4.462-1.75 5.688-4.026zm11.59 4.821a21.995 21.995 0 0 1 7.63 12.467c-.31-.42-.622-.843-.775-1.047-1.237-1.657-2.181-2.814-3.123-3.77-1.33-1.348-2.546-2.16-3.766-2.363-1.087-.18-1.254-1.75.03-5.277zM27.966 6.001c-.896 1.1-2.12 1.888-3.073 1.988.043-.426.275-1.132.708-2.07l-.1.222C26.32 6.048 27.155 6 28 6z" class="french-vanilla-100"/></g></svg>