<svg xmlns="http://www.w3.org/2000/svg" width="56" height="56" class="wd-accent-globe wd-accent" focusable="false" role="presentation" viewBox="0 0 56 56"><g fill="none" fill-rule="evenodd" class="wd-icon-container"><path fill="#005DBA" fill-rule="nonzero" d="M29 4v.02C41.46 4.532 51.47 14.54 51.98 27H52v2h-.02C51.468 41.46 41.46 51.469 29 51.98V52h-2v-.02C14.54 51.469 4.532 41.46 4.02 29H4v-2h.02C4.531 14.54 14.54 4.531 27 4.02V4h2zm-2 35.021c-2.48.107-4.889.607-7.152 1.465 1.68 5.17 4.326 8.708 7.153 9.393zm2 0v10.857c2.827-.685 5.471-4.222 7.153-9.39A22.902 22.902 0 0 0 29 39.02zm-10.997 2.26l-.408.2a23.022 23.022 0 0 0-4.46 2.968l.132-.11a21.953 21.953 0 0 0 9.194 4.958c-1.803-1.88-3.337-4.649-4.458-8.017zm19.994-.001l-.06.18c-1.115 3.286-2.628 5.99-4.399 7.837a21.95 21.95 0 0 0 9.195-4.958 22.942 22.942 0 0 0-4.736-3.06zM16.01 29H6.022a21.918 21.918 0 0 0 5.875 13.99l-.056-.067a24.998 24.998 0 0 1 5.581-3.582c-.833-3.1-1.335-6.61-1.412-10.34zm33.968 0H39.99c-.077 3.73-.579 7.24-1.412 10.342 2.07.967 4.007 2.22 5.757 3.732l-.174-.147A21.917 21.917 0 0 0 49.978 29zM27 29h-8.99c.075 3.47.536 6.712 1.276 9.562A24.899 24.899 0 0 1 27 37.02V29zm10.99 0H29v8.02c2.673.105 5.27.632 7.714 1.54.74-2.849 1.2-6.09 1.275-9.56zM6.021 27h9.988c.07-3.377.488-6.574 1.184-9.45a24.954 24.954 0 0 1-6.07-4.105l.212.19a21.907 21.907 0 0 0-5.314 13.366zm13.04-8.645l-.05.212c-.58 2.566-.936 5.414-1.001 8.433H27v-7.02a24.94 24.94 0 0 1-7.938-1.625zm25.602-4.72l-.158.142a24.99 24.99 0 0 1-5.7 3.774c.697 2.876 1.115 6.072 1.184 9.45h9.988a21.907 21.907 0 0 0-5.314-13.366zm-7.725 4.718l-.284.108A24.95 24.95 0 0 1 29 19.981L29 27h8.99c-.068-3.103-.443-6.025-1.051-8.647zM29 6.122l.001 11.857c2.583-.111 5.086-.65 7.428-1.572C34.77 10.754 31.987 6.846 29 6.122zm-9.358 10.045l-.07.24A22.934 22.934 0 0 0 27 17.98V6.12c-2.944.714-5.691 4.522-7.358 10.046zm2.82-9.464l-.087.023a21.969 21.969 0 0 0-9.665 5.456 22.988 22.988 0 0 0 5.018 3.403c1.139-3.76 2.778-6.844 4.734-8.882zm11.077 0l.17.182c1.88 2.037 3.458 5.05 4.563 8.7a22.951 22.951 0 0 0 5.018-3.403 21.968 21.968 0 0 0-9.751-5.479z" class="color-500"/><path fill="#FFF" d="M27 39.021v10.857c-2.827-.685-5.471-4.222-7.153-9.39A22.9 22.9 0 0 1 27 39.02zm9.153 1.465l-.105.316C34.363 45.8 31.768 49.207 29 49.88V39.02c2.481.107 4.89.608 7.153 1.465zm-18.15.794c1.12 3.368 2.655 6.137 4.459 8.017a21.95 21.95 0 0 1-9.195-4.958l-.132.11a23.022 23.022 0 0 1 4.46-2.967zm24.73 3.057l-.16.145a21.949 21.949 0 0 1-9.034 4.815c1.803-1.88 3.337-4.649 4.458-8.017 1.69.816 3.28 1.841 4.735 3.057zM16.01 29c.077 3.73.579 7.24 1.412 10.342a24.96 24.96 0 0 0-5.58 3.581l.055.066A21.918 21.918 0 0 1 6.022 29zm33.968 0a21.917 21.917 0 0 1-5.817 13.927l.174.147a25 25 0 0 0-5.757-3.733C39.411 36.24 39.913 32.73 39.99 29zm-22.979 0L27 37.02a24.94 24.94 0 0 0-7.714 1.54c-.74-2.849-1.2-6.091-1.275-9.56h8.988zm10.99 0c-.074 3.469-.535 6.711-1.275 9.561A24.931 24.931 0 0 0 29 37.02V29zM11.336 13.635l-.212-.19a25.015 25.015 0 0 0 6.07 4.106c-.696 2.875-1.115 6.072-1.184 9.45L6.022 27a21.907 21.907 0 0 1 5.314-13.365zM27 19.98V27h-8.99c.068-3.104.443-6.025 1.051-8.647A24.906 24.906 0 0 0 27 19.98zm17.664-6.345A21.907 21.907 0 0 1 49.978 27H39.99c-.07-3.377-.487-6.573-1.184-9.45a24.96 24.96 0 0 0 5.7-3.773zm-7.725 4.718c.608 2.622.983 5.543 1.05 8.646H29V19.98a24.95 24.95 0 0 0 7.656-1.519zm-9.94-12.231L27 17.979a22.934 22.934 0 0 1-7.429-1.572C21.23 10.754 24.013 6.846 27 6.122zm2 0c2.988.723 5.771 4.632 7.43 10.285A22.924 22.924 0 0 1 29 17.979zm-6.538.582c-1.955 2.038-3.594 5.122-4.733 8.88a22.96 22.96 0 0 1-5.018-3.402 21.964 21.964 0 0 1 9.665-5.456zm11.079 0a21.967 21.967 0 0 1 9.75 5.478 22.976 22.976 0 0 1-5.018 3.403c-1.105-3.65-2.683-6.663-4.563-8.7z" class="french-vanilla-100"/></g></svg>