<svg xmlns="http://www.w3.org/2000/svg" width="56" height="56" class="wd-accent-globe-coin wd-accent" focusable="false" role="presentation" viewBox="0 0 56 56"><g fill="none" fill-rule="nonzero" class="wd-icon-container"><path fill="#005DBA" d="M27 4v.022c11.355.508 20.47 9.624 20.978 20.979L48 25v2h-.022a21.97 21.97 0 0 1-.749 4.793c2.178 1.596 3.584 3.765 3.754 6.207h.022L51 39.005l-.032 5.1C50.49 48.645 44.78 52 38 52c-4.609 0-8.723-1.55-11.037-4H25v-.022C13.647 47.47 4.53 38.355 4.023 27H4v-2h.022C4.53 13.646 13.645 4.53 25.001 4.023L25 4h2zm6 43.277v2c1.217.374 2.568.618 4 .696v-2a17.085 17.085 0 0 1-4-.696zm6 .695v2a16.877 16.877 0 0 0 4.001-.693v-2.003c-1.25.379-2.596.619-4 .696zm6-1.456l.001 1.98c2.283-1.117 3.785-2.746 3.973-4.501l.002-.38c-1.02 1.17-2.38 2.16-3.975 2.901zM27.02 43.61v.285c.191 1.81 1.696 3.464 3.98 4.593v-1.972c-1.597-.742-2.96-1.734-3.98-2.906zM38 31c-6.134 0-11 3.446-11 7.5S31.866 46 38 46s11-3.446 11-7.5S44.134 31 38 31zm-19.066 5.587l-.474.085c1.484 5.003 3.931 8.473 6.54 9.19v-6.736L24.995 38H25v-1.989a41.747 41.747 0 0 0-6.066.576zm-2.437.5l-.303.074c-1.936.483-3.743 1.11-5.37 1.865a20.008 20.008 0 0 0 9.885 6.267c-1.748-1.922-3.206-4.766-4.212-8.205zM38 32c4.9 0 9 2.562 9 6s-4.1 6-9 6-9-2.562-9-6 4.1-6 9-6zm0 2c-3.936 0-7 1.915-7 4s3.064 4 7 4 7-1.915 7-4-3.064-4-7-4zm-22.989-7H6.025A19.894 19.894 0 0 0 9.57 37.408c1.93-.936 4.096-1.695 6.424-2.258-.573-2.499-.918-5.25-.983-8.15zM25 27h-7.988c.065 2.773.4 5.384.94 7.73A43.54 43.54 0 0 1 25 34.01V27zm9.988 0H27v6.412c1.772-2.047 4.584-3.547 7.872-4.137.059-.744.098-1.503.116-2.274zm10.987 0H36.99a43.805 43.805 0 0 1-.093 2.035C37.26 29.01 37.628 29 38 29c2.757 0 5.328.624 7.444 1.7a19.93 19.93 0 0 0 .531-3.7zM9.57 14.593l-.154.225A19.892 19.892 0 0 0 6.025 25h8.986c.065-2.9.41-5.652.983-8.153-2.328-.56-4.494-1.32-6.424-2.255zm8.381 2.676l-.06.27A39.01 39.01 0 0 0 17.01 25H25v-7.01a43.462 43.462 0 0 1-7.049-.721zm24.479-2.677l-.217.105c-1.874.887-3.965 1.611-6.207 2.153.573 2.499.918 5.252.983 8.15h8.986a19.894 19.894 0 0 0-3.545-10.408zm-8.382 2.675l-.21.04A43.56 43.56 0 0 1 27 17.99L27 25h7.988c-.065-2.774-.4-5.385-.94-7.733zm-15.547-2.074l-.042.136c2.083.383 4.281.608 6.54.66l.002-9.851c-2.586.71-5.012 4.125-6.5 9.055zM27 6.138v9.85a41.527 41.527 0 0 0 6.539-.659c-1.484-5.003-3.93-8.473-6.54-9.191zm-6.292.569l-.026.007a20.007 20.007 0 0 0-9.859 6.259c1.712.795 3.623 1.448 5.674 1.94 1.004-3.44 2.463-6.284 4.211-8.206zm10.582 0l.037.041c1.732 1.921 3.177 4.75 4.175 8.164 2.05-.492 3.961-1.144 5.673-1.938a20.005 20.005 0 0 0-9.885-6.267z" class="color-500"/><path fill="#FFF" d="M33 47.276c1.25.379 2.595.619 4 .696v2a16.765 16.765 0 0 1-4-.696zm10 0v2.003a16.877 16.877 0 0 1-4 .694v-2a17.085 17.085 0 0 0 4-.697zm5.977-3.661l-.003.38c-.188 1.755-1.69 3.384-3.973 4.501L45 46.516c1.595-.741 2.956-1.731 3.977-2.901zm-21.958-.005c1.021 1.172 2.383 2.164 3.981 2.906v1.972c-2.284-1.129-3.789-2.783-3.98-4.593zM38 31c6.134 0 11 3.446 11 7.5S44.134 46 38 46s-11-3.446-11-7.5S31.866 31 38 31zm-13 5.011v9.851c-2.61-.718-5.056-4.188-6.54-9.19a41.38 41.38 0 0 1 6.54-.66zm-8.503 1.077c1.006 3.439 2.464 6.283 4.212 8.205a20.008 20.008 0 0 1-9.886-6.267c1.628-.755 3.435-1.382 5.37-1.865zM38 32c-4.9 0-9 2.562-9 6s4.1 6 9 6 9-2.562 9-6-4.1-6-9-6zm0 2c3.936 0 7 1.915 7 4s-3.064 4-7 4-7-1.915-7-4 3.064-4 7-4zm-22.989-7c.065 2.898.41 5.651.983 8.152-2.328.561-4.494 1.32-6.424 2.255A19.89 19.89 0 0 1 6.025 27zM25 26.999v7.012a43.463 43.463 0 0 0-7.048.72c-.54-2.347-.875-4.958-.94-7.731L25 26.999zm9.988 0a41.47 41.47 0 0 1-.116 2.276c-3.289.59-6.101 2.09-7.873 4.138V27zm10.987 0a19.991 19.991 0 0 1-.53 3.7C43.328 29.625 40.757 29 38 29c-.372 0-.74.011-1.104.034A43.2 43.2 0 0 0 36.989 27zM9.57 14.593c1.93.935 4.096 1.694 6.423 2.257-.572 2.499-.917 5.25-.982 8.15H6.025a19.892 19.892 0 0 1 3.39-10.182zm8.382 2.676c2.246.421 4.616.667 7.048.72V25h-7.988a39.01 39.01 0 0 1 .879-7.46zm24.478-2.677A19.894 19.894 0 0 1 45.975 25H36.99c-.065-2.899-.41-5.65-.983-8.151 2.242-.54 4.333-1.265 6.207-2.152zm-8.382 2.675c.54 2.348.875 4.959.94 7.732H27v-7.01a43.56 43.56 0 0 0 6.837-.681zM25 6.138v9.85a41.524 41.524 0 0 1-6.54-.659c1.484-5.003 3.93-8.473 6.54-9.191zm2 0c2.61.718 5.056 4.188 6.54 9.19-2.082.384-4.28.61-6.54.66zm-6.29.569c-1.749 1.922-3.208 4.767-4.213 8.206-2.05-.492-3.96-1.145-5.673-1.939a19.999 19.999 0 0 1 9.86-6.26zm10.58 0a20.006 20.006 0 0 1 9.886 6.266c-1.711.795-3.622 1.448-5.674 1.94-.997-3.415-2.442-6.243-4.174-8.165z" class="french-vanilla-100"/></g></svg>