<svg xmlns="http://www.w3.org/2000/svg" width="56" height="56" class="wd-accent-globe-desk wd-accent" focusable="false" role="presentation" viewBox="0 0 56 56"><g fill="none" fill-rule="nonzero" class="wd-icon-container"><path fill="#005DBA" d="M26.16 28.889l4.092-1.737-2.345-5.523-4.091 1.737c.258.927.589 1.878.996 2.836.406.959.86 1.857 1.348 2.687zm7.523 6.346l-2.65-6.242-3.763 1.598c2.107 2.906 4.563 4.628 6.413 4.644zm1.505-13.437a23.311 23.311 0 0 0-1.348-2.687l-4.092 1.737 2.345 5.523 4.091-1.737a23.311 23.311 0 0 0-.996-2.836zm-2.314 6.414l2.65 6.242c1.272-1.342 1.74-4.305 1.113-7.84l-3.763 1.598zm-8.57 1.465a25.4 25.4 0 0 1-1.333-2.693 25.4 25.4 0 0 1-1.01-2.83L18.13 25.78c.147.979.42 1.955.824 2.909.405.953.918 1.827 1.52 2.614l3.83-1.626zM30 36.003c-1.612-1.007-3.212-2.595-4.614-4.613l-3.477 1.476A12.044 12.044 0 0 0 30 36.003zm11.046-16.692a12.022 12.022 0 0 0-1.52-2.614l-3.83 1.626a25.4 25.4 0 0 1 1.333 2.693 25.4 25.4 0 0 1 1.01 2.83l3.831-1.626c-.147-.979-.42-1.955-.824-2.909zm-2.525 6.504c.478 2.41.508 4.664.114 6.523a12.044 12.044 0 0 0 3.363-8l-3.477 1.477zm-11.395-6.027l-2.65-6.242c-1.272 1.342-1.74 4.305-1.113 7.84l3.763-1.598zm-.809-7.023l2.65 6.242 3.763-1.598c-2.107-2.906-4.563-4.628-6.413-4.644zm-4.838 9.42c-.478-2.41-.508-4.664-.114-6.523a12.044 12.044 0 0 0-3.363 8l3.477-1.477zM30 11.997c1.612 1.007 3.212 2.595 4.614 4.613l3.477-1.476A12.044 12.044 0 0 0 30 11.997zm5.47 24.89c-7.117 3.021-15.336-.3-18.357-7.417-3.021-7.117.3-15.336 7.417-18.357 7.117-3.021 15.336.3 18.357 7.417 3.021 7.117-.3 15.336-7.417 18.357zM31 49h6a1 1 0 0 1 0 2H23a1 1 0 0 1 0-2h6v-7.024c-6.63-.374-12.799-4.417-15.57-10.943-3.752-8.842.107-19.006 8.627-23.186l-.792-1.866a1 1 0 1 1 1.84-.782l1.173 2.762a1 1 0 0 1-.53 1.31c-8.134 3.454-11.929 12.847-8.476 20.98 2.536 5.976 8.279 9.61 14.373 9.749h.724a15.957 15.957 0 0 0 5.883-1.272 1 1 0 0 1 1.31.53l1.173 2.761a1 1 0 1 1-1.84.782l-.793-1.866c-1.68.606-3.396.947-5.102 1.042V49z" class="color-500"/><path fill="#FFF" d="M26.16 28.889l4.092-1.737-2.345-5.523-4.091 1.737c.258.927.589 1.878.996 2.836.406.959.86 1.857 1.348 2.687zm7.523 6.346l-2.65-6.242-3.763 1.598c2.107 2.906 4.563 4.628 6.413 4.644zm1.505-13.437a23.311 23.311 0 0 0-1.348-2.687l-4.092 1.737 2.345 5.523 4.091-1.737a23.311 23.311 0 0 0-.996-2.836zm-2.314 6.414l2.65 6.242c1.272-1.342 1.74-4.305 1.113-7.84l-3.763 1.598zm-8.57 1.465a25.4 25.4 0 0 1-1.333-2.693 25.4 25.4 0 0 1-1.01-2.83L18.13 25.78c.147.979.42 1.955.824 2.909.405.953.918 1.827 1.52 2.614l3.83-1.626zM30 36.003c-1.612-1.007-3.212-2.595-4.614-4.613l-3.477 1.476A12.044 12.044 0 0 0 30 36.003zm11.046-16.692a12.022 12.022 0 0 0-1.52-2.614l-3.83 1.626a25.4 25.4 0 0 1 1.333 2.693 25.4 25.4 0 0 1 1.01 2.83l3.831-1.626c-.147-.979-.42-1.955-.824-2.909zm-2.525 6.504c.478 2.41.508 4.664.114 6.523a12.044 12.044 0 0 0 3.363-8l-3.477 1.477zm-11.395-6.027l-2.65-6.242c-1.272 1.342-1.74 4.305-1.113 7.84l3.763-1.598zm-.809-7.023l2.65 6.242 3.763-1.598c-2.107-2.906-4.563-4.628-6.413-4.644zm-4.838 9.42c-.478-2.41-.508-4.664-.114-6.523a12.044 12.044 0 0 0-3.363 8l3.477-1.477zM30 11.997c1.612 1.007 3.212 2.595 4.614 4.613l3.477-1.476A12.044 12.044 0 0 0 30 11.997z" class="french-vanilla-100"/></g></svg>