<svg xmlns="http://www.w3.org/2000/svg" width="56" height="56" class="wd-accent-handshake-plus wd-accent" focusable="false" role="presentation" viewBox="0 0 56 56"><g fill="none" fill-rule="nonzero" class="wd-icon-container"><path fill="#005DBA" d="M52 41.53c0 6.075-4.925 11-11 11-5.38 0-9.859-3.863-10.812-8.967a3.501 3.501 0 0 1-4.763-2.022 3.5 3.5 0 0 1-5.645-1.915 3.5 3.5 0 0 1-4.623-3.352 3.5 3.5 0 0 1-2.51-5.975l.303-.303h-2.92l-.06.348A2 2 0 0 1 8 31.996H6a2 2 0 0 1-2-2v-17a2 2 0 0 1 2-2h5a2 2 0 0 1 2 2h8.525a15 15 0 0 1 5.737 1.213l.928-.928a9.392 9.392 0 0 1 10.063-2.105l3.179 1.244a10 10 0 0 0 1.57.47A2.001 2.001 0 0 1 45 10.996h5a2 2 0 0 1 2 2v17a2 2 0 0 1-2 2h-2a2 2 0 0 1-1.97-1.652l-.06-.348h-1.414l.304.304c.371.371.642.805.811 1.268A11.001 11.001 0 0 1 52 41.53zM36.52 24.788c-2.431-.174-4.812-1.115-7.121-2.816L25.01 26.36a3.5 3.5 0 1 1-4.95-4.95l5.66-5.658a13.038 13.038 0 0 0-4.22-.756h-8.822l-2.294 13h3.06a2 2 0 0 1 1.213.41 3.501 3.501 0 0 1 5.235 1.959 3.502 3.502 0 0 1 4.89 1.94l.178-.177a3.5 3.5 0 0 1 5.85 3.403c.276.053.546.14.804.26a11.044 11.044 0 0 1 4.997-4.35 1 1 0 0 1 1.703-.616c.88-.183 1.77-.295 2.686-.295.455 0 .903.028 1.343.081l-5.823-5.823zm-5.792 12.798a1.5 1.5 0 0 0-1.647.32l-1.414 1.414a1.5 1.5 0 0 0 2.122 2.122l.215-.216a10.96 10.96 0 0 1 .724-3.64zm11.828-9.59h3.06L43.32 14.978a12 12 0 0 1-2.616-.696l-3.178-1.243a7.392 7.392 0 0 0-7.92 1.656l-8.13 8.13a1.5 1.5 0 0 0 2.121 2.121l5.01-5.01a1 1 0 0 1 1.337-.07c1.323 1.07 2.65 1.849 3.991 2.337a9.909 9.909 0 0 0 3.443.614c1.443-.004 2.905-.331 4.394-.978a1 1 0 1 1 .797 1.834c-1.12.487-2.235.818-3.34.994l3.328 3.33zM17.596 30.3a1.5 1.5 0 0 0-2.121 0l-1.414 1.414a1.5 1.5 0 1 0 2.121 2.121l1.414-1.414a1.5 1.5 0 0 0 0-2.121zm4.95 2.121a1.5 1.5 0 0 0-2.121 0l-2.829 2.828a1.5 1.5 0 1 0 2.122 2.122l2.828-2.829a1.5 1.5 0 0 0 0-2.121zm5.95 1.121a1.5 1.5 0 0 0-2.122 0l-4.242 4.243a1.5 1.5 0 1 0 2.121 2.121l4.243-4.242a1.5 1.5 0 0 0 0-2.122zM6 12.996v17h2l3-17H6zm39 0l3 17h2v-17h-5zM41 50.53a9 9 0 1 0 0-18 9 9 0 0 0 0 18zm1-10h3a1 1 0 0 1 0 2h-3v3a1 1 0 1 1-2 0v-3h-3a1 1 0 1 1 0-2h3v-3a1 1 0 0 1 2 0v3z" class="color-500"/><path fill="#FFF" d="M42.343 30.611l-5.823-5.823c-2.431-.174-4.812-1.115-7.121-2.816L25.01 26.36a3.5 3.5 0 1 1-4.95-4.95l5.66-5.658a13.038 13.038 0 0 0-4.22-.756h-8.822l-2.294 13h3.06a2 2 0 0 1 1.213.41 3.501 3.501 0 0 1 5.235 1.958 3.502 3.502 0 0 1 4.89 1.942l.178-.178a3.5 3.5 0 0 1 5.85 3.403c.276.053.546.14.804.26a11.044 11.044 0 0 1 4.997-4.35 1 1 0 0 1 1.703-.616l.028.028a11.025 11.025 0 0 1 4-.242zM30.004 41.226a10.96 10.96 0 0 1 .724-3.64 1.5 1.5 0 0 0-1.647.32l-1.414 1.414a1.5 1.5 0 0 0 2.122 2.122l.215-.216zm12.552-13.23h3.06L43.32 14.978a12 12 0 0 1-2.616-.696l-3.178-1.244a7.392 7.392 0 0 0-7.92 1.657l-8.13 8.13a1.5 1.5 0 0 0 2.121 2.121l5.01-5.01a1 1 0 0 1 1.337-.07c1.323 1.07 2.65 1.849 3.991 2.336a9.909 9.909 0 0 0 3.443.615c1.443-.004 2.905-.331 4.394-.978a1 1 0 0 1 .797 1.834c-1.12.487-2.235.818-3.34.994l3.328 3.33zM17.596 30.3a1.5 1.5 0 0 0-2.121 0l-1.414 1.414a1.5 1.5 0 1 0 2.121 2.121l1.414-1.414a1.5 1.5 0 0 0 0-2.121zm4.95 2.12a1.5 1.5 0 0 0-2.121 0l-2.829 2.83a1.5 1.5 0 1 0 2.122 2.12l2.828-2.828a1.5 1.5 0 0 0 0-2.121zm5.95 1.122a1.5 1.5 0 0 0-2.122 0l-4.242 4.243a1.5 1.5 0 1 0 2.121 2.121l4.243-4.242a1.5 1.5 0 0 0 0-2.122zM6 12.996v17h2l3-17H6zm39 0l3 17h2v-17h-5zM41 50.53a9 9 0 1 0 0-18 9 9 0 0 0 0 18zm1-10h3a1 1 0 1 1 0 2h-3v3a1 1 0 0 1-2 0v-3h-3a1 1 0 0 1 0-2h3v-3a1 1 0 1 1 2 0v3z" class="french-vanilla-100"/></g></svg>