<svg xmlns="http://www.w3.org/2000/svg" width="56" height="56" class="wd-accent-handshake-heart wd-accent" focusable="false" role="presentation" viewBox="0 0 56 56"><g fill="none" fill-rule="evenodd" class="wd-icon-container"><path fill="#005DBA" fill-rule="nonzero" d="M24.39 21.442c.68-.204 1.348-.459 1.998-.765-.007.26-.006.52.005.779.022.552.79.396.892.941L12.781 36.901a1.5 1.5 0 0 0 2.122 2.122l13.09-13.09a.995.995 0 0 1 1.41.004c.39.395.388 1.025 0 1.414L15.61 41.144a1.5 1.5 0 0 0 2.121 2.121L31.52 29.477a1 1 0 0 1 1.414 1.414L19.852 43.972a1.5 1.5 0 0 0 2.122 2.122l5.339-5.34a3.489 3.489 0 0 1 1.025-2.439 3.484 3.484 0 0 1 1.479-.88 3.502 3.502 0 0 1 4.71-4.712 3.5 3.5 0 0 1 5.83-1.479l1.77 1.768 3.888-3.889c4.491-4.49 4.491-11.772 0-16.263-4.49-4.491-11.772-4.491-16.263 0a11.54 11.54 0 0 0-1.575 1.96l-1.443-1.443a13.552 13.552 0 0 1 1.604-1.932c5.272-5.272 13.82-5.272 19.091 0 5.273 5.273 5.273 13.82 0 19.092l-3.914 3.914a3.5 3.5 0 0 1-2.839 5.597 3.49 3.49 0 0 1-1.025 2.51 3.49 3.49 0 0 1-2.51 1.025 3.49 3.49 0 0 1-1.025 2.51 3.49 3.49 0 0 1-2.51 1.026 3.5 3.5 0 0 1-5.975 2.51l-2.122-2.121a3.511 3.511 0 0 1-.822-1.299l-1.3 1.299a3.5 3.5 0 0 1-5.926-1.893 3.498 3.498 0 0 1-3.266-.936 3.498 3.498 0 0 1-.935-3.265 3.5 3.5 0 0 1-1.893-5.927l13.09-13.09a13.564 13.564 0 0 1-.067-.955zM8.54 19.224a16.557 16.557 0 0 1-2.198-2.717 2 2 0 0 1-.07-2.056 13.506 13.506 0 0 1 2.268-3.006c5.272-5.272 13.82-5.272 19.091 0L40.005 23.82a4 4 0 1 1-5.657 5.657l-7.028-7.028A16.509 16.509 0 0 1 8.54 19.224zm-.371-7.393c-.74.8-1.375 1.68-1.897 2.62a2 2 0 0 0 .07 2.056c.238.368.49.726.758 1.075a11.499 11.499 0 0 0 2.854 11.541c.118.119.239.234.353.354l3.536 3.535-1.414 1.414-3.536-3.535a2.03 2.03 0 0 1-.095-.102 13.718 13.718 0 0 1-.258-.252c-5.146-5.145-5.27-13.41-.372-18.705zM31.873 34.78a1.5 1.5 0 0 0 0 2.121l4.243 4.243a1.5 1.5 0 0 0 2.121-2.121l-4.243-4.243a1.5 1.5 0 0 0-2.12 0zm-4.95 9.192a1.5 1.5 0 0 0 0 2.122l2.122 2.121a1.5 1.5 0 0 0 2.121-2.121l-2.121-2.122a1.5 1.5 0 0 0-2.122 0zm2.829-4.242a1.5 1.5 0 0 0 0 2.121l2.828 2.828a1.5 1.5 0 0 0 2.122-2.12l-2.829-2.83a1.5 1.5 0 0 0-2.121 0zm7.07-7.071a1.5 1.5 0 0 0 0 2.121l2.83 2.828a1.5 1.5 0 0 0 2.12-2.12l-2.828-2.83a1.5 1.5 0 0 0-2.121 0zm-10.606-19.8c-4.49-4.49-11.772-4.49-16.263 0-.78.78-1.424 1.644-1.933 2.562a14.557 14.557 0 0 0 1.933 2.388c4.81 4.81 12.156 5.534 17.73 2.175l8.08 8.078a2 2 0 1 0 2.828-2.828L26.216 12.86z" class="color-500"/><path fill="#FFF" d="M36.823 32.659a1.5 1.5 0 0 1 2.121 0l2.829 2.828a1.5 1.5 0 1 1-2.122 2.121l-2.828-2.828a1.5 1.5 0 0 1 0-2.121zm-7.071 7.07a1.5 1.5 0 0 1 2.121 0l2.829 2.83a1.5 1.5 0 1 1-2.122 2.12l-2.828-2.828a1.5 1.5 0 0 1 0-2.121zm-2.829 4.243a1.5 1.5 0 0 1 2.122 0l2.121 2.122a1.5 1.5 0 1 1-2.121 2.121l-2.122-2.121a1.5 1.5 0 0 1 0-2.122zm4.95-9.192a1.5 1.5 0 0 1 2.121 0l4.243 4.243a1.5 1.5 0 1 1-2.121 2.12l-4.243-4.242a1.5 1.5 0 0 1 0-2.121zm-2.121-21.92c4.49-4.491 11.772-4.491 16.263 0 4.491 4.49 4.491 11.772 0 16.263l-3.889 3.89-1.768-1.769a3.484 3.484 0 0 0-1.61-.917 4 4 0 0 0 1.256-6.508L29.407 13.222c.112-.122.227-.243.346-.361zm.707 20.506l-.139.146a3.502 3.502 0 0 0-.503 3.922 3.484 3.484 0 0 0-1.48.881 3.489 3.489 0 0 0-1.024 2.44l-5.34 5.339a1.5 1.5 0 1 1-2.12-2.122l10.606-10.606zm-3.302-10.84l.163-.077 7.028 7.028a3.981 3.981 0 0 0 2.016 1.088 3.495 3.495 0 0 0-.955.68 3.484 3.484 0 0 0-.882 1.478 3.502 3.502 0 0 0-4.068.643l2.475-2.475a1 1 0 1 0-1.414-1.414L17.73 43.265a1.5 1.5 0 1 1-2.121-2.121L29.402 27.35a1 1 0 0 0-1.405-1.422L14.903 39.023A1.5 1.5 0 1 1 12.78 36.9zM9.953 12.86c4.49-4.491 11.772-4.491 16.263 0l12.375 12.374a2 2 0 1 1-2.829 2.828l-8.079-8.078c-5.574 3.36-12.92 2.635-17.73-2.175a14.557 14.557 0 0 1-1.933-2.388 11.507 11.507 0 0 1 1.933-2.561zm-2.854 4.722a16.505 16.505 0 0 0 15.941 6.233l-9.198 9.197-3.536-3.535c-.114-.12-.235-.235-.353-.354a11.498 11.498 0 0 1-2.87-11.488z" class="french-vanilla-100"/></g></svg>