<svg xmlns="http://www.w3.org/2000/svg" width="56" height="56" class="wd-accent-hand-leaf wd-accent" focusable="false" role="presentation" viewBox="0 0 56 56"><g fill="none" fill-rule="evenodd" class="wd-icon-container"><path fill="#005DBA" fill-rule="nonzero" d="M38 17.586l5.293-5.293a1 1 0 0 1 1.414 1.414L43.414 15H45a1 1 0 0 1 0 2h-3.586l-7.439 7.439c3.908-.34 7.66-1.961 10.581-4.883 3.28-3.279 4.92-7.604 4.95-12.02-4.417.03-8.742 1.67-12.02 4.95-2.9 2.898-4.518 6.614-4.875 10.489L36 19.585V17a1 1 0 0 1 2 0v.586zm-11.55 8.581c1.44 1.871.06 4.305-2.864 6.384l-.838.598-.08.058c-.04.03-.084.06-.137.1-2.253 1.643-3.123 2.725-3.123 4.151 0 .933.64 1.62 2.1 1.97 2.572-2.328 6.32-6.768 6.43-6.861.833-.703 1.694-.942 2.722-.687.76.188 1.263.592 1.539 1.145.556-.776 1.132-1.564 1.37-1.832.988-1.114 2.016-1.531 3.275-1.095.878.305 1.46.825 1.747 1.49.246-.324.466-.612.576-.75.583-.735 1.036-1.218 1.502-1.559.776-.568 1.605-.722 2.456-.378 1.21.49 1.865 1.331 1.908 2.367.118-.066.238-.128.373-.194 1.174-.58 2.273-.59 3.22.17 1.273 1.022.878 3.41-.536 5.864-5.196 9.016-19.038 14.293-31.494 14.262-2.298-.006-4.858-.44-6.952-1.427-3.05-1.44-4.795-3.903-4.634-7.422.177-3.843 2.97-7.568 7.547-11.231a51.932 51.932 0 0 1 3.726-2.704 74.65 74.65 0 0 1 2.19-1.402l.533-.33c3.429-2.135 6.018-2.538 7.443-.687zm-6.388 2.385a120.207 120.207 0 0 0-1.165.726 72.68 72.68 0 0 0-1.507.974 49.968 49.968 0 0 0-3.583 2.6c-4.165 3.333-6.656 6.654-6.799 9.76-.216 4.694 4.13 6.744 9.593 6.758 11.814.03 24.993-4.995 29.756-13.26.529-.918.873-1.812.99-2.521.084-.51.033-.78.027-.786-.488-.392-1.127-.077-3.39 1.71-.19.15-.355.28-.575.456l-.495.395c-4.316 3.436-7.168 4.933-12.354 5.74-8.909 1.388-13.152.163-13.152-3.646 0-2.267 1.213-3.775 3.944-5.767.161-.118.332-.24.535-.386l.54-.384c2.11-1.5 2.913-2.916 2.438-3.534-.564-.732-2.152-.485-4.803 1.165zm9.168 5.542c.037-.031-1.907 2.276-4.011 4.482l-.362.376c-.242.25-.485.497-.726.737.68.004 1.44-.027 2.287-.094a26.975 26.975 0 0 0 3.52-3.532c.682-1.413.633-2.145.24-2.242-.373-.092-.586-.033-.948.273zm5.835-1.573c-.17.19-.6.779-1.063 1.422l-.31.434c-.311.434-.612.859-.836 1.172l-.195.273a30.8 30.8 0 0 1-2.861 3.376c.149-.022.3-.045.453-.07a29.627 29.627 0 0 0 2.07-.392 35.297 35.297 0 0 0 3.114-3.15c.754-1.133 1.2-1.984 1.329-2.629.11-.551-.003-.77-.577-.97-.38-.13-.621-.033-1.124.534zm6.785-1.628c-.176.129-.232.139-.338.238l-.043.042c-.22.227-.675.835-2.372 3.068a49.339 49.339 0 0 1-2.378 2.915c1.543-.796 3.05-1.85 4.848-3.276.827-.969 1.317-1.736 1.44-2.28.092-.403-.017-.596-.633-.845-.162-.066-.274-.044-.524.138zm7.643-25.357a2 2 0 0 1 2.013 2.013c-.034 5.064-1.964 9.85-5.535 13.422-3.572 3.57-8.358 5.5-13.422 5.535a2 2 0 0 1-.564-.077l-1.278 1.278a1 1 0 0 1-1.414-1.414l1.302-1.302c-.04-.16-.06-.326-.06-.498.035-5.064 1.965-9.85 5.536-13.422C39.642 7.5 44.43 5.57 49.493 5.536z" class="color-500"/><path fill="#FFF" d="M20.062 28.552a120.207 120.207 0 0 0-1.165.726 72.68 72.68 0 0 0-1.507.974 49.968 49.968 0 0 0-3.583 2.6c-4.165 3.333-6.656 6.654-6.799 9.76-.216 4.694 4.13 6.744 9.593 6.758 11.814.03 24.993-4.995 29.756-13.26.529-.918.873-1.812.99-2.521.084-.51.033-.78.027-.786-.488-.392-1.127-.077-3.39 1.71-.19.15-.355.28-.575.456l-.495.395c-4.316 3.436-7.168 4.933-12.354 5.74-8.909 1.388-13.152.163-13.152-3.646 0-2.267 1.213-3.775 3.944-5.767.161-.118.332-.24.535-.386l.54-.384c2.11-1.5 2.913-2.916 2.438-3.534-.564-.732-2.152-.485-4.803 1.165zm21.505 5.328l-.004-.004c.831-.965 1.32-1.732 1.444-2.276.092-.403-.017-.596-.633-.845-.162-.066-.274-.044-.524.138-.517.378-.002-.27-2.753 3.348a49.339 49.339 0 0 1-2.378 2.915c1.543-.796 3.05-1.85 4.848-3.276zm-9.243 4.856l-.003-.003a34.642 34.642 0 0 0 3.116-3.147l-.008-.005c.762-1.128 1.208-1.98 1.337-2.624.11-.551-.003-.77-.577-.97-.38-.13-.621-.033-1.124.534-.394.444-2.218 3.057-2.532 3.476a30.8 30.8 0 0 1-2.733 3.2 29.627 29.627 0 0 0 2.524-.462v.001zm-8.193.953c.68.004 1.44-.027 2.287-.094a26.975 26.975 0 0 0 3.52-3.532c.682-1.413.633-2.145.24-2.242-.373-.092-.586-.033-.948.273.043-.036-2.631 3.135-5.099 5.595zM38 17.586l5.293-5.293a1 1 0 0 1 1.414 1.414L43.414 15H45a1 1 0 0 1 0 2h-3.586l-7.439 7.439c3.908-.34 7.66-1.961 10.581-4.883 3.28-3.279 4.92-7.604 4.95-12.02-4.417.03-8.742 1.67-12.02 4.95-2.9 2.898-4.518 6.614-4.875 10.489L36 19.585V17a1 1 0 0 1 2 0v.586z" class="french-vanilla-100"/></g></svg>