<svg xmlns="http://www.w3.org/2000/svg" width="56" height="56" class="wd-accent-hand-heart wd-accent" focusable="false" role="presentation" viewBox="0 0 56 56"><g fill="none" fill-rule="evenodd" class="wd-icon-container"><path fill="#005DBA" fill-rule="nonzero" d="M31 11.164c3.574-3.04 8.95-2.877 12.331.488a9.043 9.043 0 0 1 .005 12.826L41.816 26H44.5a3.5 3.5 0 0 1 3.163 5H49a2 2 0 0 1 .666.114C51.068 31.61 52 33.017 52 34.5c0 1.482-.928 2.89-2.33 3.386a2 2 0 0 1-.667.114h-.329c.21.466.326.979.326 1.5 0 1.483-.932 2.89-2.334 3.386A2 2 0 0 1 46 43h-1.337a3.5 3.5 0 0 1-3.163 5H16.006a2 2 0 0 1-.259-.017C9.075 47.114 4 41.313 4 34.5c0-7.12 5.51-12.952 12.5-13.463a9.044 9.044 0 0 1 2.169-9.385c3.38-3.365 8.757-3.528 12.331-.488zm-7.209 18.393C21.654 35.212 15.831 39 9.277 39a15.65 15.65 0 0 1-2.447-.19c1.524 3.807 5 6.646 9.177 7.19h25.494a1.5 1.5 0 0 0 0-3h-14.5a1 1 0 0 1 0-2h19c.583-.206 1-.847 1-1.5s-.417-1.294-1-1.5h-18a1 1 0 0 1 0-2h2.17l-3.38-3.386-.93-.93-.326-.327-.675-.677-.35-.35-.724-.725a.24.24 0 0 0 .005-.048zM31.001 23l-13.763.003C10.941 23.15 6 27.983 6 34c0 .886.105 1.821.296 2.672.968.217 1.966.328 2.98.328 5.95 0 11.154-3.523 12.823-8.622L22.55 27H31c1.058 0 2-.951 2-2s-.942-2-2-2zm18 10H34.826l-2.996 3h17.174c.582-.206.997-.847.997-1.5s-.417-1.294-1-1.5zm-7.08-19.93a7.123 7.123 0 0 0-10.041 0l-.88.876-.88-.876a7.123 7.123 0 0 0-10.04 0 7.046 7.046 0 0 0-1.44 7.933L31 21c2.186 0 4 1.87 4 4s-1.814 4-4 4h-4.993L31 34l10.92-10.936a7.044 7.044 0 0 0 0-9.994zM44.5 28h-4.682l-2.996 3h7.678a1.5 1.5 0 0 0 0-3z" class="color-500"/><path fill="#FFF" d="M23.791 29.557a.24.24 0 0 1-.005.048l.724.725.35.35.675.677.326.326.93.93L30.17 36h-2.17a1 1 0 0 0 0 2h18c.583.206 1 .847 1 1.5s-.417 1.294-1 1.5h-19a1 1 0 0 0 0 2h14.5a1.5 1.5 0 0 1 0 3H16.007c-4.177-.544-7.653-3.383-9.177-7.19a15.65 15.65 0 0 0 2.447.19c6.554 0 12.377-3.788 14.514-9.443zM31.001 23c1.057 0 1.999.951 1.999 2s-.942 2-2 2h-8.45l-.45 1.378C20.43 33.477 15.226 37 9.276 37c-1.015 0-2.013-.111-2.981-.328C6.106 35.822 6 34.886 6 34c0-6.017 4.94-10.85 11.238-10.997L31.001 23zm18 10c.583.206 1 .847 1 1.5s-.415 1.294-.997 1.5H31.83l2.996-3zm-7.08-19.93a7.044 7.044 0 0 1 0 9.994L31 34l-4.993-5H31c2.186 0 4-1.87 4-4s-1.814-4-4-4l-12.36.003a7.046 7.046 0 0 1 1.44-7.933 7.123 7.123 0 0 1 10.04 0l.88.876.88-.876a7.123 7.123 0 0 1 10.04 0zM44.5 28a1.5 1.5 0 1 1 0 3h-7.678l2.996-3z" class="french-vanilla-100"/></g></svg>