<svg xmlns="http://www.w3.org/2000/svg" width="56" height="56" class="wd-accent-hand-gear wd-accent" focusable="false" role="presentation" viewBox="0 0 56 56"><g fill="none" fill-rule="evenodd" class="wd-icon-container"><path fill="#005DBA" fill-rule="nonzero" d="M37 6a2 2 0 0 1 2 2v1.348c.245.058.488.123.728.195l.674-1.167a2 2 0 0 1 2.732-.732l1.732 1a2 2 0 0 1 .732 2.732l-.675 1.17c.182.172.36.349.531.531l1.17-.675a2 2 0 0 1 2.732.732l1 1.732a2 2 0 0 1-.732 2.732l-1.167.674c.072.24.137.483.195.728H50a2 2 0 0 1 2 2v2a2 2 0 0 1-2 2h-1.348a12.91 12.91 0 0 1-.195.728l1.167.674a2 2 0 0 1 .732 2.732l-1 1.732a2 2 0 0 1-.36.457 3.486 3.486 0 0 1-.334 1.681 3.5 3.5 0 0 1 0 6.992c.217.456.338.966.338 1.504 0 1.935-1.565 3.5-3.5 3.5h-.836a3.499 3.499 0 0 1-3.164 5h-24C10.044 50 4 43.956 4 36.5c0-7.09 5.465-12.903 12.412-13.457.194-.028.39-.043.588-.043h3v-2a2 2 0 0 1 2-2h1.348c.058-.245.123-.488.195-.728l-1.167-.674a2 2 0 0 1-.732-2.732l1-1.732a2 2 0 0 1 2.732-.732l1.17.675a13.075 13.075 0 0 1 .531-.531l-.675-1.17a2 2 0 0 1 .732-2.732l1.732-1a2 2 0 0 1 2.732.732l.674 1.167c.24-.072.483-.137.728-.195V8a2 2 0 0 1 2-2h2zM26.62 31h-.208l-1.036.598a1.994 1.994 0 0 1-1.535.195 15.01 15.01 0 0 1-17.069 8.858C8.437 44.951 12.612 48 17.5 48h24a1.499 1.499 0 1 0 0-3H27c-1.333 0-1.333-2 0-2h18.5c.83 0 1.5-.67 1.5-1.5s-.67-1.5-1.5-1.5H28c-1.333 0-1.333-2 0-2h7a2 2 0 0 1-2-2v-1.348a12.91 12.91 0 0 1-.728-.195l-.674 1.167a2 2 0 0 1-2.732.732l-1.732-1a2 2 0 0 1-.732-2.732l.675-1.17c-.156-.147-.309-.299-.458-.454zM33 25H17c-.12 0-.24.01-.354.031C10.694 25.468 6 30.436 6 36.5c0 .655.055 1.298.16 1.924C7.374 38.798 8.663 39 10 39c6.147 0 11.298-4.267 12.652-10H33a2 2 0 1 0 0-4zm6.728 9.457c-.24.072-.483.137-.728.195V36a2 2 0 0 1-2 2h11.5a1.5 1.5 0 0 0 0-3h-3.181a2 2 0 0 1-.453.356l-1.732 1a2 2 0 0 1-2.732-.732zM37 8h-2v3.012l-.835.14c-.685.115-1.355.295-2.002.535l-.792.295-1.505-2.606-1.732 1 1.506 2.608-.65.539a11.071 11.071 0 0 0-1.467 1.466l-.539.651-2.608-1.506-1 1.732 2.606 1.505-.295.792c-.24.647-.42 1.317-.535 2.002l-.14.835H22v2h8.083a6 6 0 1 1 6.807 4.934A4.002 4.002 0 0 1 33 31h-3.379l.02.016-1.507 2.608 1.732 1 1.505-2.606.792.295c.647.24 1.317.42 2.002.535l.835.14V36h2v-3.012l.835-.14a10.914 10.914 0 0 0 2.002-.535l.792-.295 1.505 2.606 1.732-1-1.506-2.608.65-.539a11.073 11.073 0 0 0 1.467-1.466l.539-.651 2.608 1.506 1-1.732-2.606-1.505.295-.792c.24-.647.42-1.317.535-2.002l.14-.835H50v-2h-3.012l-.14-.835a10.914 10.914 0 0 0-.535-2.002l-.295-.792 2.606-1.505-1-1.732-2.608 1.506-.539-.65a11.073 11.073 0 0 0-1.466-1.467l-.651-.539 1.506-2.608-1.732-1-1.505 2.606-.792-.295c-.647-.24-1.317-.42-2.002-.535l-.835-.14V8zm8.454 22.923c-.172.182-.349.36-.531.531l.675 1.17c.066.115.12.233.161.354a1.501 1.501 0 0 0 1.219-1.219 2.01 2.01 0 0 1-.354-.16zM36 18a4 4 0 0 0-3.874 5H33a4.002 4.002 0 0 1 3.85 2.91A4.001 4.001 0 0 0 36 18z" class="color-500"/><path fill="#FFF" d="M23.84 31.793c.5.139 1.052.084 1.536-.195L26.412 31h.207c.15.155.302.307.458.454l-.675 1.17a2 2 0 0 0 .732 2.732l1.732 1a2 2 0 0 0 2.732-.732l.674-1.167c.24.072.483.137.728.195V36a2 2 0 0 0 2 2h2a2 2 0 0 0 2-2v-1.348c.245-.058.488-.123.728-.195l.674 1.167a2 2 0 0 0 2.732.732l1.732-1a2 2 0 0 0 .453-.356H48.5a1.5 1.5 0 0 1 0 3H28c-1.333 0-1.333 2 0 2h17.5c.83 0 1.5.67 1.5 1.5s-.67 1.5-1.5 1.5H27c-1.333 0-1.333 2 0 2h14.5a1.499 1.499 0 1 1 0 3h-24c-4.887 0-9.063-3.049-10.728-7.349a15.01 15.01 0 0 0 17.069-8.858zM33 25a2 2 0 1 1 0 4H22.652C21.298 34.733 16.147 39 10 39c-1.337 0-2.626-.202-3.84-.576A11.577 11.577 0 0 1 6 36.5c0-6.064 4.694-11.032 10.646-11.469.115-.02.233-.031.354-.031zm4-17v3.012l.835.14c.685.115 1.355.295 2.002.535l.792.295 1.505-2.606 1.732 1-1.506 2.608.65.539c.534.442 1.025.933 1.467 1.466l.539.651 2.608-1.506 1 1.732-2.606 1.505.295.792c.24.647.42 1.317.535 2.002l.14.835H50v2h-3.012l-.14.835a10.914 10.914 0 0 1-.535 2.002l-.295.792 2.606 1.505-1 1.732-2.608-1.506-.539.65a11.073 11.073 0 0 1-1.466 1.467l-.651.539 1.506 2.608-1.732 1-1.505-2.606-.792.295c-.647.24-1.317.42-2.002.535l-.835.14V36h-2v-3.012l-.835-.14a10.914 10.914 0 0 1-2.002-.535l-.792-.295-1.505 2.606-1.732-1 1.506-2.608-.019-.016H33a4.002 4.002 0 0 0 3.89-3.066A6.001 6.001 0 0 0 36 16a6 6 0 0 0-5.917 7H22v-2h3.012l.14-.835c.115-.685.295-1.355.535-2.002l.295-.792-2.606-1.505 1-1.732 2.608 1.506.539-.65a11.071 11.071 0 0 1 1.466-1.467l.651-.539-1.506-2.608 1.732-1 1.505 2.606.792-.295c.647-.24 1.317-.42 2.002-.535l.835-.14V8h2zm8.454 22.923l1.17.675c.115.066.233.12.354.161a1.501 1.501 0 0 1-1.219 1.219 2.01 2.01 0 0 0-.16-.354l-.676-1.17c.182-.172.36-.349.531-.531z" class="french-vanilla-100"/></g></svg>