<svg xmlns="http://www.w3.org/2000/svg" width="56" height="56" class="wd-accent-hand-money wd-accent" focusable="false" role="presentation" viewBox="0 0 56 56"><g fill="none" fill-rule="evenodd" class="wd-icon-container"><path fill="#005DBA" fill-rule="nonzero" d="M29.175 7.296a3 3 0 0 0-4.098 1.098l-4.018 6.958a3.5 3.5 0 0 0-4.784 3.583 3.498 3.498 0 0 0-3.253 4.438 3.498 3.498 0 0 0-2.218 5.036 3.5 3.5 0 0 0-.71 5.934l-1.017 1.763a3 3 0 0 0 1.098 4.098l12.99 7.5a3.001 3.001 0 0 0 3.463-.328c.186.12.376.235.568.346 6.457 3.728 14.714 1.516 18.441-4.94 3.728-6.458 1.516-14.714-4.94-18.442l-.434-.25 3-5.196a3 3 0 0 0-1.098-4.098zm3.244 20.348l.89.513a11.44 11.44 0 0 0-1.27 6.176l-4.383 7.593a5.25 5.25 0 0 0-7.172 1.921l-5.629-3.25c.86-1.49.907-3.226.278-4.695a3.486 3.486 0 0 0 1.89-1.559c.378-.655.52-1.382.453-2.081a3.498 3.498 0 0 0 3.065-2.044 6.25 6.25 0 0 0 11.878-2.574zm-19.618 8.241a3.251 3.251 0 0 1 .322 3.712l-1.948-1.125a1 1 0 0 1-.366-1.366l1-1.732.433.25c.181.105.368.192.559.261zm13.855 7.773l-1.125 1.948a1 1 0 0 1-1.366.366l-1.948-1.125a3.25 3.25 0 0 1 4.44-1.19zm6.275-6.868a12.456 12.456 0 0 0 5.693 7.138c.796.46 1.63.827 2.492 1.099-3.59 2.859-8.705 3.397-12.92.963-.145-.083-.287-.17-.428-.259l5.163-8.94zM13.01 30.294l1.732 1a1.5 1.5 0 0 1-1.5 2.598l-1.732-1a1.5 1.5 0 0 1 1.5-2.598zm1.634-4.83l3.464 2a1.5 1.5 0 0 1-1.5 2.598l-3.464-2a1.5 1.5 0 0 1 1.5-2.598zm15.959-4.642l9.093 5.25c5.5 3.175 7.385 10.209 4.21 15.71-.335.578-.711 1.116-1.124 1.613a10.489 10.489 0 0 1-3.158-1.199c-5.022-2.9-6.742-9.321-3.843-14.343.084-.145.17-.288.26-.427l-6.938-4.006a1.5 1.5 0 0 1 1.5-2.598zm-4.058 2.444a3.486 3.486 0 0 0 1.558 1.886l2.174 1.255a4.25 4.25 0 1 1-8.351.85c.381-.278.712-.639.963-1.074.34-.59.49-1.236.467-1.87a4.263 4.263 0 0 1 3.19-1.047zm-9.401-2.132l3.464 2a1.5 1.5 0 0 1-1.5 2.598l-3.464-2a1.5 1.5 0 0 1 1.5-2.598zm3.366-3.83l2.598 1.5a1.5 1.5 0 0 1-1.5 2.598l-2.598-1.5a1.5 1.5 0 0 1 1.5-2.598zm11.345-6.151l5.63 3.25a5.25 5.25 0 0 0 1.921 7.171l-.875 1.516-6.928-4a3.5 3.5 0 0 0-5.142 2.165 6.248 6.248 0 0 0-.803.015 3.501 3.501 0 0 0-1.55-4.198l-1.3-.75 1.876-3.248a5.25 5.25 0 0 0 7.171-1.921zm-3.68-2.125l1.948 1.125a3.25 3.25 0 0 1-4.44 1.19l1.126-1.95a1 1 0 0 1 1.366-.365zm11.042 6.375l1.948 1.125a1 1 0 0 1 .366 1.366l-1.125 1.948a3.25 3.25 0 0 1-1.19-4.44z" class="color-500"/><path fill="#FFF" d="M31.583 30.625a6.25 6.25 0 0 1-11.042-.407 3.498 3.498 0 0 1-3.065 2.043c.067.7-.075 1.427-.453 2.082a3.486 3.486 0 0 1-1.89 1.559 5.242 5.242 0 0 1-.278 4.695l5.63 3.25a5.25 5.25 0 0 1 7.171-1.921l4.733-8.198a12.424 12.424 0 0 1 .987-5.532l-.957-.552a6.222 6.222 0 0 1-.836 2.981zM12.8 35.885a3.522 3.522 0 0 1-.56-.26l-.432-.25-1 1.731a1 1 0 0 0 .366 1.366l1.948 1.125a3.251 3.251 0 0 0-.322-3.712zm13.855 7.773a3.25 3.25 0 0 0-4.44 1.19l1.95 1.124a1 1 0 0 0 1.365-.366l1.125-1.948zm6.275-6.868l-5.163 8.941c.14.09.283.176.428.26 4.215 2.433 9.33 1.895 12.92-.964a12.585 12.585 0 0 1-2.492-1.099l-.27-.16a12.68 12.68 0 0 1-1.535-1.104l-.019-.016-.178-.153a12.428 12.428 0 0 1-1.988-2.218l-.01-.015a12.445 12.445 0 0 1-1.693-3.472l.066.21a12.574 12.574 0 0 1-.047-.147l-.02-.063zM13.01 30.294a1.5 1.5 0 0 0-1.5 2.598l1.732 1a1.5 1.5 0 0 0 1.5-2.598zm1.634-4.83a1.5 1.5 0 0 0-1.5 2.598l3.464 2a1.5 1.5 0 0 0 1.5-2.598zm15.959-4.642a1.5 1.5 0 0 0-1.5 2.598l6.938 4.006c-.09.14-.176.282-.26.427-2.9 5.022-1.179 11.444 3.843 14.343 1.01.583 2.075.979 3.158 1.2.413-.498.79-1.036 1.123-1.615 3.176-5.5 1.292-12.534-4.209-15.71zm-7.247 3.491a3.484 3.484 0 0 1-.467 1.87 3.488 3.488 0 0 1-.963 1.075 4.25 4.25 0 1 0 8.351-.85l-2.174-1.256a3.486 3.486 0 0 1-1.557-1.885 4.257 4.257 0 0 0-3.19 1.046zm-6.212-3.179a1.5 1.5 0 0 0-1.5 2.598l3.464 2a1.5 1.5 0 0 0 1.5-2.598zm3.366-3.83a1.5 1.5 0 0 0-1.5 2.598l2.598 1.5a1.5 1.5 0 0 0 1.5-2.598zm11.345-6.151a5.25 5.25 0 0 1-7.171 1.921l-1.875 3.248 1.299.75a3.501 3.501 0 0 1 1.55 4.198c.266-.022.534-.027.803-.015a3.5 3.5 0 0 1 5.142-2.166l6.928 4 .875-1.515a5.25 5.25 0 0 1-1.922-7.171l-5.629-3.25zm-3.68-2.125a1 1 0 0 0-1.366.366l-1.125 1.948a3.25 3.25 0 0 0 4.44-1.19l-1.95-1.124zm11.042 6.375a3.25 3.25 0 0 0 1.19 4.44l1.124-1.95a1 1 0 0 0-.366-1.365l-1.948-1.125z" class="french-vanilla-100"/></g></svg>