<svg xmlns="http://www.w3.org/2000/svg" width="56" height="56" class="wd-accent-hands-heart wd-accent" focusable="false" role="presentation" viewBox="0 0 56 56"><g fill="none" fill-rule="evenodd" class="wd-icon-container"><path fill="#005DBA" fill-rule="nonzero" d="M35.81 16.093c1.587-1.623 1.587-4.272 0-5.895a3.913 3.913 0 0 0-5.635 0L28 12.422l-2.175-2.224a3.913 3.913 0 0 0-5.635 0c-1.587 1.623-1.587 4.272.004 5.899L28 24.13l7.81-8.037zM49.068 15c1.146.02 1.916.52 2.233 1.522.14.44.19.835.198 1.655v.378c0 .272-.005.584-.011.947-.035 1.939-.59 3.765-2.253 7.916-1.64 4.095-2.337 5.412-3.756 6.838-.671.675-1.485 1.118-3.01 1.765l-.278.118c-1.57.662-2.157.964-2.581 1.385-1.412 1.4-1.935 4.457-.641 10.271a.99.99 0 0 1-.761 1.182 1 1 0 0 1-1.191-.755c-1.427-6.413-.788-10.149 1.18-12.1.681-.676 1.371-1.03 3.211-1.806l.274-.116c1.287-.547 1.946-.905 2.374-1.336 1.17-1.176 1.777-2.323 3.322-6.178 1.572-3.924 2.083-5.604 2.111-7.219.043-2.427.027-2.477-.456-2.485-.11-.002-.223.127-.353.606-.133.492-.175 1.013-.19 1.862-.018 1.023-.432 2.07-1.34 3.716-.205.37-1.011 1.777-1.362 2.397-.047.428-.214.86-.493 1.284-.433.659-.874 1.081-2.28 2.3-.812.703-1.237 1.09-1.68 1.55-.487.504-.87.984-1.163 1.466-.284.469-.898.62-1.37.339a.986.986 0 0 1-.342-1.36c.375-.62.849-1.211 1.43-1.815.497-.515.954-.932 1.81-1.672 2.04-1.769 2.33-2.209 1.923-2.685-.262-.308-.661-.183-2.093.964l-.365.29-.178.14c-.393.306-.856.658-1.823 1.39-1.652 1.248-2.53 1.941-3.463 2.76-.411.362-.793.717-1.15 1.07-1.918 1.903-3.416 8.563-3.553 16.304a.995.995 0 0 1-1.016.973.995.995 0 0 1-.982-1.008c.145-8.231 1.731-15.283 4.138-17.67a28.09 28.09 0 0 1 1.237-1.152c.98-.86 1.887-1.576 3.577-2.854 1.028-.777 1.479-1.12 1.883-1.437l.172-.135.267-.213c1.998-1.6 3.32-2.109 4.502-1.083.27-.475.522-.916.62-1.094.758-1.373 1.085-2.2 1.096-2.8.018-1.008.069-1.641.258-2.341.34-1.254 1.081-2.095 2.318-2.074zM6.932 15c1.237-.021 1.978.82 2.318 2.074.19.7.24 1.333.258 2.342.01.599.338 1.426 1.096 2.799.098.178.35.619.62 1.094 1.182-1.026 2.504-.517 4.502 1.083l.267.213.172.135c.404.317.855.66 1.883 1.437 1.69 1.278 2.597 1.993 3.577 2.854.44.388.85.77 1.237 1.152 2.407 2.387 3.993 9.439 4.138 17.67a.995.995 0 0 1-.982 1.008.995.995 0 0 1-1.016-.973c-.137-7.74-1.635-14.401-3.554-16.304a26.111 26.111 0 0 0-1.15-1.07c-.931-.819-1.81-1.512-3.462-2.76-.967-.732-1.43-1.084-1.823-1.39l-.178-.14a60.934 60.934 0 0 1-.365-.29c-1.432-1.147-1.83-1.272-2.093-.964-.407.476-.118.916 1.924 2.685.855.74 1.312 1.157 1.809 1.672.581.604 1.055 1.196 1.43 1.815a.986.986 0 0 1-.341 1.36 1.004 1.004 0 0 1-1.371-.34c-.292-.48-.676-.96-1.163-1.466-.443-.46-.868-.846-1.68-1.549-1.406-1.219-1.847-1.641-2.28-2.3-.279-.425-.446-.856-.493-1.284-.35-.62-1.157-2.026-1.361-2.397-.909-1.646-1.323-2.693-1.341-3.716-.015-.849-.057-1.37-.19-1.862-.13-.479-.244-.608-.353-.606-.483.008-.499.058-.456 2.485.028 1.615.539 3.295 2.111 7.219 1.545 3.855 2.151 5.002 3.322 6.178.428.43 1.087.789 2.374 1.336l.274.116c1.84.776 2.53 1.13 3.212 1.806 1.967 1.951 2.606 5.687 1.18 12.1a1 1 0 0 1-1.192.755.99.99 0 0 1-.76-1.182c1.293-5.814.77-8.871-.642-10.271-.424-.421-1.012-.723-2.58-1.385l-.28-.118c-1.524-.647-2.338-1.09-3.01-1.765-1.418-1.426-2.114-2.743-3.755-6.838-1.664-4.15-2.218-5.977-2.253-7.916-.006-.363-.01-.675-.012-.947v-.378c.008-.82.06-1.215.199-1.655C5.016 15.52 5.786 15.02 6.932 15zM37.24 8.8c2.347 2.4 2.347 6.29 0 8.69L28 27l-9.24-9.51c-2.347-2.4-2.347-6.29 0-8.69a5.91 5.91 0 0 1 7.977-.473L28 9.561l1.263-1.234a5.91 5.91 0 0 1 7.977.473z" class="color-500"/><path fill="#FFF" d="M35.81 16.093c1.587-1.623 1.587-4.272 0-5.895a3.913 3.913 0 0 0-5.635 0L28 12.422l-2.175-2.224a3.913 3.913 0 0 0-5.635 0c-1.587 1.623-1.587 4.272.004 5.899L28 24.13l7.81-8.037z" class="french-vanilla-100"/></g></svg>