<svg xmlns="http://www.w3.org/2000/svg" width="56" height="56" class="wd-accent-handshake-heart-coins wd-accent" focusable="false" role="presentation" viewBox="0 0 56 56"><g fill="none" fill-rule="nonzero" class="wd-icon-container"><path fill="#005DBA" d="M48.8 34h-1.796c.52 1.247.851 2.592.958 4h1.993a10.93 10.93 0 0 0-1.154-4zm-1.314-2a11.027 11.027 0 0 0-4.492-3.253A13.07 13.07 0 0 1 45.956 32h1.53zM48.8 44a10.93 10.93 0 0 0 1.154-4h-1.993a12.926 12.926 0 0 1-.958 4H48.8zm-1.315 2h-1.53a13.07 13.07 0 0 1-2.962 3.253A11.027 11.027 0 0 0 47.486 46zM23.25 44.57l-.447.447a3.5 3.5 0 0 1-5.926-1.894 3.498 3.498 0 0 1-3.266-.935 3.498 3.498 0 0 1-.935-3.266 3.5 3.5 0 0 1-1.893-5.927l1.06-1.06-3.889-3.89C2.69 22.782 2.682 14.252 7.932 8.978l.022-.023A13.458 13.458 0 0 1 17.5 5c3.455 0 6.91 1.318 9.546 3.954l.36.36c.113-.122.229-.242.347-.36 5.272-5.272 13.82-5.272 19.092 0 5.272 5.272 5.272 13.82 0 19.092l-.339.339A12.984 12.984 0 0 1 52 39c0 7.18-5.82 13-13 13h-4c-5.187 0-9.664-3.037-11.75-7.43zm-.77-2.058a13.011 13.011 0 0 1-.478-3.766l-2.734 2.735a1.5 1.5 0 1 0 2.121 2.121l1.09-1.09zm.019-7.09c1.37-4.798 5.428-8.462 10.441-9.26l-6.204-6.205a16.43 16.43 0 0 1-.164.078L12.197 34.41a1.5 1.5 0 0 0 2.121 2.121l13.09-13.09a.995.995 0 0 1 1.41.005c.39.395.389 1.025 0 1.414L15.025 38.653a1.5 1.5 0 1 0 2.121 2.12l5.353-5.351zm22.234-8.093l.698-.697c4.49-4.491 4.49-11.773 0-16.264-4.491-4.49-11.773-4.49-16.264 0-.118.119-.234.24-.346.361l10.6 10.6a4.002 4.002 0 0 1 .697 4.718c1.645.14 3.202.587 4.615 1.282zM37.37 26a2 2 0 0 0 .636-3.257L25.632 10.368c-4.491-4.49-11.773-4.49-16.264 0-.78.78-1.423 1.643-1.932 2.561a14.557 14.557 0 0 0 1.932 2.389c4.81 4.81 12.157 5.534 17.73 2.174l8.08 8.08c.188.188.405.33.636.428h1.556zM6.515 15.09a11.499 11.499 0 0 0 2.853 11.542l3.89 3.889 9.197-9.197a16.505 16.505 0 0 1-15.94-6.233zM35 50c6.075 0 11-4.925 11-11s-4.925-11-11-11-11 4.925-11 11 4.925 11 11 11zm0-3a8 8 0 1 1 0-16 8 8 0 0 1 0 16zm0-2a6 6 0 1 0 0-12 6 6 0 0 0 0 12z" class="color-500"/><path fill="#FFF" d="M48.8 34h-1.796c.52 1.247.851 2.592.958 4h1.993a10.93 10.93 0 0 0-1.154-4zm-1.314-2a11.027 11.027 0 0 0-4.492-3.253A13.07 13.07 0 0 1 45.956 32h1.53zM48.8 44a10.93 10.93 0 0 0 1.154-4h-1.993a12.926 12.926 0 0 1-.958 4H48.8zm-1.315 2h-1.53a13.07 13.07 0 0 1-2.962 3.253A11.027 11.027 0 0 0 47.486 46zM22.48 42.512a13.011 13.011 0 0 1-.478-3.766l-2.734 2.735a1.5 1.5 0 1 0 2.121 2.121l1.09-1.09zm.019-7.09c1.37-4.798 5.428-8.462 10.441-9.26l-6.204-6.205a16.43 16.43 0 0 1-.164.078L12.197 34.41a1.5 1.5 0 0 0 2.121 2.121l13.09-13.09a.995.995 0 0 1 1.41.005c.39.395.389 1.025 0 1.414L15.025 38.653a1.5 1.5 0 1 0 2.121 2.12l5.353-5.351zm22.234-8.093l.698-.697c4.49-4.491 4.49-11.773 0-16.264-4.491-4.49-11.773-4.49-16.264 0-.118.119-.234.24-.346.361l10.6 10.6a4.002 4.002 0 0 1 .697 4.718c1.645.14 3.202.587 4.615 1.282zM37.37 26a2 2 0 0 0 .636-3.257L25.632 10.368c-4.491-4.49-11.773-4.49-16.264 0-.78.78-1.423 1.643-1.932 2.561a14.557 14.557 0 0 0 1.932 2.389c4.81 4.81 12.157 5.534 17.73 2.174l8.08 8.08c.188.188.405.33.636.428h1.556zM6.515 15.09a11.499 11.499 0 0 0 2.853 11.542l3.89 3.889 9.197-9.197a16.505 16.505 0 0 1-15.94-6.233zM35 50c6.075 0 11-4.925 11-11s-4.925-11-11-11-11 4.925-11 11 4.925 11 11 11zm0-3a8 8 0 1 1 0-16 8 8 0 0 1 0 16zm0-2a6 6 0 1 0 0-12 6 6 0 0 0 0 12z" class="french-vanilla-100"/></g></svg>