<svg xmlns="http://www.w3.org/2000/svg" width="56" height="56" class="wd-accent-handshake wd-accent" focusable="false" role="presentation" viewBox="0 0 56 56"><g fill="none" fill-rule="nonzero" class="wd-icon-container"><path fill="#005DBA" d="M44.556 29.996l.304.304a3.5 3.5 0 0 1-2.51 5.974 3.5 3.5 0 0 1-4.623 3.351 3.501 3.501 0 0 1-5.397 2.104l-1.127 1.127a3.5 3.5 0 0 1-5.778-1.315 3.5 3.5 0 0 1-5.645-1.915 3.5 3.5 0 0 1-4.623-3.352 3.5 3.5 0 0 1-2.51-5.975l.303-.303h-2.92l-.06.348A2 2 0 0 1 8 31.996H6a2 2 0 0 1-2-2v-17a2 2 0 0 1 2-2h5a2 2 0 0 1 2 2h8.525a15 15 0 0 1 5.737 1.213l.928-.928a9.392 9.392 0 0 1 10.063-2.105l3.179 1.244a10 10 0 0 0 1.57.47A2.001 2.001 0 0 1 45 10.996h5a2 2 0 0 1 2 2v17a2 2 0 0 1-2 2h-2a2 2 0 0 1-1.97-1.652l-.06-.348h-1.414zm-2-2h3.06L43.32 14.978a12 12 0 0 1-2.616-.696l-3.178-1.243a7.392 7.392 0 0 0-7.92 1.656l-8.13 8.13a1.5 1.5 0 0 0 2.121 2.121l5.01-5.01a1 1 0 0 1 1.337-.07c1.323 1.07 2.65 1.849 3.991 2.337a9.909 9.909 0 0 0 3.443.614c1.443-.004 2.905-.331 4.394-.978a1 1 0 1 1 .797 1.834c-1.12.487-2.235.818-3.34.994l3.328 3.33zm-29.878-13l-2.294 13h3.06a2 2 0 0 1 1.213.41 3.501 3.501 0 0 1 5.235 1.959 3.502 3.502 0 0 1 4.89 1.94l.178-.177a3.5 3.5 0 0 1 5.85 3.403 3.5 3.5 0 0 1 2.65 4.55c.243.166.522.254.804.264a1.496 1.496 0 0 0 1.51-1.153 1.5 1.5 0 0 0-.4-1.407l-2.01-2.01a1 1 0 1 1 1.414-1.415l3.01 3.01a1.5 1.5 0 0 0 2.121-2.121l-3.01-3.01a1 1 0 0 1 1.415-1.414l3.01 3.01a1.497 1.497 0 0 0 2.121 0 1.5 1.5 0 0 0 0-2.121l-6.925-6.926c-2.431-.174-4.812-1.115-7.121-2.816L25.01 26.36a3.5 3.5 0 1 1-4.95-4.95l5.66-5.658a13.038 13.038 0 0 0-4.22-.756h-8.822zM17.596 30.3a1.5 1.5 0 0 0-2.121 0l-1.414 1.414a1.5 1.5 0 1 0 2.121 2.121l1.414-1.414a1.5 1.5 0 0 0 0-2.121zm4.95 2.121a1.5 1.5 0 0 0-2.121 0l-2.829 2.828a1.5 1.5 0 1 0 2.122 2.122l2.828-2.829a1.5 1.5 0 0 0 0-2.121zm5.95 1.121a1.5 1.5 0 0 0-2.122 0l-4.242 4.243a1.5 1.5 0 1 0 2.121 2.121l4.243-4.242a1.5 1.5 0 0 0 0-2.122zm2.707 4.364a1.5 1.5 0 0 0-2.122 0l-1.414 1.414a1.5 1.5 0 0 0 2.122 2.122l1.414-1.414a1.5 1.5 0 0 0 0-2.122zM6 12.996v17h2l3-17H6zm39 0l3 17h2v-17h-5z" class="color-500"/><path fill="#FFF" d="M42.556 27.996h3.06L43.32 14.978a12 12 0 0 1-2.616-.696l-3.178-1.244a7.392 7.392 0 0 0-7.92 1.657l-8.13 8.13a1.5 1.5 0 0 0 2.121 2.121l5.01-5.01a1 1 0 0 1 1.337-.07c1.323 1.07 2.65 1.849 3.991 2.336a9.909 9.909 0 0 0 3.443.615c1.443-.004 2.905-.331 4.394-.978a1 1 0 0 1 .797 1.834c-1.12.487-2.235.818-3.34.994l3.328 3.33zm-29.878-13l-2.294 13h3.06a2 2 0 0 1 1.213.41 3.501 3.501 0 0 1 5.235 1.958 3.502 3.502 0 0 1 4.89 1.942l.178-.178a3.5 3.5 0 0 1 5.85 3.403 3.5 3.5 0 0 1 2.65 4.55c.243.166.522.254.804.264a1.496 1.496 0 0 0 1.51-1.153 1.5 1.5 0 0 0-.4-1.407l-2.01-2.01a1 1 0 0 1 1.414-1.415l3.01 3.01.064.06a1.5 1.5 0 0 0 2.058-2.18l-3.01-3.011a1 1 0 0 1 1.414-1.414l3.01 3.01a1.497 1.497 0 0 0 2.121 0 1.5 1.5 0 0 0 0-2.121l-6.925-6.926c-2.431-.174-4.812-1.115-7.121-2.816L25.01 26.36a3.5 3.5 0 1 1-4.95-4.95l5.66-5.658a13.038 13.038 0 0 0-4.22-.756h-8.822zM17.596 30.3a1.5 1.5 0 0 0-2.121 0l-1.414 1.414a1.5 1.5 0 1 0 2.121 2.121l1.414-1.414a1.5 1.5 0 0 0 0-2.121zm4.95 2.12a1.5 1.5 0 0 0-2.121 0l-2.829 2.83a1.5 1.5 0 1 0 2.122 2.12l2.828-2.828a1.5 1.5 0 0 0 0-2.121zm5.95 1.122a1.5 1.5 0 0 0-2.122 0l-4.242 4.243a1.5 1.5 0 1 0 2.121 2.121l4.243-4.242a1.5 1.5 0 0 0 0-2.122zm2.707 4.364a1.5 1.5 0 0 0-2.122 0l-1.414 1.414a1.5 1.5 0 0 0 2.122 2.122l1.414-1.414a1.5 1.5 0 0 0 0-2.122zM6 12.996v17h2l3-17H6zm39 0l3 17h2v-17h-5z" class="french-vanilla-100"/></g></svg>