<svg xmlns="http://www.w3.org/2000/svg" width="56" height="56" class="wd-accent-hand-coin wd-accent" focusable="false" role="presentation" viewBox="0 0 56 56"><g fill="none" fill-rule="nonzero" class="wd-icon-container"><path fill="#005DBA" d="M31.337 43.005H28a1 1 0 1 1 0-2h5.337a3.486 3.486 0 0 1-.337-1.5c0-.537.12-1.045.337-1.5H29a1 1 0 1 1 0-2h5.337a3.486 3.486 0 0 1-.337-1.5c0-.537.12-1.045.337-1.5H32a1 1 0 1 1 0-2h1.412a11.004 11.004 0 0 1-1.977-2.285H24.73c-1.953 5.965-7.686 10.285-14.454 10.285-.832 0-1.647-.065-2.442-.19 1.705 4.216 5.838 7.19 10.665 7.19h12.837a3.486 3.486 0 0 1-.337-1.5c0-.537.12-1.045.337-1.5zm8.628 2h.002c-.195 1.466-1.232 2.638-2.567 2.93l-.2.07H18.5c-7.456 0-13.5-6.044-13.5-13.5l.001-.162-.001-.16c0-6.756 5.217-12.325 11.94-13.089a13.643 13.643 0 0 1 1.878-.085l10.21-.003c-.019-.33-.028-.664-.028-1 0-6.897 3.907-12.63 9-12.983V7l1.005.005 5.1.032C48.645 7.515 52 13.225 52 20.005c0 3.968-1.149 7.57-3.031 9.97a3.5 3.5 0 0 1-3.469 3.03h-.837a3.486 3.486 0 0 1 .307 1.964h.002c-.135 1.093-.737 2.026-1.583 2.56a3.5 3.5 0 0 1-2.889 5.477h-.813v.051a3.487 3.487 0 0 1 .278 1.948zm-2.465-9h4a1.5 1.5 0 0 0 0-3h-4a1.5 1.5 0 0 0 0 3zm-3.84-7.621c1.32 1.639 3.018 2.621 4.84 2.621 4.054 0 7.5-4.865 7.5-11 0-6.134-3.446-11-7.5-11s-7.5 4.866-7.5 11c0 .338.01.671.03 1h1.006a13.883 13.883 0 0 1-.036-1c0-4.9 2.562-9 6-9s6 4.1 6 9-2.562 9-6 9c-1.202 0-2.298-.501-3.214-1.363a3.971 3.971 0 0 1-1.126.742zm2.201-2.506c.633.715 1.375 1.127 2.139 1.127 2.085 0 4-3.064 4-7s-1.915-7-4-7-4 3.064-4 7c0 .54.036 1.063.103 1.564 1.138.677 1.897 1.899 1.897 3.293 0 .352-.048.692-.139 1.016zm13.416-.873c.374-1.217.618-2.568.696-4h-2a17.085 17.085 0 0 1-.696 4h2zm-.79 2h-1.97c-.743 1.598-1.735 2.96-2.907 3.98h.285c1.81-.191 3.464-1.696 4.593-3.98zm.792-12h-2.002c.378 1.25.618 2.595.695 4h2a16.878 16.878 0 0 0-.693-4zm-.782-2c-1.117-2.283-2.747-3.786-4.502-3.974l-.38-.001c1.17 1.02 2.16 2.38 2.901 3.975h1.981zM18.238 23.01C11.985 23.154 7 28.124 7 34.184c0 .848.097 1.681.287 2.49.97.22 1.972.331 2.99.331 5.785 0 10.833-3.652 12.554-8.908l.45-1.377h8.762c1.092 0 1.957-.844 1.957-1.858 0-1.014-.865-1.857-1.957-1.857H18.38l-.142.004zM36.5 38.005a1.5 1.5 0 0 0 0 3h4a1.5 1.5 0 0 0 0-3h-4zm-2 5a1.5 1.5 0 0 0 0 3h2a1.5 1.5 0 0 0 0-3h-2z" class="color-500"/><path fill="#FFF" d="M31.337 43.005H28a1 1 0 1 1 0-2h5.337a3.486 3.486 0 0 1-.337-1.5c0-.537.12-1.045.337-1.5H29a1 1 0 1 1 0-2h5.337a3.486 3.486 0 0 1-.337-1.5c0-.537.12-1.045.337-1.5H32a1 1 0 1 1 0-2h1.412a11.004 11.004 0 0 1-1.977-2.285H24.73c-1.953 5.965-7.686 10.285-14.454 10.285-.832 0-1.647-.065-2.442-.19 1.705 4.216 5.838 7.19 10.665 7.19h12.837a3.486 3.486 0 0 1-.337-1.5c0-.537.12-1.045.337-1.5zm6.163-7h4a1.5 1.5 0 0 0 0-3h-4a1.5 1.5 0 0 0 0 3zm-3.84-7.621c1.32 1.639 3.018 2.621 4.84 2.621 4.054 0 7.5-4.865 7.5-11 0-6.134-3.446-11-7.5-11s-7.5 4.866-7.5 11c0 .338.01.671.03 1h1.006a13.883 13.883 0 0 1-.036-1c0-4.9 2.562-9 6-9s6 4.1 6 9-2.562 9-6 9c-1.202 0-2.298-.501-3.214-1.363a3.971 3.971 0 0 1-1.126.742zm2.201-2.506c.633.715 1.375 1.127 2.139 1.127 2.085 0 4-3.064 4-7s-1.915-7-4-7-4 3.064-4 7c0 .54.036 1.063.103 1.564 1.138.677 1.897 1.899 1.897 3.293 0 .352-.048.692-.139 1.016zm13.416-.873c.374-1.217.618-2.568.696-4h-2a17.085 17.085 0 0 1-.696 4h2zm-.79 2h-1.97c-.743 1.598-1.735 2.96-2.907 3.98h.285c1.81-.191 3.464-1.696 4.593-3.98zm.792-12h-2.002c.378 1.25.618 2.595.695 4h2a16.878 16.878 0 0 0-.693-4zm-.782-2c-1.117-2.283-2.747-3.786-4.502-3.974l-.38-.001c1.17 1.02 2.16 2.38 2.901 3.975h1.981zM18.238 23.01C11.985 23.154 7 28.124 7 34.184c0 .848.097 1.681.287 2.49.97.22 1.972.331 2.99.331 5.785 0 10.833-3.652 12.554-8.908l.45-1.377h8.762c1.092 0 1.957-.844 1.957-1.858 0-1.014-.865-1.857-1.957-1.857H18.38l-.142.004zM36.5 38.005a1.5 1.5 0 0 0 0 3h4a1.5 1.5 0 0 0 0-3h-4zm-2 5a1.5 1.5 0 0 0 0 3h2a1.5 1.5 0 0 0 0-3h-2z" class="french-vanilla-100"/></g></svg>