<svg xmlns="http://www.w3.org/2000/svg" width="56" height="56" class="wd-accent-happy-face wd-accent" focusable="false" role="presentation" viewBox="0 0 56 56"><g fill="none" fill-rule="evenodd" class="wd-icon-container"><path fill="#005DBA" fill-rule="nonzero" d="M28 4c13.255 0 24 10.745 24 24S41.255 52 28 52 4 41.255 4 28 14.745 4 28 4zm0 2C15.85 6 6 15.85 6 28s9.85 22 22 22 22-9.85 22-22S40.15 6 28 6zm13.151 25.05a1 1 0 0 1 .635 1.265 14.086 14.086 0 0 1-26.735.009 1 1 0 1 1 1.898-.63 12.086 12.086 0 0 0 22.938-.009 1 1 0 0 1 1.264-.634zM36.72 19a3.866 3.866 0 0 1 3.668 2.646 1 1 0 1 1-1.898.63 1.866 1.866 0 0 0-3.54.001 1 1 0 0 1-1.9-.629A3.866 3.866 0 0 1 36.72 19zm-17 0a3.866 3.866 0 0 1 3.668 2.646 1 1 0 1 1-1.898.63 1.866 1.866 0 0 0-3.54.001 1 1 0 0 1-1.9-.629A3.866 3.866 0 0 1 19.72 19z" class="color-500"/><path fill="#FFF" d="M28 6c12.15 0 22 9.85 22 22s-9.85 22-22 22S6 40.15 6 28 15.85 6 28 6zm13.151 25.05a1 1 0 0 0-1.264.635 12.086 12.086 0 0 1-22.938.008 1 1 0 1 0-1.898.63 14.086 14.086 0 0 0 26.735-.008 1 1 0 0 0-.635-1.264zM36.72 19a3.866 3.866 0 0 0-3.67 2.648 1 1 0 0 0 1.9.63 1.866 1.866 0 0 1 3.54-.002 1 1 0 0 0 1.898-.63A3.866 3.866 0 0 0 36.72 19zm-17 0a3.866 3.866 0 0 0-3.67 2.648 1 1 0 0 0 1.9.63 1.866 1.866 0 0 1 3.54-.002 1 1 0 0 0 1.898-.63A3.866 3.866 0 0 0 19.72 19z" class="french-vanilla-100"/></g></svg>