<svg xmlns="http://www.w3.org/2000/svg" width="56" height="56" class="wd-accent-headset wd-accent" focusable="false" role="presentation" viewBox="0 0 56 56"><g fill="none" fill-rule="evenodd" class="wd-icon-container"><path fill="#005DBA" fill-rule="nonzero" d="M32 48h3c5.523 0 10-4.477 10-10V25c0-9.389-7.611-17-17-17s-17 7.611-17 17v10a2 2 0 0 1-2 2H6a2 2 0 0 1-2-2V25a2 2 0 0 1 2-2h3c.035 0 .07 0 .104.003C10.102 13.448 18.18 6 28 6s17.898 7.448 18.896 17.003L47 23h3a2 2 0 0 1 2 2v10a2 2 0 0 1-2 2h-3v1c0 6.627-5.373 12-12 12H25v-3a2 2 0 0 1 2-2h3a2 2 0 0 1 2 2v1zm15-23v10h3V25h-3zM6 25v10h3V25H6z" class="color-500"/><path fill="#FFF" d="M47 25h3v10h-3zM6 25h3v10H6z" class="french-vanilla-100"/></g></svg>