<svg xmlns="http://www.w3.org/2000/svg" width="56" height="56" class="wd-accent-head-memory wd-accent" focusable="false" role="presentation" viewBox="0 0 56 56"><g fill="none" fill-rule="nonzero" class="wd-icon-container"><path fill="#005DBA" d="M23 25a1 1 0 0 1 2 0v6h-6a1 1 0 0 1 0-2h2.449A10.981 10.981 0 0 1 18 21c0-6.075 4.925-11 11-11s11 4.925 11 11-4.925 11-11 11a1 1 0 0 1 0-2 9 9 0 1 0-6-2.29V25zm-11.11 9.044l-.238-.061-.259-.065C9.146 33.354 8 32.635 8 30.5c0-.904.354-1.626 1.014-2.525.266-.362 1.292-1.622 1.411-1.775 1.037-1.33 1.533-2.32 1.577-3.291.175-3.833 1.023-7.716 2.93-11.082C17.73 6.889 22.388 4 29 4c6.621 0 11.498 2.602 14.563 7.143C45.886 14.586 47 18.95 47 23c0 4.909-2.666 10.114-7.421 16.228-.65.835-.302 2.69 1.61 5.7a2 2 0 0 1-1.204 3.012l-16 4a2 2 0 0 1-2.47-1.692l-.763-6.107c-4.56.21-7.48-.805-8.192-3.656-.095-.38-.119-.749-.157-1.833l-.038-1.092a64.411 64.411 0 0 0-.053-1.174c-.053-.94-.124-1.678-.22-2.204a.309.309 0 0 0-.203-.138zM29 6C15.92 6 14.205 18.5 14 23c-.16 3.527-4 6-4 7.5s2.076 1.288 3.5 2c1 .5.802 6.71 1 7.5.4 1.6 2.453 2.314 6.16 2.143a2 2 0 0 1 2.077 1.75L23.5 50l16-4c-2.314-3.644-2.814-6.31-1.5-8 3.5-4.5 7-10 7-15 0-5.968-2.92-17-16-17zm4 15a1 1 0 0 1 0 2h-4a1 1 0 0 1-.928-.629l-2-5a1 1 0 0 1 1.856-.742L29.677 21H33z" class="color-500"/><path fill="#FFF" d="M23 25a1 1 0 0 1 2 0v6h-6a1 1 0 0 1 0-2h2.449A10.981 10.981 0 0 1 18 21c0-6.075 4.925-11 11-11s11 4.925 11 11-4.925 11-11 11a1 1 0 0 1 0-2 9 9 0 1 0-6-2.29V25zm6-19C15.92 6 14.205 18.5 14 23c-.16 3.527-4 6-4 7.5s2.076 1.288 3.5 2c1 .5.802 6.71 1 7.5.4 1.6 2.453 2.314 6.16 2.143a2 2 0 0 1 2.077 1.75L23.5 50l16-4c-2.314-3.644-2.814-6.31-1.5-8 3.5-4.5 7-10 7-15 0-5.968-2.92-17-16-17zm4 15a1 1 0 0 1 0 2h-4a1 1 0 0 1-.928-.629l-2-5a1 1 0 0 1 1.856-.742L29.677 21H33z" class="french-vanilla-100"/></g></svg>