<svg xmlns="http://www.w3.org/2000/svg" width="56" height="56" class="wd-accent-head-lightbulb wd-accent" focusable="false" role="presentation" viewBox="0 0 56 56"><g fill="none" fill-rule="nonzero" class="wd-icon-container"><path fill="#005DBA" d="M32.47 25c.392-1.411.99-2.764 1.781-4.014.501-.777.749-1.748.749-2.907C35 15.274 32.761 13 30 13s-5 2.274-5 5.08c0 1.16.248 2.13.744 2.913A15 15 0 0 1 27.526 25h4.944zm-.411 2h-4.12a15 15 0 0 1 .138 2.027L31.923 29c0-.671.046-1.34.136-2zM33 30.686V32a2 2 0 0 1-2 2h-2a2 2 0 0 1-2-2v-1.257c-.535-.313-.923-.885-.923-1.716a13 13 0 0 0-2.022-6.963C23.343 20.941 23 19.6 23 18.08 23 14.177 26.127 11 30 11s7 3.177 7 7.08c0 1.517-.342 2.858-1.053 3.98-.029.046-.06.09-.092.134a13.007 13.007 0 0 0-1.932 6.808c0 .707-.368 1.329-.923 1.684zM31 31h-2v1h2v-1zm-18.11 3.044l-.238-.061-.259-.065C10.146 33.354 9 32.635 9 30.5c0-.904.354-1.626 1.014-2.525.266-.362 1.292-1.622 1.411-1.775 1.037-1.33 1.533-2.32 1.577-3.291.175-3.833 1.023-7.716 2.93-11.082C18.73 6.889 23.388 4 30 4c6.621 0 11.498 2.602 14.563 7.143C46.886 14.586 48 18.95 48 23c0 4.909-2.666 10.114-7.421 16.228-.65.835-.302 2.69 1.61 5.7a2 2 0 0 1-1.204 3.012l-16 4a2 2 0 0 1-2.47-1.692l-.763-6.107c-4.56.21-7.48-.805-8.192-3.656-.095-.38-.119-.749-.157-1.833l-.038-1.092a64.411 64.411 0 0 0-.053-1.174c-.053-.94-.124-1.678-.22-2.204a.309.309 0 0 0-.203-.138zM30 6C16.92 6 15.205 18.5 15 23c-.16 3.527-4 6-4 7.5s2.076 1.288 3.5 2c1 .5.802 6.71 1 7.5.4 1.6 2.453 2.314 6.16 2.143a2 2 0 0 1 2.077 1.75L24.5 50l16-4c-2.314-3.644-2.814-6.31-1.5-8 3.5-4.5 7-10 7-15 0-5.968-2.92-17-16-17z" class="color-500"/><path fill="#FFF" d="M32.47 25c.392-1.411.99-2.764 1.781-4.014.501-.777.749-1.748.749-2.907C35 15.274 32.761 13 30 13s-5 2.274-5 5.08c0 1.16.248 2.13.744 2.913A15 15 0 0 1 27.526 25h4.944zm-.411 2h-4.12a15 15 0 0 1 .138 2.027L31.923 29c0-.671.046-1.34.136-2zM33 30.686V32a2 2 0 0 1-2 2h-2a2 2 0 0 1-2-2v-1.257c-.535-.313-.923-.885-.923-1.716a13 13 0 0 0-2.022-6.963C23.343 20.941 23 19.6 23 18.08 23 14.177 26.127 11 30 11s7 3.177 7 7.08c0 1.517-.342 2.858-1.053 3.98-.029.046-.06.09-.092.134a13.007 13.007 0 0 0-1.932 6.808c0 .707-.368 1.329-.923 1.684zM31 31h-2v1h2v-1zM30 6C16.92 6 15.205 18.5 15 23c-.16 3.527-4 6-4 7.5s2.076 1.288 3.5 2c1 .5.802 6.71 1 7.5.4 1.6 2.453 2.314 6.16 2.143a2 2 0 0 1 2.077 1.75L24.5 50l16-4c-2.314-3.644-2.814-6.31-1.5-8 3.5-4.5 7-10 7-15 0-5.968-2.92-17-16-17z" class="french-vanilla-100"/></g></svg>