<svg xmlns="http://www.w3.org/2000/svg" width="56" height="56" class="wd-accent-heart-gear wd-accent" focusable="false" role="presentation" viewBox="0 0 56 56"><g fill="none" fill-rule="nonzero" class="wd-icon-container"><path fill="#005DBA" d="M47.44 30.632l.609-.15.4.483a11.066 11.066 0 0 1 1.866 3.23l.217.588-.434.452a4.002 4.002 0 0 0-.002 5.539l.432.45-.216.587a10.989 10.989 0 0 1-1.865 3.231l-.4.48-.606-.148a3.982 3.982 0 0 0-2.949.421 3.982 3.982 0 0 0-1.84 2.343l-.174.6-.616.106c-1.139.196-2.3.21-3.442.045l-.661-.096-.165-.647a4.003 4.003 0 0 0-4.624-2.947l-4.15 4.212a1.96 1.96 0 0 1-2.801 0L8.229 31.35c-5.696-5.44-5.549-13.943-.097-19.926 5.234-5.743 13.709-5.891 19.288-.471 5.418-5.26 13.382-4.981 19.164.348 5.655 5.21 5.868 13.785.701 19.365.052-.01.104-.022.156-.035zm-2.187-.745c5.014-4.79 5.014-12.475 0-17.096-5.015-4.622-12.062-5.04-16.843 0l-.99 1.005-.991-1.005c-4.781-5.04-12.25-5.04-16.842 0-4.592 5.039-5.014 12.306 0 17.096L27.42 47.989l3.587-3.642a11.127 11.127 0 0 1-1.31-2.469l-.237-.627.49-.457a4.002 4.002 0 0 0 .058-5.788l-.478-.467.247-.62a10.983 10.983 0 0 1 1.76-2.959l.4-.48.606.149c.995.243 2.044.1 2.95-.422a3.982 3.982 0 0 0 1.839-2.343l.175-.6.615-.105a10.989 10.989 0 0 1 3.73 0l.616.106.175.6a4.012 4.012 0 0 0 2.137 2.501l.473-.48zM17.42 11.789a.995.995 0 0 1 1.079.908c.05.553-.35 1.043-.895 1.095-2.964.28-5.688 3.068-6.042 6.155a.994.994 0 0 1-1.1.882 1.002 1.002 0 0 1-.869-1.115c.462-4.018 3.918-7.555 7.827-7.925zm-6.843 13.07a.998.998 0 0 1-.99-1.006.998.998 0 0 1 .99-1.006c.548 0 .991.45.991 1.006a.998.998 0 0 1-.99 1.006zm25.915 7.08c-1.16.67-2.48.923-3.771.754a8.982 8.982 0 0 0-.84 1.405 6.003 6.003 0 0 1-.077 7.642 9.124 9.124 0 0 0 .857 1.482 6.003 6.003 0 0 1 6.656 3.755 8.982 8.982 0 0 0 1.636-.025 5.979 5.979 0 0 1 2.54-2.889 5.979 5.979 0 0 1 3.77-.754 8.989 8.989 0 0 0 .956-1.657 6.003 6.003 0 0 1 .002-7.297 9.114 9.114 0 0 0-.956-1.657 6.003 6.003 0 0 1-6.32-3.647 8.989 8.989 0 0 0-1.914 0 5.979 5.979 0 0 1-2.539 2.888zm1 1.732a5 5 0 1 1 5 8.66 5 5 0 0 1-5-8.66zm4 6.928a3 3 0 1 0-3-5.196 3 3 0 0 0 3 5.196z" class="color-500"/><path fill="#FFF" d="M9.587 12.79c4.592-5.038 12.06-5.038 16.842 0l.99 1.006.991-1.005c4.781-5.04 11.828-4.622 16.843 0 5.014 4.62 5.014 12.306 0 17.096l-.473.479a3.993 3.993 0 0 1-2.137-2.501l-.175-.6-.615-.106a10.989 10.989 0 0 0-3.731 0l-.615.106-.175.599a3.982 3.982 0 0 1-1.84 2.343 3.982 3.982 0 0 1-2.949.422l-.606-.149-.4.48a10.983 10.983 0 0 0-1.76 2.96l-.247.62.478.466a4.002 4.002 0 0 1-.058 5.788l-.49.457.236.627a11.07 11.07 0 0 0 1.31 2.47l-3.586 3.64L9.587 29.888c-5.014-4.79-4.592-12.057 0-17.096zM39.03 29.05a8.989 8.989 0 0 1 1.913 0 6.003 6.003 0 0 0 6.32 3.647 9.114 9.114 0 0 1 .957 1.658 6.003 6.003 0 0 0-.002 7.297 8.989 8.989 0 0 1-.955 1.657 5.979 5.979 0 0 0-3.772.754 5.979 5.979 0 0 0-2.539 2.89 8.982 8.982 0 0 1-1.636.024 6.003 6.003 0 0 0-6.656-3.755 9.124 9.124 0 0 1-.856-1.482 6.003 6.003 0 0 0 .076-7.642c.237-.493.518-.963.84-1.405a5.979 5.979 0 0 0 3.771-.754 5.979 5.979 0 0 0 2.54-2.889zm5.291 6.451a5 5 0 1 0-8.66 5 5 5 0 0 0 8.66-5zM10.577 22.847c-.547 0-.99.45-.99 1.006a.998.998 0 0 0 .99 1.006c.548 0 .991-.45.991-1.006a.998.998 0 0 0-.99-1.006zm6.96-11.062l-.117.004c-3.909.37-7.365 3.907-7.827 7.925a1.002 1.002 0 0 0 .87 1.115.994.994 0 0 0 1.099-.882c.354-3.087 3.078-5.874 6.042-6.155.545-.052.946-.542.895-1.095a.995.995 0 0 0-1.079-.908z" class="french-vanilla-100"/></g></svg>