<svg xmlns="http://www.w3.org/2000/svg" width="56" height="56" class="wd-accent-heart wd-accent" focusable="false" role="presentation" viewBox="0 0 56 56"><g fill="none" fill-rule="evenodd" class="wd-icon-container"><path fill="#005DBA" fill-rule="nonzero" d="M28 11.173c5.469-5.229 13.508-4.953 19.344.346 5.931 5.385 5.931 14.381.07 19.895l-18 18a2 2 0 0 1-2.828 0L8.629 31.457c-5.749-5.41-5.6-13.866-.097-19.815 5.282-5.71 13.837-5.858 19.468-.469zM10 13c-4.635 5.01-5.061 12.238 0 17l18 18 18-18c5.061-4.762 5.061-12.405 0-17-5.061-4.595-12.174-5.01-17 0l-1 1-1-1c-4.826-5.01-12.365-5.01-17 0zm1 10a1 1 0 1 1 0 2 1 1 0 0 1 0-2zm6.907-10.996a1 1 0 1 1 .186 1.992c-2.992.279-5.742 3.05-6.1 6.12a1 1 0 1 1-1.986-.232c.466-3.995 3.954-7.512 7.9-7.88z" class="color-500"/><path fill="#FFF" d="M10 13c4.635-5.01 12.174-5.01 17 0l1 1 1-1c4.826-5.01 11.939-4.595 17 0s5.061 12.238 0 17L28 48 10 30c-5.061-4.762-4.635-11.99 0-17zm1 10a1 1 0 1 0 0 2 1 1 0 0 0 0-2zm6.907-10.996c-3.946.368-7.434 3.885-7.9 7.88a1 1 0 1 0 1.986.232c.358-3.07 3.108-5.841 6.1-6.12a1 1 0 1 0-.186-1.992z" class="french-vanilla-100"/></g></svg>