<svg xmlns="http://www.w3.org/2000/svg" width="56" height="56" class="wd-accent-heart-plain wd-accent" focusable="false" role="presentation" viewBox="0 0 56 56"><g fill="none" fill-rule="evenodd" class="wd-icon-container"><path fill="#005DBA" fill-rule="nonzero" d="M39.001 8c6.624 0 12 5.308 11.999 11.86 0 8.075-4.238 14.186-12.215 20.32-.668.515-8.753 6.219-10.083 7.532l-.703.693-.702-.693c-1.33-1.313-9.414-7.017-10.083-7.531C9.238 34.046 5 27.935 5 19.86 5 13.307 10.375 8 17.001 8c4.275 0 8.766 2.182 11 5.388C30.233 10.182 34.724 8 39 8zM28 16.116c-.57 0-.86-.283-1.13-.724a2.828 2.828 0 0 1-.138-.258C25.04 12.151 20.893 10 17 10 11.474 10 7 14.417 7 19.86c0 7.318 3.9 12.941 11.433 18.736.485.373 7.094 5.039 9.566 7.076 2.473-2.037 9.083-6.704 9.567-7.077C45.1 32.801 49 27.178 49 19.86c0-5.442-4.474-9.86-9.999-9.86-3.874 0-8.001 2.13-9.677 5.03-.187.544-.579 1.087-1.325 1.086z" class="color-500"/><path fill="#FFF" d="M27.999 16.116c-.57 0-.86-.283-1.13-.724a2.828 2.828 0 0 1-.138-.258C25.04 12.151 20.893 10 17 10 11.474 10 7 14.417 7 19.86c0 7.318 3.9 12.941 11.433 18.736.485.373 7.094 5.039 9.566 7.076 2.473-2.037 9.083-6.704 9.567-7.077C45.1 32.801 49 27.178 49 19.86c0-5.442-4.474-9.86-9.999-9.86-3.874 0-8.001 2.13-9.677 5.03-.187.544-.579 1.087-1.325 1.086z" class="french-vanilla-100"/></g></svg>