<svg xmlns="http://www.w3.org/2000/svg" width="56" height="56" fill="none" class="wd-accent-help wd-accent" focusable="false" role="presentation" viewBox="0 0 56 56"><g class="wd-icon-container"><g fill="#fff" class="french-vanilla-100"><path d="M39.363 6.575L45 5l5.637 1.575a.49.49 0 0 1 .363.47v4.76c0 .704-.435 2.097-1.516 3.592a11.263 11.263 0 0 1-4.276 3.556A.485.485 0 0 1 45 19v11.252a8 8 0 1 1-6.403 14.428l.394.395a.66.66 0 0 1 0 .934l-1.4 1.4a.66.66 0 0 1-.935 0l-2.802-2.801a.66.66 0 0 1 0-.934l1.4-1.402a.66.66 0 0 1 .935 0l.13.131a7.953 7.953 0 0 1-1.208-3.066h-11.63a.961.961 0 0 0-.545.17l-9.166 6.322c-.63.435-1.497-.01-1.497-.771V39.44a.104.104 0 0 0-.105-.104h-4.31C6.278 39.337 5 38.074 5 36.515V15.822C5 14.263 6.28 13 7.857 13h31.384c-.166-.49-.241-.902-.241-1.194v-4.76a.49.49 0 0 1 .363-.471z"/><path d="M33.572 45.806c.229-.23.562-.268.743-.086l1.032 1.031c.182.182.143.515-.086.744L32.956 49.8c-.229.229-.561.267-.743.086l-1.032-1.032c-.181-.182-.143-.515.086-.744l2.305-2.304z"/></g><g fill="#0875E1" class="color-500"><path fill-rule="evenodd" d="M24 26a8 8 0 1 1-16 0 8 8 0 0 1 16 0zm-5 5.197A5.972 5.972 0 0 1 16 32a5.972 5.972 0 0 1-3-.803V31a1 1 0 0 1 1-1h4a1 1 0 0 1 1 1v.197zm1.712-1.482a3.008 3.008 0 0 0-1.917-1.608A3.484 3.484 0 0 0 19.5 26v-1a3.5 3.5 0 1 0-7 0v1c0 .79.262 1.52.705 2.107a3.008 3.008 0 0 0-1.917 1.608 6 6 0 1 1 9.423 0zM17.5 26v-1a1.5 1.5 0 0 0-3 0v1a1.5 1.5 0 0 0 3 0z" clip-rule="evenodd"/><path d="M26 22a1 1 0 0 1 1-1h14a1 1 0 1 1 0 2H27a1 1 0 0 1-1-1zM27 25a1 1 0 1 0 0 2h14a1 1 0 1 0 0-2H27zM27 29a1 1 0 1 0 0 2h6a1 1 0 1 0 0-2h-6zM48.219 8.619c.43.348.493.98.14 1.406l-3.911 4.735a.865.865 0 0 1-1.285.055l-1.46-1.486a.994.994 0 0 1 1.418-1.392l.586.597 3.12-3.775a.994.994 0 0 1 1.392-.14z"/><path fill-rule="evenodd" d="M48 38a5 5 0 1 1-10 0 5 5 0 0 1 10 0zm-2 0a3 3 0 1 1-6 0 3 3 0 0 1 6 0z" clip-rule="evenodd"/><path fill-rule="evenodd" d="M45.364 4.06a1.5 1.5 0 0 0-.728 0l-5.5 1.375A1.5 1.5 0 0 0 38 6.89v4.488c0 .207.01.415.028.622H7a3 3 0 0 0-3 3v22a3 3 0 0 0 3 3h4.526c.061 0 .11.05.11.11v5.972a1 1 0 0 0 1.573.82l9.624-6.722a1 1 0 0 1 .573-.18h10.817c.083.365.188.723.314 1.07l-2.004 2.003a1 1 0 0 0 0 1.415l.206.205-3.23 3.231a1 1 0 0 0 0 1.415l2.22 2.22a1 1 0 0 0 1.413 0l3.231-3.232.403.403a1 1 0 0 0 1.414 0l2.122-2.121.013-.013A9 9 0 0 0 52 38a9.004 9.004 0 0 0-6-8.488v-9.695c.32-.115.621-.273.896-.447.557-.352 1.093-.824 1.581-1.323.978-1 1.868-2.215 2.48-3.12C51.68 13.86 52 12.611 52 11.377V6.89a1.5 1.5 0 0 0-1.136-1.455l-5.5-1.375zM38.532 14c.14.32.31.63.511.927.612.905 1.502 2.12 2.48 3.12.488.5 1.024.97 1.581 1.323.275.174.576.332.896.447v9.238A9 9 0 0 0 34 38H23.405a3 3 0 0 0-1.717.54l-8.052 5.624V40.11a2.11 2.11 0 0 0-2.11-2.11H7a1 1 0 0 1-1-1V15a1 1 0 0 1 1-1h31.532zM40 7.28l5-1.25 5 1.25v4.098c0 .892-.232 1.737-.7 2.428-.585.866-1.397 1.968-2.252 2.842-.428.438-.842.792-1.221 1.032-.39.246-.662.32-.827.32-.165 0-.438-.074-.827-.32-.379-.24-.793-.594-1.22-1.032-.856-.874-1.668-1.976-2.253-2.841-.468-.692-.7-1.537-.7-2.43V7.282zM43 45a7 7 0 1 0-5.227-2.344l.571.572A6.974 6.974 0 0 0 43 45zm-7.638-1.927l.958.958c.205.227.422.444.649.649l1.221 1.222-.707.707-2.828-2.828.707-.708zm-3.732 5.558l2.517-2.517.805.806-2.517 2.517-.805-.806z" clip-rule="evenodd"/></g></g></svg>