<svg xmlns="http://www.w3.org/2000/svg" width="56" height="56" class="wd-accent-high-five wd-accent" focusable="false" role="presentation" viewBox="0 0 56 56"><g fill="none" fill-rule="nonzero" class="wd-icon-container"><path fill="#005DBA" d="M40.247 24.94A5.492 5.492 0 0 1 38 20.506v-4a5.5 5.5 0 0 1 11 0v4a5.492 5.492 0 0 1-2.256 4.442 8.003 8.003 0 0 1 5.243 7.512v17h-17V32.802l-6.649-2.549-.345-1.053-.344 1.053L21 32.802v16.657H4v-17a8.003 8.003 0 0 1 5.251-7.515A5.492 5.492 0 0 1 7 20.505v-4a5.5 5.5 0 0 1 11 0v4a5.492 5.492 0 0 1-2.252 4.439c.95.347 1.826.873 2.582 1.548l3.818-1.423 2.15-6.708.043-.124a3.392 3.392 0 0 1 3.652-2.2 3.392 3.392 0 0 1 3.652 2.2l.043.124 2.151 6.708 3.818 1.423a7.987 7.987 0 0 1 2.59-1.551zm-11.201 1.043l.897 2.743 7.127 2.733a6.04 6.04 0 0 0-.083 1v15h13v-15a6 6 0 0 0-6-6h-1a5.99 5.99 0 0 0-4.78 2.372l-5.976-2.227-1.678-5.231-1.507 4.61zm-10.129 5.476l7.127-2.733 2.868-8.768a1.494 1.494 0 0 0-.909-1.868c-.722-.263-1.52.11-1.8.882l-2.447 7.632-5.976 2.227A5.99 5.99 0 0 0 13 26.46h-1a6 6 0 0 0-6 6v15h13v-15c0-.341-.028-.675-.083-1zM12.5 13.005a3.5 3.5 0 0 0-3.5 3.5v4a3.5 3.5 0 0 0 7 0v-4a3.5 3.5 0 0 0-3.5-3.5zm31 0a3.5 3.5 0 0 0-3.5 3.5v4a3.5 3.5 0 0 0 7 0v-4a3.5 3.5 0 0 0-3.5-3.5zm-19.9 3.2a1 1 0 0 1-1.2 1.6l-4-3c-.769-.576-.361-1.8.6-1.8h3.82l-.806-4.835c-.16-.96 1.005-1.56 1.693-.872l4.354 4.354 5.299-4.415c.773-.645 1.907.13 1.589 1.084l-1.562 4.684H37c.928 0 1.356 1.155.65 1.76l-3.5 3a1 1 0 1 1-1.3-1.52l1.447-1.24H32a1 1 0 0 1-.949-1.316l.889-2.665-3.3 2.75a1 1 0 0 1-1.347-.062l-2.794-2.793.487 2.922A1 1 0 0 1 24 15.005h-2l1.6 1.2z" class="color-500"/><path fill="#FFF" d="M29.046 25.983l.897 2.743 7.127 2.733a6.04 6.04 0 0 0-.083 1v15h13v-15a6 6 0 0 0-6-6h-1a5.99 5.99 0 0 0-4.78 2.372l-5.976-2.227-1.678-5.231-1.507 4.61zm-10.129 5.476l7.127-2.733 2.868-8.768a1.494 1.494 0 0 0-.909-1.868c-.722-.263-1.52.11-1.8.882l-2.447 7.632-5.976 2.227A5.99 5.99 0 0 0 13 26.46h-1a6 6 0 0 0-6 6v15h13v-15c0-.341-.028-.675-.083-1zM12.5 13.005a3.5 3.5 0 0 0-3.5 3.5v4a3.5 3.5 0 0 0 7 0v-4a3.5 3.5 0 0 0-3.5-3.5zm31 0a3.5 3.5 0 0 0-3.5 3.5v4a3.5 3.5 0 0 0 7 0v-4a3.5 3.5 0 0 0-3.5-3.5z" class="french-vanilla-100"/></g></svg>