<svg xmlns="http://www.w3.org/2000/svg" width="56" height="56" class="wd-accent-inbox wd-accent" focusable="false" role="presentation" viewBox="0 0 56 56"><g fill="none" fill-rule="evenodd" class="wd-icon-container"><path fill="#005CB9" d="M48 42a2 2 0 0 1-2 2H10a2 2 0 0 1-2-2V24c0-.36.106-.712.29-1.02l5.932-10a2 2 0 0 1 1.72-.98h23.873a2 2 0 0 1 1.701.948l6.182 10c.21.341.307.68.299 1.052L48 42zm-2.621-19l-5.564-9H15.942l-5.34 9H45.38zM10 25v17h36V25H10zm10 9.875a.875.875 0 1 1 0-1.75h15.694a.875.875 0 0 1 0 1.75H20z" class="color-500"/><path fill="#FFF" d="M46 25v17H10V25h36zm-10.306 8.125H20a.875.875 0 1 0 0 1.75h15.694a.875.875 0 0 0 0-1.75zM39.815 14l5.564 9H10.603l5.339-9h23.873z" class="french-vanilla-100"/></g></svg>