<svg xmlns="http://www.w3.org/2000/svg" width="56" height="56" class="wd-accent-it wd-accent" focusable="false" role="presentation" viewBox="0 0 56 56"><g fill="none" fill-rule="nonzero" class="wd-icon-container"><path fill="#005DBA" d="M24 48a1 1 0 0 1-.707-.293l-7.261-7.26a4 4 0 1 1 1.414-1.414l6.968 6.967h5.712A4.002 4.002 0 0 1 38 47a4 4 0 0 1-7.874 1H24zM10 14.874A4.002 4.002 0 0 1 11 7a4 4 0 0 1 1 7.874V28a1 1 0 0 1-.293.707L8 32.414v8.172l4.386 4.386a4 4 0 1 1-1.152 1.676l-4.941-4.94A1 1 0 0 1 6 41v-9a1 1 0 0 1 .293-.707L10 27.586V14.874zM25.874 8H32a1 1 0 0 1 .707.293l7.261 7.26a4 4 0 1 1-1.414 1.414l-6.968-6.967h-5.712A4.002 4.002 0 0 1 18 9a4 4 0 0 1 7.874-1zM46 41.126A4.002 4.002 0 0 1 45 49a4 4 0 0 1-1-7.874V28a1 1 0 0 1 .293-.707L48 23.586v-8.172l-4.386-4.386a4 4 0 1 1 1.152-1.676l4.941 4.94A1 1 0 0 1 50 15v9a1 1 0 0 1-.293.707L46 28.414v12.712zM41 10a2 2 0 1 0 0-4 2 2 0 0 0 0 4zm4 37a2 2 0 1 0 0-4 2 2 0 0 0 0 4zm-3-26a2 2 0 1 0 0-4 2 2 0 0 0 0 4zM22 11a2 2 0 1 0 0-4 2 2 0 0 0 0 4zm-7 39a2 2 0 1 0 0-4 2 2 0 0 0 0 4zm-4-37a2 2 0 1 0 0-4 2 2 0 0 0 0 4zm3 26a2 2 0 1 0 0-4 2 2 0 0 0 0 4zm20 10a2 2 0 1 0 0-4 2 2 0 0 0 0 4zm-6-11c-5.523 0-10-4.477-10-10s4.477-10 10-10 10 4.477 10 10-4.477 10-10 10zm0-2a8 8 0 1 0 0-16 8 8 0 0 0 0 16zm-1-10h2v7h-2v-7zm1-1a1 1 0 1 1 0-2 1 1 0 0 1 0 2z" class="color-500"/><path fill="#FFF" d="M41 10a2 2 0 1 0 0-4 2 2 0 0 0 0 4zm4 37a2 2 0 1 0 0-4 2 2 0 0 0 0 4zm-3-26a2 2 0 1 0 0-4 2 2 0 0 0 0 4zM22 11a2 2 0 1 0 0-4 2 2 0 0 0 0 4zm-7 39a2 2 0 1 0 0-4 2 2 0 0 0 0 4zm-4-37a2 2 0 1 0 0-4 2 2 0 0 0 0 4zm3 26a2 2 0 1 0 0-4 2 2 0 0 0 0 4zm20 10a2 2 0 1 0 0-4 2 2 0 0 0 0 4zm-6-13a8 8 0 1 0 0-16 8 8 0 0 0 0 16zm-1-10h2v7h-2v-7zm1-1a1 1 0 1 1 0-2 1 1 0 0 1 0 2z" class="french-vanilla-100"/></g></svg>