<svg xmlns="http://www.w3.org/2000/svg" width="56" height="56" class="wd-accent-laptop-education wd-accent" focusable="false" role="presentation" viewBox="0 0 56 56"><g fill="none" fill-rule="nonzero" class="wd-icon-container"><path fill="#005DBA" d="M21.105 27.994V32a1 1 0 0 1-2 0v-4.906l-1.515-.682c-.787-.354-.787-1.47 0-1.824l10-4.5a1 1 0 0 1 .82 0l10 4.5c.787.354.787 1.47 0 1.824l-4.726 2.127V30a4 4 0 0 1-4 4h-3.368a4 4 0 0 1-4-4v-1.461l-1.21-.545zm-.306-2.657l7.555-1.322a1 1 0 0 1 .345 1.97l-5.173.905L28 28.903l7.563-3.403L28 22.097l-7.201 3.24zm10.885 4.102l-3.274 1.473a1 1 0 0 1-.82 0l-3.274-1.473V30a2 2 0 0 0 2 2h3.368a2 2 0 0 0 2-2v-.561zM50 40a2 2 0 0 1 2 2v2a2 2 0 0 1-2 2H6a2 2 0 0 1-2-2v-2a2 2 0 0 1 2-2V13a2 2 0 0 1 2-2h40a2 2 0 0 1 2 2v27zm-2 0V13H8v27h40zM6 42v2h44v-2H6z" class="color-500"/><path fill="#FFF" d="M21.105 27.994V32a1 1 0 0 1-2 0v-4.906l-1.515-.682c-.787-.354-.787-1.47 0-1.824l10-4.5a1 1 0 0 1 .82 0l10 4.5c.787.354.787 1.47 0 1.824l-4.726 2.127V30a4 4 0 0 1-4 4h-3.368a4 4 0 0 1-4-4v-1.461l-1.21-.545zm-.306-2.657l7.555-1.322a1 1 0 0 1 .345 1.97l-5.173.905L28 28.903l7.563-3.403L28 22.097l-7.201 3.24zm10.885 4.102l-3.274 1.473a1 1 0 0 1-.82 0l-3.274-1.473V30a2 2 0 0 0 2 2h3.368a2 2 0 0 0 2-2v-.561zM48 40V13H8v27h40zM6 42v2h44v-2H6z" class="french-vanilla-100"/></g></svg>