<svg xmlns="http://www.w3.org/2000/svg" width="56" height="56" class="wd-accent-laptop-play wd-accent" focusable="false" role="presentation" viewBox="0 0 56 56"><g fill="none" fill-rule="evenodd" class="wd-icon-container"><path fill="#005DBA" fill-rule="nonzero" d="M48 11a2 2 0 0 1 2 2v27a2 2 0 0 1 2 2v2a2 2 0 0 1-2 2H6a2 2 0 0 1-2-2v-2a2 2 0 0 1 2-2V13a2 2 0 0 1 2-2h40zm2 31H6v2h44v-2zm-2-29H8v27h40V13zm-23.705 9.077a.6.6 0 0 1 .607.01l7.789 4.402a.575.575 0 1 1 0 1.021l-7.79 4.402a.6.6 0 0 1-.606.011.574.574 0 0 1-.295-.519v-8.808a.574.574 0 0 1 .295-.52z" class="color-500"/><path fill="#FFF" d="M50 42v2H6v-2h44zm-2-29v27H8V13h40zm-23.705 9.077a.574.574 0 0 0-.295.519v8.808a.574.574 0 0 0 .295.52.6.6 0 0 0 .607-.012l7.789-4.401c.19-.101.309-.296.309-.508a.575.575 0 0 0-.31-.508l-7.788-4.407a.6.6 0 0 0-.607-.011z" class="french-vanilla-100"/></g></svg>