<svg xmlns="http://www.w3.org/2000/svg" width="56" height="56" class="wd-accent-laptop-loop wd-accent" focusable="false" role="presentation" viewBox="0 0 56 56"><g fill="none" fill-rule="evenodd" class="wd-icon-container"><path fill="#005DBA" fill-rule="nonzero" d="M48 11a2 2 0 0 1 2 2v27a2 2 0 0 1 2 2v2a2 2 0 0 1-2 2H6a2 2 0 0 1-2-2v-2a2 2 0 0 1 2-2V13a2 2 0 0 1 2-2zm2 31H6v2h44v-2zm-2-29H8v27h40V13zm-23 8a1 1 0 0 1 1 1v4a1 1 0 0 1-2 0v-2.001A5 5 0 0 0 28 32a1 1 0 0 1 0 2 7 7 0 0 1-5.746-11H21a1 1 0 0 1 0-2h4zm3-1a7 7 0 0 1 5.746 11H35a1 1 0 0 1 0 2h-4a1 1 0 0 1-1-1v-4a1 1 0 0 1 2 0v2.001A5 5 0 0 0 28 22a1 1 0 0 1 0-2z" class="color-500"/><path fill="#FFF" d="M8 13v27h40V13H8zm16 10.999A5 5 0 0 0 28 32a1 1 0 0 1 0 2 7 7 0 0 1-5.746-11H21a1 1 0 0 1 0-2h4a1 1 0 0 1 1 1v4a1 1 0 0 1-2 0v-2.001zM32 30A5 5 0 0 0 28 22a1 1 0 0 1 0-2 7 7 0 0 1 5.746 11H35a1 1 0 0 1 0 2h-4a1 1 0 0 1-1-1v-4a1 1 0 0 1 2 0v2.001zM6 42v2h44v-2H6z" class="french-vanilla-100"/></g></svg>