<svg xmlns="http://www.w3.org/2000/svg" width="56" height="56" class="wd-accent-leaf wd-accent" focusable="false" role="presentation" viewBox="0 0 56 56"><g fill="none" fill-rule="evenodd" class="wd-icon-container"><path fill="#005DBA" fill-rule="nonzero" d="M13.273 41.313l3.414-3.414-2.946-14.727c-4.827 5.045-4.983 12.913-.468 18.141zm2.209-19.63l.13.64 2.774 13.876 5.372-5.371-2.481-12.405c-2.464 1.168-4.395 2.254-5.795 3.26zm7.663-4.116l2.313 11.561 5.37-5.371-1.726-8.636c-2.209.85-4.195 1.665-5.957 2.446zm7.853-3.163l1.53 7.653 5.372-5.371-.885-4.427a247.108 247.108 0 0 0-6.017 2.145zm7.927-2.793l.675 3.375 5.335-5.335a387.93 387.93 0 0 0-6.01 1.96zm7.424-.546l-5.338 5.338 3.377.675a387.901 387.901 0 0 0 1.961-6.013zm-2.61 7.923l-4.427-.885-5.372 5.371 7.655 1.53a247.061 247.061 0 0 0 2.145-6.016zm-2.861 7.913l-8.637-1.727-5.372 5.371 11.562 2.312a128.698 128.698 0 0 0 2.447-5.956zm-3.303 7.825L25.17 32.245l-5.372 5.371 13.883 2.777.634.127c1.006-1.4 2.093-3.33 3.26-5.794zm-4.75 7.535l-14.727-2.945-3.411 3.411c5.227 4.514 13.093 4.359 18.139-.466zm-21.006.429c-5.322-6.089-5.082-15.348.72-21.15 3.84-3.84 14.998-8.551 33.864-14.449 1.54-.481 2.987.966 2.506 2.506C43.01 28.463 38.3 39.62 34.46 43.46c-5.828 5.829-15.144 6.045-21.231.649L8.707 48.63a1 1 0 0 1-1.414-1.415l4.526-4.526z" class="color-500"/><path fill="#FFF" d="M18.098 39.316l14.727 2.946c-5.046 4.824-12.911 4.979-18.138.465l3.411-3.411zM13.74 23.172l2.947 14.727-3.414 3.414c-4.58-5.304-4.353-13.325.681-18.359l-.214.218zm11.43 9.073l12.405 2.482c-1.167 2.463-2.254 4.394-3.26 5.793l-.634-.127-13.883-2.777 5.372-5.371zm-3.894-13.821l2.482 12.404-5.372 5.371-2.775-13.876-.13-.64c1.4-1.005 3.332-2.092 5.795-3.26zm19.254 9.373a123.433 123.433 0 0 1-2.099 5.06L26.87 30.546l5.372-5.371 8.637 1.728zM29.102 15.121l1.727 8.636-5.371 5.371-2.313-11.56a128.731 128.731 0 0 1 5.957-2.447zm10.21 2.982l4.427.886a247.056 247.056 0 0 1-2.144 6.016l-7.655-1.531 5.372-5.371zm-2.298-5.843l.886 4.426-5.371 5.371-1.532-7.653a247.097 247.097 0 0 1 6.017-2.144zm9.335-1.194a387.896 387.896 0 0 1-1.961 6.012l-3.377-.675zM44.934 9.65L39.6 14.986l-.676-3.374c1.9-.638 3.904-1.292 6.01-1.961z" class="french-vanilla-100"/></g></svg>