<svg xmlns="http://www.w3.org/2000/svg" width="56" height="56" class="wd-accent-leaves wd-accent" focusable="false" role="presentation" viewBox="0 0 56 56"><g fill="none" fill-rule="nonzero" class="wd-icon-container"><path fill="#005DBA" d="M4.483 7.31C4.46 5.733 6.186 4.751 7.529 5.576c12.065 7.407 18.996 12.712 21.073 16.308a11.947 11.947 0 0 1 1.604 5.622c.062-.143.128-.286.197-.428 1.606-3.293 7.415-7.904 17.706-14.289 1.316-.816 3.02.107 3.054 1.655.257 11.476-.318 18.626-1.885 21.84-2.543 5.212-8.829 7.376-14.04 4.834a10.596 10.596 0 0 1-1.221-.699c-2.596 3.958-4.274 7.556-5.038 10.788a1 1 0 0 1-1.97-.072c-.546-4.003-1.808-8.119-3.79-12.346-5.57 2.566-12.276.509-15.402-4.905C5.734 30.277 4.692 21.57 4.483 7.31zm24.875 25.014a11.942 11.942 0 0 1-4.393 5.479c1.464 3.1 2.56 6.152 3.286 9.157.986-2.456 2.389-5.058 4.207-7.81a10.529 10.529 0 0 1-3.1-6.826zM49.2 14.49c-9.937 6.164-15.592 10.653-16.963 13.466a8.503 8.503 0 0 0 1.388 9.489c1.603-2.27 3.477-4.635 5.62-7.1a1 1 0 0 1 1.51 1.312c-2.151 2.474-4.019 4.838-5.603 7.093a8.5 8.5 0 0 0 12.364-3.342c1.372-2.813 1.933-9.786 1.684-20.918zM6.52 7.28c.202 13.88 1.224 22.414 3.065 25.603 2.59 4.487 8.134 6.207 12.758 4.123-1.416-2.763-3.136-5.572-5.159-8.429a1 1 0 0 1 1.632-1.156c2.055 2.901 3.81 5.763 5.263 8.585 4.131-2.96 5.421-8.63 2.827-13.123-1.841-3.189-8.637-8.39-20.387-15.603z" class="color-500"/><path fill="#FFF" d="M22.343 37.007c-4.624 2.084-10.167.364-12.758-4.123-1.84-3.189-2.863-11.723-3.066-25.603 11.75 7.213 18.546 12.414 20.387 15.603 2.594 4.494 1.304 10.164-2.827 13.123-1.453-2.822-3.208-5.684-5.263-8.585a1 1 0 0 0-1.632 1.156c2.023 2.857 3.743 5.666 5.16 8.429zm12.81 1.742a8.5 8.5 0 0 0 12.364-3.342c1.371-2.813 1.932-9.786 1.683-20.918-9.937 6.164-15.592 10.653-16.963 13.466a8.503 8.503 0 0 0 1.388 9.489c1.603-2.27 3.477-4.635 5.62-7.1a1 1 0 0 1 1.51 1.312c-2.151 2.474-4.019 4.838-5.603 7.093z" class="french-vanilla-100"/></g></svg>