<svg xmlns="http://www.w3.org/2000/svg" width="56" height="56" class="wd-accent-legal wd-accent" focusable="false" role="presentation" viewBox="0 0 56 56"><g fill="none" fill-rule="evenodd" class="wd-icon-container"><path fill="#005DBA" fill-rule="nonzero" d="M26 41a2 2 0 0 1 2 2v2h2a2 2 0 0 1 2 2v2a2 2 0 0 1-2 2H6a2 2 0 0 1-2-2v-2a2 2 0 0 1 2-2h2v-2a2 2 0 0 1 2-2h16zm4 6H6v2h24v-2zm-4-4H10v2h16v-2zM25 6a2 2 0 0 1 2 2v2a2 2 0 0 1-2 2v4h25a2 2 0 0 1 2 2v6a2 2 0 0 1-2 2H25v4a2 2 0 0 1 2 2v2a2 2 0 0 1-2 2H11a2 2 0 0 1-2-2v-2a2 2 0 0 1 2-2V12a2 2 0 0 1-2-2V8a2 2 0 0 1 2-2h14zm0 26H11v2h14v-2zm-2-20H13v18h10V12zm-7 2a1 1 0 0 1 1 1v12a1 1 0 0 1-2 0V15a1 1 0 0 1 1-1zm12 4h-3v6h3v-6zm22 0h-3v6h3v-6zm-5 0H30v6h15v-6zM25 8H11v2h14V8z" class="color-500"/><path fill="#FFF" d="M30 47v2H6v-2h24zm-4-4v2H10v-2h16zm-1-11v2H11v-2h14zm-2-20v18H13V12h10zm-7 2a1 1 0 0 0-1 1v12a1 1 0 0 0 2 0V15a1 1 0 0 0-1-1zm12 4v6h-3v-6h3zm22 0v6h-3v-6h3zm-5 0v6H30v-6h15zM25 8v2H11V8h14z" class="french-vanilla-100"/></g></svg>