<svg xmlns="http://www.w3.org/2000/svg" width="56" height="56" class="wd-accent-life-saver wd-accent" focusable="false" role="presentation" viewBox="0 0 56 56"><g fill="none" fill-rule="evenodd" class="wd-icon-container"><path fill="#005DBA" fill-rule="nonzero" d="M41.5 4C47.299 4 52 8.701 52 14.5c0 1.935-.523 3.747-1.436 5.303A23.963 23.963 0 0 1 52 28c0 2.879-.507 5.639-1.436 8.196A10.451 10.451 0 0 1 52 41.5C52 47.299 47.299 52 41.5 52c-1.935 0-3.747-.523-5.304-1.436A23.955 23.955 0 0 1 28 52c-2.879 0-5.64-.507-8.197-1.436A10.441 10.441 0 0 1 14.5 52C8.701 52 4 47.299 4 41.5c0-1.935.523-3.747 1.436-5.303A23.963 23.963 0 0 1 4 28c0-2.879.507-5.64 1.436-8.197A10.441 10.441 0 0 1 4 14.5C4 8.701 8.701 4 14.5 4c1.935 0 3.747.523 5.303 1.436A23.963 23.963 0 0 1 28 4c2.879 0 5.64.507 8.197 1.436A10.441 10.441 0 0 1 41.5 4zM6.489 38.655l-.046.13a8.5 8.5 0 0 0 10.904 10.726A24.103 24.103 0 0 1 6.488 38.656zm43.023-.001a24.102 24.102 0 0 1-10.858 10.858 8.5 8.5 0 0 0 10.858-10.858zM33 40.004A12.96 12.96 0 0 1 28 41a12.96 12.96 0 0 1-5-.996v9.425c1.606.374 3.28.571 5 .571 1.72 0 3.394-.197 5-.57v-9.426zm15.866-5.001h-9.907a13.086 13.086 0 0 1-3.957 3.956v9.906a22.055 22.055 0 0 0 13.864-13.862zm-31.82 0H7.14a22.052 22.052 0 0 0 13.862 13.862v-9.906a13.094 13.094 0 0 1-3.956-3.956zM28 17c-6.075 0-11 4.925-11 11s4.925 11 11 11 11-4.925 11-11-4.925-11-11-11zm-12.004 6H6.571A22.066 22.066 0 0 0 6 28c0 1.72.197 3.394.57 5h9.426A12.96 12.96 0 0 1 15 28c0-1.772.354-3.46.996-5zm33.433 0h-9.425A12.96 12.96 0 0 1 41 28c0 1.772-.354 3.46-.996 5h9.425c.374-1.606.571-3.28.571-5 0-1.72-.197-3.394-.57-5zM35.002 7.14v9.906a13.078 13.078 0 0 1 3.957 3.957h9.907A22.057 22.057 0 0 0 35.002 7.14zm-14 0A22.054 22.054 0 0 0 7.14 21.003h9.906a13.086 13.086 0 0 1 3.956-3.957zM14.5 6a8.5 8.5 0 0 0-8.012 11.346A24.103 24.103 0 0 1 17.345 6.49 8.462 8.462 0 0 0 14.5 6zm27 0c-.998 0-1.956.172-2.846.488A24.103 24.103 0 0 1 49.51 17.345 8.5 8.5 0 0 0 41.5 6zM28 6c-1.72 0-3.394.197-5 .57v9.426A12.96 12.96 0 0 1 28 15c1.772 0 3.46.354 5 .996V6.571A22.066 22.066 0 0 0 28 6z" class="color-500"/><path fill="#FFF" d="M15.996 33A12.96 12.96 0 0 1 15 28c0-1.772.354-3.46.996-5H6.571A22.066 22.066 0 0 0 6 28c0 1.72.197 3.394.57 5h9.426zM49.43 23h-9.425A12.96 12.96 0 0 1 41 28c0 1.772-.354 3.46-.996 5h9.425c.374-1.606.571-3.28.571-5 0-1.72-.197-3.394-.57-5zM23 49.43c1.606.373 3.28.57 5 .57 1.72 0 3.394-.197 5-.57v-9.426A12.96 12.96 0 0 1 28 41a12.96 12.96 0 0 1-5-.996v9.425zm0-42.86v9.426A12.96 12.96 0 0 1 28 15c1.772 0 3.46.354 5 .996V6.571A22.066 22.066 0 0 0 28 6c-1.72 0-3.394.197-5 .57zm15.959 14.433h9.907A22.057 22.057 0 0 0 35.002 7.14v9.906a13.078 13.078 0 0 1 3.957 3.957m0 14h9.907a22.055 22.055 0 0 1-13.864 13.862v-9.906a13.086 13.086 0 0 0 3.957-3.956m-17.957 3.956v9.906A22.052 22.052 0 0 1 7.14 35.003h9.906a13.094 13.094 0 0 0 3.956 3.956m-3.956-17.956H7.14A22.054 22.054 0 0 1 21.002 7.14v9.906a13.086 13.086 0 0 0-3.956 3.957" class="french-vanilla-100"/></g></svg>