<svg xmlns="http://www.w3.org/2000/svg" width="56" height="56" class="wd-accent-lightning-bolt wd-accent" focusable="false" role="presentation" viewBox="0 0 56 56"><g fill="none" fill-rule="evenodd" class="wd-icon-container"><path fill="#005DBA" fill-rule="nonzero" d="M39.39 26H31.3l5.28-17.348L16.61 30h9.203l-5.821 16.736L39.39 26zM23 32h-8.695a1 1 0 0 1-.73-1.683L38.06 4.143a1 1 0 0 1 1.687.974L34 24h7.695a1 1 0 0 1 .73 1.683L18.226 51.551a1 1 0 0 1-1.675-1.011L23 32z" class="color-500"/><path fill="#FFF" d="M39.39 26H31.3l5.28-17.348L16.61 30h9.203l-5.821 16.736z" class="french-vanilla-100"/></g></svg>