<svg xmlns="http://www.w3.org/2000/svg" width="56" height="56" class="wd-accent-lightbulb-rays wd-accent" focusable="false" role="presentation" viewBox="0 0 56 56"><g fill="none" fill-rule="nonzero" class="wd-icon-container"><path fill="#005DBA" d="M31.976 42v-1h-8v2h8v2h-7.99v2h7.993v-5h-.003zm.347-3c.35-1.458 1.536-3.22 4.336-7.293.619-.9 1.025-1.615 1.275-2.182a10.761 10.761 0 0 0 1.042-4.633c0-6.016-4.925-10.892-11-10.892a11.02 11.02 0 0 0-7.779 3.19 10.805 10.805 0 0 0-3.221 7.702c0 1.657.373 3.227 1.041 4.633.25.567.656 1.282 1.275 2.182 2.8 4.073 3.987 5.835 4.336 7.293h1.348v-9h-.683c-1.544 0-2.817-1.192-2.817-2.725 0-1.534 1.253-2.775 2.797-2.775 1.544 0 2.797 1.241 2.797 2.776l-.001.72h2.102v-.721c0-1.534 1.254-2.775 2.797-2.775 1.544 0 2.798 1.241 2.798 2.775 0 1.533-1.254 2.725-2.798 2.725h-.992v9h1.347zm-5.347 0h2v-9h-2v9zm-4.99 1.227a2.67 2.67 0 0 1-.01-.227c0-1.007-.772-1.982-4.332-7.16-.657-.955-1.138-1.784-1.433-2.456a12.76 12.76 0 0 1-1.235-5.492c0-3.468 1.39-6.722 3.814-9.123A13.018 13.018 0 0 1 27.976 12c7.175 0 13 5.767 13 12.892 0 1.922-.426 3.788-1.212 5.439-.319.725-.8 1.554-1.457 2.51-3.433 4.993-4.273 6.078-4.328 7.052V47a2 2 0 0 1-2 2h-.003a3 3 0 0 1-3.01 3h-1.981a3.002 3.002 0 0 1-3.01-3 2 2 0 0 1-1.99-2v-6.773zM29.975 49h-4c0 .556.451 1 1.009 1h1.981a1 1 0 0 0 1.01-1zm1.992-21.004a.727.727 0 0 0 .733-.721.727.727 0 0 0-.733-.72.727.727 0 0 0-.732.72v.72h.732zm-6.962-.721a.727.727 0 0 0-.733-.72.727.727 0 0 0-.733.72c0 .397.327.72.733.72h.734l-.001-.72zM27.976 4a1 1 0 0 1 1 1v3.951a1 1 0 0 1-2 0V5a1 1 0 0 1 1-1zm10.487 2.79a1 1 0 0 1 .366 1.367l-1.975 3.421a1 1 0 0 1-1.732-1l1.975-3.421a1 1 0 0 1 1.366-.366zm7.678 7.624a1 1 0 0 1-.366 1.366l-3.422 1.976a1 1 0 0 1-1-1.732l3.422-1.976a1 1 0 0 1 1.366.366zm2.81 10.415a1 1 0 0 1-1 1H44a1 1 0 1 1 0-2h3.951a1 1 0 0 1 1 1zm-2.81 10.414a1 1 0 0 1-1.366.366l-3.422-1.975a1 1 0 0 1 1-1.732l3.422 1.975a1 1 0 0 1 .366 1.366zm-7.678 7.624a1 1 0 0 1-1.366-.366l-1.975-3.422a1 1 0 0 1 1.732-1l1.975 3.422a1 1 0 0 1-.366 1.366zm-20.975 0a1 1 0 0 1-.366-1.366l1.975-3.422a1 1 0 0 1 1.732 1l-1.975 3.422a1 1 0 0 1-1.366.366zM9.81 35.243a1 1 0 0 1 .366-1.366l3.422-1.975a1 1 0 1 1 1 1.732l-3.422 1.975a1 1 0 0 1-1.366-.366zM7 24.83a1 1 0 0 1 1-1h3.951a1 1 0 1 1 0 2H8a1 1 0 0 1-1-1zm2.81-10.415a1 1 0 0 1 1.366-.366l3.422 1.976a1 1 0 1 1-1 1.732l-3.422-1.976a1 1 0 0 1-.366-1.366zm7.678-7.623a1 1 0 0 1 1.366.366l1.975 3.421a1 1 0 0 1-1.732 1l-1.975-3.421a1 1 0 0 1 .366-1.366z" class="color-500"/><path fill="#FFF" d="M31.976 42v-1h-8v2h8v2h-7.99v2h7.993v-5h-.003zm.347-3c.35-1.458 1.536-3.22 4.336-7.293.619-.9 1.025-1.615 1.275-2.182a10.761 10.761 0 0 0 1.042-4.633c0-6.016-4.925-10.892-11-10.892a11.02 11.02 0 0 0-7.779 3.19 10.805 10.805 0 0 0-3.221 7.702c0 1.657.373 3.227 1.041 4.633.25.567.656 1.282 1.275 2.182 2.8 4.073 3.987 5.835 4.336 7.293h1.348v-9h-.683c-1.544 0-2.817-1.192-2.817-2.725 0-1.534 1.253-2.775 2.797-2.775 1.544 0 2.797 1.241 2.797 2.776l-.001.72h2.102v-.721c0-1.534 1.254-2.775 2.797-2.775 1.544 0 2.798 1.241 2.798 2.775 0 1.533-1.254 2.725-2.798 2.725h-.992v9h1.347zm-5.347 0h2v-9h-2v9zm3 10h-4c0 .556.451 1 1.009 1h1.981a1 1 0 0 0 1.01-1zm1.992-21.004a.727.727 0 0 0 .733-.721.727.727 0 0 0-.733-.72.727.727 0 0 0-.732.72v.72h.732zm-6.962-.721a.727.727 0 0 0-.733-.72.727.727 0 0 0-.733.72c0 .397.327.72.733.72h.734l-.001-.72z" class="french-vanilla-100"/></g></svg>