<svg xmlns="http://www.w3.org/2000/svg" width="56" height="56" class="wd-accent-lightbulb wd-accent" focusable="false" role="presentation" viewBox="0 0 56 56"><g fill="none" fill-rule="evenodd" class="wd-icon-container"><path fill="#005DBA" fill-rule="nonzero" d="M25 48v1a1 1 0 0 0 1 1h4a1 1 0 0 0 1-1v-1h-6zm6-2a2 2 0 0 1 2 2v1a3 3 0 0 1-3 3h-4a3 3 0 0 1-3-3v-1a2 2 0 0 1 2-2h6zm3-8v2H22v-2h12zm0 4v2H22v-2h12zm-2-21a3 3 0 0 1 0 6h-1v13h-2V27h-2v13h-2V27h-1a3 3 0 1 1 3-3v1h2v-1a3 3 0 0 1 3-3zm-8 2a1 1 0 0 0 0 2h1v-1a1 1 0 0 0-1-1zm8 0a1 1 0 0 0-1 1v1h1a1 1 0 0 0 0-2zm-13.486 5.943A15 15 0 0 1 23 39.643V46h10v-6.358a15 15 0 0 1 4.486-10.699C39.83 26.641 41 23.438 41 19.333 41 11.97 35.18 6 28 6s-13 5.97-13 13.333c0 4.105 1.171 7.308 3.514 9.61zm-1.402 1.427C14.36 27.666 13 23.945 13 19.333 13 10.876 19.704 4 28 4s15 6.876 15 15.333c0 4.612-1.36 8.333-4.112 11.037A13 13 0 0 0 35 39.642V46a2 2 0 0 1-2 2H23a2 2 0 0 1-2-2v-6.358a13 13 0 0 0-3.888-9.272z" class="color-500"/><path fill="#FFF" d="M31 38V27h1a3 3 0 1 0-3-3v1h-2v-1a3 3 0 1 0-3 3h1v11h-2.09a15 15 0 0 0-4.396-9.057C16.17 26.641 15 23.438 15 19.333 15 11.97 20.82 6 28 6s13 5.97 13 13.333c0 4.105-1.171 7.308-3.514 9.61A15 15 0 0 0 33.09 38H31zm-2 0h-2V27h2v11zm-6 6h10v2H23v-2zm0-4h10v2H23v-2zm1-15a1 1 0 1 1 1-1v1h-1zm8 0h-1v-1a1 1 0 1 1 1 1zm-7 23h6v1a1 1 0 0 1-1 1h-4a1 1 0 0 1-1-1v-1z" class="french-vanilla-100"/></g></svg>