<svg xmlns="http://www.w3.org/2000/svg" width="56" height="56" class="wd-accent-lightbulb-lightning wd-accent" focusable="false" role="presentation" viewBox="0 0 56 56"><g fill="none" fill-rule="evenodd" class="wd-icon-container"><path fill="#005DBA" d="M30.149 18.152h2.84a1 1 0 0 1 .743 1.67l-7.923 8.761a1 1 0 0 1-1.699-.959l1.741-5.776h-2.84a1 1 0 0 1-.743-1.67l7.923-8.761a1 1 0 0 1 1.699.959l-1.741 5.776zM32.999 42v-2H23v2h10zm0 2H23v2h10v-2zm-10.09-6H33.09a15 15 0 0 1 4.396-9.057C39.83 26.641 41 23.438 41 19.333 41 11.97 35.18 6 28 6s-13 5.97-13 13.333c0 4.105 1.171 7.308 3.514 9.61A15 15 0 0 1 22.91 38zM33 48v1a3 3 0 0 1-3 3h-4a3 3 0 0 1-3-3v-1a2 2 0 0 1-2-2v-6.358a13 13 0 0 0-3.888-9.272C14.36 27.666 13 23.945 13 19.333 13 10.876 19.704 4 28 4s15 6.876 15 15.333c0 4.612-1.36 8.333-4.112 11.037A13 13 0 0 0 35 39.642V46a2 2 0 0 1-2 2zm-8 0v1a1 1 0 0 0 1 1h4a1 1 0 0 0 1-1v-1h-6z" class="color-500"/><path fill="#FFF" d="M30.149 18.152h2.84a1 1 0 0 1 .743 1.67l-7.923 8.761a1 1 0 0 1-1.699-.959l1.741-5.776h-2.84a1 1 0 0 1-.743-1.67l7.923-8.761a1 1 0 0 1 1.699.959l-1.741 5.776zM32.999 42v-2H23v2h10zm0 2H23v2h10v-2zm-10.09-6H33.09a15 15 0 0 1 4.396-9.057C39.83 26.641 41 23.438 41 19.333 41 11.97 35.18 6 28 6s-13 5.97-13 13.333c0 4.105 1.171 7.308 3.514 9.61A15 15 0 0 1 22.91 38zM25 48v1a1 1 0 0 0 1 1h4a1 1 0 0 0 1-1v-1h-6z" class="french-vanilla-100"/></g></svg>