<svg xmlns="http://www.w3.org/2000/svg" width="56" height="56" class="wd-accent-location wd-accent" focusable="false" role="presentation" viewBox="0 0 56 56"><g fill="none" fill-rule="nonzero" class="wd-icon-container"><path fill="#005DBA" d="M28 6c8.837 0 16 7.163 16 16 0 5.748-4.81 14.742-14.407 27.382a2 2 0 0 1-3.186 0C16.811 36.742 12 27.748 12 22c0-8.837 7.163-16 16-16zm0 2c-7.732 0-14 6.268-14 14 0 5.155 4.667 13.879 14 26.173C37.333 35.879 42 27.155 42 22c0-7.732-6.268-14-14-14zm-2.186 29.419l2.5 3.5a1 1 0 1 1-1.628 1.162l-2.5-3.5a1 1 0 1 1 1.628-1.162zM23 34a1 1 0 1 1 0 2 1 1 0 0 1 0-2zm5-21a9 9 0 1 1 0 18 9 9 0 0 1 0-18zm0 2a7 7 0 1 0 0 14 7 7 0 0 0 0-14z" class="color-500"/><path fill="#FFF" d="M28 8c7.732 0 14 6.268 14 14 0 5.155-4.667 13.879-14 26.173C18.667 35.879 14 27.155 14 22c0-7.732 6.268-14 14-14zm-2.186 29.419a1 1 0 1 0-1.628 1.162l2.5 3.5a1 1 0 1 0 1.628-1.162zM23 34a1 1 0 1 0 0 2 1 1 0 0 0 0-2zm5-21a9 9 0 1 0 0 18 9 9 0 0 0 0-18z" class="french-vanilla-100"/></g></svg>