<svg xmlns="http://www.w3.org/2000/svg" width="56" height="56" class="wd-accent-lock-keyhole wd-accent" focusable="false" role="presentation" viewBox="0 0 56 56"><g fill="none" fill-rule="nonzero" class="wd-icon-container"><path fill="#005DBA" d="M40 22h3a2 2 0 0 1 2 2v24a2 2 0 0 1-2 2H13a2 2 0 0 1-2-2V24a2 2 0 0 1 2-2h3v-4c0-6.627 5.373-12 12-12s12 5.373 12 12v4zm-2 0v-4c0-5.523-4.477-10-10-10s-10 4.477-10 10v4h5v-4a5 5 0 0 1 10 0v4h5zm-7 0v-4a3 3 0 0 0-6 0v4h6zm-18 2v24h30V24H13zm10 9a5 5 0 1 1 8.354 3.709l.63 5.043A2 2 0 0 1 30 44h-4a2 2 0 0 1-1.985-2.248l.63-5.043A4.996 4.996 0 0 1 23 33zm3.782 2.743L26 42h4l-.782-6.257a3 3 0 1 0-2.436 0z" class="color-500"/><path fill="#FFF" d="M38 22v-4c0-5.523-4.477-10-10-10s-10 4.477-10 10v4h5v-4a5 5 0 0 1 10 0v4h5zm-25 2v24h30V24H13zm10 9a5 5 0 1 1 8.354 3.709l.63 5.043A2 2 0 0 1 30 44h-4a2 2 0 0 1-1.985-2.248l.63-5.043A4.996 4.996 0 0 1 23 33zm3.782 2.743L26 42h4l-.782-6.257a3 3 0 1 0-2.436 0z" class="french-vanilla-100"/></g></svg>