<svg xmlns="http://www.w3.org/2000/svg" width="56" height="56" class="wd-accent-lock wd-accent" focusable="false" role="presentation" viewBox="0 0 56 56"><g fill="none" fill-rule="nonzero" class="wd-icon-container"><path fill="#005DBA" d="M28 6c6.627 0 12 5.373 12 12v4h3a2 2 0 0 1 2 2v24a2 2 0 0 1-2 2H13a2 2 0 0 1-2-2V24a2 2 0 0 1 2-2h3v-4c0-6.627 5.373-12 12-12zm15 18H13v24h30V24zm-7.768 5.36a1 1 0 1 1 1.536 1.28l-10.7 12.841-6.775-6.774a1 1 0 0 1 1.414-1.414l5.226 5.226zM28 15a3 3 0 0 0-3 3v4h6v-4a3 3 0 0 0-3-3zm0-7c-5.523 0-10 4.477-10 10v4h5v-4a5 5 0 0 1 10 0v4h5v-4c0-5.523-4.477-10-10-10z" class="color-500"/><path fill="#FFF" d="M43 24v24H13V24h30zm-7.768 5.36l-9.3 11.159-5.225-5.226a1 1 0 0 0-1.414 1.414l6.774 6.774 10.701-12.84a1 1 0 1 0-1.536-1.281zM28 8c5.523 0 10 4.477 10 10v4h-5v-4a5 5 0 0 0-10 0v4h-5v-4c0-5.523 4.477-10 10-10z" class="french-vanilla-100"/></g></svg>