<svg xmlns="http://www.w3.org/2000/svg" width="56" height="56" class="wd-accent-loop wd-accent" focusable="false" role="presentation" viewBox="0 0 56 56"><g fill="none" fill-rule="evenodd" class="wd-icon-container"><path fill="#005DBA" fill-rule="nonzero" d="M40.002 12A19.97 19.97 0 0 1 48 28c0 11.046-8.954 20-20 20a1 1 0 0 1 0-2c9.941 0 18-8.059 18-18 0-6.028-2.984-11.55-7.873-14.883a1.007 1.007 0 0 1-.127-.103V20a1 1 0 0 1-2 0v-9a1 1 0 0 1 1-1h9a1 1 0 0 1 0 2h-5.998zM15.997 44A19.973 19.973 0 0 1 8 28C8 16.954 16.954 8 28 8a1 1 0 0 1 0 2c-9.941 0-18 8.059-18 18a17.98 17.98 0 0 0 8 14.97V36a1 1 0 0 1 2 0v9a1 1 0 0 1-1 1h-9a1 1 0 0 1 0-2h5.997z" class="color-500"/></g></svg>