<svg xmlns="http://www.w3.org/2000/svg" width="56" height="56" class="wd-accent-manufacturing wd-accent" focusable="false" role="presentation" viewBox="0 0 56 56"><g fill="none" fill-rule="evenodd" class="wd-icon-container"><path fill="#005DBA" fill-rule="nonzero" d="M48.316 6.051a1 1 0 0 1 .633 1.265A9.775 9.775 0 0 1 39.675 14h-19.35a5 5 0 0 0-4.744 3.419L15.054 19H17a2 2 0 0 1 1.995 1.858l.688 9.636c.178-.155.385-.28.615-.367l8-3A2 2 0 0 1 31 29v.864l7.298-2.737A2 2 0 0 1 41 29v.864l7.298-2.737A2 2 0 0 1 51 29v20a1 1 0 0 1 0 2H5a1 1 0 0 1 0-2c0-.047.002-.095.005-.142l2-28A2 2 0 0 1 9 19h4c0-.105.016-.211.051-.316l.633-1.898A7 7 0 0 1 20.324 12h19.351a7.775 7.775 0 0 0 7.376-5.316 1 1 0 0 1 1.265-.633zM18.714 45H7.286L7 49h12l-.286-4zM29 29l-8 3v17h1v-5a2 2 0 0 1 2-2h2a2 2 0 0 1 2 2v5h1V29zm-3 15h-2v5h2v-5zm13-15l-8 3v17h1v-5a2 2 0 0 1 2-2h2a2 2 0 0 1 2 2v5h1V29zm-3 15h-2v5h2v-5zm13-15l-8 3v17h1v-5a2 2 0 0 1 2-2h2a2 2 0 0 1 2 2v5h1V29zm-3 15h-2v5h2v-5zm-27.5-2h-11l-.071 1H18.57l-.071-1zm-1-14h-9l-.857 12h10.714L17.5 28zm7.5 5a3 3 0 1 1 0 6 3 3 0 0 1 0-6zm10 0a3 3 0 1 1 0 6 3 3 0 0 1 0-6zm10 0a3 3 0 1 1 0 6 3 3 0 0 1 0-6zm-20 2a1 1 0 1 0 0 2 1 1 0 0 0 0-2zm10 0a1 1 0 1 0 0 2 1 1 0 0 0 0-2zm10 0a1 1 0 1 0 0 2 1 1 0 0 0 0-2zM17.286 25H8.714l-.071 1h8.714l-.071-1zM17 21H9l-.143 2h8.286L17 21zm33.707-8.707a1 1 0 0 1 0 1.414A14.657 14.657 0 0 1 40.343 18H31a1 1 0 0 1 0-2h9.343c3.357 0 6.576-1.333 8.95-3.707a1 1 0 0 1 1.414 0zM43 4a1 1 0 0 1 1 1 5 5 0 0 1-5 5H20.18a9 9 0 0 0-8.05 4.975l-.236.472a1 1 0 0 1-1.788-.894l.236-.472A11 11 0 0 1 20.18 8H39a3 3 0 0 0 3-3 1 1 0 0 1 1-1z" class="color-500"/><path fill="#FFF" d="M17.286 25l.071 1H8.643l.071-1h8.572zm-.143-2L17 21H9l-.143 2h8.286zm.357 5h-9l-.857 12h10.714L17.5 28zm1.071 15H7.43l.071-1h11l.071 1zm.143 2L19 49H7l.286-4h11.428zM29 29v20h-1v-5a2 2 0 0 0-2-2h-2a2 2 0 0 0-2 2v5h-1V32l8-3zm-3 15v5h-2v-5h2zm13-15v20h-1v-5a2 2 0 0 0-2-2h-2a2 2 0 0 0-2 2v5h-1V32l8-3zm-3 15v5h-2v-5h2zm13-15v20h-1v-5a2 2 0 0 0-2-2h-2a2 2 0 0 0-2 2v5h-1V32l8-3zm-3 15v5h-2v-5h2zM25 33a3 3 0 1 0 0 6 3 3 0 0 0 0-6zm10 0a3 3 0 1 0 0 6 3 3 0 0 0 0-6zm10 0a3 3 0 1 0 0 6 3 3 0 0 0 0-6zm-20 2a1 1 0 1 1 0 2 1 1 0 0 1 0-2zm10 0a1 1 0 1 1 0 2 1 1 0 0 1 0-2zm10 0a1 1 0 1 1 0 2 1 1 0 0 1 0-2z" class="french-vanilla-100"/></g></svg>