<svg xmlns="http://www.w3.org/2000/svg" width="56" height="56" class="wd-accent-media-file wd-accent" focusable="false" role="presentation" viewBox="0 0 56 56"><g fill="none" fill-rule="evenodd" class="wd-icon-container"><path fill="#005DBA" fill-rule="nonzero" d="M22 7a2 2 0 0 1 1.789 1.106L25.236 11H40a2 2 0 0 1 2 2v4h5a2 2 0 0 1 2 2v25a5 5 0 0 1-5 5H16.242c-.082 0-.163-.005-.242-.014V49h-3v-.027A4.5 4.5 0 0 1 8 44.5V9a2 2 0 0 1 2-2h12zm25 12H17v25.5a4.48 4.48 0 0 1-.758 2.5H44a3 3 0 0 0 3-3V19zM22 9H10v35.5a2.5 2.5 0 1 0 5 0V19a2 2 0 0 1 2-2h23v-4H24l-2-4zm10 15a9 9 0 1 1 0 18 9 9 0 0 1 0-18zm-2 4.804a1 1 0 0 0-1 1v6.392a1 1 0 0 0 1.53.848l5.113-3.196a1 1 0 0 0 0-1.696l-5.113-3.196a1 1 0 0 0-.53-.152z" class="color-500"/><path fill="#FFF" d="M17 19h30v25a3 3 0 0 1-3 3H16.242A4.48 4.48 0 0 0 17 44.5V19zm15 23a9 9 0 1 0 0-18 9 9 0 0 0 0 18zm3.643-8.152l-5.113 3.196a1 1 0 0 1-1.53-.848v-6.392a1 1 0 0 1 1.53-.848l5.113 3.196a1 1 0 0 1 0 1.696zM10 9h12l2 4h16v4H17a2 2 0 0 0-2 2v25.5a2.5 2.5 0 1 1-5 0V9z" class="french-vanilla-100"/></g></svg>