<svg xmlns="http://www.w3.org/2000/svg" width="56" height="56" class="wd-accent-microscope wd-accent" focusable="false" role="presentation" viewBox="0 0 56 56"><g fill="none" fill-rule="evenodd" class="wd-icon-container"><path fill="#005DBA" fill-rule="nonzero" d="M17 43v-6h-4a1 1 0 0 1 0-2h10a1 1 0 0 1 0 2h-4v6h21a4 4 0 0 1 4 4v2a2 2 0 0 1-2 2H14a2 2 0 0 1-2-2v-2a4 4 0 0 1 4-4h1zm20-12.496C37 23.598 31.403 18 24.5 18c-.845 0-1.678.083-2.49.247l.018-7.093c.815-.103 1.64-.155 2.472-.155C35.27 11 44 19.732 44 30.504c0 4.749-1.7 9.109-4.528 12.496H24.909C31.651 42.771 37 37.248 37 30.504zM36.754 43A17.452 17.452 0 0 0 42 30.504C42 20.837 34.165 13 24.5 13c-.718 0-1.426.043-2.121.127l-.005 3.028a14.616 14.616 0 0 1 2.126-.154C32.508 16 39 22.494 39 30.504c0 5.32-2.865 9.973-7.137 12.496h4.89zM16 45a2 2 0 0 0-2 2v2h28v-2a2 2 0 0 0-2-2H16zm5-16v3h-6v-3h-2V9h10v20h-2zm-4 0v1h2v-1h-2zm-2-18v16h6V11h-6zm1-5h4a1 1 0 0 1 0 2h-4a1 1 0 0 1 0-2z" class="color-500"/><path fill="#FFF" d="M17 30v-1h2v1h-2zm-2-19h6v16h-6V11zm24 19.504C39 22.494 32.508 16 24.5 16c-.506 0-1.007.026-1.5.076v-3.014c.494-.042.995-.063 1.5-.063C34.165 13 42 20.837 42 30.504c0 4.894-2.009 9.32-5.246 12.496h-4.89C36.133 40.477 39 35.825 39 30.504zM16 45h24a2 2 0 0 1 2 2v2H14v-2a2 2 0 0 1 2-2z" class="french-vanilla-100"/></g></svg>