<svg xmlns="http://www.w3.org/2000/svg" width="56" height="56" class="wd-accent-microphone wd-accent" focusable="false" role="presentation" viewBox="0 0 56 56"><g fill="none" fill-rule="evenodd" class="wd-icon-container"><path fill="#005DBA" fill-rule="nonzero" d="M29.864 7.596c4.064-4.064 10.39-4.459 14.142-.707 3.752 3.752 3.357 10.078-.707 14.142-2.018 2.018-4.594 3.132-7.136 3.282a1.993 1.993 0 0 1-.643 1.46L15.67 44.106a2 2 0 0 1-2.77-.055l-1.782-1.782c-.024.24-.037.48-.037.724 0 3.776 2.92 6.82 6.5 6.82s6.5-3.044 6.5-6.82h.018c.305-5.116 4.427-9.18 9.482-9.18 5.255 0 9.5 4.39 9.5 9.788a9.911 9.911 0 0 1-2.768 6.907 1 1 0 0 1-1.438-1.39 7.911 7.911 0 0 0 2.206-5.517c0-4.309-3.365-7.788-7.5-7.788-4.134 0-7.5 3.48-7.5 7.788a1 1 0 0 1-.043.294c-.435 4.44-4.047 7.918-8.457 7.918-4.703 0-8.5-3.958-8.5-8.82 0-.832.112-1.649.328-2.432L7.85 39a2 2 0 0 1-.09-2.732l17.828-20.355c.27-.308.612-.512.978-.611.006-2.723 1.13-5.537 3.299-7.707zM11.214 35.36l-1.951 2.227 5.05 5.05 2.172-2.005-5.272-5.272zm15.878-18.128l-14.558 16.62 5.422 5.422 16.207-14.97-7.071-7.072zm-5.071 7.9a2 2 0 0 1 2.828 0l1.414 1.414a2 2 0 0 1 0 2.828l-2.12 2.122a2 2 0 0 1-2.83 0L19.9 30.08a2 2 0 0 1 0-2.828zm1.414 1.414l-2.121 2.121 1.414 1.414 2.121-2.12-1.414-1.415zm6.543-15.922c-1.052 1.645-1.523 3.512-1.39 5.275l6.408 6.409c1.766.132 3.636-.34 5.282-1.396a1.01 1.01 0 0 1-.1-.088zm12.614-2.32c-2.929-2.93-7.994-2.613-11.314.706l-.043.043L41.592 19.41a.998.998 0 0 1 .204.295l.089-.088c3.32-3.32 3.636-8.385.707-11.314z" class="color-500"/><path fill="#FFF" d="M29.978 10.624l10.2 10.2c.032.032.065.062.1.088-1.646 1.056-3.516 1.528-5.282 1.396l-6.408-6.409c-.133-1.763.338-3.63 1.39-5.275zM11.213 35.36l5.272 5.272-2.172 2.006-5.05-5.051 1.95-2.227zm15.879-18.128l7.07 7.071-16.206 14.97-5.422-5.42 14.558-16.62zm-5.071 7.9l-2.122 2.121a2 2 0 0 0 0 2.828l1.415 1.415a2 2 0 0 0 2.828 0l2.121-2.122a2 2 0 0 0 0-2.828l-1.414-1.414a2 2 0 0 0-2.828 0zm1.414 1.414l1.414 1.414-2.121 2.121-1.414-1.414 2.121-2.121zM42.592 8.303c2.929 2.93 2.612 7.995-.707 11.314l-.089.088a.998.998 0 0 0-.204-.295L31.235 9.053l.043-.043c3.32-3.319 8.385-3.636 11.314-.707z" class="french-vanilla-100"/></g></svg>