<svg xmlns="http://www.w3.org/2000/svg" width="56" height="56" fill="none" class="wd-accent-minus-circle wd-accent" focusable="false" role="presentation" viewBox="0 0 56 56"><g class="wd-icon-container"><path fill="#fff" fill-rule="evenodd" d="M28 50c12.15 0 22-9.85 22-22S40.15 6 28 6 6 15.85 6 28s9.85 22 22 22z" class="french-vanilla-100" clip-rule="evenodd"/><g fill="#0875E1" class="color-500"><path d="M16 27.5a.5.5 0 0 1 .5-.5h23a.5.5 0 0 1 .5.5v1a.5.5 0 0 1-.5.5h-23a.5.5 0 0 1-.5-.5v-1z"/><path fill-rule="evenodd" d="M28 50c12.15 0 22-9.85 22-22S40.15 6 28 6 6 15.85 6 28s9.85 22 22 22zm0 2c13.255 0 24-10.745 24-24S41.255 4 28 4 4 14.745 4 28s10.745 24 24 24z" clip-rule="evenodd"/></g></g></svg>