<svg xmlns="http://www.w3.org/2000/svg" width="56" height="56" class="wd-accent-mobile-play wd-accent" focusable="false" role="presentation" viewBox="0 0 56 56"><g fill="none" fill-rule="evenodd" class="wd-icon-container"><path fill="#005DBA" fill-rule="nonzero" d="M40 4a3 3 0 0 1 3 3v42a3 3 0 0 1-3 3H16a3 3 0 0 1-3-3V7a3 3 0 0 1 3-3h24zm1 38H15v7a1 1 0 0 0 1 1h24a1 1 0 0 0 1-1v-7zm-13 1a3 3 0 1 1 0 6 3 3 0 0 1 0-6zm0 2a1 1 0 1 0 0 2 1 1 0 0 0 0-2zm13-34H15v29h26V11zM25.263 21.077a.483.483 0 0 1 .539.01l6.923 4.402c.17.107.275.302.275.514a.588.588 0 0 1-.275.508l-6.923 4.401a.483.483 0 0 1-.54.011.592.592 0 0 1-.262-.519v-8.808a.592.592 0 0 1 .263-.52zM40 6H16a1 1 0 0 0-1 1v2h26V7a1 1 0 0 0-1-1z" class="color-500"/><path fill="#FFF" d="M41 42v7a1 1 0 0 1-1 1H16a1 1 0 0 1-1-1v-7h26zm-13 1a3 3 0 1 0 0 6 3 3 0 0 0 0-6zm0 2a1 1 0 1 1 0 2 1 1 0 0 1 0-2zm13-34v29H15V11h26zM25.263 21.077a.592.592 0 0 0-.263.519v8.808a.592.592 0 0 0 .263.52.483.483 0 0 0 .539-.012l6.923-4.401c.17-.101.275-.296.275-.508a.588.588 0 0 0-.275-.508l-6.923-4.407a.483.483 0 0 0-.54-.011zM40 6a1 1 0 0 1 1 1v2H15V7a1 1 0 0 1 1-1z" class="french-vanilla-100"/></g></svg>