<svg xmlns="http://www.w3.org/2000/svg" width="56" height="56" class="wd-accent-money-search wd-accent" focusable="false" role="presentation" viewBox="0 0 56 56"><g fill="none" fill-rule="nonzero" class="wd-icon-container"><path fill="#005DBA" d="M46 34.7a6.995 6.995 0 0 0 .335-2.144c0-.901-.17-1.763-.481-2.555a7.002 7.002 0 0 0-13.52 2.555c0 1.688.597 3.235 1.592 4.444a6.978 6.978 0 0 0 5.409 2.556A6.978 6.978 0 0 0 44.743 37 6.986 6.986 0 0 0 46 34.7zM25.824 39H7a3 3 0 0 1-3-3V18a3 3 0 0 1 2.615-2.976L7.28 11.6a2.99 2.99 0 0 1 1.268-1.915 2.99 2.99 0 0 1 2.25-.457l1.11.215 1.084-3.149a2.99 2.99 0 0 1 1.522-1.72 2.99 2.99 0 0 1 2.292-.14l28.365 9.768a2.99 2.99 0 0 1 1.675 1.433A2.995 2.995 0 0 1 48 18v4.865a12.968 12.968 0 0 1 4.335 9.691c0 7.18-5.82 13-13 13-1.754 0-3.426-.347-4.953-.976l-1.411 1.411a2 2 0 0 1-1.933.518l-4.431 4.432a2 2 0 0 1-2.829 0l-2.828-2.828a2 2 0 0 1 0-2.829l4.432-4.432A2 2 0 0 1 25.824 39zM39 17H13a7 7 0 0 1-7 7v6a7 7 0 0 1 7 7h14.114a12.923 12.923 0 0 1-.702-3.012 7 7 0 1 1 4.84-11.615 12.945 12.945 0 0 1 8.23-2.816A6.982 6.982 0 0 1 39 17zM26.347 31.988a12.95 12.95 0 0 1 3.44-8.254 5 5 0 1 0-3.44 8.254zM8.657 15h3.778a4.982 4.982 0 0 0 1.908-3.046l-3.927-.763a1 1 0 0 0-1.172.79L8.657 15zm6.524 0h14.832l-13.707-2.664A6.976 6.976 0 0 1 15.181 15zm26.166 0L20.882 7.953a5.972 5.972 0 0 1-2.056 2.835L40.494 15h.853zm-27.44-5.218a4 4 0 0 0 5.084-2.48l-2.836-.976a1 1 0 0 0-1.271.62l-.977 2.836zM6 22a5 5 0 0 0 5-5H7a1 1 0 0 0-1 1v4zm5 15a5 5 0 0 0-5-5v4a1 1 0 0 0 1 1h4zm21.51 6.623a13.067 13.067 0 0 1-4.242-4.242l-.954.954 4.242 4.242.954-.954zm-3.075 1.661l-2.828-2.828-4.243 4.242 2.828 2.829 4.243-4.243zm9.9-1.728c6.075 0 11-4.925 11-11s-4.925-11-11-11c-6.076 0-11 4.925-11 11s4.924 11 11 11zM47.966 30H48v.117a9 9 0 1 1-.034-.117zm-2.259-12.707A.997.997 0 0 0 45 17h-4c0 1.038.316 2.002.858 2.801 1.487.293 2.884.839 4.142 1.592V18a.997.997 0 0 0-.293-.707z" class="color-500"/><path fill="#FFF" d="M39 17c0 .902.17 1.765.482 2.557h-.147a12.945 12.945 0 0 0-8.082 2.816 7 7 0 1 0-4.84 11.615c.114 1.046.353 2.055.7 3.012H13a7 7 0 0 0-7-7v-6a7 7 0 0 0 7-7h26zM26.347 31.988a5 5 0 1 1 3.44-8.254 12.95 12.95 0 0 0-3.44 8.254zM8.657 15l.587-3.018a1 1 0 0 1 1.172-.791l3.927.763A4.982 4.982 0 0 1 12.435 15H8.657zm6.524 0a6.976 6.976 0 0 0 1.125-2.664L30.013 15H15.18zm26.166 0h-.853l-21.668-4.212a5.972 5.972 0 0 0 2.056-2.835L41.347 15zm-27.44-5.218l.977-2.836a1 1 0 0 1 1.27-.62l2.837.976a4 4 0 0 1-5.084 2.48zM6 22v-4a1 1 0 0 1 1-1h4a5 5 0 0 1-5 5zm5 15H7a1 1 0 0 1-1-1v-4a5 5 0 0 1 5 5zm21.51 6.623l-.954.954-4.242-4.242.954-.954a13.067 13.067 0 0 0 4.242 4.242zm-3.075 1.661l-4.243 4.243-2.828-2.829 4.243-4.242 2.828 2.828zm9.9-1.728c-6.076 0-11-4.925-11-11s4.924-11 11-11c6.075 0 11 4.925 11 11s-4.925 11-11 11zM47.966 30a9 9 0 1 0 .368 2.556c0-.845-.116-1.663-.334-2.44V30h-.034zm-2.259-12.707A.997.997 0 0 1 46 18v3.393a12.917 12.917 0 0 0-4.142-1.592A4.977 4.977 0 0 1 41 17h4c.276 0 .526.112.707.293zM46 34.7a7.02 7.02 0 0 1-3.926 4.3 6.978 6.978 0 0 1-2.74.555A6.978 6.978 0 0 1 33.927 37 7 7 0 1 1 46 34.7z" class="french-vanilla-100"/></g></svg>