<svg xmlns="http://www.w3.org/2000/svg" width="56" height="56" fill="none" class="wd-accent-mountain-flag wd-accent" focusable="false" role="presentation" viewBox="0 0 56 56"><g class="wd-icon-container"><path fill="#fff" d="M26.11 24.307l4.154-7.268c.767-1.344 2.705-1.344 3.473 0L50.29 46.008c.762 1.333-.2 2.992-1.736 2.992H7.42c-1.53 0-2.493-1.647-1.743-2.98l14.58-25.921c.764-1.36 2.721-1.36 3.486 0l2.367 4.208z" class="french-vanilla-100"/><g fill="#0875E1" class="color-500"><path d="M32.982 21.811a1 1 0 1 0-1.964.378c.14.729.27 1.39.39 2.003a1 1 0 0 0 1.963-.387c-.12-.61-.25-1.27-.389-1.994zM34.146 27.815a1 1 0 1 0-1.968.357c.119.653.228 1.297.334 1.98a1 1 0 1 0 1.976-.305 77.73 77.73 0 0 0-.342-2.032zM34.999 36.55a1 1 0 0 0-1.998-.1c-.035.715-.13 1.282-.28 1.746a1 1 0 0 0 1.902.617c.221-.68.335-1.434.376-2.264zM17.922 41.087a1 1 0 0 0-.462-1.946c-1.047.249-2.147.767-3.346 1.624a1 1 0 0 0 1.164 1.627c1.039-.743 1.905-1.13 2.644-1.305zM21.312 39.384a1 1 0 1 0-.644 1.893c.468.16.935.365 1.441.596l.243.112c.426.196.884.407 1.353.594a1 1 0 1 0 .742-1.857 26.572 26.572 0 0 1-1.247-.549l-.259-.118a17.411 17.411 0 0 0-1.629-.671zM31.33 42.235a1 1 0 1 0-.82-1.825c-.493.222-1.08.427-1.785.629a6.235 6.235 0 0 1-1.427.241 1 1 0 0 0 .094 1.998 8.232 8.232 0 0 0 1.883-.316 15.312 15.312 0 0 0 2.054-.727zM12.871 44.48a1 1 0 0 0-1.415-1.414c-.387.388-.786.808-1.197 1.263a1 1 0 1 0 1.482 1.342c.392-.433.769-.83 1.13-1.192z"/><path fill-rule="evenodd" d="M31 7a1 1 0 1 1 2 0v9.296c.292.167.55.415.736.743L50.29 46.008c.762 1.333-.2 2.992-1.736 2.992H7.42c-1.53 0-2.493-1.647-1.743-2.98l14.58-25.921c.764-1.36 2.721-1.36 3.486 0l.944 1.677.033.055 1.391 2.474 4.152-7.266c.188-.328.445-.576.737-.743v-2.88l-6.709-1.956c-.96-.28-.96-1.64 0-1.92L31 7.583V7zm-4.904 21.362L22 21.08l-6.608 11.747c.21-.059.399-.13.573-.208.51-.229.926-.537 1.435-.919l.028-.02c.485-.365 1.06-.796 1.787-1.123.76-.342 1.65-.557 2.785-.557 2.277 0 3.729.87 4.982 1.623l.033.02C28.253 32.386 29.297 33 31 33c1.703 0 2.747-.614 3.986-1.358l.032-.019c1.035-.621 2.205-1.323 3.864-1.549L32 18.031l-4.746 8.306 1.604 2.851a1 1 0 0 1-1.743.98l-1.017-1.808-.002.002zM7.42 47l6.75-12.002c1.055-.02 1.894-.23 2.615-.555.727-.327 1.302-.758 1.787-1.122l.028-.021c.51-.382.926-.69 1.435-.92.49-.22 1.1-.38 1.965-.38 1.703 0 2.747.614 3.985 1.358l.033.019C27.27 34.129 28.723 35 31 35s3.729-.87 4.982-1.623l.032-.02c1.235-.74 2.276-1.353 3.968-1.357l8.572 15H7.42z" clip-rule="evenodd"/></g></g></svg>