<svg xmlns="http://www.w3.org/2000/svg" width="56" height="56" class="wd-accent-mountains wd-accent" focusable="false" role="presentation" viewBox="0 0 56 56"><g fill="none" fill-rule="nonzero" class="wd-icon-container"><path fill="#005DBA" d="M20.52 23.49l-.845-.282-1.593 2.788a1 1 0 0 1-1.398.352l-3.32-2.075L6 39h6.764l7.755-15.51zM29 11l-7.255 14.51 4.808-2.404a1 1 0 0 1 1.44.784l.742 6.666 3.497-4.196a1 1 0 0 1 1.264-.228l4.298 2.456L29 11zm10.406 20.812l-6.174-3.528-4.464 5.356c-.564.677-1.665.346-1.762-.53l-.842-7.574-5.91 2.955L12 45h34l-6.594-13.188zM50 35l-7.195-14.39-2.098 2.097a1 1 0 0 1-1.601-.26l-1.613-3.224-1.839.613L43.236 35H50zM22.5 19.528l4.711-9.422c.737-1.475 2.84-1.475 3.578 0L34 16.528l2.711-5.422c.737-1.475 2.84-1.475 3.578 0l11.5 23A2 2 0 0 1 50 37h-5.764l3.553 7.106A2 2 0 0 1 46 47H12a2 2 0 0 1-1.789-2.894L11.764 41H6a2 2 0 0 1-1.789-2.894l12-24c.737-1.475 2.84-1.475 3.578 0l2.711 5.422zM38.5 12l-2.868 5.735 2.052-.684a1 1 0 0 1 1.21.502l1.38 2.759 1.588-1.588L38.5 12zm-17.175 9.65L18 15l-3.738 7.476 2.6 1.625 1.484-2.597a1 1 0 0 1 1.184-.453l1.795.599z" class="color-500"/><path fill="#FFF" d="M20.52 23.49l-.845-.282-1.593 2.788a1 1 0 0 1-1.398.352l-3.32-2.075L6 39h6.764l7.755-15.51zM29 11l-7.255 14.51 4.808-2.404a1 1 0 0 1 1.44.784l.742 6.666 3.497-4.196a1 1 0 0 1 1.264-.228l4.298 2.456L29 11zm10.406 20.812l-6.174-3.528-4.464 5.356c-.564.677-1.665.346-1.762-.53l-.842-7.574-5.91 2.955L12 45h34l-6.594-13.188zM50 35l-7.195-14.39-2.098 2.097a1 1 0 0 1-1.601-.26l-1.613-3.224-1.839.613L43.236 35H50zM38.5 12l-2.868 5.735 2.052-.684a1 1 0 0 1 1.21.502l1.38 2.759 1.588-1.588L38.5 12zm-17.175 9.65L18 15l-3.738 7.476 2.6 1.625 1.484-2.597a1 1 0 0 1 1.184-.453l1.795.599z" class="french-vanilla-100"/></g></svg>