<svg xmlns="http://www.w3.org/2000/svg" width="56" height="56" class="wd-accent-news wd-accent" focusable="false" role="presentation" viewBox="0 0 56 56"><g fill="none" fill-rule="nonzero" class="wd-icon-container"><path fill="#005DBA" d="M10 47.973A4.5 4.5 0 0 1 5 43.5V14a2 2 0 0 1 2-2h5V9a2 2 0 0 1 2-2h35a2 2 0 0 1 2 2v34a5 5 0 0 1-5 5H13.242c-.082 0-.163-.005-.242-.014V48h-3v-.027zM12 14H7v29.5a2.5 2.5 0 1 0 5 0V14zm2-5v34.5a4.48 4.48 0 0 1-.758 2.5H46a3 3 0 0 0 3-3V9H14zm4 5h12a1 1 0 0 1 0 2H18a1 1 0 0 1 0-2zm13 11h13a1 1 0 0 1 0 2H31a1 1 0 0 1 0-2zm-13-7h10a1 1 0 0 1 0 2H18a1 1 0 0 1 0-2zm13 11h13a1 1 0 0 1 0 2H31a1 1 0 0 1 0-2zm0 4h13a1 1 0 0 1 0 2H31a1 1 0 0 1 0-2zm0 4h13a1 1 0 0 1 0 2H31a1 1 0 0 1 0-2zm0 4h8a1 1 0 0 1 0 2h-8a1 1 0 0 1 0-2zm3-27h10a1 1 0 0 1 1 1v6a1 1 0 0 1-1 1H34a1 1 0 0 1-1-1v-6a1 1 0 0 1 1-1zM18 25h8a1 1 0 0 1 1 1v16a1 1 0 0 1-1 1h-8a1 1 0 0 1-1-1V26a1 1 0 0 1 1-1z" class="color-500"/><path fill="#FFF" d="M12 14H7v29.5a2.5 2.5 0 1 0 5 0V14zm2-5v34.5a4.48 4.48 0 0 1-.758 2.5H46a3 3 0 0 0 3-3V9H14zm4 5h12a1 1 0 0 1 0 2H18a1 1 0 0 1 0-2zm13 11h13a1 1 0 0 1 0 2H31a1 1 0 0 1 0-2zm-13-7h10a1 1 0 0 1 0 2H18a1 1 0 0 1 0-2zm13 11h13a1 1 0 0 1 0 2H31a1 1 0 0 1 0-2zm0 4h13a1 1 0 0 1 0 2H31a1 1 0 0 1 0-2zm0 4h13a1 1 0 0 1 0 2H31a1 1 0 0 1 0-2zm0 4h8a1 1 0 0 1 0 2h-8a1 1 0 0 1 0-2zm3-27h10a1 1 0 0 1 1 1v6a1 1 0 0 1-1 1H34a1 1 0 0 1-1-1v-6a1 1 0 0 1 1-1zM18 25h8a1 1 0 0 1 1 1v16a1 1 0 0 1-1 1h-8a1 1 0 0 1-1-1V26a1 1 0 0 1 1-1z" class="french-vanilla-100"/></g></svg>