<svg xmlns="http://www.w3.org/2000/svg" width="56" height="56" class="wd-accent-no-coin wd-accent" focusable="false" role="presentation" viewBox="0 0 56 56"><g fill="none" fill-rule="nonzero" class="wd-icon-container"><path fill="#005DBA" d="M13.17 44.25A21.92 21.92 0 0 0 28 50c12.15 0 22-9.85 22-22 0-5.59-2.086-10.695-5.521-14.576L13.17 44.251zm-1.414-1.413l31.331-30.85A21.924 21.924 0 0 0 28 6C15.85 6 6 15.85 6 28a21.92 21.92 0 0 0 5.756 14.837zm11.557-6.468c1.135.322 2.377.532 3.687.604v-2a17.568 17.568 0 0 1-2.034-.231l1.816-1.788c.4.03.806.046 1.218.046 6.134 0 11-3.446 11-7.5 0-1.21-.433-2.365-1.204-3.39l1.438-1.417c1.015 1.269 1.64 2.731 1.749 4.307h.022L41 26.005l-.032 5.1C40.49 35.645 34.78 39 28 39c-2.27 0-4.419-.376-6.293-1.05l1.606-1.58zm-4.634-2.453l-1.413 1.39c-1.265-1.218-2.07-2.681-2.24-4.3L14.995 25h.022c.354-5.093 6.087-9 12.983-9 2.672 0 5.17.587 7.248 1.602l-1.525 1.501C32.06 18.406 30.105 18 28 18c-6.134 0-11 3.446-11 7.5 0 2.359 1.647 4.512 4.234 5.9l-1.481 1.458c-1.065-.636-1.99-1.394-2.733-2.248v.285c.116 1.09.707 2.124 1.659 3.02zm4.08-4.017C20.494 28.833 19 27.076 19 25c0-3.438 4.1-6 9-6 1.784 0 3.462.34 4.875.938l-1.573 1.549A11.047 11.047 0 0 0 28 21c-3.936 0-7 1.915-7 4 0 1.36 1.304 2.647 3.302 3.379l-1.544 1.52zm13.87-6.641c.241.547.371 1.13.371 1.742 0 3.252-3.667 5.72-8.211 5.978l2.498-2.46C33.517 27.819 35 26.45 35 25c0-.045-.001-.09-.004-.134l1.633-1.608zM34 35.934v-1.997c-1.52.575-3.212.937-5 1.035v2c1.837-.1 3.54-.471 5-1.038zm2-.99c1.716-1.07 2.815-2.465 2.974-3.95l.002-.378c-.8.917-1.809 1.723-2.976 2.386v1.942zM28 52C14.745 52 4 41.255 4 28S14.745 4 28 4s24 10.745 24 24-10.745 24-24 24z" class="color-500"/><path fill="#FFF" d="M13.17 44.25A21.92 21.92 0 0 0 28 50c12.15 0 22-9.85 22-22 0-5.59-2.086-10.695-5.521-14.576L13.17 44.251zm-1.414-1.413l31.331-30.85A21.924 21.924 0 0 0 28 6C15.85 6 6 15.85 6 28a21.92 21.92 0 0 0 5.756 14.837zm11.557-6.468c1.135.322 2.377.532 3.687.604v-2a17.568 17.568 0 0 1-2.034-.231l1.816-1.788c.4.03.806.046 1.218.046 6.134 0 11-3.446 11-7.5 0-1.21-.433-2.365-1.204-3.39l1.438-1.417c1.015 1.269 1.64 2.731 1.749 4.307h.022L41 26.005l-.032 5.1C40.49 35.645 34.78 39 28 39c-2.27 0-4.419-.376-6.293-1.05l1.606-1.58zm-4.634-2.453l-1.413 1.39c-1.265-1.218-2.07-2.681-2.24-4.3L14.995 25h.022c.354-5.093 6.087-9 12.983-9 2.672 0 5.17.587 7.248 1.602l-1.525 1.501C32.06 18.406 30.105 18 28 18c-6.134 0-11 3.446-11 7.5 0 2.359 1.647 4.512 4.234 5.9l-1.481 1.458c-1.065-.636-1.99-1.394-2.733-2.248v.285c.116 1.09.707 2.124 1.659 3.02zm4.08-4.017C20.494 28.833 19 27.076 19 25c0-3.438 4.1-6 9-6 1.784 0 3.462.34 4.875.938l-1.573 1.549A11.047 11.047 0 0 0 28 21c-3.936 0-7 1.915-7 4 0 1.36 1.304 2.647 3.302 3.379l-1.544 1.52zm13.87-6.641c.241.547.371 1.13.371 1.742 0 3.252-3.667 5.72-8.211 5.978l2.498-2.46C33.517 27.819 35 26.45 35 25c0-.045-.001-.09-.004-.134l1.633-1.608zM34 35.934v-1.997c-1.52.575-3.212.937-5 1.035v2c1.837-.1 3.54-.471 5-1.038zm2-.99c1.716-1.07 2.815-2.465 2.974-3.95l.002-.378c-.8.917-1.809 1.723-2.976 2.386v1.942z" class="french-vanilla-100"/></g></svg>