<svg xmlns="http://www.w3.org/2000/svg" width="56" height="56" fill="none" class="wd-accent-notification wd-accent" focusable="false" role="presentation" viewBox="0 0 56 56"><g class="wd-icon-container"><path fill="#fff" d="M31.994 8.782l.038.703.674.202C37.96 11.257 42 15.349 42 21v10c0 3.757 1.347 6.466 2.707 8.235.678.88 1.357 1.526 1.872 1.955.156.13.298.242.421.333V46H33.964l-.212.715a6.003 6.003 0 0 1-11.504 0L22.036 46H9v-4.477c.123-.091.265-.202.421-.333a12.385 12.385 0 0 0 1.872-1.955C12.653 37.466 14 34.757 14 31V21c0-5.65 4.041-9.744 9.294-11.313l.674-.202.038-.703a4 4 0 0 1 7.988 0z" class="french-vanilla-100"/><g fill="#0875E1" class="color-500"><path d="M22.832 14.945a1 1 0 0 1-.277 1.387C21.268 17.19 20 18.905 20 21v3a1 1 0 1 1-2 0v-3c0-2.905 1.732-5.19 3.445-6.332a1 1 0 0 1 1.387.277zM19 28a1 1 0 1 0 0-2 1 1 0 0 0 0 2z"/><path fill-rule="evenodd" d="M32.993 8.728C38.544 10.388 43 14.79 43 21v10c0 5.105 2.659 8.082 4.099 9.32.532.458.901 1.11.901 1.812V45a2 2 0 0 1-2 2H34.71a7.003 7.003 0 0 1-13.42 0H10a2 2 0 0 1-2-2v-2.868c0-.702.369-1.354.901-1.812C10.341 39.082 13 36.105 13 31V21c0-6.21 4.456-10.613 10.007-12.272a5 5 0 0 1 9.986 0zm-7.897-.485a3.001 3.001 0 0 1 5.808 0 17.514 17.514 0 0 0-5.808 0zM23.416 47a5.001 5.001 0 0 0 9.168 0h-9.168zM10 45v-2h36v2H10zm2.085-5.156c-.337.438-.674.823-.995 1.156h33.82a13.729 13.729 0 0 1-.995-1.156C42.444 37.932 41 35.014 41 31V21c0-6.51-6.069-11-13-11s-13 4.49-13 11v10c0 4.014-1.444 6.932-2.915 8.844z" clip-rule="evenodd"/></g></g></svg>