<svg xmlns="http://www.w3.org/2000/svg" width="56" height="56" class="wd-accent-no-trash wd-accent" focusable="false" role="presentation" viewBox="0 0 56 56"><g fill="none" fill-rule="evenodd" class="wd-icon-container"><path fill="#005DBA" fill-rule="nonzero" d="M28 4c13.255 0 24 10.745 24 24S41.255 52 28 52 4 41.255 4 28 14.745 4 28 4zm15.26 8.154L12.155 43.26A21.936 21.936 0 0 0 28 50c12.15 0 22-9.85 22-22a21.936 21.936 0 0 0-6.74-15.846zM40 17.536V19a2 2 0 0 1-1.047 1.759l-1.458 21.377A2 2 0 0 1 35.5 44h-15a2 2 0 0 1-1.995-1.864l-.199-2.907 1.877-1.877L20.5 42h15l1.432-21h-.396L40 17.536zM28 6C15.85 6 6 15.85 6 28c0 5.205 1.808 9.988 4.83 13.756L41.756 10.83A21.907 21.907 0 0 0 28 6zm1 22.534V38a1 1 0 0 1-2 0v-7.465l2-2.001zm4.436-4.434A1 1 0 0 1 34 25v13a1 1 0 0 1-2 0V25.534zM24 33.535V38a1 1 0 0 1-2 0v-2.465l2-2zM31 11a2 2 0 0 1 2 2v2h2.464l-2 2H18v2h13.464l-2 2H19.068l.664 9.733-1.877 1.875-.808-11.85A2 2 0 0 1 16 19v-2a2 2 0 0 1 2-2h5v-2a2 2 0 0 1 2-2h6zm-8 13a1 1 0 0 1 1 1v1.463l-2 2V25a1 1 0 0 1 .883-.993zm8-11h-6v2h6v-2z" class="color-500"/><path fill="#FFF" d="M33.464 17H18v2h13.464l2-2zm3.468 4L35.5 42h-15l-.317-4.648L22 35.536V38a1 1 0 0 0 2 0v-4.464l3-3V38a1 1 0 0 0 2 0v-9.464l3-3V38a1 1 0 0 0 2 0V25a1 1 0 0 0-.564-.9l3.1-3.1h.396zm-7.468 0L24 26.464V25a1 1 0 0 0-2 0v3.464l-2.268 2.269L19.068 21h10.396z" class="french-vanilla-100"/></g></svg>