<svg xmlns="http://www.w3.org/2000/svg" width="56" height="56" class="wd-accent-ocean wd-accent" focusable="false" role="presentation" viewBox="0 0 56 56"><g fill="none" fill-rule="evenodd" class="wd-icon-container"><path fill="#005DBA" fill-rule="nonzero" d="M19.814 29.581C13.976 37.755 12.447 39 7 39a1 1 0 0 1 0-2c4.598 0 5.695-.894 11.186-8.581C21.734 23.452 28.04 21 37 21c1.18 0 1.387 1.684.243 1.97-4.876 1.219-6.826 3.448-6.257 6.866C31.788 34.643 38.151 37 49 37a1 1 0 0 1 0 2c-11.75 0-18.959-2.67-19.986-8.836-.476-2.853.398-5.133 2.523-6.798-5.445.794-9.338 2.875-11.723 6.215zM9 25a1 1 0 0 1 0-2h3a1 1 0 0 1 0 2H9zm35 0a1 1 0 0 1 0-2h3a1 1 0 0 1 0 2h-3zM27 5a1 1 0 0 1 2 0v3a1 1 0 0 1-2 0V5zm-13.142 6.272a1 1 0 1 1 1.414-1.414l2.121 2.121a1 1 0 0 1-1.414 1.414l-2.121-2.12zm26.87-1.414a1 1 0 1 1 1.414 1.414l-2.121 2.121a1 1 0 0 1-1.414-1.414l2.12-2.121zm-30.664 7.795a1 1 0 0 1 .765-1.848l2.772 1.148a1 1 0 0 1-.766 1.848l-2.771-1.148zm32.335 13.394a1 1 0 0 1 .766-1.848l2.771 1.148a1 1 0 0 1-.765 1.848l-2.772-1.148zM34.347 6.064a1 1 0 1 1 1.848.765l-1.148 2.772a1 1 0 0 1-1.848-.766l1.148-2.771zm-14.542.765a1 1 0 1 1 1.848-.765L22.8 8.835a1 1 0 1 1-1.848.766l-1.148-2.772zm25.366 8.976a1 1 0 1 1 .765 1.848L43.165 18.8a1 1 0 1 1-.766-1.848l2.772-1.148zM12.835 29.2a1 1 0 0 1 .766 1.848l-2.772 1.148a1 1 0 1 1-.765-1.848l2.771-1.148zm11.182 2.985a1 1 0 0 1 1.966-.368c.925 4.935 3.956 7.966 9.246 9.21a1 1 0 0 1-.458 1.947c-6.044-1.422-9.68-5.057-10.754-10.789zm-9.966 7.132a1 1 0 1 1 1.898-.632c.613 1.84 1.861 3.712 3.758 5.609a1 1 0 0 1-1.414 1.414c-2.103-2.103-3.522-4.23-4.242-6.39zM21.4 47.8a1 1 0 0 1 1.2-1.6c1.231.924 2.445 1.53 3.643 1.83a1 1 0 0 1-.486 1.94c-1.47-.367-2.922-1.094-4.357-2.17zm18.357-4.83a1 1 0 0 1 .486-1.94c2.587.647 5.173.97 7.757.97a1 1 0 0 1 0 2c-2.75 0-5.497-.344-8.243-1.03zm-30.715-.683a1 1 0 0 1 1.916-.574c.946 3.155 2.51 5.657 4.693 7.528a1 1 0 1 1-1.302 1.518c-2.484-2.129-4.253-4.96-5.307-8.472zm10.994-5.02a1 1 0 0 1 1.928-.535c1.537 5.537 7.186 8.989 17.164 10.276a1 1 0 0 1-.256 1.984c-10.69-1.38-17.04-5.26-18.836-11.724zm17.88-3.384A1 1 0 1 1 36.5 32.47 11.957 11.957 0 0 0 40 24c0-6.627-5.373-12-12-12s-12 5.373-12 12c0 1.288.203 2.547.595 3.744a1 1 0 0 1-1.9.624A13.988 13.988 0 0 1 14 24c0-7.732 6.268-14 14-14s14 6.268 14 14c0 3.754-1.486 7.276-4.084 9.883z" class="color-500"/></g></svg>