<svg xmlns="http://www.w3.org/2000/svg" width="56" height="56" class="wd-accent-open-book-blank wd-accent" focusable="false" role="presentation" viewBox="0 0 56 56"><g fill="none" fill-rule="nonzero" class="wd-icon-container"><path fill="#005DBA" d="M28.171 13.999c4.274-4.053 10.399-5.342 18.177-3.97A2 2 0 0 1 48 12v1.61c.8.124 1.599.268 2.398.43A2 2 0 0 1 52 15.999v29a1.99 1.99 0 0 1-1.098 1.785c-.286.145-.61.223-.947.215H30.732a2 2 0 0 1-1.732 1h-2a2 2 0 0 1-1.732-1H6.052a1.98 1.98 0 0 1-1.377-.502A1.988 1.988 0 0 1 4 44.999v-29a2 2 0 0 1 1.538-1.946c.803-.19 1.624-.356 2.462-.495v-1.56a2 2 0 0 1 1.652-1.969C17.43 8.657 23.555 9.946 27.83 14h.342zm-1.171 2c-3.778-4-9.444-5.334-17-4v29c7.178-.667 12.844.666 17 4v-29zm21 25a2 2 0 0 1-2.185 1.991c-4.854-.45-8.898.062-12.17 1.513A42.127 42.127 0 0 1 40.131 44c3.044 0 6.334.333 9.869 1v-29a51.071 51.071 0 0 0-2-.365V41zm-42-25v29c3.043-.667 6.087-1 9.13-1 2.323 0 4.789.194 7.397.582-3.302-1.51-7.402-2.05-12.342-1.59A2 2 0 0 1 8 40.998V15.587c-.68.12-1.346.256-2 .412zm40-4c-7.556-1.334-13.222 0-17 4v29c4.156-3.334 9.822-4.667 17-4v-29z" class="color-500"/><path fill="#FFF" d="M27 16c-3.778-4-9.444-5.333-17-4v29c7.178-.667 12.844.667 17 4V16zm21-.365V41a2 2 0 0 1-2.185 1.991c-4.854-.45-8.898.063-12.17 1.513A42.127 42.127 0 0 1 40.131 44c3.044 0 6.334.333 9.869 1V16a51.072 51.072 0 0 0-2-.365zM8 15.59c-.68.119-1.346.256-2 .411v29c3.043-.667 6.087-1 9.13-1 2.323 0 4.789.194 7.397.582-3.302-1.51-7.402-2.05-12.342-1.59A2 2 0 0 1 8 41V15.589zM46 12c-7.556-1.333-13.222 0-17 4v29c4.156-3.333 9.822-4.667 17-4V12z" class="french-vanilla-100"/></g></svg>