<svg xmlns="http://www.w3.org/2000/svg" width="56" height="56" class="wd-accent-open-positions wd-accent" focusable="false" role="presentation" viewBox="0 0 56 56"><g fill="none" fill-rule="evenodd" class="wd-icon-container"><path fill="#005DBA" fill-rule="nonzero" d="M28 5c6.075 0 11 4.925 11 11a10.99 10.99 0 0 1-4.903 9.157l2.564 4.732A10.964 10.964 0 0 1 41 29c6.075 0 11 4.925 11 11s-4.925 11-11 11-11-4.925-11-11a10.99 10.99 0 0 1 4.903-9.157l-2.564-4.732C31.01 26.683 29.541 27 28 27c-1.541 0-3.008-.317-4.34-.89l-2.563 4.733A10.99 10.99 0 0 1 26 40c0 6.075-4.925 11-11 11S4 46.075 4 40s4.925-11 11-11c1.541 0 3.008.317 4.34.89l2.563-4.733A10.99 10.99 0 0 1 17 16c0-6.075 4.925-11 11-11zm-9 39h-8a1 1 0 0 0-1 1v2.485A8.951 8.951 0 0 0 15 49a8.951 8.951 0 0 0 5-1.515V45a1 1 0 0 0-1-1zm22-13a9 9 0 1 0 0 18 9 9 0 0 0 0-18zm-26 0a9 9 0 0 0-7 14.657V45a3 3 0 0 1 3-3h1.354A3.99 3.99 0 0 1 11 39v-2a4 4 0 1 1 8 0v2a3.99 3.99 0 0 1-1.354 3H19a3 3 0 0 1 3 3v.657A9 9 0 0 0 15 31zm26 4a1 1 0 0 1 1 1v3h3a1 1 0 0 1 0 2h-3v3a1 1 0 0 1-2 0v-3h-3a1 1 0 0 1 0-2h3v-3a1 1 0 0 1 1-1zm-26 0a2 2 0 0 0-2 2v2a2 2 0 1 0 4 0v-2a2 2 0 0 0-2-2zm17-15h-8a1 1 0 0 0-1 1v2.485A8.951 8.951 0 0 0 28 25a8.951 8.951 0 0 0 5-1.515V21a1 1 0 0 0-1-1zM28 7a9 9 0 0 0-7 14.657V21a3 3 0 0 1 3-3h1.354A3.99 3.99 0 0 1 24 15v-2a4 4 0 1 1 8 0v2a3.99 3.99 0 0 1-1.354 3H32a3 3 0 0 1 3 3v.657A9 9 0 0 0 28 7zm0 4a2 2 0 0 0-2 2v2a2 2 0 1 0 4 0v-2a2 2 0 0 0-2-2z" class="color-500"/><path fill="#FFF" d="M8 45.657a9 9 0 1 1 14 0V45a3 3 0 0 0-3-3h-1.354A3.99 3.99 0 0 0 19 39v-2a4 4 0 1 0-8 0v2a3.99 3.99 0 0 0 1.354 3H11a3 3 0 0 0-3 3v.657zM20 45v2.485A8.951 8.951 0 0 1 15 49a8.951 8.951 0 0 1-5-1.515V45a1 1 0 0 1 1-1h8a1 1 0 0 1 1 1zm21-14a9 9 0 1 1 0 18 9 9 0 0 1 0-18zm0 4a1 1 0 0 0-1 1v3h-3a1 1 0 0 0 0 2h3v3a1 1 0 0 0 2 0v-3h3a1 1 0 0 0 0-2h-3v-3a1 1 0 0 0-1-1zm-26 0a2 2 0 0 1 2 2v2a2 2 0 1 1-4 0v-2a2 2 0 0 1 2-2zm17-15a1 1 0 0 1 1 1v2.485A8.951 8.951 0 0 1 28 25a8.951 8.951 0 0 1-5-1.515V21a1 1 0 0 1 1-1h8zM28 7a9 9 0 0 1 7 14.657V21a3 3 0 0 0-3-3h-1.354A3.99 3.99 0 0 0 32 15v-2a4 4 0 1 0-8 0v2a3.99 3.99 0 0 0 1.354 3H24a3 3 0 0 0-3 3v.657A9 9 0 0 1 28 7zm0 4a2 2 0 0 1 2 2v2a2 2 0 1 1-4 0v-2a2 2 0 0 1 2-2z" class="french-vanilla-100"/></g></svg>