<svg xmlns="http://www.w3.org/2000/svg" width="56" height="56" class="wd-accent-paper-clock wd-accent" focusable="false" role="presentation" viewBox="0 0 56 56"><g fill="none" fill-rule="nonzero" class="wd-icon-container"><path fill="#005DBA" d="M41.413 40H45a1 1 0 0 1 0 2l-4.198-.02a1 1 0 0 1-1.053-.669l-1.953-5.673a1 1 0 1 1 1.89-.65L41.414 40zM45 30.75c4.097 1.6 7 5.586 7 10.25 0 6.075-4.925 11-11 11-2.923 0-5.58-1.14-7.55-3H14a3 3 0 0 1-3-3V7a3 3 0 0 1 3-3h28a3 3 0 0 1 3 3v23.75zm-2-.569V7a1 1 0 0 0-1-1H14a1 1 0 0 0-1 1v39a1 1 0 0 0 1 1h17.779a10.935 10.935 0 0 1-1.598-4H25a1 1 0 0 1 0-2h5c0-1.04.144-2.046.414-3H25a1 1 0 0 1 0-2h6.2a11.037 11.037 0 0 1 2.25-3H25a1 1 0 0 1 0-2h11.411A11.063 11.063 0 0 1 43 30.181zM25 21h13a1 1 0 0 1 0 2H25a1 1 0 0 1 0-2zm0 5h13a1 1 0 0 1 0 2H25a1 1 0 0 1 0-2zm-6-16h18a1 1 0 0 1 0 2H19a1 1 0 0 1 0-2zm2 4h14a1 1 0 0 1 0 2H21a1 1 0 0 1 0-2zm-4 7h4a1 1 0 0 1 0 2h-4a1 1 0 0 1 0-2zm0 5h4a1 1 0 0 1 0 2h-4a1 1 0 0 1 0-2zm0 5h4a1 1 0 0 1 0 2h-4a1 1 0 0 1 0-2zm0 5h4a1 1 0 0 1 0 2h-4a1 1 0 0 1 0-2zm0 5h4a1 1 0 0 1 0 2h-4a1 1 0 0 1 0-2zm24 9a9 9 0 1 0 0-18 9 9 0 0 0 0 18z" class="color-500"/><path fill="#FFF" d="M41.413 40H45a1 1 0 0 1 0 2l-4.198-.02a1 1 0 0 1-1.053-.669l-1.953-5.673a1 1 0 1 1 1.89-.65L41.414 40zM43 30.181V7a1 1 0 0 0-1-1H14a1 1 0 0 0-1 1v39a1 1 0 0 0 1 1h17.779a10.935 10.935 0 0 1-1.598-4H25a1 1 0 0 1 0-2h5c0-1.04.144-2.046.414-3H25a1 1 0 0 1 0-2h6.2a11.037 11.037 0 0 1 2.25-3H25a1 1 0 0 1 0-2h11.411A11.063 11.063 0 0 1 43 30.181zM25 21h13a1 1 0 0 1 0 2H25a1 1 0 0 1 0-2zm0 5h13a1 1 0 0 1 0 2H25a1 1 0 0 1 0-2zm-6-16h18a1 1 0 0 1 0 2H19a1 1 0 0 1 0-2zm2 4h14a1 1 0 0 1 0 2H21a1 1 0 0 1 0-2zm-4 7h4a1 1 0 0 1 0 2h-4a1 1 0 0 1 0-2zm0 5h4a1 1 0 0 1 0 2h-4a1 1 0 0 1 0-2zm0 5h4a1 1 0 0 1 0 2h-4a1 1 0 0 1 0-2zm0 5h4a1 1 0 0 1 0 2h-4a1 1 0 0 1 0-2zm0 5h4a1 1 0 0 1 0 2h-4a1 1 0 0 1 0-2zm24 9a9 9 0 1 0 0-18 9 9 0 0 0 0 18z" class="french-vanilla-100"/></g></svg>