<svg xmlns="http://www.w3.org/2000/svg" width="56" height="56" class="wd-accent-papers wd-accent" focusable="false" role="presentation" viewBox="0 0 56 56"><g fill="none" fill-rule="evenodd" class="wd-icon-container"><path fill="#005DBA" fill-rule="nonzero" d="M45 4a3 3 0 0 1 3 3v34a3 3 0 0 1-3 3h-2v1a3 3 0 0 1-3 3h-2v1a3 3 0 0 1-3 3H11a3 3 0 0 1-3-3V15a3 3 0 0 1 3-3h2v-1a3 3 0 0 1 3-3h2V7a3 3 0 0 1 3-3h24zM35 14H11a1 1 0 0 0-1 1v34a1 1 0 0 0 1 1h24a1 1 0 0 0 1-1V15a1 1 0 0 0-1-1zm5-4H16a1 1 0 0 0-1 1v1h20a3 3 0 0 1 3 3v31h2a1 1 0 0 0 1-1V11a1 1 0 0 0-1-1zM23 44a1 1 0 0 1 0 2h-8a1 1 0 0 1 0-2zM45 6H21a1 1 0 0 0-1 1v1h20a3 3 0 0 1 3 3v31h2a1 1 0 0 0 1-1V7a1 1 0 0 0-1-1zM29 39a1 1 0 0 1 0 2H15a1 1 0 0 1 0-2zm-4-5a1 1 0 0 1 0 2H15a1 1 0 0 1 0-2zm6-5a1 1 0 0 1 0 2H15a1 1 0 0 1 0-2zm-3-5a1 1 0 0 1 0 2H15a1 1 0 0 1 0-2zm3-5a1 1 0 0 1 0 2H15a1 1 0 0 1 0-2z" class="color-500"/><path fill="#FFF" d="M35 14a1 1 0 0 1 1 1v34a1 1 0 0 1-1 1H11a1 1 0 0 1-1-1V15a1 1 0 0 1 1-1h24zm5-4a1 1 0 0 1 1 1v34a1 1 0 0 1-1 1h-2V15a3 3 0 0 0-3-3H15v-1a1 1 0 0 1 1-1h24zM23 44h-8a1 1 0 0 0 0 2h8a1 1 0 0 0 0-2zM45 6a1 1 0 0 1 1 1v34a1 1 0 0 1-1 1h-2V11a3 3 0 0 0-3-3H20V7a1 1 0 0 1 1-1zM29 39H15a1 1 0 0 0 0 2h14a1 1 0 0 0 0-2zm-4-5H15a1 1 0 0 0 0 2h10a1 1 0 0 0 0-2zm6-5H15a1 1 0 0 0 0 2h16a1 1 0 0 0 0-2zm-3-5H15a1 1 0 0 0 0 2h13a1 1 0 0 0 0-2zm3-5H15a1 1 0 0 0 0 2h16a1 1 0 0 0 0-2z" class="french-vanilla-100"/></g></svg>