<svg xmlns="http://www.w3.org/2000/svg" width="56" height="56" class="wd-accent-papers-update wd-accent" focusable="false" role="presentation" viewBox="0 0 56 56"><g fill="none" fill-rule="nonzero" class="wd-icon-container"><path fill="#005DBA" d="M41 45a3.991 3.991 0 0 0 3.182-1.575l1.59 1.214A6.002 6.002 0 0 1 35.341 43H34a1 1 0 0 1-.707-1.707L36 38.586l2.707 2.707A1 1 0 0 1 38 43h-.465A3.998 3.998 0 0 0 41 45zm0-8c-1.28 0-2.456.603-3.208 1.61l-1.602-1.197A6.002 6.002 0 0 1 46.659 39H48a1 1 0 0 1 .707 1.707L46 43.414l-2.707-2.707A1 1 0 0 1 44 39h.465A3.998 3.998 0 0 0 41 37zM23 48a3 3 0 0 1-3-3v-2H10a3 3 0 0 1-3-3V7a3 3 0 0 1 3-3h22a3 3 0 0 1 3 3v2h10a3 3 0 0 1 3 3v20.514c2.443 2.018 4 5.07 4 8.486 0 6.075-4.925 11-11 11a10.978 10.978 0 0 1-8.486-4H23zm23-36a1 1 0 0 0-1-1H23a1 1 0 0 0-1 1v33a1 1 0 0 0 1 1h8.2c-.767-1.5-1.2-3.2-1.2-5h-4a1 1 0 0 1 0-2h4.181a10.922 10.922 0 0 1 1.018-3H26a1 1 0 0 1 0-2h6.514a11.038 11.038 0 0 1 3.897-3H26a1 1 0 0 1 0-2h16a1 1 0 0 1 .984 1.178c1.067.195 2.08.543 3.016 1.021V12zM33 9V7a1 1 0 0 0-1-1H10a1 1 0 0 0-1 1v33a1 1 0 0 0 1 1h10V12a3 3 0 0 1 3-3h10zM13 9h4a1 1 0 0 1 0 2h-4a1 1 0 0 1 0-2zm0 5h4a1 1 0 0 1 0 2h-4a1 1 0 0 1 0-2zm0 5h4a1 1 0 0 1 0 2h-4a1 1 0 0 1 0-2zm0 5h4a1 1 0 0 1 0 2h-4a1 1 0 0 1 0-2zm0 5h4a1 1 0 0 1 0 2h-4a1 1 0 0 1 0-2zm0 5h4a1 1 0 0 1 0 2h-4a1 1 0 0 1 0-2zm13-20h16a1 1 0 0 1 0 2H26a1 1 0 0 1 0-2zm0 5h16a1 1 0 0 1 0 2H26a1 1 0 0 1 0-2zm0 5h16a1 1 0 0 1 0 2H26a1 1 0 0 1 0-2zm15 26a9 9 0 1 0 0-18 9 9 0 0 0 0 18z" class="color-500"/><path fill="#FFF" d="M41 45a3.991 3.991 0 0 0 3.182-1.575l1.59 1.214A6.002 6.002 0 0 1 35.341 43H34a1 1 0 0 1-.707-1.707L36 38.586l2.707 2.707A1 1 0 0 1 38 43h-.465A3.998 3.998 0 0 0 41 45zm0-8c-1.28 0-2.456.603-3.208 1.61l-1.602-1.197A6.002 6.002 0 0 1 46.659 39H48a1 1 0 0 1 .707 1.707L46 43.414l-2.707-2.707A1 1 0 0 1 44 39h.465A3.998 3.998 0 0 0 41 37zm5-25a1 1 0 0 0-1-1H23a1 1 0 0 0-1 1v33a1 1 0 0 0 1 1h8.2c-.767-1.5-1.2-3.2-1.2-5h-4a1 1 0 0 1 0-2h4.181a10.922 10.922 0 0 1 1.018-3H26a1 1 0 0 1 0-2h6.514a11.038 11.038 0 0 1 3.897-3H26a1 1 0 0 1 0-2h16a1 1 0 0 1 .984 1.178c1.067.195 2.08.543 3.016 1.021V12zM33 9V7a1 1 0 0 0-1-1H10a1 1 0 0 0-1 1v33a1 1 0 0 0 1 1h10V12a3 3 0 0 1 3-3h10zM13 9h4a1 1 0 0 1 0 2h-4a1 1 0 0 1 0-2zm0 5h4a1 1 0 0 1 0 2h-4a1 1 0 0 1 0-2zm0 5h4a1 1 0 0 1 0 2h-4a1 1 0 0 1 0-2zm0 5h4a1 1 0 0 1 0 2h-4a1 1 0 0 1 0-2zm0 5h4a1 1 0 0 1 0 2h-4a1 1 0 0 1 0-2zm0 5h4a1 1 0 0 1 0 2h-4a1 1 0 0 1 0-2zm13-20h16a1 1 0 0 1 0 2H26a1 1 0 0 1 0-2zm0 5h16a1 1 0 0 1 0 2H26a1 1 0 0 1 0-2zm0 5h16a1 1 0 0 1 0 2H26a1 1 0 0 1 0-2zm15 26a9 9 0 1 0 0-18 9 9 0 0 0 0 18z" class="french-vanilla-100"/></g></svg>