<svg xmlns="http://www.w3.org/2000/svg" width="56" height="56" class="wd-accent-paper-seal wd-accent" focusable="false" role="presentation" viewBox="0 0 56 56"><g fill="none" fill-rule="nonzero" class="wd-icon-container"><path fill="#005DBA" d="M28.543 37.385a7 7 0 1 1 10.913 0l1.502 7.207c.328 1.575-1.244 2.873-2.728 2.254L34 45.08l-4.23 1.766c-1.484.62-3.056-.679-2.728-2.254l1.501-7.207zm9.19 1.537A6.967 6.967 0 0 1 34 40a6.967 6.967 0 0 1-3.734-1.078L29 45l5-2.087L39 45l-1.266-6.078zM14 4h28a3 3 0 0 1 3 3v42a3 3 0 0 1-3 3H14a3 3 0 0 1-3-3V7a3 3 0 0 1 3-3zm0 2a1 1 0 0 0-1 1v42a1 1 0 0 0 1 1h28a1 1 0 0 0 1-1V7a1 1 0 0 0-1-1H14zm4 12h20a1 1 0 0 1 0 2H18a1 1 0 0 1 0-2zm0-5h20a1 1 0 0 1 0 2H18a1 1 0 0 1 0-2zm0 23h7a1 1 0 0 1 0 2h-7a1 1 0 0 1 0-2zm0 5h7a1 1 0 0 1 0 2h-7a1 1 0 0 1 0-2zm16-3a5 5 0 1 0 0-10 5 5 0 0 0 0 10z" class="color-500"/><path fill="#FFF" d="M28.543 37.385a7 7 0 1 1 10.913 0l1.502 7.207c.328 1.575-1.244 2.873-2.728 2.254L34 45.08l-4.23 1.766c-1.484.62-3.056-.679-2.728-2.254l1.501-7.207zm9.19 1.537A6.967 6.967 0 0 1 34 40a6.967 6.967 0 0 1-3.734-1.078L29 45l5-2.087L39 45l-1.266-6.078zM14 6a1 1 0 0 0-1 1v42a1 1 0 0 0 1 1h28a1 1 0 0 0 1-1V7a1 1 0 0 0-1-1H14zm4 12h20a1 1 0 0 1 0 2H18a1 1 0 0 1 0-2zm0-5h20a1 1 0 0 1 0 2H18a1 1 0 0 1 0-2zm0 23h7a1 1 0 0 1 0 2h-7a1 1 0 0 1 0-2zm0 5h7a1 1 0 0 1 0 2h-7a1 1 0 0 1 0-2zm16-3a5 5 0 1 0 0-10 5 5 0 0 0 0 10z" class="french-vanilla-100"/></g></svg>