<svg xmlns="http://www.w3.org/2000/svg" width="56" height="56" class="wd-accent-paper-airplane wd-accent" focusable="false" role="presentation" viewBox="0 0 56 56"><g fill="none" fill-rule="nonzero" class="wd-icon-container"><path fill="#005DBA" d="M20.964 33.39l-5.424 3.466a.97.97 0 0 1-1.163-.06.99.99 0 0 1-.21-.23.988.988 0 0 1-.172-.51L12.074 24.53l-7.731-6.764c-.663-.58-.306-1.673.572-1.749l45.886-3.99a.915.915 0 0 1 .66.085.963.963 0 0 1 .454.49.994.994 0 0 1 .077.238.93.93 0 0 1-.127.7.914.914 0 0 1-.126.166L31.825 42.58a1 1 0 0 1-1.53.14l-9.33-9.33zM18.15 29.49a.993.993 0 0 1 .383-.359l23.48-12.474-27.878 8.07 1.438 8.628 2.577-3.865zm22.755-14.594L7.426 17.806l5.822 5.095 27.656-8.006zM30.86 40.457L47.852 15.82 20.664 30.262 30.86 40.457z" class="color-500"/><path fill="#FFF" d="M18.15 29.489a.993.993 0 0 1 .382-.359l23.48-12.474-27.878 8.07 1.438 8.628 2.577-3.865zm22.754-14.594L7.426 17.806l5.822 5.095 27.656-8.006zM30.86 40.457L47.852 15.82 20.664 30.262 30.86 40.457z" class="french-vanilla-100"/></g></svg>