<svg xmlns="http://www.w3.org/2000/svg" width="56" height="56" class="wd-accent-paper wd-accent" focusable="false" role="presentation" viewBox="0 0 56 56"><g fill="none" fill-rule="nonzero" class="wd-icon-container"><path fill="#005DBA" d="M43 4a2 2 0 0 1 2 2v44a2 2 0 0 1-2 2H13a2 2 0 0 1-2-2V13a2 2 0 0 1 .586-1.414l7-7A2 2 0 0 1 20 4h23zm0 2H22v7a2 2 0 0 1-2 2h-7v35h30V6zm-6 36a1 1 0 0 1 0 2H19a1 1 0 0 1 0-2zm-2-5a1 1 0 0 1 0 2H19a1 1 0 0 1 0-2zm2-5a1 1 0 0 1 0 2H19a1 1 0 0 1 0-2zm-2-5a1 1 0 0 1 0 2H19a1 1 0 0 1 0-2zm2-5a1 1 0 0 1 0 2H19a1 1 0 0 1 0-2zm-2-5a1 1 0 0 1 0 2H19a1 1 0 0 1 0-2zM20 6l-7 7h7V6z" class="color-500"/><path fill="#FFF" d="M22 6h21v44H13V15h7a2 2 0 0 0 2-2V6zm-9 7l7-7v7h-7zm6 14a1 1 0 0 0 0 2h16a1 1 0 0 0 0-2H19zm0 10a1 1 0 0 0 0 2h16a1 1 0 0 0 0-2H19zm0-20a1 1 0 0 0 0 2h16a1 1 0 0 0 0-2H19zm0 15a1 1 0 0 0 0 2h18a1 1 0 0 0 0-2H19zm0 10a1 1 0 0 0 0 2h18a1 1 0 0 0 0-2H19zm0-20a1 1 0 0 0 0 2h18a1 1 0 0 0 0-2H19z" class="french-vanilla-100"/></g></svg>