<svg xmlns="http://www.w3.org/2000/svg" width="56" height="56" class="wd-accent-paw wd-accent" focusable="false" role="presentation" viewBox="0 0 56 56"><g fill="none" fill-rule="nonzero" class="wd-icon-container"><path fill="#005DBA" d="M16.21 23.589c1.16 3.19-.086 6.573-2.786 7.555-2.699.983-5.828-.807-6.99-3.998-1.16-3.19.086-6.573 2.785-7.555 2.7-.983 5.83.807 6.99 3.998zm30.502-3.998c2.7.982 3.946 4.365 2.785 7.555-1.161 3.19-4.29 4.98-6.99 3.998-2.7-.982-3.946-4.365-2.785-7.555 1.161-3.19 4.29-4.98 6.99-3.998zM9.903 21.47c-1.585.576-2.396 2.776-1.59 4.991.807 2.216 2.842 3.38 4.427 2.803 1.586-.577 2.396-2.777 1.59-4.992-.806-2.216-2.841-3.38-4.427-2.803zm31.698 2.802c-.806 2.215.005 4.415 1.59 4.992 1.585.577 3.62-.587 4.427-2.803.806-2.215-.005-4.415-1.59-4.992-1.585-.577-3.62.587-4.427 2.803zM26.846 14.219c.59 3.343-1.225 6.458-4.054 6.957-2.83.499-5.6-1.807-6.19-5.151-.59-3.344 1.226-6.458 4.055-6.957 2.829-.499 5.6 1.807 6.19 5.15zm8.429-5.151c2.829.499 4.644 3.613 4.054 6.957-.59 3.344-3.36 5.65-6.19 5.15-2.828-.498-4.644-3.613-4.054-6.956.59-3.344 3.36-5.65 6.19-5.151zm-14.27 1.97c-1.662.292-2.843 2.318-2.433 4.64.41 2.322 2.211 3.821 3.872 3.528 1.662-.293 2.842-2.318 2.433-4.64-.41-2.322-2.212-3.821-3.873-3.529zm10.05 3.528c-.41 2.322.77 4.347 2.432 4.64 1.661.293 3.463-1.206 3.873-3.528.41-2.322-.771-4.348-2.433-4.64-1.661-.293-3.463 1.206-3.872 3.528zm4.91 13.44c5.078 5.076 7.538 14.071 1 17-4.148 1.857-5.677-1.004-9-1-1.28 0-2.273.404-3.254.802l-.392.158c-1.441.571-2.935 1.013-5.353.04-6.678-2.69-4.077-11.924 1-17 5.077-5.078 10.923-5.078 16 0zm-1.411 1.412c-4.296-4.295-8.876-4.295-13.172 0-5 5-5.96 12.001-1.667 13.731 1.625.654 2.35.575 4.218-.183l.442-.179c1.336-.53 2.337-.782 3.59-.783 1.278-.001 2.288.265 3.682.834l.406.167c1.878.78 2.576.856 4.097.174 4.287-1.92 3.373-8.792-1.596-13.76zm-13.586 6.586a1 1 0 1 1 0 2 1 1 0 0 1 0-2zm6.502-6.32a1 1 0 0 1-.633 1.265c-1.746.582-3.048 1.733-3.945 3.499a1 1 0 1 1-1.784-.906c1.132-2.227 2.843-3.74 5.097-4.49a1 1 0 0 1 1.265.632z" class="color-500"/><path fill="#FFF" d="M34.554 29.418c4.969 4.97 5.883 11.84 1.596 13.76-1.521.683-2.219.607-4.097-.173a62.845 62.845 0 0 0-.406-.167c-1.394-.57-2.404-.835-3.681-.834-1.254.001-2.255.254-3.59.783-.124.05-.194.077-.443.179-1.868.758-2.593.837-4.218.183-4.293-1.73-3.332-8.73 1.667-13.73 4.296-4.296 8.876-4.296 13.172 0zm-13.586 6.586a1 1 0 1 0 0 2 1 1 0 0 0 0-2zm6.502-6.32a1 1 0 0 0-1.265-.633c-2.254.752-3.965 2.264-5.097 4.491a1 1 0 0 0 1.784.906c.897-1.766 2.2-2.917 3.945-3.5a1 1 0 0 0 .633-1.264zM9.903 21.47c1.586-.577 3.62.587 4.427 2.803.806 2.215-.004 4.415-1.59 4.992-1.585.577-3.62-.587-4.426-2.803-.807-2.215.004-4.415 1.59-4.992zm31.698 2.803c.807-2.216 2.842-3.38 4.427-2.803 1.585.577 2.396 2.777 1.59 4.992-.807 2.216-2.842 3.38-4.427 2.803-1.585-.577-2.396-2.777-1.59-4.992zM21.004 11.037c1.661-.292 3.463 1.207 3.873 3.529.41 2.322-.771 4.347-2.433 4.64-1.66.293-3.463-1.206-3.872-3.528-.41-2.322.77-4.348 2.432-4.64zm10.05 3.529c.41-2.322 2.212-3.821 3.873-3.529 1.662.293 2.842 2.319 2.433 4.64-.41 2.323-2.212 3.822-3.873 3.53-1.661-.294-2.842-2.32-2.432-4.641z" class="french-vanilla-100"/></g></svg>