<svg xmlns="http://www.w3.org/2000/svg" width="56" height="56" class="wd-accent-pencil-brush wd-accent" focusable="false" role="presentation" viewBox="0 0 56 56"><g fill="none" fill-rule="nonzero" class="wd-icon-container"><path fill="#005DBA" d="M42.643 6.411a3 3 0 0 1 4.242-.074l2.41 2.328a3 3 0 0 1 .074 4.242l-3.165 3.277a1.99 1.99 0 0 1-1.078.578 1.99 1.99 0 0 1-.533 1.056L33.535 29.27a95.019 95.019 0 0 1 2.477 2.974 75.502 75.502 0 0 1 1.746 2.265c2.092-.578 4.597.193 6.417 2.013.078.077.153.157.227.239.386.43.712.905 1.046 1.491.122.215.242.438.392.726l.363.703c1.11 2.124 2.123 3.329 4.25 4.582 1.533.903 1.213 3.208-.509 3.658-5.485 1.435-10.725-.206-13.653-3.803-1.128-1.386-1.827-2.707-2.076-3.944-.983-.645-2.135-1.522-3.514-2.62a94.236 94.236 0 0 1-2.865-2.383l-7.689 7.963c-.164.17-1.006 1.146-1.404 1.375l-8.358 4.803c-1.738 1-3.702-.897-2.764-2.67l4.509-8.52c.203-.384 1.11-1.297 1.29-1.484l7.536-7.802a196.098 196.098 0 0 1-1.941-1.915c-4.232-4.232-8.013-8.394-10.633-11.686C4.67 10.57 3.483 8.51 5.226 6.768c1.743-1.743 3.803-.556 8.466 3.155 3.292 2.62 7.455 6.401 11.687 10.633a196.32 196.32 0 0 1 1.805 1.83l10.683-11.063a1.99 1.99 0 0 1 1.077-.578 1.99 1.99 0 0 1 .534-1.056zm.118 31.524c-1.79-1.79-4.344-2.141-5.702-.783-1.359 1.358-1.37 3.057.783 5.702s6.424 4.484 11.596 3.132c-4.84-2.852-4.886-6.26-6.677-8.05zm-28.864 1.122l-3.132 5.918 1.176 1.135 5.805-3.336-1.28-2.525-2.569-1.192zm27.981-23.86L18.391 39.624l.814 1.605 23.95-24.8-1.277-1.232zm-2.573-2.485l-23.96 24.812 1.583.735L40.44 13.808l-1.134-1.096zM32.14 30.714l-2.912 3.015c1.967 1.695 3.71 3.08 5.104 4.055.24-.725.675-1.409 1.313-2.046.098-.099.199-.191.303-.28-.962-1.332-2.256-2.945-3.808-4.744zm-8.176-8.743C15.373 13.379 7.617 7.206 6.64 8.182c-.976.976 5.197 8.733 13.789 17.324.644.644 1.284 1.275 1.916 1.89l3.449-3.571c-.596-.613-1.206-1.231-1.83-1.854zM45.495 7.776a1 1 0 0 0-1.414.025l-3.165 3.277 3.85 3.717 3.164-3.278a1 1 0 0 0-.024-1.414z" class="color-500"/><path fill="#FFF" d="M18.39 39.624l23.488-24.427 1.276 1.232-23.949 24.8-.814-1.605zm-1.462-1.365l-1.583-.735 23.96-24.812 1.134 1.096-23.51 24.451zm12.3-4.53l2.912-3.015c1.552 1.8 2.846 3.412 3.808 4.745-.104.088-.205.18-.303.279-.638.637-1.074 1.321-1.313 2.046-1.395-.976-3.137-2.36-5.104-4.055zm-6.883-6.333a194.312 194.312 0 0 1-1.916-1.89C11.837 16.915 5.664 9.158 6.64 8.182c.977-.976 8.733 5.197 17.324 13.789.624.623 1.234 1.241 1.83 1.854l-3.449 3.571zM11.941 46.11l-1.176-1.135 3.132-5.918 2.568 1.192 1.281 2.525-5.805 3.336zm25.118-8.958c1.358-1.358 3.911-1.008 5.702.783s1.837 5.2 6.677 8.05c-5.172 1.353-9.443-.486-11.596-3.13-2.153-2.646-2.142-4.345-.783-5.703zm8.436-29.376l2.41 2.327a1 1 0 0 1 .025 1.414l-3.165 3.278-3.849-3.717 3.165-3.277a1 1 0 0 1 1.414-.025z" class="french-vanilla-100"/></g></svg>