<svg xmlns="http://www.w3.org/2000/svg" width="56" height="56" class="wd-accent-people-talking wd-accent" focusable="false" role="presentation" viewBox="0 0 56 56"><g fill="none" fill-rule="nonzero" class="wd-icon-container"><path fill="#005DBA" d="M21.183 40.301A8.004 8.004 0 0 1 27 48v4H7v-4a8.004 8.004 0 0 1 5.817-7.699A5.982 5.982 0 0 1 11 36v-3a6 6 0 1 1 12 0v3a5.982 5.982 0 0 1-1.817 4.301zm22 0A8.004 8.004 0 0 1 49 48v4H29v-4a8.004 8.004 0 0 1 5.817-7.699A5.982 5.982 0 0 1 33 36v-3a6 6 0 1 1 12 0v3a5.982 5.982 0 0 1-1.817 4.301zM28 7.756C30.495 5.438 34.305 4 38.5 4 45.84 4 52 8.402 52 14.216c0 5.102-4.768 9.165-10.981 10.041l-1.404 1.923a2 2 0 0 1-3.23 0l-1.55-2.124c-2.724-.573-5.1-1.767-6.835-3.382-1.978 1.841-4.789 3.133-7.981 3.583l-1.404 1.923a2 2 0 0 1-3.23 0l-1.55-2.124C8.164 22.864 4 18.976 4 14.216 4 8.402 10.16 4 17.5 4c4.195 0 8.005 1.438 10.5 3.756zm1.333 11.422c1.615 1.52 3.953 2.626 6.648 3.057L38 25l1.92-2.63c5.681-.5 10.08-3.96 10.08-8.154C50 9.68 44.851 6 38.5 6c-3.741 0-7.065 1.276-9.165 3.253C30.394 10.707 31 12.392 31 14.216c0 1.818-.606 3.505-1.667 4.962zm-14.352 3.057L17 25l1.92-2.63c5.681-.5 10.08-3.96 10.08-8.154C29 9.68 23.851 6 17.5 6S6 9.679 6 14.216c0 3.92 3.841 7.198 8.98 8.019zM37 42a6 6 0 0 0-6 6v2h16v-2a6 6 0 0 0-6-6h-4zm-22 0a6 6 0 0 0-6 6v2h16v-2a6 6 0 0 0-6-6h-4zm24-13a4 4 0 0 0-4 4v3a4 4 0 1 0 8 0v-3a4 4 0 0 0-4-4zm-22 0a4 4 0 0 0-4 4v3a4 4 0 1 0 8 0v-3a4 4 0 0 0-4-4z" class="color-500"/><path fill="#FFF" d="M29.333 19.178c1.615 1.52 3.953 2.626 6.648 3.057L38 25l1.92-2.63c5.681-.5 10.08-3.96 10.08-8.154C50 9.68 44.851 6 38.5 6c-3.741 0-7.065 1.276-9.165 3.253C30.394 10.707 31 12.392 31 14.216c0 1.818-.606 3.505-1.667 4.962zm-14.352 3.057L17 25l1.92-2.63c5.681-.5 10.08-3.96 10.08-8.154C29 9.68 23.851 6 17.5 6S6 9.679 6 14.216c0 3.92 3.841 7.198 8.98 8.019zM37 42a6 6 0 0 0-6 6v2h16v-2a6 6 0 0 0-6-6h-4zm-22 0a6 6 0 0 0-6 6v2h16v-2a6 6 0 0 0-6-6h-4zm24-13a4 4 0 0 0-4 4v3a4 4 0 1 0 8 0v-3a4 4 0 0 0-4-4zm-22 0a4 4 0 0 0-4 4v3a4 4 0 1 0 8 0v-3a4 4 0 0 0-4-4z" class="french-vanilla-100"/></g></svg>