<svg xmlns="http://www.w3.org/2000/svg" width="56" height="56" class="wd-accent-people-cloud wd-accent" focusable="false" role="presentation" viewBox="0 0 56 56"><g fill="none" fill-rule="evenodd" class="wd-icon-container"><path fill="#005DBA" fill-rule="nonzero" d="M11.218 37.608C7.048 36.403 4 32.558 4 28a9.998 9.998 0 0 1 4.344-8.249 7.5 7.5 0 0 1 10.017-9.186A14.496 14.496 0 0 1 30.5 4c7.047 0 12.984 5.048 14.251 11.811A11.506 11.506 0 0 1 52 26.5c0 4.795-2.935 8.905-7.106 10.63a5.988 5.988 0 0 1-1.711 3.171A8.004 8.004 0 0 1 49 48v4H29v-4a8.004 8.004 0 0 1 5.817-7.699A6.004 6.004 0 0 1 33.341 38H22.66c-.311.88-.821 1.665-1.476 2.301A8.004 8.004 0 0 1 27 48v4H7v-4a8.004 8.004 0 0 1 5.817-7.699 5.996 5.996 0 0 1-1.6-2.693zM11 35.418V33a6 6 0 1 1 12 0v2.959l10 .026V33a6 6 0 1 1 12 0v1.869a9.498 9.498 0 0 0 5-8.369c0-4.401-2.993-8.104-7.055-9.182C42.349 10.968 37.005 6 30.5 6c-5.067 0-9.43 3.015-11.392 7.348a5.5 5.5 0 0 0-8.152 7.251A8.002 8.002 0 0 0 11 35.42zM37 42a6 6 0 0 0-6 6v2h16v-2a6 6 0 0 0-6-6h-4zm-22 0a6 6 0 0 0-6 6v2h16v-2a6 6 0 0 0-6-6h-4zm24-13a4 4 0 0 0-4 4v3a4 4 0 1 0 8 0v-3a4 4 0 0 0-4-4zm-22 0a4 4 0 0 0-4 4v3a4 4 0 1 0 8 0v-3a4 4 0 0 0-4-4z" class="color-500"/><path fill="#FFF" d="M39 29a4 4 0 0 1 4 4v3a4 4 0 1 1-8 0v-3a4 4 0 0 1 4-4zm-22 0a4 4 0 0 1 4 4v3a4 4 0 1 1-8 0v-3a4 4 0 0 1 4-4zM30.5 6c6.505 0 11.85 4.969 12.445 11.318C47.007 18.396 50 22.098 50 26.5a9.498 9.498 0 0 1-5 8.369V33a6 6 0 1 0-12 0v2.985l-10-.026V33a6 6 0 1 0-12 0v2.418a8.003 8.003 0 0 1-.044-14.818 5.5 5.5 0 0 1 8.152-7.251C21.07 9.014 25.433 6 30.5 6zM37 42a6 6 0 0 0-6 6v2h16v-2a6 6 0 0 0-6-6h-4zm-22 0a6 6 0 0 0-6 6v2h16v-2a6 6 0 0 0-6-6h-4z" class="french-vanilla-100"/></g></svg>