<svg xmlns="http://www.w3.org/2000/svg" width="56" height="56" class="wd-accent-person-search wd-accent" focusable="false" role="presentation" viewBox="0 0 56 56"><g fill="none" fill-rule="evenodd" class="wd-icon-container"><path fill="#005DBA" fill-rule="nonzero" d="M14.744 31.963A18.929 18.929 0 0 1 13 24c0-10.493 8.507-19 19-19s19 8.507 19 19-8.507 19-19 19c-2.897 0-5.643-.648-8.1-1.808l-3.122 3.122a2 2 0 0 1-2.766.06l-7.062 7.061a2 2 0 0 1-2.829 0l-3.535-3.536a2 2 0 0 1 0-2.828l7.058-7.058-.058-.063a2 2 0 0 1 0-2.829l3.158-3.158zM32 41c9.389 0 17-7.611 17-17S41.389 7 32 7s-17 7.611-17 17 7.611 17 17 17zm0-2c-8.238 0-15-6.762-15-15S23.762 9 32 9s15 6.762 15 15-6.762 15-15 15zm-15.404 3.96l-3.535-3.535L6 46.485l3.536 3.536 7.06-7.06zm5.469-2.761a19.097 19.097 0 0 1-6.34-6.389L13 36.536l6.364 6.363 2.7-2.7zm.103-7.73a7.009 7.009 0 0 1 5.48-5.339A5.98 5.98 0 0 1 26 23v-3a6 6 0 1 1 12 0v3a5.978 5.978 0 0 1-1.541 4.015 7.005 7.005 0 0 1 6.1 4.532A12.895 12.895 0 0 0 45 24c0-7.133-5.867-13-13-13s-13 5.867-13 13a12.93 12.93 0 0 0 3.168 8.468zM24 34.217A12.912 12.912 0 0 0 32 37c3.46 0 6.623-1.38 8.962-3.617A5 5 0 0 0 36 29h-7a5 5 0 0 0-5 5v.218zM32 16a4 4 0 0 0-4 4v3a4 4 0 1 0 8 0v-3a4 4 0 0 0-4-4z" class="color-500"/><path fill="#FFF" d="M13.06 39.425l3.536 3.535-7.06 7.06L6 46.486l7.06-7.06zm2.665-5.615a19.097 19.097 0 0 0 6.34 6.389l-2.701 2.7L13 36.536l2.725-2.726zM32 7c9.389 0 17 7.611 17 17s-7.611 17-17 17-17-7.611-17-17S22.611 7 32 7zm0 2c-8.238 0-15 6.762-15 15s6.762 15 15 15 15-6.762 15-15S40.238 9 32 9zm4 20a5 5 0 0 1 4.962 4.383C38.623 35.619 35.461 37 32 37a12.912 12.912 0 0 1-8-2.782V34a5 5 0 0 1 5-5h7zm-4-13a4 4 0 0 1 4 4v3a4 4 0 1 1-8 0v-3a4 4 0 0 1 4-4z" class="french-vanilla-100"/></g></svg>