<svg xmlns="http://www.w3.org/2000/svg" width="56" height="56" class="wd-accent-person-loop wd-accent" focusable="false" role="presentation" viewBox="0 0 56 56"><g fill="none" fill-rule="evenodd" class="wd-icon-container"><path fill="#005DBA" fill-rule="nonzero" d="M9 47h6v-6a1 1 0 0 1 2 0v7a1 1 0 0 1-1 1H9a1 1 0 0 1 0-2zM47 9h-6v6a1 1 0 0 1-2 0V8a1 1 0 0 1 1-1h7a1 1 0 0 1 0 2zM28 4a1 1 0 0 1 0 2C15.85 6 6 15.85 6 28c0 7.548 3.83 14.44 10.046 18.472a1 1 0 0 1-1.088 1.678A23.977 23.977 0 0 1 4 28C4 14.745 14.745 4 28 4zm0 48a1 1 0 0 1 0-2c12.15 0 22-9.85 22-22a21.974 21.974 0 0 0-9.773-18.292 1 1 0 0 1 1.113-1.662A23.974 23.974 0 0 1 52 28c0 13.255-10.745 24-24 24zm-5-23a6 6 0 0 0-6 6v2h22v-2a6 6 0 0 0-6-6H23zm0-2h10a8 8 0 0 1 8 8v4H15v-4a8 8 0 0 1 8-8zm5-14a5 5 0 0 0-5 5v4a5 5 0 0 0 10 0v-4a5 5 0 0 0-5-5zm0-2a7 7 0 0 1 7 7v4a7 7 0 0 1-14 0v-4a7 7 0 0 1 7-7z" class="color-500"/><path fill="#FFF" d="M23 29h10a6 6 0 0 1 6 6v2H17v-2a6 6 0 0 1 6-6zm5-16a5 5 0 0 1 5 5v4a5 5 0 0 1-10 0v-4a5 5 0 0 1 5-5z" class="french-vanilla-100"/></g></svg>