<svg xmlns="http://www.w3.org/2000/svg" width="56" height="56" class="wd-accent-person-flag wd-accent" focusable="false" role="presentation" viewBox="0 0 56 56"><g fill="none" fill-rule="evenodd" class="wd-icon-container"><path fill="#005DBA" fill-rule="nonzero" d="M31.457 3.879l8.197 13.661-1.468 1.079c-.299.22-.6.427-.904.624A7.99 7.99 0 0 1 41 26v5a7.982 7.982 0 0 1-2.791 6.072C43.162 37.67 47 41.886 47 47v5H19v-5a10 10 0 0 1 5.467-8.916L8.991 11a2 2 0 1 1 1.737-.992l.71 1.244c2.891-2.72 6.425-3.817 10.43-3.238 2.947.425 5.488-.38 7.783-2.482l1.806-1.653zM37 39h-8a8 8 0 0 0-8 8v3h24v-3a8 8 0 0 0-8-8zM19.394 23.943l-.453.439 7.413 12.972a9.953 9.953 0 0 1 1.437-.282A7.982 7.982 0 0 1 25 31v-5c0-1.663.507-3.207 1.376-4.487-2.73-.282-5.005.514-6.982 2.43zM33 20a6 6 0 0 0-6 6v5a6 6 0 1 0 12 0v-5a6 6 0 0 0-6-6zM31.002 7.007c-2.734 2.503-5.874 3.498-9.42 2.986-3.546-.512-6.572.493-9.08 3.014l5.5 9.5c2.535-2.457 5.575-3.429 9.121-2.917.32.046.637.081.952.105A7.966 7.966 0 0 1 33 18c.695 0 1.369.089 2.011.255a15.435 15.435 0 0 0 1.99-1.248l-6-10z" class="color-500"/><path fill="#FFF" d="M33 20a6 6 0 0 1 6 6v5a6 6 0 1 1-12 0v-5a6 6 0 0 1 6-6zM31.002 7.007l6 10c-.652.48-1.316.895-1.99 1.248A8.014 8.014 0 0 0 33 18a7.966 7.966 0 0 0-4.925 1.695 14.099 14.099 0 0 1-.952-.105c-3.546-.512-6.586.46-9.121 2.917l-5.5-9.5c2.508-2.521 5.534-3.526 9.08-3.014 3.546.512 6.686-.483 9.42-2.986zM29 39a8 8 0 0 0-8 8v3h24v-3a8 8 0 0 0-8-8h-8z" class="french-vanilla-100"/></g></svg>