<svg xmlns="http://www.w3.org/2000/svg" width="56" height="56" class="wd-accent-person-search-alt wd-accent" focusable="false" role="presentation" viewBox="0 0 56 56"><g fill="none" fill-rule="nonzero" class="wd-icon-container"><path fill="#005DBA" d="M27.892 26.276a12.993 12.993 0 0 1 11.113-6.25c7.18 0 13 5.82 13 13s-5.82 13-13 13c-1.754 0-3.426-.347-4.953-.976l-1.411 1.411a2 2 0 0 1-1.933.518l-4.431 4.432a2 2 0 0 1-2.829 0l-2.828-2.828A2 2 0 0 1 20.41 46H4V35c0-5.21 3.985-9.49 9.073-9.958A8.482 8.482 0 0 1 10 18.5v-6a8.5 8.5 0 1 1 17 0v6a8.482 8.482 0 0 1-3.073 6.542 9.937 9.937 0 0 1 3.965 1.234zm-.906 1.786A7.963 7.963 0 0 0 23 27h-9a8 8 0 0 0-8 8v9h16.374l2.678-2.678a2 2 0 0 1 .517-1.932l1.412-1.411a12.962 12.962 0 0 1-.976-4.953c0-1.758.349-3.434.981-4.964zm5.194 16.031a13.067 13.067 0 0 1-4.242-4.242l-.954.954 4.242 4.242.954-.954zm-3.075 1.661l-2.828-2.828-4.243 4.242 2.828 2.829 4.243-4.243zM18.5 6a6.5 6.5 0 0 0-6.5 6.5v6a6.5 6.5 0 1 0 13 0v-6A6.5 6.5 0 0 0 18.5 6zm20.505 38.026c6.075 0 11-4.925 11-11s-4.925-11-11-11c-6.076 0-11 4.925-11 11s4.924 11 11 11zm0-2a9 9 0 1 1 0-18 9 9 0 0 1 0 18zm0-2a7 7 0 1 0 0-14 7 7 0 0 0 0 14z" class="color-500"/><path fill="#FFF" d="M26.986 28.062A7.963 7.963 0 0 0 23 27h-9a8 8 0 0 0-8 8v9h16.374l2.678-2.678a2 2 0 0 1 .517-1.932l1.412-1.411a12.962 12.962 0 0 1-.976-4.953c0-1.758.349-3.434.981-4.964zm5.194 16.031a13.067 13.067 0 0 1-4.242-4.242l-.954.954 4.242 4.242.954-.954zm-3.075 1.661l-2.828-2.828-4.243 4.242 2.828 2.829 4.243-4.243zM18.5 6a6.5 6.5 0 0 0-6.5 6.5v6a6.5 6.5 0 1 0 13 0v-6A6.5 6.5 0 0 0 18.5 6zm20.505 38.026c6.075 0 11-4.925 11-11s-4.925-11-11-11c-6.076 0-11 4.925-11 11s4.924 11 11 11zm0-2a9 9 0 1 1 0-18 9 9 0 0 1 0 18zm0-2a7 7 0 1 0 0-14 7 7 0 0 0 0 14z" class="french-vanilla-100"/></g></svg>