<svg xmlns="http://www.w3.org/2000/svg" width="56" height="56" class="wd-accent-person-briefcase wd-accent" focusable="false" role="presentation" viewBox="0 0 56 56"><g fill="none" fill-rule="nonzero" class="wd-icon-container"><path fill="#005DBA" d="M43 39a2 2 0 0 1 2-2h1a2 2 0 0 1 2 2h2v-2a2 2 0 0 0-2-2H28a2 2 0 0 0-2 2v2h2a2 2 0 0 1 2-2h1a2 2 0 0 1 2 2h10zm5 2v1a2 2 0 0 1-2 2h-1a2 2 0 0 1-2-2v-1h-4v9h9a2 2 0 0 0 2-2v-7h-2zm-20 0h-2v7a2 2 0 0 0 2 2h9v-9h-4v1a2 2 0 0 1-2 2h-1a2 2 0 0 1-2-2v-1zm6.413-10.673A3.987 3.987 0 0 1 36 30h4a4.002 4.002 0 0 1 3.874 3H48a4 4 0 0 1 4 4v11a4 4 0 0 1-4 4H28a4 4 0 0 1-4-4v-3H4v-7c0-5.523 4.477-10 10-10h.999A9.985 9.985 0 0 1 11 20v-6c0-5.523 4.477-10 10-10s10 4.477 10 10v6a9.985 9.985 0 0 1-3.999 8H28a9.96 9.96 0 0 1 6.413 2.327zM32.8 31.599A7.965 7.965 0 0 0 28 30H14a8 8 0 0 0-8 8v5h18v-6a4 4 0 0 1 4-4h4.126c.132-.514.364-.988.674-1.4zM21 6a8 8 0 0 0-8 8v6a8 8 0 1 0 16 0v-6a8 8 0 0 0-8-8zm19 26h-4a2 2 0 0 0-1.732 1h7.464A2 2 0 0 0 40 32zm-10 7v3h1v-3h-1zm15 0v3h1v-3h-1z" class="color-500"/><path fill="#FFF" d="M43 39a2 2 0 0 1 2-2h1a2 2 0 0 1 2 2h2v-2a2 2 0 0 0-2-2H28a2 2 0 0 0-2 2v2h2a2 2 0 0 1 2-2h1a2 2 0 0 1 2 2h10zm5 2v1a2 2 0 0 1-2 2h-1a2 2 0 0 1-2-2v-1h-4v9h9a2 2 0 0 0 2-2v-7h-2zm-20 0h-2v7a2 2 0 0 0 2 2h9v-9h-4v1a2 2 0 0 1-2 2h-1a2 2 0 0 1-2-2v-1zm4.8-9.4A7.965 7.965 0 0 0 28 30H14a8 8 0 0 0-8 8v5h18v-6a4 4 0 0 1 4-4h4.126c.132-.514.364-.988.674-1.4zM21 6a8 8 0 0 0-8 8v6a8 8 0 1 0 16 0v-6a8 8 0 0 0-8-8zm19 26h-4a2 2 0 0 0-1.732 1h7.464A2 2 0 0 0 40 32zm-10 7v3h1v-3h-1zm15 0v3h1v-3h-1z" class="french-vanilla-100"/></g></svg>