<svg xmlns="http://www.w3.org/2000/svg" width="56" height="56" class="wd-accent-person-star wd-accent" focusable="false" role="presentation" viewBox="0 0 56 56"><g fill="none" fill-rule="evenodd" class="wd-icon-container"><path fill="#005DBA" fill-rule="nonzero" d="M26 7c5.523 0 10 4.477 10 10v6a9.985 9.985 0 0 1-3.999 8H33a9.987 9.987 0 0 1 8.14 4.19c.92-.431 2.12-.129 2.645.908l1.692 3.348 3.804.54c1.655.234 2.309 2.276 1.098 3.428l-2.724 2.592.641 3.648c.286 1.627-1.413 2.88-2.883 2.125L42 50.027l-3.413 1.752c-1.47.755-3.169-.498-2.883-2.125l.29-1.654H9v-7c0-5.523 4.477-10 10-10h.999A9.985 9.985 0 0 1 16 23v-6c0-5.523 4.477-10 10-10zm16 30l-2.163 4.28-4.837.686 3.5 3.33L37.674 50 42 47.78 46.326 50l-.826-4.703 3.5-3.331-4.837-.687L42 37zm-9-4H19a8 8 0 0 0-8 8v5h25.338l-2.717-2.586c-1.21-1.152-.557-3.194 1.098-3.429l3.804-.54 1.315-2.6A7.995 7.995 0 0 0 33 33zM26 9a8 8 0 0 0-8 8v6a8 8 0 1 0 16 0v-6a8 8 0 0 0-8-8z" class="color-500"/><path fill="#FFF" d="M42 37l2.163 4.28 4.837.686-3.5 3.33.826 4.704L42 47.78 37.674 50l.826-4.703-3.5-3.331 4.837-.687L42 37zm-9-4a7.995 7.995 0 0 1 6.838 3.845l-1.315 2.6-3.804.54c-1.655.235-2.309 2.277-1.098 3.43L36.338 46H11v-5a8 8 0 0 1 8-8zM26 9a8 8 0 0 1 8 8v6a8 8 0 1 1-16 0v-6a8 8 0 0 1 8-8z" class="french-vanilla-100"/></g></svg>