<svg xmlns="http://www.w3.org/2000/svg" width="56" height="56" class="wd-accent-person-easel-chart wd-accent" focusable="false" role="presentation" viewBox="0 0 56 56"><g fill="none" fill-rule="evenodd" class="wd-icon-container"><path fill="#005DBA" fill-rule="nonzero" d="M42 4a2 2 0 0 1 2 2h6a2 2 0 0 1 2 2v30a2 2 0 0 1-2 2h-4.304l1.697 4.42a3 3 0 0 1-5.601 2.15L39.27 40H29.14A9.968 9.968 0 0 1 32 47v5H4v-5a9.968 9.968 0 0 1 2.859-7H6a2 2 0 0 1-2-2V8a2 2 0 0 1 2-2h6a2 2 0 0 1 2-2h28zM22 39h-8a8 8 0 0 0-8 8v3h24v-3a8 8 0 0 0-8-8zm21.554 1h-2.142l2.247 5.853a1 1 0 1 0 1.867-.716L43.554 40zM12 8H6v30h3.636a9.932 9.932 0 0 1 3.155-.928A7.982 7.982 0 0 1 10 31v-5a8 8 0 0 1 15.45-2.923c.174-.05.359-.077.55-.077h2a2 2 0 0 1 2 2v7a2 2 0 0 1-2 2h-2c-.191 0-.376-.027-.55-.077a8.018 8.018 0 0 1-2.241 3.15 9.932 9.932 0 0 1 3.155.927H50V8h-6a2 2 0 0 1-2 2H14a2 2 0 0 1-2-2zm6 12a6 6 0 0 0-6 6v5a6 6 0 1 0 12 0v-5a6 6 0 0 0-6-6zm18-1a2 2 0 0 1 2 2v11a2 2 0 0 1-2 2h-2a2 2 0 0 1-2-2V21a2 2 0 0 1 2-2h2zm8-4a2 2 0 0 1 2 2v15a2 2 0 0 1-2 2h-2a2 2 0 0 1-2-2V17a2 2 0 0 1 2-2h2zM28 25h-2v7h2v-7zm8-4h-2v11h2V21zm8-4h-2v15h2V17zM42 6H14v2h28V6z" class="color-500"/><path fill="#FFF" d="M26.364 38a9.932 9.932 0 0 0-3.155-.928 8.018 8.018 0 0 0 2.24-3.149c.175.05.36.077.551.077h2a2 2 0 0 0 2-2v-7a2 2 0 0 0-2-2h-2c-.191 0-.376.027-.55.077A8.003 8.003 0 0 0 10 26v5a7.982 7.982 0 0 0 2.791 6.072A9.932 9.932 0 0 0 9.636 38H6V8h6a2 2 0 0 0 2 2h28a2 2 0 0 0 2-2h6v30H26.364zM14 6h28v2H14V6zm20 13a2 2 0 0 0-2 2v11a2 2 0 0 0 2 2h2a2 2 0 0 0 2-2V21a2 2 0 0 0-2-2h-2zm8-4a2 2 0 0 0-2 2v15a2 2 0 0 0 2 2h2a2 2 0 0 0 2-2V17a2 2 0 0 0-2-2h-2zM26 25h2v7h-2v-7zm8-4h2v11h-2V21zm8-4h2v15h-2V17zm-24 3a6 6 0 0 0-6 6v5a6 6 0 1 0 12 0v-5a6 6 0 0 0-6-6zm25.554 20l1.972 5.137a1 1 0 1 1-1.867.716L41.412 40h2.142zM14 39a8 8 0 0 0-8 8v3h24v-3a8 8 0 0 0-8-8h-8z" class="french-vanilla-100"/></g></svg>