<svg xmlns="http://www.w3.org/2000/svg" width="56" height="56" class="wd-accent-person wd-accent" focusable="false" role="presentation" viewBox="0 0 56 56"><g fill="none" fill-rule="evenodd" class="wd-icon-container"><path fill="#005DBA" fill-rule="nonzero" d="M28 4c6.075 0 11 4.925 11 11v8c0 3.72-1.847 7.01-4.674 9H36c6.627 0 12 5.373 12 12v8H8v-8c0-6.627 5.373-12 12-12h1.674A10.987 10.987 0 0 1 17 23v-8c0-6.075 4.925-11 11-11zm8 30H20c-5.523 0-10 4.477-10 10v6h36v-6c0-5.523-4.477-10-10-10zM28 6a9 9 0 0 0-9 9v8a9 9 0 0 0 18 0v-8a9 9 0 0 0-9-9z" class="color-500"/><path fill="#FFF" d="M10 50h36v-6c0-5.523-4.477-10-10-10H20c-5.523 0-10 4.477-10 10v6zM28 6a9 9 0 0 0-9 9v8a9 9 0 0 0 18 0v-8a9 9 0 0 0-9-9z" class="french-vanilla-100"/></g></svg>