<svg xmlns="http://www.w3.org/2000/svg" width="56" height="56" class="wd-accent-phone-wrench wd-accent" focusable="false" role="presentation" viewBox="0 0 56 56"><g fill="none" fill-rule="evenodd" class="wd-icon-container"><path fill="#005DBA" fill-rule="nonzero" d="M28.686 36.263c1.95.989 3.61.886 5.47-.164l3.587-3.588a2 2 0 0 1 2.828 0l8.309 8.309a2 2 0 0 1 0 2.828l-3.772 3.771a2 2 0 0 1-.678.446c-8.057 3.19-13.811 1.724-21.944-5.402l-4.165 4.165c-2.33 2.33-6.115 2.31-8.455-.03s-2.36-6.126-.03-8.456l4.165-4.164c-7.124-8.132-8.59-13.886-5.4-21.943a2 2 0 0 1 .445-.678l3.771-3.771a2 2 0 0 1 2.829 0l8.308 8.308a2 2 0 0 1 0 2.829l-3.587 3.587c-1.05 1.858-1.153 3.518-.166 5.467l5.725-5.725c.309-.308.59-.857.782-1.538.159-.559.235-1.15.221-1.397a10.837 10.837 0 0 1 3.157-8.296c2.608-2.608 6.312-3.677 9.877-2.953 1.563.318 2.144 2.247 1.016 3.374l-5.92 5.92 4.242 4.243 5.92-5.92c1.128-1.128 3.057-.547 3.375 1.016.724 3.564-.345 7.269-2.953 9.877a10.838 10.838 0 0 1-8.355 3.153c-.27-.016-.811.045-1.33.189-.651.18-1.191.462-1.546.817l-5.726 5.726zm-1.73-1.1l6.041-6.04c1.382-1.382 3.615-1.637 4.413-1.588a8.841 8.841 0 0 0 6.818-2.572c2.183-2.183 2.984-5.229 2.408-8.064L40.7 22.835a1.99 1.99 0 0 1-2.813-.016l-4.243-4.242a1.99 1.99 0 0 1-.015-2.814l5.936-5.935c-2.835-.576-5.882.224-8.065 2.407a8.84 8.84 0 0 0-2.574 6.77c.046.815-.299 3.175-1.585 4.461l-6.04 6.04c.682.91 1.567 1.895 2.665 2.994 1.097 1.097 2.082 1.981 2.99 2.664zM21 41.124a103.86 103.86 0 0 1-2.878-2.778 103.844 103.844 0 0 1-2.78-2.88l-4.09 4.092c-1.546 1.545-1.533 4.064.03 5.626 1.562 1.562 4.08 1.576 5.626.03L21 41.123zm1.54-23.814L14.232 9l-3.77 3.771c-3.63 9.168-.104 14.982 9.074 24.16 9.177 9.177 14.991 12.703 24.16 9.074l3.77-3.771-8.308-8.308-3.771 3.77c-4.584 2.738-8.246.806-12.834-3.782-4.589-4.589-6.52-8.25-3.783-12.834l3.77-3.771z" class="color-500"/><path fill="#FFF" d="M14.231 9l8.309 8.309-3.771 3.77c-2.737 4.584-.806 8.246 3.783 12.835 4.588 4.588 8.25 6.52 12.834 3.783l3.771-3.771 8.308 8.308-3.77 3.771c-9.169 3.63-14.983.103-24.16-9.074-9.178-9.178-12.704-14.992-9.075-24.16L14.231 9zm1.11 26.465c.858.926 1.783 1.884 2.78 2.88.995.995 1.952 1.92 2.878 2.777l-4.092 4.091c-1.545 1.546-4.064 1.532-5.626-.03-1.563-1.562-1.576-4.081-.03-5.626zM39.566 9.828l-5.936 5.935a1.99 1.99 0 0 0 .015 2.814l4.243 4.242a1.99 1.99 0 0 0 2.813.016l5.936-5.936c.576 2.835-.225 5.881-2.408 8.064a8.841 8.841 0 0 1-6.818 2.572c-.798-.049-3.03.206-4.413 1.588l-6.04 6.04c-.909-.682-1.894-1.566-2.991-2.663-1.098-1.099-1.983-2.084-2.666-2.993l6.04-6.04c1.287-1.287 1.632-3.647 1.586-4.461a8.84 8.84 0 0 1 2.574-6.77c2.183-2.184 5.23-2.984 8.065-2.408z" class="french-vanilla-100"/></g></svg>