<svg xmlns="http://www.w3.org/2000/svg" width="56" height="56" class="wd-accent-phone wd-accent" focusable="false" role="presentation" viewBox="0 0 56 56"><g fill="none" fill-rule="evenodd" class="wd-icon-container"><path fill="#005DBA" fill-rule="nonzero" d="M29 11c8.837 0 16 7.163 16 16h-2c0-7.732-6.268-14-14-14zm0 4c6.627 0 12 5.373 12 12h-2c0-5.523-4.477-10-10-10zm0 4a8 8 0 0 1 8 8h-2a6 6 0 0 0-6-6zM16.161 9.226l7.778 7.778a2 2 0 0 1 0 2.829l-3.351 3.351c-1.633 2.902-.752 5.274 3.351 9.377 4.103 4.103 6.475 4.984 9.377 3.351l3.351-3.351a2 2 0 0 1 2.829 0l7.778 7.778a2 2 0 0 1 0 2.828l-3.536 3.536a2 2 0 0 1-.677.445c-8.888 3.524-14.811 1.037-24.779-8.93-9.967-9.968-12.454-15.89-8.93-24.78a2 2 0 0 1 .445-.676l3.536-3.536a2 2 0 0 1 2.828 0zm-1.414 1.414l-3.536 3.536c-3.406 8.591-.106 14.036 8.486 22.627 8.591 8.592 14.036 11.892 22.627 8.486l3.536-3.536-7.779-7.778-3.535 3.535c-4.296 2.568-7.725.76-12.02-3.535-4.297-4.296-6.104-7.725-3.536-12.02l3.535-3.536-7.778-7.779z" class="color-500"/><path fill="#FFF" d="M22.525 18.419l-7.778-7.779-3.536 3.536c-3.406 8.591-.106 14.036 8.486 22.627 8.591 8.592 14.036 11.892 22.627 8.486l3.536-3.536-7.779-7.778-3.535 3.535c-4.296 2.568-7.725.76-12.02-3.535-4.297-4.296-6.104-7.725-3.536-12.02l3.535-3.536z" class="french-vanilla-100"/></g></svg>