<svg xmlns="http://www.w3.org/2000/svg" width="56" height="56" class="wd-accent-piechart-star wd-accent" focusable="false" role="presentation" viewBox="0 0 56 56"><g fill="none" fill-rule="evenodd" class="wd-icon-container"><path fill="#005DBA" fill-rule="nonzero" d="M40.215 6.098c.74-1.464 2.83-1.464 3.57 0l1.692 3.348 3.804.54c1.655.234 2.309 2.276 1.098 3.428l-2.724 2.592.641 3.648a1.97 1.97 0 0 1-.617 1.82A21.958 21.958 0 0 1 49 29c0 12.15-9.85 22-22 22S5 41.15 5 29 14.85 7 27 7c3.76 0 7.3.943 10.395 2.606l1.128-.16zM28 31.1v17.874a19.95 19.95 0 0 0 13.872-6.603L28 31.101zM26 30H7.025C7.529 40.25 15.75 48.47 26 48.975V30zm1-21C16.29 9 7.546 17.419 7.025 28h19.968a1.016 1.016 0 0 1 .643.229L43.135 40.82A19.91 19.91 0 0 0 47 29c0-2.5-.459-4.892-1.296-7.098a2.088 2.088 0 0 1-.291-.123L42 20.027l-3.413 1.752c-1.47.755-3.169-.498-2.883-2.125l.64-3.648-2.723-2.592c-1.006-.957-.725-2.527.347-3.167A19.958 19.958 0 0 0 27 9zm15-2l-2.163 4.28-4.837.686 3.5 3.33L37.674 20 42 17.78 46.326 20l-.826-4.703 3.5-3.331-4.837-.687L42 7z" class="color-500"/><path fill="#FFF" d="M43.135 40.82L27.636 28.23a.999.999 0 0 0-.643-.229H7.025C7.545 17.419 16.29 9 27 9c2.45 0 4.798.44 6.968 1.247-1.072.64-1.353 2.21-.347 3.167l2.724 2.592-.641 3.648c-.286 1.627 1.413 2.88 2.883 2.125L42 20.027l3.413 1.752c.096.05.193.09.29.123A19.954 19.954 0 0 1 47 29a19.91 19.91 0 0 1-3.865 11.82zm-1.263 1.552A19.95 19.95 0 0 1 28 48.975V31.101l13.872 11.271zM26 30v18.975C15.75 48.471 7.53 40.25 7.025 30H26zM42 7l2.163 4.28 4.837.686-3.5 3.33.826 4.704L42 17.78 37.674 20l.826-4.703-3.5-3.331 4.837-.687L42 7z" class="french-vanilla-100"/></g></svg>