<svg xmlns="http://www.w3.org/2000/svg" width="56" height="56" class="wd-accent-plate wd-accent" focusable="false" role="presentation" viewBox="0 0 56 56"><g fill="none" fill-rule="nonzero" class="wd-icon-container"><path fill="#005DBA" d="M31.69 28.025a3.618 3.618 0 0 1 3.703-.874l.363.12a3 3 0 0 0 3.07-.724L46 19.373l-1.356-1.357a.998.998 0 0 1-.205.296l-6.364 6.364a1 1 0 0 1-1.414-1.414l6.364-6.364a.998.998 0 0 1 .296-.205l-1.506-1.505a.998.998 0 0 1-.204.295l-6.364 6.364a1 1 0 0 1-1.414-1.414l6.364-6.364a.998.998 0 0 1 .295-.204l-1.563-1.563-7.174 7.174a3 3 0 0 0-.725 3.07l.12.362a3.618 3.618 0 0 1-.873 3.703l-.662.662 1.432 1.395.644-.643zm-4.885 4.886l-1.433-1.396-9.631 9.632 1.414 1.414 9.65-9.65zM28 45c-3.013 0-5.843-.784-8.297-2.159l-1.134 1.134a2 2 0 0 1-2.828 0l-1.415-1.414a2 2 0 0 1 0-2.829l.722-.72A16.933 16.933 0 0 1 11 28a17 17 0 0 1 .718-4.906 10.535 10.535 0 0 1-1.39-5.23 5.536 5.536 0 0 1 5.536-5.536c1.367 0 2.707.266 3.95.769A16.924 16.924 0 0 1 28 11c2.735 0 5.32.646 7.609 1.794l1.906-1.907a2 2 0 0 1 2.828 0l7.071 7.071a2 2 0 0 1 0 2.829l-2.952 2.952A17.03 17.03 0 0 1 45 28c0 4.021-1.396 7.716-3.73 10.627l.54.526A2 2 0 0 1 41.828 42l-1.414 1.414a2 2 0 0 1-2.81.019l-.868-.846A16.92 16.92 0 0 1 28 45zm.237-10.693l-7.057 7.057A14.936 14.936 0 0 0 28 43c2.628 0 5.099-.676 7.247-1.864l-7.01-6.83zM43 28c0-.88-.076-1.74-.22-2.578l-2.54 2.539a5 5 0 0 1-5.117 1.208l-.362-.12a1.618 1.618 0 0 0-1.656.39l-.625.625 7.35 7.16A14.935 14.935 0 0 0 43 28zm-30 0a14.94 14.94 0 0 0 3.467 9.592l7.472-7.472-.99-.965a2 2 0 0 0-1.679-.548l-.527.076a7 7 0 0 1-5.94-1.98l-1.389-1.39c-.05-.049-.098-.099-.146-.149A15.08 15.08 0 0 0 13 28zm10.314-12.586l1.389 1.39a7 7 0 0 1 1.98 5.939l-.066.463a2 2 0 0 0 .584 1.715l.981.956.68-.68a1.618 1.618 0 0 0 .391-1.656l-.12-.363a5 5 0 0 1 1.207-5.116l3.767-3.767A14.947 14.947 0 0 0 28 13c-2.15 0-4.196.453-6.045 1.268.481.34.936.724 1.359 1.146zM28 52C14.745 52 4 41.255 4 28S14.745 4 28 4s24 10.745 24 24-10.745 24-24 24zm0-2c12.15 0 22-9.85 22-22S40.15 6 28 6 6 15.85 6 28s9.85 22 22 22zm-6.1-33.172a8.536 8.536 0 0 0-6.036-2.5 3.536 3.536 0 0 0-3.536 3.536c0 2.264.9 4.435 2.5 6.035l1.39 1.39a5 5 0 0 0 4.242 1.414l.527-.076a4 4 0 0 1 3.357 1.095L39 42l1.414-1.414-14.609-14.232a4 4 0 0 1-1.168-3.431l.066-.463a5 5 0 0 0-1.414-4.242l-1.39-1.39z" class="color-500"/><path fill="#FFF" d="M31.69 28.025a3.618 3.618 0 0 1 3.703-.874l.363.12a3 3 0 0 0 3.07-.724L46 19.373l-1.356-1.357a.998.998 0 0 1-.205.296l-6.364 6.364a1 1 0 0 1-1.414-1.414l6.364-6.364a.998.998 0 0 1 .296-.205l-1.506-1.505a.998.998 0 0 1-.204.295l-6.364 6.364a1 1 0 0 1-1.414-1.414l6.364-6.364a.998.998 0 0 1 .295-.204l-1.563-1.563-7.174 7.174a3 3 0 0 0-.725 3.07l.12.362a3.618 3.618 0 0 1-.873 3.703l-.662.662 1.432 1.395.644-.643zm-4.885 4.886l-1.433-1.396-9.631 9.632 1.414 1.414 9.65-9.65zM28 45c-3.013 0-5.843-.784-8.297-2.159l-1.134 1.134a2 2 0 0 1-2.828 0l-1.415-1.414a2 2 0 0 1 0-2.829l.722-.72A16.933 16.933 0 0 1 11 28a17 17 0 0 1 .718-4.906 10.535 10.535 0 0 1-1.39-5.23 5.536 5.536 0 0 1 5.536-5.536c1.367 0 2.707.266 3.95.769A16.924 16.924 0 0 1 28 11c2.735 0 5.32.646 7.609 1.794l1.906-1.907a2 2 0 0 1 2.828 0l7.071 7.071a2 2 0 0 1 0 2.829l-2.952 2.952A17.03 17.03 0 0 1 45 28c0 4.021-1.396 7.716-3.73 10.627l.54.526A2 2 0 0 1 41.828 42l-1.414 1.414a2 2 0 0 1-2.81.019l-.868-.846A16.92 16.92 0 0 1 28 45zm.237-10.693l-7.057 7.057A14.936 14.936 0 0 0 28 43c2.628 0 5.099-.676 7.247-1.864l-7.01-6.83zM43 28c0-.88-.076-1.74-.22-2.578l-2.54 2.539a5 5 0 0 1-5.117 1.208l-.362-.12a1.618 1.618 0 0 0-1.656.39l-.625.625 7.35 7.16A14.935 14.935 0 0 0 43 28zm-30 0a14.94 14.94 0 0 0 3.467 9.592l7.472-7.472-.99-.965a2 2 0 0 0-1.679-.548l-.527.076a7 7 0 0 1-5.94-1.98l-1.389-1.39c-.05-.049-.098-.099-.146-.149A15.08 15.08 0 0 0 13 28zm10.314-12.586l1.389 1.39a7 7 0 0 1 1.98 5.939l-.066.463a2 2 0 0 0 .584 1.715l.981.956.68-.68a1.618 1.618 0 0 0 .391-1.656l-.12-.363a5 5 0 0 1 1.207-5.116l3.767-3.767A14.947 14.947 0 0 0 28 13c-2.15 0-4.196.453-6.045 1.268.481.34.936.724 1.359 1.146zM28 50c12.15 0 22-9.85 22-22S40.15 6 28 6 6 15.85 6 28s9.85 22 22 22zm-6.1-33.172a8.536 8.536 0 0 0-6.036-2.5 3.536 3.536 0 0 0-3.536 3.536c0 2.264.9 4.435 2.5 6.035l1.39 1.39a5 5 0 0 0 4.242 1.414l.527-.076a4 4 0 0 1 3.357 1.095L39 42l1.414-1.414-14.609-14.232a4 4 0 0 1-1.168-3.431l.066-.463a5 5 0 0 0-1.414-4.242l-1.39-1.39z" class="french-vanilla-100"/></g></svg>