<svg xmlns="http://www.w3.org/2000/svg" width="56" height="56" class="wd-accent-playbook wd-accent" focusable="false" role="presentation" viewBox="0 0 56 56"><g fill="none" fill-rule="evenodd" class="wd-icon-container"><path fill="#005DBA" fill-rule="nonzero" d="M42.707 12.293l4 4a1 1 0 0 1-1.414 1.414L43 15.414v1.935c0 9.036-5.189 14.846-15.022 14.617-6.08-.143-9.958 2.686-11.826 8.662a4 4 0 1 1-1.901-.62c2.137-6.8 6.793-10.205 13.774-10.042C36.669 30.168 41 25.32 41 17.35v-1.935l-2.293 2.293a1 1 0 0 1-1.414-1.414l4-4a1 1 0 0 1 1.414 0zm-17.414 27a1 1 0 0 1 1.414 0L29 41.586l2.293-2.293a1 1 0 0 1 1.414 1.414L30.414 43l2.293 2.293a1 1 0 0 1-1.414 1.414L29 44.414l-2.293 2.293a1 1 0 0 1-1.414-1.414L27.586 43l-2.293-2.293a1 1 0 0 1 0-1.414zM14 42a2 2 0 1 0 0 4 2 2 0 0 0 0-4zm26.293-8.707a1 1 0 0 1 1.414 0L44 35.586l2.293-2.293a1 1 0 0 1 1.414 1.414L45.414 37l2.293 2.293a1 1 0 0 1-1.414 1.414L44 38.414l-2.293 2.293a1 1 0 0 1-1.414-1.414L42.586 37l-2.293-2.293a1 1 0 0 1 0-1.414zm-32-12a1 1 0 0 1 1.414 0L12 23.586l2.293-2.293a1 1 0 0 1 1.414 1.414L13.414 25l2.293 2.293a1 1 0 0 1-1.414 1.414L12 26.414l-2.293 2.293a1 1 0 1 1-1.414-1.414L10.586 25l-2.293-2.293a1 1 0 0 1 0-1.414zm18-4a1 1 0 0 1 1.414 0L30 19.586l2.293-2.293a1 1 0 0 1 1.414 1.414L31.414 21l2.293 2.293a1 1 0 0 1-1.414 1.414L30 22.414l-2.293 2.293a1 1 0 0 1-1.414-1.414L28.586 21l-2.293-2.293a1 1 0 0 1 0-1.414zm-12-8a1 1 0 0 1 1.414 0L18 11.586l2.293-2.293a1 1 0 0 1 1.414 1.414L19.414 13l2.293 2.293a1 1 0 0 1-1.414 1.414L18 14.414l-2.293 2.293a1 1 0 0 1-1.414-1.414L16.586 13l-2.293-2.293a1 1 0 0 1 0-1.414z" class="color-500"/></g></svg>