<svg xmlns="http://www.w3.org/2000/svg" width="56" height="56" class="wd-accent-play-circle wd-accent" focusable="false" role="presentation" viewBox="0 0 56 56"><g fill="none" fill-rule="evenodd" class="wd-icon-container"><path fill="#005DBA" fill-rule="nonzero" d="M28 4c13.255 0 24 10.745 24 24S41.255 52 28 52 4 41.255 4 28 14.745 4 28 4zm0 2C15.85 6 6 15.85 6 28s9.85 22 22 22 22-9.85 22-22S40.15 6 28 6zm-5.475 13.138c.336-.191.75-.183 1.078.02l13.847 7.923v.01c.339.182.55.533.55.914 0 .382-.211.733-.55.914l-13.847 7.923a1.055 1.055 0 0 1-1.078.02 1.036 1.036 0 0 1-.524-.934V20.072c-.013-.383.189-.742.524-.934z" class="color-500"/><path fill="#FFF" d="M28 6c12.15 0 22 9.85 22 22s-9.85 22-22 22S6 40.15 6 28 15.85 6 28 6zm-5.475 13.138c-.335.192-.537.55-.524.934v15.856c-.013.383.189.742.524.934.336.191.75.183 1.078-.02l13.847-7.923c.339-.181.55-.532.55-.914 0-.381-.211-.732-.55-.914v-.01l-13.847-7.923a1.055 1.055 0 0 0-1.078-.02z" class="french-vanilla-100"/></g></svg>