<svg xmlns="http://www.w3.org/2000/svg" width="56" height="56" class="wd-accent-power-of-one wd-accent" focusable="false" role="presentation" viewBox="0 0 56 56"><g fill="none" fill-rule="evenodd" class="wd-icon-container"><path fill="#005DBA" d="M29.5 4c6.456 0 12.036 4.25 13.869 10.256A11.005 11.005 0 0 1 47 34.22V49a3 3 0 0 1-3 3H34a3 3 0 0 1-3-3v-5H9a2 2 0 0 1-2-2v-1a2 2 0 0 1 2-2v-3.936A9 9 0 0 1 4 27a9.006 9.006 0 0 1 6.021-8.496 6 6 0 0 1 6.502-6.482A14.505 14.505 0 0 1 29.5 4zM45 48H33v1a1 1 0 0 0 1 1h10a1 1 0 0 0 1-1v-1zM33 32v14h12V32H33zm-2 9H9v1h22v-1zm2-16H11v14h20v-9c0-1.306.835-2.417 2-2.83V25zM29.5 6c-5.459 0-10.1 3.499-11.804 8.376a4 4 0 0 0-5.153 5.638A7 7 0 0 0 9 32.746V25a2 2 0 0 1 2-2h22a2 2 0 0 1 2 2v2h9a3 3 0 0 1 3 3v1.708a9 9 0 0 0-5.244-15.677C40.61 10.311 35.558 6 29.5 6zM45 30a1 1 0 0 0-1-1H34a1 1 0 0 0-1 1z" class="color-500"/><path fill="#FFF" d="M47 31.708V30a3 3 0 0 0-3-3h-9v-2a2 2 0 0 0-2-2H11a2 2 0 0 0-2 2v7.745a7 7 0 0 1 3.544-12.73 4 4 0 0 1 5.153-5.638C19.4 9.498 24.04 6 29.5 6c6.058 0 11.11 4.31 12.256 10.031A9 9 0 0 1 47 31.708zm-14-4.537A3.001 3.001 0 0 0 31 30v9H11V25h22v2.17zM45 48v1a1 1 0 0 1-1 1H34a1 1 0 0 1-1-1v-1h12zm0-16v14H33V32h12zm-14 9v1H9v-1h22zm13-12a1 1 0 0 1 1 1H33a1 1 0 0 1 1-1h10z" class="french-vanilla-100"/></g></svg>