<svg xmlns="http://www.w3.org/2000/svg" width="56" height="56" fill="none" class="wd-accent-prerequisite wd-accent" focusable="false" role="presentation" viewBox="0 0 56 56"><g class="wd-icon-container"><path fill="#0875E1" fill-rule="evenodd" d="M5 4a1 1 0 0 0-1 1v8a1 1 0 0 0 1 1h11a1 1 0 0 0 1-1v-3h19.1a5.002 5.002 0 0 0 9.468 1.035A8.5 8.5 0 0 1 42 26.985V27h-9.099a5.002 5.002 0 0 0-9.8 0H15v.012a10.633 10.633 0 0 0-.5-.012C8.701 27 4 31.701 4 37.5c0 3.794 2.013 7.119 5.028 8.964A5 5 0 0 0 18.9 48h21.2a5.002 5.002 0 0 0 9.9-1c0-2.42-1.72-4.44-4.005-4.901.003-.032.005-.066.005-.099v-2.246l4.592-1.312c1.45-.414 1.45-2.47 0-2.884L46 34.246V34a1 1 0 1 0-2 0v8c0 .033.002.066.005.099A5.006 5.006 0 0 0 40.1 46H18.9a5.002 5.002 0 0 0-9.229-1.504A8.5 8.5 0 0 1 14 29.014V29h9.1a5.002 5.002 0 0 0 9.8 0H41v-.012c.166.008.332.012.5.012C47.299 29 52 24.299 52 18.5c0-4.189-2.453-7.804-6-9.49V9a5 5 0 0 0-9.9-1H17V5a1 1 0 0 0-1-1H5zm1 2v6h3.5V6H6zm9 6h-3.5V6H15v6zm26 0a3 3 0 1 0 0-6 3 3 0 0 0 0 6zM31 28a3 3 0 1 1-6 0 3 3 0 0 1 6 0zM14 50a3 3 0 1 0 0-6 3 3 0 0 0 0 6zm34.36-13L46 36.326v1.348L48.36 37zM45 50a3 3 0 1 0 0-6 3 3 0 0 0 0 6z" class="color-500" clip-rule="evenodd"/><g fill="#fff" class="french-vanilla-100"><path d="M6 12V6h3.5v6H6zM11.5 12H15V6h-3.5v6zM44 9a3 3 0 1 1-6 0 3 3 0 0 1 6 0zM28 31a3 3 0 1 0 0-6 3 3 0 0 0 0 6zM17 47a3 3 0 1 1-6 0 3 3 0 0 1 6 0zM46 36.326l2.36.674-2.36.674v-1.348zM48 47a3 3 0 1 1-6 0 3 3 0 0 1 6 0z"/></g></g></svg>