<svg xmlns="http://www.w3.org/2000/svg" width="56" height="56" class="wd-accent-presenter wd-accent" focusable="false" role="presentation" viewBox="0 0 56 56"><g fill="none" fill-rule="evenodd" class="wd-icon-container"><path fill="#005DBA" fill-rule="nonzero" d="M15 18a1 1 0 0 0-2 0v5a1 1 0 0 0 2 0v-5zm-2 15v-3.083A6.002 6.002 0 0 1 8 24a1 1 0 0 1 2 0 4 4 0 1 0 8 0 1 1 0 0 1 2 0 6.002 6.002 0 0 1-5 5.917V33h7v-3c0-4.13 3.13-7.53 7.147-7.955A6.98 6.98 0 0 1 27 17v-4a7 7 0 0 1 14 0v4a6.98 6.98 0 0 1-2.147 5.045A8.001 8.001 0 0 1 46 30v3h4a2 2 0 0 1 2 2v8a2 2 0 0 1-2 2h-4v3a2 2 0 0 1-2 2H13a2 2 0 0 1-2-2v-3H6a2 2 0 0 1-2-2v-8a2 2 0 0 1 2-2h7zm1-18a3 3 0 0 1 3 3v5a3 3 0 0 1-6 0v-5a3 3 0 0 1 3-3zm30 18v-3a6 6 0 0 0-6-6h-8a6 6 0 0 0-6 6v3h20zM34 8a5 5 0 0 0-5 5v4a5 5 0 0 0 10 0v-4a5 5 0 0 0-5-5zM6 35v8h44v-8H6zm7 10v3h31v-3H13z" class="color-500"/><path fill="#FFF" d="M15 23v-5a1 1 0 0 0-2 0v5a1 1 0 0 0 2 0zm29 10H24v-3a6 6 0 0 1 6-6h8a6 6 0 0 1 6 6v3zM34 8a5 5 0 0 1 5 5v4a5 5 0 0 1-10 0v-4a5 5 0 0 1 5-5zM6 35h44v8H6v-8zm7 10h31v3H13v-3z" class="french-vanilla-100"/></g></svg>