<svg xmlns="http://www.w3.org/2000/svg" width="56" height="56" class="wd-accent-privacy wd-accent" focusable="false" role="presentation" viewBox="0 0 56 56"><g fill="none" fill-rule="evenodd" class="wd-icon-container"><path fill="#005DBA" fill-rule="nonzero" d="M50 39a2 2 0 0 1 2 2v2a2 2 0 0 1-2 2H6a2 2 0 0 1-2-2v-2a2 2 0 0 1 2-2V12a2 2 0 0 1 2-2h40a2 2 0 0 1 2 2v27zM8 12v27h40V12H8zM6 41v2h44v-2H6zm16-17v-2a6 6 0 1 1 12 0v2a2 2 0 0 1 2 2v7a2 2 0 0 1-2 2H22a2 2 0 0 1-2-2v-7a2 2 0 0 1 2-2zm10 0v-2a4 4 0 1 0-8 0v2h2v-2a2 2 0 1 1 4 0v2h2zm-10 2v7h12v-7H22zm4.586 3l.707.707 2.121-2.121A1 1 0 1 1 30.828 29l-3.535 3.536-2.121-2.122A1 1 0 0 1 26.586 29z" class="color-500"/><path fill="#FFF" d="M8 12h40v27H8V12zm14 12a2 2 0 0 0-2 2v7a2 2 0 0 0 2 2h12a2 2 0 0 0 2-2v-7a2 2 0 0 0-2-2v-2a6 6 0 1 0-12 0v2zm10 0h-2v-2a2 2 0 1 0-4 0v2h-2v-2a4 4 0 1 1 8 0v2zm-10 2h12v7H22v-7zm4.586 3a1 1 0 1 0-1.414 1.414l2.12 2.122L30.829 29a1 1 0 0 0-1.414-1.414l-2.121 2.121-.707-.707zM6 41h44v2H6v-2z" class="french-vanilla-100"/></g></svg>