<svg xmlns="http://www.w3.org/2000/svg" width="56" height="56" class="wd-accent-profile-paper wd-accent" focusable="false" role="presentation" viewBox="0 0 56 56"><g fill="none" fill-rule="nonzero" class="wd-icon-container"><path fill="#005DBA" d="M33 24h1V12H22v12h1a3 3 0 0 1 2.772-2.991A2.989 2.989 0 0 1 25 19v-2a3 3 0 0 1 6 0v2c0 .772-.292 1.477-.772 2.009A3 3 0 0 1 33 24zM14 4h28a3 3 0 0 1 3 3v42a3 3 0 0 1-3 3H14a3 3 0 0 1-3-3V7a3 3 0 0 1 3-3zm0 2a1 1 0 0 0-1 1v42a1 1 0 0 0 1 1h28a1 1 0 0 0 1-1V7a1 1 0 0 0-1-1H14zm4 24h20a1 1 0 0 1 0 2H18a1 1 0 0 1 0-2zm0 4h18a1 1 0 0 1 0 2H18a1 1 0 0 1 0-2zm0 6h20a1 1 0 0 1 0 2H18a1 1 0 0 1 0-2zm0 4h14a1 1 0 0 1 0 2H18a1 1 0 0 1 0-2zm3-34h14a1 1 0 0 1 1 1v14a1 1 0 0 1-1 1H21a1 1 0 0 1-1-1V11a1 1 0 0 1 1-1zm7 6a1 1 0 0 0-1 1v2a1 1 0 0 0 2 0v-2a1 1 0 0 0-1-1zm-3 8h6a1 1 0 0 0-1-1h-4a1 1 0 0 0-1 1z" class="color-500"/><path fill="#FFF" d="M33 24h1V12H22v12h1a3 3 0 0 1 2.772-2.991A2.989 2.989 0 0 1 25 19v-2a3 3 0 0 1 6 0v2c0 .772-.292 1.477-.772 2.009A3 3 0 0 1 33 24zM14 6a1 1 0 0 0-1 1v42a1 1 0 0 0 1 1h28a1 1 0 0 0 1-1V7a1 1 0 0 0-1-1H14zm4 24h20a1 1 0 0 1 0 2H18a1 1 0 0 1 0-2zm0 4h18a1 1 0 0 1 0 2H18a1 1 0 0 1 0-2zm0 6h20a1 1 0 0 1 0 2H18a1 1 0 0 1 0-2zm0 4h14a1 1 0 0 1 0 2H18a1 1 0 0 1 0-2zm3-34h14a1 1 0 0 1 1 1v14a1 1 0 0 1-1 1H21a1 1 0 0 1-1-1V11a1 1 0 0 1 1-1zm7 6a1 1 0 0 0-1 1v2a1 1 0 0 0 2 0v-2a1 1 0 0 0-1-1zm-3 8h6a1 1 0 0 0-1-1h-4a1 1 0 0 0-1 1z" class="french-vanilla-100"/></g></svg>