<svg xmlns="http://www.w3.org/2000/svg" width="56" height="56" class="wd-accent-quotes wd-accent" focusable="false" role="presentation" viewBox="0 0 56 56"><g fill="none" fill-rule="nonzero" class="wd-icon-container"><path fill="#005DBA" d="M9 30.563c0 7.466 5.014 10.444 8.555 10.431 3.127.141 5.784-2.236 5.956-5.327a3.649 3.649 0 0 0-2.587-3.765c-2.082-.499-4.735-1.706-4.735-5.327 0-4.015 4.298-6.81 7.388-7.951.462-.393.64-1.022.451-1.596A1.509 1.509 0 0 0 22.715 16C15.539 17.64 9 22.613 9 30.563zm-2 0c0-8.34 6.362-14.477 15.27-16.513l.3-.068.308.025a3.509 3.509 0 0 1 3.05 2.397 3.485 3.485 0 0 1-1.054 3.743l-.27.23-.334.123c-3.444 1.272-6.081 3.697-6.081 6.075 0 1.948 1.035 2.863 3.2 3.382l.12.032c2.539.777 4.202 3.198 3.999 5.789-.233 4.19-3.826 7.405-7.945 7.216C11.92 43.014 7 38.152 7 30.564zM45.648 16c-7.255 1.64-13.715 6.613-13.728 14.563 0 7.466 5.027 10.444 8.569 10.431 3.126.141 5.784-2.236 5.955-5.327a3.649 3.649 0 0 0-2.586-3.765c-2.083-.499-4.736-1.706-4.736-5.327 0-4.015 4.298-6.81 7.388-7.951a1.51 1.51 0 0 0 .415-1.584A1.535 1.535 0 0 0 45.648 16zm.24-1.986a3.535 3.535 0 0 1 2.937 2.402 3.51 3.51 0 0 1-.959 3.679l-.291.268-.372.137c-3.444 1.272-6.08 3.697-6.08 6.075 0 1.948 1.034 2.863 3.2 3.382l.12.032c2.538.777 4.2 3.198 3.998 5.789-.232 4.19-3.826 7.405-7.945 7.216-5.644.02-10.576-4.843-10.576-12.434.014-8.365 6.342-14.489 15.287-16.51l.338-.077.344.041z" class="color-500"/><path fill="#FFF" d="M9 30.563C9 22.613 15.54 17.64 22.715 16c.607.05 1.125.455 1.313 1.028.189.574.01 1.203-.451 1.596-3.09 1.142-7.388 3.936-7.388 7.95 0 3.622 2.653 4.83 4.735 5.328a3.649 3.649 0 0 1 2.587 3.765c-.172 3.091-2.83 5.468-5.956 5.327C14.014 41.007 9 38.029 9 30.564zM45.648 16a1.535 1.535 0 0 1 1.277 1.04 1.51 1.51 0 0 1-.415 1.584c-3.09 1.142-7.388 3.936-7.388 7.95 0 3.622 2.653 4.83 4.736 5.328a3.649 3.649 0 0 1 2.586 3.765c-.171 3.091-2.829 5.468-5.955 5.327-3.542.013-8.569-2.965-8.569-10.43.013-7.951 6.473-12.924 13.728-14.564z" class="french-vanilla-100"/></g></svg>