<svg xmlns="http://www.w3.org/2000/svg" width="56" height="56" class="wd-accent-quotes-solid wd-accent" focusable="false" role="presentation" viewBox="0 0 56 56"><g fill="none" fill-rule="evenodd" class="wd-icon-container"><path fill="#005DBA" fill-rule="nonzero" d="M9 30.563C9 22.613 15.54 17.64 22.715 16c.607.05 1.125.455 1.313 1.028.189.574.01 1.203-.451 1.596-3.09 1.142-7.388 3.936-7.388 7.95 0 3.622 2.653 4.83 4.735 5.328a3.649 3.649 0 0 1 2.587 3.765c-.172 3.091-2.83 5.468-5.956 5.327C14.014 41.007 9 38.029 9 30.564zM45.648 16a1.535 1.535 0 0 1 1.277 1.04 1.51 1.51 0 0 1-.415 1.584c-3.09 1.142-7.388 3.936-7.388 7.95 0 3.622 2.653 4.83 4.736 5.328a3.649 3.649 0 0 1 2.586 3.765c-.171 3.091-2.829 5.468-5.955 5.327-3.542.013-8.569-2.965-8.569-10.43.013-7.951 6.473-12.924 13.728-14.564z" class="color-500"/></g></svg>