<svg xmlns="http://www.w3.org/2000/svg" width="56" height="56" class="wd-accent-rabbit wd-accent" focusable="false" role="presentation" viewBox="0 0 56 56"><g fill="none" fill-rule="evenodd" class="wd-icon-container"><path fill="#005DBA" d="M34.69 24.54a6.514 6.514 0 0 1-.044-6.273C31.304 16.75 28.09 16 25 16a4 4 0 1 1 0-8c5.005 0 11.846 3.594 15.294 6.863a6.48 6.48 0 0 1 4.584 1.824c2.89 2.79 4.851 8.653 2.319 11.275-1.12 1.16-2.901 1.463-4.791 1.2.301 1.948 1.968 3.304 4.896 4.38 1.072.393 4.491 1.347 4.947 1.53a1 1 0 0 1 .598 1.17l-.048.195a5 5 0 0 1-6.567 3.483c-1.864-.681-4.13-1.69-6.802-3.026-4.38-2.19-8.977-2.231-13.87-.108-1.161 1.895-2.984 2.994-5.325 3.395-1.374.235-2.681.218-4.412.046l-.82-.084a5.892 5.892 0 0 0-.503-.034c-.75 0-1.62.222-2.333.744-1.046.767-1.667 2.106-1.667 4.256a1 1 0 0 1-1 1c-2.886 0-4.5-1.614-4.5-4.5 0-3.585 2.33-6.283 5.553-7.894.534-.267 1.11-.458 2.066-.722l.506-.138c.89-.244 1.372-.409 1.634-.568a3.562 3.562 0 0 0-.05-.067c-1.656-2.147-.934-5.42 1.52-7.633a4 4 0 1 1 5.605-2.441c2.042-.338 3.632-.092 5.303.695.482.228.962.49 1.626.88l.838.497c.352.21.62.366.895.523 1.664.951 2.989.892 4.194-.202zm1.237 1.574c-1.836 1.59-4.05 1.72-6.423.364a62.85 62.85 0 0 1-.923-.54l-.426-.253-.405-.24a18.091 18.091 0 0 0-1.465-.794c-1.742-.82-3.3-.893-5.998-.084-3.801 1.14-5.35 4.675-3.995 6.432.796 1.032.699 2.12-.248 2.83-.52.391-1.122.607-2.39.955l-.504.137c-.836.23-1.32.392-1.703.583C8.83 36.812 7 38.93 7 41.609c0 1.422.458 2.167 1.548 2.41.38-4.174 2.977-5.91 5.952-5.91.183 0 .393.014.693.043l.828.084c1.567.156 2.72.171 3.877-.026C23.164 37.65 25 35.48 25 30.61a1 1 0 1 1 2 0c0 1.364-.138 2.573-.404 3.635 4.768-1.606 9.363-1.322 13.728.86 2.61 1.306 4.81 2.285 6.594 2.937a3 3 0 0 0 3.673-1.397c-1.176-.348-3.136-.917-3.979-1.226-3.892-1.43-6.197-3.505-6.257-6.745-1.675-.558-3.279-1.478-4.428-2.56zm1.849-10.716C34.762 13.02 29.535 10 25 10a2 2 0 1 0 0 4c3.522 0 7.153.88 10.895 2.642a6.47 6.47 0 0 1 1.88-1.244zM18 23a2 2 0 1 0 0-4 2 2 0 0 0 0 4zm27.758 3.573c1.726-1.788-.481-6.72-2.269-8.447a4.5 4.5 0 1 0-6.252 6.474c1.788 1.726 6.795 3.76 8.521 1.973zM43 22a1 1 0 1 1 0-2 1 1 0 0 1 0 2zM6 11h12a1 1 0 0 1 0 2H6a1 1 0 0 1 0-2zm0 9h5a1 1 0 0 1 0 2H6a1 1 0 0 1 0-2zm0 9h4a1 1 0 0 1 0 2H6a1 1 0 0 1 0-2z" class="color-500"/><path fill="#FFF" d="M35.927 26.114c-1.836 1.59-4.05 1.72-6.423.364a62.85 62.85 0 0 1-.923-.54l-.426-.253-.405-.24a18.091 18.091 0 0 0-1.465-.794c-1.742-.82-3.3-.893-5.998-.084-3.801 1.14-5.35 4.675-3.995 6.432.796 1.032.699 2.12-.248 2.83-.52.391-1.122.607-2.39.955l-.504.137c-.836.23-1.32.392-1.703.583C8.83 36.812 7 38.93 7 41.609c0 1.422.458 2.167 1.548 2.41.38-4.174 2.977-5.91 5.952-5.91.183 0 .393.014.693.043l.828.084c1.567.156 2.72.171 3.877-.026C23.164 37.65 25 35.48 25 30.61a1 1 0 1 1 2 0c0 1.364-.138 2.573-.404 3.635 4.768-1.606 9.363-1.322 13.728.86 2.61 1.306 4.81 2.285 6.594 2.937a3 3 0 0 0 3.673-1.397c-1.176-.348-3.136-.917-3.979-1.226-3.892-1.43-6.197-3.505-6.257-6.745-1.675-.558-3.279-1.478-4.428-2.56zm1.849-10.716C34.762 13.02 29.535 10 25 10a2 2 0 1 0 0 4c3.522 0 7.153.88 10.895 2.642a6.47 6.47 0 0 1 1.88-1.244zM18 23a2 2 0 1 0 0-4 2 2 0 0 0 0 4zm27.758 3.573c1.726-1.788-.481-6.72-2.269-8.447a4.5 4.5 0 1 0-6.252 6.474c1.788 1.726 6.795 3.76 8.521 1.973zM43 22a1 1 0 1 1 0-2 1 1 0 0 1 0 2z" class="french-vanilla-100"/></g></svg>