<svg xmlns="http://www.w3.org/2000/svg" width="56" height="56" class="wd-accent-ram wd-accent" focusable="false" role="presentation" viewBox="0 0 56 56"><g fill="none" fill-rule="nonzero" class="wd-icon-container"><path fill="#005DBA" d="M45 38a1 1 0 0 1 2 0v2h1v-5H8v5h1v-2a1 1 0 0 1 2 0v2h2v-2a1 1 0 0 1 2 0v2h2v-2a1 1 0 0 1 2 0v2h2v-2a1 1 0 0 1 2 0v2h2v-2a1 1 0 0 1 2 0v2h2v-2a1 1 0 0 1 2 0v2h2v-2a1 1 0 0 1 2 0v2h2v-2a1 1 0 0 1 2 0v2h2v-2a1 1 0 0 1 2 0v2h2v-2zm5-3v5a2 2 0 0 1-2 2H8a2 2 0 0 1-2-2v-5a2 2 0 0 1-2-2V16a2 2 0 0 1 2-2h44a2 2 0 0 1 2 2v17a2 2 0 0 1-2 2zM6 33h44V16H6v17zm5-15h4a2 2 0 0 1 2 2v9a2 2 0 0 1-2 2h-4a2 2 0 0 1-2-2v-9a2 2 0 0 1 2-2zm0 2v9h4v-9h-4zm10-2h4a2 2 0 0 1 2 2v9a2 2 0 0 1-2 2h-4a2 2 0 0 1-2-2v-9a2 2 0 0 1 2-2zm0 2v9h4v-9h-4zm10-2h4a2 2 0 0 1 2 2v9a2 2 0 0 1-2 2h-4a2 2 0 0 1-2-2v-9a2 2 0 0 1 2-2zm10 0h4a2 2 0 0 1 2 2v9a2 2 0 0 1-2 2h-4a2 2 0 0 1-2-2v-9a2 2 0 0 1 2-2zm-10 2v9h4v-9h-4zm10 0v9h4v-9h-4z" class="color-500"/><path fill="#FFF" d="M45 38a1 1 0 0 1 2 0v2h1v-5H8v5h1v-2a1 1 0 0 1 2 0v2h2v-2a1 1 0 0 1 2 0v2h2v-2a1 1 0 0 1 2 0v2h2v-2a1 1 0 0 1 2 0v2h2v-2a1 1 0 0 1 2 0v2h2v-2a1 1 0 0 1 2 0v2h2v-2a1 1 0 0 1 2 0v2h2v-2a1 1 0 0 1 2 0v2h2v-2a1 1 0 0 1 2 0v2h2v-2zM6 33h44V16H6v17zm5-15h4a2 2 0 0 1 2 2v9a2 2 0 0 1-2 2h-4a2 2 0 0 1-2-2v-9a2 2 0 0 1 2-2zm0 2v9h4v-9h-4zm10-2h4a2 2 0 0 1 2 2v9a2 2 0 0 1-2 2h-4a2 2 0 0 1-2-2v-9a2 2 0 0 1 2-2zm0 2v9h4v-9h-4zm10-2h4a2 2 0 0 1 2 2v9a2 2 0 0 1-2 2h-4a2 2 0 0 1-2-2v-9a2 2 0 0 1 2-2zm10 0h4a2 2 0 0 1 2 2v9a2 2 0 0 1-2 2h-4a2 2 0 0 1-2-2v-9a2 2 0 0 1 2-2zm-10 2v9h4v-9h-4zm10 0v9h4v-9h-4z" class="french-vanilla-100"/></g></svg>