<svg xmlns="http://www.w3.org/2000/svg" width="56" height="56" class="wd-accent-receipt wd-accent" focusable="false" role="presentation" viewBox="0 0 56 56"><g fill="none" fill-rule="nonzero" class="wd-icon-container"><path fill="#005DBA" d="M14.772 45.41l-1.06 1.06a1 1 0 0 1-1.415-1.413l1.06-1.061-1.06-1.06a1 1 0 0 1 1.414-1.415l1.061 1.06 1.06-1.06a1 1 0 0 1 1.415 1.414l-1.06 1.06 1.06 1.062a1 1 0 0 1-1.414 1.414l-1.061-1.06zM35 46.94v3.064c0 1.922-2.447 2.737-3.6 1.2l-.116-.155-.37.37a2 2 0 0 1-2.828 0l-.586-.587-.586.586a2 2 0 0 1-2.828 0l-.586-.586-.586.586a2 2 0 0 1-2.828 0l-.586-.586-.586.586a2 2 0 0 1-2.828 0l-.586-.586-.586.586a2 2 0 0 1-2.828 0l-.37-.37-.116.156c-1.153 1.537-3.6.722-3.6-1.2v-39c0-1.934 2.471-2.742 3.614-1.182l.105.144.35-.36a2 2 0 0 1 2.862 0l.569.583.569-.582a2 2 0 0 1 2.862 0l.569.582.569-.582a1.99 1.99 0 0 1 .931-.54V6.004c0-1.934 2.471-2.742 3.614-1.182l.105.144.35-.36a2 2 0 0 1 2.862 0l.569.583.569-.582a2 2 0 0 1 2.862 0l.569.582.569-.582a2 2 0 0 1 2.862 0l.569.582.569-.582a2 2 0 0 1 2.862 0l.569.582.569-.582a2 2 0 0 1 2.862 0l.35.359.105-.144C45.53 3.262 48 4.07 48 6.004v39c0 1.922-2.447 2.737-3.6 1.2l-.116-.155-.37.37a2 2 0 0 1-2.828 0l-.586-.587-.586.586a2 2 0 0 1-2.828 0l-.586-.586-.586.586a1.99 1.99 0 0 1-.914.523zm0-2.436l.793-.793a1 1 0 0 1 1.414 0l1.293 1.293 1.293-1.293a1 1 0 0 1 1.414 0l1.293 1.293 1.185-1.185a1 1 0 0 1 1.507.107L46 45.004v-39L45.198 7.1a1 1 0 0 1-1.523.108L42.5 6.004 41.216 7.32a1 1 0 0 1-1.415.017L38.5 6.004 37.216 7.32a1 1 0 0 1-1.415.017L34.5 6.004 33.216 7.32a1 1 0 0 1-1.415.017L30.5 6.004 29.216 7.32a1 1 0 0 1-1.415.017L26.5 6.004l-1.175 1.204a1 1 0 0 1-1.523-.108L23 6.004v3.673l.5.512.569-.582a2 2 0 0 1 2.862 0l.569.582.569-.582a2 2 0 0 1 2.862 0l.35.359.105-.144C32.53 8.262 35 9.07 35 11.004v33.5zm-2 5.5v-39l-.802 1.096a1 1 0 0 1-1.523.108L29.5 11.004l-1.284 1.316a1 1 0 0 1-1.415.017L25.5 11.004l-1.284 1.316a1 1 0 0 1-1.415.017L21.5 11.004l-1.284 1.316a1 1 0 0 1-1.415.017L17.5 11.004l-1.284 1.316a1 1 0 0 1-1.415.017L13.5 11.004l-1.175 1.204a1 1 0 0 1-1.523-.108L10 11.004v39l.808-1.078a1 1 0 0 1 1.507-.107l1.185 1.185 1.293-1.293a1 1 0 0 1 1.414 0l1.293 1.293 1.293-1.293a1 1 0 0 1 1.414 0l1.293 1.293 1.293-1.293a1 1 0 0 1 1.414 0l1.293 1.293 1.293-1.293a1 1 0 0 1 1.414 0l1.293 1.293 1.185-1.185a1 1 0 0 1 1.507.107L33 50.004zm-13-7h10a1 1 0 1 1 0 2H20a1 1 0 0 1 0-2zm-7-26h17a1 1 0 1 1 0 2H13a1 1 0 0 1 0-2zm0 19h9a1 1 0 1 1 0 2h-9a1 1 0 0 1 0-2zm0-4h9a1 1 0 1 1 0 2h-9a1 1 0 0 1 0-2zm0-4h9a1 1 0 1 1 0 2h-9a1 1 0 0 1 0-2zm0-4h9a1 1 0 1 1 0 2h-9a1 1 0 0 1 0-2zm13 12h4a1 1 0 1 1 0 2h-4a1 1 0 0 1 0-2zm0-4h4a1 1 0 1 1 0 2h-4a1 1 0 0 1 0-2zm0-4h4a1 1 0 1 1 0 2h-4a1 1 0 0 1 0-2zm0-4h4a1 1 0 1 1 0 2h-4a1 1 0 0 1 0-2z" class="color-500"/><path fill="#FFF" d="M14.772 45.41l-1.06 1.06a1 1 0 0 1-1.415-1.413l1.06-1.061-1.06-1.06a1 1 0 0 1 1.414-1.415l1.061 1.06 1.06-1.06a1 1 0 0 1 1.415 1.414l-1.06 1.06 1.06 1.062a1 1 0 0 1-1.414 1.414l-1.061-1.06zM35 44.504l.793-.793a1 1 0 0 1 1.414 0l1.293 1.293 1.293-1.293a1 1 0 0 1 1.414 0l1.293 1.293 1.185-1.185a1 1 0 0 1 1.507.107L46 45.004v-39L45.198 7.1a1 1 0 0 1-1.523.108L42.5 6.004 41.216 7.32a1 1 0 0 1-1.415.017L38.5 6.004 37.216 7.32a1 1 0 0 1-1.415.017L34.5 6.004 33.216 7.32a1 1 0 0 1-1.415.017L30.5 6.004 29.216 7.32a1 1 0 0 1-1.415.017L26.5 6.004l-1.175 1.204a1 1 0 0 1-1.523-.108L23 6.004v3.673l.5.512.569-.582a2 2 0 0 1 2.862 0l.569.582.569-.582a2 2 0 0 1 2.862 0l.35.359.105-.144C32.53 8.262 35 9.07 35 11.004v33.5zm-2 5.5v-39l-.802 1.096a1 1 0 0 1-1.523.108L29.5 11.004l-1.284 1.316a1 1 0 0 1-1.415.017L25.5 11.004l-1.284 1.316a1 1 0 0 1-1.415.017L21.5 11.004l-1.284 1.316a1 1 0 0 1-1.415.017L17.5 11.004l-1.284 1.316a1 1 0 0 1-1.415.017L13.5 11.004l-1.175 1.204a1 1 0 0 1-1.523-.108L10 11.004v39l.808-1.078a1 1 0 0 1 1.507-.107l1.185 1.185 1.293-1.293a1 1 0 0 1 1.414 0l1.293 1.293 1.293-1.293a1 1 0 0 1 1.414 0l1.293 1.293 1.293-1.293a1 1 0 0 1 1.414 0l1.293 1.293 1.293-1.293a1 1 0 0 1 1.414 0l1.293 1.293 1.185-1.185a1 1 0 0 1 1.507.107L33 50.004zm-13-7h10a1 1 0 1 1 0 2H20a1 1 0 0 1 0-2zm-7-26h17a1 1 0 1 1 0 2H13a1 1 0 0 1 0-2zm0 19h9a1 1 0 1 1 0 2h-9a1 1 0 0 1 0-2zm0-4h9a1 1 0 1 1 0 2h-9a1 1 0 0 1 0-2zm0-4h9a1 1 0 1 1 0 2h-9a1 1 0 0 1 0-2zm0-4h9a1 1 0 1 1 0 2h-9a1 1 0 0 1 0-2zm13 12h4a1 1 0 1 1 0 2h-4a1 1 0 0 1 0-2zm0-4h4a1 1 0 1 1 0 2h-4a1 1 0 0 1 0-2zm0-4h4a1 1 0 1 1 0 2h-4a1 1 0 0 1 0-2zm0-4h4a1 1 0 1 1 0 2h-4a1 1 0 0 1 0-2z" class="french-vanilla-100"/></g></svg>