<svg xmlns="http://www.w3.org/2000/svg" width="56" height="56" class="wd-accent-recorder wd-accent" focusable="false" role="presentation" viewBox="0 0 56 56"><g fill="none" fill-rule="evenodd" class="wd-icon-container"><path fill="#005DBA" d="M40 4a3 3 0 0 1 3 3v1a2 2 0 0 1 2 2v4a2 2 0 0 1-2 2v1a2 2 0 0 1 2 2v4a2 2 0 0 1-2 2v24a3 3 0 0 1-3 3H14a3 3 0 0 1-3-3V7a3 3 0 0 1 3-3zm0 2h-1v33a2 2 0 0 1-2 2H13v8a1 1 0 0 0 1 1h26a1 1 0 0 0 1-1V7a1 1 0 0 0-1-1zm-3 36a2 2 0 0 1 2 2v3a2 2 0 0 1-2 2H17a2 2 0 0 1-2-2v-3a2 2 0 0 1 2-2zm-7 2h-6v3h6v-3zm7 0h-5v3h5v-3zm-15 0h-5v3h5v-3zM37 6H14a1 1 0 0 0-1 1v32h24V6zm-4 2a2 2 0 0 1 2 2v25a2 2 0 0 1-2 2H17a2 2 0 0 1-2-2V10a2 2 0 0 1 2-2zm0 2H17v25h16V10zm-8 15a3 3 0 1 1 0 6 3 3 0 0 1 0-6zm0 2a1 1 0 1 0 0 2 1 1 0 0 0 0-2zm0-13a3 3 0 1 1 0 6 3 3 0 0 1 0-6zm0 2a1 1 0 1 0 0 2 1 1 0 0 0 0-2z" class="color-500"/><path fill="#FFF" d="M30 44v3h-6v-3h6zm2 0h5v3h-5v-3zm-10 0v3h-5v-3h5zM39 6h1a1 1 0 0 1 1 1v42a1 1 0 0 1-1 1H14a1 1 0 0 1-1-1v-8h24a2 2 0 0 0 2-2V6zM14 6h23v33H13V7a1 1 0 0 1 1-1zm3 2a2 2 0 0 0-2 2v25a2 2 0 0 0 2 2h16a2 2 0 0 0 2-2V10a2 2 0 0 0-2-2H17zm0 2h16v25H17V10zm8 10a3 3 0 1 0 0-6 3 3 0 0 0 0 6zm0 11a3 3 0 1 0 0-6 3 3 0 0 0 0 6zm0-13a1 1 0 1 1 0-2 1 1 0 0 1 0 2zm0 11a1 1 0 1 1 0-2 1 1 0 0 1 0 2zm-8 13a2 2 0 0 0-2 2v3a2 2 0 0 0 2 2h20a2 2 0 0 0 2-2v-3a2 2 0 0 0-2-2H17z" class="french-vanilla-100"/></g></svg>