<svg xmlns="http://www.w3.org/2000/svg" width="56" height="56" class="wd-accent-recycle wd-accent" focusable="false" role="presentation" viewBox="0 0 56 56"><g fill="none" fill-rule="evenodd" class="wd-icon-container"><path fill="#005DBA" fill-rule="nonzero" d="M7.229 25.255c-1.593-.92-1.289-3.232.432-3.693L17.223 19a2 2 0 0 1 2.45 1.414l2.562 9.562c.41 1.532-1.01 2.825-2.415 2.463l-1.897 3.486h4.272c1.781 0 2.674 2.155 1.414 3.415l-3.664 3.663 3.586 3.586c1.26 1.26.367 3.414-1.414 3.414H19c-8.284 0-15-6.715-15-15a15 15 0 0 1 1.827-7.174l1.402-2.574zm2.69-.757l-2.336 4.287A13 13 0 0 0 6 35.003c0 7.18 5.82 13 13 13h3.117l-5-5 5.078-5.078H16.24a1 1 0 0 1-.879-1.478l3.646-6.7 1.295.747-2.562-9.562-9.562 2.562 1.74 1.004zm38.294 1.14l1.193 2.19c3.962 7.276 1.277 16.386-5.998 20.348a15 15 0 0 1-7.175 1.827h-2.116c0 1.782-2.155 2.675-3.415 1.415l-7-7a2 2 0 0 1 0-2.829l7-7c1.242-1.241 3.351-.393 3.413 1.336h3.196l-2.224-4.087c-.84-1.543.577-3.342 2.274-2.887l5.966 1.598 1.198-4.471c.467-1.745 2.824-2.025 3.688-.44zM32.117 36.004l-7 7 7 7v-2h3.62c.047-.009.096-.014.146-.015 4.075-.102 5.98-4.304 3.49-8.371l-.977-1.692h-6.28v-1.922zm14.34-9.408L44.74 33l-7.897-2.116 3.028 5.564c.024.045.045.091.062.138l1.158 2.01c1.79 2.922 1.768 6.047.43 8.283.316-.14.625-.293.929-.458 6.305-3.434 8.633-11.33 5.199-17.635l-1.193-2.19zm-14.02-3.813l-1.258.726 9.562 2.562 2.562-9.562-1.78 1.028-2.486-4.564a1.006 1.006 0 0 1-.103-.14c-2.126-3.478-6.717-3.027-8.994 1.163l-1.177 2.037 3.673 6.75zm-4.242-9.764c1.61-2.963 4.266-4.505 6.833-4.516a13 13 0 0 0-1.194-.736C27.53 4.332 19.634 6.66 16.2 12.965l-1.609 2.954 7.15-1.916 1.925 7.184 2.842-5.223c.019-.049.041-.097.068-.143l.164-.284 1.455-2.52zm14.103 1.76c1.548-.893 3.398.527 2.937 2.248l-2.562 9.562a2 2 0 0 1-2.45 1.414l-9.562-2.562c-1.551-.416-1.952-2.335-.885-3.362l-2.16-3.968-2.193 4.033c-.864 1.587-3.222 1.306-3.69-.438l-1.406-5.252-5.218 1.398c-1.698.455-3.115-1.345-2.274-2.888l1.609-2.955c3.962-7.275 13.072-9.96 20.347-5.998a15 15 0 0 1 5.998 5.998l1.51 2.77zM7.215 27.369a1 1 0 0 1 .4 1.356c-1.949 3.58.737 7.33 5.504 7.208h3.263a1 1 0 1 1 0 2h-3.237c-6.206.16-10.013-5.157-7.286-10.165a1 1 0 0 1 1.356-.4z" class="color-500"/><path fill="#FFF" d="M15.643 35.932h-2.524c-4.706.12-7.384-3.533-5.576-7.072l.04-.075 2.335-4.287-1.74-1.005 9.563-2.562 2.562 9.562-1.295-.747-3.365 6.186zm6.552 1.993l-5.078 5.078 5 5H19c-7.18 0-13-5.82-13-13 0-.143.002-.285.007-.427 1.353 2.052 3.924 3.438 7.138 3.355h3.237c.04 0 .078-.002.115-.006h5.698zm17.178 1.691c2.49 4.068.585 8.27-3.49 8.371a1.008 1.008 0 0 0-.153.016h-3.613v2l-7-7 7-7v1.922h6.28l.976 1.691zm.499-3.169l-3.028-5.565 7.897 2.116 1.716-6.403 1.193 2.19c3.434 6.305 1.106 14.2-5.199 17.635a13 13 0 0 1-.929.458c1.338-2.236 1.36-5.36-.43-8.284l-1.156-2.001a1.007 1.007 0 0 0-.064-.146zM29.94 13.995c2.277-4.19 6.868-4.64 8.994-1.163.03.05.065.097.103.14l2.486 4.564 1.78-1.028-2.562 9.562-9.562-2.562 1.257-.726-3.673-6.75 1.177-2.037zm-3.364 1.826c-.027.046-.05.094-.068.142l-2.842 5.224-1.925-7.184-7.15 1.916 1.609-2.954c3.434-6.306 11.33-8.633 17.634-5.2a13 13 0 0 1 1.194.737c-2.567.01-5.223 1.553-6.833 4.515l-1.432 2.48-.187.324z" class="french-vanilla-100"/></g></svg>