<svg xmlns="http://www.w3.org/2000/svg" width="56" height="56" class="wd-accent-related-actions-circle wd-accent" focusable="false" role="presentation" viewBox="0 0 56 56"><g fill="none" fill-rule="evenodd" class="wd-icon-container"><path fill="#005DBA" fill-rule="nonzero" d="M28 4c13.255 0 24 10.745 24 24S41.255 52 28 52 4 41.255 4 28 14.745 4 28 4zm0 2C15.85 6 6 15.85 6 28s9.85 22 22 22 22-9.85 22-22S40.15 6 28 6zM16 24a4 4 0 1 1 0 8 4 4 0 0 1 0-8zm12 0a4 4 0 1 1 0 8 4 4 0 0 1 0-8zm12 0a4 4 0 1 1 0 8 4 4 0 0 1 0-8zm-24 2a2 2 0 1 0 0 4 2 2 0 0 0 0-4zm12 0a2 2 0 1 0 0 4 2 2 0 0 0 0-4zm12 0a2 2 0 1 0 0 4 2 2 0 0 0 0-4z" class="color-500"/><path fill="#FFF" d="M28 6c12.15 0 22 9.85 22 22s-9.85 22-22 22S6 40.15 6 28 15.85 6 28 6zM16 24a4 4 0 1 0 0 8 4 4 0 0 0 0-8zm12 0a4 4 0 1 0 0 8 4 4 0 0 0 0-8zm12 0a4 4 0 1 0 0 8 4 4 0 0 0 0-8zm-24 2a2 2 0 1 1 0 4 2 2 0 0 1 0-4zm12 0a2 2 0 1 1 0 4 2 2 0 0 1 0-4zm12 0a2 2 0 1 1 0 4 2 2 0 0 1 0-4z" class="french-vanilla-100"/></g></svg>