<svg xmlns="http://www.w3.org/2000/svg" width="56" height="56" class="wd-accent-resources wd-accent" focusable="false" role="presentation" viewBox="0 0 56 56"><g fill="none" fill-rule="evenodd" class="wd-icon-container"><path fill="#005DBA" fill-rule="nonzero" d="M7 11h18a2 2 0 0 1 2 2v31a2 2 0 0 1-2 2H7a2 2 0 0 1-2-2V13a2 2 0 0 1 2-2zm24 0h18a2 2 0 0 1 2 2v16a2 2 0 0 1-2 2H31a2 2 0 0 1-2-2V13a2 2 0 0 1 2-2zm0 22h18a2 2 0 0 1 2 2v9a2 2 0 0 1-2 2H31a2 2 0 0 1-2-2v-9a2 2 0 0 1 2-2zM7 13v31h18V13H7zm9 23a8 8 0 1 1 0-16 8 8 0 0 1 0 16zm-3-2.803c.883.51 1.907.803 3 .803a5.972 5.972 0 0 0 3-.803V33a2 2 0 0 0-2-2h-2a2 2 0 0 0-2 2v.197zm-1.765-1.55a4.013 4.013 0 0 1 2.093-2.282A2.987 2.987 0 0 1 13 28v-2a3 3 0 0 1 6 0v2c0 .492-.118.956-.328 1.365.97.447 1.73 1.27 2.093 2.281a6 6 0 1 0-9.53 0zM16 25a1 1 0 0 0-1 1v2a1 1 0 0 0 2 0v-2a1 1 0 0 0-1-1zm15-12v16h18V13H31zm7.235 13.507l-.794.39-1.44-.844-.034-.638a4 4 0 0 0-1.878-3.18l-.618-.386V20.15l.618-.385a4 4 0 0 0 1.878-3.181l.034-.638 1.44-.844.794.39a4 4 0 0 0 3.53 0l.794-.39 1.44.844.034.638a4 4 0 0 0 1.878 3.18l.618.386v1.698l-.618.385a4 4 0 0 0-1.878 3.181l-.034.638-1.44.844-.794-.39a4 4 0 0 0-3.53 0zm3.9-2.017A6.001 6.001 0 0 1 44.21 21a6.001 6.001 0 0 1-2.073-3.49 6 6 0 0 1-4.272 0A6.001 6.001 0 0 1 35.791 21a6.001 6.001 0 0 1 2.073 3.49 6 6 0 0 1 4.272 0zM40 22a1 1 0 1 1 0-2 1 1 0 0 1 0 2zm-9 13v9h18v-9H31zm3 2h12a1 1 0 0 1 0 2H34a1 1 0 0 1 0-2zm2 3h8a1 1 0 0 1 0 2h-8a1 1 0 0 1 0-2z" class="color-500"/><path fill="#FFF" d="M7 13h18v31H7V13zm9 23a8 8 0 1 0 0-16 8 8 0 0 0 0 16zm-3-2.803V33a2 2 0 0 1 2-2h2a2 2 0 0 1 2 2v.197A5.972 5.972 0 0 1 16 34a5.972 5.972 0 0 1-3-.803zm-1.765-1.55a6 6 0 1 1 9.53 0 4.013 4.013 0 0 0-2.093-2.282c.21-.41.328-.873.328-1.365v-2a3 3 0 0 0-6 0v2c0 .492.118.956.328 1.365a4.013 4.013 0 0 0-2.093 2.281zM16 25a1 1 0 0 1 1 1v2a1 1 0 0 1-2 0v-2a1 1 0 0 1 1-1zm15-12h18v16H31V13zm7.235 13.507a4 4 0 0 1 3.53 0l.794.39 1.44-.844.034-.638a4 4 0 0 1 1.878-3.18l.618-.386V20.15l-.618-.385a4 4 0 0 1-1.878-3.181l-.034-.638-1.44-.844-.794.39a4 4 0 0 1-3.53 0l-.794-.39-1.44.844-.034.638a4 4 0 0 1-1.878 3.18l-.618.386v1.698l.618.385a4 4 0 0 1 1.878 3.181l.034.638 1.44.844.794-.39zm3.9-2.017a6 6 0 0 0-4.27 0A6.001 6.001 0 0 0 35.79 21a6.001 6.001 0 0 0 2.073-3.49 6 6 0 0 0 4.272 0A6.001 6.001 0 0 0 44.209 21a6.001 6.001 0 0 0-2.073 3.49zM40 22a1 1 0 1 0 0-2 1 1 0 0 0 0 2zm-9 13h18v9H31v-9zm3 2a1 1 0 0 0 0 2h12a1 1 0 0 0 0-2H34zm2 3a1 1 0 0 0 0 2h8a1 1 0 0 0 0-2h-8z" class="french-vanilla-100"/></g></svg>