<svg xmlns="http://www.w3.org/2000/svg" width="56" height="56" class="wd-accent-rocket wd-accent" focusable="false" role="presentation" viewBox="0 0 56 56"><g fill="none" fill-rule="nonzero" class="wd-icon-container"><path fill="#005DBA" d="M22.027 36.932l-3.67 2.854c-1.857 1.445-4.251-.949-2.806-2.807l2.854-3.669-2.19-2.189a2 2 0 0 1-.339-2.376l.085-.153a2.004 2.004 0 0 1-.227-.097c-1.25-.625-3.741-.348-7.377 1.074-1.965.769-3.627-1.635-2.214-3.202l8.117-9a2 2 0 0 1 1.71-.648l7.563.852c3.963-4.598 8.263-8.04 12.704-10.361 5.85-3.058 11.808-3.916 13.807-1.917 2 2 1.141 7.956-1.917 13.807-2.324 4.446-5.771 8.751-10.377 12.719l.869 8.689a2 2 0 0 1-.763 1.777l-9 7c-1.604 1.248-3.83-.414-3.09-2.307 1.422-3.636 1.699-6.126 1.074-7.377a2.004 2.004 0 0 1-.096-.224l-.152.084a2 2 0 0 1-2.376-.34l-2.19-2.189zm1.59-1.237l2.013 2.012c22.831-12.524 24.768-29.232 23-31-1.768-1.768-18.476.169-31 23l2.012 2.012 6.41-8.24a2 2 0 0 1 2.992-.186l3 3a2 2 0 0 1-.186 2.993l-8.24 6.409zm-6.132-9.737a64.343 64.343 0 0 1 4.528-6.546l-6.267-.705-8.117 9c4.114-1.61 7.114-1.943 9-1l.856-.75zm11.887 11.899l-.743.85c.942 1.885.61 4.885-1 9l9-7-.736-7.357a64.383 64.383 0 0 1-6.52 4.507zm-1.742-13.15l-10.5 13.5 13.5-10.5-3-3zM37 23.37a5 5 0 1 1 0-10 5 5 0 0 1 0 10zm0-2a3 3 0 1 0 0-6 3 3 0 0 0 0 6zm-28 18a1 1 0 0 1-.768-1.64l5-6a1 1 0 1 1 1.536 1.28l-3.633 4.36H13a1 1 0 0 1 .832 1.555l-5.226 7.84 7.84-5.227A1 1 0 0 1 18 42.37v1.865l4.36-3.633a1 1 0 1 1 1.28 1.536l-6 5A1 1 0 0 1 16 46.37V44.24L5.555 51.202c-.91.606-1.993-.477-1.387-1.387L11.13 39.37H9z" class="color-500"/><path fill="#FFF" d="M23.618 35.695l2.012 2.012c22.831-12.524 24.768-29.232 23-31-1.768-1.768-18.476.169-31 23l2.012 2.012 6.41-8.24a2 2 0 0 1 2.992-.186l3 3a2 2 0 0 1-.186 2.993l-8.24 6.409zm-6.133-9.737a64.343 64.343 0 0 1 4.528-6.546l-6.267-.705-8.117 9c4.114-1.61 7.114-1.943 9-1l.856-.75zm18.408 7.392a64.383 64.383 0 0 1-6.52 4.507l-.744.85c.942 1.885.61 4.885-1 9l9-7-.736-7.357zm-8.263-8.643l-10.5 13.5 13.5-10.5-3-3zM37 23.37a5 5 0 1 1 0-10 5 5 0 0 1 0 10zm0-2a3 3 0 1 0 0-6 3 3 0 0 0 0 6z" class="french-vanilla-100"/></g></svg>