<svg xmlns="http://www.w3.org/2000/svg" width="56" height="56" class="wd-accent-roman-building wd-accent" focusable="false" role="presentation" viewBox="0 0 56 56"><g fill="none" fill-rule="evenodd" class="wd-icon-container"><path fill="#005DBA" fill-rule="nonzero" d="M29.928 6.778l19.036 10.47A2 2 0 0 1 50 19v2a2 2 0 0 1-2 2h-2v1a2 2 0 0 1-2 2v12a2 2 0 0 1 2 2v1a2 2 0 0 1 2 2v2a2 2 0 0 1 2 2v2a2 2 0 0 1-2 2H8a2 2 0 0 1-2-2v-2a2 2 0 0 1 2-2v-2a2 2 0 0 1 2-2v-1a2 2 0 0 1 2-2V26a2 2 0 0 1-2-2v-1H8a2 2 0 0 1-2-2v-2a2 2 0 0 1 1.036-1.752l19.036-10.47a4 4 0 0 1 3.856 0zM48 47H8v2h40v-2zm-2-4H10v2h36v-2zm-26-3h-8v1h8v-1zm12 0h-8v1h8v-1zm12 0h-8v1h8v-1zM22 24a2 2 0 0 1-2 2v12a2 2 0 0 1 2 2 2 2 0 0 1 2-2V26a2 2 0 0 1-2-2zm12 0a2 2 0 0 1-2 2v12a2 2 0 0 1 2 2 2 2 0 0 1 2-2V26a2 2 0 0 1-2-2zm-16 2h-4v12h4V26zm12 0h-4v12h4V26zm12 0h-4v12h4V26zm2-3h-8v1h8v-1zm-12 0h-8v1h8v-1zm-12 0h-8v1h8v-1zm7.036-14.47L11.636 17H21a1 1 0 0 1 0 2H8v2h40v-2H35.267c-.7 0-1.267-.448-1.267-1s.567-1 1.267-1h9.097l-15.4-8.47a2 2 0 0 0-1.928 0zM28 11a4 4 0 1 1 0 8 4 4 0 0 1 0-8zm0 2a2 2 0 1 0 0 4 2 2 0 0 0 0-4z" class="color-500"/><path fill="#FFF" d="M14 26v12h4V26h-4zm12 0v12h4V26h-4zm-6 14v1h-8v-1h8zm22-14v12h-4V26h4zM10 43v2h36v-2H10zm26-20v1h8v-1h-8zM24 40v1h8v-1h-8zm0-17v1h8v-1h-8zm12 17v1h8v-1h-8zM12 23v1h8v-1h-8zm36 24v2H8v-2h40zM27.036 8.53a2 2 0 0 1 1.928 0l15.4 8.47h-9.097c-.7 0-1.267.448-1.267 1s.567 1 1.267 1H48v2H8v-2h13a1 1 0 0 0 0-2h-9.364zM28 11a4 4 0 1 0 0 8 4 4 0 0 0 0-8zm0 2a2 2 0 1 1 0 4 2 2 0 0 1 0-4z" class="french-vanilla-100"/></g></svg>