<svg xmlns="http://www.w3.org/2000/svg" width="56" height="56" class="wd-accent-satelite wd-accent" focusable="false" role="presentation" viewBox="0 0 56 56"><g fill="none" fill-rule="evenodd" class="wd-icon-container"><path fill="#005DBA" fill-rule="nonzero" d="M19.79 10.44l7.514 13.014 4.777-2.758a3 3 0 1 1 1.089 1.68l-4.866 2.81 7.486 12.967a2 2 0 0 1-.732 2.732A17.917 17.917 0 0 1 24.48 43.23l1.668 6.256A2 2 0 0 1 24.215 52h-13a2 2 0 0 1-1.96-2.392l2.41-12.058a5.67 5.67 0 0 1 .313-1.036 18.145 18.145 0 0 1-1.508-2.217c-4.971-8.61-2.021-19.618 6.588-24.589a2 2 0 0 1 2.732.732zM23.682 48H11.615l-.4 2h13l-.533-2zm-6.467-13a3.66 3.66 0 0 0-3.588 2.942L12.015 46H23.15l-2.16-8.101A3.905 3.905 0 0 0 17.214 35zm0 1a3 3 0 1 1 0 6 3 3 0 0 1 0-6zm.843-24.56c-.587.339-1.144.71-1.67 1.107l7.952 13.774a1 1 0 0 1-1.732 1l-7.762-13.444c-5.088 4.988-6.372 12.963-2.644 19.42.288.5.6.979.933 1.436A5.654 5.654 0 0 1 17.211 33a5.905 5.905 0 0 1 5.705 4.383l1.006 3.771c2.117.287 4.3.153 6.42-.437l-2.248-3.894a1 1 0 0 1 1.732-1l2.438 4.223a16.158 16.158 0 0 0 1.794-.893zM17.215 38a1 1 0 1 0 0 2 1 1 0 0 0 0-2zM39.668 5.678c7.922 2.422 12.381 10.807 9.959 18.73a1 1 0 0 1-1.913-.585c2.1-6.866-1.765-14.134-8.63-16.233a1 1 0 1 1 .584-1.912zm-1.17 3.825c5.81 1.776 9.08 7.926 7.304 13.735a1 1 0 1 1-1.913-.584 9 9 0 0 0-5.975-11.239 1 1 0 1 1 .584-1.912zm-1.17 3.825a7 7 0 0 1 4.648 8.74 1 1 0 1 1-1.912-.584 5 5 0 0 0-3.32-6.243 1 1 0 0 1 .585-1.913zM35 19a1 1 0 1 0 0 2 1 1 0 0 0 0-2z" class="color-500"/><path fill="#FFF" d="M23.922 41.154l-1.006-3.77A5.905 5.905 0 0 0 17.211 33a5.654 5.654 0 0 0-4.076 1.733 16.182 16.182 0 0 1-.933-1.436c-3.728-6.457-2.444-14.432 2.644-19.42l7.762 13.444a1 1 0 1 0 1.732-1l-7.952-13.774a16.158 16.158 0 0 1 1.67-1.107l16 27.713c-.587.339-1.186.636-1.794.893l-2.438-4.223a1 1 0 0 0-1.732 1l2.248 3.894c-2.12.59-4.303.724-6.42.437zM35 21a1 1 0 1 1 0-2 1 1 0 0 1 0 2zM23.149 46H12.015l1.612-8.058A3.66 3.66 0 0 1 17.215 35c1.77 0 3.318 1.19 3.773 2.899L23.148 46zm.533 2l.533 2h-13l.4-2h12.067zm-6.467-6a3 3 0 1 0 0-6 3 3 0 0 0 0 6zm0-2a1 1 0 1 1 0-2 1 1 0 0 1 0 2z" class="french-vanilla-100"/></g></svg>