<svg xmlns="http://www.w3.org/2000/svg" width="56" height="56" class="wd-accent-scale wd-accent" focusable="false" role="presentation" viewBox="0 0 56 56"><g fill="none" fill-rule="evenodd" class="wd-icon-container"><path fill="#005DBA" fill-rule="nonzero" d="M28 5c1.014 0 1.94.378 2.646 1H46a2 2 0 0 1 2 2v2a2 2 0 0 1-1.526 1.944c1.316 4.217 3.128 10.037 5.436 17.46a2 2 0 0 1 .09.704V32a7 7 0 0 1-14 0v-1.997c0-.197.03-.398.092-.6L43.534 12H31v30h6a2 2 0 0 1 2 2v2h1a2 2 0 0 1 2 2v2a2 2 0 0 1-2 2H16a2 2 0 0 1-2-2v-2a2 2 0 0 1 2-2h1v-2a2 2 0 0 1 2-2h6V12H12.491a18344.52 18344.52 0 0 1 5.42 17.403c.047.151.075.302.086.452l.006.148V32a7 7 0 1 1-14 0v-1.892a2 2 0 0 1 .09-.705L9.548 11.95A2 2 0 0 1 8 10V8a2 2 0 0 1 2-2h15.354c.705-.622 1.632-1 2.646-1zm12 43H16v2h24v-2zm-3-4H19v2h18v-2zm-8-31.126a3.982 3.982 0 0 1-1.51.094 3.982 3.982 0 0 1-.49-.094V42h2V12.874zM16 32H6a5 5 0 0 0 10 0zm34 0H40a5 5 0 0 0 10 0zM11.001 14l-5 16h10l-5-16zm34 0l-5 16h10l-5-16zM28 7a2 2 0 1 0 0 4 2 2 0 0 0 0-4zm18 1H31.874a4.007 4.007 0 0 1 0 2H46V8zM24.126 8H10v2h14.126a4.007 4.007 0 0 1 0-2z" class="color-500"/><path fill="#FFF" d="M46 10V8H31.874a4.007 4.007 0 0 1 0 2H46zm-36 0V8h14.126a4.007 4.007 0 0 0 0 2H10zm17 2.874V42h2V12.874a3.982 3.982 0 0 1-1.51.094 3.982 3.982 0 0 1-.49-.094zM19 44h18v2H19v-2zm-3 4h24v2H16v-2zm12-37a2 2 0 1 1 0-4 2 2 0 0 1 0 4zM11 37a5 5 0 0 1-5-5h10a5 5 0 0 1-5 5zm34 0a5 5 0 0 1-5-5h10a5 5 0 0 1-5 5z" class="french-vanilla-100"/></g></svg>