<svg xmlns="http://www.w3.org/2000/svg" width="56" height="56" class="wd-accent-scroll-seal wd-accent" focusable="false" role="presentation" viewBox="0 0 56 56"><g fill="none" fill-rule="nonzero" class="wd-icon-container"><path fill="#005DBA" d="M26.264 21.317a8 8 0 1 1 13.472 0L40 33.958a2 2 0 0 1-2.77 1.888L33 34.08l-4.23 1.766A2 2 0 0 1 26 33.958l.264-12.64zm11.516 2.099A7.988 7.988 0 0 1 36 24.418V30a1 1 0 0 1-2 0v-5.062a8.079 8.079 0 0 1-2 0V28a1 1 0 0 1-2 0v-3.582a7.986 7.986 0 0 1-1.78-1.002L28 34l5-2.087L38 34l-.22-10.584zM24 21v2h-8a1 1 0 0 1 0-2h8zm0 4v2h-8a1 1 0 0 1 0-2h8zm0 4v2h-8a1 1 0 0 1 0-2h8zm0 4v2h-8a1 1 0 0 1 0-2h8zM43 4.024V4h5v.028c2.27.258 4 2.249 4 4.62V15a2 2 0 0 1-2 2h-5v30c0 2.556-2.144 5-4.851 5-.05 0-.1 0-.149-.003V52H10a5 5 0 0 1-5-5v-5a2 2 0 0 1 2-2h3V9c0-2.756 2.216-5 4.965-5 10.729.01 18.763.016 24.103.02L43 4.025zM36.838 50A4.22 4.22 0 0 1 36 47.5V42H7v5a3 3 0 0 0 3 3h26.838zM43 47V8.647c0-.968.288-1.873.784-2.622L14.963 6C13.327 6 12 7.343 12 9v31h24a2 2 0 0 1 2 2v5c.333 2 1.05 3 2.149 3C41.798 50 43 48.38 43 47zm2-32h5V8.647C50 7.185 48.88 6 47.5 6S45 7.185 45 8.647V15zm-29-4h6a1 1 0 0 1 0 2h-6a1 1 0 0 1 0-2zm0 4h6a1 1 0 0 1 0 2h-6a1 1 0 0 1 0-2zm17 8a6 6 0 1 0 0-12 6 6 0 0 0 0 12z" class="color-500"/><path fill="#FFF" d="M26.264 21.317a8 8 0 1 1 13.472 0L40 33.958a2 2 0 0 1-2.77 1.888L33 34.08l-4.23 1.766A2 2 0 0 1 26 33.958l.264-12.64zm11.516 2.099A7.988 7.988 0 0 1 36 24.418V30a1 1 0 0 1-2 0v-5.062a8.079 8.079 0 0 1-2 0V28a1 1 0 0 1-2 0v-3.582a7.986 7.986 0 0 1-1.78-1.002L28 34l5-2.087L38 34l-.22-10.584zM24 21v2h-8a1 1 0 0 1 0-2h8zm0 4v2h-8a1 1 0 0 1 0-2h8zm0 4v2h-8a1 1 0 0 1 0-2h8zm0 4v2h-8a1 1 0 0 1 0-2h8zm12.838 17A4.22 4.22 0 0 1 36 47.5V42H7v5a3 3 0 0 0 3 3h26.838zM43 47V8.647c0-.968.288-1.873.784-2.622L14.963 6C13.327 6 12 7.343 12 9v31h24a2 2 0 0 1 2 2v5c.333 2 1.05 3 2.149 3C41.798 50 43 48.38 43 47zm2-32h5V8.647C50 7.185 48.88 6 47.5 6S45 7.185 45 8.647V15zm-29-4h6a1 1 0 0 1 0 2h-6a1 1 0 0 1 0-2zm0 4h6a1 1 0 0 1 0 2h-6a1 1 0 0 1 0-2zm17 8a6 6 0 1 0 0-12 6 6 0 0 0 0 12z" class="french-vanilla-100"/></g></svg>