<svg xmlns="http://www.w3.org/2000/svg" width="56" height="56" class="wd-accent-scroll-coin wd-accent" focusable="false" role="presentation" viewBox="0 0 56 56"><g fill="none" fill-rule="nonzero" class="wd-icon-container"><path fill="#005DBA" d="M47.004 34c.52 1.247.851 2.592.958 4h1.993a10.93 10.93 0 0 0-1.154-4h-1.797zm-4.01-5.253A13.07 13.07 0 0 1 45.956 32h1.53a11.027 11.027 0 0 0-4.492-3.253zM48.8 44a10.93 10.93 0 0 0 1.154-4h-1.993a12.926 12.926 0 0 1-.958 4H48.8zm-2.845 2a13.07 13.07 0 0 1-2.962 3.253A11.027 11.027 0 0 0 47.486 46h-1.53zM22 39c0-7.18 5.82-13 13-13h4c.897 0 2.158.327 3.004.5V8.458a4.736 4.736 0 0 1 .78-2.433L13.963 6C12.327 6 11 7.343 11 9v31h11.038c-.025-.33-.038-.664-.038-1zm6.069 11a13.019 13.019 0 0 1-5.721-8H6v5a3 3 0 0 0 3 3h19.069zM9 52a5 5 0 0 1-5-5v-5a2 2 0 0 1 2-2h3V9c0-2.756 2.216-5 4.965-5H46.5C49.012 4 51 6.105 51 8.647V15a2 2 0 0 1-2 2h-5a2.01 2.01 0 0 1-.382-.036v9.88C48.518 28.707 52 33.447 52 39c0 7.06-5.628 12.805-12.642 12.995a4.52 4.52 0 0 1-.209.005H9zm35-37h5V8.647C49 7.185 47.88 6 46.5 6S44 7.185 44 8.647V15zm-20-5h13a1 1 0 0 1 0 2H24a1 1 0 0 1 0-2zm0 11h13a1 1 0 0 1 0 2H24a1 1 0 0 1 0-2zm0-8h10a1 1 0 0 1 0 2H24a1 1 0 0 1 0-2zm0 11h4a1 1 0 0 1 0 2h-4a1 1 0 0 1 0-2zm-7-7a4 4 0 1 1 0-8 4 4 0 0 1 0 8zm0-2a2 2 0 1 0 0-4 2 2 0 0 0 0 4zm0 13a4 4 0 1 1 0-8 4 4 0 0 1 0 8zm0-2a2 2 0 1 0 0-4 2 2 0 0 0 0 4zm0 13a4 4 0 1 1 0-8 4 4 0 0 1 0 8zm0-2a2 2 0 1 0 0-4 2 2 0 0 0 0 4zm18 13c6.075 0 11-4.925 11-11s-4.925-11-11-11-11 4.925-11 11 4.925 11 11 11zm0-3a8 8 0 1 1 0-16 8 8 0 0 1 0 16zm0-2a6 6 0 1 0 0-12 6 6 0 0 0 0 12z" class="color-500"/><path fill="#FFF" d="M47.004 34c.52 1.247.851 2.592.958 4h1.993a10.93 10.93 0 0 0-1.154-4h-1.797zm-4.01-5.253A13.07 13.07 0 0 1 45.956 32h1.53a11.027 11.027 0 0 0-4.492-3.253zM48.8 44a10.93 10.93 0 0 0 1.154-4h-1.993a12.926 12.926 0 0 1-.958 4H48.8zm-2.845 2a13.07 13.07 0 0 1-2.962 3.253A11.027 11.027 0 0 0 47.486 46h-1.53zM22 39c0-7.18 5.82-13 13-13h4c.897 0 2.158.327 3.004.5V8.458a4.736 4.736 0 0 1 .78-2.433L13.963 6C12.327 6 11 7.343 11 9v31h11.038c-.025-.33-.038-.664-.038-1zm6.069 11a13.019 13.019 0 0 1-5.721-8H6v5a3 3 0 0 0 3 3h19.069zM44 15h5V8.647C49 7.185 47.88 6 46.5 6S44 7.185 44 8.647V15zm-20-5h13a1 1 0 0 1 0 2H24a1 1 0 0 1 0-2zm0 11h13a1 1 0 0 1 0 2H24a1 1 0 0 1 0-2zm0-8h10a1 1 0 0 1 0 2H24a1 1 0 0 1 0-2zm0 11h4a1 1 0 0 1 0 2h-4a1 1 0 0 1 0-2zm-7-7a4 4 0 1 1 0-8 4 4 0 0 1 0 8zm0-2a2 2 0 1 0 0-4 2 2 0 0 0 0 4zm0 13a4 4 0 1 1 0-8 4 4 0 0 1 0 8zm0-2a2 2 0 1 0 0-4 2 2 0 0 0 0 4zm0 13a4 4 0 1 1 0-8 4 4 0 0 1 0 8zm0-2a2 2 0 1 0 0-4 2 2 0 0 0 0 4zm18 13c6.075 0 11-4.925 11-11s-4.925-11-11-11-11 4.925-11 11 4.925 11 11 11zm0-3a8 8 0 1 1 0-16 8 8 0 0 1 0 16zm0-2a6 6 0 1 0 0-12 6 6 0 0 0 0 12z" class="french-vanilla-100"/></g></svg>