<svg xmlns="http://www.w3.org/2000/svg" width="56" height="56" fill="none" class="wd-accent-scroll-shield wd-accent" focusable="false" role="presentation" viewBox="0 0 56 56"><g class="wd-icon-container"><g fill="#005CB9" class="color-500"><path d="M24 14a1 1 0 0 1 1 1c0 .57.111 1.714.513 2.938.402 1.226 1.067 2.445 2.112 3.281a1 1 0 1 1-1.25 1.562c-1.455-1.164-2.29-2.779-2.763-4.22C23.14 17.12 23 15.764 23 15a1 1 0 0 1 1-1z"/><path fill-rule="evenodd" d="M27.205 9.045a1 1 0 0 1 .59 0l6.795 2.099a2 2 0 0 1 1.41 1.91v2.451a13 13 0 0 1-3.78 9.164l-3.301 3.322a2 2 0 0 1-2.838 0L22.78 24.67A13 13 0 0 1 19 15.505v-2.45a2 2 0 0 1 1.41-1.911l6.795-2.1zm.295 2.002L21 13.055v2.45a11 11 0 0 0 3.198 7.755L27.5 26.58l3.302-3.321A11 11 0 0 0 34 15.505v-2.45l-6.5-2.008z" clip-rule="evenodd"/><path d="M23 35a1 1 0 1 0 0 2h9a1 1 0 1 0 0-2h-9zM19 32a1 1 0 0 1 1-1h15a1 1 0 1 1 0 2H20a1 1 0 0 1-1-1z"/><path fill-rule="evenodd" d="M43 4v.024l-4.076-.004c-5.34-.004-13.326-.01-23.959-.02C12.216 4 10 6.244 10 9v31H7a2 2 0 0 0-2 2v5a5 5 0 0 0 5 5h30v-.003c.049.003.099.003.149.003C42.856 52 45 49.556 45 47V17h5a2 2 0 0 0 2-2V8.648c0-2.371-1.73-4.362-4-4.62V4h-5zm-7 43.5a4.22 4.22 0 0 0 .838 2.5H10a3 3 0 0 1-3-3v-5h29v5.5zm7-38.853V47c0 1.38-1.202 3-2.851 3-1.099 0-1.816-1-2.149-3v-5a2 2 0 0 0-2-2H12V9c0-1.657 1.327-3 2.963-3l28.821.025A4.74 4.74 0 0 0 43 8.647zm7 0V15h-5V8.647C45 7.185 46.12 6 47.5 6S50 7.185 50 8.647z" clip-rule="evenodd"/></g><g fill="#fff" class="french-vanilla-100"><path d="M36.838 50A4.22 4.22 0 0 1 36 47.5V42H7v5a3 3 0 0 0 3 3h26.838z"/><path fill-rule="evenodd" d="M21 13.055l6.5-2.008 6.5 2.008v2.45a11 11 0 0 1-3.198 7.755L27.5 26.58l-3.302-3.321A11 11 0 0 1 21 15.505v-2.45zM25 15a1 1 0 1 0-2 0c0 .763.139 2.12.612 3.562.473 1.44 1.308 3.055 2.763 4.219a1 1 0 1 0 1.25-1.562c-1.045-.836-1.71-2.055-2.112-3.28C25.11 16.713 25 15.57 25 15z" clip-rule="evenodd"/><path fill-rule="evenodd" d="M43 47V8.647c0-.968.288-1.873.784-2.622L14.963 6C13.327 6 12 7.343 12 9v31h24a2 2 0 0 1 2 2v5c.333 2 1.05 3 2.149 3C41.798 50 43 48.38 43 47zM27.795 9.045a1 1 0 0 0-.59 0l-6.795 2.099a2 2 0 0 0-1.41 1.91v2.451a13 13 0 0 0 3.78 9.164l3.301 3.322a2 2 0 0 0 2.838 0l3.301-3.322A13 13 0 0 0 36 15.505v-2.45a2 2 0 0 0-1.41-1.911l-6.795-2.1zM23 35a1 1 0 1 0 0 2h9a1 1 0 1 0 0-2h-9zm-3-4a1 1 0 1 0 0 2h15a1 1 0 1 0 0-2H20z" clip-rule="evenodd"/><path d="M50 15V8.647C50 7.185 48.88 6 47.5 6S45 7.185 45 8.647V15h5z"/></g></g></svg>