<svg xmlns="http://www.w3.org/2000/svg" width="56" height="56" class="wd-accent-scroll wd-accent" focusable="false" role="presentation" viewBox="0 0 56 56"><g fill="none" fill-rule="evenodd" class="wd-icon-container"><path fill="#005DBA" d="M35.777 34.048a9.22 9.22 0 0 1 7.06-3.563l-6.45-5.04c-2.944-1.641-6.76-.766-8.975 2.068-2.246 2.876-2.008 6.875.42 9.327a6.82 6.82 0 0 0 .722.642l5.473 4.277a9.222 9.222 0 0 1 1.75-7.711zM9.273 22.418l5.19 4.055c-.485-2.515.144-5.25 1.946-7.557 1.847-2.362 4.28-3.672 6.775-3.785l-5.102-3.986c-3.017-2.358-7.435-1.745-9.868 1.369-2.432 3.113-1.958 7.548 1.06 9.905zm14.71 10.997a9.224 9.224 0 0 1 1.854-7.134c1.748-2.238 4.284-3.504 6.86-3.652L27.5 18.573c-3.078-2.404-6.892-1.783-9.516 1.575-2.259 2.89-2.21 6.523-.07 9.023l1.902 1.486c-.857-2.806-.354-6.011 1.623-8.542a9.546 9.546 0 0 1 2.537-2.27 1 1 0 0 1 1.045 1.705 7.564 7.564 0 0 0-2.006 1.797c-2.475 3.167-2.023 7.642.966 10.068zm2.862 5.27a2 2 0 0 1-.524.492l-10 6.5a2 2 0 0 1-3.05-1.285l-.727-3.631-4.621-.721c-1.843-.288-2.324-2.72-.729-3.687l9.383-5.69-.002-.001-8.533-6.667c-3.899-3.046-4.508-8.74-1.404-12.713 3.104-3.973 8.776-4.76 12.675-1.713l29.14 22.765c3.898 3.047 4.507 8.74 1.403 12.714-3.104 3.973-8.776 4.76-12.675 1.713l-10.336-8.076zm-5.847-4.511L18.231 32l-10 6.064 6 .936 1 5 10-6.5-2.55-2.004-3.935 2.361a1 1 0 1 1-1.03-1.714l3.282-1.97zm17.311.098c-.343.3-.663.638-.955 1.01-2.432 3.114-1.958 7.55 1.06 9.907.457.357.948.647 1.46.87-2.644-2.363-3.33-5.73-1.31-8.318.564-.722 1.384-1.227 2.281-1.49l-2.536-1.98zm1.778-1.15l4.815 3.762a1 1 0 0 1-1.232 1.576c-.925-.722-2.765-.467-3.53.512-1.384 1.772-.79 4.165 1.444 5.912 1.485 1.16 3.473 1.273 5.103.448a7.343 7.343 0 0 0 1.594-1.512c2.433-3.113 1.96-7.548-1.059-9.905-2.082-1.627-4.83-1.84-7.135-.792z" class="color-500"/><path fill="#FFF" d="M38.31 34.272l2.535 1.98c-.897.262-1.717.767-2.28 1.489-2.022 2.588-1.335 5.955 1.308 8.318a6.795 6.795 0 0 1-1.46-.87c-3.017-2.357-3.49-6.793-1.059-9.906.292-.373.612-.711.955-1.011zm8.912-.357c3.018 2.357 3.492 6.792 1.06 9.905a7.343 7.343 0 0 1-1.595 1.512c-1.63.825-3.618.712-5.103-.448-2.235-1.747-2.828-4.14-1.444-5.912.765-.98 2.605-1.234 3.53-.512a1 1 0 1 0 1.232-1.576l-4.815-3.761c2.304-1.048 5.053-.835 7.135.792zM18.232 32l2.766 2.174-3.281 1.969a1 1 0 1 0 1.029 1.714l3.935-2.36 2.55 2.003-10 6.5-1-5-6-.936 10-6.064zm18.154-6.555l6.45 5.04a9.22 9.22 0 0 0-7.059 3.563 9.222 9.222 0 0 0-1.75 7.71l-5.474-4.275-.082-.064a6.82 6.82 0 0 1-.64-.58c-2.427-2.451-2.665-6.45-.419-9.326 2.215-2.834 6.031-3.71 8.974-2.068zm-8.885-6.872l5.195 4.056c-2.575.148-5.11 1.414-6.859 3.652a9.224 9.224 0 0 0-1.855 7.134c-2.989-2.426-3.44-6.901-.966-10.068a7.564 7.564 0 0 1 2.006-1.797 1 1 0 1 0-1.045-1.705 9.546 9.546 0 0 0-2.537 2.27c-1.977 2.53-2.48 5.736-1.623 8.542l-1.902-1.486c-2.14-2.5-2.189-6.132.07-9.023 2.624-3.358 6.438-3.98 9.516-1.575zm-9.419-7.428l5.102 3.986c-2.495.113-4.928 1.423-6.775 3.785-1.802 2.308-2.43 5.042-1.947 7.557l-5.189-4.054c-3.017-2.357-3.49-6.792-1.059-9.905 2.433-3.114 6.851-3.727 9.868-1.37z" class="french-vanilla-100"/></g></svg>