<svg xmlns="http://www.w3.org/2000/svg" width="56" height="56" class="wd-accent-shield-checkmark wd-accent" focusable="false" role="presentation" viewBox="0 0 56 56"><g fill="none" fill-rule="evenodd" class="wd-icon-container"><path fill="#005DBA" fill-rule="nonzero" d="M28.537 5.072l17.904 5.654a.814.814 0 0 1 .537.764v.02c-.007.484-.14 9.565-1.99 19.39-1.9 10.097-12.662 15.503-17 20-3.988-4.497-15.099-9.569-17-20C9.166 20.89 9.01 12.203 9.002 11.515L9 11.473a.807.807 0 0 1 .537-.747L27.44 5.072a2.114 2.114 0 0 1 1.096 0zm-.549 1.924l-16.967 5.359.021.61c.047 1.236.123 2.633.234 4.163.32 4.374.863 8.925 1.68 13.413.826 4.531 3.54 8.178 8.386 12.214.668.556 1.36 1.11 2.25 1.804.114.089 1.728 1.341 2.179 1.696a46.566 46.566 0 0 1 2.283 1.894c.59-.506 1.28-1.08 1.983-1.66l.384-.316.192-.157.383-.313a306.296 306.296 0 0 1 3.432-2.758l.01-.008c4.953-4.171 7.736-7.894 8.585-12.408.816-4.336 1.359-8.848 1.678-13.265a120.584 120.584 0 0 0 .257-4.909l-16.97-5.359zm-.514 3.087a1.78 1.78 0 0 1 1.03 0l12.97 4.632a.755.755 0 0 1 .467.731l-.039.437-.019.21c-.173 1.865-.75 7.529-1.894 13.806-1.4 7.687-8.804 11.577-12 15-2.94-3.423-10.6-7.058-12-15-1.4-7.941-1.951-14.457-1.951-14.457a.742.742 0 0 1 .466-.727zm.515 1.835l-11.97 4.276c.006.065.012.132.02.201a183.943 183.943 0 0 0 1.823 13.174c.6 3.41 2.474 6.083 5.845 9.043.457.401.932.802 1.543 1.304.09.075 1.2.983 1.512 1.242.49.407.91.766 1.278 1.099.265-.236.548-.483.836-.734l.348-.301.348-.3a223.86 223.86 0 0 1 2.534-2.148c3.462-3.07 5.39-5.807 6.012-9.216.605-3.32 1.097-6.712 1.483-9.99a156.596 156.596 0 0 0 .363-3.373l-11.975-4.277zm7.207 7.487a1 1 0 0 1 1.608 1.19l-10 13.5a1 1 0 0 1-1.585.03l-4-5a1 1 0 1 1 1.562-1.25l3.189 3.986z" class="color-500"/><path fill="#FFF" d="M27.935 6.98l17.023 5.375a120.584 120.584 0 0 1-.257 4.909c-.32 4.417-.862 8.93-1.678 13.265-.85 4.514-3.632 8.237-8.584 12.408.101-.085-3.97 3.143-6.385 5.212a46.566 46.566 0 0 0-2.283-1.894c-.451-.355-2.065-1.607-2.18-1.696a88.926 88.926 0 0 1-2.25-1.804c-4.846-4.036-7.559-7.683-8.385-12.214-.817-4.488-1.36-9.039-1.68-13.413a119.04 119.04 0 0 1-.255-4.773l17.022-5.376c-.031.01-.043.017-.108 0zm-13.897 8.462s.55 6.516 1.95 14.457c1.401 7.942 9.062 11.577 12 15 3.197-3.423 10.6-7.313 12-15 1.401-7.687 1.953-14.453 1.953-14.453a.755.755 0 0 0-.467-.73l-12.97-4.633a1.78 1.78 0 0 0-1.03 0l-12.97 4.632a.742.742 0 0 0-.466.727zm13.95-3.524l11.976 4.277-.024.244c-.09.93-.203 1.981-.339 3.128-.386 3.279-.878 6.671-1.483 9.991-.621 3.409-2.55 6.146-6.012 9.216.036-.03-1.315 1.097-2.708 2.297l-.349.302c-.347.301-.69.601-1.01.884a40.906 40.906 0 0 0-1.277-1.099c-.313-.26-1.422-1.167-1.512-1.242a62.262 62.262 0 0 1-1.543-1.304c-3.371-2.96-5.244-5.633-5.846-9.043a183.943 183.943 0 0 1-1.843-13.375l11.97-4.276zm7.208 7.487L25.97 31.86l-3.19-3.986a1 1 0 1 0-1.56 1.25l4 5a1 1 0 0 0 1.584-.03l10-13.5a1 1 0 0 0-1.608-1.19z" class="french-vanilla-100"/></g></svg>