<svg xmlns="http://www.w3.org/2000/svg" width="56" height="56" class="wd-accent-shield-benefits wd-accent" focusable="false" role="presentation" viewBox="0 0 56 56"><g fill="none" fill-rule="evenodd" class="wd-icon-container"><path fill="#005DBA" fill-rule="nonzero" d="M28.548 5.072l17.915 5.667a.815.815 0 0 1 .537.766v.045c-.01.713-.165 9.697-1.99 19.406C43.108 41.076 32.34 46.494 28 51c-3.99-4.506-15.108-9.59-17.01-20.044C9.165 20.926 9.01 12.22 9 11.531v-.044a.81.81 0 0 1 .537-.748l17.915-5.667a2.112 2.112 0 0 1 1.096 0zM28 7l-16.977 5.37.021.613c.047 1.238.123 2.638.235 4.172.32 4.383.863 8.944 1.68 13.442.827 4.541 3.542 8.196 8.391 12.24a89.004 89.004 0 0 0 2.251 1.808c.115.09 1.73 1.345 2.18 1.7a46.61 46.61 0 0 1 2.286 1.898c.536-.46 1.155-.978 1.792-1.505l.383-.316a312.503 312.503 0 0 1 4.202-3.393l.01-.008c4.956-4.181 7.74-7.912 8.59-12.436.817-4.345 1.36-8.867 1.68-13.294a121.041 121.041 0 0 0 .256-4.92L27.999 7zM34 28a5.001 5.001 0 0 1 4.584 3H39a1 1 0 0 1 0 2 5 5 0 0 1-9.997.166 3.111 3.111 0 0 0-2.006 0A5 5 0 0 1 17 33a1 1 0 0 1 0-2h.416a5.001 5.001 0 0 1 9.243.18 5.07 5.07 0 0 1 2.682 0A5.002 5.002 0 0 1 34 28zm-12 2a3 3 0 1 0 0 6 3 3 0 0 0 0-6zm12 0a3 3 0 1 0 0 6 3 3 0 0 0 0-6zm5.367-13.61c1.035 1.481.743 3.04-.225 4.232l-.08.096c.01.05.023.108.04.172.318 1.117.077 2.375-.629 3.207-.982 1.16-2.464 1.164-3.473.279-1.01.885-2.49.88-3.473-.279-.706-.832-.947-2.09-.63-3.207.018-.064.032-.121.041-.172l-.08-.096c-.968-1.192-1.26-2.751-.225-4.232.953-1.363 2.455-1.684 3.856-1.14.176.067.346.147.511.235.165-.088.335-.168.51-.236 1.402-.543 2.904-.222 3.857 1.141zM21.49 15.314c1.388-.574 3.027-.29 4.225.761a3.73 3.73 0 0 1 .063 5.586l-2.909 2.784a2 2 0 0 1-2.766 0l-2.871-2.75c-1.65-1.502-1.607-3.923-.1-5.5 1.156-1.208 2.904-1.497 4.358-.88zm-2.912 2.264c-.738.771-.805 1.905 0 2.638L21.487 23l2.91-2.784c.804-.733.804-1.93 0-2.638-.806-.707-1.989-.77-2.756 0l-.154.147-.153-.147c-.767-.77-2.018-.77-2.755 0zM35 17.981c-.5-.508-1.881-1.656-2.727-.445-.847 1.211.548 2.229.548 2.229s.298.622 0 1.67c-.297 1.05.549 2.23 1.098 1.115.548-1.114.532-1.523 1.081-1.523.549 0 .533.409 1.081 1.523.55 1.114 1.395-.065 1.098-1.114-.298-1.05 0-1.671 0-1.671s1.395-1.018.548-2.229c-.846-1.21-2.227-.063-2.727.445z" class="color-500"/><path fill="#FFF" d="M28 7l16.979 5.371-.022.676a121.041 121.041 0 0 1-.235 4.244c-.32 4.427-.862 8.949-1.679 13.294-.85 4.524-3.634 8.255-8.59 12.436l-.01.008-.057.044-.1.08c-.566.448-2.446 1.95-4.237 3.427l-.382.316c-.569.472-1.118.933-1.601 1.347a46.61 46.61 0 0 0-2.286-1.897c-.45-.356-2.065-1.611-2.18-1.7a89.004 89.004 0 0 1-2.25-1.808c-4.85-4.045-7.565-7.7-8.391-12.241-.818-4.498-1.361-9.059-1.681-13.442a119.491 119.491 0 0 1-.256-4.784L28 7zm6 21a5.002 5.002 0 0 0-4.659 3.18 5.07 5.07 0 0 0-2.682 0 5.002 5.002 0 0 0-9.243-.18H17a1 1 0 0 0 0 2 5 5 0 0 0 9.997.166 3.111 3.111 0 0 1 2.006 0A5 5 0 0 0 39 33a1 1 0 0 0 0-2h-.416A5.001 5.001 0 0 0 34 28zm-12 2a3 3 0 1 1 0 6 3 3 0 0 1 0-6zm12 0a3 3 0 1 1 0 6 3 3 0 0 1 0-6zm5.367-13.61c-.953-1.363-2.455-1.684-3.856-1.14a4.583 4.583 0 0 0-.511.235 4.583 4.583 0 0 0-.51-.236c-1.402-.543-2.904-.222-3.857 1.141-1.035 1.481-.743 3.04.225 4.232l.08.096c-.01.05-.023.108-.04.172-.318 1.117-.077 2.375.629 3.207.982 1.16 2.464 1.164 3.473.279 1.01.885 2.49.88 3.473-.279.706-.832.947-2.09.63-3.207a1.893 1.893 0 0 1-.041-.172l.08-.096c.968-1.192 1.26-2.751.225-4.232zM21.49 15.314c-1.454-.616-3.202-.327-4.358.882-1.507 1.576-1.55 3.997.1 5.499l2.871 2.75a2 2 0 0 0 2.766 0l2.91-2.784a3.73 3.73 0 0 0-.064-5.586c-1.198-1.052-2.837-1.335-4.225-.76zm-2.912 2.264c.737-.77 1.988-.77 2.755 0l.153.147.154-.147c.767-.77 1.95-.707 2.755 0 .805.707.805 1.905 0 2.638L21.487 23l-2.908-2.784c-.805-.733-.738-1.867 0-2.638zM35 17.981c.5-.508 1.881-1.656 2.727-.445.847 1.211-.548 2.229-.548 2.229s-.298.622 0 1.67c.297 1.05-.549 2.23-1.098 1.115-.548-1.114-.532-1.523-1.081-1.523-.549 0-.533.409-1.081 1.523-.55 1.114-1.395-.065-1.098-1.114.298-1.05 0-1.671 0-1.671s-1.395-1.018-.548-2.229c.846-1.21 2.227-.063 2.727.445z" class="french-vanilla-100"/></g></svg>