<svg xmlns="http://www.w3.org/2000/svg" width="56" height="56" class="wd-accent-shopping-cart wd-accent" focusable="false" role="presentation" viewBox="0 0 56 56"><g fill="none" fill-rule="evenodd" class="wd-icon-container"><path fill="#005DBA" fill-rule="nonzero" d="M15 43a3 3 0 1 1 0 6 3 3 0 0 1 0-6zm27 0a3 3 0 1 1 0 6 3 3 0 0 1 0-6zm-27 2a1 1 0 1 0 0 2 1 1 0 0 0 0-2zm27 0a1 1 0 1 0 0 2 1 1 0 0 0 0-2zM9 8a1 1 0 0 1 .96.72l1.29 4.424c.23-.092.483-.144.75-.144h35.5a2 2 0 0 1 1.961 2.392l-3 15a2 2 0 0 1-1.744 1.596l-27.5 3a1.994 1.994 0 0 1-.859-.094L14.443 40H44.5a1 1 0 0 1 0 2H13a1 1 0 0 1-.936-1.351l2.863-7.637-.701-2.521L8.25 10H6a1 1 0 1 1 0-2zm12.208 19.601l-5.607.362.585 2.108.774 2.649a1 1 0 0 1 .04.274l5.064-.546-.856-4.847zm8.499-.548l-6.491.419.84 4.758 5.917-.645-.266-4.532zM38 26.518l-6.297.406.261 4.443L38 30.709v-4.191zm7.29-.471l-5.29.342v4.102L44.5 30l.79-3.953zM20.008 20.8l-6.347.181 1.393 5.013 5.805-.375-.851-4.819zm9.316-.266l-7.296.208.838 4.748 6.724-.434-.266-4.522zM38 20.285l-6.677.191.262 4.451L38 24.513v-4.228zm8.491-.242L40 20.228v4.156l5.696-.367.795-3.974zM18.984 15H12l1.11 3.995 6.546-.187L18.984 15zm10.014 0h-7.983l.661 3.75 7.53-.215L28.998 15zM38 15h-6.999l.205 3.478L38 18.284V15zm9.5 0H40v3.227l6.894-.197L47.5 15z" class="color-500"/></g></svg>