<svg xmlns="http://www.w3.org/2000/svg" width="56" height="56" class="wd-accent-sigma wd-accent" focusable="false" role="presentation" viewBox="0 0 56 56"><g fill="none" fill-rule="evenodd" class="wd-icon-container"><path fill="#005DBA" fill-rule="nonzero" d="M8 6l13 22L8 50h38V40h-4v6H14.818L26 28 14.818 10H42v6h4V6H8zm10.415 6L27.7 26.945a2 2 0 0 1 0 2.11L18.415 44H40v-4a2 2 0 0 1 2-2h4a2 2 0 0 1 2 2v10a2 2 0 0 1-2 2H8c-1.549 0-2.51-1.684-1.722-3.017L18.677 28 6.278 7.017C5.49 5.684 6.451 4 8 4h38a2 2 0 0 1 2 2v10a2 2 0 0 1-2 2h-4a2 2 0 0 1-2-2v-4H18.415z" class="color-500"/><path fill="#FFF" d="M8 6h38v10h-4v-6H14.818L26 28 14.818 46H42v-6h4v10H8l13-22z" class="french-vanilla-100"/></g></svg>