<svg xmlns="http://www.w3.org/2000/svg" width="56" height="56" fill="none" class="wd-accent-skills wd-accent" focusable="false" role="presentation" viewBox="0 0 56 56"><g class="wd-icon-container"><g fill="#fff" class="french-vanilla-100"><path d="M23 24a5 5 0 0 1 10 0v3a4.992 4.992 0 0 1-2 4h2a5 5 0 0 1 4.426 2.673A10.948 10.948 0 0 0 39 28c0-6.075-4.925-11-11-11s-11 4.925-11 11c0 2.075.575 4.016 1.574 5.673A5 5 0 0 1 23 31h2a4.992 4.992 0 0 1-2-4v-3z"/><path d="M25 24a3 3 0 0 1 6 0v3a3 3 0 1 1-6 0v-3z"/><path fill-rule="evenodd" d="M24 6.371C13.744 8.275 6 17.205 6 28c0 12.148 9.852 22 22 22 10.795 0 19.725-7.744 21.629-18h-3.1C44.717 40.561 37.103 47 28 47 17.548 47 9 38.452 9 28c0-9.103 6.44-16.717 15-18.53V6.372zm8 .015V9.46c2.265.454 4.43 1.36 6.287 2.555l2.167-2.107C37.981 8.203 35.098 6.994 32 6.386zm14.084 9.145l-2.176 2.175A17.35 17.35 0 0 1 46.54 24h3.098c-.556-3.09-1.821-5.98-3.554-8.47z" clip-rule="evenodd"/></g><g fill="#0875E1" fill-rule="evenodd" class="color-500" clip-rule="evenodd"><path d="M24.278 4.295A1.492 1.492 0 0 1 26 5.77v4.105a1.51 1.51 0 0 1-1.233 1.48C16.937 12.84 11 19.737 11 28c0 9.348 7.652 17 17 17 8.264 0 15.16-5.937 16.643-13.767A1.51 1.51 0 0 1 46.124 30h4.105c.903 0 1.622.803 1.477 1.722C49.89 43.221 40.006 52 28 52 14.748 52 4 41.252 4 28 4 15.994 12.78 6.11 24.278 4.295zM24 6.37C13.744 8.275 6 17.205 6 28.001c0 12.147 9.852 22 22 22 10.795 0 19.725-7.745 21.629-18h-3.1C44.717 40.56 37.103 47 28 47 17.548 47 9 38.451 9 28c0-9.104 6.44-16.718 15-18.53v-3.1z"/><path d="M30 5.779c0-.909.812-1.632 1.74-1.474 3.829.651 7.396 2.147 10.391 4.342a1.49 1.49 0 0 1 .153 2.271l-2.887 2.808a1.51 1.51 0 0 1-1.9.164 16.36 16.36 0 0 0-6.244-2.536A1.511 1.511 0 0 1 30 9.869v-4.09zm2 .607V9.46c2.265.454 4.43 1.36 6.287 2.555l2.167-2.107C37.981 8.203 35.098 6.995 32 6.386zM47.347 13.86a1.49 1.49 0 0 0-2.255-.166l-2.89 2.89a1.512 1.512 0 0 0-.155 1.95 15.32 15.32 0 0 1 2.6 6.214A1.511 1.511 0 0 0 46.13 26h4.104a1.49 1.49 0 0 0 1.478-1.707c-.578-3.865-2.165-7.444-4.366-10.433zm-3.439 3.846l2.176-2.175c1.733 2.49 2.998 5.38 3.554 8.47H46.54a17.35 17.35 0 0 0-2.632-6.295zM28 15c-7.18 0-13 5.82-13 13s5.82 13 13 13 13-5.82 13-13-5.82-13-13-13zm0 4a5 5 0 0 0-5 5v3c0 1.636.785 3.088 2 4h-2a5 5 0 0 0-4.426 2.673A10.948 10.948 0 0 1 17 28c0-6.075 4.925-11 11-11s11 4.925 11 11c0 2.075-.575 4.016-1.574 5.673A5 5 0 0 0 33 31h-2a4.992 4.992 0 0 0 2-4v-3a5 5 0 0 0-5-5zm0 2a3 3 0 0 0-3 3v3a3 3 0 1 0 6 0v-3a3 3 0 0 0-3-3z"/></g></g></svg>