<svg xmlns="http://www.w3.org/2000/svg" width="56" height="56" class="wd-accent-skyscraper wd-accent" focusable="false" role="presentation" viewBox="0 0 56 56"><g fill="none" fill-rule="nonzero" class="wd-icon-container"><path fill="#005DBA" d="M20 4a1 1 0 0 1 1 1v2h5a2 2 0 0 1 2 2v4h2a2 2 0 0 1 2 2v5h11a2 2 0 0 1 2 2v28h6a1 1 0 0 1 0 2H5a1 1 0 0 1 0-2h3V15a2 2 0 0 1 2-2h2V9a2 2 0 0 1 2-2h5V5a1 1 0 0 1 1-1zm10 11H10v35h7v-6a2 2 0 0 1 2-2h3a2 2 0 0 1 2 2v6h6V15zm-8 29h-3v6h3v-6zm10 6h11V22H32v3h10v2H32v3h10v2H32v3h10v2H32v3h10v2H32v3h10v2H32v3zm-3-12v2H11v-2h18zm0-5v2H11v-2h18zm0-5v2H11v-2h18zm0-5v2H11v-2h18zm0-5v2H11v-2h18zm-3-9H14v4h12V9z" class="color-500"/><path fill="#FFF" d="M32 47h10v-2H32v-3h10v-2H32v-3h10v-2H32v-3h10v-2H32v-3h10v-2H32v-3h11v28H32v-3zm-8 3v-6a2 2 0 0 0-2-2h-3a2 2 0 0 0-2 2v6h-7V15h20v35h-6zM14 9h12v4H14V9zm5 35h3v6h-3v-6zm-8-26v2h18v-2H11zm0 5v2h18v-2H11zm0 5v2h18v-2H11zm0 5v2h18v-2H11zm0 5v2h18v-2H11z" class="french-vanilla-100"/></g></svg>