<svg xmlns="http://www.w3.org/2000/svg" width="56" height="56" class="wd-accent-smart-speaker wd-accent" focusable="false" role="presentation" viewBox="0 0 56 56"><g fill="none" fill-rule="nonzero" class="wd-icon-container"><path fill="#005DBA" d="M35.17 23H20.83l-.738 9h15.816l-.738-9zM19.928 34l-.881 10.755A3 3 0 0 0 22.037 48h11.926a3 3 0 0 0 2.99-3.245L36.072 34H19.928zm.901-13H35.17a2 2 0 0 1 1.994 1.837l1.783 21.755A5 5 0 0 1 33.963 50H22.037a5 5 0 0 1-4.984-5.408l1.783-21.755A2 2 0 0 1 20.83 21zM22 38a1 1 0 1 1 0-2 1 1 0 0 1 0 2zm2 4a1 1 0 1 1 0-2 1 1 0 0 1 0 2zm-2 4a1 1 0 1 1 0-2 1 1 0 0 1 0 2zm4-8a1 1 0 1 1 0-2 1 1 0 0 1 0 2zm2 4a1 1 0 1 1 0-2 1 1 0 0 1 0 2zm-2 4a1 1 0 1 1 0-2 1 1 0 0 1 0 2zm4-8a1 1 0 1 1 0-2 1 1 0 0 1 0 2zm2 4a1 1 0 1 1 0-2 1 1 0 0 1 0 2zm-2 4a1 1 0 1 1 0-2 1 1 0 0 1 0 2zm4-8a1 1 0 1 1 0-2 1 1 0 0 1 0 2zm0 8a1 1 0 1 1 0-2 1 1 0 0 1 0 2zm-.448-28.892l-1.414 1.414c-2.35-2.35-6.053-2.432-8.27-.215l-1.414-1.415c3.012-3.012 7.981-2.902 11.098.216zm2.767-2.939l-1.414 1.414c-3.912-3.912-10.093-4.05-13.804-.338l-1.414-1.414c4.507-4.507 11.953-4.341 16.632.338zm2.767-2.938l-1.414 1.414c-5.474-5.474-14.132-5.667-19.338-.461l-1.414-1.415c6-6 15.925-5.78 22.166.462z" class="color-500"/><path fill="#FFF" d="M35.17 23H20.83l-.738 9h15.816l-.738-9zM19.928 34l-.881 10.755A3 3 0 0 0 22.037 48h11.926a3 3 0 0 0 2.99-3.245L36.072 34H19.928zM22 38a1 1 0 1 1 0-2 1 1 0 0 1 0 2zm2 4a1 1 0 1 1 0-2 1 1 0 0 1 0 2zm-2 4a1 1 0 1 1 0-2 1 1 0 0 1 0 2zm4-8a1 1 0 1 1 0-2 1 1 0 0 1 0 2zm2 4a1 1 0 1 1 0-2 1 1 0 0 1 0 2zm-2 4a1 1 0 1 1 0-2 1 1 0 0 1 0 2zm4-8a1 1 0 1 1 0-2 1 1 0 0 1 0 2zm2 4a1 1 0 1 1 0-2 1 1 0 0 1 0 2zm-2 4a1 1 0 1 1 0-2 1 1 0 0 1 0 2zm4-8a1 1 0 1 1 0-2 1 1 0 0 1 0 2zm0 8a1 1 0 1 1 0-2 1 1 0 0 1 0 2z" class="french-vanilla-100"/></g></svg>