<svg xmlns="http://www.w3.org/2000/svg" width="56" height="56" class="wd-accent-speech-bubble-text wd-accent" focusable="false" role="presentation" viewBox="0 0 56 56"><g fill="none" fill-rule="nonzero" class="wd-icon-container"><path fill="#005DBA" d="M28 6c13.176 0 24 8.855 24 19.998 0 11.144-10.824 19.999-24 19.999-2.71 0-5.362-.374-7.87-1.098l-4.93 3.697c-1.318.99-3.2.048-3.2-1.6v-6.08c-5.025-3.741-8-9.108-8-14.918C4 14.855 14.824 6 28 6zm0 2C15.85 8 6 16.058 6 25.998c0 5.59 3.114 10.584 8 13.885v7.114l5.746-4.31A26.252 26.252 0 0 0 28 43.997c12.15 0 22-8.058 22-17.999C50 16.058 40.15 8 28 8zm10 22.998a1 1 0 1 1 0 2H16a1 1 0 1 1 0-2h22zm-3-6a1 1 0 1 1 0 2H16a1 1 0 1 1 0-2h19zm6-6a1 1 0 1 1 0 2H16a1 1 0 1 1 0-2h25z" class="color-500"/><path fill="#FFF" d="M28 8c12.15 0 22 8.058 22 17.998 0 9.94-9.85 17.999-22 17.999-2.919 0-5.705-.465-8.254-1.31L14 46.997v-7.114c-4.886-3.301-8-8.296-8-13.885C6 16.058 15.85 8 28 8zm10 22.998H16a1 1 0 1 0 0 2h22a1 1 0 1 0 0-2zm-3-6H16a1 1 0 1 0 0 2h19a1 1 0 1 0 0-2zm6-6H16a1 1 0 1 0 0 2h25a1 1 0 1 0 0-2z" class="french-vanilla-100"/></g></svg>