<svg xmlns="http://www.w3.org/2000/svg" width="56" height="56" class="wd-accent-speech-bubble-question wd-accent" focusable="false" role="presentation" viewBox="0 0 56 56"><g fill="none" fill-rule="evenodd" class="wd-icon-container"><path fill="#005DBA" fill-rule="nonzero" d="M28 6c13.176 0 24 8.856 24 20S41.176 46 28 46c-2.71 0-5.362-.374-7.87-1.097L15.2 48.6c-1.318.989-3.2.048-3.2-1.6v-6.082C6.975 37.178 4 31.81 4 26 4 14.856 14.824 6 28 6zm0 2C15.85 8 6 16.059 6 26c0 5.59 3.114 10.584 8 13.886V47l5.746-4.31A26.25 26.25 0 0 0 28 44c12.15 0 22-8.059 22-18S40.15 8 28 8zm0 23a1 1 0 1 1 0 2 1 1 0 0 1 0-2zm.5-13a4.5 4.5 0 0 1 4.5 4.5c0 1.537-.66 2.504-2.303 4.1l-.386.374C29.352 27.916 29 28.448 29 29a1 1 0 0 1-2 0c0-1.267.586-2.153 1.91-3.453l.393-.382C30.57 23.935 31 23.305 31 22.5a2.5 2.5 0 1 0-5 0 1 1 0 0 1-2 0 4.5 4.5 0 0 1 4.5-4.5z" class="color-500"/><path fill="#FFF" d="M28 8c12.15 0 22 8.059 22 18s-9.85 18-22 18a26.25 26.25 0 0 1-8.254-1.31L14 47v-7.114C9.114 36.584 6 31.59 6 26c0-9.941 9.85-18 22-18zm0 23a1 1 0 1 0 0 2 1 1 0 0 0 0-2zm.5-13a4.5 4.5 0 0 0-4.5 4.5 1 1 0 0 0 2 0 2.5 2.5 0 1 1 5 0c0 .805-.43 1.435-1.697 2.665l-.393.382C27.586 26.847 27 27.733 27 29a1 1 0 0 0 2 0c0-.552.352-1.084 1.311-2.026l.386-.374C32.34 25.004 33 24.037 33 22.5a4.5 4.5 0 0 0-4.5-4.5z" class="french-vanilla-100"/></g></svg>