<svg xmlns="http://www.w3.org/2000/svg" width="56" height="56" class="wd-accent-speech-bubble-student wd-accent" focusable="false" role="presentation" viewBox="0 0 56 56"><g fill="none" fill-rule="evenodd" class="wd-icon-container"><path fill="#005DBA" fill-rule="nonzero" d="M28 7c13.176 0 24 8.856 24 20S41.176 47 28 47c-2.71 0-5.362-.374-7.87-1.097L15.2 49.6c-1.318.989-3.2.048-3.2-1.6v-6.082C6.975 38.178 4 32.81 4 27 4 15.856 14.824 7 28 7zm0 2C15.85 9 6 17.059 6 27c0 5.59 3.114 10.584 8 13.886V48l5.746-4.31A26.25 26.25 0 0 0 28 45c12.15 0 22-8.059 22-18S40.15 9 28 9zm11.194 9a3 3 0 0 1 1.765.574l2.393 1.74A4 4 0 0 1 45 23.549v.462A2.99 2.99 0 0 1 42.01 27h-1.136c.082.32.126.655.126 1v2.429a3 3 0 0 1-2.55 2.966c-4.545.69-7.443 1.217-8.633 1.565l-.281.082-.281-.083c-1.211-.356-4.13-.884-8.699-1.567A3 3 0 0 1 18 30.425V28c0-.345.044-.68.126-1H17.1a3.1 3.1 0 0 1-3.084-2.783c-.01.079-.016.16-.016.244v3.829c.598.374 1 1.074 1 1.876 0 .536-.18 1.026-.477 1.404l.447 2.425c.12.656-.129 1.333-.587 1.596-.477.273-.932.409-1.367.409-.439 0-.904-.139-1.395-.417-.46-.26-.712-.94-.59-1.598l.444-2.417A2.267 2.267 0 0 1 11 30.166c0-.802.402-1.502 1-1.876v-3.83c0-1.75 1.194-3.236 2.788-3.437.27-.365.606-.687.995-.946l2.363-1.574A3 3 0 0 1 19.81 18zm-.462 9H20.268A1.99 1.99 0 0 0 20 28v2.425a1 1 0 0 0 .852.989c4.362.652 7.24 1.164 8.686 1.548 1.424-.376 4.278-.886 8.612-1.545a1 1 0 0 0 .85-.988V28a1.99 1.99 0 0 0-.268-1zm.462-7H19.81a1 1 0 0 0-.554.168l-1.25.832H29a1 1 0 0 1 0 2H16.042a2 2 0 0 0-.042.406v.494a1.1 1.1 0 0 0 1.1 1.1h24.91a.99.99 0 0 0 .99-.99v-.46a2 2 0 0 0-.824-1.618l-2.394-1.74a1 1 0 0 0-.588-.192z" class="color-500"/><path fill="#FFF" d="M28 9c12.15 0 22 8.059 22 18s-9.85 18-22 18a26.25 26.25 0 0 1-8.254-1.31L14 48v-7.114C9.114 37.584 6 32.59 6 27c0-9.941 9.85-18 22-18zm11.194 9H19.81a3 3 0 0 0-1.663.503l-2.363 1.574c-.39.26-.724.58-.995.946-1.594.2-2.788 1.686-2.788 3.438v3.829c-.598.374-1 1.074-1 1.876 0 .535.179 1.024.475 1.402l-.445 2.417c-.12.658.13 1.337.591 1.598.491.278.956.417 1.395.417.435 0 .89-.136 1.367-.41.458-.262.707-.94.587-1.595l-.447-2.425c.298-.378.477-.868.477-1.404 0-.802-.402-1.502-1-1.876v-3.83c0-.083.006-.164.016-.243A3.1 3.1 0 0 0 17.1 27h1.026c-.082.32-.126.655-.126 1v2.425a3 3 0 0 0 2.556 2.967c4.568.683 7.488 1.211 8.699 1.567l.281.083.281-.082c1.19-.348 4.088-.875 8.634-1.565A3 3 0 0 0 41 30.429V28c0-.345-.044-.68-.126-1h1.137A2.99 2.99 0 0 0 45 24.01v-.46a4 4 0 0 0-1.648-3.236l-2.393-1.74A3 3 0 0 0 39.194 18zm-.462 9c.17.294.268.636.268 1v2.429a1 1 0 0 1-.85.988c-4.334.659-7.188 1.17-8.612 1.545-1.445-.384-4.324-.896-8.686-1.548a1 1 0 0 1-.852-.99V28c0-.364.097-.706.268-1zm.462-7a1 1 0 0 1 .588.191l2.394 1.74A2 2 0 0 1 43 23.55v.462a.99.99 0 0 1-.99.989H17.1a1.1 1.1 0 0 1-1.1-1.1v-.494a2 2 0 0 1 .042-.406H29a1 1 0 0 0 0-2H18.005l1.25-.832a1 1 0 0 1 .554-.168z" class="french-vanilla-100"/></g></svg>