<svg xmlns="http://www.w3.org/2000/svg" width="56" height="56" class="wd-accent-speech-bubbles wd-accent" focusable="false" role="presentation" viewBox="0 0 56 56"><g fill="none" fill-rule="evenodd" class="wd-icon-container"><path fill="#005DBA" fill-rule="nonzero" d="M35 4c9.316 0 17 6.403 17 14.5 0 3.94-1.843 7.601-5 10.28V34c0 1.696-1.978 2.622-3.28 1.536l-3.786-3.155c-.671.173-1.355.31-2.05.412.077.559.116 1.129.116 1.707C38 42.597 30.316 49 21 49c-1.69 0-3.348-.21-4.934-.619l-3.786 3.155C10.978 52.622 9 51.696 9 50v-5.22c-3.157-2.679-5-6.34-5-10.28 0-7.244 6.15-13.131 14.115-14.292-.076-.56-.115-1.13-.115-1.708C18 10.403 25.684 4 35 4zM21 22c-8.284 0-15 5.596-15 12.5 0 3.702 1.931 7.028 5 9.317V50l4.601-3.834c1.675.539 3.496.834 5.399.834 8.284 0 15-5.596 15-12.5S29.284 22 21 22zM35 6c-8.284 0-15 5.596-15 12.5 0 .514.037 1.021.11 1.52.295-.013.591-.02.89-.02 7.855 0 14.55 4.552 16.456 10.833 1.02-.14 2.004-.365 2.943-.667L45 34v-6.183c3.069-2.289 5-5.615 5-9.317C50 11.596 43.284 6 35 6z" class="color-500"/><path fill="#FFF" d="M21 22c8.284 0 15 5.596 15 12.5S29.284 47 21 47c-1.903 0-3.724-.295-5.399-.834L11 50v-6.183c-3.069-2.289-5-5.615-5-9.317C6 27.596 12.716 22 21 22zM35 6c8.284 0 15 5.596 15 12.5 0 3.702-1.931 7.028-5 9.317V34l-4.601-3.834c-.939.302-1.924.527-2.943.667C35.55 24.552 28.856 20 21 20c-.299 0-.595.007-.89.02A10.552 10.552 0 0 1 20 18.5C20 11.596 26.716 6 35 6z" class="french-vanilla-100"/></g></svg>