<svg xmlns="http://www.w3.org/2000/svg" width="56" height="56" class="wd-accent-sports wd-accent" focusable="false" role="presentation" viewBox="0 0 56 56"><g fill="none" fill-rule="evenodd" class="wd-icon-container"><path fill="#005DBA" fill-rule="nonzero" d="M28 4c13.255 0 24 10.745 24 24S41.255 52 28 52 4 41.255 4 28 14.745 4 28 4zm0 2C15.85 6 6 15.85 6 28s9.85 22 22 22 22-9.85 22-22S40.15 6 28 6zm0-2c3.08 0 6.083.581 8.886 1.7 1.573.627 1.703 2.802.217 3.613L29 13.733v4.535c.069.04.135.084.2.132l8 6 .054.042 4.482-1.456 1.66-8.867c.318-1.693 2.485-2.22 3.544-.861A23.901 23.901 0 0 1 52 28c0 .484-.014.965-.043 1.445-.1 1.696-2.136 2.502-3.37 1.335l-6.233-5.892-4.378 1.422a2.003 2.003 0 0 1-.079.322l-3 9a2 2 0 0 1-.186.404l2.778 3.823 8.16-1.058c1.733-.225 2.9 1.725 1.884 3.147a24.038 24.038 0 0 1-12.707 9.067c-1.658.491-3.116-1.213-2.374-2.775l3.419-7.205L32.94 37h-9.88l-2.931 4.035 3.42 7.205c.741 1.562-.717 3.266-2.375 2.775a24.038 24.038 0 0 1-12.707-9.067c-1.017-1.422.15-3.372 1.884-3.147l8.16 1.058 2.778-3.823a2 2 0 0 1-.186-.404l-3-9a2.003 2.003 0 0 1-.079-.322l-4.378-1.422-6.233 5.892c-1.234 1.167-3.27.361-3.37-1.335C4.014 28.965 4 28.484 4 28c0-5.414 1.8-10.56 5.06-14.742 1.06-1.359 3.226-.832 3.543.861l1.661 8.867 4.482 1.456.054-.042 8-6c.065-.048.131-.092.2-.132v-4.535l-8.103-4.42c-1.486-.81-1.356-2.986.217-3.614A23.94 23.94 0 0 1 28 4zm17.906 36.784l-8.208 1.065-3.44 7.248a22.04 22.04 0 0 0 11.648-8.313zm-35.812 0a22.04 22.04 0 0 0 11.648 8.313l-3.44-7.248-8.208-1.065zM28 20l-8 6 3 9h10l3-9-8-6zm17.362-5.513l-1.67 8.914 6.269 5.926c.026-.44.039-.882.039-1.327 0-5.094-1.731-9.784-4.638-13.513zm-34.724 0A21.905 21.905 0 0 0 6 28c0 .445.013.888.04 1.327l6.268-5.926-1.67-8.914zM28 6a21.94 21.94 0 0 0-8.145 1.557L28 12l8.145-4.443A21.94 21.94 0 0 0 28 6z" class="color-500"/><path fill="#FFF" d="M32.94 37l2.931 4.035-3.42 7.205a1.966 1.966 0 0 0-.139 1.337A22.088 22.088 0 0 1 28 50c-1.476 0-2.918-.145-4.313-.423.107-.42.077-.884-.139-1.337l-3.419-7.205L23.06 37h9.88zm12.966 3.784a22.04 22.04 0 0 1-11.648 8.313l3.44-7.248zm-35.812 0l8.208 1.065 3.44 7.248a22.04 22.04 0 0 1-11.648-8.313zm32.26-15.896l6.233 5.892a1.97 1.97 0 0 0 1.165.54 21.868 21.868 0 0 1-2.755 7.783 1.96 1.96 0 0 0-1.348-.302l-8.16 1.058-2.778-3.823a2 2 0 0 0 .186-.404l3-9c.036-.106.062-.214.079-.322l4.378-1.422zm-28.708 0l4.378 1.422c.017.108.043.216.079.322l3 9a2 2 0 0 0 .186.404l-2.778 3.823-8.16-1.058a1.964 1.964 0 0 0-1.348.301A21.842 21.842 0 0 1 6.25 31.32c.41-.04.819-.212 1.164-.539l6.233-5.892zM28 20l8 6-3 9H23l-3-9 8-6zm17.362-5.513A21.905 21.905 0 0 1 50 28c0 .445-.013.888-.04 1.327L43.693 23.4zm-34.724 0l1.67 8.914-6.269 5.926C6.013 28.887 6 28.445 6 28c0-5.094 1.731-9.784 4.638-13.513zM37.97 8.383a22.075 22.075 0 0 1 6.09 4.581 1.961 1.961 0 0 0-.663 1.155l-1.661 8.867-4.482 1.456a2.014 2.014 0 0 0-.054-.042l-8-6a2.007 2.007 0 0 0-.2-.132v-4.535l8.103-4.42c.396-.216.678-.53.847-.885zm-19.941 0c.167.374.455.705.868.93L27 13.733v4.535c-.069.04-.135.084-.2.132l-8 6a2.013 2.013 0 0 0-.054.042l-4.482-1.456-1.66-8.867a1.967 1.967 0 0 0-.664-1.155 22.081 22.081 0 0 1 5.95-4.508zM28 6c2.878 0 5.626.552 8.145 1.557L28 12l-8.145-4.443A21.94 21.94 0 0 1 28 6z" class="french-vanilla-100"/></g></svg>