<svg xmlns="http://www.w3.org/2000/svg" width="56" height="56" class="wd-accent-stack wd-accent" focusable="false" role="presentation" viewBox="0 0 56 56"><g fill="none" fill-rule="evenodd" class="wd-icon-container"><path fill="#005DBA" fill-rule="nonzero" d="M28.812 8.172l18 8c1.545.687 1.594 2.861.082 3.617l-6.797 3.399 6.715 2.984c1.545.687 1.594 2.861.082 3.617l-6.797 3.399 6.715 2.984c1.545.687 1.594 2.861.082 3.617l-18 9a2 2 0 0 1-1.789 0l-18-9c-1.511-.756-1.462-2.93.082-3.617l6.716-2.984-6.798-3.399c-1.511-.756-1.462-2.93.082-3.617l6.716-2.984-6.798-3.399c-1.511-.756-1.462-2.93.082-3.617l18-8a2 2 0 0 1 1.625 0zm8.967 26.174l-8.885 4.443a2 2 0 0 1-1.789 0l-8.885-4.443L10 38l18 9 18-9-8.22-3.654zm0-10l-8.885 4.443a2 2 0 0 1-1.789 0l-8.885-4.443L10 28l18 9 18-9-8.22-3.654zM28 10l-18 8 18 9 18-9-18-8z" class="color-500"/><path fill="#FFF" d="M37.78 34.346L46 38l-18 9-18-9 8.22-3.654 8.885 4.443a2 2 0 0 0 1.79 0l8.884-4.443zm0-10L46 28l-18 9-18-9 8.22-3.654 8.885 4.443a2 2 0 0 0 1.79 0l8.884-4.443zM28 10l18 8-18 9-18-9 18-8z" class="french-vanilla-100"/></g></svg>