<svg xmlns="http://www.w3.org/2000/svg" width="56" height="56" class="wd-accent-star wd-accent" focusable="false" role="presentation" viewBox="0 0 56 56"><g fill="none" fill-rule="evenodd" class="wd-icon-container"><path fill="#005DBA" fill-rule="nonzero" d="M29.793 7.115l6.024 12.206 13.47 1.957c1.641.239 2.296 2.254 1.109 3.412l-9.747 9.5 2.3 13.416c.281 1.634-1.434 2.88-2.901 2.109L28 43.38l-12.048 6.334c-1.467.771-3.182-.475-2.902-2.109l2.301-13.415-9.747-9.501c-1.187-1.158-.532-3.173 1.108-3.412l13.47-1.957 6.025-12.206c.733-1.487 2.853-1.487 3.586 0zM28 8l-6.49 13.149L7 23.257l10.5 10.235-2.479 14.452L28 41.121l12.979 6.823L38.5 33.492 49 23.257 34.49 21.15 28 8zm15 16a1 1 0 1 1 0 2 1 1 0 0 1 0-2zm-7.99-1l.117.008 4.669.596a1 1 0 1 1-.253 1.983l-4.67-.595a1 1 0 1 1 .254-1.984z" class="color-500"/><path fill="#FFF" d="M28 8l6.49 13.149L49 23.257 38.5 33.492l2.479 14.452L28 41.121l-12.979 6.823L17.5 33.492 7 23.257l14.51-2.108L28 8zm15 16a1 1 0 1 0 0 2 1 1 0 0 0 0-2zm-8.992-.127a1 1 0 0 0 .865 1.119l4.67.595a1 1 0 0 0 .253-1.983l-4.67-.596a1 1 0 0 0-1.118.865z" class="french-vanilla-100"/></g></svg>