<svg xmlns="http://www.w3.org/2000/svg" width="56" height="56" fill="none" class="wd-accent-star-plain wd-accent" focusable="false" role="presentation" viewBox="0 0 56 56"><g class="wd-icon-container"><path fill="#fff" d="M15.024 47.944l12.978-6.823 12.979 6.823-2.479-14.452 10.5-10.235-14.51-2.108L28.002 8l-6.49 13.149-14.51 2.108 10.5 10.235-2.478 14.452z" class="french-vanilla-100"/><path fill="#0875E1" d="M15.954 49.715c-1.467.771-3.182-.475-2.902-2.109l2.301-13.415-9.747-9.501c-1.187-1.158-.532-3.174 1.109-3.412l13.47-1.957 6.024-12.206c.733-1.487 2.853-1.487 3.587 0L35.82 19.32l13.47 1.957c1.64.239 2.295 2.255 1.108 3.412l-9.747 9.5 2.301 13.416c.28 1.634-1.434 2.88-2.902 2.109L28.002 43.38l-12.048 6.334zm12.048-8.594l12.979 6.823-2.479-14.452 10.5-10.235-14.51-2.108L28.002 8l-6.49 13.149-14.51 2.108 10.5 10.235-2.478 14.452 12.978-6.823z" class="color-500"/></g></svg>