<svg xmlns="http://www.w3.org/2000/svg" width="56" height="56" class="wd-accent-stopwatch wd-accent" focusable="false" role="presentation" viewBox="0 0 56 56"><g fill="none" fill-rule="nonzero" class="wd-icon-container"><path fill="#005DBA" d="M37.894 21.116a1 1 0 0 1 1.387 1.437l-7.517 8.092a4 4 0 1 1-2.191-2.323l8.32-7.206zm1.57-6.652l-.475.823C44.417 18.863 48 25.013 48 32c0 11.046-8.954 20-20 20S8 43.046 8 32c0-7.048 3.645-13.244 9.153-16.806l-.42-.73-1.733 1a2 2 0 0 1-2.732-.732l-1-1.732A2 2 0 0 1 12 10.268l5.196-3A2 2 0 0 1 19.928 8l1 1.732a2 2 0 0 1-.732 2.732l-1.732 1 .421.73A19.888 19.888 0 0 1 27 12.023V11h-2a2 2 0 0 1-2-2V7a2 2 0 0 1 2-2h6a2 2 0 0 1 2 2v2a2 2 0 0 1-2 2h-2v1.025c2.972.146 5.774.941 8.266 2.246l.466-.807-1.732-1a2 2 0 0 1-.732-2.732l1-1.732A2 2 0 0 1 39 7.268l5.196 3A2 2 0 0 1 44.928 13l-1 1.732a2 2 0 0 1-2.732.732l-1.732-1zM28 50c9.941 0 18-8.059 18-18s-8.059-18-18-18-18 8.059-18 18 8.059 18 18 18zM25 7v2h6V7h-6zm-12 5l1 1.732 5.196-3-1-1.732L13 12zm25-3l-1 1.732 5.196 3 1-1.732L38 9zM28 34a2 2 0 1 0 0-4 2 2 0 0 0 0 4zm-1-18a1 1 0 0 1 2 0v3a1 1 0 0 1-2 0v-3zm8.134 1.644a1 1 0 0 1 1.732 1l-1.5 2.598a1 1 0 0 1-1.732-1l1.5-2.598zm6.222 5.49a1 1 0 0 1 1 1.732l-2.598 1.5a1 1 0 0 1-1-1.732l2.598-1.5zM44 31a1 1 0 0 1 0 2h-3a1 1 0 0 1 0-2h3zm-1.644 8.134a1 1 0 0 1-1 1.732l-2.598-1.5a1 1 0 0 1 1-1.732l2.598 1.5zm-5.49 6.222a1 1 0 0 1-1.732 1l-1.5-2.598a1 1 0 0 1 1.732-1l1.5 2.598zM29 48a1 1 0 0 1-2 0v-3a1 1 0 0 1 2 0v3zm-8.134-1.644a1 1 0 0 1-1.732-1l1.5-2.598a1 1 0 0 1 1.732 1l-1.5 2.598zm-6.222-5.49a1 1 0 0 1-1-1.732l2.598-1.5a1 1 0 0 1 1 1.732l-2.598 1.5zM12 33a1 1 0 0 1 0-2h3a1 1 0 0 1 0 2h-3zm1.644-8.134a1 1 0 0 1 1-1.732l2.598 1.5a1 1 0 0 1-1 1.732l-2.598-1.5zm5.49-6.222a1 1 0 0 1 1.732-1l1.5 2.598a1 1 0 0 1-1.732 1l-1.5-2.598z" class="color-500"/><path fill="#FFF" d="M37.894 21.116a1 1 0 0 1 1.387 1.437l-7.517 8.092a4 4 0 1 1-2.191-2.323l8.32-7.206zM28 50c9.941 0 18-8.059 18-18s-8.059-18-18-18-18 8.059-18 18 8.059 18 18 18zM25 7v2h6V7h-6zm-12 5l1 1.732 5.196-3-1-1.732L13 12zm25-3l-1 1.732 5.196 3 1-1.732L38 9zM28 34a2 2 0 1 0 0-4 2 2 0 0 0 0 4zm-1-18a1 1 0 0 1 2 0v3a1 1 0 0 1-2 0v-3zm8.134 1.644a1 1 0 0 1 1.732 1l-1.5 2.598a1 1 0 0 1-1.732-1l1.5-2.598zm6.222 5.49a1 1 0 0 1 1 1.732l-2.598 1.5a1 1 0 0 1-1-1.732l2.598-1.5zM44 31a1 1 0 0 1 0 2h-3a1 1 0 0 1 0-2h3zm-1.644 8.134a1 1 0 0 1-1 1.732l-2.598-1.5a1 1 0 0 1 1-1.732l2.598 1.5zm-5.49 6.222a1 1 0 0 1-1.732 1l-1.5-2.598a1 1 0 0 1 1.732-1l1.5 2.598zM29 48a1 1 0 0 1-2 0v-3a1 1 0 0 1 2 0v3zm-8.134-1.644a1 1 0 0 1-1.732-1l1.5-2.598a1 1 0 0 1 1.732 1l-1.5 2.598zm-6.222-5.49a1 1 0 0 1-1-1.732l2.598-1.5a1 1 0 0 1 1 1.732l-2.598 1.5zM12 33a1 1 0 0 1 0-2h3a1 1 0 0 1 0 2h-3zm1.644-8.134a1 1 0 0 1 1-1.732l2.598 1.5a1 1 0 0 1-1 1.732l-2.598-1.5zm5.49-6.222a1 1 0 0 1 1.732-1l1.5 2.598a1 1 0 0 1-1.732 1l-1.5-2.598z" class="french-vanilla-100"/></g></svg>