<svg xmlns="http://www.w3.org/2000/svg" width="56" height="56" class="wd-accent-student wd-accent" focusable="false" role="presentation" viewBox="0 0 56 56"><g fill="none" fill-rule="evenodd" class="wd-icon-container"><path fill="#005DBA" fill-rule="nonzero" d="M44.272 17a3 3 0 0 1 1.89.67l4.359 3.538A4 4 0 0 1 52 24.313v1.13A3.558 3.558 0 0 1 48.442 29h-1.858c.268.612.416 1.289.416 2v3.422a4 4 0 0 1-3.383 3.952c-7.254 1.133-11.702 2-13.222 2.564l-.349.129-.349-.13c-1.547-.578-6.023-1.446-13.306-2.567A4 4 0 0 1 13 34.416V31c0-.711.148-1.388.416-2H11.7A3.7 3.7 0 0 1 8 25.3v5.87c1.165.408 2 1.512 2 2.809 0 .736-.27 1.41-.715 1.93l.67 3.334c.18.902-.193 1.833-.881 2.194-.715.375-1.398.563-2.05.563-.658 0-1.355-.191-2.092-.573-.691-.359-1.068-1.293-.887-2.198l.668-3.323A2.954 2.954 0 0 1 4 33.979c0-1.297.835-2.4 2-2.81v-6.161c0-2.024 1.485-3.701 3.419-3.97.055-.047.112-.092.17-.136l4.362-3.296A3 3 0 0 1 15.76 17h28.512zM7 33a.99.99 0 0 0-1 .979c0 .234.082.45.232.627l.633.74-.859 4.277c-.01.055-.008.085-.06.07l-.036-.014.138.068c.381.175.705.253.976.253.264 0 .574-.075.935-.242l.127-.064-.033.014c-.051.015-.048-.016-.06-.071l-.86-4.29.634-.74A.954.954 0 0 0 8 33.979.99.99 0 0 0 7 33zm37.236-4H15.764A2.989 2.989 0 0 0 15 31v3.416a2 2 0 0 0 1.696 1.977c6.99 1.076 11.407 1.916 13.353 2.55 1.92-.62 6.306-1.459 13.26-2.545A2 2 0 0 0 45 34.422V31c0-.768-.289-1.47-.764-2zm.036-10H15.76a1 1 0 0 0-.603.202L12.777 21h15.49a2 2 0 1 1 0 2H10.326A2 2 0 0 0 10 24.093V25.3a1.7 1.7 0 0 0 1.7 1.7h36.742c.86 0 1.558-.697 1.558-1.558v-1.129a2 2 0 0 0-.74-1.553l-4.358-3.536a1 1 0 0 0-.63-.224z" class="color-500"/><path fill="#FFF" d="M15.764 29A2.989 2.989 0 0 0 15 31v3.416a2 2 0 0 0 1.696 1.977c6.99 1.076 11.407 1.916 13.353 2.55 1.92-.62 6.306-1.459 13.26-2.545A2 2 0 0 0 45 34.422V31c0-.768-.289-1.47-.764-2H15.764zm-5.439-6A2 2 0 0 0 10 24.093V25.3a1.7 1.7 0 0 0 1.7 1.7h36.742c.86 0 1.558-.697 1.558-1.558v-1.129a2 2 0 0 0-.74-1.553l-4.358-3.536a1 1 0 0 0-.63-.224H15.76a1 1 0 0 0-.603.202L12.777 21h15.49a2 2 0 1 1 0 2H10.326zM7.132 35.347l.635-.74A.954.954 0 0 0 8 33.979.99.99 0 0 0 7 33a.99.99 0 0 0-1 .979c0 .234.082.45.232.627l.633.74-.859 4.277c-.015.077-.003.106-.153.028.467.243.855.349 1.171.349.308 0 .678-.102 1.12-.334-.147.078-.135.048-.15-.03l-.862-4.29z" class="french-vanilla-100"/></g></svg>