<svg xmlns="http://www.w3.org/2000/svg" width="56" height="56" class="wd-accent-student-finance wd-accent" focusable="false" role="presentation" viewBox="0 0 56 56"><g fill="none" fill-rule="evenodd" class="wd-icon-container"><path fill="#005DBA" fill-rule="nonzero" d="M44.272 12a3 3 0 0 1 1.89.67l4.359 3.538A4 4 0 0 1 52 19.313v1.13A3.558 3.558 0 0 1 48.442 24h-1.858c.268.612.416 1.289.416 2v2h2a3 3 0 0 1 3 3v12a3 3 0 0 1-3 3H25a3 3 0 0 1-3-3v-8.722c-1.633-.281-3.504-.584-5.609-.908A4 4 0 0 1 13 29.416V26c0-.711.148-1.388.416-2H11.7A3.7 3.7 0 0 1 8 20.3v5.87c1.165.408 2 1.512 2 2.809 0 .736-.27 1.41-.715 1.93l.67 3.334c.18.902-.193 1.833-.881 2.194-.715.375-1.398.563-2.05.563-.658 0-1.355-.191-2.092-.573-.691-.359-1.068-1.293-.887-2.198l.668-3.323A2.954 2.954 0 0 1 4 28.979c0-1.297.835-2.4 2-2.81v-6.161c0-2.024 1.485-3.701 3.419-3.97.055-.047.112-.092.17-.136l4.362-3.296A3 3 0 0 1 15.76 12zM45 30H29a5 5 0 0 1-5 5v4a5 5 0 0 1 5 5h16a5 5 0 0 1 5-5v-4a5 5 0 0 1-5-5zM24 41v2a1 1 0 0 0 1 1h2a3 3 0 0 0-3-3zm26 0a3 3 0 0 0-3 3h2a1 1 0 0 0 1-1zm-13-9a5 5 0 1 1 0 10 5 5 0 0 1 0-10zm0 2a3 3 0 1 0 0 6 3 3 0 0 0 0-6zM7 28a.99.99 0 0 0-1 .979c0 .234.082.45.232.627l.633.74-.859 4.277c-.01.051-.016.083-.017.096.407.195.75.281 1.035.281.278 0 .607-.083.994-.27a.526.526 0 0 1-.024-.093l-.862-4.29.635-.74A.954.954 0 0 0 8 28.979.99.99 0 0 0 7 28zm20 2h-2a1 1 0 0 0-1 1v2a3 3 0 0 0 3-3zm22 0h-2a3 3 0 0 0 3 3v-2a1 1 0 0 0-1-1zm-4.764-6H15.764A2.989 2.989 0 0 0 15 26v3.416a2 2 0 0 0 1.696 1.977c1.972.304 3.74.589 5.304.855V31a3 3 0 0 1 3-3h20v-2c0-.768-.289-1.47-.764-2zm.036-10H15.76a1 1 0 0 0-.603.202L12.777 16h15.49a2 2 0 1 1 0 2H10.326A2 2 0 0 0 10 19.093V20.3a1.7 1.7 0 0 0 1.7 1.7h36.742c.86 0 1.558-.697 1.558-1.558v-1.129a2 2 0 0 0-.74-1.553l-4.358-3.536a1 1 0 0 0-.63-.224z" class="color-500"/><path fill="#FFF" d="M45 30a5 5 0 0 0 5 5v4a5 5 0 0 0-5 5H29a5 5 0 0 0-5-5v-4a5 5 0 0 0 5-5h16zM24 41a3 3 0 0 1 3 3h-2a1 1 0 0 1-1-1v-2zm26 0v2a1 1 0 0 1-1 1h-2a3 3 0 0 1 3-3zm-13-9a5 5 0 1 0 0 10 5 5 0 0 0 0-10zm0 2a3 3 0 1 1 0 6 3 3 0 0 1 0-6zM7 28a.99.99 0 0 1 1 .979.954.954 0 0 1-.233.628l-.635.74.862 4.29c.01.051.018.082.024.093-.387.187-.716.27-.994.27-.285 0-.628-.086-1.035-.28.001-.014.007-.046.017-.097l.86-4.278-.634-.74A.954.954 0 0 1 6 28.98.99.99 0 0 1 7 28zm20 2a3 3 0 0 1-3 3v-2a1 1 0 0 1 1-1h2zm22 0a1 1 0 0 1 1 1v2a3 3 0 0 1-3-3h2zm-4.764-6c.475.53.764 1.232.764 2v2H25a3 3 0 0 0-3 3v1.248a338.98 338.98 0 0 0-5.304-.855A2 2 0 0 1 15 29.416V26c0-.768.289-1.47.764-2zm.036-10a1 1 0 0 1 .63.224l4.358 3.536a2 2 0 0 1 .74 1.553v1.13c0 .86-.697 1.557-1.558 1.557H11.7a1.7 1.7 0 0 1-1.7-1.7v-1.207A2 2 0 0 1 10.325 18h17.943a2 2 0 1 0 0-2H12.777l2.38-1.798A1 1 0 0 1 15.76 14z" class="french-vanilla-100"/></g></svg>