<svg xmlns="http://www.w3.org/2000/svg" width="56" height="56" class="wd-accent-student-records wd-accent" focusable="false" role="presentation" viewBox="0 0 56 56"><g fill="none" fill-rule="evenodd" class="wd-icon-container"><path fill="#005DBA" fill-rule="nonzero" d="M37 4a3 3 0 0 1 3 3 3 3 0 0 1 3 3v.17c1.165.413 2 1.524 2 2.83v15.426l4.696 7.514a1.97 1.97 0 0 1 .241 1.561c.041.16.063.327.063.499v12a2 2 0 0 1-2 2H8a2 2 0 0 1-2-2V38c0-.172.022-.34.063-.499a1.97 1.97 0 0 1 .241-1.561L11 28.426V13c0-1.306.835-2.417 2-2.83V10a3 3 0 0 1 3-3 3 3 0 0 1 3-3h18zM19 38H8v12h40V38H37v3a3 3 0 0 1-3 3H22a3 3 0 0 1-3-3v-3zm23-26H14a1 1 0 0 0-1 1v23h6a2 2 0 0 1 1.732 1H30a1 1 0 0 1 0 2h-9v2a1 1 0 0 0 1 1h12a1 1 0 0 0 1-1v-3a2 2 0 0 1 2-2h6V13a1 1 0 0 0-1-1zm3 20.2V36h2.375L45 32.2zm-34 0L8.625 36H11v-3.8zm25 .8a1 1 0 0 1 0 2H17a1 1 0 0 1 0-2h19zm-1-19a1 1 0 0 1 1 1v14a1 1 0 0 1-1 1H21a1 1 0 0 1-1-1V15a1 1 0 0 1 1-1h14zm-1 2H22v12h1a3 3 0 0 1 2.772-2.991A2.989 2.989 0 0 1 25 23v-2a3 3 0 0 1 6 0v2c0 .772-.292 1.477-.772 2.009A3 3 0 0 1 33 28h1V16zm-4 11h-4a1 1 0 0 0-1 1h6a1 1 0 0 0-1-1zm-2-7a1 1 0 0 0-1 1v2a1 1 0 0 0 2 0v-2a1 1 0 0 0-1-1zM40 9H16a1 1 0 0 0-1 1h26a1 1 0 0 0-1-1zm-3-3H19a1 1 0 0 0-1 1h20a1 1 0 0 0-1-1z" class="color-500"/><path fill="#FFF" d="M21 39h9a1 1 0 0 0 0-2h-9.268A2 2 0 0 0 19 36h-6V13a1 1 0 0 1 1-1h28a1 1 0 0 1 1 1v23h-6a2 2 0 0 0-2 2v3a1 1 0 0 1-1 1H22a1 1 0 0 1-1-1v-2zm-4-6a1 1 0 0 0 0 2h19a1 1 0 0 0 0-2H17zM38 7H18a1 1 0 0 1 1-1h18a1 1 0 0 1 1 1zm-23 3a1 1 0 0 1 1-1h24a1 1 0 0 1 1 1H15zm30 22.2l2.375 3.8H45v-3.8zM8.625 36L11 32.2V36H8.625zM19 38v3a3 3 0 0 0 3 3h12a3 3 0 0 0 3-3v-3h11v12H8V38h11zm2-24a1 1 0 0 0-1 1v14a1 1 0 0 0 1 1h14a1 1 0 0 0 1-1V15a1 1 0 0 0-1-1H21zm12 14a3 3 0 0 0-2.772-2.991c.48-.532.772-1.237.772-2.009v-2a3 3 0 0 0-6 0v2c0 .772.292 1.477.772 2.009A3 3 0 0 0 23 28h-1V16h12v12h-1zm-5-8a1 1 0 0 1 1 1v2a1 1 0 0 1-2 0v-2a1 1 0 0 1 1-1zm3 8h-6a1 1 0 0 1 1-1h4a1 1 0 0 1 1 1z" class="french-vanilla-100"/></g></svg>