<svg xmlns="http://www.w3.org/2000/svg" width="56" height="56" class="wd-accent-student-admissions wd-accent" focusable="false" role="presentation" viewBox="0 0 56 56"><g fill="none" fill-rule="nonzero" class="wd-icon-container"><path fill="#005DBA" d="M8.704 29.476L10 28.324V6a2 2 0 0 1 2-2h32a2 2 0 0 1 2 2v22.324l1.257 1.117c.447.358.746.908.746 1.559v19c0 .342-.086.665-.238.947a1.932 1.932 0 0 1-1.715 1.052l-.047.001H9.953a1.932 1.932 0 0 1-1.715-1.053A1.991 1.991 0 0 1 8 50V31c0-.63.28-1.165.704-1.524zm3.296.318l16.002 8.445L44 29.796V6H12v23.794zM46.003 47.74V31l-15.859 8.37 15.86 8.37zM21 17.028V21a1 1 0 0 1-2 0v-4.92l-1.428-.676a1 1 0 0 1 0-1.808l9.5-4.5a1 1 0 0 1 .856 0l9.5 4.5a1 1 0 0 1 0 1.808L33 17.5V19a4 4 0 0 1-4 4h-3a4 4 0 0 1-4-4v-1.499l-1-.473zm-.301-2.7l7.12-1.311a1 1 0 0 1 .362 1.966l-4.914.906 4.233 2.004 7.164-3.393-7.164-3.393-6.801 3.221zM31 18.448l-3.072 1.456a1 1 0 0 1-.856 0L24 18.449V19a2 2 0 0 0 2 2h3a2 2 0 0 0 2-2v-.551zM22 31h12a1 1 0 0 1 0 2H22a1 1 0 0 1 0-2zm-3-4h18a1 1 0 0 1 0 2H19a1 1 0 0 1 0-2zm-9 4v19h36L10 31z" class="color-500"/><path fill="#FFF" d="M12 29.794l16.002 8.445L44 29.796V6H12v23.794zM46.003 47.74V31l-15.859 8.37 15.86 8.37zM21 17.028V21a1 1 0 0 1-2 0v-4.92l-1.428-.676a1 1 0 0 1 0-1.808l9.5-4.5a1 1 0 0 1 .856 0l9.5 4.5a1 1 0 0 1 0 1.808L33 17.5V19a4 4 0 0 1-4 4h-3a4 4 0 0 1-4-4v-1.499l-1-.473zm-.301-2.7l7.12-1.311a1 1 0 0 1 .362 1.966l-4.914.906 4.233 2.004 7.164-3.393-7.164-3.393-6.801 3.221zM31 18.448l-3.072 1.456a1 1 0 0 1-.856 0L24 18.449V19a2 2 0 0 0 2 2h3a2 2 0 0 0 2-2v-.551zM22 31h12a1 1 0 0 1 0 2H22a1 1 0 0 1 0-2zm-3-4h18a1 1 0 0 1 0 2H19a1 1 0 0 1 0-2zm-9 4v19h36L10 31z" class="french-vanilla-100"/></g></svg>