<svg xmlns="http://www.w3.org/2000/svg" width="56" height="56" class="wd-accent-student-apple wd-accent" focusable="false" role="presentation" viewBox="0 0 56 56"><g fill="none" fill-rule="nonzero" class="wd-icon-container"><path fill="#005DBA" d="M42.59 33.002c.727.596 1.317.903 1.737.94a1 1 0 1 1-.174 1.992c-1.155-.1-2.41-.886-3.851-2.31a1.006 1.006 0 0 1-.12-.141 1.005 1.005 0 0 1-.335-.28c-1.172-.596-2.462-.78-3.726-.439-3.375.91-4.817 4.183-3.801 8.592 1.015 4.41 4.708 8.785 7.007 7.375.938-.575 2.408-.575 3.346 0 2.282 1.398 5.992-2.966 7.007-7.375 1.016-4.409-.426-7.681-3.8-8.592-1.11-.3-2.238-.194-3.29.238zm-3.137-2.104c-.28-1.324-.877-2.651-1.797-3.987a1 1 0 0 1 1.648-1.134 15.16 15.16 0 0 1 1.12 1.898c.804-1.227 1.91-2.178 3.29-2.822a8.45 8.45 0 0 1 .884-.354 3.01 3.01 0 0 0-.362-.499H15.764A2.989 2.989 0 0 0 15 26v3.416a2 2 0 0 0 1.696 1.977c6.99 1.076 11.407 1.916 13.353 2.55.395-.128.895-.265 1.5-.412.942-1.286 2.303-2.226 4.05-2.698a6.988 6.988 0 0 1 3.854.065zm7.175-6.794c1.075-.061 2.167.103 3.26.494a2 2 0 0 1 1.202 2.578c-.666 1.795-1.802 3.195-3.362 4.138 3.571 1.662 5.01 5.679 3.901 10.491-1.323 5.743-6.126 11.005-10.001 8.631-.297-.182-.96-.182-1.255 0-3.888 2.384-8.676-2.873-10.002-8.63-.498-2.163-.482-4.164.01-5.863l-.335.124-.349-.13c-1.547-.578-6.023-1.446-13.306-2.567A4 4 0 0 1 13 29.416V26c0-.711.148-1.388.416-2H11.7A3.7 3.7 0 0 1 8 20.3v5.87c1.165.408 2 1.512 2 2.809 0 .736-.27 1.41-.715 1.93l.67 3.334c.18.902-.193 1.833-.881 2.194-.715.375-1.398.563-2.05.563-.658 0-1.355-.191-2.092-.573-.691-.359-1.068-1.293-.887-2.198l.668-3.323A2.954 2.954 0 0 1 4 28.979c0-1.297.835-2.4 2-2.81v-6.161c0-2.024 1.485-3.701 3.419-3.97.055-.047.112-.092.17-.136l4.362-3.296A3 3 0 0 1 15.76 12h28.512a3 3 0 0 1 1.89.67l4.359 3.538A4 4 0 0 1 52 19.313v1.13A3.558 3.558 0 0 1 48.442 24h-1.858l.044.104zM10.325 18A2 2 0 0 0 10 19.093V20.3a1.7 1.7 0 0 0 1.7 1.7h36.742c.86 0 1.558-.697 1.558-1.558v-1.129a2 2 0 0 0-.74-1.553l-4.358-3.536a1 1 0 0 0-.63-.224H15.76a1 1 0 0 0-.603.202L12.777 16h15.49a2 2 0 1 1 0 2H10.326zM8.092 34.693c-.092.042-.085.01-.098-.056l-.862-4.29.635-.74A.954.954 0 0 0 8 28.979.99.99 0 0 0 7 28a.99.99 0 0 0-1 .979c0 .234.082.45.232.627l.633.74-.859 4.277c-.015.077-.003.106-.153.028.467.243.855.349 1.171.349.302 0 .662-.097 1.091-.318l-.023.01zm33.334-4.58c1.607.574 3.159.513 4.655-.185 1.495-.697 2.54-1.846 3.133-3.447-1.607-.574-3.159-.513-4.655.185-1.495.697-2.54 1.846-3.133 3.447z" class="color-500"/><path fill="#FFF" d="M42.59 33.002c.727.596 1.317.903 1.737.94a1 1 0 1 1-.174 1.992c-1.155-.1-2.41-.886-3.851-2.31a1.006 1.006 0 0 1-.12-.141 1.005 1.005 0 0 1-.335-.28c-1.172-.596-2.462-.78-3.726-.439-3.375.91-4.817 4.183-3.801 8.592 1.015 4.41 4.708 8.785 7.007 7.375.938-.575 2.408-.575 3.346 0 2.282 1.398 5.992-2.966 7.007-7.375 1.016-4.409-.426-7.681-3.8-8.592-1.11-.3-2.238-.194-3.29.238zm-3.137-2.104c-.28-1.324-.877-2.651-1.797-3.987a1 1 0 0 1 1.648-1.134 15.16 15.16 0 0 1 1.12 1.898c.804-1.227 1.91-2.178 3.29-2.822a8.45 8.45 0 0 1 .884-.354 3.01 3.01 0 0 0-.362-.499H15.764A2.989 2.989 0 0 0 15 26v3.416a2 2 0 0 0 1.696 1.977c6.99 1.076 11.407 1.916 13.353 2.55.395-.128.895-.265 1.5-.412.942-1.286 2.303-2.226 4.05-2.698a6.988 6.988 0 0 1 3.854.065zM10.325 18A2 2 0 0 0 10 19.093V20.3a1.7 1.7 0 0 0 1.7 1.7h36.742c.86 0 1.558-.697 1.558-1.558v-1.129a2 2 0 0 0-.74-1.553l-4.358-3.536a1 1 0 0 0-.63-.224H15.76a1 1 0 0 0-.603.202L12.777 16h15.49a2 2 0 1 1 0 2H10.326zM8.092 34.693c-.092.042-.085.01-.098-.056l-.862-4.29.635-.74A.954.954 0 0 0 8 28.979.99.99 0 0 0 7 28a.99.99 0 0 0-1 .979c0 .234.082.45.232.627l.633.74-.859 4.277c-.015.077-.003.106-.153.028.467.243.855.349 1.171.349.302 0 .662-.097 1.091-.318l-.023.01zm33.334-4.58c1.607.574 3.159.513 4.655-.185 1.495-.697 2.54-1.846 3.133-3.447-1.607-.574-3.159-.513-4.655.185-1.495.697-2.54 1.846-3.133 3.447z" class="french-vanilla-100"/></g></svg>