<svg xmlns="http://www.w3.org/2000/svg" width="56" height="56" class="wd-accent-student-search wd-accent" focusable="false" role="presentation" viewBox="0 0 56 56"><g fill="none" fill-rule="evenodd" class="wd-icon-container"><path fill="#005DBA" fill-rule="nonzero" d="M47 23.728A12.947 12.947 0 0 1 49.97 32c0 7.18-5.82 13-13 13-1.753 0-3.425-.347-4.952-.977l-1.411 1.412a2 2 0 0 1-1.933.518l-4.431 4.432a2 2 0 0 1-2.829 0l-2.828-2.829a2 2 0 0 1 0-2.828l4.432-4.432a2 2 0 0 1 .518-1.932l1.411-1.412a13.077 13.077 0 0 1-.768-7.287 272.092 272.092 0 0 0-7.788-1.295A4 4 0 0 1 13 24.416V20c0-.711.148-1.388.416-2H11.7A3.7 3.7 0 0 1 8 14.3v-.146 6.015c1.165.41 2 1.513 2 2.81 0 .736-.27 1.41-.715 1.93l.67 3.334c.18.902-.193 1.833-.881 2.194-.715.375-1.398.563-2.05.563-.658 0-1.355-.191-2.092-.573-.691-.359-1.068-1.293-.887-2.198l.668-3.323A2.954 2.954 0 0 1 4 22.979c0-1.297.835-2.4 2-2.81v-6.161c0-2.024 1.485-3.701 3.419-3.97.055-.047.112-.092.17-.136l4.362-3.296A3 3 0 0 1 15.76 6h28.512a3 3 0 0 1 1.89.67l4.359 3.538A4 4 0 0 1 52 13.313v1.13A3.558 3.558 0 0 1 48.442 18h-1.858c.268.612.416 1.289.416 2v3.728zM36.97 43c6.076 0 11-4.925 11-11s-4.924-11-11-11c-6.075 0-11 4.925-11 11s4.925 11 11 11zm0-2a9 9 0 1 1 0-18 9 9 0 0 1 0 18zm0-2a7 7 0 1 0 0-14 7 7 0 0 0 0 14zM45 21.775V20c0-.768-.289-1.47-.764-2H15.764A2.989 2.989 0 0 0 15 20v4.416a2 2 0 0 0 1.696 1.977c3.2.493 5.862.936 7.994 1.333C26.457 22.646 31.288 19 36.97 19c3.031 0 5.82 1.037 8.03 2.775zM10.325 12A2 2 0 0 0 10 13.093V14.3a1.7 1.7 0 0 0 1.7 1.7h36.742c.86 0 1.558-.697 1.558-1.558v-1.129a2 2 0 0 0-.74-1.553l-4.358-3.536a1 1 0 0 0-.63-.224H15.76a1 1 0 0 0-.603.202L12.777 10h15.49a2 2 0 1 1 0 2H10.326zM7.132 24.347l.635-.74A.954.954 0 0 0 8 22.979.99.99 0 0 0 7 22a.99.99 0 0 0-1 .979c0 .234.082.45.232.627l.633.74-.859 4.277c-.015.077-.003.106-.153.028.467.243.855.349 1.171.349.308 0 .678-.102 1.12-.334-.147.078-.135.048-.15-.03l-.862-4.29zm20.31 20.01l-2.83-2.828L20 46.142l2.828 2.829 4.613-4.613zm-1.538-5.533l-.954.954 4.242 4.243.954-.954a13.067 13.067 0 0 1-4.242-4.243z" class="color-500"/><path fill="#FFF" d="M45 21.775A12.944 12.944 0 0 0 36.97 19c-5.682 0-10.513 3.646-12.28 8.726-2.132-.397-4.794-.84-7.994-1.333A2 2 0 0 1 15 24.416V20c0-.768.289-1.47.764-2h28.472c.475.53.764 1.232.764 2v1.775zM10.325 12h17.943a2 2 0 1 0 0-2H12.777l2.38-1.798A1 1 0 0 1 15.76 8h28.512a1 1 0 0 1 .63.224l4.358 3.536a2 2 0 0 1 .74 1.553v1.13c0 .86-.697 1.557-1.558 1.557H11.7a1.7 1.7 0 0 1-1.7-1.7v-1.207A2 2 0 0 1 10.325 12zM7.132 24.347l.862 4.29c.015.077.003.107.15.03-.442.231-.812.333-1.12.333-.316 0-.704-.106-1.171-.349.15.078.138.049.153-.028l.86-4.278-.634-.74A.954.954 0 0 1 6 22.98.99.99 0 0 1 7 22a.99.99 0 0 1 1 .979.954.954 0 0 1-.233.628l-.635.74zm20.31 20.01l-4.614 4.614L20 46.142l4.613-4.613 2.828 2.829zm-1.538-5.533a13.067 13.067 0 0 0 4.242 4.243l-.954.954-4.242-4.243.954-.954zM36.97 43c-6.076 0-11-4.925-11-11s4.924-11 11-11c6.075 0 11 4.925 11 11s-4.925 11-11 11zm0-2a9 9 0 1 0 0-18 9 9 0 0 0 0 18zm0-2a7 7 0 1 1 0-14 7 7 0 0 1 0 14z" class="french-vanilla-100"/></g></svg>