<svg xmlns="http://www.w3.org/2000/svg" width="56" height="56" class="wd-accent-suitcase wd-accent" focusable="false" role="presentation" viewBox="0 0 56 56"><g fill="none" fill-rule="nonzero" class="wd-icon-container"><path fill="#005DBA" d="M33 15v5h1l2 1.818V30h-8v-8.182L30 20h1v-5H16a1 1 0 0 0-1 1v20h26V16a1 1 0 0 0-1-1h-7zm8 23H15v3h26v-3zm0 5H15v3a1 1 0 0 0 1 1h24a1 1 0 0 0 1-1v-3zm-8-30v-3h-9v3h9zm2 0h5a3 3 0 0 1 3 3v30a3 3 0 0 1-3 3h-1a3 3 0 0 1-6 0H23a3 3 0 0 1-6 0h-1a3 3 0 0 1-3-3V16a3 3 0 0 1 3-3h6V6a2 2 0 0 1 2-2h9a2 2 0 0 1 2 2v7zm-2-5V6h-9v2h9zm-3 20h4v-5.143L33.2 22h-2.4l-.8.857V28z" class="color-500"/><path fill="#FFF" d="M33 15v5h1l2 1.818V30h-8v-8.182L30 20h1v-5H16a1 1 0 0 0-1 1v20h26V16a1 1 0 0 0-1-1h-7zm8 23H15v3h26v-3zm0 5H15v3a1 1 0 0 0 1 1h24a1 1 0 0 0 1-1v-3zm-8-30v-3h-9v3h9zm0-5V6h-9v2h9zm-3 20h4v-5.143L33.2 22h-2.4l-.8.857V28z" class="french-vanilla-100"/></g></svg>