<svg xmlns="http://www.w3.org/2000/svg" width="56" height="56" class="wd-accent-sun wd-accent" focusable="false" role="presentation" viewBox="0 0 56 56"><g fill="none" fill-rule="evenodd" class="wd-icon-container"><path fill="#005DBA" fill-rule="nonzero" d="M28 41.927a1 1 0 0 1 1 1v7.352a1 1 0 0 1-2 0v-7.352a1 1 0 0 1 1-1zm7.143-1.915a1 1 0 0 1 1.366.367l3.676 6.367a1 1 0 0 1-1.732 1l-3.676-6.367a1 1 0 0 1 .366-1.367zm-15.653.367a1 1 0 1 1 1.732 1l-3.676 6.367a1 1 0 0 1-1.732-1zM28 16c6.627 0 12 5.373 12 12s-5.373 12-12 12-12-5.373-12-12 5.373-12 12-12zm12.372 18.783a1 1 0 0 1 1.367-.366l6.367 3.676a1 1 0 0 1-1 1.732L40.74 36.15a1 1 0 0 1-.367-1.366zm-26.111-.366a1 1 0 1 1 1 1.732l-6.368 3.676a1 1 0 0 1-1-1.732zM28 18c-5.523 0-10 4.477-10 10s4.477 10 10 10 10-4.477 10-10-4.477-10-10-10zm0 2a1 1 0 0 1 0 2 6 6 0 0 0-6 6 1 1 0 0 1-2 0 8 8 0 0 1 8-8zm22.64 6.64a1 1 0 1 1 0 2h-7.353a1 1 0 1 1 0-2zm-37.927 0a1 1 0 0 1 0 2H5.36a1 1 0 1 1 0-2zm34.393-11.186a1 1 0 0 1 1 1.732l-6.367 3.676a1 1 0 0 1-1-1.732zm-39.579.366a1 1 0 0 1 1.366-.366l6.368 3.676a1 1 0 1 1-1 1.732l-6.368-3.676a1 1 0 0 1-.366-1.366zm30.926-8.287a1 1 0 0 1 1.732 1l-3.676 6.368a1 1 0 0 1-1.732-1zM16.18 7.167a1 1 0 0 1 1.366.366l3.676 6.368a1 1 0 0 1-1.732 1l-3.676-6.368a1 1 0 0 1 .366-1.366zM28 4a1 1 0 0 1 1 1v7.353a1 1 0 0 1-2 0V5a1 1 0 0 1 1-1z" class="color-500"/><path fill="#FFF" d="M28 18c5.523 0 10 4.477 10 10s-4.477 10-10 10-10-4.477-10-10 4.477-10 10-10zm0 2a8 8 0 0 0-8 8 1 1 0 0 0 2 0 6 6 0 0 1 6-6 1 1 0 0 0 0-2z" class="french-vanilla-100"/></g></svg>