<svg xmlns="http://www.w3.org/2000/svg" width="56" height="56" class="wd-accent-sustainability wd-accent" focusable="false" role="presentation" viewBox="0 0 56 56"><g fill="none" fill-rule="evenodd" class="wd-icon-container"><path fill="#005DBA" fill-rule="nonzero" d="M28 6c12.15 0 22 9.85 22 22 0 9.341-5.871 17.516-14.394 20.65l2.107 1.266a1 1 0 1 1-1.03 1.715l-5.143-3.09 3.09-5.144a1 1 0 0 1 1.715 1.03l-1.404 2.337C42.674 43.908 48 36.483 48 28c0-11.046-8.954-20-20-20S8 16.954 8 28c0 10.71 8.419 19.454 19 19.975v-7.024c-5.047-.494-9-4.69-9-9.807 0-3.39 2.742-9.61 8.27-19.147.77-1.33 2.69-1.33 3.46 0C35.258 21.535 38 27.754 38 31.144c0 5.118-3.953 9.313-9 9.807V50h-1C15.85 50 6 40.15 6 28S15.85 6 28 6zm7.957 24.457L29 37.414v1.525c3.946-.483 7-3.789 7-7.795 0-.212-.014-.441-.043-.687zm-15.914 0a5.958 5.958 0 0 0-.043.687c0 4.006 3.054 7.312 7 7.795v-1.525zm14.252-5.338L29 30.414v4.172l6.293-6.293c.045-.045.093-.085.143-.12a32.88 32.88 0 0 0-1.141-3.054zm-12.59 0a32.88 32.88 0 0 0-1.141 3.055c.05.034.098.074.143.119L27 34.586v-4.172zm10.342-4.752L29 23.414v4.172l4.293-4.293c.042-.042.087-.08.135-.113-.411-.88-.871-1.817-1.38-2.813zm-8.094 0c-.51.996-.97 1.933-1.38 2.813.047.033.092.07.134.113L27 27.586v-4.172zM29 14.744v5.842l2.076-2.076A166.556 166.556 0 0 0 29 14.744zm-2 0a166.556 166.556 0 0 0-2.076 3.766L27 20.586z" class="color-500"/><path fill="#FFF" d="M32.047 20.367c.51.996.97 1.933 1.38 2.813-.047.033-.092.07-.134.113L29 27.586v-4.172l3.047-3.047zm-.97-1.857L29 20.586v-5.842a166.556 166.556 0 0 1 2.076 3.766zm3.218 6.61a32.88 32.88 0 0 1 1.141 3.054c-.05.034-.098.074-.143.119L29 34.586v-4.172l5.295-5.295zm1.662 5.337c.029.246.043.475.043.687 0 4.006-3.054 7.312-7 7.795v-1.525l6.957-6.957zm-12.004-10.09L27 23.414v4.172l-4.293-4.293a1.006 1.006 0 0 0-.135-.113c.411-.88.871-1.817 1.38-2.813zm.97-1.857A166.556 166.556 0 0 1 27 14.744v5.842l-2.076-2.076zm-3.218 6.61L27 30.413v4.172l-6.293-6.293a1.005 1.005 0 0 0-.143-.12 32.88 32.88 0 0 1 1.141-3.054zm-1.662 5.337L27 37.414v1.525c-3.946-.483-7-3.789-7-7.795 0-.212.014-.441.043-.687z" class="french-vanilla-100"/></g></svg>