<svg xmlns="http://www.w3.org/2000/svg" width="56" height="56" class="wd-accent-tablet-lock-check wd-accent" focusable="false" role="presentation" viewBox="0 0 56 56"><g fill="none" fill-rule="evenodd" class="wd-icon-container"><path fill="#005DBA" d="M43.2 4C45.299 4 47 5.343 47 7v42c0 1.657-1.701 3-3.8 3H12.8C10.701 52 9 50.657 9 49V7c0-1.657 1.701-3 3.8-3h30.4zM45 42H11v7c0 .552.585 1 1.308 1h31.384c.723 0 1.308-.448 1.308-1v-7zm-17 1a3 3 0 1 1 0 6 3 3 0 0 1 0-6zm0 2a1 1 0 1 0 0 2 1 1 0 0 0 0-2zm17-34H11v29h34V11zm-1.308-5H12.308C11.585 6 11 6.448 11 7v2h34V7c0-.552-.585-1-1.308-1zM22 24v-2a6 6 0 1 1 12 0v2a2 2 0 0 1 2 2v7a2 2 0 0 1-2 2H22a2 2 0 0 1-2-2v-7a2 2 0 0 1 2-2zm10 0v-2a4 4 0 1 0-8 0v2h2v-2a2 2 0 1 1 4 0v2h2zm-10 2v7h12v-7H22zm4.586 3l.707.707 2.121-2.121A1 1 0 1 1 30.828 29l-3.535 3.536-2.121-2.122A1 1 0 0 1 26.586 29z" class="color-500"/><path fill="#FFF" d="M45 42v7c0 .552-.585 1-1.308 1H12.308C11.585 50 11 49.552 11 49v-7h34zm-17 1a3 3 0 1 0 0 6 3 3 0 0 0 0-6zm0 2a1 1 0 1 1 0 2 1 1 0 0 1 0-2zm17-34v29H11V11h34zm-1.308-5C44.415 6 45 6.448 45 7v2H11V7c0-.552.585-1 1.308-1zM22 24v-2a6 6 0 1 1 12 0v2a2 2 0 0 1 2 2v7a2 2 0 0 1-2 2H22a2 2 0 0 1-2-2v-7a2 2 0 0 1 2-2zm10 0v-2a4 4 0 1 0-8 0v2h2v-2a2 2 0 1 1 4 0v2h2zm-10 2v7h12v-7H22zm4.586 3l.707.707 2.121-2.121A1 1 0 1 1 30.828 29l-3.535 3.536-2.121-2.122A1 1 0 0 1 26.586 29z" class="french-vanilla-100"/></g></svg>