<svg xmlns="http://www.w3.org/2000/svg" width="56" height="56" class="wd-accent-tablet-text wd-accent" focusable="false" role="presentation" viewBox="0 0 56 56"><g fill="none" fill-rule="nonzero" class="wd-icon-container"><path fill="#005DBA" d="M12 4h32a3 3 0 0 1 3 3v42a3 3 0 0 1-3 3H12a3 3 0 0 1-3-3V7a3 3 0 0 1 3-3zm0 2a1 1 0 0 0-1 1v42a1 1 0 0 0 1 1h32a1 1 0 0 0 1-1V7a1 1 0 0 0-1-1H12zm-1 38h34v2H11v-2zm0-36h34v2H11V8zm5 6h24a1 1 0 0 1 0 2H16a1 1 0 0 1 0-2zm0 6h24a1 1 0 0 1 0 2H16a1 1 0 0 1 0-2zm0 6h21a1 1 0 0 1 0 2H16a1 1 0 0 1 0-2zm0 12h14a1 1 0 0 1 0 2H16a1 1 0 0 1 0-2zm0-6h24a1 1 0 0 1 0 2H16a1 1 0 0 1 0-2zm12 17a1 1 0 1 1 0-2 1 1 0 0 1 0 2z" class="color-500"/><path fill="#FFF" d="M12 6a1 1 0 0 0-1 1v42a1 1 0 0 0 1 1h32a1 1 0 0 0 1-1V7a1 1 0 0 0-1-1H12zm-1 38h34v2H11v-2zm0-36h34v2H11V8zm5 6h24a1 1 0 0 1 0 2H16a1 1 0 0 1 0-2zm0 6h24a1 1 0 0 1 0 2H16a1 1 0 0 1 0-2zm0 6h21a1 1 0 0 1 0 2H16a1 1 0 0 1 0-2zm0 12h14a1 1 0 0 1 0 2H16a1 1 0 0 1 0-2zm0-6h24a1 1 0 0 1 0 2H16a1 1 0 0 1 0-2zm12 17a1 1 0 1 1 0-2 1 1 0 0 1 0 2z" class="french-vanilla-100"/></g></svg>