<svg xmlns="http://www.w3.org/2000/svg" width="56" height="56" class="wd-accent-tag wd-accent" focusable="false" role="presentation" viewBox="0 0 56 56"><g fill="none" fill-rule="nonzero" class="wd-icon-container"><path fill="#005DBA" d="M31 6h9a2 2 0 0 1 1.414.586l8 8A2 2 0 0 1 50 16v9a2 2 0 0 1-.586 1.414l-24 24a2 2 0 0 1-2.828 0l-17-17a2 2 0 0 1 0-2.828l24-24A2 2 0 0 1 31 6zm0 2L7 32l17 17 24-24v-9l-8-8h-9zm8.5 12a3.5 3.5 0 1 1 0-7 3.5 3.5 0 0 1 0 7zm0-2a1.5 1.5 0 1 0 0-3 1.5 1.5 0 0 0 0 3zm-13.086-1l12.728 12.728-1.414 1.414L25 18.414 26.414 17zm-3.07 2.929L36.07 32.657l-1.414 1.414-12.728-12.728 1.414-1.414zm-3 3L33.07 35.657l-1.414 1.414-12.728-12.728 1.414-1.414zm-3 3L30.07 38.657l-1.414 1.414-12.728-12.728 1.414-1.414z" class="color-500"/><path fill="#FFF" d="M31 8L7 32l17 17 24-24v-9l-8-8h-9zm8.5 12a3.5 3.5 0 1 1 0-7 3.5 3.5 0 0 1 0 7zm-13.086-3l12.728 12.728-1.414 1.414L25 18.414 26.414 17zm-3.07 2.929L36.07 32.657l-1.414 1.414-12.728-12.728 1.414-1.414zm-3 3L33.07 35.657l-1.414 1.414-12.728-12.728 1.414-1.414zm-3 3L30.07 38.657l-1.414 1.414-12.728-12.728 1.414-1.414z" class="french-vanilla-100"/></g></svg>