<svg xmlns="http://www.w3.org/2000/svg" width="56" height="56" class="wd-accent-target wd-accent" focusable="false" role="presentation" viewBox="0 0 56 56"><g fill="none" fill-rule="evenodd" class="wd-icon-container"><path fill="#005DBA" fill-rule="nonzero" d="M46.114 4.422a.5.5 0 0 1 .866.34l.015 4.234h4.239a.5.5 0 0 1 .341.865l-4.27 3.996a.5.5 0 0 1-.342.135h-3.318A20.922 20.922 0 0 1 49 28c0 11.598-9.402 21-21 21S7 39.598 7 28 16.402 7 28 7a20.922 20.922 0 0 1 14 5.347v-3.32a.5.5 0 0 1 .134-.34zM28 9C17.507 9 9 17.507 9 28s8.507 19 19 19 19-8.507 19-19a18.93 18.93 0 0 0-4.88-12.714l-2.805 2.866A14.942 14.942 0 0 1 43 28c0 8.284-6.716 15-15 15-8.284 0-15-6.716-15-15 0-8.284 6.716-15 15-15 3.739 0 7.158 1.368 9.785 3.63l2.803-2.862A18.928 18.928 0 0 0 28 9zm0 6c-7.18 0-13 5.82-13 13s5.82 13 13 13 13-5.82 13-13c0-3.209-1.163-6.146-3.09-8.414l-2.815 2.876a9 9 0 1 1-1.522-1.53l2.81-2.869A12.948 12.948 0 0 0 28 15zm0 6a7 7 0 1 0 5.68 2.908l-2.9 2.962a3 3 0 1 1-1.478-1.574l2.862-2.924A6.969 6.969 0 0 0 28 21z" class="color-500"/><path fill="#FFF" d="M40.588 13.768l-2.803 2.863A14.941 14.941 0 0 0 28 13c-8.284 0-15 6.716-15 15 0 8.284 6.716 15 15 15 8.284 0 15-6.716 15-15 0-3.769-1.39-7.213-3.685-9.848l2.805-2.866A18.93 18.93 0 0 1 47 28c0 10.493-8.507 19-19 19S9 38.493 9 28 17.507 9 28 9c4.828 0 9.236 1.8 12.588 4.768zm-4.206 4.295l-2.809 2.87a9 9 0 1 0 1.522 1.53l2.815-2.877A12.948 12.948 0 0 1 41 28c0 7.18-5.82 13-13 13s-13-5.82-13-13 5.82-13 13-13c3.194 0 6.12 1.152 8.382 3.063zm-4.218 4.31l-2.862 2.923a3 3 0 1 0 1.478 1.574l2.9-2.962a7 7 0 1 1-1.516-1.535z" class="french-vanilla-100"/></g></svg>