<svg xmlns="http://www.w3.org/2000/svg" width="56" height="56" class="wd-accent-tent wd-accent" focusable="false" role="presentation" viewBox="0 0 56 56"><g fill="none" fill-rule="nonzero" class="wd-icon-container"><path fill="#005DBA" d="M40.063 15.498l9.877 27.16c.04.113.06.229.06.342h1a1 1 0 0 1 0 2H5a1 1 0 0 1 0-2h1c0-.113.02-.229.06-.342L15.936 15.5l-1.876-5.158a1 1 0 0 1 1.88-.684L17 12.574l1.06-2.916a1 1 0 1 1 1.88.684L18.61 14h18.78l-1.33-3.658a1 1 0 0 1 1.88-.684L39 12.574l1.06-2.916a1 1 0 1 1 1.88.684l-1.856 5.103a1.016 1.016 0 0 1-.02.053zM8.064 43H16V21.176L8.064 43zm39.872 0l-9.818-27H18.246l9.694 26.658c.04.113.06.229.06.342h19.936zm-22 0L18 21.176V43h7.936z" class="color-500"/><path fill="#FFF" d="M8.064 43H16V21.176L8.064 43zm39.872 0l-9.818-27H18.246l9.694 26.658c.04.113.06.229.06.342h19.936zm-22 0L18 21.176V43h7.936z" class="french-vanilla-100"/></g></svg>