<svg xmlns="http://www.w3.org/2000/svg" width="56" height="56" class="wd-accent-tie-gear wd-accent" focusable="false" role="presentation" viewBox="0 0 56 56"><g fill="none" fill-rule="evenodd" class="wd-icon-container"><path fill="#005DBA" fill-rule="nonzero" d="M25 4a2 2 0 0 1 1.838 2.788l-3 7a2.004 2.004 0 0 1-.106.212c.092.158.162.33.208.515l4.264 17.053a5.176 5.176 0 0 0 1.31-.534 5.11 5.11 0 0 0 2.386-3.085l.175-.64.658-.088a12.526 12.526 0 0 1 3.372.011l.662.092.168.648a5.11 5.11 0 0 0 2.404 3.147 5.11 5.11 0 0 0 3.927.508l.645-.178.41.527a12.526 12.526 0 0 1 1.696 2.914l.254.614-.467.472a5.11 5.11 0 0 0-1.478 3.61 5.11 5.11 0 0 0 1.496 3.627l.472.473-.255.617a12.304 12.304 0 0 1-1.61 2.788l-.407.53-.645-.173a5.11 5.11 0 0 0-3.89.518 5.11 5.11 0 0 0-2.387 3.085l-.175.64-.658.088a12.526 12.526 0 0 1-3.372-.011l-.662-.092-.168-.648a5.11 5.11 0 0 0-2.404-3.147 5.126 5.126 0 0 0-2.795-.688l-5.638 4.386a2 2 0 0 1-2.456 0l-9-7a2 2 0 0 1-.712-2.064l7-28c.046-.184.116-.357.208-.515a2.004 2.004 0 0 1-.106-.212l-3-7A2 2 0 0 1 15 4h10zm-.335 35.107L16.31 47.13 20 50l4.365-3.395a12.528 12.528 0 0 1-1.382-2.495l-.254-.614.467-.472a5.11 5.11 0 0 0 1.47-3.917zm8.947-9.967a7.114 7.114 0 0 1-3.099 3.626 7.114 7.114 0 0 1-4.72.866 10.36 10.36 0 0 0-.728 1.262 7.114 7.114 0 0 1 1.61 4.52 7.114 7.114 0 0 1-1.59 4.497c.231.48.5.94.802 1.38a7.114 7.114 0 0 1 4.774.858 7.114 7.114 0 0 1 3.13 3.706c.532.042 1.066.043 1.597.005a7.114 7.114 0 0 1 3.099-3.626 7.114 7.114 0 0 1 4.72-.866 10.36 10.36 0 0 0 .728-1.262 7.114 7.114 0 0 1-1.61-4.52c0-1.667.573-3.244 1.59-4.497-.231-.48-.5-.94-.802-1.38a7.114 7.114 0 0 1-4.774-.858 7.114 7.114 0 0 1-3.13-3.706 10.527 10.527 0 0 0-1.597-.005zm-8.64-2.25L11.866 39.536 11 43l3.714 2.889 9.327-8.955c-.23-.419-.52-.805-.863-1.147l-.472-.473.255-.617a12.304 12.304 0 0 1 1.61-2.788l.407-.53.645.173c.18.048.361.086.544.114l-1.195-4.777zm12.03 8.276c2.417 1.395 3.263 4.467 1.88 6.863-1.385 2.397-4.467 3.2-6.884 1.805-2.417-1.395-3.263-4.467-1.88-6.863 1.385-2.397 4.467-3.2 6.884-1.805zm-5.151 2.805c-.828 1.434-.319 3.285 1.147 4.131 1.465.846 3.323.362 4.151-1.073.828-1.434.319-3.285-1.147-4.131-1.465-.846-3.323-.362-4.151 1.073zm-9.073-19.859l-7.344 7.154-2.652 10.608 11.63-11.224-1.634-6.538zM22 15h-4l-1.644 6.575 5.86-5.708L22 15zm3-9H15l3 7h4l3-7z" class="color-500"/><path fill="#FFF" d="M26.167 31.666a5.111 5.111 0 0 1-.544-.114l-.645-.173-.407.53a12.304 12.304 0 0 0-1.61 2.788l-.255.617.472.473c.343.342.632.728.863 1.147l-9.327 8.955L11 43l.866-3.463 13.106-12.648 1.195 4.777zm-1.802 14.939L20 50l-3.69-2.87 8.355-8.023a5.11 5.11 0 0 1-1.47 3.916l-.466.473.254.614c.364.88.827 1.718 1.382 2.495zm.048-21.955L12.782 35.874l2.652-10.608 7.344-7.154 1.635 6.538zm-2.196-8.783l-5.86 5.708L18 15h4l.217.867zM33.612 29.14a10.527 10.527 0 0 1 1.597.005 7.114 7.114 0 0 0 3.13 3.706 7.114 7.114 0 0 0 4.774.857c.302.44.57.902.803 1.381a7.114 7.114 0 0 0-1.59 4.497c0 1.677.58 3.264 1.61 4.52a10.36 10.36 0 0 1-.73 1.262 7.114 7.114 0 0 0-4.72.866 7.114 7.114 0 0 0-3.098 3.626c-.531.038-1.065.037-1.597-.005a7.114 7.114 0 0 0-3.13-3.706 7.114 7.114 0 0 0-4.774-.857c-.302-.44-.57-.902-.803-1.381a7.114 7.114 0 0 0 1.59-4.497c0-1.677-.58-3.264-1.61-4.52a10.36 10.36 0 0 1 .73-1.262 7.114 7.114 0 0 0 4.72-.866 7.114 7.114 0 0 0 3.098-3.626zm3.39 6.026c-2.417-1.396-5.5-.592-6.883 1.805-1.384 2.396-.538 5.468 1.879 6.863 2.417 1.396 5.5.592 6.883-1.805 1.384-2.396.538-5.468-1.879-6.863zM25 6l-3 7h-4l-3-7h10z" class="french-vanilla-100"/></g></svg>