<svg xmlns="http://www.w3.org/2000/svg" width="56" height="56" class="wd-accent-tie wd-accent" focusable="false" role="presentation" viewBox="0 0 56 56"><g fill="none" fill-rule="evenodd" class="wd-icon-container"><path fill="#005DBA" fill-rule="nonzero" d="M30 13a2 2 0 0 1 1.94 1.515l7 28a2 2 0 0 1-.712 2.064l-9 7a2 2 0 0 1-2.456 0l-9-7a2 2 0 0 1-.712-2.064L21.612 24.3l-.026-.028.044-.044 2.43-9.714A2 2 0 0 1 26 13h4zm5.376 23.504L24.309 47.129 28 50l9-7-1.624-6.496zm-2.404-9.615L19.866 39.534 19 43l3.714 2.888 12.103-11.62-1.845-7.379zm-2.194-8.777l-7.344 7.153-2.652 10.608 11.63-11.223-1.634-6.538zM30 15h-4l-1.643 6.573 5.859-5.707L30 15zm-7-9l3 7h4l3-7H23zm0-2h10a2 2 0 0 1 1.838 2.788l-3 7A2 2 0 0 1 30 15h-4a2 2 0 0 1-1.838-1.212l-3-7A2 2 0 0 1 23 4z" class="color-500"/><path fill="#FFF" d="M35.376 36.504L37 43l-9 7-3.691-2.871 11.067-10.625zm-2.404-9.616l1.845 7.38-12.103 11.62L19 43l.866-3.466 13.106-12.646zm-2.194-8.776l1.635 6.538-11.631 11.224 2.652-10.609 7.344-7.153zM30 15l.216.866-5.859 5.707L26 15h4zm3-9l-3 7h-4l-3-7h10z" class="french-vanilla-100"/></g></svg>