<svg xmlns="http://www.w3.org/2000/svg" width="56" height="56" class="wd-accent-time wd-accent" focusable="false" role="presentation" viewBox="0 0 56 56"><g fill="none" fill-rule="evenodd" class="wd-icon-container"><path fill="#005DBA" fill-rule="nonzero" d="M16 13.268C11.62 16.837 9 22.197 9 28c0 10.493 8.507 19 19 19s19-8.507 19-19S38.493 9 28 9c-1.237 0-2.458.118-3.652.35a1 1 0 0 1-.383-1.963C25.285 7.13 26.635 7 28 7c11.598 0 21 9.402 21 21s-9.402 21-21 21S7 39.598 7 28a20.96 20.96 0 0 1 7.397-16H6a1 1 0 0 1 0-2h11a1 1 0 0 1 1 1v11a1 1 0 0 1-2 0v-8.732zM26.646 27H35a1 1 0 0 1 0 2h-9a1 1 0 0 1-.856-.483.996.996 0 0 1-.214-.356l-2.604-7.564a1 1 0 1 1 1.89-.651L26.647 27zm-2.952-13.373A15.001 15.001 0 0 1 28 13c8.284 0 15 6.716 15 15 0 8.284-6.716 15-15 15-8.284 0-15-6.716-15-15a1 1 0 0 1 2 0c0 7.18 5.82 13 13 13s13-5.82 13-13-5.82-13-13-13c-1.28 0-2.532.184-3.733.544a1 1 0 0 1-.573-1.917z" class="color-500"/></g></svg>