<svg xmlns="http://www.w3.org/2000/svg" width="56" height="56" class="wd-accent-time-clock wd-accent" focusable="false" role="presentation" viewBox="0 0 56 56"><g fill="none" fill-rule="nonzero" class="wd-icon-container"><path fill="#005DBA" d="M32 34a1 1 0 0 1 0 2h-4c-.928 0-1.042-.551-1.372-1.621l-1.302-3.782a1 1 0 1 1 1.89-.651l1.303 3.782a1 1 0 0 1 .053.272H32zm13-16h1a2 2 0 0 1 2 2v30a2 2 0 0 1-2 2H10a2 2 0 0 1-2-2V20a2 2 0 0 1 2-2h1V7a3 3 0 0 1 3-3h28a3 3 0 0 1 3 3v11zm-2 0V7a1 1 0 0 0-1-1H14a1 1 0 0 0-1 1v11h30zM17 9h8a1 1 0 0 1 0 2h-8a1 1 0 0 1 0-2zm0 4h8a1 1 0 0 1 0 2h-8a1 1 0 0 1 0-2zm14-4h8a1 1 0 0 1 0 2h-8a1 1 0 0 1 0-2zm0 4h8a1 1 0 0 1 0 2h-8a1 1 0 0 1 0-2zm-21 7v30h36V20H10zm18 28c-7.18 0-13-5.82-13-13s5.82-13 13-13 13 5.82 13 13-5.82 13-13 13zm0-2c6.075 0 11-4.925 11-11s-4.925-11-11-11-11 4.925-11 11 4.925 11 11 11zm0-2a9 9 0 1 1 0-18 9 9 0 0 1 0 18zm0-2a7 7 0 1 0 0-14 7 7 0 0 0 0 14z" class="color-500"/><path fill="#FFF" d="M32 34a1 1 0 0 1 0 2h-4c-.928 0-1.042-.551-1.372-1.621l-1.302-3.782a1 1 0 1 1 1.89-.651l1.303 3.782a1 1 0 0 1 .053.272H32zm11-16V7a1 1 0 0 0-1-1H14a1 1 0 0 0-1 1v11h30zM17 9h8a1 1 0 0 1 0 2h-8a1 1 0 0 1 0-2zm0 4h8a1 1 0 0 1 0 2h-8a1 1 0 0 1 0-2zm14-4h8a1 1 0 0 1 0 2h-8a1 1 0 0 1 0-2zm0 4h8a1 1 0 0 1 0 2h-8a1 1 0 0 1 0-2zm-21 7v30h36V20H10zm18 28c-7.18 0-13-5.82-13-13s5.82-13 13-13 13 5.82 13 13-5.82 13-13 13zm0-2c6.075 0 11-4.925 11-11s-4.925-11-11-11-11 4.925-11 11 4.925 11 11 11zm0-2a9 9 0 1 1 0-18 9 9 0 0 1 0 18zm0-2a7 7 0 1 0 0-14 7 7 0 0 0 0 14z" class="french-vanilla-100"/></g></svg>