<svg xmlns="http://www.w3.org/2000/svg" width="56" height="56" class="wd-accent-time-charts wd-accent" focusable="false" role="presentation" viewBox="0 0 56 56"><g fill="none" fill-rule="nonzero" class="wd-icon-container"><path fill="#005DBA" d="M41.435 41H45a1 1 0 0 1 0 2h-4a.998.998 0 0 1-.76-.35.997.997 0 0 1-.557-.597l-1.628-4.727a1 1 0 0 1 1.89-.651L41.436 41zm10.431 1.72C51.04 47.979 46.49 52 41 52c-5.035 0-9.28-3.383-10.586-8H6a2 2 0 0 1-2-2V10a2 2 0 0 1 2-2h44a2 2 0 0 1 2 2v32c0 .254-.047.497-.134.72zM50 34.675V10H6v32h24.045A11.14 11.14 0 0 1 30 41c0-6.075 4.925-11 11-11 3.72 0 7.01 1.847 9 4.674zM33 21h12a1 1 0 0 1 0 2H33a1 1 0 0 1 0-2zm0-4h12a1 1 0 0 1 0 2H33a1 1 0 0 1 0-2zm0 8h12a1 1 0 0 1 0 2H33a1 1 0 0 1 0-2zM18 35a8 8 0 1 1 0-16v8h8a8 8 0 0 1-8 8zm-6-8a6 6 0 0 0 11.659 2H16v-7.659c-2.33.824-4 3.047-4 5.659zm16-1h-9v-9a9 9 0 0 1 9 9zm13 24a9 9 0 1 0 0-18 9 9 0 0 0 0 18z" class="color-500"/><path fill="#FFF" d="M41.435 41H45a1 1 0 0 1 0 2h-4a.998.998 0 0 1-.76-.35.997.997 0 0 1-.557-.597l-1.628-4.727a1 1 0 0 1 1.89-.651L41.436 41zM50 34.674V10H6v32h24.045A11.14 11.14 0 0 1 30 41c0-6.075 4.925-11 11-11 3.72 0 7.01 1.847 9 4.674zM33 21h12a1 1 0 0 1 0 2H33a1 1 0 0 1 0-2zm0-4h12a1 1 0 0 1 0 2H33a1 1 0 0 1 0-2zm0 8h12a1 1 0 0 1 0 2H33a1 1 0 0 1 0-2zM18 35a8 8 0 1 1 0-16v8h8a8 8 0 0 1-8 8zm-6-8a6 6 0 0 0 11.659 2H16v-7.659c-2.33.824-4 3.047-4 5.659zm16-1h-9v-9a9 9 0 0 1 9 9zm13 24a9 9 0 1 0 0-18 9 9 0 0 0 0 18z" class="french-vanilla-100"/></g></svg>