<svg xmlns="http://www.w3.org/2000/svg" width="56" height="56" class="wd-accent-tools wd-accent" focusable="false" role="presentation" viewBox="0 0 56 56"><g fill="none" fill-rule="evenodd" class="wd-icon-container"><path fill="#005DBA" fill-rule="nonzero" d="M17.728 9.243l8.394 8.395a10.966 10.966 0 0 1 3.113-6.224 10.99 10.99 0 0 1 9.923-3.012c1.569.31 2.156 2.245 1.026 3.376l-5.828 5.828c.031.131.093.328.197.626l.122.35c.114.358.529.944 1.266 1.681.738.738 1.324 1.152 1.728 1.282l.304.107c.298.104.494.165.625.197l5.828-5.828c1.131-1.13 3.066-.543 3.377 1.025a10.99 10.99 0 0 1-3.012 9.924 10.975 10.975 0 0 1-8.394 3.205c-.273-.016-.82.049-1.345.197a5.161 5.161 0 0 0-.332.106l7.878 7.877h.586a2 2 0 0 1 1.664.89l2.828 4.244a2 2 0 0 1-.25 2.523l-1.414 1.414a2 2 0 0 1-2.523.25l-4.243-2.828a2 2 0 0 1-.89-1.664v-.586l-8.133-8.133-11.595 11.597a6 6 0 0 1-8.485-8.485l9.473-9.476L9.243 17.728a6 6 0 0 1 8.485-8.485zm3.303 20.273l-9.474 9.475a4 4 0 0 0 5.657 5.657L28.809 33.05l-2.596-2.595-.707.707a2 2 0 0 1-2.828 0l-1.647-1.647zm9.618-16.688a8.976 8.976 0 0 0-2.63 6.708l3.144 3.142a2 2 0 0 1 0 2.828l-.707.707 2.75 2.751c1.266-.675 2.696-.82 3.302-.786a8.978 8.978 0 0 0 6.869-2.622 8.991 8.991 0 0 0 2.464-8.121l-6 6c-.78.78-1.779.364-2.828 0-.715-.229-1.543-.815-2.486-1.757-.943-.943-1.528-1.772-1.757-2.486-.364-1.05-.78-2.048 0-2.829l6-5.999a8.991 8.991 0 0 0-8.121 2.464zm11.12 27.527L29.043 27.627l-1.415 1.415L40.355 41.77v1.414l4.243 2.828 1.414-1.414-2.828-4.243H41.77zM10.658 10.657a4 4 0 0 0 0 5.657l13.435 13.435 5.657-5.657-13.435-13.435a4 4 0 0 0-5.657 0zm4.95 2.121a1 1 0 0 1 1.414 0l9.9 9.9a1 1 0 0 1-1.415 1.414l-9.9-9.9a1 1 0 0 1 0-1.414zm-2.829 2.829a1 1 0 0 1 1.414 0l9.9 9.9a1 1 0 1 1-1.414 1.413l-9.9-9.9a1 1 0 0 1 0-1.413z" class="color-500"/><path fill="#FFF" d="M33.216 28.959c1.263-.67 2.688-.815 3.292-.781a8.978 8.978 0 0 0 6.869-2.622 8.991 8.991 0 0 0 2.464-8.121l-6 6c-.78.78-1.779.364-2.828 0-.715-.229-1.543-.815-2.486-1.757-.943-.943-1.528-1.772-1.757-2.486-.364-1.05-.78-2.048 0-2.829l6-5.999a8.991 8.991 0 0 0-8.121 2.464 8.976 8.976 0 0 0-2.63 6.69l3.163 3.164a2 2 0 0 1 0 2.828l-.707.708 2.741 2.741zm-4.174-1.332L41.77 40.355h1.414l2.828 4.243-1.414 1.414-4.243-2.828V41.77L27.627 29.042l1.415-1.415zm-8.003 1.882l1.658 1.658a2 2 0 0 0 2.828 0l.707-.707 2.585 2.585-11.603 11.603a4 4 0 1 1-5.657-5.657l9.482-9.482zm-4.725-18.852l13.435 13.435-5.657 5.657-13.435-13.435a4 4 0 1 1 5.657-5.657zm-2.122 4.95a1 1 0 0 0-1.414 1.414l9.9 9.9a1 1 0 0 0 1.414-1.415zm2.829-2.829a1 1 0 0 0-1.414 1.414l9.9 9.9a1 1 0 1 0 1.413-1.414z" class="french-vanilla-100"/></g></svg>