<svg xmlns="http://www.w3.org/2000/svg" width="56" height="56" class="wd-accent-toolbox wd-accent" focusable="false" role="presentation" viewBox="0 0 56 56"><g fill="none" fill-rule="nonzero" class="wd-icon-container"><path fill="#005DBA" d="M6 51.004a2 2 0 0 1-2-2v-15a2 2 0 0 1 .211-.894l3.858-7.716a2 2 0 0 1 .13-.221 6.984 6.984 0 0 1-2.93-2.76 6.991 6.991 0 0 1-.376-6.25c.647-1.516 2.748-1.643 3.572-.215l2 3.464 1.732-1-2-3.464c-.824-1.428.336-3.184 1.973-2.986a6.991 6.991 0 0 1 5.223 3.45 6.99 6.99 0 0 1 .283 6.451c.02.057.059.14.125.256L19.435 25H26l2.293-8.844-1.34-.31a2 2 0 0 1-1.499-2.398c.064-.276-.124-.57-.44-.644-.318-.073-.616.11-.68.386a2 2 0 0 1-2.398 1.499l-2.509-.58a2 2 0 0 1-1.499-2.398l1.517-6.57a2 2 0 0 1 2.399-1.5l2.508.58a2 2 0 0 1 1.5 2.399c-.065.276.123.57.44.644.317.073.615-.11.679-.386a2 2 0 0 1 2.399-1.499l10.036 2.316c4.705 1.086 8.297 4.757 9.294 9.344.426 1.961-1.98 3.258-3.384 1.823-1.942-1.984-4.797-2.863-6.76-2.417a2.006 2.006 0 0 1-2.405 1.525l-2.176-.502L32.469 25h3.823l.341-.735a6 6 0 0 1 10.734 0l4.422 8.845a2 2 0 0 1 .211.894v15a2 2 0 0 1-2 2H6zM6 49h26V35H6v14zm44 .004v-15l-4.422-8.844a4 4 0 0 0-7.156 0L34 34.004V49l16 .004zM33.292 31h-2.03l-.403 2h1.423l1.01-2zm2-4H20.59l1.154 2h12.548l1-2zm-6.473 6l.403-2h-2.72l-.522 2h2.84zM6.53 33h8.287l-3.94-6.878a2.1 2.1 0 0 0-.159-.24c-.095-.008-.207-.017-.116-.008a7.054 7.054 0 0 1-.379-.05l-.364.464L6.528 33zm15.215 0l-5.675-9.881c-.738-1.279-.28-1.906-.128-2.27a4.992 4.992 0 0 0-.28-4.437 4.992 4.992 0 0 0-3.732-2.464l2 3.464a2 2 0 0 1-.732 2.732l-1.732 1a2 2 0 0 1-2.732-.732l-2-3.464a4.992 4.992 0 0 0 .268 4.464 4.993 4.993 0 0 0 3.81 2.473c.357.038 1.058-.042 1.796 1.237L17.125 33h4.62zm2.213-.22l.478-1.78h-1.536l1.058 1.78zM30.429 25l1.596-7.982-1.782-.412L28.067 25h2.362zM25.297 9.022l-.408 1.765a2.628 2.628 0 0 1 1.12.259l.407-1.766a2.628 2.628 0 0 1-1.12-.258zm13.74 5.338c2.36-.176 5.42.764 7.708 3.103-.737-3.394-3.224-6.297-6.692-7.503l-1.016 4.4zM28.92 7.328l-1.517 6.57 9.198 2.124 1.517-6.57-9.198-2.124zM21.394 5.59l-1.517 6.57 2.509.58 1.517-6.57-2.51-.58zM42 31a3 3 0 1 1 0-6 3 3 0 0 1 0 6zm0-2a1 1 0 1 0 0-2 1 1 0 0 0 0 2z" class="color-500"/><path fill="#FFF" d="M6 49h26V35H6v14zm44 .004v-15l-4.422-8.844a4 4 0 0 0-7.156 0L34 34.004V49l16 .004zM33.292 31h-2.03l-.403 2h1.423l1.01-2zm2-4H20.59l1.154 2h12.548l1-2zm-6.473 6l.403-2h-2.72l-.522 2h2.84zM6.53 33h8.287l-3.94-6.878a2.1 2.1 0 0 0-.159-.24c-.095-.008-.207-.017-.116-.008a7.054 7.054 0 0 1-.379-.05l-.364.464L6.528 33zm15.215 0l-5.675-9.881c-.738-1.279-.28-1.906-.128-2.27a4.992 4.992 0 0 0-.28-4.437 4.992 4.992 0 0 0-3.732-2.464l2 3.464a2 2 0 0 1-.732 2.732l-1.732 1a2 2 0 0 1-2.732-.732l-2-3.464a4.992 4.992 0 0 0 .268 4.464 4.993 4.993 0 0 0 3.81 2.473c.357.038 1.058-.042 1.796 1.237L17.125 33h4.62zm2.213-.22l.478-1.78h-1.536l1.058 1.78zM30.429 25l1.596-7.982-1.782-.412L28.067 25h2.362zM25.297 9.022l-.408 1.765a2.628 2.628 0 0 1 1.12.259l.407-1.766a2.628 2.628 0 0 1-1.12-.258zm13.74 5.338c2.36-.176 5.42.764 7.708 3.103-.737-3.394-3.224-6.297-6.692-7.503l-1.016 4.4zM28.92 7.328l-1.517 6.57 9.198 2.124 1.517-6.57-9.198-2.124zM21.394 5.59l-1.517 6.57 2.509.58 1.517-6.57-2.51-.58zM42 31a3 3 0 1 1 0-6 3 3 0 0 1 0 6zm0-2a1 1 0 1 0 0-2 1 1 0 0 0 0 2z" class="french-vanilla-100"/></g></svg>