<svg xmlns="http://www.w3.org/2000/svg" width="56" height="56" class="wd-accent-tooth wd-accent" focusable="false" role="presentation" viewBox="0 0 56 56"><g fill="none" fill-rule="evenodd" class="wd-icon-container"><path fill="#005DBA" fill-rule="nonzero" d="M37.005 7c6.22 0 10.824 4.79 11 11 .214 7.521-6.19 9.717-6 19 .204 9.96-2.89 13-6 13s-5-5.932-5-13c0-2.996-1.453-4.976-3-5-1.546-.024-3 2.004-3 5 0 7.068-1.89 13-5 13-3.11 0-6.204-3.04-6-13 .19-9.283-6.214-11.479-6-19 .177-6.21 4.78-11 11-11 2.336 0 4.67 1 7 3 4.998-2 8.664-3 11-3zm0 2c-1.884 0-5.037.827-9.346 2.498 1.286.913 3.972 1.313 7.099.532a1 1 0 0 1 .485 1.94c-4.219 1.054-8.034.267-9.62-1.663l-.92-.79C22.713 9.81 20.824 9 19.006 9c-5.054 0-8.853 3.843-9 9.057-.067 2.322.502 3.96 2.066 6.66l.244.419.124.211.292.497c2.394 4.093 3.362 6.863 3.273 11.197-.16 7.822 1.619 10.959 4 10.959.44 0 1.143-.763 1.788-2.534.773-2.123 1.213-5.146 1.213-8.466 0-3.838 2.033-7.045 5.03-7 2.961.045 4.97 3.193 4.97 7 0 3.32.44 6.343 1.213 8.466.644 1.77 1.348 2.534 1.787 2.534 2.382 0 4.16-3.137 4-10.96-.088-4.333.88-7.103 3.274-11.196l.291-.497.124-.211.244-.418c1.565-2.701 2.134-4.34 2.068-6.661C45.858 12.843 42.06 9 37.006 9zM15 22a1 1 0 1 1 0 2 1 1 0 0 1 0-2zm-1.919-1.588c-.752-5.799 3.864-9.596 8.315-8.075a1 1 0 1 1-.647 1.892c-3.045-1.04-6.247 1.593-5.685 5.925a1 1 0 1 1-1.983.258z" class="color-500"/><path fill="#FFF" d="M35.243 13.97a1 1 0 1 0-.485-1.94c-3.127.78-5.813.38-7.1-.532C31.969 9.827 35.122 9 37.007 9c5.054 0 8.852 3.843 9 9.057.067 2.322-.502 3.96-2.067 6.66-.145.252-.697 1.193-.659 1.127-2.394 4.093-3.362 6.863-3.274 11.197.16 7.822-1.618 10.959-4 10.959-.439 0-1.143-.763-1.787-2.534-.773-2.123-1.213-5.146-1.213-8.466 0-3.807-2.009-6.955-4.97-7-2.997-.045-5.03 3.162-5.03 7 0 3.32-.44 6.343-1.213 8.466-.645 1.77-1.348 2.534-1.787 2.534-2.382 0-4.16-3.137-4-10.96.088-4.333-.88-7.103-3.274-11.196l-.66-1.126c-1.564-2.701-2.133-4.34-2.067-6.661.148-5.214 3.947-9.057 9-9.057 1.82 0 3.708.81 5.698 2.518l.92.79c1.586 1.929 5.401 2.716 9.62 1.662zm-13.847-1.633c-4.451-1.521-9.067 2.276-8.315 8.075a1 1 0 1 0 1.983-.258c-.562-4.332 2.64-6.966 5.685-5.925a1 1 0 1 0 .647-1.892zM15 24a1 1 0 1 0 0-2 1 1 0 0 0 0 2z" class="french-vanilla-100"/></g></svg>