<svg xmlns="http://www.w3.org/2000/svg" width="56" height="56" class="wd-accent-touch-id wd-accent" focusable="false" role="presentation" viewBox="0 0 56 56"><g fill="none" fill-rule="evenodd" class="wd-icon-container"><path fill="#005DBA" fill-rule="nonzero" d="M52.272 23.273a.59.59 0 1 1-1.157.233C48.649 11.276 36.736 3.361 24.507 5.827a.59.59 0 1 1-.234-1.157c12.87-2.595 25.404 5.734 27.999 18.603zM20.825 5.637a.59.59 0 0 1 .403 1.11c-10.431 3.79-16.617 14.698-14.4 25.69a.59.59 0 1 1-1.158.232C3.338 21.104 9.847 9.626 20.825 5.637zM52.744 27.19a.59.59 0 0 1-1.18.04 22.758 22.758 0 0 0-.437-3.726.59.59 0 0 1 1.157-.233c.262 1.3.415 2.61.46 3.919zM5.683 32.667a.59.59 0 0 1 1.157-.233c.066.326.138.648.216.964a.59.59 0 0 1-1.146.283c-.082-.333-.158-.67-.227-1.014zm17.747 18.09a.59.59 0 1 1-.887-.779 25.667 25.667 0 0 0 2.382-3.176.59.59 0 1 1 .996.633 26.848 26.848 0 0 1-2.49 3.322zm3.532-5.107a.59.59 0 0 1-1.042-.555 25.391 25.391 0 0 0 2.479-17.008.59.59 0 1 1 1.157-.234 26.571 26.571 0 0 1-2.594 17.797zm-.265 5.706a.59.59 0 0 1-.93-.727 28.52 28.52 0 0 0 5.096-10.242.59.59 0 0 1 1.14.302 29.7 29.7 0 0 1-5.306 10.667zm5.879-13.308a.59.59 0 0 1-1.164-.197 28.33 28.33 0 0 0-.173-10.34 2.309 2.309 0 0 0-2.727-1.818 2.322 2.322 0 0 0-1.818 2.735c1.593 7.796-.822 15.727-6.281 21.325a.59.59 0 0 1-.845-.824c5.189-5.32 7.484-12.856 5.97-20.266a3.503 3.503 0 0 1 2.74-4.127 3.489 3.489 0 0 1 4.118 2.745c.725 3.593.777 7.228.18 10.767zm-2.377 13.425a.59.59 0 1 1-.974-.666c.999-1.46 1.874-3.003 2.614-4.61a.59.59 0 1 1 1.072.493 32.674 32.674 0 0 1-2.712 4.783zm3.474-6.575a.59.59 0 0 1-1.1-.429 31.142 31.142 0 0 0 1.506-17.529 5.208 5.208 0 0 0-6.139-4.085.59.59 0 0 1-.233-1.157 6.388 6.388 0 0 1 7.53 5.01 32.321 32.321 0 0 1-1.564 18.19zM25.507 22.59a.59.59 0 0 1 .639.993A5.219 5.219 0 0 0 23.856 29a20.699 20.699 0 0 1-2.355 14.55.59.59 0 0 1-1.023-.59A19.52 19.52 0 0 0 22.7 29.235a6.4 6.4 0 0 1 2.808-6.646zM19.51 44.48a.59.59 0 1 1 .965.679 20.98 20.98 0 0 1-2.82 3.24.59.59 0 0 1-.807-.861 19.8 19.8 0 0 0 2.662-3.059zm14.407 6.54a.59.59 0 1 1-1.019-.597 34.061 34.061 0 0 0 4.022-24.053l-.053-.266a8.113 8.113 0 0 0-15.935 2.961l.102.507c1.297 6.431-1 12.955-5.87 17.172a.59.59 0 1 1-.773-.892 16.806 16.806 0 0 0 5.59-15.481h-.006l-.114-.563a9.293 9.293 0 0 1 7.273-10.947 9.293 9.293 0 0 1 10.947 7.274l.096.475-.007.003a35.236 35.236 0 0 1-4.253 24.407zm3.901-1.152a.59.59 0 1 1-1.061-.516 36.924 36.924 0 0 0 3.004-23.555c-1.2-5.961-7.005-9.819-12.965-8.617s-9.818 7.007-8.616 12.966a15.052 15.052 0 0 1-5.23 14.67.59.59 0 0 1-.747-.913 13.872 13.872 0 0 0 4.82-13.522c-1.33-6.6 2.94-13.027 9.54-14.358 6.599-1.33 13.026 2.94 14.355 9.54a38.104 38.104 0 0 1-3.1 24.305zm-26.792-7.223a.59.59 0 0 1-.74-.92 11.023 11.023 0 0 0 4.074-9.69.59.59 0 0 1 1.174-.118 12.203 12.203 0 0 1-4.508 10.728zM15.14 29.4a.59.59 0 0 1-1.174.122c-.804-7.696 4.385-14.797 12.024-16.337 4.59-.925 9.257.324 12.757 3.298a.59.59 0 1 1-.764.9 13.874 13.874 0 0 0-11.76-3.04C19.183 15.76 14.4 22.305 15.14 29.398zm24.418-10.445a.59.59 0 1 1 .898-.766 15.019 15.019 0 0 1 3.301 6.801c.728 3.607.97 7.247.733 10.852a.59.59 0 1 1-1.177-.078c.229-3.5-.006-7.036-.713-10.54a13.839 13.839 0 0 0-3.042-6.269zm3.586 18.69a.59.59 0 1 1 1.173.132 41.005 41.005 0 0 1-2.447 10.028.59.59 0 1 1-1.103-.422 39.825 39.825 0 0 0 2.377-9.739zm2.852 6.807a.59.59 0 0 1-1.14-.304 42.61 42.61 0 0 0 1.318-14.201.59.59 0 1 1 1.177-.089 43.79 43.79 0 0 1-1.355 14.594zm1.073-17.249a.59.59 0 0 1-1.169.16 43.483 43.483 0 0 0-.458-2.711C43.605 15.555 34.746 9.67 25.65 11.503a.59.59 0 0 1-.233-1.157c9.733-1.962 19.215 4.337 21.18 14.071.188.927.344 1.855.471 2.785zM22.493 11.196a.59.59 0 1 1 .424 1.102c-7.589 2.92-12.038 10.934-10.414 18.992a9.271 9.271 0 0 1-3.101 8.94.59.59 0 1 1-.764-.9 8.092 8.092 0 0 0 2.709-7.805c-1.74-8.626 3.023-17.202 11.146-20.329zM50.016 38.94a.59.59 0 1 1-1.171-.145c.273-2.19.386-4.401.338-6.619a.59.59 0 1 1 1.18-.026 46.698 46.698 0 0 1-.347 6.79zm.178-9.867a.59.59 0 1 1-1.176.103 46.225 46.225 0 0 0-.736-5.097 19.648 19.648 0 0 0-2.99-7.142.59.59 0 0 1 .978-.662 20.829 20.829 0 0 1 3.17 7.57c.35 1.737.6 3.481.754 5.228zm-5.9-15.282a.59.59 0 0 1-.865.802 19.682 19.682 0 0 0-18.35-5.927A19.668 19.668 0 0 0 10.89 20.16a.59.59 0 1 1-1.083-.47A20.848 20.848 0 0 1 24.846 7.509a20.862 20.862 0 0 1 19.449 6.282zM8.742 22.807a.59.59 0 0 1 1.143.293 19.61 19.61 0 0 0-.219 8.762 6.37 6.37 0 0 1-1.579 5.623.59.59 0 1 1-.865-.802 5.19 5.19 0 0 0 1.287-4.586 20.793 20.793 0 0 1 .233-9.29z" class="color-500"/></g></svg>