<svg xmlns="http://www.w3.org/2000/svg" width="56" height="56" fill="none" class="wd-accent-umbrella wd-accent" focusable="false" role="presentation" viewBox="0 0 56 56"><g class="wd-icon-container"><path fill="#0875E1" d="M27 25.802a1.99 1.99 0 0 1-.65-.605C25.631 24.148 24.4 23.5 23 23.5c-1.608 0-3.11.977-3.72 2.325-.709 1.567-2.934 1.567-3.644 0C15.015 24.452 13.583 23.5 12 23.5c-2.034 0-3.348.767-4.233 2.436C6.791 27.78 4 27.086 4 25 4 12.062 14.364 3 28 3s24 9.063 24 22c0 2.152-2.933 2.786-3.822.826C47.46 24.24 46.19 23.5 44 23.5c-1.583 0-3.015.952-3.636 2.325-.71 1.567-2.935 1.567-3.644 0-.61-1.348-2.112-2.325-3.72-2.325-1.401 0-2.632.648-3.35 1.697a1.99 1.99 0 0 1-.65.605V46c0 2.138 1.862 4 4 4s4-1.862 4-4a1 1 0 1 1 2 0c0 3.242-2.758 6-6 6s-6-2.758-6-6V25.802zM6 25c1.236-2.333 3.236-3.5 6-3.5a6.023 6.023 0 0 1 5.458 3.5c.9-1.986 3.065-3.5 5.542-3.5 2.123 0 3.945 1.025 5 2.567 1.055-1.542 2.877-2.567 5-2.567 2.477 0 4.643 1.514 5.542 3.5A6.023 6.023 0 0 1 44 21.5c2.942 0 4.942 1.167 6 3.5 0-12.15-9.85-20-22-20S6 12.85 6 25zM34.688 9.274c2.284 2.167 3.944 5.666 4.305 8.604a1 1 0 0 1-1.986.244c-.306-2.493-1.761-5.562-3.695-7.396a1 1 0 0 1 1.376-1.452zm-13.376 0a1 1 0 1 1 1.376 1.452c-1.934 1.834-3.39 4.903-3.695 7.396a1 1 0 1 1-1.985-.244c.36-2.938 2.02-6.437 4.304-8.604zM29 18a1 1 0 1 1-2 0v-8a1 1 0 1 1 2 0v8z" class="color-500"/><path fill="#fff" fill-rule="evenodd" d="M6 25C6 12.85 15.85 5 28 5s22 7.85 22 20c-1.058-2.333-3.058-3.5-6-3.5a6.023 6.023 0 0 0-5.458 3.5c-.9-1.986-3.065-3.5-5.542-3.5-2.123 0-3.945 1.025-5 2.567-1.055-1.542-2.877-2.567-5-2.567-2.477 0-4.643 1.514-5.542 3.5A6.023 6.023 0 0 0 12 21.5c-2.764 0-4.764 1.167-6 3.5zM34.688 9.274a1 1 0 0 0-1.376 1.452c1.934 1.834 3.39 4.903 3.696 7.396a1 1 0 1 0 1.985-.244c-.361-2.938-2.02-6.437-4.305-8.604zm-13.376 0c-2.284 2.167-3.944 5.666-4.305 8.604a1 1 0 1 0 1.985.244c.307-2.493 1.762-5.562 3.696-7.396a1 1 0 1 0-1.376-1.452zM29 18v-8a1 1 0 1 0-2 0v8a1 1 0 1 0 2 0z" class="french-vanilla-100" clip-rule="evenodd"/></g></svg>