<svg xmlns="http://www.w3.org/2000/svg" width="56" height="56" class="wd-accent-universal wd-accent" focusable="false" role="presentation" viewBox="0 0 56 56"><g fill="none" fill-rule="evenodd" class="wd-icon-container"><path fill="#005DBA" fill-rule="nonzero" d="M11.43 10.638a1 1 0 0 1 1.381 1.447c-.713.68-1.38 1.409-1.996 2.178a1 1 0 0 1-1.562-1.25c.672-.839 1.4-1.633 2.177-2.375zm-5.99 9.155a1 1 0 1 1 1.88.684A21.956 21.956 0 0 0 6 28a21.973 21.973 0 0 0 9.684 18.232 1 1 0 1 1-1.121 1.656A23.973 23.973 0 0 1 4 28c0-2.833.491-5.6 1.44-8.207zM19.266 50.36a1 1 0 1 1 .728-1.863A21.941 21.941 0 0 0 28 50a22.009 22.009 0 0 0 20.95-15.266 1 1 0 0 1 1.905.612C47.692 45.192 38.504 52 28 52a23.94 23.94 0 0 1-8.734-1.639zM38.7 39.938a1 1 0 0 1-.164 1.405A16.93 16.93 0 0 1 28 45a1 1 0 0 1 0-2 14.93 14.93 0 0 0 9.295-3.226 1 1 0 0 1 1.404.164zm-20.097-.247a15.016 15.016 0 0 0 2.655 1.712 1 1 0 1 1-.9 1.786 17.016 17.016 0 0 1-3.01-1.94 1 1 0 1 1 1.255-1.558zm16.095-27.32A17.002 17.002 0 0 1 45 28c0 3.642-1.15 7.113-3.248 9.996a1 1 0 0 1-1.617-1.177A14.926 14.926 0 0 0 43 28a15.003 15.003 0 0 0-9.091-13.792 1 1 0 0 1 .788-1.838zM28 19a9 9 0 1 1 0 18 9 9 0 0 1 0-18zm0 2a7 7 0 1 0 0 14 7 7 0 0 0 0-14zm0-10a1 1 0 0 1 0 2c-8.284 0-15 6.716-15 15 0 1.612.254 3.188.747 4.687a1 1 0 1 1-1.9.625A16.985 16.985 0 0 1 11 28c0-9.389 7.611-17 17-17zm0-7c13.255 0 24 10.745 24 24a1 1 0 0 1-2 0c0-12.15-9.85-22-22-22a21.89 21.89 0 0 0-11.298 3.119 1 1 0 1 1-1.029-1.715A23.89 23.89 0 0 1 28 4z" class="color-500"/></g></svg>