<svg xmlns="http://www.w3.org/2000/svg" width="56" height="56" class="wd-accent-upgrades wd-accent" focusable="false" role="presentation" viewBox="0 0 56 56"><g fill="none" fill-rule="nonzero" class="wd-icon-container"><path fill="#005DBA" d="M40 39.414l-1.293 1.293a1 1 0 0 1-1.414-1.414l3-3a1 1 0 0 1 1.414 0l3 3a1 1 0 0 1-1.414 1.414L42 39.414V45a1 1 0 0 1-2 0v-5.586zm7.945-6.945A10.978 10.978 0 0 1 52 41c0 6.075-4.925 11-11 11-2.923 0-5.58-1.14-7.55-3H10a2 2 0 0 1-2-2V37a2 2 0 0 1 2-2h21.779c.226-.347.472-.681.735-1H10a2 2 0 0 1-2-2V22a2 2 0 0 1 2-2h36a2 2 0 0 1 2 2v10c0 .162-.02.319-.055.469zM46 31.199V22H10v10h24.674c1.79-1.26 3.971-2 6.326-2 1.8 0 3.5.433 5 1.2zM30.75 37H10v10h21.779A10.949 10.949 0 0 1 30 41c0-1.411.266-2.76.75-4zM10 5h36a2 2 0 0 1 2 2v10a2 2 0 0 1-2 2H10a2 2 0 0 1-2-2V7a2 2 0 0 1 2-2zm0 2v10h36V7H10zm5 7a2 2 0 1 1 0-4 2 2 0 0 1 0 4zm0 15a2 2 0 1 1 0-4 2 2 0 0 1 0 4zm0 15a2 2 0 1 1 0-4 2 2 0 0 1 0 4zm26 6a9 9 0 1 0 0-18 9 9 0 0 0 0 18z" class="color-500"/><path fill="#FFF" d="M40 39.414l-1.293 1.293a1 1 0 0 1-1.414-1.414l3-3a1 1 0 0 1 1.414 0l3 3a1 1 0 0 1-1.414 1.414L42 39.414V45a1 1 0 0 1-2 0v-5.586zm6-8.215V22H10v10h24.674c1.79-1.26 3.971-2 6.326-2 1.8 0 3.5.433 5 1.2zM30.75 37H10v10h21.779A10.949 10.949 0 0 1 30 41c0-1.411.266-2.76.75-4zM10 7v10h36V7H10zm5 7a2 2 0 1 1 0-4 2 2 0 0 1 0 4zm0 15a2 2 0 1 1 0-4 2 2 0 0 1 0 4zm0 15a2 2 0 1 1 0-4 2 2 0 0 1 0 4zm26 6a9 9 0 1 0 0-18 9 9 0 0 0 0 18z" class="french-vanilla-100"/></g></svg>