<svg xmlns="http://www.w3.org/2000/svg" width="56" height="56" fill="none" class="wd-accent-video-playlist wd-accent" focusable="false" role="presentation" viewBox="0 0 56 56"><g class="wd-icon-container"><g fill="#fff" class="french-vanilla-100"><path d="M17 13a1 1 0 0 1 1-1h20a1 1 0 0 1 1 1v1H17v-1zM14 16a1 1 0 0 0-1 1v1h30v-1a1 1 0 0 0-1-1H14z"/><path fill-rule="evenodd" d="M10 20a1 1 0 0 0-1 1v22a1 1 0 0 0 1 1h36a1 1 0 0 0 1-1V21a1 1 0 0 0-1-1H10zm22.725 11.49v.005c.17.1.275.296.275.508a.588.588 0 0 1-.275.508l-6.923 4.401a.483.483 0 0 1-.54.011.592.592 0 0 1-.262-.519v-8.809a.592.592 0 0 1 .263-.518.483.483 0 0 1 .539.01l6.923 4.402z" clip-rule="evenodd"/></g><g fill="#0875E1" class="color-500"><path d="M32.725 31.49v.005c.17.1.275.296.275.508a.588.588 0 0 1-.275.508l-6.923 4.401a.483.483 0 0 1-.54.011.592.592 0 0 1-.262-.519v-8.809a.592.592 0 0 1 .263-.518.483.483 0 0 1 .539.01l6.923 4.402z"/><path fill-rule="evenodd" d="M15 13a3 3 0 0 1 3-3h20a3 3 0 0 1 3 3v1h1a3 3 0 0 1 3 3v1h1a3 3 0 0 1 3 3v22a3 3 0 0 1-3 3H10a3 3 0 0 1-3-3V21a3 3 0 0 1 3-3h1v-1a3 3 0 0 1 3-3h1v-1zm24 0v1H17v-1a1 1 0 0 1 1-1h20a1 1 0 0 1 1 1zm-25 3h28a1 1 0 0 1 1 1v1H13v-1a1 1 0 0 1 1-1zm-4 4a1 1 0 0 0-1 1v22a1 1 0 0 0 1 1h36a1 1 0 0 0 1-1V21a1 1 0 0 0-1-1H10z" clip-rule="evenodd"/></g></g></svg>