<svg xmlns="http://www.w3.org/2000/svg" width="56" height="56" class="wd-accent-video-camera wd-accent" focusable="false" role="presentation" viewBox="0 0 56 56"><g fill="none" fill-rule="evenodd" class="wd-icon-container"><path fill="#005DBA" fill-rule="nonzero" d="M13 15a2 2 0 0 1 2 2v1h1v-1a2 2 0 0 1 2-2h2a2 2 0 0 1 2 2v1h14a2 2 0 0 1 2 2v3.27l9.631-4.94A3 3 0 0 1 52 21v16a3 3 0 0 1-4.369 2.67L38 34.73V38a2 2 0 0 1-2 2H6a2 2 0 0 1-2-2V20a2 2 0 0 1 2-2h3v-1a2 2 0 0 1 2-2zm23 5H6v18h30V20zm13.89.544a1 1 0 0 0-1.346-.434l-.544.28V37.61l.544.279A1 1 0 0 0 50 37V21a1 1 0 0 0-.11-.456zm-3.89.87l-7.456 3.824a1 1 0 0 0-.544.89v5.744a1 1 0 0 0 .544.89L46 36.586V21.415zM10 22a1 1 0 1 1 0 2 1 1 0 0 1 0-2zm22 0a1 1 0 0 1 0 2H14a1 1 0 0 1 0-2zm-12-5h-2v1h2v-1zm-7 0h-2v1h2v-1z" class="color-500"/><path fill="#FFF" d="M6 20h30v18H6V20zm40 1.415v15.17l-7.456-3.823a1 1 0 0 1-.544-.89v-5.744a1 1 0 0 1 .544-.89L46 21.415zm2-1.026l.544-.279A1 1 0 0 1 50 21v16a1 1 0 0 1-1.456.89L48 37.61V20.389zM10 24a1 1 0 1 0 0-2 1 1 0 0 0 0 2zm4-2a1 1 0 0 0 0 2h18a1 1 0 0 0 0-2H14zm4-5v1h2v-1h-2zm-7 0v1h2v-1h-2z" class="french-vanilla-100"/></g></svg>