<svg xmlns="http://www.w3.org/2000/svg" width="56" height="56" class="wd-accent-video-camera-alt wd-accent" focusable="false" role="presentation" viewBox="0 0 56 56"><g fill="none" fill-rule="evenodd" class="wd-icon-container"><path fill="#005DBA" fill-rule="nonzero" d="M43.83 14.638a5.436 5.436 0 0 1 0 7.723c-2.014 2.015-8.486 1.319-11.125-.55L32.08 24H36a2 2 0 0 1 2 2v2.391l9.832-4.155A3 3 0 0 1 52 27v16a3 3 0 0 1-4.168 2.763L38 41.608V44a2 2 0 0 1-2 2H6a2 2 0 0 1-2-2V26a2 2 0 0 1 1.999-2c0-.18.025-.365.078-.55l2-7A2 2 0 0 1 10 15h22c.272 0 .529.053.761.149 2.673-1.84 9.07-2.511 11.07-.511zm6.091 11.973a1 1 0 0 0-1.31-.532l-.611.258v17.326l.61.258A1 1 0 0 0 50 43V27a1 1 0 0 0-.079-.39zM36 26H6v18h30V26zm10 1.182l-7.39 3.122a1 1 0 0 0-.61.922v7.548a1 1 0 0 0 .61.92L46 42.818V27.182zM31 28a2 2 0 0 1 2 2v10a2 2 0 0 1-2 2H19a2 2 0 0 1-2-2V30a2 2 0 0 1 2-2zm-18 0a2 2 0 0 1 2 2v10a2 2 0 0 1-2 2h-2a2 2 0 0 1-2-2V30a2 2 0 0 1 2-2zm18 2H19v10h12V30zm-18 0h-2v10h2V30zm13.812-9H12.988l-.9 3h13.91c.001-.19.028-.382.086-.575L26.812 21zM32 17H10l-2 7h2l1.5-5h18L28 24h2l2-7zm1.984-.267c.035.263.018.54-.061.816l-.403 2.306.085.113c1.366 1.366 7.445 2.345 8.811.98a3.436 3.436 0 0 0 0-4.896c-1.264-1.265-6.567-.52-8.432.681z" class="color-500"/><path fill="#FFF" d="M49.921 26.616a1 1 0 0 1 .079.389v16a1 1 0 0 1-1.39.92l-.61-.257V26.342l.61-.258a1 1 0 0 1 1.311.532zM36 26.005v18H6v-18h30zm10 1.182v15.636L38.61 39.7a1 1 0 0 1-.61-.921V31.23a1 1 0 0 1 .61-.921L46 27.187zm-15 .818H19a2 2 0 0 0-2 2v10a2 2 0 0 0 2 2h12a2 2 0 0 0 2-2v-10a2 2 0 0 0-2-2zm-18 0h-2a2 2 0 0 0-2 2v10a2 2 0 0 0 2 2h2a2 2 0 0 0 2-2v-10a2 2 0 0 0-2-2zm18 2v10H19v-10h12zm-18 0v10h-2v-10h2zm19-13l-2 7h-2l1.5-5h-18l-1.5 5H8l2-7h22zm1.984-.266c1.865-1.202 7.168-1.946 8.432-.682a3.436 3.436 0 0 1 0 4.895c-1.366 1.367-7.445.387-8.811-.979l-.085-.112.403-2.307c.079-.276.096-.552.06-.815z" class="french-vanilla-100"/></g></svg>