<svg xmlns="http://www.w3.org/2000/svg" width="56" height="56" class="wd-accent-vr wd-accent" focusable="false" role="presentation" viewBox="0 0 56 56"><g fill="none" fill-rule="nonzero" class="wd-icon-container"><path fill="#005DBA" d="M14 20.596V18c0-7.732 6.268-14 14-14 5.97 0 11.068 3.737 13.08 9H44a5 5 0 0 1 5 5v4a4.98 4.98 0 0 1-1.163 3.205 4.686 4.686 0 0 1-.407 1.008l-.37.675A6 6 0 0 1 41.858 30a14.007 14.007 0 0 1-6.643 10H38c6.627 0 12 5.373 12 12H6c0-6.627 5.373-12 12-12h2.785a14.007 14.007 0 0 1-6.643-10.001C13.052 30.075 12 29.228 12 28v-5a2 2 0 0 1 .89-1.664l1.11-.74zm3.164-1.592a7.001 7.001 0 0 1 4.458-5.078l1.243-.449c.282-.133.579-.24.887-.32l.105-.038a2 2 0 0 1 .858-.111A5.08 5.08 0 0 1 25 13h13.912C37.016 8.869 32.843 6 28 6c-6.627 0-12 5.373-12 12v1.268a1.963 1.963 0 0 1 1.164-.264zM28 40c5.946 0 10.882-4.325 11.834-10H24a6.988 6.988 0 0 1-5.503-2.673 1.999 1.999 0 0 1-.388.337l-2.064 1.377C16.572 35.18 21.723 40 28 40zm-4-12h17.8a4 4 0 0 0 2.67-1.022A5.062 5.062 0 0 1 44 27H25a5 5 0 0 1-5-5v-4c0-.178.01-.353.027-.526A4.995 4.995 0 0 0 19 20.51V23a5 5 0 0 0 5 5zm14 14H18c-4.838 0-8.873 3.436-9.8 8h39.6c-.927-4.564-4.962-8-9.8-8zM25 15a3 3 0 0 0-3 3v4a3 3 0 0 0 3 3h19a3 3 0 0 0 3-3v-4a3 3 0 0 0-3-3H25zm-11 8v5l3-2v-5l-3 2z" class="color-500"/><path fill="#FFF" d="M17.164 19.004a7.001 7.001 0 0 1 4.458-5.078l1.243-.449c.282-.133.579-.24.887-.32l.105-.038a2 2 0 0 1 .858-.111A5.08 5.08 0 0 1 25 13h13.912C37.016 8.869 32.843 6 28 6c-6.627 0-12 5.373-12 12v1.268a1.963 1.963 0 0 1 1.164-.264zM28 40c5.946 0 10.882-4.325 11.834-10H24a6.988 6.988 0 0 1-5.503-2.673 1.999 1.999 0 0 1-.388.337l-2.064 1.377C16.572 35.18 21.723 40 28 40zm-4-12h17.8a4 4 0 0 0 2.67-1.022A5.062 5.062 0 0 1 44 27H25a5 5 0 0 1-5-5v-4c0-.178.01-.353.027-.526A4.995 4.995 0 0 0 19 20.51V23a5 5 0 0 0 5 5zm14 14H18c-4.838 0-8.873 3.436-9.8 8h39.6c-.927-4.564-4.962-8-9.8-8zM25 15a3 3 0 0 0-3 3v4a3 3 0 0 0 3 3h19a3 3 0 0 0 3-3v-4a3 3 0 0 0-3-3H25zm-11 8v5l3-2v-5l-3 2z" class="french-vanilla-100"/></g></svg>