<svg xmlns="http://www.w3.org/2000/svg" width="56" height="56" class="wd-accent-web-window-write wd-accent" focusable="false" role="presentation" viewBox="0 0 56 56"><g fill="none" fill-rule="nonzero" class="wd-icon-container"><path fill="#005DBA" d="M28.227 32.506l.904.136a2 2 0 0 1 1.127.574l.642.652 5.853-11.487-2.673-1.362-5.853 11.487zm3.518 4.109a1.988 1.988 0 0 1-.388.546l-3.575 3.74c-.835.875-2.053.763-2.795.099H11a1 1 0 1 1 0-2h13.398l.896-4.928a1.988 1.988 0 0 1 .214-.635l8.606-16.89a1.99 1.99 0 0 1 .692-.77 1.99 1.99 0 0 1 .216-1.012l.908-1.782a3 3 0 0 1 4.035-1.311l.89.454a3 3 0 0 1 1.312 4.035l-.908 1.782a1.99 1.99 0 0 1-.693.77c.018.339-.05.687-.215 1.012l-8.606 16.89zm3.243-17.378l2.673 1.362.908-1.782-2.673-1.362-.908 1.782zM33.09 14l-1.019 2H6v30h44V16h-5.585l.003-.005c.3-.65.347-1.352.183-1.995H50v-4H6v4h27.091zm-3.567 7l-1.019 2H11a1 1 0 0 1 0-2h18.524zm12.346 0H45a1 1 0 0 1 0 2h-4.149l1.019-2zm-15.403 6l-1.019 2H11a1 1 0 1 1 0-2h15.467zm12.346 0H45a1 1 0 0 1 0 2h-7.206l1.019-2zM23.41 33l-1.019 2H11a1 1 0 1 1 0-2h12.41zm12.346 0H45a1 1 0 0 1 0 2H34.737l1.019-2zM52 14h.011v2H52v30a2 2 0 0 1-2 2H6a2 2 0 0 1-2-2V10a2 2 0 0 1 2-2h44a2 2 0 0 1 2 2v4zM8 13a1 1 0 1 1 0-2 1 1 0 0 1 0 2zm3 0a1 1 0 1 1 0-2 1 1 0 0 1 0 2zm3 0a1 1 0 1 1 0-2 1 1 0 0 1 0 2zm25.057.454a1 1 0 0 0-1.345.437l-.908 1.782 2.673 1.362.908-1.782a1 1 0 0 0-.437-1.345l-.891-.454zM27.27 34.384l-.933 5.136 3.606-3.774-1.11-1.126-1.563-.236z" class="color-500"/><path fill="#FFF" d="M28.227 32.506l.904.136a2 2 0 0 1 1.127.574l.642.652 5.853-11.487-2.673-1.362-5.853 11.487zm3.518 4.109a1.988 1.988 0 0 1-.388.546l-3.575 3.74c-.835.875-2.053.763-2.795.099H11a1 1 0 1 1 0-2h13.398l.896-4.928a1.988 1.988 0 0 1 .214-.635l8.606-16.89a1.99 1.99 0 0 1 .692-.77 1.99 1.99 0 0 1 .216-1.012l.908-1.782a3 3 0 0 1 4.035-1.311l.89.454a3 3 0 0 1 1.312 4.035l-.908 1.782a1.99 1.99 0 0 1-.693.77c.018.339-.05.687-.215 1.012l-8.606 16.89zm3.243-17.378l2.673 1.362.908-1.782-2.673-1.362-.908 1.782zM33.09 14l-1.019 2H6v30h44V16h-5.585l.003-.005c.3-.65.347-1.352.183-1.995H50v-4H6v4h27.091zm-3.567 7l-1.019 2H11a1 1 0 0 1 0-2h18.524zm12.346 0H45a1 1 0 0 1 0 2h-4.149l1.019-2zm-15.403 6l-1.019 2H11a1 1 0 1 1 0-2h15.467zm12.346 0H45a1 1 0 0 1 0 2h-7.206l1.019-2zM23.41 33l-1.019 2H11a1 1 0 1 1 0-2h12.41zm12.346 0H45a1 1 0 0 1 0 2H34.737l1.019-2zM8 13a1 1 0 1 1 0-2 1 1 0 0 1 0 2zm3 0a1 1 0 1 1 0-2 1 1 0 0 1 0 2zm3 0a1 1 0 1 1 0-2 1 1 0 0 1 0 2zm25.057.454a1 1 0 0 0-1.345.437l-.908 1.782 2.673 1.362.908-1.782a1 1 0 0 0-.437-1.345l-.891-.454zM27.27 34.384l-.933 5.136 3.606-3.774-1.11-1.126-1.563-.236z" class="french-vanilla-100"/></g></svg>