<svg xmlns="http://www.w3.org/2000/svg" width="56" height="56" class="wd-accent-web-window-play wd-accent" focusable="false" role="presentation" viewBox="0 0 56 56"><g fill="none" fill-rule="nonzero" class="wd-icon-container"><path fill="#005DBA" d="M18 34a4.002 4.002 0 0 1 3.874 3H45a1 1 0 0 1 0 2H21.874a4.002 4.002 0 0 1-7.748 0H11a1 1 0 0 1 0-2h3.126c.444-1.725 2.01-3 3.874-3zm32-20v-4H6v4h44zm0 2H6v30h44V16zM6 8h44a2 2 0 0 1 2 2v36a2 2 0 0 1-2 2H6a2 2 0 0 1-2-2V10a2 2 0 0 1 2-2zm2 5a1 1 0 1 1 0-2 1 1 0 0 1 0 2zm3 0a1 1 0 1 1 0-2 1 1 0 0 1 0 2zm3 0a1 1 0 1 1 0-2 1 1 0 0 1 0 2zm18.69 13.49a.575.575 0 1 1 0 1.021l-7.788 4.401a.6.6 0 0 1-.607.011.574.574 0 0 1-.295-.519v-8.808a.574.574 0 0 1 .295-.52.6.6 0 0 1 .607.012l7.789 4.401zM18 40a2 2 0 1 0 0-4 2 2 0 0 0 0 4z" class="color-500"/><path fill="#FFF" d="M14.126 37a4.002 4.002 0 0 1 7.748 0H45a1 1 0 0 1 0 2H21.874a4.002 4.002 0 0 1-7.748 0H11a1 1 0 0 1 0-2h3.126zM50 14v-4H6v4h44zm0 2H6v30h44V16zM8 13a1 1 0 1 1 0-2 1 1 0 0 1 0 2zm3 0a1 1 0 1 1 0-2 1 1 0 0 1 0 2zm3 0a1 1 0 1 1 0-2 1 1 0 0 1 0 2zm18.69 13.49v.005c.191.1.31.296.31.508a.575.575 0 0 1-.31.508l-7.788 4.401a.6.6 0 0 1-.607.011.574.574 0 0 1-.295-.519v-8.808a.574.574 0 0 1 .295-.52.6.6 0 0 1 .607.012l7.789 4.401zM18 40a2 2 0 1 0 0-4 2 2 0 0 0 0 4z" class="french-vanilla-100"/></g></svg>