<svg xmlns="http://www.w3.org/2000/svg" width="56" height="56" class="wd-accent-weights wd-accent" focusable="false" role="presentation" viewBox="0 0 56 56"><g fill="none" fill-rule="evenodd" class="wd-icon-container"><path fill="#005DBA" fill-rule="nonzero" d="M19 15a3 3 0 0 1 3 3v6h12v-6a3 3 0 0 1 3-3h2a3 3 0 0 1 3 3v.17c.313-.11.65-.17 1-.17h2a3 3 0 0 1 3 3v3h2a2 2 0 0 1 2 2v4a2 2 0 0 1-2 2h-2v3a3 3 0 0 1-3 3h-2c-.35 0-.687-.06-1-.17V38a3 3 0 0 1-3 3h-2a3 3 0 0 1-3-3v-6H22v6a3 3 0 0 1-3 3h-2a3 3 0 0 1-3-3v-.17c-.313.11-.65.17-1 .17h-2a3 3 0 0 1-3-3v-3H6a2 2 0 0 1-2-2v-4a2 2 0 0 1 2-2h2v-3a3 3 0 0 1 3-3h2c.35 0 .687.06 1 .17V18a3 3 0 0 1 3-3h2zm0 2h-2a1 1 0 0 0-1 1v20a1 1 0 0 0 1 1h2a1 1 0 0 0 1-1V18a1 1 0 0 0-1-1zm20 0h-2a1 1 0 0 0-1 1v20a1 1 0 0 0 1 1h2a1 1 0 0 0 1-1V18a1 1 0 0 0-1-1zm-26 3h-2a1 1 0 0 0-1 1v14a1 1 0 0 0 1 1h2a1 1 0 0 0 1-1V21a1 1 0 0 0-1-1zm32 0h-2a1 1 0 0 0-1 1v14a1 1 0 0 0 1 1h2a1 1 0 0 0 1-1V21a1 1 0 0 0-1-1zM8 26H6v4h2v-4zm42 0h-2v4h2v-4zm-16 0H22v4h12v-4z" class="color-500"/><path fill="#FFF" d="M8 26v4H6v-4h2zm42 0v4h-2v-4h2zm-16 0v4H22v-4h12zm-23-6h2a1 1 0 0 1 1 1v14a1 1 0 0 1-1 1h-2a1 1 0 0 1-1-1V21a1 1 0 0 1 1-1zm32 0h2a1 1 0 0 1 1 1v14a1 1 0 0 1-1 1h-2a1 1 0 0 1-1-1V21a1 1 0 0 1 1-1zm-26-3h2a1 1 0 0 1 1 1v20a1 1 0 0 1-1 1h-2a1 1 0 0 1-1-1V18a1 1 0 0 1 1-1zm20 0h2a1 1 0 0 1 1 1v20a1 1 0 0 1-1 1h-2a1 1 0 0 1-1-1V18a1 1 0 0 1 1-1z" class="french-vanilla-100"/></g></svg>