<svg xmlns="http://www.w3.org/2000/svg" width="56" height="56" class="wd-accent-worksheets wd-accent" focusable="false" role="presentation" viewBox="0 0 56 56"><g fill="none" fill-rule="nonzero" class="wd-icon-container"><path fill="#005DBA" d="M29 37h9v-3h-9v3zm0 2v3h9v-3h-9zm21-2v-3H40v3h10zm0 2H40v3h10v-3zm-32-2h9v-3h-9v3zm0 2v3h9v-3h-9zM6 37h10v-3H6v3zm0 2v3h10v-3H6zm23-7h9v-3h-9v3zm21 0v-3H40v3h10zm-32 0h9v-3h-9v3zM6 32h10v-3H6v3zm23-5h9v-3h-9v3zm21-3H40v3h10v-3zM6 27h10v-3H6v3zm32-8h-9v3h9v-3zm2 0v3h10v-3H40zm-13 0h-9v3h9v-3zm-11 0H6v3h10v-3zm34-2v-4H6v4h44zM6 11h44a2 2 0 0 1 2 2v29a2 2 0 0 1-2 2H6a2 2 0 0 1-2-2V13a2 2 0 0 1 2-2zm2 3a1 1 0 1 1 0 2 1 1 0 0 1 0-2zm3 0a1 1 0 1 1 0 2 1 1 0 0 1 0-2zm3 0a1 1 0 1 1 0 2 1 1 0 0 1 0-2z" class="color-500"/><path fill="#FFF" d="M29 37h9v-3h-9v3zm0 2v3h9v-3h-9zm21-2v-3H40v3h10zm0 2H40v3h10v-3zm-32-2h9v-3h-9v3zm0 2v3h9v-3h-9zM6 37h10v-3H6v3zm0 2v3h10v-3H6zm23-7h9v-3h-9v3zm21 0v-3H40v3h10zm-32 0h9v-3h-9v3zM6 32h10v-3H6v3zm23-5h9v-3h-9v3zm21-3H40v3h10v-3zM6 27h10v-3H6v3zm32-8h-9v3h9v-3zm2 0v3h10v-3H40zm-13 0h-9v3h9v-3zm-11 0H6v3h10v-3zm34-2v-4H6v4h44zM8 14a1 1 0 1 1 0 2 1 1 0 0 1 0-2zm3 0a1 1 0 1 1 0 2 1 1 0 0 1 0-2zm3 0a1 1 0 1 1 0 2 1 1 0 0 1 0-2z" class="french-vanilla-100"/></g></svg>