<svg xmlns="http://www.w3.org/2000/svg" width="56" height="56" fill="none" class="wd-accent-workday-byok wd-accent" focusable="false" role="presentation" viewBox="0 0 56 56"><g class="wd-icon-container"><g fill="#0875E1" class="color-500"><path d="M31 4a3 3 0 1 1-6 0 3 3 0 0 1 6 0zM55 28a3 3 0 1 1-6 0 3 3 0 0 1 6 0zM4 31a3 3 0 1 0 0-6 3 3 0 0 0 0 6zM31 52a3 3 0 1 1-6 0 3 3 0 0 1 6 0zM22.88 5.574a1 1 0 1 0-.443-1.95 24.888 24.888 0 0 0-12.115 6.698 24.888 24.888 0 0 0-6.698 12.115 1 1 0 0 0 1.95.443 22.888 22.888 0 0 1 6.163-11.143A22.888 22.888 0 0 1 22.88 5.573zM33.563 3.624a1 1 0 0 0-.443 1.95 22.888 22.888 0 0 1 11.144 6.162 22.889 22.889 0 0 1 6.162 11.144 1 1 0 1 0 1.95-.443 24.887 24.887 0 0 0-6.698-12.115 24.888 24.888 0 0 0-12.115-6.698zM5.574 33.12a1 1 0 1 0-1.95.443 24.888 24.888 0 0 0 6.698 12.115 24.888 24.888 0 0 0 12.115 6.698 1 1 0 1 0 .443-1.95 22.887 22.887 0 0 1-11.143-6.163A22.887 22.887 0 0 1 5.574 33.12zM52.377 33.563a1 1 0 0 0-1.95-.443 22.889 22.889 0 0 1-6.163 11.144 22.888 22.888 0 0 1-11.144 6.162 1 1 0 1 0 .443 1.95 24.887 24.887 0 0 0 12.115-6.698 24.888 24.888 0 0 0 6.699-12.115zM31 24c0 .078-.003.155-.009.23v.011a3.002 3.002 0 0 1-1.977 2.583l.606 5.341a.75.75 0 0 1-.745.835h-1.773a.75.75 0 0 1-.747-.813l.536-5.363a3.077 3.077 0 0 1-.869-.568A3.001 3.001 0 1 1 31 24z"/><path fill-rule="evenodd" d="M39.286 16.73c.388.13.66.48.676.889.18 4.308-.215 11.383-2.553 15.365C33.987 38.812 28 43 28 43s-5.99-4.188-9.413-10.016C16.24 28.985 15.86 21.927 16.04 17.62c.017-.41.29-.761.68-.89L28.055 13l11.23 3.73zm-21.272 1.68l10.04-3.303 9.933 3.3a45.56 45.56 0 0 1-.286 6.323c-.343 2.873-.995 5.502-2.017 7.241-1.572 2.678-3.769 5.03-5.619 6.737A39.561 39.561 0 0 1 28 40.486a39.532 39.532 0 0 1-2.067-1.779c-1.851-1.706-4.049-4.058-5.621-6.736-1.027-1.748-1.678-4.376-2.018-7.246a45.55 45.55 0 0 1-.28-6.314z" clip-rule="evenodd"/><path fill-rule="evenodd" d="M42.596 13.85a1.962 1.962 0 0 1 1.35 1.777C44.17 21.328 43.81 29.81 40.778 35c-4.555 7.8-12.781 13-12.781 13s-8.222-5.2-12.777-13c-3.044-5.21-3.392-13.67-3.165-19.369a1.962 1.962 0 0 1 1.355-1.78L27.444 9.21a2 2 0 0 1 1.262.002l13.89 4.639zm-28.543 1.896l14.019-4.638 13.876 4.634c.099 2.537.078 5.622-.252 8.688-.396 3.671-1.214 7.113-2.644 9.561-2.124 3.638-5.142 6.722-7.681 8.922a46.673 46.673 0 0 1-3.373 2.665c-.81-.58-2.01-1.486-3.37-2.664-2.54-2.2-5.556-5.285-7.68-8.923-1.437-2.46-2.255-5.902-2.648-9.57-.328-3.06-.347-6.139-.247-8.675z" clip-rule="evenodd"/></g><g fill="#fff" fill-rule="evenodd" class="french-vanilla-100" clip-rule="evenodd"><path d="M28.053 15.106l-10.04 3.305a45.55 45.55 0 0 0 .281 6.314c.34 2.87.991 5.498 2.018 7.246 1.572 2.678 3.77 5.03 5.62 6.736A39.57 39.57 0 0 0 28 40.487a39.561 39.561 0 0 0 2.065-1.78c1.85-1.706 4.047-4.058 5.62-6.736 1.02-1.74 1.673-4.368 2.016-7.24.267-2.24.33-4.49.286-6.325l-9.934-3.3zm2.938 9.125a3.09 3.09 0 0 0-.006-.538 3 3 0 1 0-4.963 2.563c.258.238.553.432.869.568l-.536 5.362a.75.75 0 0 0 .747.814h1.773a.75.75 0 0 0 .745-.835l-.606-5.34.154-.06a3.002 3.002 0 0 0 1.822-2.524l.001-.01z"/><path d="M14.053 15.746l14.019-4.639 13.876 4.635c.099 2.537.078 5.622-.252 8.688-.396 3.671-1.214 7.113-2.644 9.561-2.124 3.638-5.142 6.722-7.681 8.922a46.673 46.673 0 0 1-3.373 2.664c-.81-.58-2.01-1.485-3.37-2.663-2.54-2.2-5.556-5.285-7.68-8.923-1.437-2.46-2.255-5.902-2.648-9.57-.328-3.06-.347-6.139-.247-8.675zm25.233.984c.388.13.66.48.676.888.18 4.308-.215 11.383-2.553 15.366C33.987 38.812 28 43 28 43s-5.99-4.188-9.413-10.017c-2.347-3.998-2.728-11.056-2.548-15.362.017-.41.29-.761.68-.89L28.055 13l11.23 3.73z"/></g></g></svg>