<svg xmlns="http://www.w3.org/2000/svg" width="56" height="56" class="wd-accent-yoga wd-accent" focusable="false" role="presentation" viewBox="0 0 56 56"><g fill="none" fill-rule="nonzero" class="wd-icon-container"><path fill="#005DBA" d="M22.248 15.401c.923-1.736 2.062-3.58 3.414-5.538a2 2 0 0 1 3.291 0c1.334 1.932 2.461 3.754 3.378 5.47 1.632-1.101 3.506-2.197 5.622-3.292a2 2 0 0 1 2.906 1.545c.202 1.734.33 3.36.385 4.88 1.959-.35 4.143-.593 6.552-.734a2 2 0 0 1 2.027 2.593c-2.211 7.07-4.834 11.84-8.016 14.326-.774.606-1.61 1.1-2.507 1.485 1.266 1.092 2.218 2.936 2.999 5.54a2 2 0 0 1-1.73 2.567c-3.04.282-5.273.005-6.782-1.013a5.523 5.523 0 0 1-1.268-1.197c-.777 1.26-2.12 2.56-3.998 3.994a2 2 0 0 1-2.427 0c-2.097-1.6-3.527-3.035-4.246-4.434-.425.68-.937 1.226-1.546 1.637-1.51 1.018-3.742 1.295-6.781 1.013a2 2 0 0 1-1.731-2.566c.877-2.924 1.97-4.89 3.48-5.909.086-.058.174-.113.264-.166a11.342 11.342 0 0 1-1.426-.95c-3.182-2.487-5.804-7.257-8.015-14.327a2 2 0 0 1 2.026-2.593c1.84.108 3.547.275 5.124.504a62.06 62.06 0 0 1 .376-4.65 2 2 0 0 1 2.906-1.545c2.16 1.117 4.067 2.236 5.723 3.36zm4.878 21.59a1.998 1.998 0 0 1-.6-.014c-.286-.05-.567-.104-.844-.161l-.125.022c-1.5.851-2.25 1.744-2.25 2.678 0 1.245 1.334 2.886 4 4.922 2.667-2.036 4-3.677 4-4.922 0-.955-.783-1.866-2.35-2.735-.328.07-.663.136-1.005.196a1.999 1.999 0 0 1-.547.02 2.006 2.006 0 0 1-.28-.005zM23.332 34.1c-2.653-2.809-4.024-5.848-4.024-9.1 0-2.281.684-4.87 2.039-7.791-1.63-1.124-3.544-2.255-5.742-3.392-.813 6.99-.388 12.05 1.275 15.178 1.234 2.32 3.384 4.021 6.452 5.105zm9.903-16.963c1.377 2.95 2.073 5.563 2.073 7.863 0 3.223-1.348 6.237-3.954 9.025 2.957-1.087 5.038-2.763 6.244-5.03 1.663-3.128 2.088-8.187 1.275-15.178-2.151 1.113-4.03 2.22-5.638 3.32zm8.037 3.358c-.04 3.96-.665 7.1-1.908 9.439-1.198 2.252-3.078 3.992-5.6 5.233 2.723.026 4.994-.671 6.812-2.092 2.791-2.18 5.237-6.63 7.338-13.347-2.477.146-4.691.401-6.642.767zm-20.702 14.6c-2.45-1.236-4.281-2.952-5.456-5.161-1.269-2.387-1.892-5.607-1.91-9.682a57.802 57.802 0 0 0-5.202-.524c2.1 6.717 4.546 11.166 7.338 13.347 1.454 1.136 3.197 1.81 5.23 2.02zm15.957 1.856c-1.15.2-2.377.26-3.676.185a18.57 18.57 0 0 0-.221.049l.039.173c.4.622.618 1.3.637 2.048.429 1.014.962 1.736 1.599 2.166 1.032.696 2.859.923 5.478.68-.755-2.52-1.65-4.13-2.682-4.826a3.307 3.307 0 0 0-1.174-.475zm-15.251.2a14.218 14.218 0 0 1-2.736-.376c-.888.065-1.605.282-2.152.651-1.032.697-1.927 2.305-2.682 4.825 2.62.244 4.446.017 5.478-.68 1.005-.677 1.702-2.15 2.092-4.42zM27.308 35c4-3.124 6-6.458 6-10s-2-8.21-6-14c-4 5.79-6 10.458-6 14s2 6.876 6 10z" class="color-500"/><path fill="#FFF" d="M27.126 36.992a1.998 1.998 0 0 1-.6-.015c-.286-.05-.567-.104-.844-.161l-.125.022c-1.5.851-2.25 1.744-2.25 2.678 0 1.245 1.334 2.886 4 4.922 2.667-2.036 4-3.677 4-4.922 0-.955-.783-1.866-2.35-2.735-.328.07-.663.136-1.005.196a1.999 1.999 0 0 1-.547.02 2.006 2.006 0 0 1-.28-.005zM23.332 34.1c-2.653-2.809-4.024-5.848-4.024-9.1 0-2.281.684-4.87 2.039-7.791-1.63-1.124-3.544-2.255-5.742-3.392-.813 6.99-.388 12.05 1.275 15.178 1.234 2.32 3.384 4.021 6.452 5.105zm9.903-16.963c1.377 2.95 2.073 5.563 2.073 7.863 0 3.223-1.348 6.237-3.954 9.025 2.957-1.087 5.038-2.763 6.244-5.03 1.663-3.128 2.088-8.187 1.275-15.178-2.151 1.113-4.03 2.22-5.638 3.32zm8.037 3.358c-.04 3.96-.665 7.1-1.908 9.439-1.198 2.252-3.078 3.992-5.6 5.233 2.723.026 4.994-.671 6.812-2.092 2.791-2.18 5.237-6.63 7.338-13.347-2.477.146-4.691.401-6.642.767zm-20.702 14.6c-2.45-1.236-4.281-2.952-5.456-5.161-1.269-2.387-1.892-5.607-1.91-9.682a57.802 57.802 0 0 0-5.202-.524c2.1 6.717 4.546 11.166 7.338 13.347 1.454 1.136 3.197 1.81 5.23 2.02zm15.957 1.856c-1.15.2-2.377.26-3.676.185a18.57 18.57 0 0 0-.221.049l.039.173c.4.622.618 1.3.637 2.048.429 1.014.962 1.736 1.599 2.166 1.032.696 2.859.923 5.478.68-.755-2.52-1.65-4.13-2.682-4.826a3.307 3.307 0 0 0-1.174-.475zm-15.251.2a14.218 14.218 0 0 1-2.736-.376c-.888.065-1.605.282-2.152.651-1.032.697-1.927 2.305-2.682 4.825 2.62.244 4.446.017 5.478-.68 1.005-.677 1.702-2.15 2.092-4.42zM27.308 35c4-3.124 6-6.458 6-10s-2-8.21-6-14c-4 5.79-6 10.458-6 14s2 6.876 6 10z" class="french-vanilla-100"/></g></svg>