<svg xmlns="http://www.w3.org/2000/svg" width="92" height="92" class="wd-applet wd-applet-academic-records" focusable="false" role="presentation" viewBox="0 0 92 92"><g fill="none" fill-rule="evenodd" class="wd-icon-container"><g fill="#0B77E3" fill-opacity=".2" class="animate-flood"><path d="M46 82c19.882 0 36-16.118 36-36S65.882 10 46 10 10 26.118 10 46s16.118 36 36 36z" class="color-400-alpha-20"/></g><path fill="#0B77E3" d="M18.36 53.772c.356-.426 1.094-.772 1.65-.772h51.987c.556 0 1.29.34 1.65.772L78.004 59h-64l4.356-5.228z" class="color-400"/><path fill="#005CB9" fill-rule="nonzero" d="M18.36 53.772L14.004 59h64l-4.357-5.228c-.36-.432-1.094-.772-1.65-.772H20.011c-.557 0-1.295.346-1.65.772zM20.01 51h51.987c1.151 0 2.447.605 3.187 1.492l4.356 5.228c1.086 1.302.16 3.28-1.536 3.28h-64c-1.696 0-2.622-1.978-1.537-3.28l4.357-5.228C17.56 51.609 18.861 51 20.011 51z" class="color-500"/><g class="animate-sink"><path fill="#005CB9" d="M29.51 9h32.987a2.509 2.509 0 0 1 2.507 2.5V62a2 2 0 0 1-2 2h-34a2 2 0 0 1-2-2V11.5c0-1.384 1.116-2.5 2.507-2.5z" class="color-500"/><path fill="#40A0FF" d="M29.004 11.5V62h34V11.5c0-.268-.227-.5-.507-.5H29.51a.497.497 0 0 0-.507.5z" class="color-300"/></g><g class="animate-sink-less"><path fill="#005CB9" d="M22.004 16c0-1.658 1.346-3 3.001-3h41.997a2.998 2.998 0 0 1 3.002 3v51a2 2 0 0 1-2 2h-44a2 2 0 0 1-2-2V16z" class="color-500"/><path fill="#A6D2FF" d="M24.004 16v41h44V16c0-.556-.449-1-1.002-1H25.005c-.551 0-1.001.448-1.001 1z" class="color-200"/></g><g class="animate-float"><path fill="#FFF" d="M2 3.007v51.986A1 1 0 0 0 2.992 56h50.016c.542 0 .992-.45.992-1.007V3.007A1 1 0 0 0 53.008 2H2.992C2.45 2 2 2.45 2 3.007z" class="color-100" transform="translate(18.004 17)"/><path fill="#005CB9" d="M0 3.007A3.003 3.003 0 0 1 2.992 0h50.016A3 3 0 0 1 56 3.007v51.986A3.003 3.003 0 0 1 53.008 58H2.992A3 3 0 0 1 0 54.993V3.007zm2 0v51.986A1 1 0 0 0 2.992 56h50.016c.542 0 .992-.45.992-1.007V3.007A1 1 0 0 0 53.008 2H2.992C2.45 2 2 2.45 2 3.007z" class="color-500" transform="translate(18.004 17)"/><rect width="18" height="14" x="19" y="10" fill="#A6D2FF" class="color-200" rx="1" transform="translate(18.004 17)"/><path fill="#40A0FF" d="M7.996 54.001v-1.002a.996.996 0 0 1 1-.999h32.001c.544 0 1 .447 1 .999v1.002a.996.996 0 0 1-1 .999H8.995c-.544 0-.999-.447-.999-.999zm36 0v-1.002c0-.556.452-.999 1.01-.999h1.98a.999.999 0 0 1 1.01.999v1.002c0 .556-.452.999-1.01.999h-1.98a.999.999 0 0 1-1.01-.999zm-32-9a.999.999 0 0 1-1.01.999h-1.98c-.558 0-1.01-.443-1.01-.999v-1.002A.999.999 0 0 1 9.006 43h1.98c.558 0 1.01.443 1.01.999v1.002zm-4-12v-1.002c0-.556.452-.999 1.009-.999h37.982c.56 0 1.01.447 1.01.999v1.002c0 .556-.452.999-1.01.999H9.005c-.56 0-1.009-.447-1.009-.999zm6 12v-1.002c0-.556.45-.999 1.003-.999h20.994a.995.995 0 0 1 1.003.999v1.002c0 .556-.449.999-1.003.999H15a.995.995 0 0 1-1.003-.999zm-6-6v-1.002a.997.997 0 0 1 1-.999h22a1 1 0 0 1 1 .999v1.002a.997.997 0 0 1-1 .999h-22a1 1 0 0 1-1-.999zm0 21v-1.002c0-.556.447-.999.998-.999h27.004c.543 0 .998.447.998.999v1.002a.996.996 0 0 1-.998.999H8.994c-.542 0-.998-.447-.998-.999zm26-21v-1.002A1 1 0 0 1 35.003 37h11.986c.557 0 1.007.447 1.007.999v1.002A1 1 0 0 1 46.99 40H35.003a1.002 1.002 0 0 1-1.007-.999zm-9-19.001h6c.552 0 2 .448 2 1v3h-10v-3c0-.552 1.448-1 2-1z" class="color-300" transform="translate(18.004 17)"/><path fill="#FFF" fill-rule="nonzero" d="M24.996 14.8v2.4c0 .99 1.896 2.8 3 2.8 1.112 0 3-1.806 3-2.8v-2.4c0-.99-1.895-2.8-3-2.8-1.112 0-3 1.806-3 2.8z" class="color-100" transform="translate(18.004 17)"/><path fill="#005CB9" fill-rule="nonzero" d="M35.99 8a3.003 3.003 0 0 1 3.006 2.999V23c0 1.66-1.349 2.999-3.007 2.999H20.003a3.003 3.003 0 0 1-3.007-2.999V11c0-1.66 1.35-2.999 3.007-2.999h15.986zm0 2H20.002c-.557 0-1.007.447-1.007.999V23c0 .552.451.999 1.007.999h.993v-1c0-1.975 1.517-3.786 3.447-3.973a2.926 2.926 0 0 1-.447-1.527v-3c0-1.934 2.062-3.5 4-3.5 1.933 0 4 1.57 4 3.5v3c0 .547-.165 1.065-.445 1.527 1.956.17 3.445 1.859 3.445 3.973v1h.993c.557 0 1.007-.447 1.007-.999V11c0-.552-.45-.999-1.007-.999zm-4.994 11.011h-6c-.979 0-2 1.008-2 1.989v1h10v-1c0-.989-1.025-1.989-2-1.989zm-3-8.011c-.834 0-2 .672-2 1.5v3.023c0 .826 1.172 1.488 2 1.488.834 0 2-.659 2-1.488V14.5c0-.826-1.171-1.5-2-1.5z" class="color-500" transform="translate(18.004 17)"/></g><path fill="#000" d="M72 54v18.005c0 .55-.45.995-.992.995H20.992a.997.997 0 0 1-.992-.995V54h12v1.997a5.998 5.998 0 0 0 5.782 5.999l.225.004h15.986A6.002 6.002 0 0 0 60 55.997V54h12z" class="color-shadow" opacity=".1"/><path fill="#40A0FF" d="M78 60v18.005c0 .55-.443.995-1.005.995h-61.99C14.45 79 14 78.55 14 78.005V60h16v1.997a5.995 5.995 0 0 0 5.775 5.999L36 68h20c3.313 0 6-2.688 6-6.003V60h16z" class="color-300"/><path fill="#005CB9" fill-rule="nonzero" d="M30 60H14v18.005c0 .544.45.995 1.005.995h61.99A.995.995 0 0 0 78 78.005V60H62v1.997A6.002 6.002 0 0 1 56 68H36c-3.314 0-6-2.678-6-6.003V60zm0-2a2 2 0 0 1 2 2v1.997A3.996 3.996 0 0 0 36 66h20c2.208 0 4-1.792 4-4.003V60a2 2 0 0 1 2-2h16a2 2 0 0 1 2 2v18.005A2.995 2.995 0 0 1 76.995 81h-61.99A3.004 3.004 0 0 1 12 78.005V60a2 2 0 0 1 2-2h16z" class="color-500"/></g></svg>