<svg xmlns="http://www.w3.org/2000/svg" width="92" height="92" fill="none" class="wd-applet-accounting-center wd-applet" focusable="false" role="presentation" viewBox="0 0 92 92"><g class="wd-icon-container"><path fill="#0B77E3" fill-opacity=".2" fill-rule="evenodd" d="M46 83c19.882 0 36-16.118 36-36S65.882 11 46 11 10 27.118 10 47s16.118 36 36 36z" class="color-400-alpha-20" clip-rule="evenodd"/><g class="animate-shrink"><path fill="#A6D2FF" fill-rule="evenodd" d="M44.5 9c-6.75 0-12.343 2.168-13.341 5l-.159.898v7.106a30.73 30.73 0 0 0-.5-.004C23.044 22 17 24.645 17 27.909V53h.002c.111 3.221 6.112 5.818 13.498 5.818 7.386 0 13.387-2.597 13.498-5.818H44v-8.551c.166.002.333.004.5.004 6.949 0 12.671-2.298 13.418-5.253H58V22.131L57.841 14c-.998-2.832-6.591-5-13.341-5z" class="color-200" clip-rule="evenodd"/><path fill="#005CB9" fill-rule="evenodd" d="M56 14.909c0 .154-.063.459-.5.91-.444.46-1.185.967-2.256 1.436-2.135.934-5.225 1.563-8.744 1.563s-6.609-.629-8.744-1.563c-1.07-.469-1.812-.975-2.257-1.436-.436-.451-.499-.756-.499-.91 0-.155.063-.46.5-.91.444-.461 1.185-.968 2.256-1.436C37.891 11.628 40.981 11 44.5 11s6.609.628 8.744 1.563c1.07.468 1.812.975 2.257 1.436.436.45.499.755.499.91zm0 3.096c-2.377 1.688-6.638 2.813-11.5 2.813s-9.123-1.125-11.5-2.813v4.096c5.919.485 10.477 2.66 10.958 5.338.18.003.36.005.542.005 3.275 0 6.186-.544 8.301-1.379 1.059-.417 1.856-.883 2.395-1.337.546-.459.73-.82.782-1.026l.022-.085v-5.612zM44 29.44v6c.166.002.332.004.5.004 3.274 0 6.185-.545 8.3-1.38 1.06-.417 1.857-.882 2.396-1.336.546-.459.73-.82.782-1.026l.022-.086v-4.984c-2.377 1.687-6.638 2.812-11.5 2.812-.167 0-.334-.001-.5-.004zm0 8v6c.166.002.332.004.5.004 3.274 0 6.185-.545 8.3-1.379 1.06-.417 1.857-.883 2.396-1.337.546-.459.73-.82.782-1.026l.022-.085V34.63c-2.377 1.688-6.638 2.813-11.5 2.813-.167 0-.334-.002-.5-.004zm0 8V53h-.002c-.111 3.221-6.112 5.818-13.498 5.818-7.386 0-13.387-2.597-13.498-5.818H17V27.908C17 24.646 23.044 22 30.5 22c.167 0 .334.001.5.004V15l.002.002a2.607 2.607 0 0 1-.002-.093C31 11.645 37.044 9 44.5 9S58 11.646 58 14.909c0 .03 0 .062-.002.093L58 15v25.191h-.082c-.747 2.955-6.47 5.253-13.418 5.253-.167 0-.334-.002-.5-.004zm-2.5-16.621c.437-.451.5-.756.5-.91 0-.155-.063-.46-.5-.91-.444-.461-1.185-.968-2.256-1.436C37.109 24.628 34.019 24 30.5 24s-6.609.628-8.744 1.563c-1.07.468-1.812.975-2.257 1.436-.436.45-.499.755-.499.91 0 .154.063.459.5.91.444.46 1.185.967 2.256 1.436 2.135.934 5.225 1.563 8.744 1.563s6.609-.629 8.744-1.563c1.07-.469 1.812-.975 2.257-1.436zm-11 4.999c4.862 0 9.123-1.125 11.5-2.813v5.514l-.022.085c-.052.206-.236.567-.782 1.026-.54.454-1.337.92-2.395 1.337-2.116.835-5.027 1.379-8.301 1.379s-6.185-.544-8.3-1.379c-1.06-.417-1.857-.883-2.396-1.337-.546-.459-.73-.82-.782-1.026L19 36.519V31.005c2.377 1.688 6.638 2.813 11.5 2.813zM19 39.534V44.397l.021.085c.052.206.237.568.783 1.026.54.454 1.336.92 2.395 1.338 2.115.834 5.026 1.379 8.301 1.379 3.275 0 6.186-.545 8.301-1.38 1.059-.417 1.856-.883 2.395-1.337.546-.458.73-.82.782-1.026l.022-.085v-4.863c-2.377 1.687-6.638 2.812-11.5 2.812s-9.123-1.125-11.5-2.812zm0 13.386v-5.508c2.377 1.688 6.638 2.813 11.5 2.813S39.623 49.1 42 47.411V52.931c-.006.157-.083.47-.536.926-.46.46-1.21.962-2.28 1.423-2.133.921-5.199 1.538-8.684 1.538-3.485 0-6.55-.617-8.685-1.538-1.07-.461-1.82-.962-2.279-1.423-.453-.455-.53-.769-.536-.926v-.011z" class="color-500" clip-rule="evenodd"/><path fill="#000" fill-rule="evenodd" d="M58 29v28H37V31.999A3 3 0 0 1 39.993 29H58z" class="color-shadow" clip-rule="evenodd" opacity=".1"/></g><g class="animate-grow"><path fill="#fff" fill-rule="evenodd" d="M41 73V33h21v10a2 2 0 0 0 2 2h10v28H41zm23-30v-9l9 9h-9z" class="color-100" clip-rule="evenodd"/><path fill="#A6D2FF" d="M47.452 59.588a1 1 0 0 1 1-1h3.362a1 1 0 0 1 1 1v6.044a1 1 0 0 1-1 1h-3.362a1 1 0 0 1-1-1v-6.044z" class="color-200"/><path fill="#40A0FF" d="M55.496 54.225a1 1 0 0 1 1-1h3.362a1 1 0 0 1 1 1v11.407a1 1 0 0 1-1 1h-3.362a1 1 0 0 1-1-1V54.225z" class="color-300"/><path fill="#0B77E3" d="M63.54 48.863a1 1 0 0 1 1-1h3.362a1 1 0 0 1 1 1v16.769a1 1 0 0 1-1 1H64.54a1 1 0 0 1-1-1v-16.77z" class="color-400"/><path fill="#0B77E3" fill-rule="evenodd" d="M57.502 49.212a.91.91 0 0 1-.529-1.173l.542-1.43-9.957 5.123c-.218.113-.581-.159-.811-.606-.23-.447-.24-.9-.022-1.012l10.123-5.21-1.552-.587a.91.91 0 0 1 .645-1.703l3.55 1.345a.91.91 0 0 1 .53 1.174l-1.345 3.55a.91.91 0 0 1-1.174.53z" class="color-400" clip-rule="evenodd"/><path fill="#005CB9" fill-rule="evenodd" d="M38.992 32.992a2 2 0 0 1 2-1.992h22.171a2 2 0 0 1 1.39.562L75.257 41.91a2 2 0 0 1 .61 1.438V73a2 2 0 0 1-2 2H40.834a2 2 0 0 1-2-2.008l.157-40zM41 33v40h33V45H64a2 2 0 0 1-2-2V33H41zm23 1v9h9l-9-9z" class="color-500" clip-rule="evenodd"/></g><g class="animate-grow"><path fill="#40A0FF" fill-rule="evenodd" d="M26.557 78.399c-.396-.292-.887-.554-1.255-.75.076-.442.153-.884.2-1.421.01-.316-.046-.507-.007-.728-.532-3.901-2.323-6.465-5.495-7.756.058-.854-.006-1.772.052-2.626 1.863-.694 3.178-1.84 4.258-3.435.787-1.188 1.3-2.603 1.633-4.274.038-.22.077-.441.087-.758.048-.537-.093-1.014-.111-1.426.444-.245.889-.49 1.239-.705l.984-.52c1.396 1.228 3.247 1.894 5.43 1.933 2.182.04 4.073-.559 5.766-1.826.737.393 1.379.816 2.143 1.305-.076.441-.153.883-.135 1.294-.022 1.677.57 3.681 1.673 5.315 1.102 1.633 2.47 2.766 3.981 3.33-.048.538-.03.95-.04 1.266-.01.316.008.728-.04 1.265-1.513.479-2.923 1.656-4.098 3.28-.227.28-.454.561-.559.907-.824 1.41-1.28 3.015-1.293 4.375.019.412.065.919.083 1.33-.7.43-1.428.766-2.223 1.226-1.641-1.359-3.492-2.025-5.741-1.939-2.277-.01-4.045.655-5.55 1.862l-.982-.524zm9.417-7.188c2.485-1.417 3.382-4.637 2.005-7.193-1.377-2.556-4.508-3.48-6.992-2.063-2.484 1.417-3.382 4.637-2.005 7.193 1.377 2.556 4.508 3.48 6.992 2.063z" class="color-300" clip-rule="evenodd"/><path fill="#005CB9" fill-rule="evenodd" d="M24.248 75.094c-.004.112-.002.224.006.347l.013.196.001.016c-.032.337-.072.6-.169 1.154a1.636 1.636 0 0 0 .83 1.728c.234.124.346.184.481.26a6.613 6.613 0 0 1 .53.333c.06.045.125.085.191.12l.94.498a1.543 1.543 0 0 0 1.69-.16c1.215-.967 2.582-1.436 4.34-1.428 1.799-.067 3.208.413 4.516 1.487.501.412 1.195.47 1.755.148a24.6 24.6 0 0 1 .914-.495c.474-.248.657-.346.912-.492.117-.066.228-.132.337-.198.501-.306.798-.87.771-1.47a24.504 24.504 0 0 0-.042-.675 25.49 25.49 0 0 1-.035-.542c.019-1.005.383-2.227 1.009-3.288.066-.112.118-.232.156-.357 0 0 .046-.068.192-.249l.1-.125c.968-1.327 2.058-2.204 3.12-2.537a1.613 1.613 0 0 0 1.11-1.402c.04-.44.056-1.661.045-1.299.003-.112.005-.473.006-.542v-.011c.003-.205.01-.374.026-.552a1.625 1.625 0 0 0-1.035-1.676c-1.136-.422-2.184-1.29-3.054-2.569-.844-1.242-1.333-2.81-1.316-4.098l-.001-.096c-.007-.161.017-.363.106-.87a1.64 1.64 0 0 0-.725-1.667l-.354-.225-.116-.074a58.043 58.043 0 0 0-.462-.29 22.278 22.278 0 0 0-1.225-.712 1.542 1.542 0 0 0-1.647.127c-1.341.996-2.816 1.46-4.568 1.428-1.732-.03-3.153-.535-4.203-1.451a1.544 1.544 0 0 0-1.74-.209l-.941.495-.088.05c-.25.152-.508.297-1.121.633a1.632 1.632 0 0 0-.836 1.506c.007.163.023.31.051.507l.017.123c.034.24.039.274.04.307l.002.017a.95.95 0 0 1 .001.177l-.006.097a2.959 2.959 0 0 1-.059.487c-.283 1.403-.71 2.528-1.31 3.43-.891 1.304-1.912 2.138-3.31 2.654a1.617 1.617 0 0 0-1.04 1.413 17.31 17.31 0 0 0-.028 1.367c.002.591-.002.843-.021 1.127a1.626 1.626 0 0 0 .997 1.625c2.424.98 3.785 2.847 4.247 5.902zm3.732 2.835l-.909-.482c-.367-.269-.821-.51-1.162-.69.07-.407.142-.813.186-1.307a2.97 2.97 0 0 0-.01-.328 1.347 1.347 0 0 1 .003-.342c-.492-3.59-2.15-5.948-5.088-7.136.027-.392.026-.8.024-1.208-.001-.407-.003-.815.024-1.207 1.725-.639 2.943-1.694 3.943-3.16.728-1.094 1.203-2.395 1.512-3.933.035-.203.07-.406.08-.697.028-.314-.014-.606-.053-.874a4.48 4.48 0 0 1-.05-.438c.412-.225.824-.45 1.148-.649l.91-.478c1.293 1.13 3.007 1.742 5.028 1.779 2.02.036 3.772-.515 5.34-1.68.595.315 1.123.652 1.72 1.031l.264.169c-.071.406-.142.812-.125 1.191-.02 1.542.528 3.386 1.548 4.89 1.021 1.502 2.288 2.544 3.687 3.064a9.687 9.687 0 0 0-.033.874c0 .105-.001.201-.004.29-.003.087-.003.183-.004.288 0 .242-.002.53-.033.875-1.4.44-2.707 1.523-3.794 3.018-.21.258-.421.516-.518.835-.763 1.296-1.186 2.773-1.197 4.025.008.189.023.4.038.611.015.212.03.423.038.612-.356.218-.72.41-1.098.608-.31.162-.628.33-.96.52-1.52-1.25-3.233-1.863-5.316-1.784-2.108-.008-3.745.603-5.139 1.713zm8.186-6.62a5.499 5.499 0 1 0-5.332-9.618 5.499 5.499 0 0 0 5.332 9.618zm-5.727-3.112a3.5 3.5 0 1 0 6.122-3.393 3.5 3.5 0 0 0-6.122 3.392z" class="color-500" clip-rule="evenodd"/></g></g></svg>