<svg xmlns="http://www.w3.org/2000/svg" width="92" height="92" class="wd-applet wd-applet-admission" focusable="false" role="presentation" viewBox="0 0 92 92"><g fill="none" fill-rule="evenodd" class="wd-icon-container"><g fill="#0B77E3" fill-opacity=".2" class="animate-flood"><path d="M46 82c19.882 0 36-16.118 36-36S65.882 10 46 10 10 26.118 10 46s16.118 36 36 36z" class="color-400-alpha-20"/></g><path fill="#0B77E3" d="M78 40.059v36.95a.994.994 0 0 1-1.005.991h-61.99A1 1 0 0 1 14 77.008v-36.95L28.7 23h34.6L78 40.059z" class="color-400"/><path fill="#005CB9" d="M63.3 21a2 2 0 0 1 1.516.694l14.692 17.051.037.043c.346.42.485.911.455 1.383v36.837A2.994 2.994 0 0 1 76.995 80h-61.99A3 3 0 0 1 12 77.008V40.171a1.96 1.96 0 0 1 .492-1.426l14.692-17.05A2 2 0 0 1 28.7 21h34.602zm0 2H28.7L14 40.059v36.95a1 1 0 0 0 1.005.991h61.99A.994.994 0 0 0 78 77.008v-36.95L63.3 23z" class="color-500"/><g class="animate-float"><path fill="#FFF" d="M18 13.002c0-.553.45-1.002.996-1.002h54.008c.55 0 .996.453.996 1.002v60.996c0 .553-.45 1.002-.996 1.002H18.996c-.55 0-.996-.453-.996-1.002V13.002z" class="color-100"/><path fill="#005CB9" fill-rule="nonzero" d="M18 12.997v61.006c0 .54.446.997.996.997h54.008a1 1 0 0 0 .996-.997V12.997c0-.54-.446-.997-.996-.997H18.996a1 1 0 0 0-.996.997zm-2 0A3 3 0 0 1 18.996 10h54.008A3.003 3.003 0 0 1 76 12.997v61.006A3 3 0 0 1 73.004 77H18.996A3.003 3.003 0 0 1 16 74.003V12.997z" class="color-500"/><path fill="#0B77E3" d="M61 15c5.523 0 10 4.477 10 10s-4.477 10-10 10-10-4.477-10-10 4.477-10 10-10zm-4 8.5h-1v4h-1V29h-1v1h14v-1h-1v-1.5h-1v-4h-1v4h-2v-4h-1v4h-2v-4h-1v4h-2v-4zm4-6l-6 3.75v1.25h12v-1.25l-6-3.75zm0 1.5a1.5 1.5 0 1 1 0 3 1.5 1.5 0 0 1 0-3z" class="color-400"/><path fill="#40A0FF" d="M23 20.999c0-.552.455-.999.992-.999h18.016c.548 0 .992.443.992.999v1.002c0 .552-.455.999-.992.999H23.992a.992.992 0 0 1-.992-.999v-1.002zm0 5c0-.552.449-.999 1.007-.999h12.986a1 1 0 0 1 1.007.999v1.002c0 .552-.449.999-1.007.999H24.007A1 1 0 0 1 23 27.001v-1.002zm0 15c0-.552.455-.999 1.004-.999h43.992a.998.998 0 0 1 1.004.999v1.002c0 .552-.455.999-1.004.999H24.004A.998.998 0 0 1 23 42.001v-1.002zm0 6c0-.552.455-.999 1.004-.999h43.992a.998.998 0 0 1 1.004.999v1.002c0 .552-.455.999-1.004.999H24.004A.998.998 0 0 1 23 48.001v-1.002zm0 6c0-.552.455-.999 1.004-.999h43.992a.998.998 0 0 1 1.004.999v1.002c0 .552-.455.999-1.004.999H24.004A.998.998 0 0 1 23 54.001v-1.002zm0 6c0-.552.455-.999 1.004-.999h43.992a.998.998 0 0 1 1.004.999v1.002c0 .552-.455.999-1.004.999H24.004A.998.998 0 0 1 23 60.001v-1.002z" class="color-300"/></g><path fill="#000" d="M18 38.9l28 16.5 28-16.5V80H18z" class="color-shadow" opacity=".1"/><path fill="#40A0FF" d="M15.002 78h61.996c.549 0 1.002-.452 1.002-1.009V41L46 59.317 14 41v35.991c0 .56.449 1.009 1.002 1.009z" class="color-300"/><path fill="#005CB9" d="M76.928 39.312C78.26 38.466 80 39.422 80 41v35.991c0 .525-.135 1.02-.372 1.45l-.626-.394C78.97 79.04 78.212 80 77 80H15.002A3.004 3.004 0 0 1 12 76.991V41c0-1.577 1.74-2.534 3.072-1.688l30.932 18.165zM14 41v35.991c0 .56.449 1.009 1.002 1.009H77L14 41zm64 0L47.946 58.618 78 76.268V41z" class="color-500"/></g></svg>