<svg xmlns="http://www.w3.org/2000/svg" width="92" height="92" class="wd-applet wd-applet-adoption" focusable="false" role="presentation" viewBox="0 0 92 92"><g fill="none" fill-rule="evenodd" class="wd-icon-container"><g fill="#0B77E3" fill-opacity=".2" class="animate-flood"><path d="M46 82c19.882 0 36-16.118 36-36S65.882 10 46 10 10 26.118 10 46s16.118 36 36 36z" class="color-400-alpha-20"/></g><g class="animate-shrink"><path fill="#005CB9" fill-rule="nonzero" d="M16 15a3 3 0 0 1 2.996-3h54.008A2.996 2.996 0 0 1 76 15v65a3 3 0 0 1-2.996 3H18.996A2.996 2.996 0 0 1 16 80V15z" class="color-500"/><path fill="#40A0FF" d="M18 15a1 1 0 0 1 .996-1h54.008c.55 0 .996.446.996 1v65a1 1 0 0 1-.996 1H18.996A.996.996 0 0 1 18 80V15zM21 20V76a2 2 0 0 0 2 2h44.996A3.006 3.006 0 0 0 71 74.999V20A2.999 2.999 0 0 0 67.996 17H24.004A3.006 3.006 0 0 0 21 20.001z" class="color-300"/><path fill="#FFF" d="M23 20.001c0-.553.455-1.001 1.004-1.001h43.992A.999.999 0 0 1 69 20.001V75c0 .553-.455 1.001-1.004 1.001H23V20.001z" class="color-100"/><path fill="#005CB9" fill-rule="nonzero" d="M40 10h-6.5c-3.039 0-5.5 2.462-5.5 5.5V19a2 2 0 0 0 2 2h32a2 2 0 0 0 2-2v-3.5c0-3.035-2.464-5.5-5.5-5.5H52v-.004a6 6 0 0 0-12 0V10z" class="color-500"/><path fill="#A6D2FF" d="M46 6c2.21 0 4 1.797 4 3.996V12h8.5c1.933 0 3.5 1.57 3.5 3.5V19H30v-3.5c0-1.933 1.565-3.5 3.5-3.5H42V9.996A4 4 0 0 1 46 6zm0 2a2 2 0 1 0 0 4 2 2 0 0 0 0-4z" class="color-200"/><path fill="#40A0FF" d="M43 66h6V36h-6z" class="color-300"/><path fill="#005CB9" fill-rule="nonzero" d="M39.003 42c.55 0 .997.393.997.89v23.22c0 .492-.453.89-.997.89h-6.006c-.55 0-.997-.393-.997-.89V42.89c0-.492.453-.89.997-.89h6.006zm20-13c.55 0 .997.453.997.997v36.006c0 .55-.453.997-.997.997h-6.006c-.55 0-.997-.453-.997-.997V29.997c0-.55.453-.997.997-.997h6.006zm-10 6c.55 0 .997.405.997.923v30.154c0 .51-.453.923-.997.923h-6.006c-.55 0-.997-.405-.997-.923V35.923c0-.51.453-.923.997-.923h6.006zM38 44h-4v21h4V44zm20-13h-4v34h4V31zm-10 6h-4v28h4V37zM46 8a2 2 0 1 1 0 4 2 2 0 0 1 0-4z" class="color-500"/><path fill="#000" fill-rule="nonzero" d="M63 48c5.11 0 9.724 2.13 13 5.55v24.9A18.013 18.013 0 0 1 68.932 83H57.07C50.042 80.548 45 73.863 45 66c0-9.941 8.059-18 18-18z" class="color-shadow" opacity=".1"/></g><path fill="#005CB9" fill-rule="nonzero" d="M65 50c9.941 0 18 8.059 18 18s-8.059 18-18 18-18-8.059-18-18 8.059-18 18-18zm0 2.057c-8.805 0-15.943 7.138-15.943 15.943S56.195 83.943 65 83.943 80.943 76.805 80.943 68 73.805 52.057 65 52.057z" class="color-500"/><path fill="#FFF" fill-rule="nonzero" d="M65 84c-8.837 0-16-7.163-16-16s7.163-16 16-16 16 7.163 16 16-7.163 16-16 16z" class="color-100"/><g class="animate-spin"><path fill="#0B77E3" d="M73.445 59.475l-5.48 3.006-5.48 3.004 4.95 4.95 3.005-5.48z" class="color-400"/><path fill="#A6D2FF" d="M56.475 76.445l5.48-3.005 5.48-3.005-4.95-4.95-3.005 5.48z" class="color-200"/></g><circle cx="65" cy="68" r="2" fill="#FFF" class="color-100"/><path fill="#0B77E3" fill-rule="nonzero" d="M64 52v4h2v-4h-2zm13 17h4v-2h-4v2zm-28 0h4v-2h-4v2zm15 11v4h2v-4h-2z" class="color-400"/></g></svg>