<svg xmlns="http://www.w3.org/2000/svg" width="92" height="92" class="wd-applet wd-applet-anniversaries" focusable="false" role="presentation" viewBox="0 0 92 92"><g fill="none" fill-rule="evenodd" class="wd-icon-container"><g fill="#0B77E3" fill-opacity=".2" class="animate-flood"><path d="M46 82c19.882 0 36-16.118 36-36S65.882 10 46 10 10 26.118 10 46s16.118 36 36 36z" class="color-400-alpha-20"/></g><g class="animate-sink-less"><path fill="#40A0FF" d="M27.824 66.681c9.143 0 20-13.56 20-26.985 0-13.425-7.908-22.673-19.664-22.673-11.755 0-20.336 9.292-20.336 22.717 0 13.425 10.857 26.941 20 26.941z" class="color-300"/><path stroke="#FFF" stroke-linecap="round" stroke-linejoin="round" stroke-width="2" d="M13.007 38.212c.359-4.538 2.1-8.47 5.224-11.797" class="color-100"/><path stroke="#FFF" stroke-linecap="round" stroke-width="2" d="M21 23.655A25.53 25.53 0 0 1 22.183 23" class="color-100"/><path fill="#005CB9" fill-rule="nonzero" d="M28.174 16c12.24 0 20.473 9.63 20.473 23.607 0 12.853-9.557 25.824-18.496 27.83L31 70.3h-2.555c-.567 1.793-.85 3.552-.85 5.276 0 1.231.19 1.91.703 2.916.031.06.307.588.393.759.906 1.8 1.318 3.59 1.309 6.75l-2-.005c.008-2.85-.333-4.33-1.096-5.846-.077-.155-.349-.675-.386-.747l-.133-.268c-.554-1.145-.79-2.097-.79-3.56 0-1.737.255-3.497.762-5.276H24l.903-3.01C16.14 64.866 7 52.221 7 39.652 7 25.676 15.934 16 28.174 16zm0 2C16.99 18 9 26.844 9 39.653c0 12.6 10.26 26.05 18.824 26.05 8.557 0 18.823-13.49 18.823-26.096 0-12.98-7.45-21.607-18.473-21.607z" class="color-500"/></g><g class="animate-float"><path fill="#FFF" d="M60.96 64.014c10.41 0 22.77-15.439 22.77-30.723 0-15.284-9.003-25.814-22.387-25.814S38.19 18.057 38.19 33.341s12.36 30.673 22.77 30.673z" class="color-100"/><path fill="#005CB9" fill-rule="nonzero" d="M61.363 6C75.446 6 84.92 17.08 84.92 33.163c0 14.594-10.71 29.322-20.878 31.924L65 68.799l-2.547-.002c-.594 1.436-.895 3.173-.895 5.22 0 1.659.26 2.571.973 3.98l.342.67c1.079 2.138 1.545 3.997 1.533 7.31l-1.926-.009c.012-2.978-.375-4.522-1.314-6.383l-.34-.665-.153-.309c-.737-1.52-1.04-2.706-1.04-4.593 0-1.957.252-3.7.759-5.221H58l.91-3.487C48.449 63.49 37 48.305 37 33.216 37 17.133 47.28 6 61.363 6zm0 2C48.321 8 39 18.318 39 33.216 39 47.864 50.92 63.49 60.96 63.49c10.033 0 21.96-15.672 21.96-30.328C82.92 18.069 74.223 8 61.363 8zm-11.34 7.999a1 1 0 1 1 1.317 1.505c-3.64 3.184-5.734 7.281-6.298 12.339a1 1 0 0 1-1.988-.222c.62-5.548 2.948-10.105 6.97-13.622zm3.762-2.875a1 1 0 0 1 .847 1.812c-.105.05-.493.264-1.11.617a1 1 0 1 1-.994-1.735c.68-.389 1.08-.61 1.257-.694z" class="color-500"/></g></g></svg>