<svg xmlns="http://www.w3.org/2000/svg" width="92" height="92" class="wd-applet wd-applet-announcements" focusable="false" role="presentation" viewBox="0 0 92 92"><g fill="none" fill-rule="evenodd" class="wd-icon-container"><g fill="#0B77E3" fill-opacity=".2" class="animate-flood"><path d="M46 82c19.882 0 36-16.118 36-36S65.882 10 46 10 10 26.118 10 46s16.118 36 36 36z" class="color-400-alpha-20"/></g><g class="animate-shrink"><path fill="#005CB9" d="M46.744 55.221a3.686 3.686 0 0 1 3.687 3.691v13.605c0 2.265-2.01 3.769-4.182 3.147l-20.46-5.86c-1.76-.505-3.08-2.265-3.08-4.097v-6.78c0-2.04 1.651-3.706 3.686-3.706h3.278v8.557c0 .043.137.225.177.236l13.61 3.899-.002-12.692h3.286z" class="color-500"/><path fill="#A6D2FF" fill-rule="nonzero" d="M46.744 57.221c.931 0 1.687.752 1.687 1.691v13.605c0 .934-.736 1.48-1.631 1.224l-20.461-5.86c-.9-.258-1.63-1.234-1.63-2.174v-6.78c0-.942.762-1.706 1.686-1.706h1.278v6.557c0 .884.65 1.795 1.478 2.11l.148.05L43.834 70.1c.895.257 1.625-.291 1.625-1.225V57.22z" class="color-200"/><path fill="#000" fill-rule="nonzero" d="M46.744 57.221c.931 0 1.687.752 1.687 1.691v9.334l-2.973-.85V57.22zm-19.07 0v5.08l-2.966-.85v-2.524c0-.892.685-1.625 1.543-1.7l.144-.006h1.278z" class="color-shadow" opacity=".1"/><path fill="#005CB9" d="M71.307 17A3.697 3.697 0 0 1 75 20.692v49.276a3.688 3.688 0 0 1-3.693 3.692H69.61a3.698 3.698 0 0 1-3.68-3.4L18.497 56.674a3.681 3.681 0 0 1-3.107 1.698h-1.698A3.69 3.69 0 0 1 10 54.669V37.69a3.693 3.693 0 0 1 3.693-3.703h1.698c1.303 0 2.445.67 3.102 1.69L65.93 20.39a3.687 3.687 0 0 1 3.68-3.39h1.698z" class="color-500"/><path fill="#40A0FF" fill-rule="nonzero" d="M65.916 22.497v45.677L19.081 54.76l.002-.091V37.69l-.001-.103 46.834-15.09z" class="color-300"/><path fill="#FFF" fill-rule="nonzero" d="M12 37.69V54.67a1.69 1.69 0 0 0 1.693 1.703h1.698c.942 0 1.692-.763 1.692-1.703V37.69a1.69 1.69 0 0 0-1.692-1.703h-1.698c-.943 0-1.693.763-1.693 1.703zm55.917-16.998v49.276c0 .928.758 1.692 1.692 1.692h1.698c.943 0 1.693-.757 1.693-1.692V20.692c0-.927-.758-1.692-1.693-1.692H69.61c-.942 0-1.692.758-1.692 1.692z" class="color-100"/></g></g></svg>