<svg xmlns="http://www.w3.org/2000/svg" width="92" height="92" class="wd-applet wd-applet-app-creator" focusable="false" role="presentation" viewBox="0 0 92 92"><g fill="none" fill-rule="evenodd" class="wd-icon-container"><g fill="#0B77E3" fill-opacity=".2" class="animate-flood"><path d="M46 82c19.882 0 36-16.118 36-36S65.882 10 46 10 10 26.118 10 46s16.118 36 36 36z" class="color-400-alpha-20"/></g><g class="animate-shrink"><path fill="#FFF" d="M16.829 28.545v42.181c0 .481.407.88.908.88h56.865c.414 0 .75-.347.75-.747V28.545H16.828z" class="color-100"/><path fill="#40A0FF" d="M16.829 20.51c0-.416.344-.752.761-.752h57c.42 0 .761.339.761.752v6.278H16.83V20.51z" class="color-300"/><path fill="#005CB9" fill-rule="nonzero" d="M15 20.636C15 19.177 16.226 18 17.748 18h56.684c1.516 0 2.748 1.172 2.748 2.636v50.092c0 1.458-1.226 2.636-2.748 2.636H17.748c-1.515 0-2.748-1.173-2.748-2.636V20.636zm1.829 7.91v42.18c0 .481.407.88.908.88h56.698c.506 0 .916-.399.916-.88v-42.18H16.83zm0-7.912v6.154H75.35v-6.154c0-.478-.411-.876-.919-.876H17.748c-.514 0-.92.392-.92.876zm3.657 4.396c-1.01 0-1.828-.787-1.828-1.757 0-.971.818-1.758 1.828-1.758 1.01 0 1.83.787 1.83 1.758 0 .97-.82 1.757-1.83 1.757zm5.487 0c-1.01 0-1.829-.787-1.829-1.757 0-.971.819-1.758 1.829-1.758s1.829.787 1.829 1.758c0 .97-.819 1.757-1.829 1.757zM40.15 61.545c.505 0 .914.394.914.88 0 .485-.41.878-.914.878h-.915c-.505 0-.914-.393-.914-.879 0-.485.41-.879.914-.879zm3.657 0c.505 0 .915.394.915.88 0 .485-.41.878-.915.878h-.914c-.505 0-.915-.393-.915-.879 0-.485.41-.879.915-.879zm-7.315 0c.505 0 .914.394.914.88 0 .485-.41.878-.914.878h-.915c-.505 0-.914-.393-.914-.879 0-.485.41-.879.914-.879zm-3.658 0c.505 0 .915.394.915.88 0 .485-.41.878-.915.878h-.914c-.505 0-.915-.393-.915-.879 0-.485.41-.879.915-.879zm-3.657 0c.505 0 .914.394.914.88 0 .485-.41.878-.914.878h-.915c-.505 0-.914-.393-.914-.879 0-.485.41-.879.914-.879zm-3.658-.878c.505 0 .914.393.914.878v.88c0 .485-.41.878-.914.878-.505 0-.914-.393-.914-.879v-.879c0-.485.409-.878.914-.878zm41.149.878c.505 0 .914.394.914.88 0 .485-.41.878-.914.878h-.915c-.505 0-.914-.393-.914-.879 0-.485.41-.879.914-.879zm-7.316 0c.505 0 .915.394.915.88 0 .485-.41.878-.915.878h-.914c-.505 0-.915-.393-.915-.879 0-.485.41-.879.915-.879zm3.658 0c.505 0 .914.394.914.88 0 .485-.41.878-.914.878h-.915c-.505 0-.914-.393-.914-.879 0-.485.41-.879.914-.879zm-7.315 0c.505 0 .914.394.914.88 0 .485-.41.878-.914.878h-.915c-.505 0-.914-.393-.914-.879 0-.485.41-.879.914-.879zm-3.658 0c.505 0 .914.394.914.88 0 .485-.409.878-.914.878h-.914c-.505 0-.915-.393-.915-.879 0-.485.41-.879.915-.879zm-3.658-.878c.505 0 .915.393.915.878v.88c0 .485-.41.878-.915.878-.505 0-.914-.393-.914-.879v-.879c0-.485.41-.878.914-.878zm-4.572-2.637c.505 0 .915.394.915.88v.878c0 .485-.41.879-.915.879-.505 0-.914-.394-.914-.88v-.878c0-.485.41-.879.914-.879zm22.86 0c.506 0 .915.394.915.88v.878c0 .485-.41.879-.914.879-.505 0-.915-.394-.915-.88v-.878c0-.485.41-.879.915-.879zm-41.148-.878c.505 0 .914.393.914.878v.88c0 .484-.41.878-.914.878-.505 0-.914-.394-.914-.879v-.879c0-.485.409-.878.914-.878zm22.86 0c.505 0 .915.393.915.878v.88c0 .484-.41.878-.915.878-.505 0-.914-.394-.914-.879v-.879c0-.485.41-.878.914-.878zm-4.572-2.637c.505 0 .915.394.915.879v.879c0 .485-.41.879-.915.879-.505 0-.914-.394-.914-.88v-.878c0-.485.41-.879.914-.879zm22.86 0c.506 0 .915.394.915.879v.879c0 .485-.41.879-.914.879-.505 0-.915-.394-.915-.88v-.878c0-.485.41-.879.915-.879zm-32.918 0c.505 0 .914.394.914.879s-.41.879-.914.879h-.915c-.505 0-.914-.394-.914-.88 0-.484.41-.878.914-.878zm3.657 0c.505 0 .915.394.915.879s-.41.879-.915.879h-.914c-.505 0-.915-.394-.915-.88 0-.484.41-.878.915-.878zm-10.973 0c.505 0 .915.394.915.879s-.41.879-.915.879h-.914c-.505 0-.914-.394-.914-.88 0-.484.409-.878.914-.878zm14.631 0c.505 0 .914.394.914.879s-.409.879-.914.879h-.914c-.505 0-.915-.394-.915-.88 0-.484.41-.878.915-.878zm-10.973 0c.505 0 .914.394.914.879s-.409.879-.914.879h-.914c-.505 0-.915-.394-.915-.88 0-.484.41-.878.915-.878zm26.518 0c.505 0 .914.394.914.879s-.409.879-.914.879h-.914c-.505 0-.915-.394-.915-.88 0-.484.41-.878.915-.878zm3.658 0c.505 0 .914.394.914.879s-.41.879-.914.879h-.915c-.505 0-.914-.394-.914-.88 0-.484.41-.878.914-.878zm3.657 0c.505 0 .915.394.915.879s-.41.879-.915.879h-.914c-.505 0-.915-.394-.915-.88 0-.484.41-.878.915-.878zm-14.63 0c.505 0 .914.394.914.879s-.41.879-.914.879h-.915c-.505 0-.914-.394-.914-.88 0-.484.41-.878.914-.878zm3.657 0c.505 0 .915.394.915.879s-.41.879-.915.879h-.914c-.505 0-.914-.394-.914-.88 0-.484.409-.878.914-.878zm13.717-4.394c.505 0 .914.394.914.879s-.41.879-.914.879h-.915c-.505 0-.914-.394-.914-.879s.41-.879.914-.879zm-36.577 0c.505 0 .914.394.914.879s-.409.879-.914.879h-.914c-.505 0-.915-.394-.915-.879s.41-.879.915-.879zm10.973 0c.505 0 .914.394.914.879s-.409.879-.914.879h-.914c-.505 0-.915-.394-.915-.879s.41-.879.915-.879zm18.288 0c.505 0 .915.394.915.879s-.41.879-.915.879h-.914c-.505 0-.915-.394-.915-.879s.41-.879.915-.879zm-10.973 0c.505 0 .915.394.915.879s-.41.879-.915.879h-.914c-.505 0-.915-.394-.915-.879s.41-.879.915-.879zm3.658 0c.505 0 .914.394.914.879s-.409.879-.914.879h-.914c-.505 0-.915-.394-.915-.879s.41-.879.915-.879zm-18.288 0c.505 0 .914.394.914.879s-.41.879-.914.879h-.915c-.505 0-.914-.394-.914-.879s.41-.879.914-.879zm3.657 0c.505 0 .915.394.915.879s-.41.879-.915.879h-.914c-.505 0-.915-.394-.915-.879s.41-.879.915-.879zm18.289 0c.505 0 .914.394.914.879s-.41.879-.914.879h-.915c-.505 0-.914-.394-.914-.879s.41-.879.914-.879zm7.315 0c.505 0 .914.394.914.879s-.41.879-.914.879h-.915c-.505 0-.914-.394-.914-.879s.41-.879.914-.879zm-36.577 0c.505 0 .915.394.915.879s-.41.879-.915.879h-.914c-.505 0-.914-.394-.914-.879s.409-.879.914-.879zm18.289 0c.505 0 .914.394.914.879s-.41.879-.914.879h-.915c-.505 0-.914-.394-.914-.879s.41-.879.914-.879zm-19.203-3.515c.505 0 .914.394.914.879v.879c0 .485-.41.878-.914.878-.505 0-.914-.393-.914-.878v-.88c0-.484.409-.878.914-.878zm41.149 0c.505 0 .914.394.914.879v.879c0 .485-.41.878-.914.878-.505 0-.915-.393-.915-.878v-.88c0-.484.41-.878.915-.878zm-41.15-3.515c.506 0 .915.393.915.879v.878c0 .486-.41.88-.914.88-.505 0-.914-.394-.914-.88v-.878c0-.486.409-.88.914-.88zm41.15 0c.505 0 .914.393.914.879v.878c0 .486-.41.88-.914.88-.505 0-.915-.394-.915-.88v-.878c0-.486.41-.88.915-.88zm0-3.515c.505 0 .914.393.914.879v.878c0 .486-.41.88-.914.88-.505 0-.915-.394-.915-.88v-.878c0-.486.41-.88.915-.88zm-41.15 0c.506 0 .915.393.915.879v.878c0 .486-.41.88-.914.88-.505 0-.914-.394-.914-.88v-.878c0-.486.409-.88.914-.88zm8.23-2.637c.506 0 .915.394.915.88 0 .485-.41.878-.914.878h-.915c-.505 0-.914-.393-.914-.879 0-.485.41-.879.914-.879zm3.658 0c.505 0 .915.394.915.88 0 .485-.41.878-.915.878h-.914c-.505 0-.915-.393-.915-.879 0-.485.41-.879.915-.879zm-10.973 0c.505 0 .915.394.915.88 0 .485-.41.878-.915.878h-.914c-.505 0-.914-.393-.914-.879 0-.485.409-.879.914-.879zm3.658 0c.505 0 .914.394.914.88 0 .485-.409.878-.914.878h-.914c-.505 0-.915-.393-.915-.879 0-.485.41-.879.915-.879zm10.973 0c.505 0 .914.394.914.88 0 .485-.409.878-.914.878h-.914c-.505 0-.915-.393-.915-.879 0-.485.41-.879.915-.879zm3.658 0c.505 0 .914.394.914.88 0 .485-.41.878-.914.878h-.915c-.505 0-.914-.393-.914-.879 0-.485.41-.879.914-.879zm3.657 0c.505 0 .915.394.915.88 0 .485-.41.878-.915.878h-.914c-.505 0-.915-.393-.915-.879 0-.485.41-.879.915-.879zm3.658 0c.505 0 .914.394.914.88 0 .485-.409.878-.914.878h-.914c-.505 0-.915-.393-.915-.879 0-.485.41-.879.915-.879zm3.658 0c.505 0 .914.394.914.88 0 .485-.41.878-.914.878h-.915c-.505 0-.914-.393-.914-.879 0-.485.41-.879.914-.879zm3.657 0c.505 0 .915.394.915.88 0 .485-.41.878-.915.878h-.914c-.505 0-.915-.393-.915-.879 0-.485.41-.879.915-.879zm3.658 0c.505 0 .914.394.914.88 0 .485-.41.878-.914.878h-.915c-.505 0-.914-.393-.914-.879 0-.485.41-.879.914-.879zm3.658 0c.505 0 .914.394.914.88 0 .485-.41.878-.914.878h-.915c-.505 0-.914-.393-.914-.879 0-.485.41-.879.914-.879zM31.459 21.515c1.01 0 1.83.787 1.83 1.758 0 .97-.82 1.757-1.83 1.757-1.01 0-1.828-.787-1.828-1.757 0-.971.818-1.758 1.828-1.758z" class="color-500"/></g><g class="animate-grow"><path fill="#005CB9" fill-rule="nonzero" d="M64.54 50c9.136 0 16.541 7.371 16.541 16.464 0 9.093-7.405 16.464-16.54 16.464C55.405 82.928 48 75.557 48 66.464 48 57.37 55.405 50 64.54 50zm0 1.882c-8.09 0-14.65 6.528-14.65 14.582 0 8.053 6.56 14.582 14.65 14.582 8.092 0 14.65-6.529 14.65-14.582 0-8.054-6.558-14.582-14.65-14.582z" class="color-500"/><path fill="#FFF" d="M49.838 66.464c0-8.083 6.582-14.635 14.703-14.635 8.12 0 14.702 6.552 14.702 14.635 0 8.082-6.582 14.634-14.702 14.634-8.12 0-14.703-6.552-14.703-14.634z" class="color-100"/><path fill="#005CB9" d="M64.667 59.802c.418 0 .757.338.757.756v4.99l4.792.001c.418 0 .757.339.757.757v.316a.757.757 0 0 1-.757.756h-4.793v4.991a.757.757 0 0 1-.756.757h-.253a.757.757 0 0 1-.757-.757v-4.991h-4.792a.757.757 0 0 1-.757-.756v-.316c0-.418.339-.757.757-.757h4.792v-4.99c0-.419.34-.757.757-.757h.253z" class="color-500"/></g></g></svg>