<svg xmlns="http://www.w3.org/2000/svg" width="92" height="92" class="wd-applet wd-applet-applicants" focusable="false" role="presentation" viewBox="0 0 92 92"><g fill="none" fill-rule="evenodd" class="wd-icon-container"><g fill="#0B77E3" fill-opacity=".2" class="animate-flood"><path d="M46 82c19.882 0 36-16.118 36-36S65.882 10 46 10 10 26.118 10 46s16.118 36 36 36z" class="color-400-alpha-20"/></g><path fill="#005CB9" fill-rule="nonzero" d="M41.248 36.59L28.59 51.104l1.514 1.306 12.658-14.514-1.514-1.306zm22.161 14.527L51.117 36.591l-1.526 1.292 12.292 14.526 1.526-1.292z" class="color-500"/><g class="animate-grow"><path fill="#005CB9" fill-rule="nonzero" d="M28 2.996A.993.993 0 0 0 26.997 2H6.003A.995.995 0 0 0 5 2.996v29.008c0 .55.439.996 1.003.996h20.994A.995.995 0 0 0 28 32.004V2.996zm2 0v29.008A2.995 2.995 0 0 1 26.997 35H6.003A2.993 2.993 0 0 1 3 32.004V2.996A2.995 2.995 0 0 1 6.003 0h20.994A2.993 2.993 0 0 1 30 2.996z" class="color-500" transform="translate(33 6)"/><path fill="#A6D2FF" d="M28 2.996A.993.993 0 0 0 26.997 2H6.003A.995.995 0 0 0 5 2.996v29.008c0 .55.439.996 1.003.996h20.994A.995.995 0 0 0 28 32.004V2.996z" class="color-200" transform="translate(33 6)"/><path fill="#FFF" d="M25 5.996A.993.993 0 0 0 23.997 5H3.003A.995.995 0 0 0 2 5.996v29.008c0 .55.439.996 1.003.996h20.994A.995.995 0 0 0 25 35.004V5.996z" class="color-100" transform="translate(33 6)"/><path fill="#40A0FF" d="M13 10a1 1 0 0 1 .99-1h4.02c.546 0 .99.444.99 1a1 1 0 0 1-.99 1h-4.02a.993.993 0 0 1-.99-1zm0 3c0-.552.446-1 .998-1h7.004c.551 0 .998.444.998 1 0 .552-.446 1-.998 1h-7.004A.996.996 0 0 1 13 13zm6 9c0 .556-.385 1-.86 1h-4.28c-.485 0-.86-.448-.86-1 0-.556.385-1 .86-1h4.28c.485 0 .86.448.86 1zm3-3c0 .556-.447 1-.998 1h-7.004A.999.999 0 0 1 13 19c0-.556.447-1 .998-1h7.004c.552 0 .998.448.998 1zM8 22a2 2 0 1 1 0-4 2 2 0 0 1 0 4zm11 7c0 .556-.385 1-.86 1h-4.28c-.485 0-.86-.448-.86-1 0-.556.385-1 .86-1h4.28c.485 0 .86.448.86 1zm3-3c0 .556-.447 1-.998 1h-7.004A.999.999 0 0 1 13 26c0-.556.447-1 .998-1h7.004c.552 0 .998.448.998 1zM8 29a2 2 0 1 1 0-4 2 2 0 0 1 0 4z" class="color-300" transform="translate(33 6)"/><rect width="6" height="6" x="5" y="8" fill="#0B77E3" class="color-400" rx="1" transform="translate(33 6)"/><path fill="#005CB9" fill-rule="nonzero" d="M25 5.996A.993.993 0 0 0 23.997 5H3.003A.995.995 0 0 0 2 5.996v29.008c0 .55.439.996 1.003.996h20.994A.995.995 0 0 0 25 35.004V5.996zm2 0v29.008A2.995 2.995 0 0 1 23.997 38H3.003A2.993 2.993 0 0 1 0 35.004V5.996A2.995 2.995 0 0 1 3.003 3h20.994A2.993 2.993 0 0 1 27 5.996z" class="color-500" transform="translate(33 6)"/></g><g class="animate-grow"><path fill="#A6D2FF" d="M6 24.381A12.957 12.957 0 0 0 15 28c3.493 0 6.664-1.377 9-3.619V23h.624H24c0-1.659-1.34-3-2.992-3H8.992A2.993 2.993 0 0 0 6 23h-.624H6v1.381zm-1.913-2.314A12.94 12.94 0 0 1 2 15C2 7.82 7.819 2 15 2c7.18 0 13 5.819 13 13a12.94 12.94 0 0 1-2.087 7.067A4.995 4.995 0 0 0 21.008 18H8.992a4.992 4.992 0 0 0-4.905 4.067zM18.315 18h-6.632A5.997 5.997 0 0 1 9 12.998v-2.996A6.004 6.004 0 0 1 15 4c3.314 0 6 2.688 6 6.002v2.996A6 6 0 0 1 18.315 18z" class="color-200" transform="translate(53 48)"/><path fill="#40A0FF" d="M15 29c3.493 0 7.664-2.377 10-4.619V23c0-1.659-2.34-4-3.992-4H8.992C7.338 19 5 21.34 5 23v1.381C7.336 26.623 11.507 29 15 29z" class="color-300" transform="translate(53 48)"/><rect width="9" height="12" x="10.5" y="5.5" fill="#FFF" class="color-100" rx="4.5" transform="translate(53 48)"/><path fill="#005CB9" fill-rule="nonzero" d="M15 0c8.285 0 15 6.715 15 15s-6.715 15-15 15S0 23.285 0 15 6.715 0 15 0zm6.008 20H8.992a2.993 2.993 0 0 0-2.987 2.823L6 23v1.381A12.957 12.957 0 0 0 15 28c3.493 0 6.664-1.377 9-3.619V23c0-1.659-1.34-3-2.992-3zM15 2C7.819 2 2 7.82 2 15c0 2.606.767 5.033 2.087 7.067A4.992 4.992 0 0 1 8.992 18h2.69A5.997 5.997 0 0 1 9 12.998v-2.996A6.004 6.004 0 0 1 15 4c3.314 0 6 2.688 6 6.002v2.996A6 6 0 0 1 18.315 18h2.693c2.439 0 4.47 1.75 4.905 4.067A12.94 12.94 0 0 0 28 15c0-7.181-5.82-13-13-13zm0 4l-.2.005a4.005 4.005 0 0 0-3.8 3.997v2.996C11 15.208 12.79 17 15 17l.2-.005a4.005 4.005 0 0 0 3.8-3.997v-2.996C19 7.792 17.21 6 15 6z" class="color-500" transform="translate(53 48)"/></g><g class="animate-grow"><path fill="#A6D2FF" d="M6 24.381A12.957 12.957 0 0 0 15 28c3.493 0 6.664-1.377 9-3.619V23h.624H24c0-1.659-1.34-3-2.992-3H8.992A2.993 2.993 0 0 0 6 23h-.624H6v1.381zm-1.913-2.314A12.94 12.94 0 0 1 2 15C2 7.82 7.819 2 15 2c7.18 0 13 5.819 13 13a12.94 12.94 0 0 1-2.087 7.067A4.995 4.995 0 0 0 21.008 18H8.992a4.992 4.992 0 0 0-4.905 4.067zM18.315 18h-6.632A5.997 5.997 0 0 1 9 12.998v-2.996A6.004 6.004 0 0 1 15 4c3.314 0 6 2.688 6 6.002v2.996A6 6 0 0 1 18.315 18z" class="color-200" transform="translate(9 48)"/><path fill="#40A0FF" d="M5 24.381C7.336 26.623 11.507 29 15 29c3.493 0 7.664-2.377 10-4.619V23c0-1.659-2.34-4-3.992-4H8.992C7.338 19 5 21.34 5 23v1.381z" class="color-300" transform="translate(9 48)"/><rect width="9" height="12" x="10.5" y="5.5" fill="#FFF" class="color-100" rx="4.5" transform="translate(9 48)"/><path fill="#005CB9" fill-rule="nonzero" d="M15 0c8.285 0 15 6.715 15 15s-6.715 15-15 15S0 23.285 0 15 6.715 0 15 0zm6.008 20H8.992a2.993 2.993 0 0 0-2.987 2.823L6 23v1.381A12.957 12.957 0 0 0 15 28c3.493 0 6.664-1.377 9-3.619V23c0-1.659-1.34-3-2.992-3zM15 2C7.819 2 2 7.82 2 15c0 2.606.767 5.033 2.087 7.067A4.992 4.992 0 0 1 8.992 18h2.69A5.997 5.997 0 0 1 9 12.998v-2.996A6.004 6.004 0 0 1 15 4c3.314 0 6 2.688 6 6.002v2.996A6 6 0 0 1 18.315 18h2.693c2.439 0 4.47 1.75 4.905 4.067A12.94 12.94 0 0 0 28 15c0-7.181-5.82-13-13-13zm0 4l-.2.005a4.005 4.005 0 0 0-3.8 3.997v2.996C11 15.208 12.79 17 15 17l.2-.005a4.005 4.005 0 0 0 3.8-3.997v-2.996C19 7.792 17.21 6 15 6z" class="color-500" transform="translate(9 48)"/></g></g></svg>