<svg xmlns="http://www.w3.org/2000/svg" width="92" height="92" class="wd-applet wd-applet-ar-aging" focusable="false" role="presentation" viewBox="0 0 92 92"><g fill="none" fill-rule="evenodd" class="wd-icon-container"><g fill="#0B77E3" fill-opacity=".2" class="animate-flood"><path d="M46 82c19.882 0 36-16.118 36-36S65.882 10 46 10 10 26.118 10 46s16.118 36 36 36z" class="color-400-alpha-20"/></g><g class="animate-shrink"><path fill="#FFF" d="M72 79a1 1 0 0 1-.992 1H20.992A1 1 0 0 1 20 79V13a1 1 0 0 1 .992-1h50.016A1 1 0 0 1 72 13v66z" class="color-100"/><path fill="#40A0FF" d="M28 64.001A1 1 0 0 0 29 65h22c.552 0 1-.443 1-.999v-1.002A1 1 0 0 0 51 62H29c-.552 0-1 .443-1 .999v1.002zm0 6c0 .552.445.999.996.999h9.008c.55 0 .996-.443.996-.999v-1.002a.997.997 0 0 0-.996-.999h-9.008a.994.994 0 0 0-.996.999v1.002zM43 41a3 3 0 1 0 0-6 3 3 0 0 0 0 6z" class="color-300"/><path fill="#0B77E3" d="M28 55.001A1 1 0 0 0 29 56h22c.552 0 1-.443 1-.999v-1.002A1 1 0 0 0 51 53H29c-.552 0-1 .443-1 .999v1.002zm0-6c0 .552.455.999 1 .999h34c.552 0 1-.443 1-.999v-1.002c0-.552-.455-.999-1-.999H29c-.552 0-1 .443-1 .999v1.002zM32 41a3 3 0 1 0 0-6 3 3 0 0 0 0 6z" class="color-400"/><path fill="#005CB9" fill-rule="nonzero" d="M71.008 10A3 3 0 0 1 74 13v66c0 1.657-1.34 3-3 3H20.998A3.002 3.002 0 0 1 18 78.996V13.008C18 11.354 19.338 10 20.992 10h50.016zm0 2H20.992c-.542 0-.992.451-.992 1.008v65.988c0 .553.447 1.004.998 1.004H71c.555 0 1-.448 1-1V13a1 1 0 0 0-.992-1zM43 34a4 4 0 1 1 0 8 4 4 0 0 1 0-8zm-11 0a4 4 0 1 1 0 8 4 4 0 0 1 0-8zm11 1.6a2.4 2.4 0 1 0 0 4.8 2.4 2.4 0 0 0 0-4.8zm-11 0a2.4 2.4 0 1 0 0 4.8 2.4 2.4 0 0 0 0-4.8zM47.008 28c.509 0 .928.383.985.883L48 29c0 .552-.455 1-.992 1H28.992A.993.993 0 0 1 28 29c0-.552.455-1 .992-1h18.016zm9.994-5c.512 0 .934.383.991.883L58 24a1 1 0 0 1-.998 1H28.998a1 1 0 1 1 0-2h28.004z" class="color-500"/></g><g class="animate-float-left"><path fill="#40A0FF" d="M64.424 76.061l.005 5.958c0 .718-.401.883-.898.386L53.366 72.24a1.286 1.286 0 0 1 .008-1.806l10.127-10.127c.496-.496.908-.332.908.378l.006 5.817c1.645.428 6.017 1.922 10.289 6.436 5.405 5.712 4.163 10.452 4.163 10.452-.057.7-.48.8-.892.22 0 0-2.707-4.29-7.23-6.361-3.151-1.444-5.305-1.367-6.321-1.188z" class="color-300"/><path fill="#005CB9" fill-rule="nonzero" d="M64.43 81.996c0 .718-.402.883-.898.386L53.367 72.217a1.286 1.286 0 0 1 .008-1.806L63.5 60.284c.497-.496.908-.332.909.378l.005 5.818c1.645.427 6.018 1.921 10.29 6.436 5.404 5.71 4.163 10.451 4.163 10.451-.057.7-.481.8-.893.22 0 0-2.706-4.29-7.229-6.361-3.151-1.444-5.305-1.367-6.322-1.188l.006 5.958zm5.483-2.952c1.217.557 2.377 1.346 3.461 2.31a18.61 18.61 0 0 1 2.186 2.314c.37.464.614.812.723.987l.062.092c1.44 2.024 4.182 1.41 4.499-1.051a6.12 6.12 0 0 0 .066-.39c.466-3.337-.723-7.507-4.753-11.765-3.192-3.373-6.599-5.444-9.743-6.542l-.004-4.339c-.002-2.491-2.568-3.545-4.323-1.79L51.961 68.997a3.286 3.286 0 0 0-.009 4.634l10.166 10.166c1.765 1.766 4.314.686 4.312-1.802l-.004-4.012c.971.114 2.132.44 3.487 1.061z" class="color-500"/></g></g></svg>