<svg xmlns="http://www.w3.org/2000/svg" width="92" height="92" class="wd-applet wd-applet-area-graph" focusable="false" role="presentation" viewBox="0 0 92 92"><g fill="none" fill-rule="evenodd" class="wd-icon-container"><g fill="#0B77E3" fill-opacity=".2" class="animate-flood"><circle cx="36" cy="36" r="36" class="color-400-alpha-20" transform="translate(10 10)"/></g><rect width="64" height="50" x="14" y="19" fill="#FFF" class="color-100" rx="1"/><path fill="#40A0FF" d="M28 17.01c0-.558.455-1.01 1-1.01h34a1 1 0 0 1 1 1.01v1.98A1.01 1.01 0 0 1 63 20H29a1 1 0 0 1-1-1.01v-1.98zm35.31 53.04l2.347 8.755a.999.999 0 0 0 1.225.71.998.998 0 0 0 .707-1.224l-2.199-8.207-2.08-.034zM28.326 70l-2.358 8.8c-.144.538-.69.858-1.226.714a1.001 1.001 0 0 1-.706-1.229l2.213-8.258L28.325 70z" class="color-300"/><path fill="#000" d="M28.325 70l-.804 3H25.45l.798-2.973L28.325 70zm34.986.05l2.08.034.78 2.916h-2.07l-.79-2.95z" class="color-shadow" opacity=".1"/><path fill="#005CB9" d="M63 14a3 3 0 0 1 3 3h10.995A3.002 3.002 0 0 1 80 19.999V68A2.997 2.997 0 0 1 76.995 71h-9.326l1.816 6.778a3.002 3.002 0 0 1-2.12 3.682 3.001 3.001 0 0 1-3.675-2.129L61.457 71H30.13l-2.231 8.327a3.001 3.001 0 0 1-3.676 2.128 3.002 3.002 0 0 1-2.12-3.681L23.918 71h-8.913A3.002 3.002 0 0 1 12 68.001V20A2.997 2.997 0 0 1 15.005 17H26l.005-.167A3.01 3.01 0 0 1 29 14h34zm2.6 57.004l-2.07.003 2.092 7.806c.144.538.689.859 1.226.715.534-.143.85-.693.705-1.232L65.6 71.004zm-37.542.001l-2.073.008-1.95 7.278c-.145.54.172 1.09.705 1.232a1.001 1.001 0 0 0 1.227-.714l2.09-7.804zM26 19.001L15.005 19a.997.997 0 0 0-1.005.999V68c0 .551.45.999 1.005.999h61.99A.997.997 0 0 0 78 68.001V20c0-.551-.45-.999-1.005-.999H66l-.005.167A3.01 3.01 0 0 1 63 22H29a3 3 0 0 1-3-3zM63 16H29c-.545 0-1 .452-1 1.01v1.98A1 1 0 0 0 29 20h34c.545 0 1-.452 1-1.01v-1.98A1 1 0 0 0 63 16z" class="color-500"/><g class="animate-grow"><path fill="#A6D2FF" d="M23 41.906l9.637-2.894c.53-.159 1.22-.662 1.528-1.105l4.583-6.578c.315-.451.806-.436 1.096.032l5.384 8.676c.291.469.872.578 1.32.226l5.566-4.374c.438-.344 1.14-.344 1.57.003l4.884 3.936c.429.345 1.143.363 1.583.048L69 33.537V58c0 1.105-.898 2-2.006 2H25.006A2.005 2.005 0 0 1 23 57.994V41.906z" class="color-200"/><path fill="#40A0FF" d="M23 60V47.886l9.618-1.962c.54-.11 1.239-.574 1.547-1.017l4.583-6.578c.315-.451.806-.436 1.096.032l5.384 8.676c.291.469.872.578 1.32.226l5.566-4.374c.438-.344 1.14-.344 1.57.003l4.884 3.936c.429.345 1.143.363 1.583.048L69 40.537V57.99" class="color-300"/><path fill="#0B77E3" d="M25.006 61A2.007 2.007 0 0 1 23 58.99v-4.454l9.587-1.58c.55-.09 1.25-.53 1.565-.989l4.583-6.635c.315-.455.806-.44 1.097.032l5.383 8.752c.291.473.872.583 1.306.239l5.594-4.434c.43-.34 1.125-.336 1.556.014l4.884 3.97c.429.349 1.143.366 1.583.048l8.85-6.393v11.442A2.002 2.002 0 0 1 66.98 61H25.006z" class="color-400"/><path fill="#40A0FF" d="M25 30.996A.993.993 0 0 0 24 30c-.556 0-1 .446-1 .996v29.008A.992.992 0 0 0 24 61h45.999a.999.999 0 1 0-.002-2H25.003L25 30.996z" class="color-300"/><path fill="#005CB9" fill-rule="nonzero" d="M37.912 44.764c.726-1.051 2.103-1.01 2.771.076l5.32 8.649 5.491-4.352c.799-.633 2.014-.623 2.807.022l4.885 3.97c.076.062.291.068.366.014l8.85-6.394a1 1 0 1 1 1.17 1.621l-8.848 6.394c-.809.584-2.022.55-2.8-.083l-4.884-3.97c-.067-.054-.241-.056-.304-.006l-5.594 4.434c-.905.717-2.175.482-2.779-.5l-5.107-8.302-4.28 6.199c-.471.68-1.408 1.272-2.226 1.407l-7.795 1.285a1 1 0 1 1-.326-1.974l7.796-1.284c.283-.047.743-.338.905-.57zm.016-7.007c.726-1.042 2.098-1.001 2.766.076l5.321 8.576 5.482-4.306c.803-.631 2.02-.63 2.814.01l4.884 3.936c.078.062.297.069.374.014l8.849-6.339a1 1 0 0 1 1.164 1.626l-8.849 6.339c-.807.578-2.016.543-2.793-.083l-4.884-3.935c-.065-.053-.25-.053-.324.005l-5.567 4.373c-.913.717-2.18.494-2.787-.485L39.27 39.33l-4.283 6.149c-.458.656-1.38 1.264-2.168 1.425l-7.94 1.62a1 1 0 0 1-.4-1.96l7.94-1.62c.285-.058.763-.373.927-.609zm0-7c.726-1.042 2.098-1.001 2.766.076l5.321 8.576 5.482-4.306c.803-.631 2.02-.63 2.814.01l4.884 3.936c.078.062.297.069.374.014l8.849-6.339a1 1 0 0 1 1.164 1.626l-8.849 6.339c-.807.578-2.016.543-2.793-.083l-4.884-3.935c-.065-.053-.25-.053-.324.005l-5.567 4.373c-.913.717-2.18.494-2.787-.485L39.27 32.33l-4.283 6.149c-.44.63-1.315 1.267-2.053 1.488l-7.929 2.381a1 1 0 1 1-.575-1.915l7.929-2.381c.305-.092.805-.455.987-.717z" class="color-500"/></g></g></svg>