<svg xmlns="http://www.w3.org/2000/svg" width="92" height="92" class="wd-applet wd-applet-background-processes" focusable="false" role="presentation" viewBox="0 0 92 92"><g fill="none" fill-rule="evenodd" class="wd-icon-container"><g fill="#0B77E3" fill-opacity=".2" class="animate-flood"><circle cx="36" cy="36" r="36" class="color-400-alpha-20" transform="translate(10 10)"/></g><g class="animate-right"><path fill="#005CB9" fill-rule="nonzero" d="M63.13 14c2.617.007 5.127.714 7.363 2.039l1.443.855-1.438.862-8.18 4.909c-1.518.909-2.163 2.429-1.64 3.3l3.074 5.126c.523.871 2.167 1.018 3.685.107l9.853-5.91.174 1.546c.064.566.097 1.122.096 1.674-.022 7.993-6.517 14.454-14.51 14.431a14.95 14.95 0 0 1-2.587-.243c-2.658-.353-4.793.425-6.35 1.737L23.065 75.314c-1.168 1.161-2.623 1.878-3.947 1.972-.303.04-.576.061-.847.06A6.288 6.288 0 0 1 12 71.04a6.34 6.34 0 0 1 .146-1.317c.234-1.214.916-2.44 1.929-3.448l31.263-31.07c2.21-2.342 3.179-4.821 3.333-6.918l.016-.584C49.09 20.015 55.417 13.98 63.13 14zm-.006 2c-6.643-.018-12.093 5.18-12.439 11.782l-.016.582c-.182 2.58-1.318 5.503-3.898 8.237L15.485 67.693c-.736.733-1.22 1.602-1.38 2.433a4.42 4.42 0 0 0-.105.922 4.288 4.288 0 0 0 4.278 4.298c.173 0 .358-.013.636-.048.883-.065 1.898-.565 2.74-1.402L52.763 42.96c2.019-1.705 4.695-2.68 8.017-2.238a12.928 12.928 0 0 0 2.278.217c6.834.02 12.4-5.464 12.501-12.28l-7.092 4.255c-2.37 1.42-5.254 1.163-6.429-.795l-3.075-5.125c-1.173-1.958-.042-4.626 2.327-6.044l6.627-3.976A12.39 12.39 0 0 0 63.124 16z" class="color-500"/><path fill="#40A0FF" d="M63.124 16c-6.643-.018-12.093 5.18-12.439 11.782l-.016.582c-.182 2.58-1.318 5.503-3.898 8.237L15.485 67.693c-.736.733-1.22 1.602-1.38 2.433a4.42 4.42 0 0 0-.105.922 4.288 4.288 0 0 0 4.278 4.298c.173 0 .358-.013.636-.048.883-.065 1.898-.565 2.74-1.402L52.763 42.96c2.019-1.705 4.695-2.68 8.017-2.238a12.928 12.928 0 0 0 2.278.217c6.834.02 12.4-5.464 12.501-12.28l-7.092 4.255c-2.37 1.42-5.254 1.163-6.429-.795l-3.075-5.125c-1.173-1.958-.042-4.626 2.327-6.044l6.627-3.976A12.39 12.39 0 0 0 63.124 16z" class="color-300"/><path fill="#005CB9" fill-rule="nonzero" d="M21.536 67.793a3 3 0 1 1-4.243 4.243 3 3 0 0 1 4.243-4.243zm-2.829 1.414a1 1 0 1 0 1.414 1.414 1 1 0 0 0-1.414-1.414z" class="color-500"/><path fill="#FFF" d="M18.707 70.621a1 1 0 1 0 1.414-1.414 1 1 0 0 0-1.414 1.414z" class="color-100"/></g><g class="animate-left"><path fill="#005CB9" fill-rule="nonzero" d="M71.893 80.128l-9.121-5.661.505-2.808L45.65 54.045l4.28-4.28 17.533 17.519 3.055-.46 5.407 9.272-4.032 4.032zm-.293-2.536l1.82-1.82-3.946-6.769-2.71.409-16.834-16.82-1.451 1.452 16.951 16.94-.45 2.5 6.62 4.108z" class="color-500"/><path fill="#FFF" d="M48.479 54.044l16.951 16.94-.45 2.5 6.62 4.108 1.82-1.82-3.946-6.769-2.71.409-16.834-16.82z" class="color-100"/><path fill="#005CB9" fill-rule="nonzero" d="M46.752 58.712l-2.354-2.351.84-.84-2.292-2.226c-1.836.515-3.43.385-4.768-.527l-.17-.147a6.404 6.404 0 0 0-.233-.236l-.082-.078c-.209-.2-.28-.268-.344-.333l-.028-.027-.857-.857-.842-.84-1.231-1.23-.8-.799-1.17-1.168-.759-.758-1.107-1.105-.718-.717-.352-.352-.692-.69-.34-.34-.668-.667-.327-.326-.642-.641-.314-.315-.617-.615-.302-.302-.88-.88-.286-.284-.557-.556-.272-.272-.791-.79-.255-.255-.74-.738-.238-.238-.688-.687-.22-.22-.84-.839-.199-.198-.753-.752-.177-.177-.82-.82c-.052-.05-.102-.1-.151-.15l-.814-.812-.12-.12-.8-.8-.08-.079-.672-.67c-2.434-2.433-1.823-6.81 1.172-9.805 3.015-3.018 7.389-3.59 9.904-1.078l22.405 22.392c.072.074.133.148.188.23.038.056.118.193.114.187.97 1.454 1.083 3.318.448 5.256l2.114 2.114.943-.944 2.354 2.352-8.12 8.12zm.158-4.336l3.531-3.598-3.316-3.215.251-.615c.653-1.598.637-3.029-.042-4.047a5.139 5.139 0 0 1-.08-.131L24.894 20.42c-1.641-1.64-4.773-1.23-7.076 1.077-2.287 2.287-2.725 5.425-1.18 6.969l.634.633.076.076.88.878.12.12.808.807.15.15.817.816.177.176.751.75.2.2.623.622.216.216.912.91.24.24.744.743.257.257.528.527.271.27.84.84.289.288.591.59.303.303.935.934.321.32.656.655 1.018 1.016.701.7.358.358.73.728.371.372.757.756 1.171 1.169.804.802 1.24 1.239.85.85 1.312 1.308.446.446c.061.061.114.112.255.247l.249.24.106.107.044.045c.872.55 2.004.564 3.501.047l.582-.2 3.439 3.36z" class="color-500"/><path fill="#40A0FF" d="M50.441 50.778l-3.316-3.215.251-.615c.653-1.598.637-3.029-.042-4.047a5.138 5.138 0 0 1-.08-.131L24.894 20.42c-1.641-1.64-4.773-1.23-7.076 1.077-2.287 2.287-2.725 5.425-1.18 6.969.035.035 7.14 7.128 22.097 22.065.061.061.114.112.255.247.217.208.314.304.4.392.871.55 2.003.564 3.5.047l.582-.2 3.439 3.36 3.531-3.6z" class="color-300"/><path fill="#FFF" d="M42.195 45.867c-.72.72-1.89.72-2.61 0L21.689 27.97a1.846 1.846 0 0 1 2.61-2.61l17.896 17.895c.72.721.72 1.89 0 2.61zm3.48-3.48c-.24.24-.63.24-.87 0L25.17 22.75a.615.615 0 0 1 .87-.87l19.637 19.636c.24.24.24.63 0 .87zm-6.96 6.96c-.24.24-.63.24-.87 0L18.207 29.711a.615.615 0 1 1 .87-.87l19.637 19.636c.24.24.24.63 0 .87z" class="color-100"/></g></g></svg>