<svg xmlns="http://www.w3.org/2000/svg" width="92" height="92" class="wd-applet wd-applet-bar-graph" focusable="false" role="presentation" viewBox="0 0 92 92"><g fill="none" fill-rule="evenodd" class="wd-icon-container"><g fill="#0B77E3" fill-opacity=".2" class="animate-flood"><circle cx="36" cy="36" r="36" class="color-400-alpha-20" transform="translate(10 10)"/></g><rect width="64" height="50" x="14" y="19" fill="#FFF" class="color-100" rx="1"/><path fill="#40A0FF" d="M28 17.01c0-.558.455-1.01 1-1.01h34a1 1 0 0 1 1 1.01v1.98A1.01 1.01 0 0 1 63 20H29a1 1 0 0 1-1-1.01v-1.98zM63 70l2.32 9.103a.963.963 0 0 0 1.216.686l.587-.17c.536-.154.872-.717.75-1.26L66 70h-3zm-34.422.177L26.048 79c-.152.527-.703.85-1.255.714l-.26-.064a.987.987 0 0 1-.728-1.212L26 70l2.579.177z" class="color-300"/><path fill="#000" d="M28.325 70l-.804 3H25.45l.798-2.973L28.325 70zm34.986.05l2.08.034.78 2.916h-2.07l-.79-2.95z" class="color-shadow" opacity=".1"/><path fill="#005CB9" d="M63 14a3 3 0 0 1 3 3h10.995A3.002 3.002 0 0 1 80 19.999V68A2.997 2.997 0 0 1 76.995 71h-9.326l1.816 6.778a3.002 3.002 0 0 1-2.12 3.682 3.001 3.001 0 0 1-3.675-2.129L61.457 71H30.13l-2.231 8.327a3.001 3.001 0 0 1-3.676 2.128 3.002 3.002 0 0 1-2.12-3.681L23.918 71h-8.913A3.002 3.002 0 0 1 12 68.001V20A2.997 2.997 0 0 1 15.005 17H26l.005-.167A3.01 3.01 0 0 1 29 14h34zm2.6 57.004l-2.07.003 2.092 7.806c.144.538.689.859 1.226.715.534-.143.85-.693.705-1.232L65.6 71.004zm-37.542.001l-2.073.008-1.95 7.278c-.145.54.172 1.09.705 1.232a1.001 1.001 0 0 0 1.227-.714l2.09-7.804zM26 19.001L15.005 19a.997.997 0 0 0-1.005.999V68c0 .551.45.999 1.005.999h61.99A.997.997 0 0 0 78 68.001V20c0-.551-.45-.999-1.005-.999H66l-.005.167A3.01 3.01 0 0 1 63 22H29a3 3 0 0 1-3-3zM63 16H29c-.545 0-1 .452-1 1.01v1.98A1 1 0 0 0 29 20h34c.545 0 1-.452 1-1.01v-1.98A1 1 0 0 0 63 16z" class="color-500"/><g class="animate-grow"><path fill="#40A0FF" d="M11 12.007c0-.556.453-1.007.997-1.007h6.006c.55 0 .997.45.997 1.007v11.986c0 .556-.453 1.007-.997 1.007h-6.006c-.55 0-.997-.45-.997-1.007V12.007zm29-5.012A1 1 0 0 1 40.997 6h6.006a1 1 0 0 1 .997.995v17.01a1 1 0 0 1-.997.995h-6.006a1 1 0 0 1-.997-.995V6.995z" class="color-300" transform="translate(22 32)"/><path fill="#005CB9" fill-rule="nonzero" d="M18.003 11c.55 0 .997.45.997 1.007v11.986c0 .556-.453 1.007-.997 1.007h-6.006c-.55 0-.997-.45-.997-1.007V12.007c0-.556.453-1.007.997-1.007h6.006zm29-5a1 1 0 0 1 .997.995v17.01a1 1 0 0 1-.997.995h-6.006a1 1 0 0 1-.997-.995V6.995A1 1 0 0 1 40.997 6h6.006zM17 13h-4v10h4V13zm29-5h-4v15h4V8zm-9.997-8c.55 0 .997.455.997.995v23.01a1 1 0 0 1-.997.995h-6.006c-.55 0-.997-.455-.997-.995V.995A1 1 0 0 1 29.997 0h6.006zM35 2h-4v21h4V2zM7.003 3C7.553 3 8 3.44 8 4.002v19.996C8 24.55 7.547 25 7.003 25H.997A.994.994 0 0 1 0 23.998V4.002C0 3.45.453 3 .997 3h6.006zM6 5H2v18h4V5z" class="color-500" transform="translate(22 32)"/><rect width="19" height="2" y="27" fill="#40A0FF" class="color-300" rx="1" transform="translate(22 32)"/><rect width="19" height="2" x="29" y="27" fill="#40A0FF" class="color-300" rx="1" transform="translate(22 32)"/></g></g></svg>