<svg xmlns="http://www.w3.org/2000/svg" width="92" height="92" class="wd-applet wd-applet-basics" focusable="false" role="presentation" viewBox="0 0 92 92"><g fill="none" fill-rule="evenodd" class="wd-icon-container"><g fill="#0B77E3" fill-opacity=".2" class="animate-flood"><circle cx="36" cy="36" r="36" class="color-400-alpha-20" transform="translate(10 10)"/></g><g class="animate-float"><path fill="#40A0FF" d="M9 18h74a1 1 0 0 1 1 1v53a1 1 0 0 1-1 1H9a1 1 0 0 1-1-1V19a1 1 0 0 1 1-1z" class="color-300"/><path fill="#005CB9" fill-rule="nonzero" d="M83 16a3 3 0 0 1 3 3v53a3 3 0 0 1-3 3l-30.26.001c-.34.602-.985.999-1.74.999H41c-.755 0-1.4-.397-1.74-.999L9 75a3 3 0 0 1-3-3V19a3 3 0 0 1 3-3h74zm0 2H9a1 1 0 0 0-1 1v53a1 1 0 0 0 1 1h74a1 1 0 0 0 1-1V19a1 1 0 0 0-1-1z" class="color-500"/><path fill="#FFF" d="M66.5 69.76c-7.587 0-13.77 1.324-16.706 3.24-1.216.795-1.93-.56-2.03.087l.608-54.984C48.542 16.385 55.836 15 66.5 15s19.328 1.385 19.5 3.103V71c0 .769-.29 1.47-.764 2-2.35-1.826-9.849-3.24-18.736-3.24zm-41 0c7.587 0 13.77 1.324 16.706 3.24 1.216.795 1.93-.56 2.03.087l-.608-54.984C43.458 16.385 36.164 15 25.5 15S6.172 16.385 6 18.103V71c0 .769.29 1.47.764 2 2.35-1.826 9.849-3.24 18.736-3.24z" class="color-100"/><path fill="#005CB9" fill-rule="nonzero" d="M67.5 68.972c8.431 0 14.303 1.202 16.627 2.937.451-.504.873-1.029.873-1.759V18.948C84.837 17.316 77.617 16 67.5 16s-18.337 1.316-18.498 2.948l.009 53.586v.691c.34-2.19 8.487-4.253 18.489-4.253zm0 2c-4.657 0-9.082.463-12.406 1.25-1.52.361-2.735.775-3.537 1.19-.327.17-.555.324-.673.438.012-.011.071-.111.103-.318l-3.976-.307v-.69l-.009-53.586.01-.197C47.35 15.322 55.632 14 67.5 14c11.55 0 19.146 1.31 19.49 4.75l.01.198V70.15c0 1.251-.458 2.06-1.382 3.093l-1.22 1.364-1.468-1.095c-1.985-1.483-7.733-2.54-15.43-2.54zM24.5 68.972c10.002 0 18.15 2.062 18.49 4.253v-.691l.008-53.586C42.837 17.316 34.617 16 24.5 16S7.163 17.316 7 18.948V70.15c0 .73.422 1.255.873 1.76 2.324-1.736 8.196-2.938 16.627-2.938zm0 2c-7.697 0-13.445 1.057-15.43 2.54l-1.467 1.095-1.221-1.364C5.458 72.21 5 71.4 5 70.15V18.948l.01-.199C5.354 15.31 12.95 14 24.5 14c11.869 0 20.15 1.322 20.488 4.752l.01.197-.009 53.585v.691l-3.976.307c.032.207.091.307.103.318-.118-.114-.346-.268-.673-.438-.802-.415-2.017-.829-3.537-1.19-3.324-.787-7.75-1.25-12.406-1.25z" class="color-500"/><path fill="#A6D2FF" fill-rule="nonzero" d="M55.244 27.45a69.763 69.763 0 0 1 11.369-.95c3.738 0 7.45.316 11.133.948a1.5 1.5 0 1 0 .508-2.957 68.735 68.735 0 0 0-11.641-.991c-3.906 0-7.859.33-11.857.99a1.5 1.5 0 1 0 .488 2.96zm0 8.25a69.763 69.763 0 0 1 11.369-.95c3.738 0 7.45.316 11.133.948a1.5 1.5 0 1 0 .508-2.957 68.735 68.735 0 0 0-11.641-.991c-3.906 0-7.859.33-11.857.99a1.5 1.5 0 1 0 .488 2.96zm0 8.25A69.763 69.763 0 0 1 66.613 43c3.738 0 7.45.316 11.133.948a1.5 1.5 0 1 0 .508-2.957A68.735 68.735 0 0 0 66.613 40c-3.906 0-7.859.33-11.857.99a1.5 1.5 0 1 0 .488 2.96zm0 8.25a69.763 69.763 0 0 1 11.369-.95c3.738 0 7.45.316 11.133.948a1.5 1.5 0 1 0 .508-2.957 68.735 68.735 0 0 0-11.641-.991c-3.906 0-7.859.33-11.857.99a1.5 1.5 0 1 0 .488 2.96zm0 8.25a69.763 69.763 0 0 1 11.369-.95c3.738 0 7.45.316 11.133.948a1.5 1.5 0 1 0 .508-2.957 68.735 68.735 0 0 0-11.641-.991c-3.906 0-7.859.33-11.857.99a1.5 1.5 0 1 0 .488 2.96zm-41-33a69.763 69.763 0 0 1 11.369-.95c3.738 0 7.45.316 11.133.948a1.5 1.5 0 1 0 .508-2.957 68.735 68.735 0 0 0-11.641-.991c-3.906 0-7.859.33-11.857.99a1.5 1.5 0 1 0 .488 2.96zm0 8.25a69.763 69.763 0 0 1 11.369-.95c3.738 0 7.45.316 11.133.948a1.5 1.5 0 1 0 .508-2.957 68.735 68.735 0 0 0-11.641-.991c-3.906 0-7.859.33-11.857.99a1.5 1.5 0 1 0 .488 2.96zm0 8.25A69.763 69.763 0 0 1 25.613 43c3.738 0 7.45.316 11.133.948a1.5 1.5 0 1 0 .508-2.957A68.735 68.735 0 0 0 25.613 40c-3.906 0-7.859.33-11.857.99a1.5 1.5 0 1 0 .488 2.96zm0 8.25a69.763 69.763 0 0 1 11.369-.95c3.738 0 7.45.316 11.133.948a1.5 1.5 0 1 0 .508-2.957 68.735 68.735 0 0 0-11.641-.991c-3.906 0-7.859.33-11.857.99a1.5 1.5 0 1 0 .488 2.96zm0 8.25a69.763 69.763 0 0 1 11.369-.95c3.738 0 7.45.316 11.133.948a1.5 1.5 0 1 0 .508-2.957 68.735 68.735 0 0 0-11.641-.991c-3.906 0-7.859.33-11.857.99a1.5 1.5 0 1 0 .488 2.96z" class="color-200"/><path fill="#0B77E3" d="M68 14v17l4-4 4 4V14.42a67.538 67.538 0 0 0-3.078-.234c-1.37-.081-3.01-.143-4.922-.186z" class="color-400"/></g></g></svg>