<svg xmlns="http://www.w3.org/2000/svg" width="92" height="92" class="wd-applet wd-applet-benefit-elections" focusable="false" role="presentation" viewBox="0 0 92 92"><g fill="none" fill-rule="evenodd" class="wd-icon-container"><g fill="#0B77E3" fill-opacity=".2" class="animate-flood"><path d="M46 85c19.882 0 36-16.118 36-36S65.882 13 46 13 10 29.118 10 49s16.118 36 36 36z" class="color-400-alpha-20"/></g><g class="animate-shrink"><path fill="#FFF" d="M3 19h56v38.991c0 .557-.45 1.009-.996 1.009H3.996A1 1 0 0 1 3 57.991V19z" class="color-100" transform="translate(16 22)"/><path fill="#005CB9" fill-rule="nonzero" d="M59 17a2 2 0 0 1 2 2v37.003A3 3 0 0 1 58.004 59H3.996A3 3 0 0 1 1 56.003V19a2 2 0 0 1 2-2h56zm0 2H3v37.003a1 1 0 0 0 .996.997h54.008a1 1 0 0 0 .996-.997V19z" class="color-500" transform="translate(16 22)"/><path fill="#FFF" d="M20.193 29.978a.42.42 0 0 1 .283-.383l10.12-3.305a1.05 1.05 0 0 1 .573 0l10.12 3.305a.436.436 0 0 1 .284.393s.002 4.976-1.067 10.548-7.183 8.619-9.623 11.1c-2.244-2.481-8.554-5.343-9.624-11.1-1.069-5.757-1.066-10.558-1.066-10.558z" class="color-100" transform="translate(16 22)"/><path fill="#A6D2FF" d="M23.27 30.028l6.848-2.303a2.864 2.864 0 0 1 1.764 0l6.848 2.303c.957.322 1.617 1.247 1.603 2.236 0 .486-.024 1.309-.096 2.378a46.79 46.79 0 0 1-.668 5.396c-.47 2.52-1.899 4.452-4.259 6.467-.12.102-2.502 2.015-2.863 2.393a2 2 0 0 1-2.95-.061c-.326-.372-3.027-2.525-2.87-2.392-2.33-1.966-3.74-3.882-4.198-6.418a49.834 49.834 0 0 1-.666-5.437 36.681 36.681 0 0 1-.096-2.327 2.366 2.366 0 0 1 1.603-2.235z" class="color-200" transform="translate(16 22)"/><path fill="#005CB9" fill-rule="nonzero" d="M31.79 24.389l10.12 3.305c.987.322 1.676 1.277 1.663 2.293 0 .193-.005.5-.018.939-.022.718-.06 1.524-.12 2.4a63.696 63.696 0 0 1-.965 7.587c-.642 3.348-2.618 5.94-5.922 8.679-.064.053-.98.769-1.952 1.544l-.39.312c-.843.677-1.648 1.338-1.897 1.59a2 2 0 0 1-2.91-.06c-.535-.593-4.581-3.724-4.277-3.475-3.257-2.668-5.203-5.233-5.829-8.602a67.848 67.848 0 0 1-1.082-10.008 31.87 31.87 0 0 1-.018-.916c-.01-1.02.674-1.96 1.662-2.283l10.121-3.305a3.039 3.039 0 0 1 1.814 0zm-1.193 1.901l-10.12 3.305a.42.42 0 0 0-.284.383v.087c.006.672.081 5.165 1.066 10.47 1.07 5.758 7.38 8.62 9.624 11.101 2.44-2.481 8.554-5.528 9.623-11.1.986-5.135 1.06-9.764 1.066-10.459v-.09a.436.436 0 0 0-.283-.392L31.17 26.29a1.05 1.05 0 0 0-.572 0zm1.285 1.435l6.848 2.303c.957.322 1.617 1.247 1.603 2.236 0 .486-.024 1.309-.096 2.378a46.79 46.79 0 0 1-.668 5.396c-.47 2.52-1.899 4.452-4.259 6.467-.12.102-2.502 2.015-2.863 2.393a2 2 0 0 1-2.95-.061c-.326-.372-3.027-2.525-2.87-2.392-2.33-1.966-3.74-3.882-4.198-6.418a49.834 49.834 0 0 1-.666-5.437 36.681 36.681 0 0 1-.096-2.327 2.366 2.366 0 0 1 1.603-2.235l6.848-2.303a2.864 2.864 0 0 1 1.764 0zm-1.126 1.895l-6.848 2.304a.366.366 0 0 0-.241.333v.056c.003.45.052 3.596.73 7.359.734 4.069 5.063 6.092 6.603 7.845 1.674-1.753 5.869-3.907 6.602-7.845.68-3.643.728-6.884.731-7.35v-.057a.373.373 0 0 0-.241-.341l-6.848-2.304a.875.875 0 0 0-.488 0z" class="color-500" transform="translate(16 22)"/><path fill="#A6D2FF" d="M12.49 2.866C12.772 2.388 13.455 2 14 2h34c.552 0 1.228.387 1.51.866L59 19H3l9.49-16.134z" class="color-200" transform="translate(16 22)"/><path fill="#005CB9" fill-rule="nonzero" d="M12.49 2.866L3 19h56L49.51 2.866C49.228 2.387 48.552 2 48 2H14c-.545 0-1.228.388-1.51.866zM14 0h34c1.262 0 2.593.763 3.234 1.852l9.49 16.134C61.508 19.319 60.547 21 59 21H3c-1.547 0-2.508-1.68-1.724-3.014l9.49-16.134C11.406.765 12.744 0 14 0z" class="color-500" transform="translate(16 22)"/><rect width="24" height="3" x="19" y="9" fill="#0B77E3" class="color-400" rx="1" transform="translate(16 22)"/><path fill="#005CB9" fill-rule="nonzero" d="M17 9.999A3 3 0 0 1 20 7h22c1.656 0 3 1.337 3 2.999v1.002A3 3 0 0 1 42 14H20c-1.656 0-3-1.337-3-2.999V9.999zm2 0v1.002c0 .556.448.999 1 .999h22a1 1 0 0 0 1-.999V9.999A.997.997 0 0 0 42 9H20a1 1 0 0 0-1 .999z" class="color-500" transform="translate(16 22)"/></g><g class="animate-float"><path fill="#FFF" d="M50.072 30.532c-2.132-1.73-5.887-4.573-4.914-7.81.586-1.95 3.55-2.764 4.99.391 1.441-3.155 4.367-2.268 4.915-.391.947 3.245-2.783 6.08-4.914 7.81 0 .04-.077.04-.077 0z" class="color-100"/><path fill="#005CB9" fill-rule="nonzero" d="M50.153 19.963c2.466-1.825 5.92-.915 6.83 2.198.893 3.061-.618 5.639-3.673 8.343-.313.278-.638.553-1.013.86a80.786 80.786 0 0 1-.64.52c-.393.442-.974.679-1.547.679a2.084 2.084 0 0 1-1.546-.678l-.644-.523a35.38 35.38 0 0 1-1.02-.865c-3.066-2.71-4.578-5.29-3.657-8.351.948-3.153 4.434-4.037 6.91-2.183zm-4.995 2.759c-.973 3.237 2.782 6.08 4.914 7.81 0 .04.077.04.077 0 2.131-1.73 5.861-4.565 4.914-7.81-.548-1.877-3.474-2.764-4.914.391-1.44-3.155-4.405-2.34-4.99-.391z" class="color-500"/></g><g class="animate-float-left"><path fill="#005CB9" d="M40 6c2.46 0 4.574 1.48 5.5 3.598V9.5h1.498a1 1 0 0 1 1.002 1l-.007.117a.996.996 0 0 1-.991.883h-1.023A6 6 0 1 1 34 12c.001-.054.002-.108-.007-.165a4.81 4.81 0 0 0-.992-.12c-.303 0-.645.045-1.002.123L32 12a6 6 0 1 1-11.98-.5h-1.022a1 1 0 0 1-.998-1l.007-.117a.999.999 0 0 1 .995-.883H20.5v.098a6.001 6.001 0 0 1 11.113.277c.465-.1.933-.16 1.387-.16.454 0 .922.06 1.387.16A6.002 6.002 0 0 1 40 6zm0 2a4 4 0 1 0 0 8 4 4 0 0 0 0-8zM26 8a4 4 0 1 0 0 8 4 4 0 0 0 0-8z" class="color-500"/><path fill="#FFF" d="M26 16a4 4 0 1 0 0-8 4 4 0 0 0 0 8zm14 0a4 4 0 1 0 0-8 4 4 0 0 0 0 8z" class="color-100"/></g><g class="animate-float-right"><path fill="#FFF" d="M73.019 11.3c0-1.254-1.154-2.27-2.577-2.27-.77 0-1.072.576-1.959.576s-1.137-.576-1.906-.576C65.154 9.03 64 10.046 64 11.3v.036c0 1.764 1.277 2.63 1.277 3.81 0 1.18-.26 3.35.807 3.35 1.055 0 1.081-3.061 2.4-3.14 1.37-.084 1.395 3.14 2.45 3.14 1.067 0 .807-2.17.807-3.35 0-1.18 1.278-2.046 1.278-3.785V11.3z" class="color-100"/><path fill="#005CB9" fill-rule="nonzero" d="M70.442 7.03c2.475 0 4.577 1.85 4.577 4.27v.061c0 1.145-.293 1.985-.886 3.065l-.216.39c-.06.112-.102.194-.133.262-.031.07-.04.092-.042.082l-.001-.01v.093l.013.489c.006.19.01.331.012.459l.003.248c.004.802-.05 1.42-.229 2.003-.36 1.174-1.247 2.053-2.605 2.053-1.007 0-1.732-.524-2.235-1.286a4.362 4.362 0 0 1-.184-.304c-.06.11-.125.214-.197.321-.507.754-1.237 1.27-2.235 1.27-1.359 0-2.246-.88-2.606-2.054-.179-.584-.232-1.2-.228-2.003 0-.21.005-.39.014-.707.01-.308.012-.425.013-.537v-.044c-.002.02-.01 0-.04-.065a3.136 3.136 0 0 0-.078-.162l-.055-.104-.22-.4c-.592-1.084-.884-1.932-.883-3.048L62 11.299c0-2.418 2.102-4.27 4.577-4.27.691 0 1.172.163 1.767.48l.085.045.045.025.02.012.012-.007.092-.048.06-.03.039-.02c.595-.302 1.071-.456 1.745-.456zm0 2c-.146 0-.274.02-.393.054a.996.996 0 0 1-.334.347 6.465 6.465 0 0 0-.584.421c-.151.12-.686.571-.803.665-.356.285-.643.474-.962.605-.26.107-.528.165-.804.165a1 1 0 1 1 0-2 .22.22 0 0 0 .046-.016c.077-.031.18-.094.319-.198a1.389 1.389 0 0 0-.35-.043C65.154 9.03 64 10.046 64 11.3v.036c0 1.764 1.277 2.63 1.277 3.81 0 1.18-.26 3.35.807 3.35 1.055 0 1.081-3.061 2.4-3.14 1.37-.084 1.395 3.14 2.45 3.14 1.067 0 .807-2.17.807-3.35 0-1.18 1.278-2.046 1.278-3.785V11.3c0-1.253-1.154-2.27-2.577-2.27z" class="color-500"/></g></g></svg>