<svg xmlns="http://www.w3.org/2000/svg" width="92" height="92" class="wd-applet wd-applet-benefits" focusable="false" role="presentation" viewBox="0 0 92 92"><g fill="none" fill-rule="evenodd" class="wd-icon-container"><g fill="#0B77E3" fill-opacity=".2" class="animate-flood"><path d="M46 82c19.882 0 36-16.118 36-36S65.882 10 46 10 10 26.118 10 46s16.118 36 36 36z" class="color-400-alpha-20"/></g><g class="animate-grow"><path fill="#FFF" d="M17.027 23.192c-.005-.462.34-.953.787-1.103l27.571-9.27c.44-.147 1.143-.15 1.59 0l27.572 9.27c.44.147.793.646.787 1.107 0 0 .008 13.97-2.908 29.616-2.916 15.645-19.59 24.2-26.246 31.167-6.12-6.967-23.329-15.003-26.245-31.167-2.916-16.164-2.908-29.62-2.908-29.62z" class="color-100"/><path fill="#A6D2FF" d="M22.61 27.593s-.008 10.748 2.35 23.817 16.272 19.567 21.22 25.2c5.382-5.633 18.863-12.55 21.221-25.2 2.358-12.65 2.349-23.791 2.349-23.791.006-.448-.342-.952-.775-1.098l-22.01-7.399c-.433-.146-1.136-.146-1.57 0l-22.009 7.4c-.433.145-.78.625-.775 1.071z" class="color-200"/><path fill="#005CB9" d="M47.613 10.924l27.571 9.269c1.262.424 2.166 1.698 2.15 3.002a119.472 119.472 0 0 1-.046 2.526c-.057 1.97-.16 4.185-.322 6.594-.459 6.871-1.285 13.951-2.574 20.863-1.562 8.384-6.501 15.054-14.943 22.258l-.048.04c-.77.626-10.075 8.106-11.774 9.885a2 2 0 0 1-2.95-.062c-1.658-1.888-12.562-10.59-12.104-10.178l.017.015-.438-.372c-8.006-6.85-12.694-13.333-14.185-21.597-1.287-7.132-2.113-14.257-2.572-21.045-.16-2.382-.264-4.554-.322-6.476a113.85 113.85 0 0 1-.045-2.294l-.001-.16c-.013-1.31.883-2.573 2.15-3l27.571-9.268c.855-.288 2.006-.289 2.865 0zm-2.228 1.896l-27.571 9.269c-.448.15-.792.641-.787 1.103v.143c.01 1.481.167 14.283 2.908 29.477 2.916 16.164 20.125 24.2 26.245 31.167 6.656-6.967 23.33-15.522 26.246-31.167 2.712-14.55 2.895-27.652 2.907-29.415v-.098l.001-.037v-.066c.006-.461-.348-.96-.787-1.107l-27.571-9.27c-.448-.15-1.152-.147-1.59 0zm2.217 4.406l22.01 7.4c1.257.422 2.156 1.704 2.138 2.991 0 .387-.01 1.08-.038 2.042-.046 1.582-.13 3.36-.26 5.296-.371 5.517-1.041 11.222-2.085 16.821-1.283 6.884-5.324 12.341-12.21 18.218l-.016.014-.08.065c-.932.755-8.112 6.535-9.434 7.919a2 2 0 0 1-2.95-.062c-.527-.601-2.256-2.088-4.115-3.634l-.448-.371c-2.696-2.231-5.484-4.446-5.165-4.17l.034.03C28.209 64.07 24.24 58.687 22.99 51.765a155.61 155.61 0 0 1-2.343-22.187 71.25 71.25 0 0 1-.037-1.977c-.008-1.315.894-2.557 2.138-2.976l22.01-7.399c.846-.284 1.997-.284 2.843 0zm-2.206 1.896l-22.01 7.4c-.433.145-.78.625-.775 1.071V27.744c.01 1.343.153 11.498 2.349 23.666 2.358 13.069 16.272 19.567 21.22 25.2 5.382-5.633 18.863-12.55 21.221-25.2 2.168-11.632 2.335-21.988 2.348-23.58v-.141l.001-.03v-.04c.006-.448-.342-.952-.775-1.098l-22.01-7.399c-.433-.146-1.136-.146-1.57 0z" class="color-500"/><path fill="#000" d="M66.89 53.526C63.528 64.847 51.255 71.299 46.18 76.61c-4.653-5.298-17.236-11.36-20.68-22.933 4.771 9.66 16.2 15.113 20.68 19.933 4.837-4.784 15.858-10.495 20.599-19.857z" class="color-shadow" opacity=".1"/><path fill="#FFF" d="M39.5 57a4 4 0 1 0 0-8 4 4 0 0 0 0 8zm14 0a4 4 0 1 0 0-8 4 4 0 0 0 0 8z" class="color-100"/><path fill="#005CB9" d="M53.5 47c2.46 0 4.574 1.48 5.5 3.598V50.5h1.498a1 1 0 0 1 1.002 1l-.007.117a.996.996 0 0 1-.991.883h-1.023a6 6 0 1 1-11.98.5c.001-.054.002-.108-.007-.165a4.81 4.81 0 0 0-.992-.12c-.303 0-.645.045-1.002.123L45.5 53a6 6 0 1 1-11.98-.5h-1.022a1 1 0 0 1-.998-1l.007-.117a.999.999 0 0 1 .995-.883H34v.098a6.001 6.001 0 0 1 11.113.277c.465-.1.933-.16 1.387-.16.454 0 .922.06 1.387.16A6.002 6.002 0 0 1 53.5 47zm0 2a4 4 0 1 0 0 8 4 4 0 0 0 0-8zm-14 0a4 4 0 1 0 0 8 4 4 0 0 0 0-8z" class="color-500"/><path fill="#FFF" d="M59.048 34.636c0-1.253-1.154-2.27-2.577-2.27-.77 0-1.071.577-1.958.577s-1.137-.576-1.907-.576c-1.423 0-2.577 1.016-2.577 2.27v.036c0 1.764 1.277 2.63 1.277 3.81 0 1.18-.259 3.35.807 3.35 1.056 0 1.082-3.061 2.4-3.141 1.37-.083 1.396 3.14 2.451 3.14 1.066 0 .807-2.168.807-3.349 0-1.18 1.277-2.046 1.277-3.785v-.062z" class="color-100"/><path fill="#005CB9" fill-rule="nonzero" d="M56.471 30.367c2.475 0 4.577 1.85 4.577 4.27v.061c0 1.145-.292 1.984-.886 3.065-.02.039-.176.319-.215.39-.06.112-.103.194-.133.262-.032.07-.04.092-.043.082v-.01.093c.001.101.005.225.013.489.005.19.01.331.011.459l.003.248c.004.802-.05 1.42-.228 2.003-.36 1.174-1.247 2.053-2.606 2.053-1.007 0-1.732-.524-2.235-1.286a4.362 4.362 0 0 1-.184-.305c-.06.11-.125.215-.197.322-.507.754-1.237 1.27-2.235 1.27-1.359 0-2.246-.88-2.606-2.054-.179-.584-.232-1.2-.228-2.003 0-.21.005-.39.014-.707.01-.308.013-.425.013-.538v-.043c-.002.02-.01 0-.039-.066a3.136 3.136 0 0 0-.079-.16l-.055-.105-.22-.401c-.592-1.083-.884-1.931-.883-3.047v-.073c0-2.418 2.101-4.27 4.576-4.27.691 0 1.172.163 1.767.48l.085.045.045.024.02.013.012-.007.092-.048.06-.03.04-.02c.594-.302 1.07-.456 1.744-.456zm0 2c-.147 0-.276.02-.396.054a.965.965 0 0 1-.33.347 6.465 6.465 0 0 0-.585.421c-.15.12-.686.571-.803.665-.355.285-.643.474-.962.605-.26.107-.528.165-.804.165a1 1 0 1 1 0-2 .22.22 0 0 0 .046-.016 1.58 1.58 0 0 0 .315-.195 1.224 1.224 0 0 0-.346-.046c-1.423 0-2.577 1.016-2.577 2.27v.036c0 1.764 1.277 2.63 1.277 3.81 0 1.18-.259 3.35.807 3.35 1.056 0 1.082-3.061 2.4-3.141 1.37-.083 1.396 3.14 2.451 3.14 1.066 0 .807-2.168.807-3.349 0-1.18 1.277-2.046 1.277-3.785v-.062c0-1.253-1.154-2.27-2.577-2.27z" class="color-500"/><path fill="#FFF" d="M38.524 41.94c-2.132-1.73-5.888-4.572-4.914-7.81.586-1.95 3.55-2.763 4.99.392 1.44-3.155 4.366-2.269 4.914-.392.948 3.246-2.782 6.08-4.914 7.81 0 .041-.076.041-.076 0z" class="color-100"/><path fill="#005CB9" fill-rule="nonzero" d="M38.604 31.371c2.467-1.825 5.921-.915 6.83 2.199.894 3.06-.618 5.638-3.672 8.343-.314.277-.639.552-1.014.86a80.786 80.786 0 0 1-.639.519c-.394.443-.974.679-1.547.679a2.084 2.084 0 0 1-1.547-.678 183.51 183.51 0 0 1-.643-.522 35.38 35.38 0 0 1-1.02-.865c-3.066-2.711-4.578-5.291-3.658-8.352.949-3.153 4.434-4.037 6.91-2.183zm-4.994 2.76c-.974 3.237 2.782 6.079 4.914 7.81 0 .04.076.04.076 0 2.132-1.731 5.862-4.565 4.914-7.81-.548-1.878-3.473-2.764-4.914.39-1.44-3.154-4.404-2.34-4.99-.39z" class="color-500"/></g></g></svg>