<svg xmlns="http://www.w3.org/2000/svg" width="92" height="92" class="wd-applet wd-applet-big-data-analytics" focusable="false" role="presentation" viewBox="0 0 92 92"><g fill="none" fill-rule="evenodd" class="wd-icon-container"><g fill="#0B77E3" fill-opacity=".2" class="animate-flood"><path d="M10 46c0-19.882 16.113-36 36-36 19.882 0 36 16.113 36 36 0 19.882-16.113 36-36 36-19.882 0-36-16.113-36-36z" class="color-400-alpha-20"/></g><g class="animate-shrink"><path fill="#A6D2FF" d="M77.492 41.246a14.637 14.637 0 0 0-8.407-4.162 20.851 20.851 0 0 0-1.43-5.15 20.97 20.97 0 0 0-4.492-6.663 20.97 20.97 0 0 0-6.663-4.493 21.111 21.111 0 0 0-8.204-1.648c-.516 0-1.027.025-1.536.061v9.783a5.272 5.272 0 1 1 0 9.77v9.382h12.822a5.244 5.244 0 0 0-.527 2.288 5.273 5.273 0 1 0 10.545 0c0-.82-.194-1.595-.528-2.288h12.282c-.649-2.645-2-5.021-3.862-6.88zm-32.857 20.8a5.272 5.272 0 1 1 2.123-10.094v-3.886H35.287a5.273 5.273 0 1 0-9.943-2.441c0 .881.218 1.711.602 2.441H10.57a12.543 12.543 0 0 0-1.298 5.559c0 6.683 5.202 12.136 11.777 12.567l-.008.042H46.76V61.6a5.25 5.25 0 0 1-2.124.448z" class="color-200"/><path fill="#FFF" d="M46.772 19.182v9.783a5.273 5.273 0 1 1 1.978 10.157c-.7 0-1.367-.138-1.978-.386v9.328l12.808.001a5.273 5.273 0 0 0-.518 1.983l-.01.305a5.273 5.273 0 0 0 10.546 0c0-.82-.193-1.595-.528-2.288h12.283c.274 1.124.437 2.29.436 3.494 0 4.045-1.646 7.727-4.298 10.375a14.63 14.63 0 0 1-10.372 4.299H46.76v-4.636a5.272 5.272 0 1 1 0-9.646l-.002-3.835H35.3a5.25 5.25 0 0 0 .594-2.149l.008-.292a5.273 5.273 0 1 0-10.545 0c0 .882.219 1.712.602 2.442H10.584c1.692-3.437 4.896-5.994 8.75-6.79a7.191 7.191 0 0 1-.724-3.134 7.22 7.22 0 0 1 7.22-7.22c1.154 0 2.242.278 3.21.76A20.987 20.987 0 0 1 40.102 20.77a21.045 21.045 0 0 1 6.67-1.587z" class="color-100"/><path fill="#005CB9" fill-rule="nonzero" d="M82.324 47.635c.306 1.25.466 2.488.465 3.722a15.58 15.58 0 0 1-4.59 11.058c-2.91 2.91-6.993 4.583-11.199 4.583L47 67s-25.888.044-26 0c-6.986-.613-12.727-6.522-12.727-13.581 0-2.097.484-4.13 1.401-5.987a.997.997 0 0 1 .154-.227 13.626 13.626 0 0 1 8.158-6.746 8.097 8.097 0 0 1-.376-2.439c0-4.53 3.68-8.203 8.22-8.203a8.15 8.15 0 0 1 2.707.463 21.905 21.905 0 0 1 4.196-5.87 21.973 21.973 0 0 1 6.98-4.696 22.084 22.084 0 0 1 6.987-1.66A28.294 28.294 0 0 1 48.296 18c2.983 0 5.916.593 8.594 1.723a21.972 21.972 0 0 1 6.98 4.697 21.92 21.92 0 0 1 4.707 6.965 21.735 21.735 0 0 1 1.38 4.656 15.61 15.61 0 0 1 12.312 11.43.999.999 0 0 1 .055.164zm-21.842.731a4.226 4.226 0 0 0-.427 1.85c.082 2.376 1.963 4.203 4.27 4.203a4.268 4.268 0 0 0 4.273-4.264 4.328 4.328 0 0 0-.427-1.79.992.992 0 0 1-.1-.435 1 1 0 0 1 1-1.056h10.925a13.575 13.575 0 0 0-3.211-5.102 13.647 13.647 0 0 0-7.833-3.87.999.999 0 0 1-.857-.847 19.776 19.776 0 0 0-1.36-4.893 19.926 19.926 0 0 0-4.28-6.331 19.972 19.972 0 0 0-6.344-4.27 20.148 20.148 0 0 0-8.34-1.557v7.501c.322-.05.649-.077.979-.077 3.463 0 6.272 2.803 6.272 6.26 0 2.005-.945 3.79-2.415 4.935a6.255 6.255 0 0 1-4.835 1.257v6.994H59.58a1 1 0 0 1 1.002 1c.01.162-.021.33-.1.492zM45.758 62.72a6.275 6.275 0 0 1-1.123.1c-3.383 0-6.14-2.672-6.268-6.016a6.424 6.424 0 0 1 .004-.569 6.267 6.267 0 0 1 7.387-5.831V48.87H35.287a.998.998 0 0 1-.885-1.462 4.22 4.22 0 0 0 .487-1.972 4.268 4.268 0 0 0-4.272-4.264 4.268 4.268 0 0 0-4.273 4.264c0 .696.169 1.367.487 1.972a.998.998 0 0 1-.885 1.462H11.21a11.474 11.474 0 0 0-.938 4.549C10.273 59.527 14.915 64.602 21 65c.078.005 24.758.004 24.758.004V62.72zm.014-15.846v-8.312a1 1 0 0 1 1.375-.925 4.267 4.267 0 0 0 5.875-3.95 4.268 4.268 0 0 0-5.875-3.95 1 1 0 0 1-1.375-.925V20.15c-1.84.23-3.621.703-5.281 1.403a19.943 19.943 0 0 0-10.534 10.42 1 1 0 0 1-1.364.494 6.181 6.181 0 0 0-2.764-.654c-3.434 0-6.219 2.78-6.219 6.207 0 .938.215 1.85.624 2.694a.998.998 0 0 1-.699 1.411 11.602 11.602 0 0 0-7.176 4.75h12.153a6.228 6.228 0 0 1-.168-1.439c0-3.457 2.808-6.26 6.273-6.26a6.273 6.273 0 0 1 6.075 4.697 6.257 6.257 0 0 1 .054 3.001h9.026zm34.775 1.995H70.463c.089.42.135.85.135 1.286 0 3.457-2.809 6.26-6.273 6.26-3.463 0-6.272-2.803-6.272-6.26 0-.436.046-.866.135-1.286h-10.43v2.88a1 1 0 0 1-1.403.913 4.268 4.268 0 0 0-5.992 3.9 4.267 4.267 0 0 0 5.992 3.9 1 1 0 0 1 1.403.913v3.628H67c3.67 0 7.245-1.46 9.784-3.999a13.588 13.588 0 0 0 4.005-9.647c0-.822-.081-1.65-.242-2.488z" class="color-500"/><path fill="#000" d="M62 38c7.175 0 13 5.767 13 12.892 0 1.922-.426 3.788-1.211 5.439-.32.725-.8 1.554-1.458 2.51-3.559 5.177-4.102 6.152-4.102 7.159 0 .364-.097.706-.267 1H56.038a1.99 1.99 0 0 1-.267-1c0-1.007-.543-1.982-4.102-7.16-.657-.955-1.138-1.784-1.433-2.456A12.76 12.76 0 0 1 49 50.892c0-3.468 1.39-6.722 3.815-9.123A13.018 13.018 0 0 1 62 38z" class="color-shadow" opacity=".1"/></g><g class="animate-grow"><path fill="#40A0FF" fill-rule="nonzero" d="M60 77a3 3 0 0 1 3.01-3h1.98a3 3 0 1 1 0 6h-1.98A3.002 3.002 0 0 1 60 77z" class="color-300"/><path fill="#005CB9" fill-rule="nonzero" d="M62 77c0 .556.452 1 1.01 1h1.98a1 1 0 1 0 0-2h-1.98A1 1 0 0 0 62 77zm-2 0a3 3 0 0 1 3.01-3h1.98a3 3 0 1 1 0 6h-1.98A3.002 3.002 0 0 1 60 77z" class="color-500"/><path fill="#40A0FF" d="M59 69h10v7H59z" class="color-300"/><path fill="#005CB9" fill-rule="nonzero" d="M60.01 67.5V75h7.993v-7.5H60.01zm-2 0c0-1.105.6-2 1.704-2h8.572c1.104 0 1.717.895 1.717 2V75a2 2 0 0 1-2 2H60.01a2 2 0 0 1-2-2v-7.5z" class="color-500"/><path fill="#FFF" d="M53 52.892c0 1.657.374 3.227 1.042 4.633.25.567.656 1.282 1.275 2.182 3.455 5.027 4.454 6.534 4.454 8.293h8.458c0-1.759.999-3.266 4.454-8.293.62-.9 1.025-1.615 1.275-2.182A10.761 10.761 0 0 0 75 52.892C75 46.876 70.075 42 64 42a11.02 11.02 0 0 0-7.778 3.19A10.805 10.805 0 0 0 53 52.892z" class="color-100"/><path fill="#005CB9" fill-rule="nonzero" d="M62.495 73a.51.51 0 0 1 .497.412L63 73.5c0 .276-.214.5-.505.5h-.99a.508.508 0 0 1-.505-.5c0-.276.214-.5.505-.5h.99zm6.007 0c.245 0 .448.183.49.412L69 73.5c0 .276-.215.5-.498.5h-4.004a.504.504 0 0 1-.498-.5c0-.276.215-.5.498-.5h4.004zm-5.992-2a.5.5 0 0 1 .482.412L63 71.5c0 .276-.215.5-.49.5h-3.02a.5.5 0 0 1-.49-.5c0-.276.215-.5.49-.5h3.02zm3.995 0c.243 0 .445.183.487.412L67 71.5c0 .276-.216.5-.495.5h-2.01a.503.503 0 0 1-.495-.5c0-.276.216-.5.495-.5h2.01zM64 40c7.175 0 13 5.767 13 12.892 0 1.922-.426 3.788-1.211 5.439-.32.725-.8 1.554-1.458 2.51C70.772 66.017 70 66.992 70 68c0 1.105-.666 2-1.77 2h-8.46c-1.104 0-1.77-.895-1.77-2 0-1.007-.772-1.982-4.331-7.16-.657-.955-1.138-1.784-1.433-2.456A12.76 12.76 0 0 1 51 52.892c0-3.468 1.39-6.722 3.815-9.123A13.018 13.018 0 0 1 64 40zm0 2a11.02 11.02 0 0 0-7.778 3.19A10.805 10.805 0 0 0 53 52.892c0 1.657.374 3.227 1.042 4.633.25.567.656 1.282 1.275 2.182 3.455 5.027 4.454 6.534 4.454 8.293H61V58h-.682c-1.544 0-2.818-1.192-2.818-2.725 0-1.534 1.254-2.775 2.797-2.775 1.544 0 2.798 1.241 2.798 2.776l-.002.72h2.103v-.721c0-1.534 1.253-2.775 2.797-2.775 1.544 0 2.797 1.241 2.797 2.775 0 1.533-1.253 2.725-2.797 2.725H67v10h1.23c0-1.759.998-3.266 4.453-8.293.62-.9 1.025-1.615 1.275-2.182A10.761 10.761 0 0 0 75 52.892C75 46.876 70.075 42 64 42zm1 16h-2v10h2V58zm2.993-3.446a.727.727 0 0 0-.733.72v.722h.733a.727.727 0 0 0 .733-.721.727.727 0 0 0-.733-.72zm-7.696 0a.727.727 0 0 0-.732.72c0 .398.327.722.732.722h.734v-.721a.727.727 0 0 0-.734-.72z" class="color-500"/></g></g></svg>