<svg xmlns="http://www.w3.org/2000/svg" width="92" height="92" class="wd-applet wd-applet-birthdays" focusable="false" role="presentation" viewBox="0 0 92 92"><g fill="none" fill-rule="evenodd" class="wd-icon-container"><g fill="#0B77E3" fill-opacity=".2" class="animate-flood"><path d="M46 82c19.882 0 36-16.118 36-36S65.882 10 46 10 10 26.118 10 46s16.118 36 36 36z" class="color-400-alpha-20"/></g><g class="animate-shrink"><path fill="#005CB9" fill-rule="nonzero" d="M45.833 35c12.229 0 22.95 1.908 26.972 4.804 2.375 1.395 3.862 3.81 3.862 6.46l.076 23.588c0 2.928-1.814 5.556-4.592 6.845-4.394 2.68-14.73 4.421-26.393 4.421-13.015 0-24.234-2.148-27.65-5.358-1.898-1.445-3.032-3.593-3.032-5.905L15 46.266c0-2.65 1.487-5.067 3.862-6.462C22.885 36.908 33.606 35 45.833 35zm0 2C33.96 37 23.543 38.862 20 41.45 18.106 42.553 17 44.338 17 46.263l.076 23.589c0 1.685.842 3.266 2.28 4.344 2.948 2.827 13.835 4.922 26.402 4.922 11.368 0 21.43-1.702 25.395-4.155 2.232-1.025 3.59-2.976 3.59-5.108l-.076-23.586c0-1.931-1.106-3.716-2.91-4.761C68.125 38.862 57.707 37 45.833 37z" class="color-500"/><path fill="#FFF" d="M74.667 46.27c0-1.932-1.106-3.717-2.91-4.762C68.125 38.862 57.707 37 45.833 37 33.96 37 23.543 38.862 20 41.45 18.106 42.553 17 44.338 17 46.263l.076 23.589c0 1.685.842 3.266 2.28 4.344 2.948 2.827 13.835 4.922 26.402 4.922 11.368 0 21.43-1.702 25.395-4.155 2.232-1.025 3.59-2.976 3.59-5.108l-.076-23.586z" class="color-100"/><path fill="#0B77E3" d="M73.787 63.422c-.14-.377-.901-2.571-1.144-3.21-1.35-3.547-2.78-5.197-5.08-5.197-3.92 0-6.364 1.802-8.425 7.633-.16.453-.211.685-.322.91-3.32 6.729-7.32 8.95-10.535 8.95-2.532 0-6.064-2.195-7.28-8.438-.139-.712-.305-1.06-.409-1.415-1.978-6.746-5.052-9.325-10.275-9.325-4.368 0-5.842 1.511-7.817 6.362l-.067.165c-1.803 4.43-3.211 6.378-6.373 7.17l.014 4.535c0 1.399.731 2.554 2.347 3.785l.098.084c2.828 2.767 13.891 4.689 27.368 4.689 11.698 0 22.25-1.843 26.377-4.438l.114-.062c1.89-.874 3.008-2.608 3.008-4.524l.044-4.816c-.64-.513-1.108-1.423-1.643-2.858z" class="color-400"/><path fill="#005CB9" fill-rule="nonzero" d="M30.84 52.331c6.17 0 8.736 3.056 10.876 10.045.102.334.202.665.398 1.32 1.675 5.575 2.891 7.31 6.086 7.31 5.134 0 7.11-2.096 9.272-7.906l.31-.837c2.255-6.11 4.148-8.372 9.052-8.372 3.286 0 5.19 2.105 6.767 6.07.25.629.988 2.668 1.11 2.984.467 1.198.83 1.767 1.026 1.827l.711.22-.007.745-.048 5.046c0 2.548-1.533 4.846-4.039 5.98-4.41 2.62-14.875 4.362-26.468 4.362-13.493 0-24.456-1.813-27.768-4.836-1.998-1.47-3.042-3.066-3.042-5.081l-.019-5.867.84-.139c2.78-.458 3.835-1.732 5.483-5.612l.066-.153c2.188-5.147 4.182-7.106 9.394-7.106zm0 2c-4.221 0-5.645 1.399-7.554 5.888l-.065.153c-1.742 4.099-3.103 5.902-6.158 6.635l.013 4.198c0 1.294.707 2.364 2.269 3.503l.094.078c2.732 2.56 13.424 4.34 26.447 4.34 11.305 0 21.503-1.706 25.49-4.108l.11-.057c1.827-.81 2.907-2.414 2.907-4.188l.043-4.456c-.618-.475-1.07-1.317-1.588-2.646-.136-.348-.87-2.38-1.106-2.97-1.304-3.283-2.686-4.81-4.908-4.81-3.789 0-5.184 1.667-7.176 7.064l-.311.842c-2.421 6.506-4.97 9.21-11.147 9.21-2.447 0-4.251-.99-5.565-2.866-.96-1.372-1.522-2.826-2.437-5.87-.196-.656-.294-.98-.394-1.31-1.912-6.243-3.917-8.63-8.964-8.63z" class="color-500"/><path fill="#000" fill-opacity=".1" d="M18.78 42.35C21.849 44.514 33.537 47 46.317 47c11.564 0 23.36-1.796 27.306-3.84a6.114 6.114 0 0 0-1.865-1.652C68.125 38.862 57.707 37 45.833 37 33.96 37 23.543 38.862 20 41.45c-.453.264-.86.566-1.218.9z" class="color-shadow"/><path fill="#40A0FF" d="M49 40c0 .552-1.448 2-2 2h-2c-.552 0-2-1.448-2-2V29h6v11z" class="color-300"/><path fill="#FFF" d="M46 21c1.105 0 2-1.002 2-2.239 0-1.236-1.15-3.088-2-4.761-.861 1.65-2 3.525-2 4.761 0 1.237.895 2.239 2 2.239z" class="color-100"/><path fill="#005CB9" fill-rule="nonzero" d="M50 27v12.83c0 1.657-1.31 3-2.924 3h-2.152c-1.615 0-2.924-1.343-2.924-3V27h2.132c.297.282 1.068.483 1.971.483.904 0 1.674-.2 1.972-.483H50zm-2 1h-4v12a1 1 0 0 0 1 1h2a1 1 0 0 0 1-1V28zm-2-4c2.174 0 4 .919 4 3s-1.826 2.483-4 2.483-4-.402-4-2.483 1.826-3 4-3zm.103 2c-1.161 0-2.103.332-2.103.741 0 .41.942.742 2.103.742 1.162 0 2.104-.332 2.104-.742 0-.409-.942-.741-2.104-.741zM46 10l1.783 3.094c.122.24.22.425.444.848l.09.17.05.093C49.577 16.48 50 17.48 50 18.76 50 21.055 48.263 23 46 23s-4-1.945-4-4.239c0-1.244.458-2.368 1.528-4.378a101.078 101.078 0 0 1 .449-.836c.097-.182.177-.332.25-.473L46 10zm0 4c-.861 1.65-2 3.525-2 4.761 0 1.237.895 2.239 2 2.239s2-1.002 2-2.239c0-1.236-1.15-3.088-2-4.761z" class="color-500"/></g></g></svg>