<svg xmlns="http://www.w3.org/2000/svg" width="92" height="92" class="wd-applet wd-applet-budget" focusable="false" role="presentation" viewBox="0 0 92 92"><g fill="none" fill-rule="evenodd" class="wd-icon-container"><g fill="#0B77E3" fill-opacity=".2" class="animate-flood"><path d="M46 82c19.882 0 36-16.118 36-36S65.882 10 46 10 10 26.118 10 46s16.118 36 36 36z" class="color-400-alpha-20"/></g><g class="animate-shrink"><path fill="#FFF" d="M16 10h50v62H16z" class="color-100"/><path fill="#40A0FF" d="M36 40h10v10H36V40zm0 15h10v10H36V55zm-15 0h10v10H21V55zm0-15h10v10H21V40z" class="color-300"/><path fill="#0B77E3" d="M51 40h10v25H51z" class="color-400"/><path fill="#A6D2FF" d="M22 19h38v14H22z" class="color-200"/><path fill="#000" d="M21 20c0-.552.45-1 1.009-1H59.99c.557 0 1.009.444 1.009 1v1H21v-1z" class="color-shadow" opacity=".1"/><path fill="#005CB9" fill-rule="nonzero" d="M64.991 9A3.007 3.007 0 0 1 68 12.003v57.994A3.005 3.005 0 0 1 64.991 73H17.01A3.007 3.007 0 0 1 14 69.997V12.003A3.005 3.005 0 0 1 17.009 9H64.99zm0 2H17.01c-.56 0-1.009.45-1.009 1.003v57.994c0 .553.452 1.003 1.009 1.003H64.99c.56 0 1.009-.45 1.009-1.003V12.003C66 11.45 65.548 11 64.991 11zM45 54a2 2 0 0 1 2 2v8a2 2 0 0 1-2 2h-8a2 2 0 0 1-2-2v-8a2 2 0 0 1 2-2h8zm-15 0a2 2 0 0 1 2 2v8a2 2 0 0 1-2 2h-8a2 2 0 0 1-2-2v-8a2 2 0 0 1 2-2h8zm30-15a2 2 0 0 1 2 2v23a2 2 0 0 1-2 2h-8a2 2 0 0 1-2-2V41a2 2 0 0 1 2-2h8zM45 56h-8v8h8v-8zm-15 0h-8v8h8v-8zm30-15h-8v23h8V41zm-15-2a2 2 0 0 1 2 2v8a2 2 0 0 1-2 2h-8a2 2 0 0 1-2-2v-8a2 2 0 0 1 2-2h8zm-15 0a2 2 0 0 1 2 2v8a2 2 0 0 1-2 2h-8a2 2 0 0 1-2-2v-8a2 2 0 0 1 2-2h8zm15 2h-8v8h8v-8zm-15 0h-8v8h8v-8zm30-24a2 2 0 0 1 2 2v14a2 2 0 0 1-2 2H22a2 2 0 0 1-2-2V19a2 2 0 0 1 2-2h38zm0 2H22v14h38V19z" class="color-500"/></g><g class="animate-sink"><path fill="#40A0FF" d="M57.428 79.237C59.492 80.357 62.246 81 65 81c5.5 0 11-2.566 11-6.364v-2.545L65 76.83l-11-4.74v2.546c0 1.896 1.371 3.485 3.428 4.601z" class="color-300"/><path fill="#A6D2FF" d="M65 77c6.075 0 11-3.358 11-7.5 0-4.142-4.925-7.5-11-7.5s-11 3.358-11 7.5c0 4.142 4.925 7.5 11 7.5z" class="color-200"/><path fill="#FFF" d="M65 73.417c3.866 0 7-1.829 7-4.084s-3.134-4.083-7-4.083-7 1.828-7 4.083 3.134 4.084 7 4.084z" class="color-100"/><path fill="#005CB9" d="M68 80.748V78.75c-.65.11-1.319.185-2 .223v1.999a18.068 18.068 0 0 0 2-.224zm2-.463c.707-.21 1.379-.464 2-.758V77.53c-.633.292-1.302.544-2 .753v2.002zm-6 .687v-2a17.747 17.747 0 0 1-2-.222v1.998c.655.11 1.325.186 2 .224zm-6-1.445c.621.294 1.293.548 2 .758v-2.002a15.227 15.227 0 0 1-2-.753v1.997zm-2-1.233v-1.9a10.736 10.736 0 0 1-2-1.776v.018c0 1.413.761 2.655 2 3.658zm18 0c1.239-1.003 2-2.245 2-3.658v-.018c-.567.654-1.24 1.25-2 1.776v1.9zM52.003 69.7A7.448 7.448 0 0 1 52 69.5c0-5.445 5.947-9.5 13-9.5s13 4.055 13 9.5c0 .067 0 .133-.003.199L78 69.7v4.936C78 79.665 71.837 83 65 83c-3.071 0-6.153-.718-8.525-2.005C53.714 79.498 52 77.287 52 74.636V69.7l.003-.001zM65 77c6.075 0 11-3.358 11-7.5 0-4.142-4.925-7.5-11-7.5s-11 3.358-11 7.5c0 4.142 4.925 7.5 11 7.5zm0-1.583c-4.825 0-9-2.436-9-6.084 0-3.648 4.175-6.083 9-6.083s9 2.435 9 6.083-4.175 6.084-9 6.084zm0-2c3.866 0 7-1.829 7-4.084s-3.134-4.083-7-4.083-7 1.828-7 4.083 3.134 4.084 7 4.084z" class="color-500"/><path fill="#000" d="M65 77c6.075 0 11-3.358 11-7.5 0-4.142-4.925-7.5-11-7.5s-11 3.358-11 7.5c0 4.142 4.925 7.5 11 7.5z" class="color-shadow" opacity=".1"/></g><path fill="#40A0FF" d="M54.428 72.237C56.492 73.357 59.246 74 62 74c5.5 0 11-2.566 11-6.364v-2.545L62 69.83l-11-4.74v2.546c0 1.896 1.371 3.485 3.428 4.601z" class="color-300"/><path fill="#A6D2FF" d="M62 70c6.075 0 11-3.358 11-7.5 0-4.142-4.925-7.5-11-7.5s-11 3.358-11 7.5c0 4.142 4.925 7.5 11 7.5z" class="color-200"/><path fill="#FFF" d="M62 66.417c3.866 0 7-1.829 7-4.084s-3.134-4.083-7-4.083-7 1.828-7 4.083 3.134 4.084 7 4.084z" class="color-100"/><path fill="#000" d="M62 70c6.075 0 11-3.358 11-7.5 0-4.142-4.925-7.5-11-7.5s-11 3.358-11 7.5c0 4.142 4.925 7.5 11 7.5z" class="color-shadow" opacity=".1"/><path fill="#005CB9" d="M65 73.748V71.75c-.65.11-1.319.185-2 .223v1.999a18.068 18.068 0 0 0 2-.224zm2-.463c.707-.21 1.379-.464 2-.758V70.53c-.633.292-1.302.544-2 .753v2.002zm-6 .687v-2a17.747 17.747 0 0 1-2-.222v1.998c.655.11 1.325.186 2 .224zm-6-1.445c.621.294 1.293.548 2 .758v-2.002a15.227 15.227 0 0 1-2-.753v1.997zm-2-1.233v-1.9a10.736 10.736 0 0 1-2-1.776v.018c0 1.413.761 2.655 2 3.658zm18 0c1.239-1.003 2-2.245 2-3.658v-.018c-.567.654-1.24 1.25-2 1.776v1.9zM49.003 62.7A7.448 7.448 0 0 1 49 62.5c0-5.445 5.947-9.5 13-9.5s13 4.055 13 9.5c0 .067 0 .133-.003.199L75 62.7v4.936C75 72.665 68.837 76 62 76c-3.071 0-6.153-.718-8.525-2.005C50.714 72.498 49 70.287 49 67.636V62.7l.003-.001zM62 70c6.075 0 11-3.358 11-7.5 0-4.142-4.925-7.5-11-7.5s-11 3.358-11 7.5c0 4.142 4.925 7.5 11 7.5zm0-1.583c-4.825 0-9-2.436-9-6.084 0-3.648 4.175-6.083 9-6.083s9 2.435 9 6.083-4.175 6.084-9 6.084zm0-2c3.866 0 7-1.829 7-4.084s-3.134-4.083-7-4.083-7 1.828-7 4.083 3.134 4.084 7 4.084z" class="color-500"/><g class="animate-float"><path fill="#40A0FF" d="M58.428 65.237C60.492 66.357 63.246 67 66 67c5.5 0 11-2.566 11-6.364v-2.545L66 62.83l-11-4.74v2.546c0 1.896 1.371 3.485 3.428 4.601z" class="color-300"/><path fill="#A6D2FF" d="M66 63c6.075 0 11-3.358 11-7.5 0-4.142-4.925-7.5-11-7.5s-11 3.358-11 7.5c0 4.142 4.925 7.5 11 7.5z" class="color-200"/><path fill="#FFF" d="M66 59.417c3.866 0 7-1.829 7-4.084s-3.134-4.083-7-4.083-7 1.828-7 4.083 3.134 4.084 7 4.084z" class="color-100"/><path fill="#005CB9" d="M69 66.748V64.75c-.65.11-1.319.185-2 .223v1.999a18.068 18.068 0 0 0 2-.224zm2-.463c.707-.21 1.379-.464 2-.758V63.53c-.633.292-1.302.544-2 .753v2.002zm-6 .687v-2a17.747 17.747 0 0 1-2-.222v1.998c.655.11 1.325.186 2 .224zm-6-1.445c.621.294 1.293.548 2 .758v-2.002a15.227 15.227 0 0 1-2-.753v1.997zm-2-1.233v-1.9a10.736 10.736 0 0 1-2-1.776v.018c0 1.413.761 2.655 2 3.658zm18 0c1.239-1.003 2-2.245 2-3.658v-.018c-.567.654-1.24 1.25-2 1.776v1.9zM53.003 55.7A7.448 7.448 0 0 1 53 55.5c0-5.445 5.947-9.5 13-9.5s13 4.055 13 9.5c0 .067 0 .133-.003.199L79 55.7v4.936C79 65.665 72.837 69 66 69c-3.071 0-6.153-.718-8.525-2.005C54.714 65.498 53 63.287 53 60.636V55.7l.003-.001zM66 63c6.075 0 11-3.358 11-7.5 0-4.142-4.925-7.5-11-7.5s-11 3.358-11 7.5c0 4.142 4.925 7.5 11 7.5zm0-1.583c-4.825 0-9-2.436-9-6.084 0-3.648 4.175-6.083 9-6.083s9 2.435 9 6.083-4.175 6.084-9 6.084zm0-2c3.866 0 7-1.829 7-4.084s-3.134-4.083-7-4.083-7 1.828-7 4.083 3.134 4.084 7 4.084z" class="color-500"/></g></g></svg>