<svg xmlns="http://www.w3.org/2000/svg" width="92" height="92" class="wd-applet wd-applet-burst" focusable="false" role="presentation" viewBox="0 0 92 92"><g fill="none" fill-rule="evenodd" class="wd-icon-container"><g fill="#0B77E3" fill-opacity=".2" class="animate-flood"><path d="M46 82c19.882 0 36-16.118 36-36S65.882 10 46 10 10 26.118 10 46s16.118 36 36 36z" class="color-400-alpha-20"/></g><g fill-rule="nonzero" class="animate-shrink"><path fill="#FFF" d="M33.093 9.284l.525 13.917a4 4 0 0 1-5.339 3.919l-12.763-4.545a1 1 0 0 0-1.13 1.55L22.91 35.25a4 4 0 0 1-1.991 6.253L7.819 45.56a1 1 0 0 0 .014 1.915L21.06 51.36a4 4 0 0 1 2.092 6.21L14.86 68.825a1 1 0 0 0 1.154 1.53l12.705-4.736a4 4 0 0 1 5.397 3.813l-.228 13.977a1 1 0 0 0 1.837.564l7.478-11.416a4 4 0 0 1 6.65-.063l7.731 11.325a1 1 0 0 0 1.825-.602l-.525-13.916a4 4 0 0 1 5.339-3.92l12.763 4.546a1 1 0 0 0 1.13-1.55l-8.523-11.125A4 4 0 0 1 71.584 51l13.098-4.056a1 1 0 0 0-.014-1.915L71.442 41.14a4 4 0 0 1-2.092-6.21l8.292-11.255a1 1 0 0 0-1.154-1.53l-12.705 4.737a4 4 0 0 1-5.397-3.813l.228-13.977a1 1 0 0 0-1.836-.565l-7.479 11.416a4 4 0 0 1-6.649.064L34.918 8.683a1 1 0 0 0-1.825.601z" class="color-100"/><path fill="#005CB9" d="M57.63 8.076a1 1 0 0 1 .984 1.017l-.228 13.977a4 4 0 0 0 5.397 3.813l12.705-4.737a1 1 0 0 1 1.154 1.53L69.35 34.93a4 4 0 0 0 2.092 6.211l13.226 3.887a1 1 0 0 1 .014 1.915l-13.098 4.056a4 4 0 0 0-1.991 6.253l8.523 11.124a1 1 0 0 1-1.13 1.55l-12.763-4.544a4 4 0 0 0-5.34 3.92l.526 13.915a1 1 0 0 1-1.825.602l-7.732-11.325a4 4 0 0 0-6.65.063l-7.477 11.416a1 1 0 0 1-1.837-.564l.228-13.977a4 4 0 0 0-5.397-3.813l-12.705 4.736a1 1 0 0 1-1.154-1.53l8.292-11.254a4 4 0 0 0-2.092-6.21L7.833 47.474a1 1 0 0 1-.014-1.915l13.099-4.057a4 4 0 0 0 1.991-6.253l-8.522-11.124a1 1 0 0 1 1.13-1.55l12.762 4.545a4 4 0 0 0 5.339-3.92l-.525-13.916a1 1 0 0 1 1.825-.601l7.732 11.325a4 4 0 0 0 6.65-.064l7.478-11.416a1 1 0 0 1 .852-.452zm-1.072 4.437l-5.585 8.527a6 6 0 0 1-9.975.096l-5.776-8.46.395 10.45a6 6 0 0 1-8.009 5.878l-9.577-3.41 6.466 8.438a6 6 0 0 1-2.988 9.38l-9.932 3.077 10.047 2.953a6 6 0 0 1 3.138 9.316l-6.3 8.55 9.558-3.563a6 6 0 0 1 8.095 5.72l-.17 10.523 5.585-8.527a6 6 0 0 1 9.974-.095l5.776 8.46-.395-10.45a6 6 0 0 1 8.008-5.878l9.578 3.41-6.466-8.44a6 6 0 0 1 2.988-9.38l9.932-3.076-10.047-2.952a6 6 0 0 1-3.138-9.316l6.3-8.55-9.558 3.563a6 6 0 0 1-8.095-5.72l.171-10.524z" class="color-500"/></g></g></svg>