<svg xmlns="http://www.w3.org/2000/svg" width="92" height="92" class="wd-applet wd-applet-business-process" focusable="false" role="presentation" viewBox="0 0 92 92"><g fill="none" fill-rule="evenodd" class="wd-icon-container"><g fill="#0B77E3" fill-opacity=".2" class="animate-flood"><path d="M46 82c19.882 0 36-16.118 36-36S65.882 10 46 10 10 26.118 10 46s16.118 36 36 36z" class="color-400-alpha-20"/></g><g class="animate-shrink"><path fill="#005CB9" fill-rule="nonzero" d="M16 15a3 3 0 0 1 2.996-3h54.008A2.996 2.996 0 0 1 76 15v65a3 3 0 0 1-2.996 3H18.996A2.996 2.996 0 0 1 16 80V15z" class="color-500"/><path fill="#40A0FF" d="M18 15a1 1 0 0 1 .996-1h54.008c.55 0 .996.446.996 1v65a1 1 0 0 1-.996 1H18.996A.996.996 0 0 1 18 80V15zM21 20V76a2 2 0 0 0 2 2h44.996A3.006 3.006 0 0 0 71 74.999V20A2.999 2.999 0 0 0 67.996 17H24.004A3.006 3.006 0 0 0 21 20.001z" class="color-300"/><path fill="#FFF" d="M23 20.001c0-.553.455-1.001 1.004-1.001h43.992A.999.999 0 0 1 69 20.001V75c0 .553-.455 1.001-1.004 1.001H23V20.001z" class="color-100"/><path fill="#40A0FF" d="M41 27.999a1 1 0 0 1 .995-.999h17.01c.55 0 .995.443.995.999v1.002a1 1 0 0 1-.995.999h-17.01a.994.994 0 0 1-.995-.999v-1.002zm0 5A1 1 0 0 1 42 32h22c.552 0 1 .443 1 .999v1.002A1 1 0 0 1 64 35H42c-.552 0-1-.443-1-.999v-1.002zm0 11a1 1 0 0 1 .995-.999h17.01c.55 0 .995.443.995.999v1.002a1 1 0 0 1-.995.999h-17.01a.994.994 0 0 1-.995-.999v-1.002zm0 5A1 1 0 0 1 42 48h22c.552 0 1 .443 1 .999v1.002A1 1 0 0 1 64 51H42c-.552 0-1-.443-1-.999v-1.002zm0 11a1 1 0 0 1 .995-.999h17.01c.55 0 .995.443.995.999v1.002a1 1 0 0 1-.995.999h-17.01a.994.994 0 0 1-.995-.999v-1.002zm0 5A1 1 0 0 1 42 64h22c.552 0 1 .443 1 .999v1.002A1 1 0 0 1 64 67H42c-.552 0-1-.443-1-.999v-1.002z" class="color-300"/><path fill="#005CB9" fill-rule="nonzero" d="M32 42a5 5 0 1 1 0 10 5 5 0 0 1 0-10zm0 16a5 5 0 1 1 0 10 5 5 0 0 1 0-10zm-.494-23.467a1.01 1.01 0 0 1-.23-.12l-2.457-1.72a.997.997 0 0 1-.245-1.393.997.997 0 0 1 1.392-.246l1.668 1.168 3.448-4.924a.996.996 0 0 1 1.391-.244c.452.317.563.94.247 1.39l-4.018 5.739a.996.996 0 0 1-1.196.35z" class="color-500"/><path fill="#A6D2FF" d="M32 50a3 3 0 1 0 0-6 3 3 0 0 0 0 6zm0 16a3 3 0 1 0 0-6 3 3 0 0 0 0 6z" class="color-200"/><path fill="#005CB9" fill-rule="nonzero" d="M40 10h-6.5c-3.039 0-5.5 2.462-5.5 5.5V19a2 2 0 0 0 2 2h32a2 2 0 0 0 2-2v-3.5c0-3.035-2.464-5.5-5.5-5.5H52v-.004a6 6 0 0 0-12 0V10z" class="color-500"/><path fill="#A6D2FF" d="M46 6c2.21 0 4 1.797 4 3.996V12h8.5c1.933 0 3.5 1.57 3.5 3.5V19H30v-3.5c0-1.933 1.565-3.5 3.5-3.5H42V9.996A4 4 0 0 1 46 6zm0 2a2 2 0 1 0 0 4 2 2 0 0 0 0-4z" class="color-200"/></g><g class="animate-grow"><path fill="#40A0FF" d="M50.296 55.571c-3.116 4.607-3.947 10.479-2.372 15.776l8.423-4.329a8.753 8.753 0 0 1 .617-4.422l-6.668-7.025zm27.723-1.328l2.556-2.23c1.09-.95 2.019-.553 2.077.886l.492 12.07c.059 1.446-1.047 2.421-2.469 2.193l-12.173-1.955c-1.425-.229-1.692-1.184-.603-2.134l2.913-2.541a8.23 8.23 0 0 0-10.248-1.798l-6.872-6.897c7.407-5.766 18.101-4.783 24.327 2.406zM62.692 82.971c-4.114-.569-8.044-2.524-10.984-5.812a17.655 17.655 0 0 1-1.29-1.623l8.835-4.19a8.288 8.288 0 0 0 3.439 2.078v9.547zm4.909 0a16.98 16.98 0 0 0 8.622-4.014 17.122 17.122 0 0 0 3.65-4.47l-8.338-3.97a7.957 7.957 0 0 1-3.934 3.005v9.449z" class="color-300"/><path fill="#005CB9" fill-rule="nonzero" d="M50.296 55.571c-3.116 4.607-3.947 10.479-2.372 15.776l8.423-4.329a8.753 8.753 0 0 1 .617-4.422l-6.668-7.025zm-1.643-1.169a1.97 1.97 0 0 1 3.076-.262l6.668 7.025a2.09 2.09 0 0 1 .403 2.244 6.654 6.654 0 0 0-.467 3.36 2.064 2.064 0 0 1-1.09 2.083l-8.424 4.329c-1.107.569-2.447-.021-2.809-1.236-1.765-5.937-.8-12.453 2.643-17.543zm29.366-.159c-6.226-7.189-16.92-8.172-24.327-2.406l6.872 6.897a8.23 8.23 0 0 1 10.248 1.798l-2.913 2.541c-1.09.95-.822 1.905.603 2.134l12.173 1.955c1.422.228 2.528-.747 2.469-2.192l-.492-12.07c-.058-1.44-.987-1.837-2.077-.886l-2.556 2.229zm1.26-3.792c2.343-2.044 5.243-.807 5.372 2.363l.491 12.07c.112 2.752-2.12 4.731-4.776 4.305l-12.174-1.955c-3.106-.5-3.988-3.63-1.59-5.723l1.091-.952a6.267 6.267 0 0 0-6.168-.026 1.962 1.962 0 0 1-2.36-.333l-6.872-6.897c-.873-.876-.783-2.343.19-3.1 7.74-6.026 18.639-5.402 25.657 1.241l1.139-.993zM62.692 73.424a8.288 8.288 0 0 1-3.439-2.077l-8.834 4.189c.392.558.821 1.1 1.289 1.623 2.94 3.288 6.87 5.243 10.984 5.812v-9.547zm-.267 11.58c-4.69-.648-9.006-2.896-12.191-6.459a19.698 19.698 0 0 1-1.438-1.81c-.735-1.047-.357-2.52.784-3.061l8.834-4.19a1.963 1.963 0 0 1 2.24.4 6.297 6.297 0 0 0 2.616 1.576 2.046 2.046 0 0 1 1.422 1.964v9.547c0 1.241-1.068 2.198-2.267 2.032zM67.6 82.97a16.98 16.98 0 0 0 8.622-4.014 17.122 17.122 0 0 0 3.65-4.47l-8.338-3.97a7.957 7.957 0 0 1-3.934 3.005v9.449zm.295 2.028c-1.209.185-2.295-.775-2.295-2.028v-9.45c0-.879.546-1.66 1.359-1.942a5.903 5.903 0 0 0 1.95-1.135c.38-.332.711-.704.99-1.11a1.97 1.97 0 0 1 2.477-.678l8.339 3.97c1.067.509 1.478 1.847.887 2.891a19.16 19.16 0 0 1-4.083 5.002 18.956 18.956 0 0 1-9.624 4.48z" class="color-500"/></g></g></svg>