<svg xmlns="http://www.w3.org/2000/svg" width="92" height="92" class="wd-applet wd-applet-business-assets-tracking" focusable="false" role="presentation" viewBox="0 0 92 92"><g fill="none" fill-rule="evenodd" class="wd-icon-container"><g fill="#0B77E3" fill-opacity=".2" class="animate-flood"><path d="M46 82c19.882 0 36-16.118 36-36S65.882 10 46 10 10 26.118 10 46s16.118 36 36 36z" class="color-400-alpha-20"/></g><g class="animate-shrink"><path fill="#FFF" d="M18 36h56v38.991c0 .557-.45 1.009-.996 1.009H18.996A1 1 0 0 1 18 74.991V36z" class="color-100"/><path fill="#005CB9" fill-rule="nonzero" d="M74 34a2 2 0 0 1 2 2v37.003A3 3 0 0 1 73.004 76H18.996A3 3 0 0 1 16 73.003V36a2 2 0 0 1 2-2h56zm0 2H18v37.003a1 1 0 0 0 .996.997h54.008a1 1 0 0 0 .996-.997V36z" class="color-500"/><path fill="#A6D2FF" d="M27.49 19.866c.282-.478.965-.866 1.51-.866h34c.552 0 1.228.387 1.51.866L74 36H18l9.49-16.134z" class="color-200"/><path fill="#005CB9" fill-rule="nonzero" d="M27.49 19.866L18 36h56l-9.49-16.134C64.228 19.387 63.552 19 63 19H29c-.545 0-1.228.388-1.51.866zM29 17h34c1.262 0 2.593.763 3.234 1.852l9.49 16.134C76.508 36.319 75.547 38 74 38H18c-1.547 0-2.508-1.68-1.724-3.014l9.49-16.134C26.406 17.765 27.744 17 29 17z" class="color-500"/><path fill="#005CB9" d="M23 59h1v10h-1V59zm2 0h3v10h-3V59zm4 0h1v10h-1V59zm3 0h2v10h-2V59zm3 0h1v10h-1V59zm2 0h1v10h-1V59zm2 0h2v10h-2V59zm4 0h2v10h-2V59zM45 17h2v20h-2z" class="color-500"/><path fill="#000" fill-rule="nonzero" d="M76 49.163A15.957 15.957 0 0 0 70 48c-8.838 0-16 7.163-16 16 0 4.78 2.095 9.068 5.416 12H73a3 3 0 0 0 3-3V49.163z" class="color-shadow" opacity=".1"/></g><g class="animate-grow"><path fill="#A6D2FF" fill-rule="nonzero" d="M57 65c0-7.732 6.267-14 14-14 7.732 0 14 6.267 14 14 0 7.732-6.267 14-14 14-7.732 0-14-6.267-14-14z" class="color-200"/><path fill="#FFF" d="M71 74c1.01 0 7-7.134 7-11a7 7 0 0 0-14 0c0 3.866 5.99 11 7 11z" class="color-100"/><path fill="#005CB9" fill-rule="nonzero" d="M58 65c0 7.18 5.82 13 13 13s13-5.82 13-13-5.82-13-13-13-13 5.82-13 13zm-2 0c0-8.285 6.715-15 15-15s15 6.715 15 15-6.715 15-15 15-15-6.715-15-15zm15.081 6.436c.665-.69 1.446-1.638 2.172-2.65C74.93 66.444 76 64.195 76 63a5 5 0 0 0-10 0c0 1.196 1.07 3.445 2.747 5.785.726 1.013 1.507 1.962 2.172 2.651l.081.083.081-.083zM71 74c-1.01 0-7-7.134-7-11a7 7 0 0 1 14 0c0 3.866-5.99 11-7 11zm0-9a2 2 0 1 0 0-4 2 2 0 0 0 0 4z" class="color-500"/></g></g></svg>