<svg xmlns="http://www.w3.org/2000/svg" width="92" height="92" fill="none" class="wd-applet-calendar wd-applet" focusable="false" role="presentation" viewBox="0 0 92 92"><g class="wd-icon-container"><g class="animate-flood"><path fill="#0B77E3" fill-opacity=".2" fill-rule="evenodd" d="M46 82c19.882 0 36-16.118 36-36S65.882 10 46 10 10 26.118 10 46s16.118 36 36 36z" class="color-400-alpha-20" clip-rule="evenodd"/></g><g class="animate-shrink"><path fill="#005CB9" d="M17 23.428A4.422 4.422 0 0 1 21.425 19h49.15A4.43 4.43 0 0 1 75 23.428v45.144A4.422 4.422 0 0 1 70.575 73h-49.15A4.43 4.43 0 0 1 17 68.572V23.428zm2 0v45.144A2.43 2.43 0 0 0 21.425 71h49.15A2.422 2.422 0 0 0 73 68.572V23.428A2.43 2.43 0 0 0 70.575 21h-49.15A2.422 2.422 0 0 0 19 23.428z" class="color-500"/><path fill="#fff" fill-rule="evenodd" d="M19 33h54v35.565A2.426 2.426 0 0 1 70.575 71h-49.15A2.434 2.434 0 0 1 19 68.565V33z" class="color-100" clip-rule="evenodd"/><path fill="#40A0FF" fill-rule="evenodd" d="M43 41.99c0-.546.451-.99.99-.99h4.02c.546 0 .99.451.99.99v4.02c0 .546-.451.99-.99.99h-4.02a.996.996 0 0 1-.99-.99v-4.02zm10 0c0-.546.451-.99.99-.99h4.02c.546 0 .99.451.99.99v4.02c0 .546-.451.99-.99.99h-4.02a.996.996 0 0 1-.99-.99v-4.02zm10 0c0-.546.451-.99.99-.99h4.02c.546 0 .99.451.99.99v4.02c0 .546-.451.99-.99.99h-4.02a.996.996 0 0 1-.99-.99v-4.02zm-20 10c0-.546.451-.99.99-.99h4.02c.546 0 .99.451.99.99v4.02c0 .546-.451.99-.99.99h-4.02a.996.996 0 0 1-.99-.99v-4.02zm10 0c0-.546.451-.99.99-.99h4.02c.546 0 .99.451.99.99v4.02c0 .546-.451.99-.99.99h-4.02a.996.996 0 0 1-.99-.99v-4.02zm10 0c0-.546.451-.99.99-.99h4.02c.546 0 .99.451.99.99v4.02c0 .546-.451.99-.99.99h-4.02a.996.996 0 0 1-.99-.99v-4.02zm-10 10c0-.546.451-.99.99-.99h4.02c.546 0 .99.451.99.99v4.02c0 .546-.451.99-.99.99h-4.02a.996.996 0 0 1-.99-.99v-4.02zm10 0c0-.546.451-.99.99-.99h4.02c.546 0 .99.451.99.99v4.02c0 .546-.451.99-.99.99h-4.02a.996.996 0 0 1-.99-.99v-4.02zm-40-10c0-.546.451-.99.99-.99h4.02c.546 0 .99.451.99.99v4.02c0 .546-.451.99-.99.99h-4.02a.996.996 0 0 1-.99-.99v-4.02zm10 0c0-.546.451-.99.99-.99h4.02c.546 0 .99.451.99.99v4.02c0 .546-.451.99-.99.99h-4.02a.996.996 0 0 1-.99-.99v-4.02zm10 10c0-.546.451-.99.99-.99h4.02c.546 0 .99.451.99.99v4.02c0 .546-.451.99-.99.99h-4.02a.996.996 0 0 1-.99-.99v-4.02zm-20 0c0-.546.451-.99.99-.99h4.02c.546 0 .99.451.99.99v4.02c0 .546-.451.99-.99.99h-4.02a.996.996 0 0 1-.99-.99v-4.02zm10 0c0-.546.451-.99.99-.99h4.02c.546 0 .99.451.99.99v4.02c0 .546-.451.99-.99.99h-4.02a.996.996 0 0 1-.99-.99v-4.02z" class="color-300" clip-rule="evenodd"/><path fill="#A6D2FF" fill-rule="evenodd" d="M33 41.99c0-.546.451-.99.99-.99h4.02c.546 0 .99.451.99.99v4.02c0 .546-.451.99-.99.99h-4.02a.996.996 0 0 1-.99-.99v-4.02zm-10 0c0-.546.451-.99.99-.99h4.02c.546 0 .99.451.99.99v4.02c0 .546-.451.99-.99.99h-4.02a.996.996 0 0 1-.99-.99v-4.02z" class="color-200" clip-rule="evenodd"/><path fill="#0875E1" d="M73 33H19v4h54v-4z" class="color-400"/><path fill="#40A0FF" fill-rule="evenodd" d="M19 23.428A2.422 2.422 0 0 1 21.425 21h49.15A2.426 2.426 0 0 1 73 23.428V33H19v-9.572zM29 29a2 2 0 1 0 0-4 2 2 0 0 0 0 4zm34 0a2 2 0 1 0 0-4 2 2 0 0 0 0 4z" class="color-300" clip-rule="evenodd"/><path fill="#005CB9" fill-rule="evenodd" d="M29 31a4 4 0 1 1 0-8 4 4 0 0 1 0 8zm0-2a2 2 0 1 0 0-4 2 2 0 0 0 0 4zm34 2a4 4 0 1 1 0-8 4 4 0 0 1 0 8zm0-2a2 2 0 1 0 0-4 2 2 0 0 0 0 4z" class="color-500" clip-rule="evenodd"/></g></g></svg>