<svg xmlns="http://www.w3.org/2000/svg" width="92" height="92" class="wd-applet wd-applet-campaigns" focusable="false" role="presentation" viewBox="0 0 92 92"><g fill="none" fill-rule="evenodd" class="wd-icon-container"><g fill="#0B77E3" fill-opacity=".2" class="animate-flood"><path d="M46 81c19.882 0 36-16.118 36-36S65.882 9 46 9 10 25.118 10 45s16.118 36 36 36z" class="color-400-alpha-20"/></g><g class="animate-shrink"><path fill="#FFF" d="M29 24.507C29 17.047 35.043 11 42.5 11 49.956 11 56 17.046 56 24.507v8.986C56 40.953 49.957 47 42.5 47 35.044 47 29 40.954 29 33.493v-8.986z" class="color-100"/><path fill="#A6D2FF" d="M18 60c0-6.075 4.923-11 10.997-11h27.006C62.077 49 67 53.924 67 60v11H18V60z" class="color-200"/><path fill="#005CB9" fill-rule="nonzero" d="M16 60c0-7.18 5.818-13 12.997-13h27.006C63.182 47 69 52.82 69 60v10.997A2.002 2.002 0 0 1 67.003 73H17.997A1.998 1.998 0 0 1 16 70.997V60zm2 0v11h49V60c0-6.076-4.923-11-10.997-11H28.997C22.923 49 18 53.925 18 60zm9-35.493C27 15.943 33.938 9 42.5 9 51.061 9 58 15.942 58 24.507v8.986C58 42.057 51.062 49 42.5 49 33.939 49 27 42.058 27 33.493v-8.986zm2 0v8.986C29 40.954 35.044 47 42.5 47 49.957 47 56 40.952 56 33.493v-8.986C56 17.046 49.956 11 42.5 11 35.043 11 29 17.048 29 24.507z" class="color-500"/><path fill="#000" d="M69 59.98V73H49.721l-6.594-1.887a2.983 2.983 0 0 1-1.92.878l-.206.007h-1.002A3.008 3.008 0 0 1 37 68.991v-10.01a3 3 0 0 1 2.999-3.008h1.002c.82 0 1.563.332 2.104.867L64.353 50A13.002 13.002 0 0 1 69 59.98z" class="color-shadow" opacity=".1"/></g><g class="animate-grow"><path fill="#005CB9" fill-rule="nonzero" d="M48.5 73.49v4.02c0 .539.43 1.113.962 1.265l12.076 3.45c.528.15.962-.17.962-.72v-8.01c0-.54-.45-.995-1.007-.995H49.507a.998.998 0 0 0-1.007.99zm-2 0a2.998 2.998 0 0 1 3.007-2.99h11.986a3.008 3.008 0 0 1 3.007 2.995v8.01c0 1.882-1.71 3.158-3.512 2.643l-12.075-3.45c-1.386-.396-2.413-1.752-2.413-3.189v-4.018z" class="color-500"/><path fill="#A6D2FF" d="M61.493 72.5c.556 0 1.007.456 1.007.995v8.01c0 .55-.434.87-.962.72l-12.076-3.45c-.531-.152-.962-.726-.962-1.266v-4.018c0-.547.45-.991 1.007-.991h.743v3.86c0 .508.37 1.033.847 1.231l.122.043 8.559 2.445c.544.155.968-.174.968-.73V72.5z" class="color-200"/><path fill="#000" fill-rule="nonzero" d="M61.504 72.5c.55 0 .996.477.996 1.073V79.5l-1.754-.54V72.5zm-11.254 0v3.225l-1.75-.539v-1.603c0-.558.392-1.018.888-1.077l.108-.006h.754z" class="color-shadow" opacity=".1"/><path fill="#005CB9" fill-rule="nonzero" d="M52.25 75.848l6.496 1.856v-9.692L52.25 69.87v5.98zm-2-6.49c0-.552.424-1.12.969-1.275l8.559-2.445c.535-.153.968.172.968.73v12.98c0 .557-.424.886-.968.731l-8.56-2.445c-.534-.153-.968-.723-.968-1.274v-7.003z" class="color-500"/><path fill="#005CB9" d="M76.001 48A2.993 2.993 0 0 1 79 50.996v29.008A2.995 2.995 0 0 1 76.001 83h-1.002a2.994 2.994 0 0 1-2.885-2.173l-26.986-7.71A2.986 2.986 0 0 1 43 74h-1.002A3.005 3.005 0 0 1 39 70.998v-9.996A2.998 2.998 0 0 1 41.999 58h1.002c.82 0 1.563.331 2.105.866l27.005-8.681A2.996 2.996 0 0 1 74.999 48h1.002z" class="color-500"/><path fill="#40A0FF" d="M72 52.321l-26.017 8.363c.011.105.017.21.017.318v9.996c0 .095-.004.19-.013.284L72 78.714V52.321z" class="color-300"/><path fill="#FFF" d="M74 50.996c0-.55.443-.996.999-.996h1.002c.552 0 .999.438.999.996v29.008c0 .55-.443.996-.999.996h-1.002a.993.993 0 0 1-.999-.996V50.996zM41 61.002A.998.998 0 0 1 41.999 60h1.002c.552 0 .999.456.999 1.002v9.996A.998.998 0 0 1 43.001 72h-1.002c-.552 0-.999-.456-.999-1.002v-9.996z" class="color-100"/></g></g></svg>