<svg xmlns="http://www.w3.org/2000/svg" width="92" height="92" fill="none" class="wd-applet-candidate-engagement wd-applet" focusable="false" role="presentation" viewBox="0 0 92 92"><g class="wd-icon-container" clip-path="url(#clip0_1149_1137)"><g class="animate-flood"><path fill="#0B77E3" fill-opacity=".2" fill-rule="evenodd" d="M46 82c19.882 0 36-16.118 36-36S65.882 10 46 10 10 26.118 10 46s16.118 36 36 36z" class="color-400-alpha-20" clip-rule="evenodd"/></g><path fill="#000" fill-opacity=".1" fill-rule="evenodd" d="M10.678 63.053L22.652 49.56c1.079-1.215 2.955-1.33 4.231-.26l2.509 2.105c1.33 1.117 1.495 3.087.364 4.348L17.74 69.147c-2.095 2.334-1.79 5.98.674 8.047 2.463 2.067 6.106 1.734 8.041-.734L37.559 62.3c1.046-1.333 3.014-1.513 4.345-.396l2.508 2.105c1.277 1.07 1.49 2.938.48 4.212L33.682 82.357c-5.124 6.463-14.699 7.311-21.176 1.876-6.477-5.435-7.304-15.011-1.83-21.18zm13.51-12.133L12.212 64.412c-4.728 5.326-4.013 13.596 1.58 18.29 5.593 4.692 13.86 3.96 18.285-1.621l11.208-14.135a1.014 1.014 0 0 0-.16-1.404l-2.508-2.105a1.012 1.012 0 0 0-1.449.132L28.067 77.728c-2.633 3.357-7.588 3.81-10.939.998-3.35-2.811-3.765-7.77-.916-10.946l12.015-13.392a1.012 1.012 0 0 0-.121-1.45l-2.508-2.104a1.014 1.014 0 0 0-1.41.086z" class="color-shadow" clip-rule="evenodd"/><path fill="#40A0FF" d="M11.469 63.261l11.964-13.499a1 1 0 0 1 1.392-.103l2.446 2.053a1 1 0 0 1 .102 1.433L15.37 66.547a7.552 7.552 0 1 0 11.564 9.704L38.047 62.1a1 1 0 0 1 1.43-.148l2.446 2.053a1 1 0 0 1 .14 1.388L30.847 79.521c-4.429 5.578-12.587 6.403-18.043 1.825-5.455-4.578-6.06-12.755-1.335-18.085z" class="color-300"/><path fill="#fff" d="M23.459 49.716a1 1 0 0 1 1.391-.104l2.458 2.063a1 1 0 0 1 .103 1.433l-2.835 3.17-3.974-3.335 2.857-3.227zM38.049 62.105a1 1 0 0 1 1.429-.148l2.447 2.053a1 1 0 0 1 .14 1.388l-2.62 3.307-3.97-3.33 2.574-3.27z" class="color-100"/><path fill="#005CB9" fill-rule="evenodd" d="M9.972 61.934l11.965-13.499a3 3 0 0 1 4.173-.308l2.447 2.053a3 3 0 0 1 .306 4.3L16.86 67.882a5.552 5.552 0 1 0 8.501 7.133l11.114-14.149a3 3 0 0 1 4.288-.445l2.446 2.053a3 3 0 0 1 .422 4.164L32.413 80.765c-5.129 6.46-14.576 7.415-20.894 2.113C5.2 77.576 4.5 68.107 9.972 61.934zm13.461-12.172L11.47 63.26c-4.724 5.33-4.12 13.507 1.336 18.085 5.455 4.578 13.613 3.753 18.042-1.825l11.216-14.127a1 1 0 0 0-.14-1.388l-2.447-2.053a1 1 0 0 0-1.43.148l-11.113 14.15a7.552 7.552 0 1 1-11.564-9.704l12.004-13.402a1 1 0 0 0-.102-1.433l-2.446-2.053a1 1 0 0 0-1.392.103z" class="color-500" clip-rule="evenodd"/><g class="animate-left"><g fill="#A6D2FF" class="color-200"><path d="M71.5 64.466a9.933 9.933 0 0 1-6.9-2.774v-1.059c0-1.272 1.026-2.3 2.294-2.3h9.212a2.296 2.296 0 0 1 2.294 2.3v1.06a9.933 9.933 0 0 1-6.9 2.773z"/><path d="M61.533 54.5c0 1.998.588 3.858 1.6 5.418a3.827 3.827 0 0 1 3.761-3.118h2.063a4.598 4.598 0 0 1-2.057-3.835v-2.297a4.6 4.6 0 0 1 9.2 0v2.297a4.6 4.6 0 0 1-2.058 3.835h2.064a3.83 3.83 0 0 1 3.761 3.118 9.92 9.92 0 0 0 1.6-5.418c0-5.506-4.462-9.967-9.967-9.967-5.505 0-9.967 4.462-9.967 9.967z"/></g><path fill="#40A0FF" fill-rule="evenodd" d="M64.6 61.692a9.933 9.933 0 0 0 6.9 2.774 9.933 9.933 0 0 0 6.9-2.774v-1.059h.478-.478c0-1.272-1.027-2.3-2.294-2.3h-9.212a2.295 2.295 0 0 0-2.294 2.3h-.478.478v1.06z" class="color-300" clip-rule="evenodd"/><path fill="#fff" d="M71.5 47.216a3.45 3.45 0 0 1 3.45 3.45v2.3a3.45 3.45 0 1 1-6.9 0v-2.3a3.45 3.45 0 0 1 3.45-3.45z" class="color-100"/><path fill="#005CB9" fill-rule="evenodd" d="M59.982 54.5c0-6.361 5.156-11.518 11.518-11.518 6.362 0 11.518 5.156 11.518 11.518 0 6.362-5.156 11.519-11.518 11.519-6.362 0-11.518-5.157-11.518-11.519zm14.732 2.004h1.3a4.001 4.001 0 0 1 3.774 2.676 9.473 9.473 0 0 0 1.228-4.68 9.515 9.515 0 0 0-9.516-9.516 9.515 9.515 0 0 0-9.516 9.516c0 1.702.446 3.298 1.228 4.68a3.999 3.999 0 0 1 3.775-2.676h1.298a4.748 4.748 0 0 1-1.542-3.508v-2.25a4.758 4.758 0 0 1 9.515 0v2.25a4.748 4.748 0 0 1-1.544 3.508zm-9.725 4.936a9.482 9.482 0 0 0 6.511 2.576c2.52 0 4.809-.978 6.511-2.576v-.93a2 2 0 0 0-1.998-2.004h-9.026a1.999 1.999 0 0 0-1.998 2.004v.93zm3.756-10.694v2.25a2.756 2.756 0 1 0 5.51 0v-2.25a2.756 2.756 0 1 0-5.51 0z" class="color-500" clip-rule="evenodd"/></g><g class="animate-sink"><g fill="#A6D2FF" class="color-200"><path d="M27.148 29.685a9.934 9.934 0 0 1-6.9-2.774v-1.06c0-1.272 1.025-2.3 2.294-2.3h9.212a2.296 2.296 0 0 1 2.294 2.3v1.06a9.933 9.933 0 0 1-6.9 2.774z"/><path d="M17.18 19.718a9.92 9.92 0 0 0 1.6 5.418 3.827 3.827 0 0 1 3.762-3.118h2.062a4.598 4.598 0 0 1-2.056-3.835v-2.296a4.6 4.6 0 0 1 9.2 0v2.296a4.6 4.6 0 0 1-2.059 3.835h2.065a3.83 3.83 0 0 1 3.76 3.118 9.922 9.922 0 0 0 1.6-5.418c0-5.505-4.462-9.967-9.966-9.967-5.506 0-9.967 4.463-9.967 9.967z"/></g><path fill="#40A0FF" fill-rule="evenodd" d="M20.247 26.91a9.934 9.934 0 0 0 6.9 2.775 9.933 9.933 0 0 0 6.9-2.775v-1.059h.479-.479c0-1.271-1.026-2.3-2.293-2.3H22.54a2.295 2.295 0 0 0-2.294 2.3h-.478.479v1.06z" class="color-300" clip-rule="evenodd"/><path fill="#fff" d="M27.148 12.435a3.45 3.45 0 0 1 3.45 3.45v2.3a3.45 3.45 0 1 1-6.9 0v-2.3a3.45 3.45 0 0 1 3.45-3.45z" class="color-100"/><path fill="#005CB9" fill-rule="evenodd" d="M15.63 19.719c0-6.362 5.155-11.519 11.518-11.519 6.361 0 11.518 5.156 11.518 11.519 0 6.361-5.156 11.518-11.518 11.518-6.362 0-11.519-5.156-11.519-11.518zm14.731 2.003h1.3a4.001 4.001 0 0 1 3.774 2.676 9.473 9.473 0 0 0 1.228-4.68 9.515 9.515 0 0 0-9.515-9.515 9.515 9.515 0 0 0-9.516 9.516c0 1.701.446 3.298 1.227 4.68a4 4 0 0 1 3.775-2.677h1.299a4.748 4.748 0 0 1-1.543-3.508v-2.25a4.758 4.758 0 0 1 9.515 0v2.25a4.748 4.748 0 0 1-1.544 3.508zm-9.724 4.937a9.482 9.482 0 0 0 6.51 2.576c2.52 0 4.81-.979 6.511-2.576v-.93a2 2 0 0 0-1.997-2.004h-9.027a1.998 1.998 0 0 0-1.997 2.003v.93zm3.756-10.695v2.25a2.756 2.756 0 1 0 5.51 0v-2.25a2.756 2.756 0 1 0-5.51 0z" class="color-500" clip-rule="evenodd"/></g><g class="animate-shrink"><g fill="#005CB9" class="color-500"><path d="M22.494 34.437a1 1 0 0 1 1.105.883l.808 7.23a1 1 0 0 1-1.988.223l-.808-7.23a1 1 0 0 1 .883-1.106zM35.324 38.425a1 1 0 1 0-1.628-1.162l-4.227 5.922a1 1 0 0 0 1.628 1.162l4.227-5.922zM52.594 51.214a1 1 0 1 0-1.5-1.323l-4.812 5.458a1 1 0 0 0 1.5 1.322l4.812-5.457zM57.586 61.031a1 1 0 0 1-.777 1.181l-7.125 1.47a1 1 0 0 1-.405-1.958l7.126-1.47a1 1 0 0 1 1.181.777zM56.017 72.354a1 1 0 1 0 .6-1.907l-6.94-2.184a1 1 0 0 0-.6 1.908l6.94 2.183zM13.442 38.548a1 1 0 1 0-1.662 1.11l4.041 6.05a1 1 0 0 0 1.663-1.111l-4.042-6.05z"/></g></g><g class="animate-left"><g class="animate-sink"><g fill="#A6D2FF" class="color-200"><path d="M62.2 35.5a13.605 13.605 0 0 1-9.45-3.8v-1.45a3.143 3.143 0 0 1 3.142-3.15h12.616a3.145 3.145 0 0 1 3.142 3.15v1.45a13.603 13.603 0 0 1-9.45 3.8z"/><path d="M48.55 21.85c0 2.737.805 5.285 2.19 7.42A5.242 5.242 0 0 1 55.893 25h2.825a6.297 6.297 0 0 1-2.817-5.252v-3.145a6.304 6.304 0 0 1 6.3-6.303c3.48 0 6.3 2.822 6.3 6.303v3.145A6.3 6.3 0 0 1 65.681 25h2.827a5.244 5.244 0 0 1 5.151 4.27 13.587 13.587 0 0 0 2.191-7.42c0-7.54-6.111-13.65-13.65-13.65-7.54 0-13.65 6.112-13.65 13.65z"/></g><path fill="#40A0FF" fill-rule="evenodd" d="M52.75 31.702a13.605 13.605 0 0 0 9.45 3.8c3.668 0 6.998-1.447 9.45-3.8v-1.45h.655-.655a3.145 3.145 0 0 0-3.142-3.15H55.892a3.143 3.143 0 0 0-3.142 3.15h-.655.655v1.45z" class="color-300" clip-rule="evenodd"/><path fill="#fff" d="M62.2 11.875a4.725 4.725 0 0 1 4.725 4.725v3.15a4.725 4.725 0 0 1-9.45 0V16.6a4.725 4.725 0 0 1 4.725-4.725z" class="color-100"/><path fill="#005CB9" fill-rule="evenodd" d="M62.2 6.1c-8.7 0-15.75 7.051-15.75 15.75 0 8.7 7.05 15.75 15.75 15.75s15.75-7.05 15.75-15.75S70.899 6.1 62.2 6.1zm0 29.4a13.604 13.604 0 0 1-9.45-3.8v-1.45a3.143 3.143 0 0 1 3.142-3.15h12.616a3.145 3.145 0 0 1 3.142 3.15v1.45a13.604 13.604 0 0 1-9.45 3.8zM55.892 25a5.242 5.242 0 0 0-5.151 4.27 13.587 13.587 0 0 1-2.191-7.42c0-7.539 6.11-13.65 13.65-13.65 7.539 0 13.65 6.11 13.65 13.65 0 2.736-.805 5.285-2.191 7.42a5.244 5.244 0 0 0-5.15-4.27H65.68a6.3 6.3 0 0 0 2.819-5.252v-3.145c0-3.481-2.82-6.303-6.3-6.303a6.304 6.304 0 0 0-6.3 6.303v3.145A6.297 6.297 0 0 0 58.717 25h-2.825zm6.308-1.05c-2.32 0-4.2-1.881-4.2-4.202v-3.145a4.204 4.204 0 0 1 4.2-4.203c2.32 0 4.2 1.881 4.2 4.203v3.145a4.204 4.204 0 0 1-4.2 4.202z" class="color-500" clip-rule="evenodd"/></g></g></g></svg>