<svg xmlns="http://www.w3.org/2000/svg" width="92" height="92" fill="none" class="wd-applet-career-hub wd-applet" focusable="false" role="presentation" viewBox="0 0 92 92"><g class="wd-icon-container"><g class="animate-flood"><path fill="#0B77E3" fill-opacity=".2" fill-rule="evenodd" d="M46 82c19.882 0 36-16.118 36-36S65.882 10 46 10 10 26.118 10 46s16.118 36 36 36z" class="color-400-alpha-20" clip-rule="evenodd"/></g><g class="animate-grow"><path fill="#fff" d="M40.614 16.176l9.947-4.54a.819.819 0 0 1 1.159.744v7.46c0 .546-.526.94-1.05.786l-9.946-2.92c-.728-.213-.8-1.215-.11-1.53z" class="color-100"/><g fill="#005CB9" class="color-500"><path fill-rule="evenodd" d="M53 9v21h-2V9h2z" clip-rule="evenodd"/><path fill-rule="evenodd" d="M42.71 16.896L51 19.329v-6.217l-8.29 3.784zm8.875-6.25L39.44 16.19c-.842.385-.755 1.609.134 1.87l12.144 3.564a1 1 0 0 0 1.282-.96v-9.108a1 1 0 0 0-1.415-.91z" clip-rule="evenodd"/><path fill-rule="evenodd" d="M48 19.5V13h2v6.5h-2z" clip-rule="evenodd"/><path d="M54 8a2 2 0 1 1-4 0 2 2 0 0 1 4 0z"/></g></g><path fill="#40A0FF" d="M25.438 53.5L13.045 74.55c-.272.481 1.238 2.45 1.941 2.45h63.028c.71 0 1.4-2.04 1.116-2.523L66.44 51c-4.525 3.679-7.171 2.033-9.439.8l-2.5-1.3c-1.319-.717-2.861.365-4.052 1.196l-1.252.873c-2.853 1.992-6.593 1.298-9.196-.873-1.775-1.48-5.931-3.449-8-2.196L26.875 51l-1.437 2.5z" class="color-200"/><path fill="#fff" d="M26.438 51.25l2.43-.35c2.93-2.393 9.226-2.05 11.739.778 1.893 2.13 5.318 2.775 7.393.822l2.5-1.695c1.91-1.798 3.384-.857 5.5.695l4 1.5c1.725 1.265 5.505-.77 6-2.5L53.5 27c-.354-.812-2.48-.821-2.813 0l-6.5 16.188c-.153.38-.66.349-.874 0L38.624 34.5c-.427-.694-2.436-.752-2.75 0l-9.438 16.75z" class="color-100"/><g fill="#000" fill-opacity=".1" fill-rule="evenodd" class="color-shadow" clip-rule="evenodd"><path d="M15.31 75.73l22.781-40.843-2.62-1.461L12.69 74.269a1.5 1.5 0 0 0 2.62 1.462zM45.383 45.582l8-19L52 26l-1.297.796-.868.601L43.5 43.5l1.883 2.082z"/></g><g fill="#005CB9" class="color-500"><path d="M65.564 52.627a6.693 6.693 0 0 1-9.12-.012 4.693 4.693 0 0 0-6.162-.212l-.53.43a7.475 7.475 0 0 1-8.726.505l-2.412-1.535a9.441 9.441 0 0 0-8.787-.712L26 53l.5-2.5 2.539-1.247a11.44 11.44 0 0 1 10.649.863l2.411 1.535a5.475 5.475 0 0 0 6.393-.37l.529-.43a6.693 6.693 0 0 1 8.787.302c1.8 1.68 4.804 2.517 7.26-.736 2.454-3.254.496-.142.496-.142L66.5 51.5l-.936 1.127z"/><path fill-rule="evenodd" d="M76.99 78H15.064c-2.29 0-3.736-2.465-2.618-4.464l22.067-39.462c1.14-2.04 4.074-2.05 5.228-.016l3.833 6.76 5.782-13.666c.983-2.325 4.223-2.47 5.41-.242l24.872 46.68c1.065 1.998-.383 4.41-2.648 4.41zM44.23 44.4a.5.5 0 0 1-.896.051l-5.333-9.406a1 1 0 0 0-1.743.005L14.191 74.512A1 1 0 0 0 15.064 76H76.99a1 1 0 0 0 .883-1.47L53 27.85a1 1 0 0 0-1.803.08L44.23 44.4z" clip-rule="evenodd"/><path fill-rule="evenodd" d="M45.628 48.615l-6.281-11.188 1.744-.979 6.28 11.188a1 1 0 1 1-1.743.979z" clip-rule="evenodd"/><path d="M55.216 37.935c.15.385.3.783.45 1.193a.986.986 0 0 1-.612 1.268 1.015 1.015 0 0 1-1.28-.617 57.36 57.36 0 0 0-.41-1.089c-.2-.515.044-1.098.556-1.306a.988.988 0 0 1 1.296.551zM57.214 44.18c.103.425.198.854.284 1.284a.974.974 0 0 1-.805 1.147 1.029 1.029 0 0 1-1.169-.819c-.074-.364-.155-.729-.242-1.094A1.021 1.021 0 0 1 56 43.47a.98.98 0 0 1 1.213.71zM55.164 57.168a7.011 7.011 0 0 1-1.472.895c-.503.228-1.068-.073-1.233-.6-.165-.527.135-1.078.628-1.328.21-.107.407-.225.589-.351.454-.316 1.082-.35 1.487.025.406.376.434 1.015.001 1.359zM47.567 58.802c-.179-.018-.355-.033-.528-.047a1.034 1.034 0 0 1-.963-1.056.97.97 0 0 1 1.034-.944c.214.016.43.035.652.056.174.017.345.031.512.043.551.038.998.485.996 1.037-.002.552-.452 1-1.003.967a19.648 19.648 0 0 1-.7-.056zM42.05 59.013c-.307.069-.597.147-.874.234-.526.166-1.115-.061-1.335-.568-.22-.506.01-1.1.534-1.274.439-.147.903-.273 1.393-.377.54-.115 1.048.27 1.125.817.077.546-.305 1.047-.844 1.168zM37.159 61.855c-.21.235-.41.479-.604.73-.336.438-.954.56-1.41.249-.458-.31-.58-.935-.246-1.375.279-.368.578-.732.904-1.085.374-.405 1.01-.375 1.383.032.373.407.341 1.038-.027 1.45zM33.744 66.896c-.265.385-.547.765-.851 1.127-.356.423-.992.414-1.377.019-.386-.395-.376-1.028-.03-1.457.194-.24.381-.493.567-.76a1.032 1.032 0 0 1 1.396-.3.973.973 0 0 1 .295 1.37zM28.143 70.853a9.846 9.846 0 0 1-1.524.145c-.552.01-.972-.469-.938-1.02.033-.551.508-.964 1.06-.984.287-.011.558-.036.812-.072.547-.077 1.107.215 1.269.743.162.528-.135 1.092-.68 1.188z"/></g></g></svg>