<svg xmlns="http://www.w3.org/2000/svg" width="92" height="92" class="wd-applet wd-applet-case-repository" focusable="false" role="presentation" viewBox="0 0 92 92"><g fill="none" fill-rule="evenodd" class="wd-icon-container"><g fill="#0B77E3" fill-opacity=".2" class="animate-flood"><path d="M46 82c-19.882 0-36-16.118-36-36s16.118-36 36-36 36 16.118 36 36-16.118 36-36 36z" class="color-400-alpha-20"/></g><path fill="#FFF" d="M72 79a1 1 0 0 1-.992 1H20.992A1 1 0 0 1 20 79V13a1 1 0 0 1 .992-1h50.016A1 1 0 0 1 72 13v66z" class="color-100"/><path fill="#005CB9" d="M32.472 46l2.235-2.235a.994.994 0 0 0 .004-1.406l-.07-.069a.993.993 0 0 0-1.406.004L31 44.528l-2.235-2.234a.993.993 0 0 0-1.407-.004l-.069.07a.994.994 0 0 0 .004 1.405L29.528 46l-2.235 2.235a.994.994 0 0 0-.004 1.406l.07.069a.993.993 0 0 0 1.406-.004L31 47.472l2.235 2.234a.993.993 0 0 0 1.407.004l.069-.07a.994.994 0 0 0-.004-1.405L32.472 46z" class="color-500"/><path fill="#005CB9" fill-rule="nonzero" d="M74 79V13a3 3 0 0 0-2.992-3H20.992A3 3 0 0 0 18 13v66a3 3 0 0 0 2.992 3h50.016A3 3 0 0 0 74 79zm-2 0a1 1 0 0 1-.992 1H20.992A1 1 0 0 1 20 79V13a1 1 0 0 1 .992-1h50.016A1 1 0 0 1 72 13v66z" class="color-500"/><path fill="#40A0FF" d="M59 26.999v1.002a.994.994 0 0 1-.995.999h-17.01a1 1 0 0 1-.995-.999v-1.002c0-.556.445-.999.995-.999h17.01a1 1 0 0 1 .995.999zm5 5v1.002A.997.997 0 0 1 63 34H41a1 1 0 0 1-1-.999v-1.002A.997.997 0 0 1 41 31h22a1 1 0 0 1 1 .999zm-5 27v1.002a.994.994 0 0 1-.995.999h-17.01a1 1 0 0 1-.995-.999v-1.002c0-.556.445-.999.995-.999h17.01a1 1 0 0 1 .995.999zm5 5v1.002A.997.997 0 0 1 63 66H41a1 1 0 0 1-1-.999v-1.002A.997.997 0 0 1 41 63h22a1 1 0 0 1 1 .999z" class="color-300"/><g fill="#40A0FF" class="animate-grow"><path d="M59 42.999v1.002a.994.994 0 0 1-.995.999h-17.01a1 1 0 0 1-.995-.999v-1.002c0-.556.445-.999.995-.999h17.01a1 1 0 0 1 .995.999zm5 5v1.002A.997.997 0 0 1 63 50H41a1 1 0 0 1-1-.999v-1.002A.997.997 0 0 1 41 47h22a1 1 0 0 1 1 .999z" class="color-300"/></g><path fill="#005CB9" fill-rule="nonzero" d="M31 58a5 5 0 1 0 0 10 5 5 0 0 0 0-10zm0 2a3 3 0 1 1 0 6 3 3 0 0 1 0-6z" class="color-500"/><circle cx="31" cy="63" r="3" fill="#A6D2FF" class="color-200" transform="matrix(-1 0 0 1 62 0)"/><path fill="#005CB9" d="M29.506 33.533a1.01 1.01 0 0 1-.23-.12l-2.457-1.72a.997.997 0 0 1-.245-1.393.997.997 0 0 1 1.392-.246l1.668 1.168 3.448-4.924a.996.996 0 0 1 1.391-.244c.452.317.563.94.247 1.39l-4.018 5.739a.996.996 0 0 1-1.196.35z" class="color-500"/><g class="animate-float-rotate-left"><path fill="#0B77E3" d="M41.607 69.725l3.828 3.828L33.829 85.16l-3.83-3.828z" class="color-400"/><path fill="#40A0FF" d="M51.799 71.432a.999.999 0 0 1 0 1.414l-2.414 2.415a1 1 0 0 1-1.414 0L39.9 67.189a.999.999 0 0 1 0-1.414l2.414-2.414a.999.999 0 0 1 1.414 0l8.07 8.07z" class="color-300"/><path fill="#FCFCFC" d="M68.477 46.683c5.077 5.077 5.077 13.308 0 18.385-5.077 5.077-13.308 5.077-18.385 0-5.077-5.077-5.077-13.308 0-18.385 5.077-5.077 13.308-5.077 18.385 0" class="color-screen" opacity=".7"/><path fill="#000" d="M46.526 58.375c-.8-4.102.389-8.515 3.566-11.692 5.077-5.077 13.308-5.077 18.385 0a12.984 12.984 0 0 1 3.566 11.692 12.938 12.938 0 0 0-3.566-6.692c-5.077-5.077-13.308-5.077-18.385 0a12.938 12.938 0 0 0-3.566 6.692" class="color-shadow" opacity=".1"/><path fill="#A6D2FF" d="M49.792 65.367c5.32 5.32 13.883 5.384 19.126.142 5.242-5.243 5.178-13.805-.142-19.126-5.32-5.32-13.883-5.384-19.126-.142-5.242 5.243-5.178 13.806.142 19.126M47.44 67.72c-6.639-6.639-6.718-17.323-.177-23.865 6.541-6.54 17.226-6.462 23.865.177 6.64 6.64 6.718 17.324.177 23.865-6.542 6.541-17.226 6.462-23.865-.177" class="color-200"/><path fill="#005CB9" d="M51.244 63.916c4.507 4.507 11.76 4.56 16.2.12 4.442-4.441 4.388-11.694-.12-16.201-4.506-4.507-11.76-4.561-16.2-.12-4.441 4.44-4.387 11.694.12 16.2zm-1.495 1.513c-5.327-5.327-5.4-13.904-.145-19.16 5.255-5.254 13.832-5.181 19.159.146 5.326 5.326 5.4 13.904.145 19.159-5.255 5.255-13.833 5.182-19.16-.145zm-2.31 2.29c6.64 6.639 17.325 6.719 23.866.177 6.542-6.541 6.462-17.226-.176-23.865-6.64-6.638-17.324-6.718-23.865-.176-6.542 6.54-6.462 17.226.176 23.865zm-5.832 3.006L31 81.33l2.829 2.829 10.606-10.607-2.828-2.828zm.862-6.49a1.01 1.01 0 0 0-.162.132l-1.401 1.4a1.002 1.002 0 0 0-.005 1.424l7.068 7.068a1.012 1.012 0 0 0 1.423-.005l1.4-1.401c.05-.051.095-.105.132-.161a19.218 19.218 0 0 1-4.898-3.558 19.214 19.214 0 0 1-3.557-4.898zm-.814-1.836c-2.563-6.732-1.176-14.588 4.194-19.96 7.328-7.326 19.278-7.237 26.694.178 7.415 7.416 7.504 19.366.177 26.694-5.371 5.37-13.226 6.757-19.957 4.194a3.05 3.05 0 0 1-.556.762l-1.401 1.4a3.01 3.01 0 0 1-4.251.006l-.706-.706-10.606 10.607a2 2 0 0 1-2.83 0l-2.827-2.828a2 2 0 0 1 0-2.83l10.607-10.605-.706-.706a3 3 0 0 1 .005-4.251l1.4-1.401c.23-.23.489-.414.763-.554z" class="color-500"/></g></g></svg>