<svg xmlns="http://www.w3.org/2000/svg" width="92" height="92" class="wd-applet wd-applet-cash-management" focusable="false" role="presentation" viewBox="0 0 92 92"><g fill="none" fill-rule="evenodd" class="wd-icon-container"><g fill="#0B77E3" fill-opacity=".2" class="animate-flood"><path d="M46 82c19.882 0 36-16.118 36-36S65.882 10 46 10 10 26.118 10 46s16.118 36 36 36z" class="color-400-alpha-20"/></g><path fill="#40A0FF" d="M30.325 23.203l30.48 8.172-.209.367-31.585-5.608 1.314-2.93zm0-5.227l32.477 11.88-.137.269-33.797-8.984 1.457-3.165zm-13.87 7.496l61.641 10.935-5.083 30.404L10.84 55.66l5.617-30.187z" class="color-300"/><path fill="#000" d="M30.325 23.203l30.48 8.172-.209.367-31.585-5.608 1.314-2.93zm0-5.227l32.477 11.88-.137.269-33.797-8.984 1.457-3.165z" class="color-shadow" opacity=".1"/><path fill="#FFF" d="M28.64 22.561l1.769-4.887 5.2 2.04s-1.119 4.595-6.534 3.21c-.134.939-1.04 4.619-6.99 2.938-.017.063 1.05-5.125 1.05-5.125l5.505 1.824zm47.934 20.194c-5.905-1.041-5.746-8.172-5.746-8.172l6.99 1.119-1.244 7.053zM43.27 53.983c-4.35-.767-7.495-5.237-6.727-9.588.767-4.351 5.284-7.4 9.635-6.633 4.352.767 7.358 5.34 6.59 9.692-.767 4.35-5.147 7.296-9.498 6.529zm30.737 5.59l-1.244 7.054-6.95-1.34s2.288-6.755 8.194-5.713zm-61.665-11.03c5.906 1.04 5.746 8.171 5.746 8.171l-6.99-1.118 1.244-7.053zm2.92-16.23l1.243-7.054 6.951 1.34s-2.289 6.755-8.194 5.714z" class="color-100"/><path fill="#005CB9" fill-rule="nonzero" d="M69.859 35.11l-45.225-7.974a8.033 8.033 0 0 1-9.286 6.493l-2.43 13.781a8.033 8.033 0 0 1 6.506 9.27l45.225 7.975a8.033 8.033 0 0 1 9.327-6.479l2.43-13.78a8.033 8.033 0 0 1-6.547-9.285zm1.97.348c-.555 3.276 1.603 6.373 4.924 6.968l.904-5.126a.804.804 0 0 0-.655-.93l-5.174-.912zm-5.21 29.544l5.173.912a.806.806 0 0 0 .934-.65l.903-5.118c-3.323-.577-6.408 1.592-7.01 4.856zm-49.164-8.669a6.033 6.033 0 0 0-4.885-6.953l-.902 5.118a.804.804 0 0 0 .655.93l5.132.905zm5.21-29.544l-5.133-.905a.806.806 0 0 0-.933.65l-.904 5.125a6.033 6.033 0 0 0 6.97-4.87zm-.125-2.053l4.749.838a5.428 5.428 0 0 0 1.447-2.635l-4.366-1.17a1.006 1.006 0 0 0-1.226.713l-.604 2.254zm37.735 6.654l-29.607-7.933a7.442 7.442 0 0 1-1.119 2.515l30.726 5.418zm19.226 4.815c.163.446.214.94.125 1.443l-4.93 27.964a2.806 2.806 0 0 1-3.25 2.272l-59.47-10.486a2.804 2.804 0 0 1-2.278-3.247l4.931-27.964a2.806 2.806 0 0 1 3.25-2.273l2.684.474.65-2.423a3.006 3.006 0 0 1 3.674-2.128l2.602.697.738-2.026a3.003 3.003 0 0 1 3.85-1.79L77.524 33.26a3.01 3.01 0 0 1 1.978 2.946zM29.43 21.055l4.223 1.13a4.844 4.844 0 0 0 1.197-2.33l-3.455-1.257a1.003 1.003 0 0 0-1.288.594l-.677 1.862zm33.03 8.85l-25.716-9.36a6.85 6.85 0 0 1-.988 2.204l26.703 7.155zM42.925 55.746c-5.439-.959-9.07-6.145-8.112-11.584.96-5.44 6.146-9.07 11.585-8.112 5.439.96 9.07 6.146 8.111 11.585-.959 5.439-6.145 9.07-11.584 8.111zm.347-1.97a8 8 0 1 0 2.779-15.756 8 8 0 0 0-2.779 15.757z" class="color-500"/><g class="animate-spin"><path fill="#A6D2FF" d="M72.388 71.857l8.34 3.872-.24.398a16.816 16.816 0 0 1-3.41 3.96A17.177 17.177 0 0 1 68.454 84v-9.212a7.94 7.94 0 0 0 3.933-2.93zm-12.28.81a8.33 8.33 0 0 0 3.437 2.025V84c-4.113-.554-8.044-2.46-10.984-5.667-.35-.382-.68-.775-.987-1.177l-.301-.405 8.834-4.084zM51.15 57.286l6.668 6.849a8.34 8.34 0 0 0-.617 4.312l-8.424 4.22-.116-.399c-1.414-5.059-.547-10.606 2.49-14.982zm27.723-1.295l2.555-2.174c1.09-.927 2.02-.54 2.078.863l.492 11.769c.059 1.41-1.047 2.36-2.469 2.138L69.355 66.68c-1.424-.223-1.692-1.154-.603-2.08l2.913-2.478c-2.608-2.937-6.91-3.582-10.247-1.753l-6.873-6.725c7.408-5.621 18.102-4.662 24.328 2.347z" class="color-200"/><path fill="#005CB9" fill-rule="nonzero" d="M61.509 71.24a6.33 6.33 0 0 0 2.615 1.538 2 2 0 0 1 1.421 1.914V84a2 2 0 0 1-2.267 1.982c-4.689-.631-9.005-2.823-12.19-6.297a19.292 19.292 0 0 1-1.438-1.765 2 2 0 0 1 .783-2.984l8.835-4.085a2 2 0 0 1 2.24.389zm11.722-1.197l8.338 3.872a2 2 0 0 1 .888 2.818 18.786 18.786 0 0 1-4.083 4.877 19.174 19.174 0 0 1-9.624 4.368A2 2 0 0 1 66.455 84v-9.212a2 2 0 0 1 1.358-1.895 5.94 5.94 0 0 0 2.94-2.188 2 2 0 0 1 2.478-.662zm-13.124 2.624l-8.834 4.084c.392.544.821 1.073 1.288 1.582 2.94 3.206 6.87 5.113 10.984 5.667v-9.308a8.33 8.33 0 0 1-3.438-2.025zm12.281-.81a7.94 7.94 0 0 1-3.934 2.93V84a17.177 17.177 0 0 0 8.623-3.914 16.786 16.786 0 0 0 3.65-4.357l-8.339-3.872zM52.583 55.891l6.668 6.848a2 2 0 0 1 .403 2.189 6.34 6.34 0 0 0-.468 3.276 2 2 0 0 1-1.089 2.03l-8.424 4.22a2 2 0 0 1-2.809-1.204c-1.765-5.788-.8-12.142 2.643-17.104a2 2 0 0 1 3.076-.255zm-1.433 1.395c-3.116 4.491-3.948 10.216-2.373 15.38l8.424-4.22a8.34 8.34 0 0 1 .617-4.311l-6.668-6.85zm27.844-4.024l1.139-.968c2.342-1.993 5.243-.787 5.372 2.303l.491 11.769c.112 2.683-2.12 4.613-4.776 4.197l-12.174-1.907c-3.106-.486-3.988-3.539-1.59-5.58l1.091-.927a6.407 6.407 0 0 0-6.168-.026 2 2 0 0 1-2.36-.324l-6.872-6.725a2 2 0 0 1 .19-3.023c7.74-5.875 18.639-5.266 25.657 1.21zm-24.449.382l6.873 6.725c3.337-1.829 7.639-1.184 10.247 1.753L68.752 64.6c-1.089.926-.821 1.857.603 2.08l12.174 1.907c1.422.222 2.528-.729 2.469-2.138l-.492-11.769c-.058-1.403-.988-1.79-2.078-.863l-2.555 2.174c-6.226-7.01-16.92-7.968-24.328-2.347z" class="color-500"/></g></g></svg>