<svg xmlns="http://www.w3.org/2000/svg" width="92" height="92" class="wd-applet wd-applet-catalog-loads" focusable="false" role="presentation" viewBox="0 0 92 92"><g fill="none" fill-rule="evenodd" class="wd-icon-container"><g fill="#0B77E3" fill-opacity=".2" class="animate-flood"><path d="M46 82c19.882 0 36-16.118 36-36S65.882 10 46 10 10 26.118 10 46s16.118 36 36 36z" class="color-400-alpha-20"/></g><g class="animate-float"><path fill="#A6D2FF" d="M17 20.991c0-.547.45-.991 1.007-.991h55.986c.556 0 1.007.448 1.007.991V80H17V20.991z" class="color-200"/><path fill="#005CB9" fill-rule="nonzero" d="M73.993 18A3 3 0 0 1 77 21.006V80a2 2 0 0 1-2 2H17a2 2 0 0 1-2-2V21.006A3.006 3.006 0 0 1 18.007 18h55.986zm0 2H18.007C17.45 20 17 20.45 17 21.006V80h58V21.006A1 1 0 0 0 73.993 20z" class="color-500"/></g><g class="animate-sink"><path fill="#40A0FF" d="M30 30.999c0-.552.452-.999.993-.999h30.014c.549 0 .993.443.993.999V33H30v-2.001z" class="color-300"/><path fill="#005CB9" fill-rule="nonzero" d="M61.007 28A2.993 2.993 0 0 1 64 30.999V33a2 2 0 0 1-2 2H30a2 2 0 0 1-2-2v-2.001A3 3 0 0 1 30.993 28h30.014zm0 2H30.993c-.54 0-.993.447-.993.999V33h32v-2.001a.993.993 0 0 0-.993-.999z" class="color-500"/></g><g class="animate-sink-less"><path fill="#A6D2FF" d="M25 35.999c0-.552.443-.999.997-.999h40.006c.55 0 .997.443.997.999V38H25v-2.001z" class="color-200"/><path fill="#005CB9" fill-rule="nonzero" d="M66.003 33A2.995 2.995 0 0 1 69 35.999V38a2 2 0 0 1-2 2H25a2 2 0 0 1-2-2v-2.001A2.996 2.996 0 0 1 25.997 33h40.006zm0 2H25.997a.996.996 0 0 0-.997.999V38h42v-2.001a.995.995 0 0 0-.997-.999z" class="color-500"/></g><g class="animate-float"><rect width="50" height="30" x="2" y="2" fill="#FFF" class="color-100" rx="1" transform="translate(19 38)"/><path fill="#005CB9" fill-rule="nonzero" d="M51.001 0A3.003 3.003 0 0 1 54 2.992v28.016A2.996 2.996 0 0 1 51.001 34H3A3.003 3.003 0 0 1 0 31.008V2.992A2.996 2.996 0 0 1 2.999 0H51zm0 2H3A.996.996 0 0 0 2 2.992v28.016c0 .537.447.992.999.992H51a.996.996 0 0 0 .999-.992V2.992c0-.537-.447-.992-.999-.992z" class="color-500" transform="translate(19 38)"/><path fill="#0B77E3" d="M12 9a1 1 0 0 1 .998-1h28.004a1 1 0 1 1 0 2H12.998A.997.997 0 0 1 12 9zm5 5c0-.552.455-1 .992-1h18.016c.548 0 .992.444.992 1 0 .552-.455 1-.992 1H17.992A.993.993 0 0 1 17 14z" class="color-400" transform="translate(19 38)"/><path fill="#40A0FF" d="M8 18.999c0-.552.453-.999.997-.999h36.006c.55 0 .997.443.997.999v1.002c0 .552-.453.999-.997.999H8.997A.995.995 0 0 1 8 20.001v-1.002zm0 5c0-.552.455-.999.992-.999h18.016c.548 0 .992.443.992.999v1.002c0 .552-.455.999-.992.999H8.992A.992.992 0 0 1 8 25.001v-1.002z" class="color-300" transform="translate(19 38)"/></g><g class="animate-sink-less"><path fill="#000" d="M5 0h58v18.005a1 1 0 0 1-1.007.995H6.007C5.45 19 5 18.55 5 18.005V0z" class="color-shadow" opacity=".1" transform="translate(12 48)"/><rect width="64" height="25" x="2" y="7" fill="#40A0FF" class="color-300" rx="1" transform="translate(12 48)"/><path fill="#005CB9" fill-rule="nonzero" d="M64.995 5A3.007 3.007 0 0 1 68 7.995v23.01A2.996 2.996 0 0 1 64.995 34H3.005A3.007 3.007 0 0 1 0 31.005V7.995A2.996 2.996 0 0 1 3.005 5h61.99zm0 2H3.005A.996.996 0 0 0 2 7.995v23.01c0 .54.45.995 1.005.995h61.99A.996.996 0 0 0 66 31.005V7.995c0-.54-.45-.995-1.005-.995z" class="color-500" transform="translate(12 48)"/><path fill="#FFF" d="M21 12h26v9H21z" class="color-100" transform="translate(12 48)"/><path fill="#005CB9" d="M25 26.999c0-.552.445-.999.993-.999h16.014c.548 0 .993.443.993.999v1.002a.996.996 0 0 1-.993.999H25.993a.993.993 0 0 1-.993-.999v-1.002zm2-11c0-.552.45-.999 1.007-.999h11.986a1 1 0 0 1 1.007.999v1.002c0 .552-.45.999-1.007.999H28.007A1 1 0 0 1 27 17.001v-1.002z" class="color-500" transform="translate(12 48)"/><path fill="#005CB9" fill-rule="nonzero" d="M47 10a2 2 0 0 1 2 2v9a2 2 0 0 1-2 2H21a2 2 0 0 1-2-2v-9a2 2 0 0 1 2-2h26zm0 2H21v9h26v-9z" class="color-500" transform="translate(12 48)"/></g></g></svg>