<svg xmlns="http://www.w3.org/2000/svg" width="92" height="92" class="wd-applet wd-applet-checkmark" focusable="false" role="presentation" viewBox="0 0 92 92"><g fill="none" fill-rule="evenodd" class="wd-icon-container"><g fill="#0B77E3" fill-opacity=".2" class="animate-flood"><circle cx="36" cy="36" r="36" class="color-400-alpha-20" transform="translate(10 10)"/></g><g class="animate-shrink"><path fill="#FFF" d="M39.423 53.645l-7.951-5.567a6.02 6.02 0 0 0-6.905 9.86l12.814 8.973a6.02 6.02 0 0 0 8.426-1.54c.3-.281.574-.596.819-.946L67.86 33.472a6.02 6.02 0 1 0-9.861-6.905L39.423 53.645z" class="color-100"/><path fill="#005CB9" fill-rule="nonzero" d="M39.93 56.442l-9.605-6.726a4.02 4.02 0 1 0-4.61 6.584l12.813 8.973a4.02 4.02 0 0 0 5.597-.987l.154-.225.16-.15c.202-.19.386-.4.538-.617L66.254 32.29a4.02 4.02 0 0 0-.987-5.598c-1.818-1.273-4.324-.83-5.586.972L39.93 56.442zm18.102-29.91a6.02 6.02 0 1 1 9.86 6.905L46.627 64.425c-.245.35-.52.665-.819.945-1.95 2.786-5.703 3.448-8.426 1.54L24.567 57.94a6.02 6.02 0 0 1 6.905-9.861l6.314 4.42 1.638 1.148 1.121-1.634 17.487-25.48z" class="color-500"/></g></g></svg>