<svg xmlns="http://www.w3.org/2000/svg" width="92" height="92" class="wd-applet wd-applet-cloud-shield" focusable="false" role="presentation" viewBox="0 0 92 92"><g fill="none" fill-rule="evenodd" class="wd-icon-container"><g fill="#0875E1" fill-opacity=".2" class="animate-flood"><path d="M46 82c19.882 0 36-16.118 36-36S65.882 10 46 10 10 26.118 10 46s16.118 36 36 36z" class="color-400-alpha-20"/></g><path fill="#FFF" d="M75.971 41.738a13.725 13.725 0 0 0-7.884-3.902 19.553 19.553 0 0 0-1.34-4.83 19.664 19.664 0 0 0-4.213-6.248 19.664 19.664 0 0 0-6.248-4.213A19.796 19.796 0 0 0 48.593 21c-.484 0-.964.023-1.44.057a18.255 18.255 0 0 0-6.256 1.431A19.665 19.665 0 0 0 30.524 32.77a6.725 6.725 0 0 0-3.01-.713 6.77 6.77 0 0 0-6.77 6.77c0 1.055.249 2.05.678 2.94a11.834 11.834 0 0 0-8.204 6.366A11.764 11.764 0 0 0 12 53.346c0 6.267 4.878 11.38 11.044 11.785l5.85.04H47.152l7.294-.002h11.798c3.79 0 7.242-1.543 9.725-4.031A13.722 13.722 0 0 0 80 51.409c0-1.129-.152-2.222-.41-3.276a13.874 13.874 0 0 0-3.619-6.395z" class="color-100"/><path fill="#005CB9" d="M75.971 41.738a13.725 13.725 0 0 0-7.884-3.902 19.553 19.553 0 0 0-1.34-4.83 19.664 19.664 0 0 0-4.213-6.248 19.664 19.664 0 0 0-6.248-4.213A19.796 19.796 0 0 0 48.593 21c-.484 0-.964.023-1.44.057a18.255 18.255 0 0 0-6.256 1.431A19.665 19.665 0 0 0 30.524 32.77a6.725 6.725 0 0 0-3.01-.713 6.77 6.77 0 0 0-6.77 6.77c0 1.055.249 2.05.678 2.94a11.834 11.834 0 0 0-8.204 6.366A11.764 11.764 0 0 0 12 53.346c0 6.267 4.834 11.38 11 11.785L66 65c3.79 0 7.486-1.374 9.97-3.862A13.722 13.722 0 0 0 80 51.409c0-1.129-.152-2.222-.41-3.276a13.874 13.874 0 0 0-3.619-6.395zm-57.227-2.911a8.77 8.77 0 0 1 10.766-8.539 21.665 21.665 0 0 1 10.61-9.642 20.164 20.164 0 0 1 6.89-1.584c.568-.04 1.082-.062 1.583-.062 2.94 0 5.83.586 8.472 1.703a21.662 21.662 0 0 1 6.883 4.64 21.664 21.664 0 0 1 4.641 6.884c.529 1.25.938 2.554 1.223 3.893a15.725 15.725 0 0 1 7.574 4.205c1.996 1.993 3.431 4.523 4.148 7.333.307 1.256.467 2.503.466 3.75 0 4.231-1.685 8.217-4.615 11.142C74.46 65.483 70.23 67 66 67l-43 .002c-7.364-.48-13-6.364-13-13.656 0-2.135.493-4.205 1.424-6.097a13.858 13.858 0 0 1 7.47-6.82 8.672 8.672 0 0 1-.15-1.602z" class="color-500"/><g class="animate-grow"><path fill="#005CB9" d="M43 43.83c-.004-.317.245-.659.544-.759l14.903-4.995c.304-.102.802-.1 1.102 0L74.45 43.07a.85.85 0 0 1 .545.763s.006 7.526-1.594 16.087c-1.6 8.56-10.752 13.242-14.404 17.054-3.359-3.812-12.804-8.21-14.404-17.054C42.994 51.076 43 43.83 43 43.83z" class="color-500"/><path fill="#40A0FF" d="M64.272 69.945c4.142-3.525 6.465-6.653 7.164-10.392.682-3.649 1.122-7.38 1.365-10.986a91.491 91.491 0 0 0 .182-3.879l-13.985-4.687-13.984 4.687c.002.121.006.248.01.382a101.678 101.678 0 0 0 1.538 14.495c.68 3.754 2.942 6.815 6.998 10.226.565.475 1.153.95 1.904 1.541.13.103 1.474 1.155 1.85 1.455a43.977 43.977 0 0 1 1.743 1.444c2.061-1.766 5.258-4.323 5.215-4.286z" class="color-300"/><path fill="#005CB9" d="M47.213 46.79a.802.802 0 0 1 .515-.727l10.75-3.723a1.83 1.83 0 0 1 1.044 0l10.75 3.723c.288.1.52.425.516.72 0 0 .006 5.63-1.173 12.147-1.18 6.517-7.923 10.08-10.615 12.983-2.475-2.902-9.435-6.25-10.615-12.983-1.179-6.733-1.172-12.14-1.172-12.14z" class="color-500"/><path fill="#A6D2FF" d="M62.586 66.292c2.994-2.631 4.66-4.948 5.157-7.7.5-2.762.822-5.568 1-8.269a70.024 70.024 0 0 0 .13-2.733L59 44.172l-9.872 3.418.004.126c.022.746.062 1.594.125 2.53.178 2.668.5 5.496 1.002 8.356.484 2.763 2.104 5.027 5.032 7.571.413.36.843.717 1.393 1.165.095.078 1.086.88 1.365 1.109.376.308.705.585.997.842a183.902 183.902 0 0 1 3.54-2.997z" class="color-200"/><path fill="#005CB9" d="M51.263 49.87a1 1 0 0 1 2 0c0 4.24.655 7.658 1.945 10.258a1 1 0 1 1-1.792.889c-1.441-2.905-2.153-6.622-2.153-11.147zM56 64a1 1 0 1 1 0-2 1 1 0 0 1 0 2z" class="color-500"/></g></g></svg>