<svg xmlns="http://www.w3.org/2000/svg" width="92" height="92" class="wd-applet wd-applet-cloudloader" focusable="false" role="presentation" viewBox="0 0 92 92"><g fill="none" fill-rule="evenodd" class="wd-icon-container"><g fill="#0B77E3" fill-opacity=".2" class="animate-flood"><path d="M10 46c0-19.882 16.113-36 36-36 19.882 0 36 16.113 36 36 0 19.882-16.113 36-36 36-19.882 0-36-16.113-36-36z" class="color-400-alpha-20"/></g><path fill="#FFF" d="M75.971 42.738a13.725 13.725 0 0 0-7.884-3.902 19.553 19.553 0 0 0-1.34-4.83 19.664 19.664 0 0 0-4.213-6.248 19.664 19.664 0 0 0-6.248-4.213A19.796 19.796 0 0 0 48.593 22c-.484 0-.964.023-1.44.057a18.255 18.255 0 0 0-6.256 1.431A19.665 19.665 0 0 0 30.524 33.77a6.725 6.725 0 0 0-3.01-.713 6.77 6.77 0 0 0-6.77 6.77c0 1.055.249 2.05.678 2.94a11.834 11.834 0 0 0-8.204 6.366A11.764 11.764 0 0 0 12 54.346c0 6.267 4.878 11.38 11.044 11.785l5.85.04H47.152l7.294-.002h11.798c3.79 0 7.242-1.543 9.725-4.031A13.722 13.722 0 0 0 80 52.409c0-1.129-.152-2.222-.41-3.276a13.874 13.874 0 0 0-3.619-6.395z" class="color-100"/><path fill="#005CB9" fill-rule="nonzero" d="M75.971 42.738a13.725 13.725 0 0 0-7.884-3.902 19.553 19.553 0 0 0-1.34-4.83 19.664 19.664 0 0 0-4.213-6.248 19.664 19.664 0 0 0-6.248-4.213A19.796 19.796 0 0 0 48.593 22c-.484 0-.964.023-1.44.057a18.255 18.255 0 0 0-6.256 1.431A19.665 19.665 0 0 0 30.524 33.77a6.725 6.725 0 0 0-3.01-.713 6.77 6.77 0 0 0-6.77 6.77c0 1.055.249 2.05.678 2.94a11.834 11.834 0 0 0-8.204 6.366A11.764 11.764 0 0 0 12 54.346c0 6.267 4.878 11.38 11.044 11.785l5.85.04h18.258l7.294-.002h11.798c3.79 0 7.242-1.543 9.725-4.031A13.722 13.722 0 0 0 80 52.409c0-1.129-.152-2.222-.41-3.276a13.874 13.874 0 0 0-3.619-6.395zm-57.227-2.911a8.77 8.77 0 0 1 10.766-8.539 21.665 21.665 0 0 1 10.61-9.642 20.164 20.164 0 0 1 6.89-1.584c.568-.04 1.082-.062 1.583-.062 2.94 0 5.83.586 8.472 1.703a21.662 21.662 0 0 1 6.883 4.64 21.664 21.664 0 0 1 4.641 6.884c.529 1.25.938 2.554 1.223 3.893a15.725 15.725 0 0 1 7.574 4.205c1.996 1.993 3.431 4.523 4.148 7.333.307 1.256.467 2.503.466 3.75 0 4.231-1.685 8.217-4.615 11.142a15.716 15.716 0 0 1-11.141 4.62H28.881l-5.85-.04C15.665 67.652 10 61.639 10 54.347c0-2.135.493-4.205 1.424-6.097a13.858 13.858 0 0 1 7.47-6.82 8.672 8.672 0 0 1-.15-1.602z" class="color-500"/><g fill="#40A0FF" class="animate-right"><path d="M27 53.5c0-1.933 1.564-3.5 3.502-3.5h17.996A3.504 3.504 0 0 1 52 53.5c0 1.933-1.564 3.5-3.502 3.5H30.502A3.504 3.504 0 0 1 27 53.5z" class="color-300"/></g><path fill="#005CB9" fill-rule="nonzero" d="M27 53.5c0 1.93 1.57 3.5 3.507 3.5h30.986A3.497 3.497 0 0 0 65 53.5c0-1.93-1.57-3.5-3.507-3.5H30.507A3.497 3.497 0 0 0 27 53.5zm-2 0c0-3.04 2.46-5.5 5.507-5.5h30.986A5.506 5.506 0 0 1 67 53.5c0 3.04-2.46 5.5-5.507 5.5H30.507A5.506 5.506 0 0 1 25 53.5z" class="color-500"/></g></svg>