<svg xmlns="http://www.w3.org/2000/svg" width="92" height="92" class="wd-applet wd-applet-column-graph" focusable="false" role="presentation" viewBox="0 0 92 92"><g fill="none" fill-rule="evenodd" class="wd-icon-container"><g fill="#0B77E3" fill-opacity=".2" class="animate-flood"><circle cx="36" cy="36" r="36" class="color-400-alpha-20" transform="translate(10 10)"/></g><rect width="64" height="50" x="14" y="19" fill="#FFF" class="color-100" rx="1"/><rect width="36" height="4" x="28" y="16" fill="#40A0FF" class="color-300" rx="1"/><path fill="#40A0FF" d="M63.31 70.05l2.347 8.755a.999.999 0 0 0 1.225.71.998.998 0 0 0 .707-1.224l-2.199-8.207-2.08-.034zM28.326 70l-2.358 8.8c-.144.538-.69.858-1.226.714a1.001 1.001 0 0 1-.706-1.229l2.213-8.258L28.325 70z" class="color-300"/><path fill="#000" d="M28.325 70l-.804 3H25.45l.798-2.973L28.325 70zm34.986.05l2.08.034.78 2.916h-2.07l-.79-2.95z" class="color-shadow" opacity=".1"/><path fill="#005CB9" d="M63 14a3 3 0 0 1 3 3h10.995A3.002 3.002 0 0 1 80 19.999V68A2.997 2.997 0 0 1 76.995 71h-9.326l1.816 6.778a3.002 3.002 0 0 1-2.12 3.682 3.001 3.001 0 0 1-3.675-2.129L61.457 71H30.13l-2.231 8.327a3.001 3.001 0 0 1-3.676 2.128 3.002 3.002 0 0 1-2.12-3.681L23.918 71h-8.913A3.002 3.002 0 0 1 12 68.001V20A2.997 2.997 0 0 1 15.005 17H26l.005-.167A3.01 3.01 0 0 1 29 14h34zm2.6 57.004l-2.07.003 2.092 7.806c.144.538.689.859 1.226.715.534-.143.85-.693.705-1.232L65.6 71.004zm-37.542.001l-2.073.008-1.95 7.278c-.145.54.172 1.09.705 1.232a1.001 1.001 0 0 0 1.227-.714l2.09-7.804zM26 19.001L15.005 19a.997.997 0 0 0-1.005.999V68c0 .551.45.999 1.005.999h61.99A.997.997 0 0 0 78 68.001V20c0-.551-.45-.999-1.005-.999H66l-.005.167A3.01 3.01 0 0 1 63 22H29a3 3 0 0 1-3-3zM63 16H29c-.545 0-1 .452-1 1.01v1.98A1 1 0 0 0 29 20h34c.545 0 1-.452 1-1.01v-1.98A1 1 0 0 0 63 16z" class="color-500"/><g class="animate-grow"><path fill="#40A0FF" d="M42 43.995a1 1 0 0 1 .997-.995h6.006a1 1 0 0 1 .997.995v17.01a1 1 0 0 1-.997.995h-6.006a1 1 0 0 1-.997-.995v-17.01zm20 4.012c0-.556.453-1.007.997-1.007h6.006A1 1 0 0 1 70 48.007v12.986c0 .556-.453 1.007-.997 1.007h-6.006A1 1 0 0 1 62 60.993V48.007zm-40-1.006c0-.553.453-1.001.997-1.001h6.006c.55 0 .997.445.997 1v14c0 .552-.453 1-.997 1h-6.006A.997.997 0 0 1 22 61V47z" class="color-300"/><path fill="#FFF" d="M32 49.999c0-.552.453-.999.997-.999h6.006c.55 0 .997.447.997.999V61c0 .552-.453.999-.997.999h-6.006a.998.998 0 0 1-.997-.999V50zm20-12.004a1 1 0 0 1 .997-.995h6.006c.55 0 .997.455.997.995v23.01a1 1 0 0 1-.997.995h-6.006c-.55 0-.997-.455-.997-.995v-23.01z" class="color-100"/><path fill="#0B77E3" fill-rule="nonzero" d="M66.486 36.857a1 1 0 0 0 1.028-1.714l-10-6a1 1 0 0 0-.944-.046l-20.621 9.82a607.81 607.81 0 0 1-1.683-.617 619.32 619.32 0 0 1-4.568-1.701l-.388-.147c-3.031-1.147-5.142-1.986-5.863-2.346a1 1 0 0 0-.894 1.788c.81.405 2.932 1.25 6.05 2.429l.389.147a621.253 621.253 0 0 0 6.666 2.47 1 1 0 0 0 .772-.037l20.516-9.77 9.54 5.724z" class="color-400"/><path fill="#005CB9" fill-rule="nonzero" d="M49.003 43a1 1 0 0 1 .997.995v17.01a1 1 0 0 1-.997.995h-6.006a1 1 0 0 1-.997-.995v-17.01a1 1 0 0 1 .997-.995h6.006zm20 4A1 1 0 0 1 70 48.007v12.986c0 .556-.453 1.007-.997 1.007h-6.006A1 1 0 0 1 62 60.993V48.007c0-.556.453-1.007.997-1.007h6.006zm-40-1c.55 0 .997.445.997 1v14c0 .552-.453 1-.997 1h-6.006A.997.997 0 0 1 22 61V47c0-.552.453-1 .997-1h6.006zm10 3c.55 0 .997.447.997.999V61c0 .552-.453.999-.997.999h-6.006a.998.998 0 0 1-.997-.999V50c0-.552.453-.999.997-.999h6.006zm20-12c.55 0 .997.455.997.995v23.01a1 1 0 0 1-.997.995h-6.006c-.55 0-.997-.455-.997-.995v-23.01a1 1 0 0 1 .997-.995h6.006zM48 45h-4v15h4V45zm20 4h-4v11h4V49zm-40-1h-4v12h4V48zm10 3h-4v9h4v-9zm20-12h-4v21h4V39z" class="color-500"/></g></g></svg>