<svg xmlns="http://www.w3.org/2000/svg" width="92" height="92" fill="none" class="wd-applet-column-graph-budget wd-applet" focusable="false" role="presentation" viewBox="0 0 92 92"><g class="wd-icon-container"><g class="animate-flood"><path fill="#0B77E3" d="M46 82c19.882 0 36-16.118 36-36S65.882 10 46 10 10 26.118 10 46s16.118 36 36 36z" class="color-400-alpha-20" opacity=".2"/></g><path fill="#fff" d="M77 19H15a1 1 0 0 0-1 1v48a1 1 0 0 0 1 1h62a1 1 0 0 0 1-1V20a1 1 0 0 0-1-1z" class="color-100"/><path fill="#40A0FF" fill-rule="evenodd" d="M63.31 70.05l2.08.034 2.2 8.207a.998.998 0 0 1-1.098 1.249 1 1 0 0 1-.835-.735L63.31 70.05zM28.326 70l-2.358 8.8a1.002 1.002 0 1 1-1.932-.515l2.213-8.258L28.325 70h.001zM28 17.01c0-.558.455-1.01 1-1.01h34a1 1 0 0 1 1 1.01v1.98A1.01 1.01 0 0 1 63 20H29a1 1 0 0 1-1-1.01v-1.98zm14 43.983V48.007A1 1 0 0 1 42.997 47h6.006c.544 0 .997.451.997 1.007v12.986A1 1 0 0 1 49.003 62h-6.006c-.544 0-.997-.451-.997-1.007zm20 .009V33.998c0-.542.446-.998.997-.998h6.006c.544 0 .997.447.997.998v27.004c0 .542-.446.998-.997.998h-6.006c-.544 0-.997-.447-.997-.998zm-40 .007v-4.018c0-.54.446-.991.997-.991h6.006c.544 0 .997.444.997.99v4.02c0 .539-.446.99-.997.99h-6.006a.998.998 0 0 1-.997-.99v-.001z" class="color-400" clip-rule="evenodd"/><path fill="#005CB9" fill-rule="evenodd" d="M26 17a3.01 3.01 0 0 1 3-3h34a3 3 0 0 1 3 3h10.995A3.002 3.002 0 0 1 80 19.999V68a2.998 2.998 0 0 1-3.005 3h-9.326l1.816 6.778a3.001 3.001 0 0 1-4.399 3.38 3.001 3.001 0 0 1-1.396-1.827L61.457 71H30.13l-2.231 8.327a3.002 3.002 0 0 1-5.499.727 3.002 3.002 0 0 1-.297-2.28L23.918 71h-8.913A3.002 3.002 0 0 1 12 68.001V20a2.998 2.998 0 0 1 3.005-3H26zm0 2H15.005a.996.996 0 0 0-1.005.999V68c0 .551.45.999 1.005.999h56.113c.55-.002.882 0 .882 0h4.995A.996.996 0 0 0 78 68.001V20c0-.551-.45-.999-1.005-.999H66a3.01 3.01 0 0 1-3 3H29a3 3 0 0 1-3-3V19zm37.53 52.007l2.092 7.806a1 1 0 0 0 1.226.715c.534-.143.85-.693.705-1.232L65.6 71.004l-2.07.003zm-37.545.006l-1.95 7.278a1.002 1.002 0 0 0 1.467 1.13 1.001 1.001 0 0 0 .465-.612l2.09-7.804-2.072.008zM28 17.01v1.982A.998.998 0 0 0 29 20h34c.545 0 1-.452 1-1.01v-1.98A1.002 1.002 0 0 0 63 16H29c-.545 0-1 .452-1 1.01zm4 43.993v-7.004c0-.552.446-.998.997-.998h6.006c.544 0 .997.447.997.998v7.004a.998.998 0 0 1-.997.998h-6.006c-.544 0-.997-.447-.997-.998zM34 60h4v-5h-4v5zm24 0V43h-4v17h4zm-6 1.001V42c0-.56.446-.999.997-.999h6.006c.544 0 .997.447.997.999v19c0 .56-.446.999-.997.999h-6.006c-.544 0-.997-.447-.997-.999v.001zM48 60V49h-4v11h4zm-6 .993V48.007A1 1 0 0 1 42.997 47h6.006c.544 0 .997.451.997 1.007v12.986A1 1 0 0 1 49.003 62h-6.006c-.544 0-.997-.451-.997-1.007zM64 60h4V35h-4v25zm-2 1.002V33.998c0-.542.446-.998.997-.998h6.006c.544 0 .997.447.997.998v27.004c0 .542-.446.998-.997.998h-6.006c-.544 0-.997-.447-.997-.998zM24 60h4v-2h-4v2zm-2 1.01v-4.02c0-.539.446-.99.997-.99h6.006c.544 0 .997.444.997.99v4.02c0 .539-.446.99-.997.99h-6.006a.998.998 0 0 1-.997-.99z" class="color-500" clip-rule="evenodd"/><g class="animate-grow"><path fill="#0B77E3" d="M55.13 30.6l-4.271-.61a1 1 0 0 1 .283-1.98l8.013 1.145-1.168 7.01a1 1 0 1 1-1.973-.33l.63-3.777-34.171 18.323a1 1 0 0 1-.945-1.762L55.13 30.6z" class="color-400"/></g><g class="animate-sink"><path fill="#40A0FF" fill-rule="evenodd" d="M61.428 79.237C63.492 80.357 66.246 81 69 81c5.5 0 11-2.566 11-6.364v-2.545L69 76.83l-11-4.74v2.546c0 1.896 1.371 3.485 3.428 4.601z" class="color-400" clip-rule="evenodd"/><path fill="#A6D2FF" fill-rule="evenodd" d="M69 77c6.075 0 11-3.358 11-7.5 0-4.142-4.925-7.5-11-7.5s-11 3.358-11 7.5c0 4.142 4.925 7.5 11 7.5z" class="color-200" clip-rule="evenodd"/><path fill="#fff" fill-rule="evenodd" d="M69 73.417c3.866 0 7-1.829 7-4.084s-3.134-4.083-7-4.083-7 1.828-7 4.083 3.134 4.084 7 4.084z" class="color-100" clip-rule="evenodd"/><path fill="#005CB9" fill-rule="evenodd" d="M72 80.748V78.75c-.65.11-1.319.185-2 .223v1.999c.67-.037 1.338-.112 2-.224zm2-.463c.707-.21 1.379-.464 2-.758V77.53c-.633.292-1.302.544-2 .753v2.002zm-6 .687v-2c-.67-.036-1.338-.11-2-.222v1.998c.655.11 1.325.186 2 .224zm-6-1.445c.621.294 1.293.548 2 .758v-2.002a15.237 15.237 0 0 1-2-.753v1.997zm-2-1.233v-1.9a10.733 10.733 0 0 1-2-1.776v.018c0 1.413.761 2.655 2 3.658zm18 0c1.239-1.003 2-2.245 2-3.658v-.018c-.567.654-1.24 1.25-2 1.776v1.9zM56.003 69.7a7.41 7.41 0 0 1-.003-.2c0-5.445 5.947-9.5 13-9.5s13 4.055 13 9.5c0 .067 0 .133-.003.199L82 69.7v4.936C82 79.665 75.837 83 69 83c-3.071 0-6.153-.718-8.525-2.005C57.714 79.498 56 77.287 56 74.636V69.7l.003-.001v.001zM69 77c6.075 0 11-3.358 11-7.5 0-4.142-4.925-7.5-11-7.5s-11 3.358-11 7.5c0 4.142 4.925 7.5 11 7.5zm0-1.583c-4.825 0-9-2.436-9-6.084 0-3.648 4.175-6.083 9-6.083s9 2.435 9 6.083-4.175 6.084-9 6.084zm0-2c3.866 0 7-1.829 7-4.084s-3.134-4.083-7-4.083-7 1.828-7 4.083 3.134 4.084 7 4.084z" class="color-500" clip-rule="evenodd"/></g><path fill="#40A0FF" fill-rule="evenodd" d="M58.428 72.237C60.492 73.357 63.246 74 66 74c5.5 0 11-2.566 11-6.364v-2.545L66 69.83l-11-4.74v2.546c0 1.896 1.371 3.485 3.428 4.601z" class="color-400" clip-rule="evenodd"/><path fill="#A6D2FF" fill-rule="evenodd" d="M66 70c6.075 0 11-3.358 11-7.5 0-4.142-4.925-7.5-11-7.5s-11 3.358-11 7.5c0 4.142 4.925 7.5 11 7.5z" class="color-200" clip-rule="evenodd"/><path fill="#fff" fill-rule="evenodd" d="M66 66.417c3.866 0 7-1.829 7-4.084s-3.134-4.083-7-4.083-7 1.828-7 4.083 3.134 4.084 7 4.084z" class="color-100" clip-rule="evenodd"/><path fill="#005CB9" fill-rule="evenodd" d="M69 73.748V71.75c-.65.11-1.319.185-2 .223v1.999c.67-.037 1.338-.112 2-.224zm2-.463c.707-.21 1.379-.464 2-.758V70.53c-.633.292-1.302.544-2 .753v2.002zm-6 .687v-2c-.67-.036-1.338-.11-2-.222v1.998c.655.11 1.325.186 2 .224zm-6-1.445c.621.294 1.293.548 2 .758v-2.002a15.237 15.237 0 0 1-2-.753v1.997zm-2-1.233v-1.9a10.733 10.733 0 0 1-2-1.776v.018c0 1.413.761 2.655 2 3.658zm18 0c1.239-1.003 2-2.245 2-3.658v-.018c-.567.654-1.24 1.25-2 1.776v1.9zM53.003 62.7a7.404 7.404 0 0 1-.003-.2c0-5.445 5.947-9.5 13-9.5s13 4.055 13 9.5c0 .067 0 .133-.003.199L79 62.7v4.936C79 72.665 72.837 76 66 76c-3.071 0-6.153-.718-8.525-2.005C54.714 72.498 53 70.287 53 67.636V62.7l.003-.001v.001zM66 70c6.075 0 11-3.358 11-7.5 0-4.142-4.925-7.5-11-7.5s-11 3.358-11 7.5c0 4.142 4.925 7.5 11 7.5zm0-1.583c-4.825 0-9-2.436-9-6.084 0-3.648 4.175-6.083 9-6.083s9 2.435 9 6.083-4.175 6.084-9 6.084zm0-2c3.866 0 7-1.829 7-4.084s-3.134-4.083-7-4.083-7 1.828-7 4.083 3.134 4.084 7 4.084z" class="color-500" clip-rule="evenodd"/><g class="animate-float"><path fill="#40A0FF" fill-rule="evenodd" d="M62.428 65.237C64.492 66.357 67.246 67 70 67c5.5 0 11-2.566 11-6.364v-2.545L70 62.83l-11-4.74v2.546c0 1.896 1.371 3.485 3.428 4.601z" class="color-400" clip-rule="evenodd"/><path fill="#A6D2FF" fill-rule="evenodd" d="M70 63c6.075 0 11-3.358 11-7.5 0-4.142-4.925-7.5-11-7.5s-11 3.358-11 7.5c0 4.142 4.925 7.5 11 7.5z" class="color-200" clip-rule="evenodd"/><path fill="#fff" fill-rule="evenodd" d="M70 59.417c3.866 0 7-1.829 7-4.084s-3.134-4.083-7-4.083-7 1.828-7 4.083 3.134 4.084 7 4.084z" class="color-100" clip-rule="evenodd"/><path fill="#005CB9" fill-rule="evenodd" d="M73 66.748V64.75c-.65.11-1.319.185-2 .223v1.999c.67-.037 1.338-.112 2-.224zm2-.463c.707-.21 1.379-.464 2-.758V63.53c-.633.292-1.302.544-2 .753v2.002zm-6 .687v-2c-.67-.036-1.338-.11-2-.222v1.998c.655.11 1.325.186 2 .224zm-6-1.445c.621.294 1.293.548 2 .758v-2.002a15.237 15.237 0 0 1-2-.753v1.997zm-2-1.233v-1.9a10.733 10.733 0 0 1-2-1.776v.018c0 1.413.761 2.655 2 3.658zm18 0c1.239-1.003 2-2.245 2-3.658v-.018c-.567.654-1.24 1.25-2 1.776v1.9zM57.003 55.7a7.404 7.404 0 0 1-.003-.2c0-5.445 5.947-9.5 13-9.5s13 4.055 13 9.5c0 .067 0 .133-.003.199L83 55.7v4.936C83 65.665 76.837 69 70 69c-3.071 0-6.153-.718-8.525-2.005C58.714 65.498 57 63.287 57 60.636V55.7l.003-.001v.001zM70 63c6.075 0 11-3.358 11-7.5 0-4.142-4.925-7.5-11-7.5s-11 3.358-11 7.5c0 4.142 4.925 7.5 11 7.5zm0-1.583c-4.825 0-9-2.436-9-6.084 0-3.648 4.175-6.083 9-6.083s9 2.435 9 6.083-4.175 6.084-9 6.084zm0-2c3.866 0 7-1.829 7-4.084s-3.134-4.083-7-4.083-7 1.828-7 4.083 3.134 4.084 7 4.084z" class="color-500" clip-rule="evenodd"/></g></g></svg>