<svg xmlns="http://www.w3.org/2000/svg" width="92" height="92" class="wd-applet wd-applet-company-news" focusable="false" role="presentation" viewBox="0 0 92 92"><g fill="none" fill-rule="evenodd" class="wd-icon-container"><g fill="#0B77E3" fill-opacity=".2" class="animate-flood"><path d="M46 82c-19.882 0-36-16.118-36-36s16.118-36 36-36 36 16.118 36 36-16.118 36-36 36z" class="color-400-alpha-20"/></g><g class="animate-shrink"><path fill="#FFF" d="M4.88 56.347C3.25 57.456 4.034 60 6.007 60h56.99C65.757 60 68 57.764 68 55.009V2.996A2.99 2.99 0 0 0 66.811.613a2.007 2.007 0 0 0-2.545.1l-1.612 1.433-1.843-1.64A2.006 2.006 0 0 0 59.478 0h-.393c-.492 0-.966.18-1.333.507l-1.843 1.64-1.844-1.64A2.006 2.006 0 0 0 52.732 0h-.392c-.492 0-.966.18-1.334.507l-1.843 1.64L47.32.506A2.006 2.006 0 0 0 45.987 0h-.393c-.491 0-.966.18-1.333.507l-1.843 1.64-1.843-1.64A2.006 2.006 0 0 0 39.24 0h-.392c-.492 0-.966.18-1.333.507l-1.844 1.64L33.83.506A2.006 2.006 0 0 0 32.496 0h-.393c-.491 0-.966.18-1.333.507l-1.843 1.64-1.843-1.64A2.006 2.006 0 0 0 25.75 0h-.393c-.492 0-.966.18-1.333.507l-1.843 1.64-1.844-1.64A2.006 2.006 0 0 0 19.005 0h-.392c-.492 0-.966.18-1.333.507l-1.844 1.64-1.7-1.513A2.007 2.007 0 0 0 11.43.38a2.988 2.988 0 0 0-1.545 2.613v49.95l-5.006 3.405z" class="color-100" transform="translate(12 16)"/><path fill="#0B77E3" d="M42 47.002c0-.553-.455-1.002-.995-1.002h-23.01a.995.995 0 0 0-.995.998V55c0 3.007-1 3-1 3v1h26V47.002z" class="color-400" transform="translate(12 16)"/><path fill="#005CB9" fill-rule="nonzero" d="M59.085 0c-.492 0-.966.18-1.333.507l-1.843 1.64-1.844-1.64A2.006 2.006 0 0 0 52.732 0h-.392c-.492 0-.966.18-1.334.507l-1.843 1.64L47.32.506A2.006 2.006 0 0 0 45.987 0h-.393c-.491 0-.966.18-1.333.507l-1.843 1.64-1.843-1.64A2.006 2.006 0 0 0 39.24 0h-.392c-.492 0-.966.18-1.333.507l-1.844 1.64L33.83.506A2.006 2.006 0 0 0 32.496 0h-.393c-.491 0-.966.18-1.333.507l-1.843 1.64-1.843-1.64A2.006 2.006 0 0 0 25.75 0h-.393c-.492 0-.966.18-1.333.507l-1.843 1.64-1.844-1.64A2.006 2.006 0 0 0 19.005 0h-.392c-.492 0-.966.18-1.333.507l-1.844 1.64-1.7-1.513A2.007 2.007 0 0 0 11.43.38a2.988 2.988 0 0 0-1.545 2.613v49.95l-5.006 3.405C3.25 57.456 4.035 60 6.008 60h56.99C65.757 60 68 57.764 68 55.009V2.996A2.99 2.99 0 0 0 66.811.613a2.007 2.007 0 0 0-2.545.1l-1.612 1.433-1.843-1.64A2.006 2.006 0 0 0 59.478 0h-.393zm0 2h.393l2.382 2.12a1.22 1.22 0 0 0 1.588 0l2.151-1.914c.242.182.397.47.397.79v52.013A2.998 2.998 0 0 1 63 58H6l5.889-4V2.992a.99.99 0 0 1 .514-.865l2.24 1.992a1.22 1.22 0 0 0 1.587 0L18.613 2h.392l2.383 2.12a1.22 1.22 0 0 0 1.587 0L25.358 2h.393l2.382 2.12a1.22 1.22 0 0 0 1.588 0L32.103 2h.393l2.383 2.12a1.22 1.22 0 0 0 1.587 0L38.85 2h.392l2.383 2.12a1.22 1.22 0 0 0 1.587 0L45.594 2h.393l2.383 2.12a1.22 1.22 0 0 0 1.587 0L52.34 2h.392l2.383 2.12a1.22 1.22 0 0 0 1.587 0L59.085 2z" class="color-500" transform="translate(12 16)"/><path fill="#40A0FF" d="M10 53.99A4.008 4.008 0 0 1 6 58a4 4 0 0 1-4-4.01V9l2.321 2.397a.962.962 0 0 0 1.4-.003l2.187-2.277L10 9v44.99z" class="color-300" transform="translate(12 16)"/><path fill="#000" d="M6 58c-.346 0-.68-.044-1-.126a4.012 4.012 0 0 0 3-3.881V9L10 9v44.99c0 2.148-1.688 3.9-3.8 4.005L6 58z" class="color-shadow" opacity=".1" transform="translate(12 16)"/><path fill="#005CB9" fill-rule="nonzero" d="M0 9v45.004A5.997 5.997 0 0 0 6 60c3.31 0 5.88-2.685 5.88-5.996v-42.65s-.08-1.014-.439-1.386l-2.117-2.2a2 2 0 0 0-2.882 0L5.016 9.25 3.441 7.613C2.193 6.316 0 7.2 0 9zm2 0l2.341 2.433a.927.927 0 0 0 1.35 0l2.192-2.279 2.117 2.2v42.65a4.001 4.001 0 0 1-8 0V9z" class="color-500" transform="translate(12 16)"/><rect width="15" height="15" x="46" y="26" fill="#0B77E3" class="color-400" rx="1" transform="translate(12 16)"/><path fill="#40A0FF" d="M43 26.999c0-.552-.455-.999-.995-.999h-23.01a.994.994 0 0 0-.995.999v1.002c0 .552.455.999.995.999h23.01c.55 0 .995-.443.995-.999v-1.002zm0 7c0-.552-.455-.999-.995-.999h-23.01a.994.994 0 0 0-.995.999v1.002c0 .552.455.999.995.999h23.01c.55 0 .995-.443.995-.999v-1.002zm18 13c0-.552-.449-.999-1.007-.999H47.007a1 1 0 0 0-1.007.999v1.002c0 .552.449.999 1.007.999h12.986A1 1 0 0 0 61 48.001v-1.002zm0 7c0-.552-.449-.999-1.007-.999H47.007a1 1 0 0 0-1.007.999v1.002c0 .552.449.999 1.007.999h12.986A1 1 0 0 0 61 55.001v-1.002z" class="color-300" transform="translate(12 16)"/><path fill="#005CB9" d="M54 14a1 1 0 0 0-.998-1H24.998a1 1 0 1 0 0 2h28.004A.997.997 0 0 0 54 14zm-5 5c0-.552-.455-1-.992-1H29.992A.993.993 0 0 0 29 19c0 .552.455 1 .992 1h18.016A.993.993 0 0 0 49 19z" class="color-500" transform="translate(12 16)"/></g></g></svg>