<svg xmlns="http://www.w3.org/2000/svg" width="92" height="92" class="wd-applet wd-applet-compensation" focusable="false" role="presentation" viewBox="0 0 92 92"><g fill="none" fill-rule="evenodd" class="wd-icon-container"><g fill="#0B77E3" fill-opacity=".2" class="animate-flood"><path d="M46 82c19.882 0 36-16.118 36-36S65.882 10 46 10 10 26.118 10 46s16.118 36 36 36z" class="color-400-alpha-20"/></g><g class="animate-sink"><path fill="#40A0FF" d="M19 21.008A2.999 2.999 0 0 1 22 18h48c1.657 0 3 1.343 3 3.008v19.984A2.999 2.999 0 0 1 70 44H22c-1.657 0-3-1.343-3-3.008V21.008z" class="color-300"/><path fill="#005CB9" fill-rule="nonzero" d="M21 21v20c0 .548.451 1 1 1h48c.557 0 1-.444 1-1V21c0-.548-.451-1-1-1H22c-.557 0-1 .444-1 1zm-2 0c0-1.657 1.335-3 3-3h48c1.657 0 3 1.352 3 3v20c0 1.657-1.335 3-3 3H22c-1.657 0-3-1.352-3-3V21z" class="color-500"/></g><g class="animate-sink-less"><path fill="#A6D2FF" d="M17 26.008A3.006 3.006 0 0 1 19.996 23h52.008A3 3 0 0 1 75 26.008v19.984A3.006 3.006 0 0 1 72.004 49H19.996A3 3 0 0 1 17 45.992V26.008z" class="color-200"/><path fill="#005CB9" fill-rule="nonzero" d="M19 26v20c0 .548.45 1 .996 1h52.008c.546 0 .996-.45.996-1V26c0-.548-.45-1-.996-1H19.996c-.546 0-.996.45-.996 1zm-2 0c0-1.657 1.348-3 2.996-3h52.008A3.004 3.004 0 0 1 75 26v20c0 1.657-1.348 3-2.996 3H19.996A3.004 3.004 0 0 1 17 46V26z" class="color-500"/></g><g class="animate-float"><path fill="#FFF" d="M15 31c0-1.657 1.353-3 2.99-3h56.02A3 3 0 0 1 77 31v40c0 1.657-1.353 3-2.99 3H17.99A3 3 0 0 1 15 71V31z" class="color-100"/><path fill="#0B77E3" d="M40 65.999c0-.552.438-.999.996-.999h29.008c.55 0 .996.443.996.999v1.002a.993.993 0 0 1-.996.999H40.996a.995.995 0 0 1-.996-.999v-1.002z" class="color-400"/><path fill="#40A0FF" d="M21 48.999A.997.997 0 0 1 22.009 48H56.99c.557 0 1.009.443 1.009.999v1.002a.997.997 0 0 1-1.009.999H22.01A1.001 1.001 0 0 1 21 50.001v-1.002zm0 7A1 1 0 0 1 22 55h22c.552 0 1 .443 1 .999v1.002A1 1 0 0 1 44 58H22c-.552 0-1-.443-1-.999v-1.002zm40-7c0-.552.456-.999.995-.999h8.01c.55 0 .995.443.995.999v1.002c0 .552-.456.999-.995.999h-8.01a.994.994 0 0 1-.995-.999v-1.002z" class="color-300"/><path fill="#005CB9" d="M74.01 28A3 3 0 0 1 77 31v40c0 1.657-1.353 3-2.99 3H17.99A3 3 0 0 1 15 71V31c0-1.657 1.353-3 2.99-3h56.02zm0 2H17.99c-.537 0-.99.453-.99 1v40a1 1 0 0 0 .99 1h56.02c.537 0 .99-.453.99-1V31a1 1 0 0 0-.99-1zm-19.002 9c.509 0 .928.383.985.883L56 40c0 .552-.455 1-.992 1H36.992A.993.993 0 0 1 36 40c0-.552.455-1 .992-1h18.016zM62 34c.513 0 .935.383.993.883L63 35c0 .552-.455 1-1 1H28c-.552 0-1-.444-1-1 0-.552.455-1 1-1h34z" class="color-500"/><path fill="#005CB9" fill-rule="nonzero" d="M26.949 65.156c.194-.37.335-.737.408-1.074.255-1.19-.396-2.198-1.716-2.072-1.69.163-2.622 2.37-2.404 4.081.098.766.426 1.433 1.02 1.772.094.054.196.1.304.137.715.24 1.465.059 2.3-.391a9.378 9.378 0 0 0 1.067-.685c.099-.072.232-.173.372-.281.034.284.1.516.223.753.323.615.95.91 1.683.801.573-.085.988-.223 1.874-.575l.035-.014c.774-.308 1.126-.42 1.515-.457-.073.007-.045.018.094.106l.069.044c.374.238.57.34.886.414.34.078.575.075 1.05.032.16-.015.225-.02.292-.02a1 1 0 0 0-.025-2 5.117 5.117 0 0 0-.448.028c-.265.024-.357.025-.419.011a1.737 1.737 0 0 1-.264-.153l-.075-.048c-.497-.313-.844-.454-1.352-.405-.638.062-1.114.213-2.062.59l-.035.013c-.503.2-.811.314-1.073.383l-.001-.04-.004-.173c-.013-.616-.034-.83-.197-1.161-.367-.747-1.149-.886-1.882-.528-.167.082-.872.63-1.235.912l-.198.151a7.475 7.475 0 0 1-.838.54c-.392.212-.657.276-.713.258.095.032.094.031.065-.08-.062-.238-.07-.576-.013-.921.11-.672.397-1.085.58-1.103-.202.02-.431-.336-.43-.34-.079.365-.396.94-.822 1.445-.44.523-.919.883-1.255.969a.533.533 0 0 1-.088.016.18.18 0 0 1-.161-.064c-.05-.054-.101-.146-.168-.291a1 1 0 0 0-1.816.84c.56 1.208 1.585 1.73 2.73 1.436.145-.037.29-.087.434-.149.657-.28 1.293-.802 1.855-1.469.33-.392.617-.817.838-1.238z" class="color-500"/></g><g class="animate-sink"><path fill="#40A0FF" d="M59.428 80.237C61.492 81.357 64.246 82 67 82c5.5 0 11-2.566 11-6.364v-2.545L67 77.83l-11-4.74v2.546c0 1.896 1.371 3.485 3.428 4.601z" class="color-300"/><path fill="#A6D2FF" d="M67 78c6.075 0 11-3.358 11-7.5 0-4.142-4.925-7.5-11-7.5s-11 3.358-11 7.5c0 4.142 4.925 7.5 11 7.5z" class="color-200"/><path fill="#FFF" d="M67 74.417c3.866 0 7-1.829 7-4.084s-3.134-4.083-7-4.083-7 1.828-7 4.083 3.134 4.084 7 4.084z" class="color-100"/><path fill="#000" d="M67 78c6.075 0 11-3.358 11-7.5 0-4.142-4.925-7.5-11-7.5s-11 3.358-11 7.5c0 4.142 4.925 7.5 11 7.5z" class="color-shadow" opacity=".1"/><path fill="#005CB9" d="M70 81.748V79.75c-.65.11-1.319.185-2 .223v1.999a18.068 18.068 0 0 0 2-.224zm2-.463c.707-.21 1.379-.464 2-.758V78.53c-.633.292-1.302.544-2 .753v2.002zm-6 .687v-2a17.747 17.747 0 0 1-2-.222v1.998c.655.11 1.325.186 2 .224zm-6-1.445c.621.294 1.293.548 2 .758v-2.002a15.227 15.227 0 0 1-2-.753v1.997zm-2-1.233v-1.9a10.736 10.736 0 0 1-2-1.776v.018c0 1.413.761 2.655 2 3.658zm18 0c1.239-1.003 2-2.245 2-3.658v-.018c-.567.654-1.24 1.25-2 1.776v1.9zM54.003 70.7A7.448 7.448 0 0 1 54 70.5c0-5.445 5.947-9.5 13-9.5s13 4.055 13 9.5c0 .067 0 .133-.003.199L80 70.7v4.936C80 80.665 73.837 84 67 84c-3.071 0-6.153-.718-8.525-2.005C55.714 80.498 54 78.287 54 75.636V70.7l.003-.001zM67 78c6.075 0 11-3.358 11-7.5 0-4.142-4.925-7.5-11-7.5s-11 3.358-11 7.5c0 4.142 4.925 7.5 11 7.5zm0-1.583c-4.825 0-9-2.436-9-6.084 0-3.648 4.175-6.083 9-6.083s9 2.435 9 6.083-4.175 6.084-9 6.084zm0-2c3.866 0 7-1.829 7-4.084s-3.134-4.083-7-4.083-7 1.828-7 4.083 3.134 4.084 7 4.084z" class="color-500"/></g><path fill="#40A0FF" d="M56.428 72.146c2.064 1.12 4.818 1.763 7.572 1.763 5.5 0 11-2.566 11-6.364V65l-11 4.739L53 65v2.545c0 1.896 1.371 3.485 3.428 4.601z" class="color-300"/><path fill="#A6D2FF" d="M64 70c6.075 0 11-3.358 11-7.5 0-4.142-4.925-7.5-11-7.5s-11 3.358-11 7.5c0 4.142 4.925 7.5 11 7.5z" class="color-200"/><path fill="#FFF" d="M64 66.167c3.866 0 7-1.829 7-4.084S67.866 58 64 58s-7 1.828-7 4.083 3.134 4.084 7 4.084z" class="color-100"/><path fill="#000" d="M64 70c6.075 0 11-3.358 11-7.5 0-4.142-4.925-7.5-11-7.5s-11 3.358-11 7.5c0 4.142 4.925 7.5 11 7.5z" class="color-shadow" opacity=".1"/><path fill="#005CB9" d="M67 73.748V71.75c-.65.11-1.319.185-2 .223v1.999a18.068 18.068 0 0 0 2-.224zm2-.463c.707-.21 1.379-.464 2-.758V70.53c-.633.292-1.302.544-2 .753v2.002zm-6 .687v-2a17.747 17.747 0 0 1-2-.222v1.998c.655.11 1.325.186 2 .224zm-6-1.445c.621.294 1.293.548 2 .758v-2.002a15.227 15.227 0 0 1-2-.753v1.997zm-2-1.233v-1.9a10.736 10.736 0 0 1-2-1.776v.018c0 1.413.761 2.655 2 3.658zm18 0c1.239-1.003 2-2.245 2-3.658v-.018c-.567.654-1.24 1.25-2 1.776v1.9zM51.003 62.7A7.448 7.448 0 0 1 51 62.5c0-5.445 5.947-9.5 13-9.5s13 4.055 13 9.5c0 .067 0 .133-.003.199L77 62.7v4.936C77 72.665 70.837 76 64 76c-3.071 0-6.153-.718-8.525-2.005C52.714 72.498 51 70.287 51 67.636V62.7l.003-.001zM64 70c6.075 0 11-3.358 11-7.5 0-4.142-4.925-7.5-11-7.5s-11 3.358-11 7.5c0 4.142 4.925 7.5 11 7.5zm0-1.583c-4.825 0-9-2.436-9-6.084 0-3.648 4.175-6.083 9-6.083s9 2.435 9 6.083-4.175 6.084-9 6.084zm0-2c3.866 0 7-1.829 7-4.084s-3.134-4.083-7-4.083-7 1.828-7 4.083 3.134 4.084 7 4.084z" class="color-500"/><g class="animate-float"><path fill="#40A0FF" d="M62.428 66.237C64.492 67.357 67.246 68 70 68c5.5 0 11-2.566 11-6.364v-2.545L70 63.83l-11-4.74v2.546c0 1.896 1.371 3.485 3.428 4.601z" class="color-300"/><path fill="#A6D2FF" d="M70 64c6.075 0 11-3.358 11-7.5 0-4.142-4.925-7.5-11-7.5s-11 3.358-11 7.5c0 4.142 4.925 7.5 11 7.5z" class="color-200"/><path fill="#FFF" d="M70 60.417c3.866 0 7-1.829 7-4.084s-3.134-4.083-7-4.083-7 1.828-7 4.083 3.134 4.084 7 4.084z" class="color-100"/><path fill="#005CB9" d="M73 67.748V65.75c-.65.11-1.319.185-2 .223v1.999a18.068 18.068 0 0 0 2-.224zm2-.463c.707-.21 1.379-.464 2-.758V64.53c-.633.292-1.302.544-2 .753v2.002zm-6 .687v-2a17.747 17.747 0 0 1-2-.222v1.998c.655.11 1.325.186 2 .224zm-6-1.445c.621.294 1.293.548 2 .758v-2.002a15.227 15.227 0 0 1-2-.753v1.997zm-2-1.233v-1.9a10.736 10.736 0 0 1-2-1.776v.018c0 1.413.761 2.655 2 3.658zm18 0c1.239-1.003 2-2.245 2-3.658v-.018c-.567.654-1.24 1.25-2 1.776v1.9zM57.003 56.7A7.448 7.448 0 0 1 57 56.5c0-5.445 5.947-9.5 13-9.5s13 4.055 13 9.5c0 .067 0 .133-.003.199L83 56.7v4.936C83 66.665 76.837 70 70 70c-3.071 0-6.153-.718-8.525-2.005C58.714 66.498 57 64.287 57 61.636V56.7l.003-.001zM70 64c6.075 0 11-3.358 11-7.5 0-4.142-4.925-7.5-11-7.5s-11 3.358-11 7.5c0 4.142 4.925 7.5 11 7.5zm0-1.583c-4.825 0-9-2.436-9-6.084 0-3.648 4.175-6.083 9-6.083s9 2.435 9 6.083-4.175 6.084-9 6.084zm0-2c3.866 0 7-1.829 7-4.084s-3.134-4.083-7-4.083-7 1.828-7 4.083 3.134 4.084 7 4.084z" class="color-500"/></g></g></svg>