<svg xmlns="http://www.w3.org/2000/svg" width="92" height="92" class="wd-applet wd-applet-compensation-benefits-dashboard" focusable="false" role="presentation" viewBox="0 0 92 92"><g fill="none" fill-rule="evenodd" class="wd-icon-container"><g fill="#0B77E3" fill-opacity=".2" class="animate-flood"><path d="M45 84c19.882 0 36-16.118 36-36S64.882 12 45 12 9 28.118 9 48s16.118 36 36 36z" class="color-400-alpha-20"/></g><path fill="#40A0FF" d="M8 44.55v38.448C8 83.553 8.449 84 9.003 84h73.994A1 1 0 0 0 84 82.998V44.55c0-.555-.348-1.284-.776-1.633L46.776 10.282c-.424-.345-1.124-.349-1.552 0L8.776 42.917C8.352 43.262 8 43.997 8 44.55z" class="color-300"/><path fill="#005CB9" fill-rule="nonzero" d="M48.038 8.73l36.447 32.635c.897.73 1.515 2.029 1.515 3.185v38.448A3 3 0 0 1 82.997 86H9.003A3.001 3.001 0 0 1 6 82.998V44.55c0-1.154.622-2.459 1.515-3.185L43.962 8.73c1.163-.946 2.916-.943 4.076 0zm-2.814 1.552L8.776 42.917C8.352 43.262 8 43.997 8 44.55v38.448C8 83.553 8.449 84 9.003 84h73.994A1 1 0 0 0 84 82.998V44.55c0-.555-.348-1.284-.776-1.633L46.776 10.282c-.424-.345-1.124-.349-1.552 0z" class="color-500"/><path fill="#005CB9" fill-rule="nonzero" d="M6.5 45h79v-2h-79z" class="color-500"/><g class="animate-float"><path fill="#A6D2FF" d="M85.777 36.701l-13.23 46.136a1.004 1.004 0 0 1-1.233.688L43.957 75.68a1.005 1.005 0 0 1-.68-1.241L53.57 38.547l5.905-20.593a1 1 0 0 1 1.23-.68l27.358 7.845a.998.998 0 0 1 .68 1.239L85.778 36.7z" class="color-200"/><path fill="#005CB9" fill-rule="nonzero" d="M61.256 15.352l27.357 7.844a2.998 2.998 0 0 1 2.052 3.713L74.47 83.389a3.004 3.004 0 0 1-3.707 2.058l-27.357-7.844a3.005 3.005 0 0 1-2.051-3.716l16.197-56.485a3 3 0 0 1 3.704-2.05zm-1.782 2.602L43.277 74.439c-.15.527.152 1.09.68 1.241l27.357 7.845c.52.149 1.08-.157 1.233-.688l16.196-56.48a.998.998 0 0 0-.681-1.238l-27.357-7.845a1 1 0 0 0-1.23.68z" class="color-500"/><path fill="#0B77E3" d="M70.084 64.22a.803.803 0 0 1 .547.998L67.763 75.22a.803.803 0 0 1-.886.578l-.107-.023a.803.803 0 0 1-.547-.997l2.868-10.002a.802.802 0 0 1 .993-.555zm4.05-36.8c.53.152.837.707.688 1.227l-12.817 44.7a.991.991 0 0 1-1.12.702l-.115-.026a.999.999 0 0 1-.688-1.228l12.817-44.7c.151-.525.7-.829 1.235-.675zm-3.075-1c.531.152.838.706.685 1.24l-6.736 23.49a1 1 0 0 1-1.123.715l-.115-.026a1.001 1.001 0 0 1-.684-1.24l6.735-23.49a1 1 0 0 1 1.238-.69zm-6.319-2c.531.152.839.704.687 1.232L61.006 41.07a.994.994 0 0 1-1.121.707l-.115-.026a.998.998 0 0 1-.687-1.232L63.505 25.1a.995.995 0 0 1 1.235-.68zm-7.895 25.8c.425.123.67.572.546 1l-5.627 19.626a.804.804 0 0 1-.994.558.807.807 0 0 1-.547-1l5.628-19.625a.804.804 0 0 1 .994-.558zm24.43-21.181c.532.152.84.702.686 1.237a.998.998 0 0 1-1.237.685.998.998 0 0 1-.685-1.237.998.998 0 0 1 1.237-.685zm-1 3c.532.152.84.702.686 1.237a.998.998 0 0 1-1.237.685.998.998 0 0 1-.685-1.237.998.998 0 0 1 1.237-.685zm-1 3c.532.152.84.702.686 1.237a.998.998 0 0 1-1.237.685.998.998 0 0 1-.685-1.237.998.998 0 0 1 1.237-.685zm-1 3c.532.152.84.702.686 1.237a.998.998 0 0 1-1.237.685.998.998 0 0 1-.685-1.237.998.998 0 0 1 1.237-.685z" class="color-400"/><path fill="#FFF" d="M7.421 31.874c-.003-.357.272-.739.618-.854l22.081-7.373a2.296 2.296 0 0 1 1.248 0L53.45 31.02c.344.115.622.51.617.875 0 0 .007 11.1-2.326 23.531-2.333 12.43-15.672 19.227-20.997 24.763-4.896-5.536-18.663-11.92-20.996-24.763C7.415 42.584 7.42 31.874 7.42 31.874z" class="color-100"/><path fill="#005CB9" fill-rule="nonzero" d="M32.002 21.75l22.081 7.373c1.173.391 2 1.564 1.984 2.771 0 .38-.009 1.065-.037 2.02a139.855 139.855 0 0 1-.258 5.255c-.368 5.475-1.031 11.116-2.065 16.626-1.272 6.775-5.275 12.144-12.093 17.923-.163.138-8.045 6.419-9.428 7.857a2 2 0 0 1-2.94-.061c-1.314-1.486-10.173-8.503-9.623-8.03l.033.029C12.95 67.893 9.018 62.597 7.78 55.783 6.747 50.1 6.085 44.42 5.717 39.005c-.13-1.9-.212-3.633-.258-5.167a70.58 70.58 0 0 1-.038-1.964c-.012-1.21.82-2.363 1.984-2.751l22.082-7.373c.756-.252 1.758-.253 2.515 0zm-1.882 1.897L8.04 31.02c-.346.115-.621.497-.618.854l.001.15c.01 1.338.154 11.445 2.326 23.402 2.333 12.842 16.1 19.227 20.996 24.763 5.325-5.536 18.664-12.333 20.997-24.763 2.145-11.43 2.312-21.736 2.325-23.32l.001-.141v-.07c.005-.366-.273-.76-.617-.875l-22.082-7.373a2.296 2.296 0 0 0-1.248 0z" class="color-500"/><path fill="#A6D2FF" d="M11.889 35.389s-.008 8.54 1.879 18.923c1.886 10.384 13.018 15.546 16.976 20.022 4.305-4.476 15.09-9.971 16.977-20.022C49.607 44.262 49.6 35.41 49.6 35.41c.005-.356-.274-.757-.62-.873L31.372 28.66c-.346-.116-.909-.116-1.255 0l-17.608 5.878c-.346.116-.624.497-.62.852z" class="color-200"/><path fill="#005CB9" fill-rule="nonzero" d="M32.005 26.761l17.608 5.88c1.172.39 2.004 1.569 1.987 2.767 0 .311-.007.866-.03 1.635-.038 1.262-.105 2.68-.21 4.224-.298 4.399-.835 8.947-1.673 13.414-1.048 5.584-4.333 9.99-9.906 14.713-.151.128-6.497 5.185-7.595 6.326a2 2 0 0 1-2.94-.061c-.432-.49-1.923-1.755-3.484-3.04l-.612-.5c-1.97-1.609-3.845-3.088-3.645-2.913l.028.023c-5.485-4.595-8.713-8.944-9.733-14.56a123.244 123.244 0 0 1-1.881-17.69c-.023-.745-.03-1.28-.03-1.583-.007-1.226.83-2.37 1.987-2.756l17.607-5.879c.758-.252 1.765-.252 2.522 0zm-1.888 1.898l-17.608 5.878c-.346.116-.624.497-.62.852v.174c.012 1.262.15 9.23 1.879 18.749 1.886 10.384 13.018 15.546 16.976 20.022 4.305-4.476 15.09-9.971 16.977-20.022 1.781-9.492 1.874-17.915 1.879-18.822v-.08c.005-.356-.274-.757-.62-.873L31.372 28.66c-.346-.116-.909-.116-1.255 0z" class="color-500"/><path fill="#FFF" d="M24 62a4 4 0 1 0 0-8 4 4 0 0 0 0 8zm14 0a4 4 0 1 0 0-8 4 4 0 0 0 0 8z" class="color-100"/><path fill="#005CB9" d="M38 52c2.46 0 4.574 1.48 5.5 3.598V55.5h1.498a1 1 0 0 1 1.002 1l-.007.117a.996.996 0 0 1-.991.883h-1.023A6 6 0 1 1 32 58c.001-.054.002-.108-.007-.165a4.81 4.81 0 0 0-.992-.12c-.303 0-.645.045-1.002.123L30 58a6 6 0 1 1-11.98-.5h-1.022a1 1 0 0 1-.998-1l.007-.117a.999.999 0 0 1 .995-.883H18.5v.098a6.001 6.001 0 0 1 11.113.277c.465-.1.933-.16 1.387-.16.454 0 .922.06 1.387.16A6.002 6.002 0 0 1 38 52zm0 2a4 4 0 1 0 0 8 4 4 0 0 0 0-8zm-14 0a4 4 0 1 0 0 8 4 4 0 0 0 0-8z" class="color-500"/><path fill="#FFF" d="M43.548 41.636c0-1.253-1.154-2.27-2.577-2.27-.77 0-1.071.577-1.958.577s-1.137-.576-1.907-.576c-1.423 0-2.577 1.016-2.577 2.27v.036c0 1.764 1.277 2.63 1.277 3.81 0 1.18-.259 3.35.807 3.35 1.056 0 1.082-3.061 2.4-3.141 1.37-.083 1.396 3.14 2.451 3.14 1.066 0 .807-2.168.807-3.349 0-1.18 1.277-2.046 1.277-3.785v-.062z" class="color-100"/><path fill="#005CB9" fill-rule="nonzero" d="M40.971 37.367c2.475 0 4.577 1.85 4.577 4.27v.061c0 1.145-.292 1.984-.886 3.065-.02.039-.176.319-.215.39-.06.112-.103.194-.133.262-.032.07-.04.092-.043.082v-.01.093c.001.101.005.225.013.489.005.19.01.331.011.459l.003.248c.004.802-.05 1.42-.228 2.003-.36 1.174-1.247 2.053-2.606 2.053-1.007 0-1.732-.524-2.235-1.286a4.362 4.362 0 0 1-.184-.305c-.06.11-.125.215-.197.322-.507.754-1.237 1.27-2.235 1.27-1.359 0-2.246-.88-2.606-2.054-.179-.584-.232-1.2-.228-2.003 0-.21.005-.39.014-.707.01-.308.013-.425.013-.538v-.043c-.002.02-.01 0-.039-.066a3.136 3.136 0 0 0-.079-.16l-.055-.105-.22-.401c-.592-1.083-.884-1.931-.883-3.047v-.073c0-2.418 2.101-4.27 4.576-4.27.691 0 1.172.163 1.767.48l.085.045.045.024.02.013.012-.007.092-.048.06-.03.04-.02c.594-.302 1.07-.456 1.744-.456zm0 2c-.147 0-.276.02-.396.054a.965.965 0 0 1-.33.347 6.465 6.465 0 0 0-.585.421c-.15.12-.686.571-.803.665-.355.285-.643.474-.962.605-.26.107-.528.165-.804.165a1 1 0 1 1 0-2 .22.22 0 0 0 .046-.016 1.58 1.58 0 0 0 .315-.195 1.224 1.224 0 0 0-.346-.046c-1.423 0-2.577 1.016-2.577 2.27v.036c0 1.764 1.277 2.63 1.277 3.81 0 1.18-.259 3.35.807 3.35 1.056 0 1.082-3.061 2.4-3.141 1.37-.083 1.396 3.14 2.451 3.14 1.066 0 .807-2.168.807-3.349 0-1.18 1.277-2.046 1.277-3.785v-.062c0-1.253-1.154-2.27-2.577-2.27z" class="color-500"/><path fill="#FFF" d="M23.024 48.94c-2.132-1.73-5.888-4.572-4.914-7.81.586-1.95 3.55-2.763 4.99.392 1.44-3.155 4.366-2.269 4.914-.392.948 3.246-2.782 6.08-4.914 7.81 0 .041-.076.041-.076 0z" class="color-100"/><path fill="#005CB9" fill-rule="nonzero" d="M23.104 38.371c2.467-1.825 5.921-.915 6.83 2.199.894 3.06-.618 5.638-3.672 8.343-.314.277-.639.552-1.014.86a80.786 80.786 0 0 1-.639.519c-.394.443-.974.679-1.547.679a2.084 2.084 0 0 1-1.547-.678 183.51 183.51 0 0 1-.643-.522 35.38 35.38 0 0 1-1.02-.865c-3.066-2.711-4.578-5.291-3.658-8.352.949-3.153 4.434-4.037 6.91-2.183zm-4.994 2.76c-.974 3.237 2.782 6.079 4.914 7.81 0 .04.076.04.076 0 2.132-1.731 5.862-4.565 4.914-7.81-.548-1.878-3.473-2.764-4.914.39-1.44-3.154-4.404-2.34-4.99-.39z" class="color-500"/></g><path fill="#000" d="M8 44.9l38 16.5 38-16.5V86H8z" class="color-shadow" opacity=".1"/><path fill="#40A0FF" d="M9.002 84h73.996c.549 0 1.002-.452 1.002-1.009V47L46 65.317 8 47v35.991C8 83.551 8.449 84 9.002 84z" class="color-300"/><path fill="#005CB9" d="M82.928 45.312C84.26 44.466 86 45.422 86 47v35.991c0 .525-.135 1.02-.372 1.45l-.626-.394C84.97 85.04 84.212 86 83 86H9.002A3.004 3.004 0 0 1 6 82.991V47c0-1.577 1.74-2.534 3.072-1.688l37.05 18.277zM8 47v35.991C8 83.551 8.449 84 9.002 84H83L8 47zm76 0L48.259 64.643 84 82.275V47z" class="color-500"/></g></svg>