<svg xmlns="http://www.w3.org/2000/svg" width="92" height="92" class="wd-applet wd-applet-company-directory" focusable="false" role="presentation" viewBox="0 0 92 92"><g fill="none" fill-rule="evenodd" class="wd-icon-container"><g fill="#0B77E3" fill-opacity=".2" class="animate-flood"><path d="M46 82c19.882 0 36-16.118 36-36S65.882 10 46 10 10 26.118 10 46s16.118 36 36 36z" class="color-400-alpha-20"/></g><g class="animate-shrink"><path fill="#FFF" d="M19 14.5c0-.276.214-.5.507-.5h46.986c.28 0 .507.232.507.5v.5H19v-.5zm-2 5.501A2.997 2.997 0 0 1 20.001 17h48.007c.548 0 .992.443.992 1.005v61.99c0 .555-.45 1.005-.992 1.005H20A2.997 2.997 0 0 1 17 77.999V20.001z" class="color-100"/><path fill="#A6D2FF" d="M22 11.5c0-.276.231-.5.498-.5h42.004c.275 0 .498.232.498.5v.5H22v-.5zM27 58a9 9 0 0 1 9-9 9 9 0 0 1 9 9 9 9 0 0 1-9 9 9 9 0 0 1-9-9zm20 0a9 9 0 0 1 9-9 9 9 0 0 1 9 9 9 9 0 0 1-9 9 9 9 0 0 1-9-9zM37 39a9 9 0 0 1 9-9 9 9 0 0 1 9 9 9 9 0 0 1-9 9 9 9 0 0 1-9-9z" class="color-200"/><path fill="#40A0FF" d="M31 62h10v3H31v-3zm20 0h10v3H51v-3zM41 43h10v3H41v-3z" class="color-300"/><path fill="#FFF" d="M34 55.998c0-1.104.888-1.998 2-1.998 1.105 0 2 .898 2 1.998v2.004A1.994 1.994 0 0 1 36 60c-1.105 0-2-.898-2-1.998v-2.004zm20 0c0-1.104.888-1.998 2-1.998 1.105 0 2 .898 2 1.998v2.004A1.994 1.994 0 0 1 56 60c-1.105 0-2-.898-2-1.998v-2.004zm-10-19c0-1.104.888-1.998 2-1.998 1.105 0 2 .898 2 1.998v2.004A1.994 1.994 0 0 1 46 41c-1.105 0-2-.898-2-1.998v-2.004z" class="color-100"/><path fill="#40A0FF" d="M17 19.003c0-1.106.888-2.003 2-2.003h2v64h-2c-1.105 0-2-.905-2-2.003V19.003zM71 27h2.99c.558 0 1.01.456 1.01 1.002v9.996A1 1 0 0 1 73.99 39H71V27zm0 16h2.99c.558 0 1.01.456 1.01 1.002v9.996A1 1 0 0 1 73.99 55H71V43zm0 16h2.99c.558 0 1.01.456 1.01 1.002v9.996A1 1 0 0 1 73.99 71H71V59z" class="color-300"/><path fill="#005CB9" d="M29.98 64h12.04c0-2.084-1.695-3.661-3.784-3.661h-4.472c-2.09 0-3.785 1.57-3.785 3.661zm1.988 0s.812-1.661 1.796-1.661h4.472C39.222 62.339 40 64 40 64h-8.032zm20.011 0h8.042s-.8-1.661-1.785-1.661h-4.472c-.984 0-1.785 1.661-1.785 1.661zm-2 0h12.042c0-2.084-1.696-3.661-3.785-3.661h-4.472c-2.09 0-3.785 1.57-3.785 3.661zm-8-19h8.042s-.8-1.661-1.785-1.661h-4.472c-.984 0-1.785 1.661-1.785 1.661zm-2 0h12.042c0-2.084-1.696-3.661-3.785-3.661h-4.472c-2.09 0-3.785 1.57-3.785 3.661z" class="color-500"/><path fill="#005CB9" fill-rule="nonzero" d="M27 58c0-4.968 4.035-9 9-9 4.968 0 9 4.035 9 9 0 4.968-4.035 9-9 9-4.968 0-9-4.035-9-9zm2 0c0 3.858 3.134 7 7 7 3.858 0 7-3.134 7-7 0-3.858-3.134-7-7-7-3.858 0-7 3.134-7 7zm20 0c0 3.858 3.134 7 7 7 3.858 0 7-3.134 7-7 0-3.858-3.134-7-7-7-3.858 0-7 3.134-7 7zm-2 0c0-4.968 4.035-9 9-9 4.968 0 9 4.035 9 9 0 4.968-4.035 9-9 9-4.968 0-9-4.035-9-9zm7-2.002v2.004c0 1.1.895 1.998 2 1.998 1.112 0 2-.894 2-1.998v-2.004c0-1.1-.895-1.998-2-1.998-1.112 0-2 .894-2 1.998zm-2 0A3.994 3.994 0 0 1 56 52c2.208 0 4 1.793 4 3.998v2.004A3.994 3.994 0 0 1 56 62c-2.208 0-4-1.793-4-3.998v-2.004zM39 39c0 3.858 3.134 7 7 7 3.858 0 7-3.134 7-7 0-3.858-3.134-7-7-7-3.858 0-7 3.134-7 7zm-2 0c0-4.968 4.035-9 9-9 4.968 0 9 4.035 9 9 0 4.968-4.035 9-9 9-4.968 0-9-4.035-9-9zm7-2.002v2.004c0 1.1.895 1.998 2 1.998 1.112 0 2-.894 2-1.998v-2.004c0-1.1-.895-1.998-2-1.998-1.112 0-2 .894-2 1.998zm-2 0A3.994 3.994 0 0 1 46 33c2.208 0 4 1.793 4 3.998v2.004A3.994 3.994 0 0 1 46 43c-2.208 0-4-1.793-4-3.998v-2.004zM71 28v10h2.99a.997.997 0 0 0 1.01-.995v-8.01c0-.54-.452-.995-1.01-.995H71zm-2-2h4.99A3.009 3.009 0 0 1 77 28.995v8.01A2.997 2.997 0 0 1 73.99 40H69V26zm2 18v10h2.99a.997.997 0 0 0 1.01-.995v-8.01c0-.54-.452-.995-1.01-.995H71zm-2-2h4.99A3.009 3.009 0 0 1 77 44.995v8.01A2.997 2.997 0 0 1 73.99 56H69V42zm2 18v10h2.99a.997.997 0 0 0 1.01-.995v-8.01c0-.54-.452-.995-1.01-.995H71zm-2-2h4.99A3.009 3.009 0 0 1 77 60.995v8.01A2.997 2.997 0 0 1 73.99 72H69V58zM17 17.5v6.881L15 26v-8.5c0-4.69 3.808-8.5 8.5-8.5H36l-2.47 2H23.5a6.505 6.505 0 0 0-6.5 6.5zm5-5.495v1.99h43v-1.99A.998.998 0 0 0 64 11H23c-.546 0-1 .45-1 1.005zm-2 0A3.006 3.006 0 0 1 23 9h41c1.66 0 3 1.341 3 3.005v1.99H20v-1.99zm-1 3v1.99h48v-1.99A1 1 0 0 0 65.997 14H20.003c-.558 0-1.003.45-1.003 1.005zm-2 0A3.001 3.001 0 0 1 20.003 12h45.994A3 3 0 0 1 69 15.005v1.99H17.532L17 15.005zM21 17v64h2V17h-2zm-4 3.001v57.998A2.997 2.997 0 0 0 20.001 81h48.007c.542 0 .992-.45.992-1.005v-61.99A.994.994 0 0 0 68.008 17H20A2.997 2.997 0 0 0 17 20.001zm-2 0A4.997 4.997 0 0 1 20.001 15h48.007A2.994 2.994 0 0 1 71 18.005v61.99A3.002 3.002 0 0 1 68.008 83H20A4.997 4.997 0 0 1 15 77.999V20.001zm17 35.997A3.994 3.994 0 0 1 36 52c2.208 0 4 1.793 4 3.998v2.004A3.994 3.994 0 0 1 36 62c-2.208 0-4-1.793-4-3.998v-2.004zm2 0v2.004c0 1.1.895 1.998 2 1.998 1.112 0 2-.894 2-1.998v-2.004c0-1.1-.895-1.998-2-1.998-1.112 0-2 .894-2 1.998z" class="color-500"/></g></g></svg>