<svg xmlns="http://www.w3.org/2000/svg" width="92" height="92" class="wd-applet wd-applet-connect-dashboard" focusable="false" role="presentation" viewBox="0 0 92 92"><g fill="none" fill-rule="evenodd" class="wd-icon-container"><g fill="#0B77E3" fill-opacity=".2" class="animate-flood"><circle cx="36" cy="36" r="36" class="color-400-alpha-20" transform="translate(10 10)"/></g><g class="animate-shrink"><path fill="#FFF" d="M40 51.466h7.963c.04-.003.075 0 .111 0 .717 0 1.297-.55 1.297-1.227 0-.158-.032-.308-.09-.447a3.518 3.518 0 0 1-.288-1.374c0-1.888 1.617-3.418 3.612-3.418s3.612 1.53 3.612 3.418a3.245 3.245 0 0 1-.316 1.394c-.018.04-.036.078-.056.116-.011.11-.026.209-.026.31 0 .678.58 1.228 1.297 1.228h8.18v21.798c0 1.83-1.582 3.325-3.515 3.325H40.024L40 51.466z" class="color-100"/><path fill="#005CB9" fill-rule="nonzero" d="M40.026 77l-.002-.999c-.017-12.872-.026-21.09-.024-24.656v-1h8.98c.17 0 .282-.106.282-.204a.409.409 0 0 0-.04-.128c-.22-.674-.334-1.216-.334-1.66 0-2.418 2.06-4.353 4.57-4.353 2.51 0 4.57 1.935 4.57 4.354 0 .574-.119 1.134-.376 1.723-.017.163.098.268.324.268H67v22.392C67 75.098 64.976 77 62.527 77H40.026zm22.5-2C63.899 75 65 73.965 65 72.737V52.345h-7.024c-1.29 0-2.341-.956-2.341-2.204 0-.185.025-.366.098-.63a2.79 2.79 0 0 1 .114-.294c.12-.275.18-.565.18-.863 0-1.286-1.136-2.354-2.57-2.354-1.432 0-2.569 1.068-2.569 2.354 0 .19.076.547.209.964.108.26.165.538.165.823 0 1.232-1.035 2.204-2.282 2.204H42c0 3.869.008 11.42.023 22.655h20.504z" class="color-500"/><path fill="#40A0FF" d="M25.039 54.221c0 1.995 1.502 3.612 3.354 3.612s3.354-1.617 3.354-3.612c0-.511-.1-.997-.278-1.438l.01-.014a1.379 1.379 0 0 1-.084-.472c0-.716.54-1.297 1.205-1.297.033 0 .066.002.099.005l.004-.005 7.952.004v7.963l.005.004c-.003.036-.005.071-.005.107 0 .717.539 1.297 1.204 1.297.155 0 .302-.032.438-.09l.013.01c.41-.191.861-.298 1.336-.298 1.852 0 3.354 1.617 3.354 3.612s-1.502 3.612-3.354 3.612a3.134 3.134 0 0 1-1.369-.316c-.038-.018-.076-.036-.113-.056l-.015.014a1.122 1.122 0 0 0-.29-.04c-.665 0-1.204.58-1.204 1.297 0 .02.002.039.003.058l-.003.003v8.118H19.263C17.468 76.3 16 74.718 16 72.785V51.028L24.148 51l.002.003.054-.003c.665 0 1.204.58 1.204 1.297a1.39 1.39 0 0 1-.122.567 3.84 3.84 0 0 0-.247 1.357z" class="color-300"/><path fill="#FFF" d="M37.817 34.932a3.754 3.754 0 0 1 1.456.293 1.343 1.343 0 0 0 .445.076c.708 0 1.282-.54 1.282-1.204l-.003-.054.003-.003-.028-8.147H19.473c-1.91 0-3.473 1.468-3.473 3.263v21.392h8.023l.002.003.057-.003c.708 0 1.282.539 1.282 1.204 0 .1-.014.197-.039.29l.013.015c-.02.037-.037.075-.055.113a3.166 3.166 0 0 0-.312 1.369c0 1.852 1.598 3.354 3.57 3.354 1.97 0 3.568-1.502 3.568-3.354 0-.475-.105-.927-.295-1.336l.01-.013a1.136 1.136 0 0 1-.088-.438c0-.665.573-1.204 1.281-1.204.036 0 .071.002.106.005l.004-.005h7.87L41 42.596l-.005-.004c.003-.033.005-.066.005-.1 0-.665-.574-1.204-1.282-1.204-.164 0-.321.03-.466.084l-.013-.01a3.754 3.754 0 0 1-1.422.277c-1.971 0-3.57-1.501-3.57-3.353 0-1.853 1.599-3.354 3.57-3.354" class="color-100"/><path fill="#005CB9" fill-rule="nonzero" d="M26.039 54.183c0 1.433 1.068 2.57 2.354 2.57 1.285 0 2.354-1.137 2.354-2.57 0-.364-.07-.717-.204-1.043l-.047-.15a3.141 3.141 0 0 1-.1-.708c0-1.247.972-2.282 2.204-2.282l8.055.004h1v8.979c0 .169.106.281.204.281a.409.409 0 0 0 .128-.039c.674-.22 1.216-.334 1.66-.334C46.064 58.89 48 60.95 48 63.46s-1.935 4.569-4.354 4.569a4.217 4.217 0 0 1-1.723-.376c-.163-.017-.268.099-.268.325V77H19.263C16.902 77 15 74.976 15 72.527V50.032l.997-.004 8.187-.027c.192.007.323.017.441.04 1.04.21 1.783 1.153 1.783 2.24a2.354 2.354 0 0 1-.188.918c-.119.311-.181.643-.181.984zm6.388-1.718c.21.542.32 1.123.32 1.718 0 2.51-1.935 4.57-4.354 4.57-2.42 0-4.354-2.06-4.354-4.57 0-.586.107-1.16.338-1.76a.486.486 0 0 0 .031-.141c0-.15-.087-.261-.176-.28.014.003-2.397.01-7.232.023v20.502C17 73.898 18.035 75 19.263 75h20.392v-7.022c0-1.291.956-2.342 2.204-2.342.185 0 .366.025.63.099.194.07.277.102.294.114.275.118.565.18.863.18 1.286 0 2.354-1.137 2.354-2.57 0-1.432-1.068-2.568-2.354-2.568-.19 0-.547.075-.964.208-.26.108-.538.165-.823.165-1.232 0-2.204-1.035-2.204-2.281v-6.98L32.6 52c-.099 0-.205.113-.205.282 0 .014.01.08.032.183z" class="color-500"/><path fill="#005CB9" fill-rule="nonzero" d="M37.835 36.104c-1.43 0-2.572 1.092-2.572 2.417 0 1.325 1.142 2.418 2.572 2.418a2.7 2.7 0 0 0 1.04-.206l.15-.05c.28-.066.51-.102.713-.102 1.252 0 2.283.987 2.283 2.227l-.004 8.209v1h-8.985c-.166 0-.283.111-.283.227 0 .021.004.043.041.141.22.684.333 1.232.333 1.68 0 2.45-2.057 4.417-4.572 4.417-2.516 0-4.572-1.968-4.572-4.417 0-.58.117-1.147.373-1.74.02-.198-.1-.309-.323-.309H15V29.218c0-2.391 2.021-4.325 4.476-4.325H41.99l.003.996.028 8.342a2.833 2.833 0 0 1-.04.444c-.208 1.05-1.15 1.805-2.243 1.805a2.332 2.332 0 0 1-.923-.193c-.31-.12-.64-.183-.98-.183zm0 6.835c-2.515 0-4.572-1.968-4.572-4.418s2.057-4.417 4.572-4.417c.59 0 1.165.11 1.767.346a.46.46 0 0 0 .136.03c.147 0 .26-.09.28-.192-.004.019 0-.039.003-.09l-.024-7.305H19.476c-1.37 0-2.476 1.059-2.476 2.325v20.798h7.03c1.294 0 2.342.971 2.342 2.228 0 .185-.025.366-.097.63-.07.196-.102.28-.113.297-.12.284-.183.585-.183.894 0 1.325 1.142 2.417 2.572 2.417 1.43 0 2.572-1.092 2.572-2.417 0-.199-.076-.566-.21-.997a2.175 2.175 0 0 1-.164-.824c0-1.24 1.032-2.228 2.283-2.228h6.986l.003-7.208c0-.115-.117-.227-.283-.227-.012 0-.077.01-.178.032a4.701 4.701 0 0 1-1.725.326z" class="color-500"/></g><g class="animate-grow"><path fill="#A6D2FF" d="M64.185 41.444c.715-1.863-.134-3.92-1.896-4.597-1.762-.677-3.77.285-4.485 2.147a3.776 3.776 0 0 0-.252 1.445l-.014.009c-.001.156-.03.315-.09.47-.256.67-.977 1.015-1.61.772a1.155 1.155 0 0 1-.092-.041l-.006.003-7.564-2.907 2.854-7.435-.003-.005c.015-.032.03-.065.043-.098.257-.67-.048-1.408-.68-1.651-.148-.057-.3-.08-.45-.076l-.008-.014a3.248 3.248 0 0 1-1.378-.21c-1.762-.676-2.611-2.734-1.897-4.596.715-1.862 2.723-2.824 4.485-2.147a3.245 3.245 0 0 1 1.19.794c.03.031.059.062.087.094l.02-.007c.08.057.166.106.26.142.634.243 1.355-.102 1.611-.77l.019-.056.003-.001 2.91-7.58 20.35 7.812c1.708.656 2.538 2.668 1.845 4.473L71.64 47.725l-7.761-2.949-.001-.003c-.018-.006-.035-.01-.053-.017-.632-.243-.937-.982-.68-1.65a1.365 1.365 0 0 1 .32-.485c.3-.334.548-.729.72-1.177z" class="color-200"/><path fill="#005CB9" fill-rule="nonzero" d="M61.93 37.78c-1.234-.474-2.67.215-3.192 1.572a2.776 2.776 0 0 0-.186 1.063l-.009.158a3.154 3.154 0 0 1-.16.704c-.451 1.173-1.743 1.792-2.903 1.346l-7.662-2.945-.933-.359 3.251-8.47c.064-.165 0-.319-.105-.36a.422.422 0 0 0-.144-.01c-.719-.039-1.273-.128-1.692-.289-2.29-.879-3.38-3.522-2.471-5.888.908-2.367 3.487-3.602 5.777-2.723.543.208 1.03.523 1.493.978.17.087.32.012.404-.207l3.268-8.512 21.284 8.17c2.235.858 3.307 3.455 2.42 5.764l-8.153 21.242-.932-.354-7.798-2.964a2.81 2.81 0 0 1-.401-.198c-.906-.571-1.268-1.728-.875-2.751a2.361 2.361 0 0 1 .51-.796c.227-.251.407-.543.53-.866.522-1.358-.086-2.83-1.32-3.305zm-5.06.856c.91-2.367 3.488-3.602 5.778-2.723 2.29.88 3.38 3.522 2.471 5.889a4.825 4.825 0 0 1-.959 1.537.497.497 0 0 0-.082.125c-.056.145-.011.289.076.343-.011-.007 2.292.87 6.91 2.63l7.44-19.381c.498-1.3-.09-2.728-1.27-3.181l-19.417-7.453-2.551 6.645c-.467 1.215-1.75 1.854-2.924 1.403a2.255 2.255 0 0 1-.557-.319 2.86 2.86 0 0 1-.236-.214 2.245 2.245 0 0 0-.765-.49c-1.235-.475-2.672.213-3.193 1.571-.521 1.358.086 2.831 1.321 3.305.184.07.554.13 1.003.157.283-.007.565.04.833.142 1.16.446 1.706 1.77 1.256 2.943l-2.536 6.605 6.729 2.586c.105.04.255-.031.318-.196.006-.013.02-.08.036-.186a4.779 4.779 0 0 1 .32-1.738z" class="color-500"/></g></g></svg>