<svg xmlns="http://www.w3.org/2000/svg" width="92" height="92" class="wd-applet wd-applet-contingent-workers" focusable="false" role="presentation" viewBox="0 0 92 92"><g fill="none" fill-rule="evenodd" class="wd-icon-container"><g fill="#0B77E3" fill-opacity=".2" class="animate-flood"><path d="M46 82c19.882 0 36-16.118 36-36S65.882 10 46 10 10 26.118 10 46s16.118 36 36 36z" class="color-400-alpha-20"/></g><g class="animate-grow"><path fill="#40A0FF" d="M7 45v8h32v-8c0-3.535-2.892-7-7.06-7H14c-3.993 0-7 3.458-7 7z" class="color-300"/><path fill="#FFF" d="M23 14a9.5 9.5 0 0 1 9.5 9.5v5a9.5 9.5 0 0 1-19 0v-5A9.5 9.5 0 0 1 23 14z" class="color-100"/><path fill="#005CB9" fill-rule="nonzero" d="M32 37c4.646 0 8 3.921 8 8.563V54H6v-8.437C6 40.917 9.353 37 14 37h18zm0 2H14c-3.542 0-6 3.021-6 6.563V52h30v-6.437C38 42.028 35.544 39 32 39zM14 23.121v5.488C14 33.42 18.31 37 23.117 37 27.914 37 32 33.419 32 28.61l-.07-5.484A9.253 9.253 0 0 0 23.118 14C18.32 14 14 18.312 14 23.121zm-2 0C12 17.211 17.212 12 23.117 12a11.257 11.257 0 0 1 10.822 11.124L34 28.61C34 34.52 29.022 39 23.117 39 17.205 39 12 34.523 12 28.61V23.12z" class="color-500"/></g><g class="animate-shrink"><path fill="#40A0FF" d="M47 67.468V76l38.1.1v-8.632C85.1 63.33 80.145 59 76 59H54c-4.139 0-7 4.321-7 8.468z" class="color-300"/><path fill="#FFF" d="M54.545 41.233v6.349c0 5.654 4.584 10.233 10.24 10.233 5.656 0 10.239-4.582 10.239-10.233v-6.349C75.024 35.58 70.44 31 64.784 31c-5.656 0-10.24 4.582-10.24 10.233z" class="color-100"/><path fill="#005CB9" fill-rule="nonzero" d="M52.545 47.582v-6.349c0-6.757 5.48-12.233 12.24-12.233s12.239 5.475 12.239 12.233v6.349c0 4.376-2.3 8.256-5.756 10.418h4.874C81.39 58 86 62.223 86 67.468v9.508H45v-9.508C45 62.218 49.26 58 54.504 58h3.797a12.29 12.29 0 0 1-5.756-10.418zM47 67.468V75h37v-7.532C84 63.33 80.287 60 76.142 60H54.504C50.366 60 47 63.321 47 67.468zm7.545-26.235v6.349c0 5.654 4.584 10.233 10.24 10.233 5.656 0 10.239-4.582 10.239-10.233v-6.349C75.024 35.58 70.44 31 64.784 31c-5.656 0-10.24 4.582-10.24 10.233z" class="color-500"/></g><g class="animate-shrink"><path fill="#A6D2FF" d="M24 71v10h43V71c0-4.93-4.337-9-9-9H33c-4.656 0-9 4.06-9 9z" class="color-200"/><path fill="#FFF" d="M33 41.512v7.142C33 55.015 38.645 60.5 45.007 60.5 51.371 60.5 57 55.012 57 48.654v-7.142C57 35.152 51.37 30 45.007 30S33 35.154 33 41.512z" class="color-100"/><path fill="#005CB9" fill-rule="nonzero" d="M38.844 61C34.279 58.682 31 53.94 31 48.654v-7.142C31 34.05 37.54 28 45.007 28 52.475 28 59 34.048 59 41.512v7.142C59 53.94 55.729 58.681 51.168 61h6.617C63.55 61 68 65.708 68 71.5V82H23V71.5C23 65.703 27.68 61 33.442 61h5.402zM25 71.5V80h41v-8.5c0-4.685-3.552-8.5-8.215-8.5H33.442C28.786 63 25 66.806 25 71.5zm8-29.988v7.142C33 55.015 38.645 60.5 45.007 60.5 51.371 60.5 57 55.012 57 48.654v-7.142C57 35.152 51.37 30 45.007 30S33 35.154 33 41.512z" class="color-500"/></g></g></svg>