<svg xmlns="http://www.w3.org/2000/svg" width="92" height="92" class="wd-applet wd-applet-cost-savings" focusable="false" role="presentation" viewBox="0 0 92 92"><g fill="none" fill-rule="evenodd" class="wd-icon-container"><g fill="#0B77E3" fill-opacity=".2" class="animate-flood"><path d="M46 82c19.882 0 36-16.118 36-36S65.882 10 46 10 10 26.118 10 46s16.118 36 36 36z" class="color-400-alpha-20"/></g><path fill="#40A0FF" d="M30.325 23.203l30.48 8.172-.209.367-31.585-5.608 1.314-2.93zm0-5.227l32.477 11.88-.137.269-33.797-8.984 1.457-3.165zm-13.87 7.496l61.641 10.935-5.083 30.404L10.84 55.66l5.617-30.187z" class="color-300"/><path fill="#000" d="M30.325 23.203l30.48 8.172-.209.367-31.585-5.608 1.314-2.93zm0-5.227l32.477 11.88-.137.269-33.797-8.984 1.457-3.165z" class="color-shadow" opacity=".1"/><path fill="#FFF" d="M28.64 22.561l1.769-4.887 5.2 2.04s-1.119 4.595-6.534 3.21c-.134.939-1.04 4.619-6.99 2.938-.017.063 1.05-5.125 1.05-5.125l5.505 1.824zm47.934 20.194c-5.905-1.041-5.746-8.172-5.746-8.172l6.99 1.119-1.244 7.053zM43.27 53.983c-4.35-.767-7.495-5.237-6.727-9.588.767-4.351 5.284-7.4 9.635-6.633 4.352.767 7.358 5.34 6.59 9.692-.767 4.35-5.147 7.296-9.498 6.529zm30.737 5.59l-1.244 7.054-6.95-1.34s2.288-6.755 8.194-5.713zm-61.665-11.03c5.906 1.04 5.746 8.171 5.746 8.171l-6.99-1.118 1.244-7.053zm2.92-16.23l1.243-7.054 6.951 1.34s-2.289 6.755-8.194 5.714z" class="color-100"/><path fill="#005CB9" fill-rule="nonzero" d="M69.859 35.11l-45.225-7.974a8.033 8.033 0 0 1-9.286 6.493l-2.43 13.781a8.033 8.033 0 0 1 6.506 9.27l45.225 7.975a8.033 8.033 0 0 1 9.327-6.479l2.43-13.78a8.033 8.033 0 0 1-6.547-9.285zm1.97.348c-.555 3.276 1.603 6.373 4.924 6.968l.904-5.126a.804.804 0 0 0-.655-.93l-5.174-.912zm-5.21 29.544l5.173.912a.806.806 0 0 0 .934-.65l.903-5.118c-3.323-.577-6.408 1.592-7.01 4.856zm-49.164-8.669a6.033 6.033 0 0 0-4.885-6.953l-.902 5.118a.804.804 0 0 0 .655.93l5.132.905zm5.21-29.544l-5.133-.905a.806.806 0 0 0-.933.65l-.904 5.125a6.033 6.033 0 0 0 6.97-4.87zm-.125-2.053l4.749.838a5.428 5.428 0 0 0 1.447-2.635l-4.366-1.17a1.006 1.006 0 0 0-1.226.713l-.604 2.254zm37.735 6.654l-29.607-7.933a7.442 7.442 0 0 1-1.119 2.515l30.726 5.418zm19.226 4.815c.163.446.214.94.125 1.443l-4.93 27.964a2.806 2.806 0 0 1-3.25 2.272l-59.47-10.486a2.804 2.804 0 0 1-2.278-3.247l4.931-27.964a2.806 2.806 0 0 1 3.25-2.273l2.684.474.65-2.423a3.006 3.006 0 0 1 3.674-2.128l2.602.697.738-2.026a3.003 3.003 0 0 1 3.85-1.79L77.524 33.26a3.01 3.01 0 0 1 1.978 2.946zM29.43 21.055l4.223 1.13a4.844 4.844 0 0 0 1.197-2.33l-3.455-1.257a1.003 1.003 0 0 0-1.288.594l-.677 1.862zm33.03 8.85l-25.716-9.36a6.85 6.85 0 0 1-.988 2.204l26.703 7.155zM42.925 55.746c-5.439-.959-9.07-6.145-8.112-11.584.96-5.44 6.146-9.07 11.585-8.112 5.439.96 9.07 6.146 8.111 11.585-.959 5.439-6.145 9.07-11.584 8.111zm.347-1.97a8 8 0 1 0 2.779-15.756 8 8 0 0 0-2.779 15.757z" class="color-500"/><g class="animate-sink"><path fill="#40A0FF" d="M54.428 79.237C56.492 80.357 59.246 81 62 81c5.5 0 11-2.566 11-6.364v-2.545L62 76.83l-11-4.74v2.546c0 1.896 1.371 3.485 3.428 4.601z" class="color-300"/><path fill="#A6D2FF" d="M62 77c6.075 0 11-3.358 11-7.5 0-4.142-4.925-7.5-11-7.5s-11 3.358-11 7.5c0 4.142 4.925 7.5 11 7.5z" class="color-200"/><path fill="#FFF" d="M62 73.417c3.866 0 7-1.829 7-4.084s-3.134-4.083-7-4.083-7 1.828-7 4.083 3.134 4.084 7 4.084z" class="color-100"/><path fill="#000" d="M62 77c6.075 0 11-3.358 11-7.5 0-4.142-4.925-7.5-11-7.5s-11 3.358-11 7.5c0 4.142 4.925 7.5 11 7.5z" class="color-shadow" opacity=".1"/><path fill="#005CB9" d="M65 80.748V78.75c-.65.11-1.319.185-2 .223v1.999a18.068 18.068 0 0 0 2-.224zm2-.463c.707-.21 1.379-.464 2-.758V77.53c-.633.292-1.302.544-2 .753v2.002zm-6 .687v-2a17.747 17.747 0 0 1-2-.222v1.998c.655.11 1.325.186 2 .224zm-6-1.445c.621.294 1.293.548 2 .758v-2.002a15.227 15.227 0 0 1-2-.753v1.997zm-2-1.233v-1.9a10.736 10.736 0 0 1-2-1.776v.018c0 1.413.761 2.655 2 3.658zm18 0c1.239-1.003 2-2.245 2-3.658v-.018c-.567.654-1.24 1.25-2 1.776v1.9zM49.003 69.7A7.448 7.448 0 0 1 49 69.5c0-5.445 5.947-9.5 13-9.5s13 4.055 13 9.5c0 .067 0 .133-.003.199L75 69.7v4.936C75 79.665 68.837 83 62 83c-3.071 0-6.153-.718-8.525-2.005C50.714 79.498 49 77.287 49 74.636V69.7l.003-.001zM62 77c6.075 0 11-3.358 11-7.5 0-4.142-4.925-7.5-11-7.5s-11 3.358-11 7.5c0 4.142 4.925 7.5 11 7.5zm0-1.583c-4.825 0-9-2.436-9-6.084 0-3.648 4.175-6.083 9-6.083s9 2.435 9 6.083-4.175 6.084-9 6.084zm0-2c3.866 0 7-1.829 7-4.084s-3.134-4.083-7-4.083-7 1.828-7 4.083 3.134 4.084 7 4.084z" class="color-500"/></g><path fill="#40A0FF" d="M51.428 71.237C53.492 72.357 56.246 73 59 73c5.5 0 11-2.566 11-6.364v-2.545L59 68.83l-11-4.74v2.546c0 1.896 1.371 3.485 3.428 4.601z" class="color-300"/><path fill="#A6D2FF" d="M59 69c6.075 0 11-3.358 11-7.5 0-4.142-4.925-7.5-11-7.5s-11 3.358-11 7.5c0 4.142 4.925 7.5 11 7.5z" class="color-200"/><path fill="#FFF" d="M59 65.417c3.866 0 7-1.829 7-4.084s-3.134-4.083-7-4.083-7 1.828-7 4.083 3.134 4.084 7 4.084z" class="color-100"/><path fill="#000" d="M59 69c6.075 0 11-3.358 11-7.5 0-4.142-4.925-7.5-11-7.5s-11 3.358-11 7.5c0 4.142 4.925 7.5 11 7.5z" class="color-shadow" opacity=".1"/><path fill="#005CB9" d="M62 72.748V70.75c-.65.11-1.319.185-2 .223v1.999a18.068 18.068 0 0 0 2-.224zm2-.463c.707-.21 1.379-.464 2-.758V69.53c-.633.292-1.302.544-2 .753v2.002zm-6 .687v-2a17.747 17.747 0 0 1-2-.222v1.998c.655.11 1.325.186 2 .224zm-6-1.445c.621.294 1.293.548 2 .758v-2.002a15.227 15.227 0 0 1-2-.753v1.997zm-2-1.233v-1.9a10.736 10.736 0 0 1-2-1.776v.018c0 1.413.761 2.655 2 3.658zm18 0c1.239-1.003 2-2.245 2-3.658v-.018c-.567.654-1.24 1.25-2 1.776v1.9zM46.003 61.7A7.448 7.448 0 0 1 46 61.5c0-5.445 5.947-9.5 13-9.5s13 4.055 13 9.5c0 .067 0 .133-.003.199L72 61.7v4.936C72 71.665 65.837 75 59 75c-3.071 0-6.153-.718-8.525-2.005C47.714 71.498 46 69.287 46 66.636V61.7l.003-.001zM59 69c6.075 0 11-3.358 11-7.5 0-4.142-4.925-7.5-11-7.5s-11 3.358-11 7.5c0 4.142 4.925 7.5 11 7.5zm0-1.583c-4.825 0-9-2.436-9-6.084 0-3.648 4.175-6.083 9-6.083s9 2.435 9 6.083-4.175 6.084-9 6.084zm0-2c3.866 0 7-1.829 7-4.084s-3.134-4.083-7-4.083-7 1.828-7 4.083 3.134 4.084 7 4.084z" class="color-500"/><g class="animate-float"><path fill="#40A0FF" d="M57.428 65.237C59.492 66.357 62.246 67 65 67c5.5 0 11-2.566 11-6.364v-2.545L65 62.83l-11-4.74v2.546c0 1.896 1.371 3.485 3.428 4.601z" class="color-300"/><path fill="#A6D2FF" d="M65 63c6.075 0 11-3.358 11-7.5 0-4.142-4.925-7.5-11-7.5s-11 3.358-11 7.5c0 4.142 4.925 7.5 11 7.5z" class="color-200"/><path fill="#FFF" d="M65 59.417c3.866 0 7-1.829 7-4.084s-3.134-4.083-7-4.083-7 1.828-7 4.083 3.134 4.084 7 4.084z" class="color-100"/><path fill="#005CB9" d="M68 66.748V64.75c-.65.11-1.319.185-2 .223v1.999a18.068 18.068 0 0 0 2-.224zm2-.463c.707-.21 1.379-.464 2-.758V63.53c-.633.292-1.302.544-2 .753v2.002zm-6 .687v-2a17.747 17.747 0 0 1-2-.222v1.998c.655.11 1.325.186 2 .224zm-6-1.445c.621.294 1.293.548 2 .758v-2.002a15.227 15.227 0 0 1-2-.753v1.997zm-2-1.233v-1.9a10.736 10.736 0 0 1-2-1.776v.018c0 1.413.761 2.655 2 3.658zm18 0c1.239-1.003 2-2.245 2-3.658v-.018c-.567.654-1.24 1.25-2 1.776v1.9zM52.003 55.7A7.448 7.448 0 0 1 52 55.5c0-5.445 5.947-9.5 13-9.5s13 4.055 13 9.5c0 .067 0 .133-.003.199L78 55.7v4.936C78 65.665 71.837 69 65 69c-3.071 0-6.153-.718-8.525-2.005C53.714 65.498 52 63.287 52 60.636V55.7l.003-.001zM65 63c6.075 0 11-3.358 11-7.5 0-4.142-4.925-7.5-11-7.5s-11 3.358-11 7.5c0 4.142 4.925 7.5 11 7.5zm0-1.583c-4.825 0-9-2.436-9-6.084 0-3.648 4.175-6.083 9-6.083s9 2.435 9 6.083-4.175 6.084-9 6.084zm0-2c3.866 0 7-1.829 7-4.084s-3.134-4.083-7-4.083-7 1.828-7 4.083 3.134 4.084 7 4.084z" class="color-500"/></g></g></svg>