<svg xmlns="http://www.w3.org/2000/svg" width="92" height="92" class="wd-applet wd-applet-cost-center" focusable="false" role="presentation" viewBox="0 0 92 92"><g fill="none" fill-rule="evenodd" class="wd-icon-container"><g fill="#0B77E3" fill-opacity=".2" class="animate-flood"><path d="M46 82c19.882 0 36-16.118 36-36S65.882 10 46 10 10 26.118 10 46s16.118 36 36 36z" class="color-400-alpha-20"/></g><g class="animate-right"><path fill="#A6D2FF" d="M36 12h30v64H36z" class="color-200"/><path fill="#0B77E3" d="M36 21h30v4H36zm0 8h30v4H36zm0 8h30v4H36zm0 8h30v4H36z" class="color-400"/><path fill="#005CB9" fill-rule="nonzero" d="M36 13.005v61.99A.997.997 0 0 0 36.998 76h28.004c.55 0 .998-.45.998-1.005v-61.99A.997.997 0 0 0 65.002 12H36.998c-.55 0-.998.45-.998 1.005zm-2 0A3.002 3.002 0 0 1 36.998 10h28.004A2.997 2.997 0 0 1 68 13.005v61.99A3.002 3.002 0 0 1 65.002 78H36.998A2.997 2.997 0 0 1 34 74.995v-61.99z" class="color-500"/></g><g class="animate-left"><path fill="#FFF" d="M27 25h14v8H27zm-2 9h19v42H25z" class="color-100"/><path fill="#40A0FF" d="M31 39h2v25.42h-2zm3-12h2v6h-2zm3 12h2v25.42h-2z" class="color-300"/><path fill="#005CB9" fill-rule="nonzero" d="M39 76h4.007a.995.995 0 0 0 .993-.997V34.997a.993.993 0 0 0-.993-.997H26.993a.995.995 0 0 0-.993.997v40.006c0 .554.445.997.993.997H31v-5a2 2 0 0 1 2-2h4a2 2 0 0 1 2 2v5zM27 32v-7a2 2 0 0 1 2-2h12a2 2 0 0 1 2 2v7h.007A2.993 2.993 0 0 1 46 34.997v40.006A2.995 2.995 0 0 1 43.007 78H26.993A2.993 2.993 0 0 1 24 75.003V34.997A2.995 2.995 0 0 1 26.993 32H27zm2-7v7h12v-7H29zm4 46v5h4v-5h-4z" class="color-500"/></g></g></svg>