<svg xmlns="http://www.w3.org/2000/svg" width="92" height="92" fill="none" class="wd-applet-cube wd-applet" focusable="false" role="presentation" viewBox="0 0 92 92"><g class="wd-icon-container"><g class="animate-flood"><path fill="#0B77E3" fill-opacity=".2" fill-rule="evenodd" d="M46 82c19.882 0 36-16.118 36-36S65.882 10 46 10 10 26.118 10 46s16.118 36 36 36z" class="color-400-alpha-20" clip-rule="evenodd"/></g><g class="animate-shrink"><path fill="#A6D2FF" d="M46 44L16 26l30-16 30 16-30 18z" class="color-200"/><path fill="#40A0FF" d="M46 44L16 26.5V66l30 16V44z" class="color-300"/><path fill="#0875E1" d="M76 66V26.5L46 44v38l30-16z" class="color-400"/><path fill="#005CB9" fill-rule="evenodd" d="M16.593 24.352l28-14.87a3 3 0 0 1 2.814 0l28 14.87A3 3 0 0 1 77 27.002v37.997a3 3 0 0 1-1.593 2.65l-28 14.868a3 3 0 0 1-2.814 0l-28-14.869A3 3 0 0 1 15 64.998V27.002a3 3 0 0 1 1.593-2.65zM47 80.469l27.469-14.587a1 1 0 0 0 .531-.883v-37.04L47 44.57v35.9zm-2-35.895V80.47L17.531 65.882a1 1 0 0 1-.531-.883V28.24l28 16.333zm.996-1.734L17.432 26.178a1.01 1.01 0 0 1 .099-.06l28-14.869a1 1 0 0 1 .938 0l27.85 14.79-28.323 16.8z" class="color-500" clip-rule="evenodd"/></g><g class="animate-grow"><g fill="#fff" class="color-100"><path d="M37 18.5a4.5 4.5 0 1 1-9 0 4.5 4.5 0 0 1 9 0zM65 35.5a4.5 4.5 0 1 1-9 0 4.5 4.5 0 0 1 9 0zM50.5 63.5a4.5 4.5 0 1 1-9 0 4.5 4.5 0 0 1 9 0z"/></g><path fill="#005CB9" fill-rule="evenodd" d="M39 18.5a6.5 6.5 0 1 1-13 0 6.5 6.5 0 0 1 13 0zm28 17a6.5 6.5 0 1 1-13 0 6.5 6.5 0 0 1 13 0zm-14.5 28a6.5 6.5 0 1 1-13 0 6.5 6.5 0 0 1 13 0zM37 18.5a4.5 4.5 0 1 1-9 0 4.5 4.5 0 0 1 9 0zm28 17a4.5 4.5 0 1 1-9 0 4.5 4.5 0 0 1 9 0zM46 68a4.5 4.5 0 1 0 0-9 4.5 4.5 0 0 0 0 9z" class="color-500" clip-rule="evenodd"/></g></g></svg>