<svg xmlns="http://www.w3.org/2000/svg" width="92" height="92" class="wd-applet wd-applet-customer-central" focusable="false" role="presentation" viewBox="0 0 92 92"><g fill="none" fill-rule="evenodd" class="wd-icon-container"><g fill="#0B77E3" fill-opacity=".2" class="animate-flood"><path d="M10 46c0-19.882 16.113-36 36-36 19.882 0 36 16.113 36 36 0 19.882-16.113 36-36 36-19.882 0-36-16.113-36-36z" class="color-400-alpha-20"/></g><path fill="#005CB9" d="M46 17h15v-2H46c-.993 0-2 .992-2 2v28h-9v2h9v28c0 1.1 1.028 2 1.995 2H61v-2H46V17z" class="color-500"/><g class="animate-right"><path fill="#FFF" d="M51 22h34v12H51V22zm0 18h34v12H51V40zm0 18h34v12H51V58z" class="color-100"/><path fill="#40A0FF" d="M79 26h2v4h-2v-4zm-3 0h2v4h-2v-4zm-3 0h2v4h-2v-4zm6 18h2v4h-2v-4zm-3 0h2v4h-2v-4zm-3 0h2v4h-2v-4zm6 18h2v4h-2v-4zm-3 0h2v4h-2v-4zm-3 0h2v4h-2v-4z" class="color-300"/><path fill="#005CB9" d="M84 57c1.105 0 2 .897 2 2.006v9.988A2 2 0 0 1 84 71H52c-1.105 0-2-.897-2-2.006v-9.988A2 2 0 0 1 52 57h32zm-32 2v9.994h.232l.1.001h1.15l.224.001h2.259l.335.001 4.282.001h.434L68 69h.48L84 69v-9.994h-.232l-.1-.001h-1.15l-.224-.001h-2.259l-.335-.001-4.282-.001h-.434L68 59h-.48L52.01 59H52zm6 2a3 3 0 1 1 0 6 3 3 0 0 1 0-6zm0 2a1 1 0 1 0 0 2 1 1 0 0 0 0-2zm26-24c1.105 0 2 .897 2 2.006v9.988A2 2 0 0 1 84 53H52c-1.105 0-2-.897-2-2.006v-9.988A2 2 0 0 1 52 39h32zm-32 2v9.994h.232l.1.001h1.15l.224.001h2.259l.335.001 4.282.001h.434L68 51h.48L84 51v-9.994h-.232l-.1-.001h-1.15l-.224-.001h-2.259l-.335-.001-4.282-.001h-.434L68 41h-.48L52.01 41H52zm6 2a3 3 0 1 1 0 6 3 3 0 0 1 0-6zm0 2a1 1 0 1 0 0 2 1 1 0 0 0 0-2zm26-24c1.105 0 2 .897 2 2.006v9.988A2 2 0 0 1 84 35H52c-1.105 0-2-.897-2-2.006v-9.988A2 2 0 0 1 52 21h32zm-32 2v9.994h.232l.1.001h1.15l.224.001h2.259l.335.001 4.282.001h.434L68 33h.48L84 33v-9.994h-.232l-.1-.001h-1.15l-.224-.001h-2.259l-.335-.001-4.282-.001h-.434L68 23h-.48L52.01 23H52zm6 2a3 3 0 1 1 0 6 3 3 0 0 1 0-6zm0 2a1 1 0 1 0 0 2 1 1 0 0 0 0-2z" class="color-500"/></g><g class="animate-left"><path fill="#FFF" d="M33.4 45.451a5.399 5.399 0 0 0-3.13-1.59 8.028 8.028 0 0 0-2.205-4.514 7.8 7.8 0 0 0-2.48-1.717 7.686 7.686 0 0 0-3.627-.607 7.093 7.093 0 0 0-2.484.583 7.8 7.8 0 0 0-2.48 1.717 8.032 8.032 0 0 0-1.639 2.473 2.615 2.615 0 0 0-1.195-.29c-1.485 0-2.688 1.235-2.688 2.758 0 .43.099.836.27 1.198-1.436.304-2.629 1.282-3.258 2.595A4.898 4.898 0 0 0 8 50.18c0 2.554 1.937 4.638 4.385 4.803l2.323.016H29.538a5.378 5.378 0 0 0 3.862-1.644 5.667 5.667 0 0 0 1.438-5.299 5.693 5.693 0 0 0-1.438-2.606z" class="color-100"/><path fill="#005CB9" d="M22.53 35c1.335 0 2.648.273 3.85.795a9.798 9.798 0 0 1 3.117 2.156 10.029 10.029 0 0 1 2.468 4.272 7.43 7.43 0 0 1 2.869 1.833A7.708 7.708 0 0 1 37 49.392c0 2.03-.79 3.948-2.166 5.359a7.376 7.376 0 0 1-5.296 2.248L14.694 57l-2.323-.016-.12-.005C8.73 56.742 6 53.767 6 50.181c0-1.046.236-2.062.68-2.99a6.786 6.786 0 0 1 2.792-2.987c.032-2.589 2.107-4.699 4.688-4.699l.148.003c.364-.57.784-1.1 1.253-1.581a9.8 9.8 0 0 1 3.117-2.156 9.007 9.007 0 0 1 3.133-.742c.254-.019.487-.029.718-.029zm0 2c-.192 0-.383.01-.572.023a7.093 7.093 0 0 0-2.484.583 7.8 7.8 0 0 0-2.48 1.717 8.032 8.032 0 0 0-1.639 2.473 2.615 2.615 0 0 0-1.195-.29c-1.485 0-2.688 1.235-2.688 2.758 0 .43.099.836.27 1.198-1.436.304-2.629 1.282-3.258 2.595A4.898 4.898 0 0 0 8 50.18c0 2.554 1.937 4.638 4.385 4.803l2.323.016h14.83a5.378 5.378 0 0 0 3.862-1.644 5.667 5.667 0 0 0 1.438-5.299 5.693 5.693 0 0 0-1.438-2.606 5.399 5.399 0 0 0-3.13-1.59 8.028 8.028 0 0 0-2.205-4.514 7.8 7.8 0 0 0-2.48-1.717 7.686 7.686 0 0 0-3.056-.63z" class="color-500"/></g></g></svg>