<svg xmlns="http://www.w3.org/2000/svg" width="92" height="92" class="wd-applet wd-applet-custom-dashboards-financials" focusable="false" role="presentation" viewBox="0 0 92 92"><g fill="none" fill-rule="evenodd" class="wd-icon-container"><g fill="#0B77E3" fill-opacity=".2" class="animate-flood"><circle cx="36" cy="36" r="36" class="color-400-alpha-20" transform="translate(10 10)"/></g><rect width="64" height="50" x="14" y="19" fill="#FFF" class="color-100" rx="1"/><path fill="#40A0FF" d="M63.31 70.05l2.347 8.755a.999.999 0 0 0 1.225.71.998.998 0 0 0 .707-1.224l-2.199-8.207-2.08-.034zM28.326 70l-2.358 8.8c-.144.538-.69.858-1.226.714a1.001 1.001 0 0 1-.706-1.229l2.213-8.258L28.325 70zM28 17.01c0-.558.455-1.01 1-1.01h34a1 1 0 0 1 1 1.01v1.98A1.01 1.01 0 0 1 63 20H29a1 1 0 0 1-1-1.01v-1.98z" class="color-300"/><path fill="#000" d="M28.325 70l-.804 3H25.45l.798-2.973L28.325 70zm34.986.05l2.08.034.78 2.916h-2.07l-.79-2.95z" class="color-shadow" opacity=".1"/><path fill="#005CB9" d="M63 14a3 3 0 0 1 3 3h10.995A3.002 3.002 0 0 1 80 19.999V68A2.997 2.997 0 0 1 76.995 71h-9.326l1.816 6.778a3.002 3.002 0 0 1-2.12 3.682 3.001 3.001 0 0 1-3.675-2.129L61.457 71H30.13l-2.231 8.327a3.001 3.001 0 0 1-3.676 2.128 3.002 3.002 0 0 1-2.12-3.681L23.918 71h-8.913A3.002 3.002 0 0 1 12 68.001V20A2.997 2.997 0 0 1 15.005 17H26a3.01 3.01 0 0 1 3-3h34zm2.6 57.004l-2.07.003 2.092 7.806c.144.538.689.859 1.226.715.534-.143.85-.693.705-1.232L65.6 71.004zm-37.542.001l-2.073.008-1.95 7.278c-.145.54.172 1.09.705 1.232a1.001 1.001 0 0 0 1.227-.714l2.09-7.804zM26 19H15.005a.997.997 0 0 0-1.005.999V68c0 .551.45.999 1.005.999h61.99A.997.997 0 0 0 78 68.001V20c0-.551-.45-.999-1.005-.999H66a3.01 3.01 0 0 1-3 3H29a3 3 0 0 1-3-3zm37-3H29c-.545 0-1 .452-1 1.01v1.98A1 1 0 0 0 29 20h34c.545 0 1-.452 1-1.01v-1.98A1 1 0 0 0 63 16z" class="color-500"/><g class="animate-shrink"><path fill="#40A0FF" d="M43 60.001V49c0-.552.444-.999.99-.999h4.02a1 1 0 0 1 .99.999V60a.995.995 0 0 1-.99.999h-4.02a1 1 0 0 1-.99-.999zm20 .006V34.993c0-.547.444-.993.99-.993h4.02c.539 0 .99.445.99.993v25.014a.993.993 0 0 1-.99.993h-4.02a.997.997 0 0 1-.99-.993zm-40-.016v-1.982c0-.566.444-1.009.99-1.009h4.02c.539 0 .99.452.99 1.01v1.98a.995.995 0 0 1-.99 1.01h-4.02c-.539 0-.99-.452-.99-1.01z" class="color-300"/><path fill="#005CB9" d="M39.003 53c.544 0 .997.447.997.998v7.004a.997.997 0 0 1-.997.998h-6.006c-.544 0-.997-.447-.997-.998v-7.004c0-.552.446-.998.997-.998h6.006zM38 55h-4v5h4v-5zm20 5V43h-4v17h4zm-6 1.001V42c0-.56.446-.999.997-.999h6.006c.544 0 .997.447.997.999V61c0 .56-.446.999-.997.999h-6.006c-.544 0-.997-.447-.997-.999zM48 60V49h-4v11h4zm-6 .993V48.007A1 1 0 0 1 42.997 47h6.006c.544 0 .997.451.997 1.007v12.986A1 1 0 0 1 49.003 62h-6.006c-.544 0-.997-.451-.997-1.007zM64 60h4V35h-4v25zm-2 1.002V33.998c0-.542.446-.998.997-.998h6.006c.544 0 .997.447.997.998v27.004c0 .542-.446.998-.997.998h-6.006c-.544 0-.997-.447-.997-.998zM24 60h4v-2h-4v2zm-2 1.01v-4.02c0-.539.446-.99.997-.99h6.006c.544 0 .997.444.997.99v4.02c0 .539-.446.99-.997.99h-6.006a.998.998 0 0 1-.997-.99z" class="color-500"/></g><g fill="#0B77E3" fill-rule="nonzero" class="animate-grow"><path d="M55.13 28.6l-4.271-.61a1 1 0 0 1 .283-1.98l8.013 1.145-1.168 7.01a1 1 0 0 1-1.973-.33l.63-3.777-34.171 18.323a1 1 0 0 1-.945-1.762L55.13 28.6z" class="color-400"/></g></g></svg>