<svg xmlns="http://www.w3.org/2000/svg" width="92" height="92" class="wd-applet wd-applet-custom-dashboards-labor-cost-analysis" focusable="false" role="presentation" viewBox="0 0 92 92"><g fill="none" fill-rule="evenodd" class="wd-icon-container"><g fill="#0B77E3" fill-opacity=".2" class="animate-flood"><path d="M46 82c19.882 0 36-16.118 36-36S65.882 10 46 10 10 26.118 10 46s16.118 36 36 36z" class="color-400-alpha-20"/></g><g class="animate-sink"><path fill="#40A0FF" d="M19 21.008A2.999 2.999 0 0 1 22 18h48c1.657 0 3 1.343 3 3.008v19.984A2.999 2.999 0 0 1 70 44H22c-1.657 0-3-1.343-3-3.008V21.008z" class="color-300"/><path fill="#005CB9" fill-rule="nonzero" d="M21 21v20c0 .548.451 1 1 1h48c.557 0 1-.444 1-1V21c0-.548-.451-1-1-1H22c-.557 0-1 .444-1 1zm-2 0c0-1.657 1.335-3 3-3h48c1.657 0 3 1.352 3 3v20c0 1.657-1.335 3-3 3H22c-1.657 0-3-1.352-3-3V21z" class="color-500"/></g><g class="animate-sink-less"><path fill="#A6D2FF" d="M17 26.008A3.006 3.006 0 0 1 19.996 23h52.008A3 3 0 0 1 75 26.008v19.984A3.006 3.006 0 0 1 72.004 49H19.996A3 3 0 0 1 17 45.992V26.008z" class="color-200"/><path fill="#005CB9" fill-rule="nonzero" d="M19 26v20c0 .548.45 1 .996 1h52.008c.546 0 .996-.45.996-1V26c0-.548-.45-1-.996-1H19.996c-.546 0-.996.45-.996 1zm-2 0c0-1.657 1.348-3 2.996-3h52.008A3.004 3.004 0 0 1 75 26v20c0 1.657-1.348 3-2.996 3H19.996A3.004 3.004 0 0 1 17 46V26z" class="color-500"/></g><g class="animate-float"><path fill="#FFF" d="M15 31c0-1.657 1.353-3 2.99-3h56.02A3 3 0 0 1 77 31v40c0 1.657-1.353 3-2.99 3H17.99A3 3 0 0 1 15 71V31z" class="color-100"/><path fill="#A6D2FF" d="M32 58a7 7 0 0 0 7-7h-7v-7a7 7 0 0 0 0 14z" class="color-200"/><path fill="#40A0FF" d="M54 45.995a1 1 0 0 1 .997-.995h4.006a1 1 0 0 1 .997.995v15.01a1 1 0 0 1-.997.995h-4.006a1 1 0 0 1-.997-.995v-15.01zM37 46h8c0-7.294-8-8-8-8v8z" class="color-300"/><path fill="#000" d="M55 63c0-8.284 6.564-15 14.678-15h.304c1.243 0 3.866.158 5.018.455V72H57.26C55.827 69.685 55 65.941 55 63z" class="color-shadow" opacity=".1"/><path fill="#005CB9" fill-rule="nonzero" d="M17 31v40a1 1 0 0 0 .99 1h56.02c.537 0 .99-.453.99-1V31a1 1 0 0 0-.99-1H17.99c-.537 0-.99.453-.99 1zm-2 0c0-1.657 1.353-3 2.99-3h56.02A3 3 0 0 1 77 31v40c0 1.657-1.353 3-2.99 3H17.99A3 3 0 0 1 15 71V31zm46 7v23h4V38h-4zm-2-1.007a1 1 0 0 1 .997-.993h6.006c.55 0 .997.446.997.993v25.014a1 1 0 0 1-.997.993h-6.006a.996.996 0 0 1-.997-.993V36.993zM55 61h4V46h-4v15zm-2-16.005a1 1 0 0 1 .997-.995h6.006a1 1 0 0 1 .997.995v17.01a1 1 0 0 1-.997.995h-6.006a1 1 0 0 1-.997-.995v-17.01zM49 54v7h4v-7h-4zm-2-1.004a1 1 0 0 1 .997-.996h6.006c.55 0 .997.445.997.996v9.008a1 1 0 0 1-.997.996h-6.006a.996.996 0 0 1-.997-.996v-9.008zM32 58a7 7 0 0 0 7-7h-7v-7a7 7 0 0 0 0 14zm9-9v2a9 9 0 1 1-9-9h2v7h7zm-3-10v6h6a6 6 0 0 0-6-6zm0-2a8 8 0 0 1 8 8v2H36V37h2z" class="color-500"/></g><g class="animate-grow"><path fill="#A6D2FF" d="M6 24.381A12.957 12.957 0 0 0 15 28c3.493 0 6.664-1.377 9-3.619V23h.624H24c0-1.659-1.34-3-2.992-3H8.992A2.993 2.993 0 0 0 6 23h-.624H6v1.381zm-1.913-2.314A12.94 12.94 0 0 1 2 15C2 7.82 7.819 2 15 2c7.18 0 13 5.819 13 13a12.94 12.94 0 0 1-2.087 7.067A4.995 4.995 0 0 0 21.008 18H8.992a4.992 4.992 0 0 0-4.905 4.067zM18.315 18h-6.632A5.997 5.997 0 0 1 9 12.998v-2.996A6.004 6.004 0 0 1 15 4c3.314 0 6 2.688 6 6.002v2.996A6 6 0 0 1 18.315 18z" class="color-200" transform="translate(57 50)"/><path fill="#40A0FF" d="M15 28c3.493 0 6.664-1.377 9-3.619V23c0-1.659-1.34-3-2.992-3H8.992A2.993 2.993 0 0 0 6 23v1.381A12.957 12.957 0 0 0 15 28z" class="color-300" transform="translate(57 50)"/><rect width="9" height="12" x="10.5" y="5.5" fill="#FFF" class="color-100" rx="4.5" transform="translate(57 50)"/><path fill="#005CB9" fill-rule="nonzero" d="M15 0c8.285 0 15 6.715 15 15s-6.715 15-15 15S0 23.285 0 15 6.715 0 15 0zm6.008 20H8.992a2.993 2.993 0 0 0-2.987 2.823L6 23v1.381A12.957 12.957 0 0 0 15 28c3.493 0 6.664-1.377 9-3.619V23c0-1.659-1.34-3-2.992-3zM15 2C7.819 2 2 7.82 2 15c0 2.606.767 5.033 2.087 7.067A4.992 4.992 0 0 1 8.992 18h2.69A5.997 5.997 0 0 1 9 12.998v-2.996A6.004 6.004 0 0 1 15 4c3.314 0 6 2.688 6 6.002v2.996A6 6 0 0 1 18.315 18h2.693c2.439 0 4.47 1.75 4.905 4.067A12.94 12.94 0 0 0 28 15c0-7.181-5.82-13-13-13zm0 4l-.2.005a4.005 4.005 0 0 0-3.8 3.997v2.996C11 15.208 12.79 17 15 17l.2-.005a4.005 4.005 0 0 0 3.8-3.997v-2.996C19 7.792 17.21 6 15 6z" class="color-500" transform="translate(57 50)"/></g></g></svg>