<svg xmlns="http://www.w3.org/2000/svg" width="92" height="92" class="wd-applet wd-applet-custom-reports" focusable="false" role="presentation" viewBox="0 0 92 92"><g fill="none" fill-rule="evenodd" class="wd-icon-container"><g fill="#0B77E3" fill-opacity=".2" class="animate-flood"><path d="M46 10c19.882 0 36 16.118 36 36S65.882 82 46 82 10 65.882 10 46s16.118-36 36-36z" class="color-400-alpha-20"/></g><g class="animate-float-right"><path fill="#FFF" d="M77 63H35L21 48V35l14.004-15H77z" class="color-100"/><path fill="#000" d="M35 62.998L21 48V35l8-9h45a1 1 0 0 1 1 1v35.998H35z" class="color-shadow" opacity=".1"/><path fill="#005CB9" fill-rule="nonzero" d="M77 18a2 2 0 0 1 2 2v43a2 2 0 0 1-2 2H35a2 2 0 0 1-1.462-.635l-14-15A2 2 0 0 1 19 48V35a2 2 0 0 1 .538-1.365l14.004-15A2 2 0 0 1 35.004 18H77zm0 2H35.004L21 35v13l14 15h42V20z" class="color-500"/></g><g class="animate-float-left"><path fill="#FFF" d="M67 45H25L11 30V17L25.004 2H67z" class="color-100" transform="translate(4 29)"/><path fill="#40A0FF" d="M35.001 12c.552 0 .999.439.999 1.003v20.994A.998.998 0 0 1 35.001 35h-1.002A.995.995 0 0 1 33 33.997V13.003A.998.998 0 0 1 33.999 12h1.002zm8 0c.552 0 .999.439.999 1.003v20.994A.998.998 0 0 1 43.001 35h-1.002A.995.995 0 0 1 41 33.997V13.003A.998.998 0 0 1 41.999 12h1.002z" class="color-300" transform="translate(4 29)"/><path fill="#005CB9" fill-rule="nonzero" d="M67 0a2 2 0 0 1 2 2v43a2 2 0 0 1-2 2H25a2 2 0 0 1-1.462-.635l-14-15A2 2 0 0 1 9 30V17a2 2 0 0 1 .538-1.365l14.004-15A2 2 0 0 1 25.004 0H67zm0 2H25.004L11 17v13l14 15h42V2z" class="color-500" transform="translate(4 29)"/><circle cx="19.5" cy="23.5" r="1.5" fill="#0B77E3" class="color-400" transform="translate(4 29)"/><path fill="#005CB9" fill-rule="nonzero" d="M19.5 20a3.5 3.5 0 1 1 0 7 3.5 3.5 0 0 1 0-7zm0 2a1.5 1.5 0 1 0 0 3 1.5 1.5 0 0 0 0-3z" class="color-500" transform="translate(4 29)"/><path fill="#005CB9" fill-rule="nonzero" d="M19.418 39.028l1.409 1.512c-.229.351-.468.7-.719 1.044C15.225 48.305 7.8 51.56 3.197 48.217-1.406 44.873-.604 36.805 4.28 30.083c4.883-6.721 12.308-9.977 16.911-6.633a6.783 6.783 0 0 1 1.5 1.495c-.273.616-.734 1.137-1.397 1.522a4.782 4.782 0 0 0-1.278-1.4c-3.478-2.526-9.799.246-14.118 6.192-4.32 5.946-5.003 12.814-1.526 15.34 3.478 2.526 9.799-.245 14.118-6.191.331-.455.64-.916.928-1.38z" class="color-500" transform="translate(4 29)"/></g><g class="animate-grow"><path fill="#005CB9" fill-rule="nonzero" d="M12 0c4.445 0 8 3.758 8 8.344v1.312C20 14.241 16.444 18 12 18c-4.445 0-8-3.758-8-8.344V8.344C4 3.759 7.556 0 12 0zm0 2C8.65 2 6 4.861 6 8.318v1.364C6 13.14 8.65 16 12 16s6-2.861 6-6.318V8.318C18 4.86 15.35 2 12 2zm0 2c2.21 0 4 1.803 4 4.03V11H8V8.03C8 5.804 9.79 4 12 4zm0 2c-1.105 0-2 .773-2 1.727V9h4V7.727C14 6.773 13.105 6 12 6z" class="color-500" transform="translate(56 50)"/><path fill="#A6D2FF" fill-rule="nonzero" d="M12 2c3.314 0 6 2.838 6 6.344v1.312C18 13.16 15.314 16 12 16s-6-2.838-6-6.344V8.344C6 4.84 8.686 2 12 2zm0 2C9.79 4 8 5.933 8 8.318v1.364C8 12.068 9.79 14 12 14s4-1.933 4-4.318V8.318C16 5.932 14.21 4 12 4z" class="color-200" transform="translate(56 50)"/><rect width="20" height="17" x="2" y="11" fill="#40A0FF" class="color-300" rx="1" transform="translate(56 50)"/><path fill="#005CB9" fill-rule="nonzero" d="M21.008 9A3 3 0 0 1 24 12v15c0 1.653-1.347 3-2.992 3H2.992A3 3 0 0 1 0 27V12c0-1.653 1.347-3 2.992-3h18.016zm0 2H2.992C2.455 11 2 11.448 2 12v15a1 1 0 0 0 .992 1h18.016c.537 0 .992-.448.992-1V12a1 1 0 0 0-.992-1z" class="color-500" transform="translate(56 50)"/><path fill="#FFF" d="M12.5 16c1.38 0 2.5 1.007 2.5 2.25 0 .98-.696 1.813-1.667 2.122v1.8a.828.828 0 0 1-.728.822L12.5 23a.83.83 0 0 1-.833-.829v-1.799C10.696 20.063 10 19.23 10 18.25c0-1.243 1.12-2.25 2.5-2.25z" class="color-100" transform="translate(56 50)"/><path fill="#005CB9" fill-rule="nonzero" d="M12.5 14c2.441 0 4.5 1.853 4.5 4.25 0 1.333-.646 2.524-1.667 3.304v.617A2.829 2.829 0 0 1 12.5 25a2.83 2.83 0 0 1-2.833-2.829v-.617C8.647 20.774 8 19.584 8 18.25 8 15.853 10.059 14 12.5 14zm0 2c-1.38 0-2.5 1.007-2.5 2.25 0 .98.696 1.813 1.667 2.122v1.8c0 .459.373.828.833.828a.829.829 0 0 0 .833-.829v-1.799C14.304 20.063 15 19.23 15 18.25c0-1.243-1.12-2.25-2.5-2.25z" class="color-500" transform="translate(56 50)"/></g></g></svg>