<svg xmlns="http://www.w3.org/2000/svg" width="92" height="92" class="wd-applet wd-applet-dashboards" focusable="false" role="presentation" viewBox="0 0 92 92"><g fill="none" fill-rule="evenodd" class="wd-icon-container"><g fill="#0B77E3" fill-opacity=".2" class="animate-flood"><circle cx="36" cy="36" r="36" class="color-400-alpha-20" transform="translate(10 10)"/></g><path fill="#FFF" d="M12 53.992c0-1.1.898-1.992 1.992-1.992h26.016c1.1 0 1.992.893 1.992 1.992v11.016c0 1.1-.898 1.992-1.992 1.992H13.992c-1.1 0-1.992-.893-1.992-1.992V53.992zm32-27.99c0-1.106.89-2.002 2-2.002h32c1.105 0 2 .898 2 2.002v38.996C80 66.104 79.11 67 78 67H46c-1.105 0-2-.898-2-2.002V26.002zm-32-.005c0-1.103.898-1.997 1.992-1.997h26.016c1.1 0 1.992.895 1.992 1.997v22.006A1.998 1.998 0 0 1 40.008 50H13.992c-1.1 0-1.992-.895-1.992-1.997V25.997z" class="color-100"/><rect width="6" height="27" x="59" y="39" fill="#40A0FF" class="color-300" rx="1"/><g fill="#005CB9" class="animate-shrink"><path d="M27 34v4h3.636v2c0 3.569-2.605 6-5.818 6A5.818 5.818 0 0 1 19 40.182C19 36.969 21.725 34 25 34h2zm-2 2.364c-2.109 0-4 1.71-4 3.818A3.818 3.818 0 0 0 24.818 44c2.109 0 3.818-1.891 3.818-4H25v-3.636z" class="color-500"/></g><g class="animate-grow"><path fill="#40A0FF" d="M30 35h5c0-4.464-5-5-5-5v5z" class="color-300"/><path fill="#005CB9" d="M30.727 29C33.64 29 36 31.088 36 34v2h-7v-7h1.727zM31 31v3h3c0-1.807-1.193-3-3-3z" class="color-500"/></g><path fill="#005CB9" fill-rule="nonzero" d="M78 24c1.105 0 2 .898 2 2.002v38.996C80 66.104 79.11 67 78 67H46c-1.105 0-2-.898-2-2.002V26.002c0-1.106.89-2.002 2-2.002h32zm-11.264 2.001L46 26v38.998l10.805.001h.46L77.99 65H78L78 26.002l-10.805-.001h-.46zM40.008 52c1.1 0 1.992.893 1.992 1.992v11.016c0 1.1-.898 1.992-1.992 1.992H13.992c-1.1 0-1.992-.893-1.992-1.992V53.992c0-1.1.898-1.992 1.992-1.992h26.016zM40 54H14v11h26V54zm.008-30c1.1 0 1.992.895 1.992 1.997v22.006A1.998 1.998 0 0 1 40.008 50H13.992c-1.1 0-1.992-.895-1.992-1.997V25.997c0-1.103.898-1.997 1.992-1.997h26.016zM40 26H13.998v.04L14 29.36v.308L14 47.99l26.002.01v-.04L40 44.64v-.308L40 26zm10 22v17h4V48h-4zm-2-1.001c0-.552.453-.999.997-.999h6.006c.55 0 .997.439.997.999V65h-8V47zM70 65h4V33h-4v32zm-2-33c0-.552.453-1 .997-1h6.006c.55 0 .997.455.997 1v33h-8V32zm-8 33h4V40h-4v25zm-2-26.002c0-.551.453-.998.997-.998h6.006c.55 0 .997.456.997.998V65h-8V38.998z" class="color-500"/><g class="animate-shrink"><rect width="5" height="5" x="10" y="1" fill="#40A0FF" class="color-300" rx="1" transform="translate(19 56)"/><path fill="#005CB9" d="M14.997 0A.996.996 0 0 1 16 1.003v4.994A.996.996 0 0 1 14.997 7h-4.994A.996.996 0 0 1 9 5.997V1.003A.996.996 0 0 1 10.003 0h4.994zm-9 0A.996.996 0 0 1 7 1.003v4.994A.996.996 0 0 1 5.997 7H1.003A.996.996 0 0 1 0 5.997V1.003A.996.996 0 0 1 1.003 0h4.994zM14 2h-3v3h3V2zM5 2H2v3h3V2z" class="color-500" transform="translate(19 56)"/></g></g></svg>