<svg xmlns="http://www.w3.org/2000/svg" width="92" height="92" fill="none" class="wd-applet-deployment wd-applet" focusable="false" role="presentation" viewBox="0 0 92 92"><g class="wd-icon-container"><g class="animate-flood"><path fill="#0B77E3" fill-opacity=".2" d="M82 46c0-19.882-16.118-36-36-36S10 26.118 10 46s16.118 36 36 36 36-16.118 36-36z" class="color-400-alpha-20"/></g><g class="animate-sink"><path fill="#fff" fill-rule="evenodd" d="M18 64h56v9.005c0 .55-.45.995-.996.995H18.996c-.55 0-.996-.456-.996-.995V64z" class="color-100" clip-rule="evenodd"/><path fill="#005CB9" fill-rule="evenodd" d="M75.528 60.71c.018.02.035.042.052.064.32.41.448.884.42 1.338v10.886A3.002 3.002 0 0 1 73.004 76H18.996A3.003 3.003 0 0 1 16 72.998V62.112a1.96 1.96 0 0 1 .472-1.403l9.35-11.22C26.556 48.608 27.86 48 29 48h34c1.145 0 2.445.61 3.177 1.489l9.351 11.22zM18 64v8.998c0 .546.446 1.002.996 1.002h54.008c.545 0 .996-.449.996-1.002V64H18zm9.36-13.231L18 62h56l-9.36-11.231C64.289 50.346 63.553 50 63 50H29c-.545 0-1.287.344-1.64.769z" class="color-500" clip-rule="evenodd"/><path fill="#A6D2FF" fill-rule="evenodd" d="M27.36 50.769C27.712 50.344 28.454 50 29 50h34c.552 0 1.288.346 1.64.769L74 62H18l9.36-11.231z" class="color-200" clip-rule="evenodd"/><path fill="#000" fill-rule="evenodd" d="M27.36 50.769C27.712 50.344 28.454 50 29 50h34c.552 0 1.288.346 1.64.769L74 62H18l9.36-11.231z" class="color-shadow" clip-rule="evenodd" opacity=".1"/><path fill="#40A0FF" fill-rule="evenodd" d="M68 66.99c0-.546.443-.99.999-.99h1.002a1 1 0 0 1 .999.99v4.02c0 .546-.443.99-.999.99h-1.002a1 1 0 0 1-.999-.99v-4.02zm-5 0c0-.546.443-.99.999-.99h1.002a1 1 0 0 1 .999.99v4.02c0 .546-.443.99-.999.99h-1.002a1 1 0 0 1-.999-.99v-4.02zm-5 0c0-.546.443-.99.999-.99h1.002a1 1 0 0 1 .999.99v4.02c0 .546-.443.99-.999.99h-1.002a1 1 0 0 1-.999-.99v-4.02z" class="color-300" clip-rule="evenodd"/><path fill="#005CB9" d="M25 70a1 1 0 1 0 0-2 1 1 0 0 0 0 2zm0 2a3 3 0 1 1 0-6 3 3 0 0 1 0 6z" class="color-500"/></g><path fill="#fff" fill-rule="evenodd" d="M18 47h56v9.005c0 .55-.45.995-.996.995H18.996c-.55 0-.996-.456-.996-.995V47z" class="color-100" clip-rule="evenodd"/><path fill="#005CB9" fill-rule="evenodd" d="M75.528 43.71c.018.02.035.042.052.064.32.41.448.884.42 1.338v10.886A3.002 3.002 0 0 1 73.004 59H18.996A3.003 3.003 0 0 1 16 55.998V45.112a1.96 1.96 0 0 1 .472-1.403l9.35-11.22C26.556 31.609 27.86 31 29 31h34c1.145 0 2.445.61 3.177 1.489l9.351 11.22zM18 47v8.998c0 .546.446 1.002.996 1.002h54.008c.545 0 .996-.449.996-1.002V47H18zm9.36-13.231L18 45h56l-9.36-11.231C64.289 33.346 63.553 33 63 33H29c-.545 0-1.287.344-1.64.769z" class="color-500" clip-rule="evenodd"/><path fill="#A6D2FF" fill-rule="evenodd" d="M27.36 33.769C27.712 33.344 28.454 33 29 33h34c.552 0 1.288.346 1.64.769L74 45H18l9.36-11.231z" class="color-200" clip-rule="evenodd"/><path fill="#000" fill-rule="evenodd" d="M27.36 33.769C27.712 33.344 28.454 33 29 33h34c.552 0 1.288.346 1.64.769L74 45H18l9.36-11.231z" class="color-shadow" clip-rule="evenodd" opacity=".1"/><path fill="#40A0FF" fill-rule="evenodd" d="M68 49.99c0-.546.443-.99.999-.99h1.002a1 1 0 0 1 .999.99v4.02c0 .546-.443.99-.999.99h-1.002a1 1 0 0 1-.999-.99v-4.02zm-5 0c0-.546.443-.99.999-.99h1.002a1 1 0 0 1 .999.99v4.02c0 .546-.443.99-.999.99h-1.002a1 1 0 0 1-.999-.99v-4.02zm-5 0c0-.546.443-.99.999-.99h1.002a1 1 0 0 1 .999.99v4.02c0 .546-.443.99-.999.99h-1.002a1 1 0 0 1-.999-.99v-4.02z" class="color-300" clip-rule="evenodd"/><path fill="#005CB9" d="M25 53a1 1 0 1 0 0-2 1 1 0 0 0 0 2zm0 2a3 3 0 1 1 0-6 3 3 0 0 1 0 6z" class="color-500"/><g class="animate-float"><path fill="#fff" fill-rule="evenodd" d="M18 30h56v9.005c0 .55-.45.995-.996.995H18.996c-.55 0-.996-.456-.996-.995V30z" class="color-100" clip-rule="evenodd"/><path fill="#005CB9" fill-rule="evenodd" d="M75.528 26.71c.018.02.035.042.052.064.32.41.448.884.42 1.338v10.886A3.002 3.002 0 0 1 73.004 42H18.996A3.003 3.003 0 0 1 16 38.998V28.113a1.96 1.96 0 0 1 .472-1.404l9.35-11.22C26.556 14.608 27.86 14 29 14h34c1.145 0 2.445.61 3.177 1.489l9.351 11.22zM18 30v8.998c0 .546.446 1.002.996 1.002h54.008c.545 0 .996-.449.996-1.002V30H18zm9.36-13.231L18 28h56l-9.36-11.231C64.289 16.346 63.553 16 63 16H29c-.545 0-1.287.344-1.64.769z" class="color-500" clip-rule="evenodd"/><path fill="#A6D2FF" fill-rule="evenodd" d="M27.36 16.769C27.712 16.344 28.454 16 29 16h34c.552 0 1.288.346 1.64.769L74 28H18l9.36-11.231z" class="color-200" clip-rule="evenodd"/><path fill="#40A0FF" fill-rule="evenodd" d="M68 32.99c0-.546.443-.99.999-.99h1.002a1 1 0 0 1 .999.99v4.02c0 .546-.443.99-.999.99h-1.002a1 1 0 0 1-.999-.99v-4.02zm-5 0c0-.546.443-.99.999-.99h1.002a1 1 0 0 1 .999.99v4.02c0 .546-.443.99-.999.99h-1.002a1 1 0 0 1-.999-.99v-4.02zm-5 0c0-.546.443-.99.999-.99h1.002a1 1 0 0 1 .999.99v4.02c0 .546-.443.99-.999.99h-1.002a1 1 0 0 1-.999-.99v-4.02z" class="color-300" clip-rule="evenodd"/><path fill="#005CB9" d="M25 36a1 1 0 1 0 0-2 1 1 0 0 0 0 2zm0 2a3 3 0 1 1 0-6 3 3 0 0 1 0 6z" class="color-500"/></g></g></svg>