<svg xmlns="http://www.w3.org/2000/svg" width="92" height="92" class="wd-applet wd-applet-designer" focusable="false" role="presentation" viewBox="0 0 92 92"><g fill="none" fill-rule="evenodd" class="wd-icon-container"><g fill="#0B77E3" fill-opacity=".2" class="animate-flood"><path d="M46 82c19.882 0 36-16.118 36-36S65.882 10 46 10 10 26.118 10 46s16.118 36 36 36z" class="color-400-alpha-20"/></g><g class="animate-shrink"><path fill="#005CB9" fill-rule="nonzero" d="M12 17c0-1.66 1.341-3 3.005-3h61.99A2.998 2.998 0 0 1 80 17v57c0 1.66-1.341 3-3.005 3h-61.99A2.998 2.998 0 0 1 12 74V17z" class="color-500"/><path fill="#FFF" d="M14 26v47.999A1 1 0 0 0 14.993 75H32V26H14zm20 0h44v49H34.993A1 1 0 0 1 34 73.999V26z" class="color-100"/><path fill="#40A0FF" d="M14 16.997c0-.55.443-.997 1.005-.997h61.99c.555 0 1.005.453 1.005.997V24H14v-7.003zm4 14c0-.55.456-.997.995-.997h8.01a1 1 0 0 1 .995.997v6.006c0 .55-.456.997-.995.997h-8.01a1 1 0 0 1-.995-.997v-6.006zm0 11c0-.55.456-.997.995-.997h8.01a1 1 0 0 1 .995.997v6.006c0 .55-.456.997-.995.997h-8.01a1 1 0 0 1-.995-.997v-6.006zm0 11c0-.55.456-.997.995-.997h8.01a1 1 0 0 1 .995.997v6.006c0 .55-.456.997-.995.997h-8.01a1 1 0 0 1-.995-.997v-6.006zm0 11c0-.55.456-.997.995-.997h8.01a1 1 0 0 1 .995.997v6.006c0 .55-.456.997-.995.997h-8.01a1 1 0 0 1-.995-.997v-6.006z" class="color-300"/><path fill="#0B77E3" d="M38 30.999A1 1 0 0 1 39 30h22c.552 0 1 .443 1 .999v1.002A1 1 0 0 1 61 33H39c-.552 0-1-.443-1-.999v-1.002zm0 5c0-.552.443-.999.999-.999h1.002c.552 0 .999.443.999.999v1.002a.996.996 0 0 1-.999.999h-1.002a.996.996 0 0 1-.999-.999v-1.002zm5 0c0-.552.455-.999.995-.999h23.01c.55 0 .995.443.995.999v1.002c0 .552-.455.999-.995.999h-23.01a.994.994 0 0 1-.995-.999v-1.002zm21-5c0-.552.446-.999.998-.999h7.004c.551 0 .998.443.998.999v1.002a.998.998 0 0 1-.998.999h-7.004a.995.995 0 0 1-.998-.999v-1.002z" class="color-400"/><path fill="#005CB9" fill-rule="nonzero" d="M39.5 43.5h1a1 1 0 0 0 0-2h-1a1 1 0 0 0 0 2zm4 0h1a1 1 0 0 0 0-2h-1a1 1 0 0 0 0 2zm4 0h1a1 1 0 0 0 0-2h-1a1 1 0 0 0 0 2zm4 0h1a1 1 0 0 0 0-2h-1a1 1 0 0 0 0 2zm4 0h1a1 1 0 0 0 0-2h-1a1 1 0 0 0 0 2zm4 0h1a1 1 0 0 0 0-2h-1a1 1 0 0 0 0 2zm4 0h1a1 1 0 0 0 0-2h-1a1 1 0 0 0 0 2zm4 0h1a1 1 0 0 0 0-2h-1a1 1 0 0 0 0 2zm4 0h1a1 1 0 0 0 0-2h-1a1 1 0 0 0 0 2zm0 2v1a1 1 0 0 0 2 0v-1a1 1 0 0 0-2 0zm0 4v1a1 1 0 0 0 2 0v-1a1 1 0 0 0-2 0zm0 4v1a1 1 0 0 0 2 0v-1a1 1 0 0 0-2 0zm1 3h-1a1 1 0 0 0 0 2h1a1 1 0 0 0 0-2zm-4 0h-1a1 1 0 0 0 0 2h1a1 1 0 0 0 0-2zm-4 0h-1a1 1 0 0 0 0 2h1a1 1 0 0 0 0-2zm-4 0h-1a1 1 0 0 0 0 2h1a1 1 0 0 0 0-2zm-4 0h-1a1 1 0 0 0 0 2h1a1 1 0 0 0 0-2zm-4 0h-1a1 1 0 0 0 0 2h1a1 1 0 0 0 0-2zm-4 0h-1a1 1 0 0 0 0 2h1a1 1 0 0 0 0-2zm-4 0h-1a1 1 0 0 0 0 2h1a1 1 0 0 0 0-2zm-4 0h-1a1 1 0 0 0 0 2h1a1 1 0 0 0 0-2zm0-2v-1a1 1 0 0 0-2 0v1a1 1 0 0 0 2 0zm0-4v-1a1 1 0 0 0-2 0v1a1 1 0 0 0 2 0zm0-4v-1a1 1 0 0 0-2 0v1a1 1 0 0 0 2 0zm-1 16.5h1a1 1 0 0 0 0-2h-1a1 1 0 0 0 0 2zm4 0h1a1 1 0 0 0 0-2h-1a1 1 0 0 0 0 2zm4 0h1a1 1 0 0 0 0-2h-1a1 1 0 0 0 0 2zm4 0h1a1 1 0 0 0 0-2h-1a1 1 0 0 0 0 2zm3-1v1a1 1 0 0 0 2 0v-1a1 1 0 0 0-2 0zm0 4v1a1 1 0 0 0 2 0v-1a1 1 0 0 0-2 0zm1 3h-1a1 1 0 0 0 0 2h1a1 1 0 0 0 0-2zm-4 0h-1a1 1 0 0 0 0 2h1a1 1 0 0 0 0-2zm-4 0h-1a1 1 0 0 0 0 2h1a1 1 0 0 0 0-2zm-4 0h-1a1 1 0 0 0 0 2h1a1 1 0 0 0 0-2zm-3 1v-1a1 1 0 0 0-2 0v1a1 1 0 0 0 2 0zm0-4v-1a1 1 0 0 0-2 0v1a1 1 0 0 0 2 0zm20-3h1a1 1 0 0 0 0-2h-1a1 1 0 0 0 0 2zm4 0h1a1 1 0 0 0 0-2h-1a1 1 0 0 0 0 2zm4 0h1a1 1 0 0 0 0-2h-1a1 1 0 0 0 0 2zm3-1v1a1 1 0 0 0 2 0v-1a1 1 0 0 0-2 0zm0 4v1a1 1 0 0 0 2 0v-1a1 1 0 0 0-2 0zm1 3h-1a1 1 0 0 0 0 2h1a1 1 0 0 0 0-2zm-4 0h-1a1 1 0 0 0 0 2h1a1 1 0 0 0 0-2zm-4 0h-1a1 1 0 0 0 0 2h1a1 1 0 0 0 0-2zm-3 1v-1a1 1 0 0 0-2 0v1a1 1 0 0 0 2 0zm0-4v-1a1 1 0 0 0-2 0v1a1 1 0 0 0 2 0zM18 22a2 2 0 1 0 0-4 2 2 0 0 0 0 4zm6 0a2 2 0 1 0 0-4 2 2 0 0 0 0 4zm6 0a2 2 0 1 0 0-4 2 2 0 0 0 0 4z" class="color-500"/></g></g></svg>