<svg xmlns="http://www.w3.org/2000/svg" width="92" height="92" class="wd-applet wd-applet-developer-recent-activity" focusable="false" role="presentation" viewBox="0 0 92 92"><g fill="none" fill-rule="evenodd" class="wd-icon-container"><g fill="#0B77E3" fill-opacity=".2" class="animate-flood"><path d="M46 82c19.882 0 36-16.118 36-36S65.882 10 46 10 10 26.118 10 46s16.118 36 36 36z" class="color-400-alpha-20"/></g><g class="animate-shrink"><path fill="#FFF" d="M14 27v47.999A1 1 0 0 0 14.993 76h62.005C77.55 76 78 75.546 78 74.999V27H14z" class="color-100"/><path fill="#40A0FF" d="M19 69.001A1 1 0 0 0 20 70h22c.552 0 1-.443 1-.999v-1.002A1 1 0 0 0 42 67H20c-.552 0-1 .443-1 .999v1.002zm26 0c0 .552.446.999.998.999h7.004c.551 0 .998-.443.998-.999v-1.002a.998.998 0 0 0-.998-.999h-7.004a.995.995 0 0 0-.998.999v1.002zm11 0c0 .552.443.999.999.999h1.002a.996.996 0 0 0 .999-.999v-1.002a.996.996 0 0 0-.999-.999h-1.002a.996.996 0 0 0-.999.999v1.002zm5 0c0 .552.443.999.999.999h1.002a.996.996 0 0 0 .999-.999v-1.002a.996.996 0 0 0-.999-.999h-1.002a.996.996 0 0 0-.999.999v1.002zm-42-5c0 .552.443.999.999.999h1.002a.996.996 0 0 0 .999-.999v-1.002a.996.996 0 0 0-.999-.999h-1.002a.996.996 0 0 0-.999.999v1.002zm5 0c0 .552.455.999.995.999h23.01c.55 0 .995-.443.995-.999v-1.002c0-.552-.455-.999-.995-.999h-23.01a.994.994 0 0 0-.995.999v1.002zm27 0c0 .552.44.999 1.002.999h19.996A.998.998 0 0 0 73 64.001v-1.002A.995.995 0 0 0 71.998 62H52.002a.998.998 0 0 0-1.002.999v1.002zm-32-5c0 .552.449.999 1.007.999h12.986A1 1 0 0 0 34 59.001v-1.002c0-.552-.449-.999-1.007-.999H20.007a1 1 0 0 0-1.007.999v1.002zm17 0c0 .552.443.999.999.999h1.002a.996.996 0 0 0 .999-.999v-1.002a.996.996 0 0 0-.999-.999h-1.002a.996.996 0 0 0-.999.999v1.002zm5 0c0 .552.443.999.999.999h1.002a.996.996 0 0 0 .999-.999v-1.002a.996.996 0 0 0-.999-.999h-1.002a.996.996 0 0 0-.999.999v1.002zm5 0c0 .552.445.999 1 .999h14c.552 0 1-.443 1-.999v-1.002A.998.998 0 0 0 61 57H47c-.552 0-1 .443-1 .999v1.002zm-27-5c0 .552.446.999.998.999h7.004c.551 0 .998-.443.998-.999v-1.002a.998.998 0 0 0-.998-.999h-7.004a.995.995 0 0 0-.998.999v1.002zm11 0c0 .552.45.999 1.007.999h11.986A1 1 0 0 0 44 54.001v-1.002c0-.552-.45-.999-1.007-.999H31.007a1 1 0 0 0-1.007.999v1.002zm16 0c0 .552.439.999 1.003.999h20.994A.998.998 0 0 0 69 54.001v-1.002A.995.995 0 0 0 67.997 52H47.003a.998.998 0 0 0-1.003.999v1.002zm-27-5c0 .552.444.999 1 .999h3c.552 0 1-.443 1-.999v-1.002A.997.997 0 0 0 23 47h-3c-.552 0-1 .443-1 .999v1.002zm7 0c0 .552.443.999.999.999h1.002a.996.996 0 0 0 .999-.999v-1.002a.996.996 0 0 0-.999-.999h-1.002a.996.996 0 0 0-.999.999v1.002zm5 0c0 .552.456.999.995.999h8.01c.55 0 .995-.443.995-.999v-1.002c0-.552-.456-.999-.995-.999h-8.01a.994.994 0 0 0-.995.999v1.002zm-12-5a1 1 0 0 0 .995.999h17.01c.55 0 .995-.443.995-.999v-1.002a1 1 0 0 0-.995-.999h-17.01a.994.994 0 0 0-.995.999v1.002zm0-5c0 .552.45.999 1.007.999h11.986A1 1 0 0 0 33 39.001v-1.002c0-.552-.45-.999-1.007-.999H20.007a1 1 0 0 0-1.007.999v1.002zm16 0c0 .552.443.999.999.999h1.002a.996.996 0 0 0 .999-.999v-1.002a.996.996 0 0 0-.999-.999h-1.002a.996.996 0 0 0-.999.999v1.002zm-16-5c0 .552.443.999.999.999h1.002a.996.996 0 0 0 .999-.999v-1.002a.996.996 0 0 0-.999-.999h-1.002a.996.996 0 0 0-.999.999v1.002zm5 0c0 .552.443.999.999.999h1.002a.996.996 0 0 0 .999-.999v-1.002a.996.996 0 0 0-.999-.999h-1.002a.996.996 0 0 0-.999.999v1.002zm5 0c0 .552.456.999 1.002.999h9.996A.998.998 0 0 0 41 34.001v-1.002c0-.552-.456-.999-1.002-.999h-9.996a.998.998 0 0 0-1.002.999v1.002zM14 17.997c0-.55.443-.997 1.005-.997h61.99c.555 0 1.005.453 1.005.997V25H14v-7.003z" class="color-300"/><path fill="#A6D2FF" d="M56 69.001c0 .552.443.999.999.999h1.002a.996.996 0 0 0 .999-.999v-1.002a.996.996 0 0 0-.999-.999h-1.002a.996.996 0 0 0-.999.999v1.002zm-37-5c0 .552.443.999.999.999h1.002a.996.996 0 0 0 .999-.999v-1.002a.996.996 0 0 0-.999-.999h-1.002a.996.996 0 0 0-.999.999v1.002zm32 0c0 .552.44.999 1.002.999h19.996A.998.998 0 0 0 73 64.001v-1.002A.995.995 0 0 0 71.998 62H52.002a.998.998 0 0 0-1.002.999v1.002zm-15-5c0 .552.443.999.999.999h1.002a.996.996 0 0 0 .999-.999v-1.002a.996.996 0 0 0-.999-.999h-1.002a.996.996 0 0 0-.999.999v1.002zm5 0c0 .552.443.999.999.999h1.002a.996.996 0 0 0 .999-.999v-1.002a.996.996 0 0 0-.999-.999h-1.002a.996.996 0 0 0-.999.999v1.002zm-22-5c0 .552.446.999.998.999h7.004c.551 0 .998-.443.998-.999v-1.002a.998.998 0 0 0-.998-.999h-7.004a.995.995 0 0 0-.998.999v1.002zm12-5c0 .552.456.999.995.999h8.01c.55 0 .995-.443.995-.999v-1.002c0-.552-.456-.999-.995-.999h-8.01a.994.994 0 0 0-.995.999v1.002zm-12-10c0 .552.45.999 1.007.999h11.986A1 1 0 0 0 33 39.001v-1.002c0-.552-.45-.999-1.007-.999H20.007a1 1 0 0 0-1.007.999v1.002zm5-5c0 .552.443.999.999.999h1.002a.996.996 0 0 0 .999-.999v-1.002a.996.996 0 0 0-.999-.999h-1.002a.996.996 0 0 0-.999.999v1.002z" class="color-200"/><path fill="#005CB9" fill-rule="nonzero" d="M76.995 15A2.998 2.998 0 0 1 80 18v57c0 1.66-1.341 3-3.005 3h-61.99A2.998 2.998 0 0 1 12 75V18c0-1.66 1.341-3 3.005-3h61.99zM78 27H14v47.999A1 1 0 0 0 14.993 76h62.005C77.55 76 78 75.546 78 74.999V27zm-1.005-10h-61.99a.997.997 0 0 0-1.005.997V25h64v-7.003c0-.544-.45-.997-1.005-.997zM65.293 35.05l4.95 4.95-4.95 4.95a1 1 0 1 0 1.414 1.414l5.657-5.657a1 1 0 0 0 0-1.414l-5.657-5.657a1 1 0 0 0-1.414 1.414zm-13.929 0a1 1 0 1 0-1.414-1.414l-5.657 5.657a1 1 0 0 0 0 1.414l5.657 5.657a1 1 0 1 0 1.414-1.414L46.414 40l4.95-4.95zm8.713-1.435c.513-1.23 2.359-.461 1.846.77l-5 12c-.513 1.23-2.359.461-1.846-.77zM18 19a2 2 0 1 1 0 4 2 2 0 0 1 0-4zm6 0a2 2 0 1 1 0 4 2 2 0 0 1 0-4zm6 0a2 2 0 1 1 0 4 2 2 0 0 1 0-4z" class="color-500"/><path fill="#000" d="M67 49c5.11 0 9.724 2.13 13 5.55v20.443A3 3 0 0 1 76.992 78h-24.24A17.922 17.922 0 0 1 49 67c0-9.941 8.059-18 18-18z" class="color-shadow" opacity=".1"/></g><g class="animate-spin"><path fill="#005CB9" fill-rule="nonzero" d="M69 84.943c8.805 0 15.943-7.138 15.943-15.943S77.805 53.057 69 53.057 53.057 60.195 53.057 69 60.195 84.943 69 84.943zM69 87c-9.941 0-18-8.059-18-18s8.059-18 18-18 18 8.059 18 18-8.059 18-18 18z" class="color-500"/><path fill="#40A0FF" fill-rule="nonzero" d="M69 85c-8.837 0-16-7.163-16-16s7.163-16 16-16 16 7.163 16 16-7.163 16-16 16z" class="color-300"/><path fill="#005CB9" fill-rule="nonzero" d="M69 79.92c6.03 0 10.92-4.89 10.92-10.92S75.03 58.08 69 58.08 58.08 62.97 58.08 69 62.97 79.92 69 79.92zM69 82c-7.18 0-13-5.82-13-13s5.82-13 13-13 13 5.82 13 13-5.82 13-13 13z" class="color-500"/><path fill="#FFF" d="M69 80c6.075 0 11-4.925 11-11s-4.925-11-11-11-11 4.925-11 11 4.925 11 11 11z" class="color-100"/><path fill="#005CB9" fill-rule="nonzero" d="M69 72a3 3 0 1 1 0-6 3 3 0 0 1 0 6zm-.022-2a1 1 0 1 0 0-2 1 1 0 0 0 0 2z" class="color-500"/><path fill="#005CB9" fill-rule="nonzero" d="M71.566 68.427l4.01-4.785a1 1 0 1 0-1.534-1.284l-4.009 4.784a1 1 0 0 0 1.533 1.285zm-3.975-.658l-4.205-2.435a.77.77 0 1 0-.772 1.332l4.206 2.435a.77.77 0 1 0 .771-1.332z" class="color-500"/></g></g></svg>