<svg xmlns="http://www.w3.org/2000/svg" width="92" height="92" class="wd-applet wd-applet-development" focusable="false" role="presentation" viewBox="0 0 92 92"><g fill="none" fill-rule="evenodd" class="wd-icon-container"><g fill="#0B77E3" fill-opacity=".2" class="animate-flood"><path d="M46 82c19.882 0 36-16.118 36-36S65.882 10 46 10 10 26.118 10 46s16.118 36 36 36z" class="color-400-alpha-20"/></g><g class="animate-shrink"><path fill="#FFF" d="M14 27v47.999A1 1 0 0 0 14.993 76h62.005C77.55 76 78 75.546 78 74.999V27H14z" class="color-100"/><path fill="#40A0FF" d="M19 32.999A1 1 0 0 1 20 32h22c.552 0 1 .443 1 .999v1.002A1 1 0 0 1 42 35H20c-.552 0-1-.443-1-.999v-1.002zm26 0c0-.552.446-.999.998-.999h7.004c.551 0 .998.443.998.999v1.002a.998.998 0 0 1-.998.999h-7.004a.995.995 0 0 1-.998-.999v-1.002zm11 0c0-.552.443-.999.999-.999h1.002c.552 0 .999.443.999.999v1.002a.996.996 0 0 1-.999.999h-1.002a.996.996 0 0 1-.999-.999v-1.002zm5 0c0-.552.443-.999.999-.999h1.002c.552 0 .999.443.999.999v1.002a.996.996 0 0 1-.999.999h-1.002a.996.996 0 0 1-.999-.999v-1.002zm-42 5c0-.552.443-.999.999-.999h1.002c.552 0 .999.443.999.999v1.002a.996.996 0 0 1-.999.999h-1.002a.996.996 0 0 1-.999-.999v-1.002zm5 0c0-.552.455-.999.995-.999h23.01c.55 0 .995.443.995.999v1.002c0 .552-.455.999-.995.999h-23.01a.994.994 0 0 1-.995-.999v-1.002zm27 0c0-.552.44-.999 1.002-.999h19.996a.998.998 0 0 1 1.002.999v1.002c0 .552-.44.999-1.002.999H52.002A.998.998 0 0 1 51 39.001v-1.002zm-32 5c0-.552.449-.999 1.007-.999h12.986a1 1 0 0 1 1.007.999v1.002c0 .552-.449.999-1.007.999H20.007A1 1 0 0 1 19 44.001v-1.002zm17 0c0-.552.443-.999.999-.999h1.002c.552 0 .999.443.999.999v1.002a.996.996 0 0 1-.999.999h-1.002a.996.996 0 0 1-.999-.999v-1.002zm5 0c0-.552.443-.999.999-.999h1.002c.552 0 .999.443.999.999v1.002a.996.996 0 0 1-.999.999h-1.002a.996.996 0 0 1-.999-.999v-1.002zm5 0A.998.998 0 0 1 47 42h14c.552 0 1 .443 1 .999v1.002A.998.998 0 0 1 61 45H47c-.552 0-1-.443-1-.999v-1.002zm-27 5c0-.552.446-.999.998-.999h7.004c.551 0 .998.443.998.999v1.002a.998.998 0 0 1-.998.999h-7.004a.995.995 0 0 1-.998-.999v-1.002zm11 0c0-.552.45-.999 1.007-.999h11.986a1 1 0 0 1 1.007.999v1.002c0 .552-.45.999-1.007.999H31.007A1 1 0 0 1 30 49.001v-1.002zm16 0A.995.995 0 0 1 47.003 47h20.994a.998.998 0 0 1 1.003.999v1.002a.995.995 0 0 1-1.003.999H47.003A.998.998 0 0 1 46 49.001v-1.002zm-27 5A.997.997 0 0 1 20 52h3c.552 0 1 .443 1 .999v1.002A.997.997 0 0 1 23 55h-3c-.552 0-1-.443-1-.999v-1.002zm7 0c0-.552.443-.999.999-.999h1.002c.552 0 .999.443.999.999v1.002a.996.996 0 0 1-.999.999h-1.002a.996.996 0 0 1-.999-.999v-1.002zm5 0c0-.552.456-.999.995-.999h8.01c.55 0 .995.443.995.999v1.002c0 .552-.456.999-.995.999h-8.01a.994.994 0 0 1-.995-.999v-1.002zm-12 5a1 1 0 0 1 .995-.999h17.01c.55 0 .995.443.995.999v1.002a1 1 0 0 1-.995.999h-17.01a.994.994 0 0 1-.995-.999v-1.002zm0 5c0-.552.45-.999 1.007-.999h11.986a1 1 0 0 1 1.007.999v1.002c0 .552-.45.999-1.007.999H20.007A1 1 0 0 1 19 64.001v-1.002zm16 0c0-.552.443-.999.999-.999h1.002c.552 0 .999.443.999.999v1.002a.996.996 0 0 1-.999.999h-1.002a.996.996 0 0 1-.999-.999v-1.002zm-16 5c0-.552.443-.999.999-.999h1.002c.552 0 .999.443.999.999v1.002a.996.996 0 0 1-.999.999h-1.002a.996.996 0 0 1-.999-.999v-1.002zm5 0c0-.552.443-.999.999-.999h1.002c.552 0 .999.443.999.999v1.002a.996.996 0 0 1-.999.999h-1.002a.996.996 0 0 1-.999-.999v-1.002zm5 0c0-.552.456-.999 1.002-.999h9.996a.998.998 0 0 1 1.002.999v1.002c0 .552-.456.999-1.002.999h-9.996A.998.998 0 0 1 29 69.001v-1.002zM14 17.997c0-.55.443-.997 1.005-.997h61.99c.555 0 1.005.453 1.005.997V25H14v-7.003z" class="color-300"/><path fill="#A6D2FF" d="M56 32.999c0-.552.443-.999.999-.999h1.002c.552 0 .999.443.999.999v1.002a.996.996 0 0 1-.999.999h-1.002a.996.996 0 0 1-.999-.999v-1.002zm-37 5c0-.552.443-.999.999-.999h1.002c.552 0 .999.443.999.999v1.002a.996.996 0 0 1-.999.999h-1.002a.996.996 0 0 1-.999-.999v-1.002zm32 0c0-.552.44-.999 1.002-.999h19.996a.998.998 0 0 1 1.002.999v1.002c0 .552-.44.999-1.002.999H52.002A.998.998 0 0 1 51 39.001v-1.002zm-15 5c0-.552.443-.999.999-.999h1.002c.552 0 .999.443.999.999v1.002a.996.996 0 0 1-.999.999h-1.002a.996.996 0 0 1-.999-.999v-1.002zm5 0c0-.552.443-.999.999-.999h1.002c.552 0 .999.443.999.999v1.002a.996.996 0 0 1-.999.999h-1.002a.996.996 0 0 1-.999-.999v-1.002zm-22 5c0-.552.446-.999.998-.999h7.004c.551 0 .998.443.998.999v1.002a.998.998 0 0 1-.998.999h-7.004a.995.995 0 0 1-.998-.999v-1.002zm12 5c0-.552.456-.999.995-.999h8.01c.55 0 .995.443.995.999v1.002c0 .552-.456.999-.995.999h-8.01a.994.994 0 0 1-.995-.999v-1.002zm-12 10c0-.552.45-.999 1.007-.999h11.986a1 1 0 0 1 1.007.999v1.002c0 .552-.45.999-1.007.999H20.007A1 1 0 0 1 19 64.001v-1.002zm5 5c0-.552.443-.999.999-.999h1.002c.552 0 .999.443.999.999v1.002a.996.996 0 0 1-.999.999h-1.002a.996.996 0 0 1-.999-.999v-1.002z" class="color-200"/><path fill="#005CB9" fill-rule="nonzero" d="M12 18c0-1.66 1.341-3 3.005-3h61.99A2.998 2.998 0 0 1 80 18v57c0 1.66-1.341 3-3.005 3h-61.99A2.998 2.998 0 0 1 12 75V18zm2 9v47.999A1 1 0 0 0 14.993 76h62.005C77.55 76 78 75.546 78 74.999V27H14zm0-9.003V25h64v-7.003c0-.544-.45-.997-1.005-.997h-61.99a.997.997 0 0 0-1.005.997zM65.293 66.95l4.95-4.95-4.95-4.95a1 1 0 1 1 1.414-1.414l5.657 5.657a1 1 0 0 1 0 1.414l-5.657 5.657a1 1 0 0 1-1.414-1.414zm-13.929 0a1 1 0 1 1-1.414 1.414l-5.657-5.657a1 1 0 0 1 0-1.414l5.657-5.657a1 1 0 1 1 1.414 1.414L46.414 62l4.95 4.95zm3.713.665l5-12c.513-1.23 2.359-.461 1.846.77l-5 12c-.513 1.23-2.359.461-1.846-.77zM18 23a2 2 0 1 1 0-4 2 2 0 0 1 0 4zm6 0a2 2 0 1 1 0-4 2 2 0 0 1 0 4zm6 0a2 2 0 1 1 0-4 2 2 0 0 1 0 4z" class="color-500"/></g></g></svg>