<svg xmlns="http://www.w3.org/2000/svg" width="92" height="92" class="wd-applet wd-applet-developer-quicklinks" focusable="false" role="presentation" viewBox="0 0 92 92"><g fill="none" fill-rule="evenodd" class="wd-icon-container"><g fill="#0B77E3" fill-opacity=".2" class="animate-flood"><path d="M46 82c19.882 0 36-16.118 36-36S65.882 10 46 10 10 26.118 10 46s16.118 36 36 36z" class="color-400-alpha-20"/></g><g class="animate-shrink"><path fill="#FFF" d="M14 27v47.999A1 1 0 0 0 14.993 76h62.005C77.55 76 78 75.546 78 74.999V27H14z" class="color-100"/><path fill="#40A0FF" d="M19 69.001A1 1 0 0 0 20 70h22c.552 0 1-.443 1-.999v-1.002A1 1 0 0 0 42 67H20c-.552 0-1 .443-1 .999v1.002zm26 0c0 .552.446.999.998.999h7.004c.551 0 .998-.443.998-.999v-1.002a.998.998 0 0 0-.998-.999h-7.004a.995.995 0 0 0-.998.999v1.002zm11 0c0 .552.443.999.999.999h1.002a.996.996 0 0 0 .999-.999v-1.002a.996.996 0 0 0-.999-.999h-1.002a.996.996 0 0 0-.999.999v1.002zm5 0c0 .552.443.999.999.999h1.002a.996.996 0 0 0 .999-.999v-1.002a.996.996 0 0 0-.999-.999h-1.002a.996.996 0 0 0-.999.999v1.002zm-42-5c0 .552.443.999.999.999h1.002a.996.996 0 0 0 .999-.999v-1.002a.996.996 0 0 0-.999-.999h-1.002a.996.996 0 0 0-.999.999v1.002zm5 0c0 .552.455.999.995.999h23.01c.55 0 .995-.443.995-.999v-1.002c0-.552-.455-.999-.995-.999h-23.01a.994.994 0 0 0-.995.999v1.002zm27 0c0 .552.44.999 1.002.999h19.996A.998.998 0 0 0 73 64.001v-1.002A.995.995 0 0 0 71.998 62H52.002a.998.998 0 0 0-1.002.999v1.002zm-32-5c0 .552.449.999 1.007.999h12.986A1 1 0 0 0 34 59.001v-1.002c0-.552-.449-.999-1.007-.999H20.007a1 1 0 0 0-1.007.999v1.002zm17 0c0 .552.443.999.999.999h1.002a.996.996 0 0 0 .999-.999v-1.002a.996.996 0 0 0-.999-.999h-1.002a.996.996 0 0 0-.999.999v1.002zm5 0c0 .552.443.999.999.999h1.002a.996.996 0 0 0 .999-.999v-1.002a.996.996 0 0 0-.999-.999h-1.002a.996.996 0 0 0-.999.999v1.002zm5 0c0 .552.445.999 1 .999h14c.552 0 1-.443 1-.999v-1.002A.998.998 0 0 0 61 57H47c-.552 0-1 .443-1 .999v1.002zm-27-5c0 .552.446.999.998.999h7.004c.551 0 .998-.443.998-.999v-1.002a.998.998 0 0 0-.998-.999h-7.004a.995.995 0 0 0-.998.999v1.002zm11 0c0 .552.45.999 1.007.999h11.986A1 1 0 0 0 44 54.001v-1.002c0-.552-.45-.999-1.007-.999H31.007a1 1 0 0 0-1.007.999v1.002zm16 0c0 .552.439.999 1.003.999h20.994A.998.998 0 0 0 69 54.001v-1.002A.995.995 0 0 0 67.997 52H47.003a.998.998 0 0 0-1.003.999v1.002zm-27-5c0 .552.444.999 1 .999h3c.552 0 1-.443 1-.999v-1.002A.997.997 0 0 0 23 47h-3c-.552 0-1 .443-1 .999v1.002zm7 0c0 .552.443.999.999.999h1.002a.996.996 0 0 0 .999-.999v-1.002a.996.996 0 0 0-.999-.999h-1.002a.996.996 0 0 0-.999.999v1.002zm5 0c0 .552.456.999.995.999h8.01c.55 0 .995-.443.995-.999v-1.002c0-.552-.456-.999-.995-.999h-8.01a.994.994 0 0 0-.995.999v1.002zm-12-5a1 1 0 0 0 .995.999h17.01c.55 0 .995-.443.995-.999v-1.002a1 1 0 0 0-.995-.999h-17.01a.994.994 0 0 0-.995.999v1.002zm0-5c0 .552.45.999 1.007.999h11.986A1 1 0 0 0 33 39.001v-1.002c0-.552-.45-.999-1.007-.999H20.007a1 1 0 0 0-1.007.999v1.002zm16 0c0 .552.443.999.999.999h1.002a.996.996 0 0 0 .999-.999v-1.002a.996.996 0 0 0-.999-.999h-1.002a.996.996 0 0 0-.999.999v1.002zm-16-5c0 .552.443.999.999.999h1.002a.996.996 0 0 0 .999-.999v-1.002a.996.996 0 0 0-.999-.999h-1.002a.996.996 0 0 0-.999.999v1.002zm5 0c0 .552.443.999.999.999h1.002a.996.996 0 0 0 .999-.999v-1.002a.996.996 0 0 0-.999-.999h-1.002a.996.996 0 0 0-.999.999v1.002zm5 0c0 .552.456.999 1.002.999h9.996A.998.998 0 0 0 41 34.001v-1.002c0-.552-.456-.999-1.002-.999h-9.996a.998.998 0 0 0-1.002.999v1.002zM14 17.997c0-.55.443-.997 1.005-.997h61.99c.555 0 1.005.453 1.005.997V25H14v-7.003z" class="color-300"/><path fill="#A6D2FF" d="M56 69.001c0 .552.443.999.999.999h1.002a.996.996 0 0 0 .999-.999v-1.002a.996.996 0 0 0-.999-.999h-1.002a.996.996 0 0 0-.999.999v1.002zm-37-5c0 .552.443.999.999.999h1.002a.996.996 0 0 0 .999-.999v-1.002a.996.996 0 0 0-.999-.999h-1.002a.996.996 0 0 0-.999.999v1.002zm32 0c0 .552.44.999 1.002.999h19.996A.998.998 0 0 0 73 64.001v-1.002A.995.995 0 0 0 71.998 62H52.002a.998.998 0 0 0-1.002.999v1.002zm-15-5c0 .552.443.999.999.999h1.002a.996.996 0 0 0 .999-.999v-1.002a.996.996 0 0 0-.999-.999h-1.002a.996.996 0 0 0-.999.999v1.002zm5 0c0 .552.443.999.999.999h1.002a.996.996 0 0 0 .999-.999v-1.002a.996.996 0 0 0-.999-.999h-1.002a.996.996 0 0 0-.999.999v1.002zm-22-5c0 .552.446.999.998.999h7.004c.551 0 .998-.443.998-.999v-1.002a.998.998 0 0 0-.998-.999h-7.004a.995.995 0 0 0-.998.999v1.002zm12-5c0 .552.456.999.995.999h8.01c.55 0 .995-.443.995-.999v-1.002c0-.552-.456-.999-.995-.999h-8.01a.994.994 0 0 0-.995.999v1.002zm-12-10c0 .552.45.999 1.007.999h11.986A1 1 0 0 0 33 39.001v-1.002c0-.552-.45-.999-1.007-.999H20.007a1 1 0 0 0-1.007.999v1.002zm5-5c0 .552.443.999.999.999h1.002a.996.996 0 0 0 .999-.999v-1.002a.996.996 0 0 0-.999-.999h-1.002a.996.996 0 0 0-.999.999v1.002z" class="color-200"/><path fill="#005CB9" fill-rule="nonzero" d="M76.995 15A2.998 2.998 0 0 1 80 18v57c0 1.66-1.341 3-3.005 3h-61.99A2.998 2.998 0 0 1 12 75V18c0-1.66 1.341-3 3.005-3h61.99zM78 27H14v47.999A1 1 0 0 0 14.993 76h62.005C77.55 76 78 75.546 78 74.999V27zm-1.005-10h-61.99a.997.997 0 0 0-1.005.997V25h64v-7.003c0-.544-.45-.997-1.005-.997zM65.293 35.05l4.95 4.95-4.95 4.95a1 1 0 1 0 1.414 1.414l5.657-5.657a1 1 0 0 0 0-1.414l-5.657-5.657a1 1 0 0 0-1.414 1.414zm-13.929 0a1 1 0 1 0-1.414-1.414l-5.657 5.657a1 1 0 0 0 0 1.414l5.657 5.657a1 1 0 1 0 1.414-1.414L46.414 40l4.95-4.95zm8.713-1.435c.513-1.23 2.359-.461 1.846.77l-5 12c-.513 1.23-2.359.461-1.846-.77zM18 19a2 2 0 1 1 0 4 2 2 0 0 1 0-4zm6 0a2 2 0 1 1 0 4 2 2 0 0 1 0-4zm6 0a2 2 0 1 1 0 4 2 2 0 0 1 0-4z" class="color-500"/></g><g class="animate-float-right"><path fill="#000" d="M72.903 44.893L80 51.99v10.7l-7.128 7.13c-1.765 1.765-4.314.686-4.312-1.803l.004-4.011c-.971.114-2.132.44-3.487 1.061-1.217.557-2.377 1.346-3.461 2.31a18.61 18.61 0 0 0-2.186 2.314 12.5 12.5 0 0 0-.723.987l-.062.092c-1.44 2.024-4.182 1.41-4.499-1.051a6.12 6.12 0 0 1-.066-.39c-.466-3.337.723-7.507 4.753-11.765 3.192-3.373 6.599-5.444 9.743-6.542l.004-4.339c.002-2.491 2.568-3.545 4.323-1.79z" class="color-shadow" opacity=".1"/><path fill="#40A0FF" d="M72.566 64.061l-.006 5.958c0 .718.402.883.898.386L83.623 60.24a1.286 1.286 0 0 0-.008-1.806L73.49 48.307c-.497-.496-.908-.332-.909.378l-.005 5.817c-1.645.428-6.018 1.922-10.29 6.436-5.404 5.712-4.163 10.452-4.163 10.452.057.7.481.8.893.22 0 0 2.706-4.29 7.229-6.361 3.151-1.444 5.305-1.367 6.322-1.188z" class="color-300"/><path fill="#005CB9" fill-rule="nonzero" d="M72.56 70.02c0 .717.402.882.898.385L83.623 60.24a1.286 1.286 0 0 0-.008-1.806L73.49 48.307c-.497-.496-.908-.332-.909.378l-.005 5.817c-1.645.428-6.018 1.922-10.29 6.436-5.404 5.712-4.163 10.452-4.163 10.452.057.7.481.8.893.22 0 0 2.706-4.29 7.229-6.361 3.151-1.444 5.305-1.367 6.322-1.188l-.006 5.958zm-5.483-2.953c-1.217.557-2.377 1.346-3.461 2.31a18.61 18.61 0 0 0-2.186 2.314 12.5 12.5 0 0 0-.723.987l-.062.092c-1.44 2.024-4.182 1.41-4.499-1.051a6.12 6.12 0 0 1-.066-.39c-.466-3.337.723-7.507 4.753-11.765 3.192-3.373 6.599-5.444 9.743-6.542l.004-4.339c.002-2.491 2.568-3.545 4.323-1.79l10.126 10.126a3.286 3.286 0 0 1 .009 4.635L74.872 71.82c-1.765 1.765-4.314.686-4.312-1.803l.004-4.011c-.971.114-2.132.44-3.487 1.061z" class="color-500"/></g></g></svg>