<svg xmlns="http://www.w3.org/2000/svg" width="92" height="92" class="wd-applet wd-applet-diamond" focusable="false" role="presentation" viewBox="0 0 92 92"><g fill="none" fill-rule="evenodd" class="wd-icon-container"><g fill="#0B77E3" fill-opacity=".2" class="animate-flood"><circle cx="36" cy="36" r="36" class="color-400-alpha-20" transform="translate(10 10)"/></g><g class="animate-shrink"><path fill="#FFF" d="M45.972 13.438c3.626 0 5.114 12.285 13.058 20.23C66.975 41.612 78.196 42.054 78.207 46c.01 3.946-11.304 5.058-19.249 13.003C51.014 66.948 50.595 78.249 46 78.249c-4.595 0-5.597-11.84-13.542-19.784C24.514 50.52 13.737 49.958 13.737 46s9.897-4.248 18.206-12.557c8.309-8.309 10.402-20.005 14.029-20.005z" class="color-100"/><path fill="#005CB9" fill-rule="nonzero" d="M46 14.051c-3.544 0-5.722 11.72-13.667 19.665C24.39 41.66 14 42.223 14 45.83c0 3.607 10.93 4.671 18.875 12.616C40.82 66.391 42.043 77.998 46 77.998c3.957 0 4.773-11.785 12.718-19.73S78 49.433 78 45.83c0-3.604-11.704-3.757-19.649-11.701C50.407 26.184 49.544 14.05 46 14.05zm0-2c1.849 0 2.911 1.193 4.065 3.324.439.81 3.712 8.575 5.124 11.114 1.353 2.431 2.842 4.49 4.577 6.226 1.56 1.56 3.35 2.884 5.397 4.049 2.66 1.514 11.338 4.96 10.505 4.58C78.236 42.517 80 43.75 80 45.83c0 1.862-1.553 3.136-3.637 4.322-.43.245-8.487 3.886-11.18 5.566-1.894 1.183-3.57 2.482-5.051 3.964-1.587 1.587-2.969 3.415-4.236 5.528-1.494 2.49-4.962 10.106-5.3 10.712-1.334 2.387-2.554 4.076-4.596 4.076-2.014 0-3.579-1.655-4.912-3.971-.37-.642-3.935-8.307-5.476-10.817-1.248-2.032-2.604-3.802-4.151-5.35-1.467-1.466-3.12-2.762-4.987-3.948-2.686-1.708-10.728-5.446-11.348-5.818C13.157 48.912 12 47.637 12 45.83c0-1.923 1.247-3.203 3.415-4.393-.313.172 8.348-3.764 11.168-5.624a27.485 27.485 0 0 0 4.336-3.511c1.669-1.67 3.16-3.618 4.572-5.895 1.382-2.229 5.644-10.865 6.702-12.23 1.041-1.343 2.365-2.126 3.807-2.126z" class="color-500"/></g></g></svg>