<svg xmlns="http://www.w3.org/2000/svg" width="92" height="92" class="wd-applet wd-applet-directory" focusable="false" role="presentation" viewBox="0 0 92 92"><g fill="none" fill-rule="evenodd" class="wd-icon-container"><g fill="#0B77E3" fill-opacity=".2" class="animate-flood"><path d="M44 82c19.882 0 36-16.118 36-36S63.882 10 44 10 8 26.118 8 46s16.118 36 36 36z" class="color-400-alpha-20"/></g><g class="animate-shrink"><path fill="#005CB9" fill-rule="nonzero" d="M2 15h17V2H8.5C4.91 2 2 4.917 2 8.5V15zm19 2H0V8.5C0 3.81 3.808 0 8.5 0H21v17z" class="color-500" transform="translate(15 9)"/><path fill="#005CB9" fill-rule="nonzero" d="M7 3.005v61.99A.998.998 0 0 0 8 66h41c.546 0 1-.45 1-1.005V3.005A.998.998 0 0 0 49 2H8c-.546 0-1 .45-1 1.005zm-2 0A3.006 3.006 0 0 1 8 0h41c1.66 0 3 1.341 3 3.005v61.99A3.006 3.006 0 0 1 49 68H8c-1.66 0-3-1.341-3-3.005V3.005z" class="color-500" transform="translate(15 9)"/><path fill="#A6D2FF" d="M49 2c.552 0 1 .443 1 1.005L49.999 5h.998c.515 0 .938.382.996.887l.007.118v61.99C52 68.55 51.555 69 50.997 69H5.003A1 1 0 0 1 4 67.995V6.005C4 5.45 4.445 5 5.003 5H7V3.005c0-.515.391-.94.884-.998L8 2z" class="color-200" transform="translate(15 9)"/><path fill="#005CB9" fill-rule="nonzero" d="M4 6.005v61.99A1 1 0 0 0 5.003 69h45.994c.558 0 1.003-.45 1.003-1.005V6.005A1 1 0 0 0 50.997 5H5.003C4.445 5 4 5.45 4 6.005zm-2 0A3.001 3.001 0 0 1 5.003 3h45.994A3 3 0 0 1 54 6.005v61.99A3.001 3.001 0 0 1 50.997 71H5.003A3 3 0 0 1 2 67.995V6.005z" class="color-500" transform="translate(15 9)"/><path fill="#FFF" d="M2 11.001v57.998A2.997 2.997 0 0 0 5.001 72h48.007c.542 0 .992-.45.992-1.005V9.005A.994.994 0 0 0 53.008 8H5A2.997 2.997 0 0 0 2 11.001z" class="color-100" transform="translate(15 9)"/><path fill="#40A0FF" d="M2 9.005v61.99C2 71.557 2.452 72 3.01 72H6V8H3.01C2.442 8 2 8.45 2 9.005zM56 14v10h2.99a.997.997 0 0 0 1.01-.995v-8.01c0-.54-.452-.995-1.01-.995H56zm0 16v10h2.99a.997.997 0 0 0 1.01-.995v-8.01c0-.54-.452-.995-1.01-.995H56zm0 16v10h2.99a.997.997 0 0 0 1.01-.995v-8.01c0-.54-.452-.995-1.01-.995H56z" class="color-300" transform="translate(15 9)"/><rect width="26" height="26" x="17" y="23" fill="#A6D2FF" class="color-200" rx="13" transform="translate(15 9)"/><path fill="#40A0FF" d="M21.053 41.064c1.373-1.228 16.803-1.053 17.954-.133 1.152.92 2.313 4.185.807 5.765-1.506 1.58-4.87 3.63-9.798 3.522-4.927-.108-8.852-3.132-9.606-3.948-.754-.815-.73-3.977.643-5.206z" class="color-300" transform="translate(15 9)"/><path fill="#FFF" d="M26 31.002v2.996C26 36.208 27.79 38 30 38c2.205 0 4-1.792 4-4.002v-2.996C34 28.792 32.21 27 30 27c-2.205 0-4 1.792-4 4.002z" class="color-100" transform="translate(15 9)"/><path fill="#005CB9" fill-rule="nonzero" d="M53.008 6A2.994 2.994 0 0 1 56 9.005v61.99A3.002 3.002 0 0 1 53.008 74H5A4.997 4.997 0 0 1 0 68.999V11.001C0 8.237 1.264 6 4.03 6h48.978zm0 2H2v60.999A2.997 2.997 0 0 0 5.001 72h48.007c.542 0 .992-.45.992-1.005V9.005A.994.994 0 0 0 53.008 8zm5.983 36A3.009 3.009 0 0 1 62 46.995v8.01A2.997 2.997 0 0 1 58.99 58H54V44h4.99zm0 2H56v10h2.99a.997.997 0 0 0 1.01-.995v-8.01c0-.54-.452-.995-1.01-.995zm0-18A3.009 3.009 0 0 1 62 30.995v8.01A2.997 2.997 0 0 1 58.99 42H54V28h4.99zm0 2H56v10h2.99a.997.997 0 0 0 1.01-.995v-8.01c0-.54-.452-.995-1.01-.995zm0-18A3.009 3.009 0 0 1 62 14.995v8.01A2.997 2.997 0 0 1 58.99 26H54V12h4.99zm0 2H56v10h2.99a.997.997 0 0 0 1.01-.995v-8.01c0-.54-.452-.995-1.01-.995zM8 6v68H3.01A3.003 3.003 0 0 1 0 70.995V9.005A3.002 3.002 0 0 1 3.01 6H8zM6 8H3.01C2.442 8 2 8.45 2 9.005v61.99C2 71.557 2.452 72 3.01 72H6V8zm24 13c8.285 0 15 6.715 15 15s-6.715 15-15 15-15-6.715-15-15 6.715-15 15-15zm0 2c-7.181 0-13 5.82-13 13 0 7.181 5.82 13 13 13 7.181 0 13-5.82 13-13 0-7.181-5.82-13-13-13zm0 2c3.314 0 6 2.688 6 6.002v2.996A6.004 6.004 0 0 1 30 40c-3.314 0-6-2.688-6-6.002v-2.996A6.004 6.004 0 0 1 30 25zm0 2c-2.205 0-4 1.792-4 4.002v2.996C26 36.208 27.79 38 30 38c2.205 0 4-1.792 4-4.002v-2.996C34 28.792 32.21 27 30 27zm6.007 12A4.994 4.994 0 0 1 41 43.999l-.993 2.914-5.412 3.15-9.54-.3-4.672-2.97L19 43.999A5.004 5.004 0 0 1 23.993 39h12.014zm0 2H23.993c-1.523 0-2.798 2.586-2.973 2.955l-.02.044v2.351l6.007 2.994h7.01S39 46.518 39 46.525V44A2.994 2.994 0 0 0 36.007 41z" class="color-500" transform="translate(15 9)"/></g></g></svg>