<svg xmlns="http://www.w3.org/2000/svg" width="92" height="92" fill="none" class="wd-applet-docs wd-applet" focusable="false" role="presentation" viewBox="0 0 92 92"><g class="wd-icon-container"><g class="animate-flood"><path fill="#0B77E3" fill-opacity=".2" fill-rule="evenodd" d="M46 82c19.882 0 36-16.118 36-36S65.882 10 46 10 10 26.118 10 46s16.118 36 36 36z" class="color-400-alpha-20" clip-rule="evenodd"/></g><g class="animate-sink"><path fill="#40A0FF" fill-rule="evenodd" d="M28 8h36a1 1 0 0 1 1 1v1H27V9a1 1 0 0 1 1-1z" class="color-300" clip-rule="evenodd"/><path fill="#005CB9" d="M28 8a1 1 0 0 0-1 1v1h38V9a1 1 0 0 0-1-1H28zm0-2h36a3 3 0 0 1 3 3v3H25V9a3 3 0 0 1 3-3z" class="color-500"/></g><g class="animate-sink-less"><path fill="#A6D2FF" fill-rule="evenodd" d="M24 12h44a1 1 0 0 1 1 1v1H23v-1a1 1 0 0 1 1-1z" class="color-200" clip-rule="evenodd"/><path fill="#005CB9" d="M24 12a1 1 0 0 0-1 1v1h46v-1a1 1 0 0 0-1-1H24zm0-2h44a3 3 0 0 1 3 3v3H21v-3a3 3 0 0 1 3-3z" class="color-500"/></g><g class="animate-float"><path fill="#fff" fill-rule="evenodd" d="M72 82.978a1 1 0 0 1-.992 1L20.992 84A.999.999 0 0 1 20 83V17a1 1 0 0 1 .992-1h50.016A1 1 0 0 1 72 17v65.978z" class="color-100" clip-rule="evenodd"/><path fill="#A6D2FF" d="M42 51a1 1 0 0 1 1-1h24a1 1 0 0 1 1 1v1a1 1 0 0 1-1 1H43a1 1 0 0 1-1-1v-1z" class="color-200"/><path fill="#A6D2FF" fill-rule="evenodd" d="M24 33a1 1 0 0 1 1-1h9a1 1 0 0 1 1 1v1a1 1 0 0 1-1 1h-9a1 1 0 0 1-1-1v-1zm0 6a1 1 0 0 1 1-1h42a1 1 0 0 1 1 1v1a1 1 0 0 1-1 1H25a1 1 0 0 1-1-1v-1zm0 6a1 1 0 0 1 1-1h18a1 1 0 0 1 1 1v1a1 1 0 0 1-1 1H25a1 1 0 0 1-1-1v-1zm1 5a1 1 0 0 0-1 1v1a1 1 0 0 0 1 1h2a1 1 0 0 0 1-1v-1a1 1 0 0 0-1-1h-2zm-1 13a1 1 0 0 1 1-1h9a1 1 0 0 1 1 1v1a1 1 0 0 1-1 1h-9a1 1 0 0 1-1-1v-1zm40-19a1 1 0 0 0-1 1v1a1 1 0 0 0 1 1h3a1 1 0 0 0 1-1v-1a1 1 0 0 0-1-1h-3zM25 68a1 1 0 0 0-1 1v1a1 1 0 0 0 1 1h5a1 1 0 0 0 1-1v-1a1 1 0 0 0-1-1h-5z" class="color-200" clip-rule="evenodd"/><path fill="#0875E1" fill-rule="evenodd" d="M48 43a1 1 0 0 0-1 1v3a1 1 0 0 0 1 1h11a1 1 0 0 0 1-1v-3a1 1 0 0 0-1-1H48zm-16 6a1 1 0 0 0-1 1v3a1 1 0 0 0 1 1h6a1 1 0 0 0 1-1v-3a1 1 0 0 0-1-1h-6z" class="color-400" clip-rule="evenodd"/><path fill="#005CB9" fill-rule="evenodd" d="M25 21a1 1 0 0 0-1 1v3a1 1 0 0 0 1 1h42a1 1 0 0 0 1-1v-3a1 1 0 0 0-1-1H25zm0 57a1 1 0 0 0-1 1v1a1 1 0 0 0 1 1h42a1 1 0 0 0 1-1v-1a1 1 0 0 0-1-1H25z" class="color-500" clip-rule="evenodd"/><path fill="#005CB9" d="M74 83a3 3 0 0 1-2.992 3H20.992A3 3 0 0 1 18 83V17a3 3 0 0 1 2.992-3h50.016A3 3 0 0 1 74 17v66zm-2 0V17a1 1 0 0 0-.992-1H20.992A1 1 0 0 0 20 17v66a1 1 0 0 0 .992 1h50.016A1 1 0 0 0 72 83z" class="color-500"/></g></g></svg>