<svg xmlns="http://www.w3.org/2000/svg" width="92" height="92" class="wd-applet wd-applet-drive" focusable="false" role="presentation" viewBox="0 0 92 92"><g fill="none" fill-rule="evenodd" class="wd-icon-container"><g fill="#0B77E3" fill-opacity=".2" class="animate-flood"><circle cx="36" cy="36" r="36" class="color-400-alpha-20" transform="translate(10 10)"/></g><g class="animate-sink-less"><path fill="#40A0FF" d="M18 72h50a4 4 0 0 0 4-4V24.167c0-.553-.452-1-.993-1H40.99c-.549 0-1.268-.348-1.611-.782l-6.014-7.603C33.024 14.35 32.302 14 31.74 14H15.008C14.45 14 14 14.443 14 15.002v52.996A4 4 0 0 0 18 72z" class="color-300"/><path fill="#005CB9" fill-rule="nonzero" d="M18 72h50a4 4 0 0 0 4-4V24.167c0-.553-.452-1-.993-1H40.99c-.549 0-1.268-.348-1.611-.782l-6.014-7.603C33.024 14.35 32.302 14 31.74 14H15.008C14.45 14 14 14.443 14 15.002v52.996A4 4 0 0 0 18 72zm-6-56.998A3.001 3.001 0 0 1 15.008 12h16.731c1.171 0 2.472.627 3.195 1.54l6.013 7.604c-.036-.046 30.06.023 30.06.023a3.001 3.001 0 0 1 2.993 3V68a6 6 0 0 1-6 6H18a6 6 0 0 1-6-6V15.002z" class="color-500"/></g><g class="animate-float-rotate-left"><path fill="#A6D2FF" d="M2 2h55v36H2z" class="color-200" transform="translate(12 24)"/><path fill="#005CB9" fill-rule="nonzero" d="M2 3v34c0 .545.448 1 1.002 1h52.996A.997.997 0 0 0 57 37V3c0-.545-.448-1-1.002-1H3.002A.997.997 0 0 0 2 3zM0 3c0-1.657 1.339-3 3.002-3h52.996A3.006 3.006 0 0 1 59 3v34c0 1.657-1.339 3-3.002 3H3.002A3.006 3.006 0 0 1 0 37V3z" class="color-500" transform="translate(12 24)"/><rect width="3" height="21" x="5" y="13" fill="#0B77E3" class="color-400" rx="1.5" transform="translate(12 24)"/><path fill="#0B77E3" fill-rule="nonzero" d="M54.996 33L55 7H11.004L11 33h43.996zM10 6.997c0-.55.455-.997 1.004-.997h43.992A.996.996 0 0 1 56 6.997v26.006c0 .55-.455.997-1.004.997H11.004A.996.996 0 0 1 10 33.003V6.997z" class="color-400" transform="translate(12 24)"/><path fill="#0B77E3" d="M19 7h1v26h-1zM28 7h1v26h-1zM37 7h1v26h-1zM46 7h1v26h-1z" class="color-400" transform="translate(12 24)"/><path fill="#0B77E3" d="M11 24h44v1H11zM11 15h44v1H11z" class="color-400" transform="translate(12 24)"/></g><g class="animate-float-rotate-right"><path fill="#FFF" d="M2 2h57v36H2z" class="color-100" transform="translate(16 28)"/><path fill="#005CB9" fill-rule="nonzero" d="M2 3v34c0 .545.448 1 1.001 1H58A.997.997 0 0 0 59 37V3c0-.545-.448-1-1.001-1H3A.997.997 0 0 0 2 3zM0 3c0-1.657 1.338-3 3.001-3H58A3.006 3.006 0 0 1 61 3v34c0 1.657-1.338 3-3.001 3H3A3.006 3.006 0 0 1 0 37V3z" class="color-500" transform="translate(16 28)"/><rect width="3" height="21" x="4" y="13" fill="#0B77E3" class="color-400" rx="1.5" transform="translate(16 28)"/><rect width="46" height="28" x="9" y="6" fill="#A6D2FF" class="color-200" rx="1" transform="translate(16 28)"/><path fill="#0B77E3" fill-rule="nonzero" d="M53.996 33L54 7H10.004L10 33h43.996zM9 6.997C9 6.447 9.455 6 10.004 6h43.992A.996.996 0 0 1 55 6.997v26.006c0 .55-.455.997-1.004.997H10.004A.996.996 0 0 1 9 33.003V6.997z" class="color-400" transform="translate(16 28)"/><path fill="#0B77E3" d="M18 7h1v26h-1zM27 7h1v26h-1zM36 7h1v26h-1zM45 7h1v26h-1z" class="color-400" transform="translate(16 28)"/><path fill="#0B77E3" d="M10 24h44v1H10zM10 15h44v1H10z" class="color-400" transform="translate(16 28)"/></g><g class="animate-sink-less"><path fill="#000" d="M56.009 0A2.991 2.991 0 0 1 59 2.997V37a4 4 0 0 1-4 4H1c-.345 0-.68-.044-1-.126 1.725-.444 3-2.01 3-3.874V2.997A2.996 2.996 0 0 1 5.991 0h50.018z" class="color-shadow" opacity=".1" transform="translate(17 31)"/><path fill="#A6D2FF" d="M56.999 41A3.996 3.996 0 0 0 61 37.005V4.004C61 3.45 60.55 3 60.004 3H7.996C7.451 3 7 3.452 7 4.007V37a5.978 5.978 0 0 1-1.528 4H57z" class="color-200" transform="translate(17 31)"/><path fill="#005CB9" fill-rule="nonzero" d="M56.999 41A3.996 3.996 0 0 0 61 37.005V4.004C61 3.45 60.55 3 60.004 3H7.996C7.451 3 7 3.452 7 4.007V37a5.978 5.978 0 0 1-1.528 4H57zM5 4.007A3.006 3.006 0 0 1 7.996 1h52.008A3.003 3.003 0 0 1 63 4.004v33A5.996 5.996 0 0 1 56.999 43H1v-2a4 4 0 0 0 4-4V4.007z" class="color-500" transform="translate(17 31)"/><circle cx="34" cy="21" r="12" fill="#FFF" class="color-100" transform="translate(17 31)"/><path fill="#005CB9" fill-rule="nonzero" d="M29.084 20.061a3.284 3.284 0 0 1-.012-.273c0-1.708 1.321-3.08 2.934-3.08 1.022 0 1.956.553 2.49 1.451l.565.949.777-.785c.28-.283.647-.441 1.038-.441.824 0 1.506.707 1.506 1.596 0 .038-.001.075-.004.113l-.055.853.854.054c.92.059 1.655.867 1.655 1.861 0 1.229-.972 2.633-1.763 2.633h-10.35c-.67 0-1.551-1.303-1.551-2.413 0-.791.53-1.46 1.243-1.611l.735-.157-.062-.75zM25.46 22.58c0 1.944 1.471 4.121 3.26 4.121h10.349c1.897 0 3.471-2.274 3.471-4.34 0-1.614-1.044-2.994-2.494-3.43-.254-1.56-1.57-2.756-3.17-2.756-.518 0-1.018.127-1.463.361A4.57 4.57 0 0 0 32.006 15c-2.485 0-4.503 2.01-4.635 4.526-1.142.533-1.911 1.715-1.911 3.053z" class="color-500" transform="translate(17 31)"/></g></g></svg>