<svg xmlns="http://www.w3.org/2000/svg" width="92" height="92" fill="none" class="wd-applet-email-template wd-applet" focusable="false" role="presentation" viewBox="0 0 92 92"><g class="wd-icon-container"><g class="animate-flood"><path fill="#0B77E3" fill-opacity=".2" fill-rule="evenodd" d="M46 82c19.882 0 36-16.118 36-36S65.882 10 46 10 10 26.118 10 46s16.118 36 36 36z" class="color-400-alpha-20" clip-rule="evenodd"/></g><path fill="#0875E1" fill-rule="evenodd" d="M78 40.059v36.95a.994.994 0 0 1-1.005.991h-61.99A1 1 0 0 1 14 77.008v-36.95L28.7 23h34.6L78 40.059z" class="color-400" clip-rule="evenodd"/><path fill="#005CB9" fill-rule="evenodd" d="M79.508 38.745l.037.043c.346.42.484.911.455 1.383v36.837A2.994 2.994 0 0 1 76.995 80h-61.99A3 3 0 0 1 12 77.008V40.171a1.96 1.96 0 0 1 .492-1.426l14.692-17.05A2 2 0 0 1 28.7 21h34.602a2 2 0 0 1 1.515.695l14.692 17.05zM78 40.06L63.3 23H28.7L14 40.059v36.95a1 1 0 0 0 1.005.991h61.99A.994.994 0 0 0 78 77.008v-36.95z" class="color-500" clip-rule="evenodd"/><g class="animate-float"><path fill="#fff" fill-rule="evenodd" d="M18 13.002c0-.553.45-1.002.996-1.002h54.008c.55 0 .996.453.996 1.002v60.996c0 .553-.45 1.002-.996 1.002H18.996c-.55 0-.996-.453-.996-1.002V13.002z" class="color-100" clip-rule="evenodd"/><path fill="#005CB9" d="M18 12.997v61.006c0 .54.446.997.996.997h54.008a1 1 0 0 0 .996-.997V12.997c0-.54-.446-.997-.996-.997H18.996a1 1 0 0 0-.996.997zm-2 0A3 3 0 0 1 18.996 10h54.008A3.003 3.003 0 0 1 76 12.997v61.006A3 3 0 0 1 73.004 77H18.996A3.003 3.003 0 0 1 16 74.003V12.997z" class="color-500"/><path fill="#0875E1" fill-rule="evenodd" d="M41 45c0-.552.444-1 .996-1h6.265c.55 0 .996.444.996 1 0 .552-.444 1-.996 1h-6.265A.996.996 0 0 1 41 45zm0-8c0-.552.45-1 1.003-1h10.251a.999.999 0 1 1 0 2h-10.25A1 1 0 0 1 41 37zm0-4c0-.552.45-1 1.003-1h10.251a.999.999 0 1 1 0 2h-10.25A1 1 0 0 1 41 33zm0 8c0-.552.45-1 1.003-1h10.251a.999.999 0 1 1 0 2h-10.25A1 1 0 0 1 41 41zM22 53.999A.995.995 0 0 1 23.005 53h.648a.999.999 0 0 1 1.004.999v1.002a.995.995 0 0 1-1.004.999h-.648A.999.999 0 0 1 22 55.001v-1.002z" class="color-400" clip-rule="evenodd"/><path fill="#40A0FF" fill-rule="evenodd" d="M63 16.99c0-.546.453-.99.997-.99h6.006c.55 0 .997.451.997.99v4.02c0 .546-.453.99-.997.99h-6.006a.999.999 0 0 1-.997-.99v-4.02zm0 8c0-.546.453-.99.997-.99h6.006c.55 0 .997.451.997.99v4.02c0 .546-.453.99-.997.99h-6.006a.999.999 0 0 1-.997-.99v-4.02zm0 8c0-.546.453-.99.997-.99h6.006c.55 0 .997.451.997.99v4.02c0 .546-.453.99-.997.99h-6.006a.999.999 0 0 1-.997-.99v-4.02zm0 8c0-.546.453-.99.997-.99h6.006c.55 0 .997.451.997.99v4.02c0 .546-.453.99-.997.99h-6.006a.999.999 0 0 1-.997-.99v-4.02zm0 8c0-.546.453-.99.997-.99h6.006c.55 0 .997.451.997.99v4.02c0 .546-.453.99-.997.99h-6.006a.999.999 0 0 1-.997-.99v-4.02zm0 8c0-.546.453-.99.997-.99h6.006c.55 0 .997.451.997.99v4.02c0 .546-.453.99-.997.99h-6.006a.999.999 0 0 1-.997-.99v-4.02z" class="color-300" clip-rule="evenodd"/><path fill="#005CB9" d="M60 12h-2v50h2V12zM23.386 18.5h.885c.49 0 .886-.448.886-1s-.396-1-.886-1h-.885c-.49 0-.886.448-.886 1s.396 1 .886 1zm3.543 0h.885c.49 0 .886-.448.886-1s-.396-1-.886-1h-.885c-.49 0-.886.448-.886 1s.396 1 .886 1zm3.542 0h.886c.49 0 .886-.448.886-1s-.397-1-.886-1h-.886c-.489 0-.885.448-.885 1s.396 1 .885 1zm3.543 0h.886c.49 0 .886-.448.886-1s-.397-1-.886-1h-.886c-.489 0-.885.448-.885 1s.396 1 .885 1zm3.543 0h.886c.489 0 .886-.448.886-1s-.397-1-.886-1h-.886c-.489 0-.886.448-.886 1s.397 1 .886 1zm3.543 0h.886c.489 0 .885-.448.885-1s-.396-1-.885-1H41.1c-.49 0-.886.448-.886 1s.397 1 .886 1zm3.543 0h.886c.489 0 .885-.448.885-1s-.396-1-.885-1h-.886c-.49 0-.886.448-.886 1s.397 1 .886 1zm3.543 0h.885c.49 0 .886-.448.886-1s-.396-1-.886-1h-.885c-.49 0-.886.448-.886 1s.397 1 .886 1zm3.543 0h.885c.49 0 .886-.448.886-1s-.397-1-.886-1h-.885c-.49 0-.886.448-.886 1s.396 1 .886 1zm0 2v1c0 .552.396 1 .885 1 .49 0 .886-.448.886-1v-1c0-.552-.397-1-.886-1s-.885.448-.885 1zm0 4v1c0 .552.396 1 .885 1 .49 0 .886-.448.886-1v-1c0-.552-.397-1-.886-1s-.885.448-.885 1zm.885 3h-.885c-.49 0-.886.448-.886 1s.396 1 .886 1h.885c.49 0 .886-.448.886-1s-.397-1-.886-1zm-3.543 0h-.885c-.49 0-.886.448-.886 1s.397 1 .886 1h.885c.49 0 .886-.448.886-1s-.396-1-.886-1zm-3.542 0h-.886c-.49 0-.886.448-.886 1s.397 1 .886 1h.886c.489 0 .885-.448.885-1s-.396-1-.885-1zm-3.543 0H41.1c-.49 0-.886.448-.886 1s.397 1 .886 1h.886c.489 0 .885-.448.885-1s-.396-1-.885-1zm-3.543 0h-.886c-.489 0-.886.448-.886 1s.397 1 .886 1h.886c.489 0 .886-.448.886-1s-.397-1-.886-1zm-3.543 0h-.886c-.489 0-.885.448-.885 1s.396 1 .885 1h.886c.49 0 .886-.448.886-1s-.397-1-.886-1zm-3.543 0h-.886c-.489 0-.885.448-.885 1s.396 1 .885 1h.886c.49 0 .886-.448.886-1s-.397-1-.886-1zm-3.543 0h-.885c-.49 0-.886.448-.886 1s.396 1 .886 1h.885c.49 0 .886-.448.886-1s-.396-1-.886-1zm-3.543 0h-.885c-.49 0-.886.448-.886 1s.396 1 .886 1h.885c.49 0 .886-.448.886-1s-.396-1-.886-1zm0-2v-1c0-.552-.396-1-.885-1-.49 0-.886.448-.886 1v1c0 .552.396 1 .886 1 .489 0 .885-.448.885-1zm0-4c0 .552-.396 1-.885 1-.49 0-.886-.448-.886-1v-1c0-.552.396-1 .886-1 .489 0 .885.448.885 1v1zM23.386 34c-.49 0-.886-.448-.886-1s.396-1 .886-1h.885c.49 0 .886.448.886 1s-.396 1-.886 1h-.885zm3.543 0c-.49 0-.886-.448-.886-1s.396-1 .886-1h.885c.49 0 .886.448.886 1s-.396 1-.886 1h-.885zm3.542 0c-.489 0-.885-.448-.885-1s.396-1 .885-1h.886c.49 0 .886.448.886 1s-.397 1-.886 1h-.886zm3.543 0c-.489 0-.885-.448-.885-1s.396-1 .885-1h.886c.49 0 .886.448.886 1s-.397 1-.886 1h-.886zm2.657-1c0-.552.397-1 .886-1 .49 0 .886.448.886 1v1c0 .552-.397 1-.886 1s-.886-.448-.886-1v-1zm0 8c0-.552.397-1 .886-1 .49 0 .886.448.886 1v1c0 .552-.397 1-.886 1s-.886-.448-.886-1v-1zm.886 3c.49 0 .886.448.886 1s-.397 1-.886 1h-.886c-.489 0-.885-.448-.885-1s.396-1 .885-1h.886zm-3.543 0c.49 0 .886.448.886 1s-.396 1-.886 1h-.885c-.49 0-.886-.448-.886-1s.396-1 .886-1h.885zm-3.543 0c.49 0 .886.448.886 1s-.396 1-.886 1h-.885c-.49 0-.886-.448-.886-1s.396-1 .886-1h.885zm-3.542 0c.489 0 .885.448.885 1s-.396 1-.885 1h-.886c-.49 0-.886-.448-.886-1s.397-1 .886-1h.886zm-2.658 1c0 .552-.396 1-.885 1-.49 0-.886-.448-.886-1v-1c0-.552.396-1 .886-1 .489 0 .885.448.885 1v1zm0-4c0 .552-.396 1-.885 1-.49 0-.886-.448-.886-1v-1c0-.552.396-1 .886-1 .489 0 .885.448.885 1v1zm12.4-4c0-.552.397-1 .886-1 .49 0 .886.448.886 1v1c0 .552-.397 1-.886 1s-.886-.448-.886-1v-1zm-12.4 0c0 .552-.396 1-.885 1-.49 0-.886-.448-.886-1v-1c0-.552.396-1 .886-1 .489 0 .885.448.885 1v1z" class="color-500"/></g><path fill="#000" fill-rule="evenodd" d="M18 38.9l28 16.5 28-16.5V80H18V38.9z" class="color-shadow" clip-rule="evenodd" opacity=".1"/><path fill="#40A0FF" fill-rule="evenodd" d="M15.002 78h61.996c.549 0 1.002-.452 1.002-1.009V41L46 59.318 14 41v35.991c0 .56.449 1.009 1.002 1.009z" class="color-300" clip-rule="evenodd"/><path fill="#005CB9" fill-rule="evenodd" d="M79.002 78.046C78.97 79.041 78.212 80 77 80H15.002A3.004 3.004 0 0 1 12 76.991V41c0-1.577 1.74-2.534 3.072-1.688l30.931 18.166 30.925-18.166C78.26 38.466 80 39.422 80 41v35.991c0 .525-.135 1.02-.372 1.45l-.626-.395zM78 76.27V41L47.946 58.619 78 76.269zM14 41v35.991c0 .56.449 1.009 1.002 1.009H77L14 41z" class="color-500" clip-rule="evenodd"/></g></svg>