<svg xmlns="http://www.w3.org/2000/svg" width="92" height="92" class="wd-applet wd-applet-employee-changes" focusable="false" role="presentation" viewBox="0 0 92 92"><g fill="none" fill-rule="evenodd" class="wd-icon-container"><g fill="#0B77E3" fill-opacity=".2" class="animate-flood"><path d="M46 82c19.882 0 36-16.118 36-36S65.882 10 46 10 10 26.118 10 46s16.118 36 36 36z" class="color-400-alpha-20"/></g><g class="animate-shrink"><path fill="#FFF" d="M29 24.507C29 17.047 35.043 11 42.5 11 49.956 11 56 17.046 56 24.507v8.986C56 40.953 49.957 47 42.5 47 35.044 47 29 40.954 29 33.493v-8.986z" class="color-100"/><path fill="#A6D2FF" d="M18 60c0-6.075 4.923-11 10.997-11h27.006C62.077 49 67 53.924 67 60v11H18V60z" class="color-200"/><path fill="#005CB9" fill-rule="nonzero" d="M18 60v11h49V60c0-6.076-4.923-11-10.997-11H28.997C22.923 49 18 53.925 18 60zm-2 0c0-7.18 5.818-13 12.997-13h27.006C63.182 47 69 52.82 69 60v10.997A2.002 2.002 0 0 1 67.003 73H17.997A1.998 1.998 0 0 1 16 70.997V60zm13-35.493v8.986C29 40.954 35.044 47 42.5 47 49.957 47 56 40.952 56 33.493v-8.986C56 17.046 49.956 11 42.5 11 35.043 11 29 17.048 29 24.507zm-2 0C27 15.943 33.938 9 42.5 9 51.061 9 58 15.942 58 24.507v8.986C58 42.057 51.062 49 42.5 49 33.939 49 27 42.058 27 33.493v-8.986z" class="color-500"/><path fill="#000" fill-rule="nonzero" d="M52.26 47H56c5.196 0 9.269 2.92 11.388 6.806a8.835 8.835 0 0 0-4.814-.493c-4.565.8-7.55 4.917-6.735 9.175l2.03-1.607c1.846-1.465 4.282-.537 4.216 2.015L61.788 73h-19.12c.139-.164.301-.32.486-.468l3.82-3.026.289-.229a17.577 17.577 0 0 1-1.728-4.901C44.227 57.602 47.042 51.03 52.26 47zM69 67.525V71c0 .726-.387 1.362-.966 1.713l-.982-1.844a2 2 0 0 1 .897-2.741c.37-.179.72-.38 1.051-.603z" class="color-shadow" opacity=".1"/></g><g class="animate-grow"><path fill="#40A0FF" d="M52.878 71.758l-1.662 1.315-3.82 3.027c-.594.472-.525.863.244.973l13.677 1.912c.768.112 1.368-.432 1.387-1.163l.382-12.985c.02-.729-.379-.861-.973-.39L57.93 67.76a9.605 9.605 0 0 1-1.053-2.878c-1.039-5.383 2.701-10.548 8.352-11.538 5.65-.989 11.074 2.573 12.112 7.955.84 4.349-1.446 8.663-5.523 10.631l2.932 5.51c6.624-3.197 10.332-10.199 8.97-17.257-1.686-8.738-10.49-14.52-19.663-12.914-9.174 1.606-15.245 9.992-13.558 18.729a15.622 15.622 0 0 0 2.38 5.76z" class="color-300"/><path fill="#005CB9" fill-rule="nonzero" d="M63.712 45.298c10.23-1.79 20.076 4.676 21.972 14.505 1.53 7.928-2.603 15.835-10.065 19.437a2 2 0 0 1-2.635-.862l-2.932-5.51a2 2 0 0 1 .897-2.74c3.292-1.59 5.09-5.028 4.429-8.451-.828-4.29-5.21-7.168-9.804-6.364-4.565.8-7.55 4.917-6.735 9.175l2.03-1.607c1.846-1.465 4.282-.537 4.216 2.015l-.381 12.977c-.05 1.936-1.727 3.376-3.664 3.093l-13.682-1.913c-2.546-.364-3.146-2.977-1.204-4.521l3.82-3.026.289-.229a17.577 17.577 0 0 1-1.728-4.901c-1.903-9.856 4.921-19.283 15.177-21.078zm.345 1.97c-9.174 1.606-15.245 9.992-13.558 18.729a15.622 15.622 0 0 0 2.38 5.76l-1.663 1.316-3.82 3.027c-.594.472-.525.863.244.973l13.677 1.912c.768.112 1.368-.432 1.387-1.163l.382-12.985c.02-.729-.379-.861-.973-.39L57.93 67.76a9.605 9.605 0 0 1-1.053-2.878c-1.039-5.383 2.701-10.548 8.352-11.538 5.65-.989 11.074 2.573 12.112 7.955.84 4.349-1.446 8.663-5.523 10.631l2.932 5.51c6.624-3.197 10.332-10.199 8.97-17.257-1.686-8.738-10.49-14.52-19.663-12.914z" class="color-500"/></g></g></svg>