<svg xmlns="http://www.w3.org/2000/svg" width="92" height="92" class="wd-applet wd-applet-enter-time" focusable="false" role="presentation" viewBox="0 0 92 92"><g fill="none" fill-rule="evenodd" class="wd-icon-container"><g fill="#0B77E3" fill-opacity=".2" fill-rule="nonzero" class="animate-flood"><path d="M44 81c19.882 0 36-16.118 36-36S63.882 9 44 9 8 25.118 8 45s16.118 36 36 36z" class="color-400-alpha-20"/></g><g class="animate-shrink"><path fill="#005CB9" fill-rule="nonzero" d="M68.575 18A4.43 4.43 0 0 1 73 22.429V67.57A4.422 4.422 0 0 1 68.575 72h-49.15A4.43 4.43 0 0 1 15 67.571V22.43A4.422 4.422 0 0 1 19.425 18h49.15zm0 2h-49.15A2.422 2.422 0 0 0 17 22.429V67.57A2.43 2.43 0 0 0 19.425 70h49.15A2.422 2.422 0 0 0 71 67.571V22.43A2.43 2.43 0 0 0 68.575 20z" class="color-500"/><path fill="#FFF" d="M17 32h54v35.565A2.425 2.425 0 0 1 68.575 70h-49.15A2.434 2.434 0 0 1 17 67.565V32z" class="color-100"/><path fill="#40A0FF" d="M41 40.99c0-.546.451-.99.99-.99h4.02c.546 0 .99.451.99.99v4.02c0 .546-.451.99-.99.99h-4.02a.996.996 0 0 1-.99-.99v-4.02zm10 0c0-.546.451-.99.99-.99h4.02c.546 0 .99.451.99.99v4.02c0 .546-.451.99-.99.99h-4.02a.996.996 0 0 1-.99-.99v-4.02zm10 0c0-.546.451-.99.99-.99h4.02c.546 0 .99.451.99.99v4.02c0 .546-.451.99-.99.99h-4.02a.996.996 0 0 1-.99-.99v-4.02zm-20 10c0-.546.451-.99.99-.99h4.02c.546 0 .99.451.99.99v4.02c0 .546-.451.99-.99.99h-4.02a.996.996 0 0 1-.99-.99v-4.02zm10 0c0-.546.451-.99.99-.99h4.02c.546 0 .99.451.99.99v4.02c0 .546-.451.99-.99.99h-4.02a.996.996 0 0 1-.99-.99v-4.02zm10 0c0-.546.451-.99.99-.99h4.02c.546 0 .99.451.99.99v4.02c0 .546-.451.99-.99.99h-4.02a.996.996 0 0 1-.99-.99v-4.02zm-10 10c0-.546.451-.99.99-.99h4.02c.546 0 .99.451.99.99v4.02c0 .546-.451.99-.99.99h-4.02a.996.996 0 0 1-.99-.99v-4.02zm10 0c0-.546.451-.99.99-.99h4.02c.546 0 .99.451.99.99v4.02c0 .546-.451.99-.99.99h-4.02a.996.996 0 0 1-.99-.99v-4.02zm-40-10c0-.546.451-.99.99-.99h4.02c.546 0 .99.451.99.99v4.02c0 .546-.451.99-.99.99h-4.02a.996.996 0 0 1-.99-.99v-4.02zm10 0c0-.546.451-.99.99-.99h4.02c.546 0 .99.451.99.99v4.02c0 .546-.451.99-.99.99h-4.02a.996.996 0 0 1-.99-.99v-4.02zm10 10c0-.546.451-.99.99-.99h4.02c.546 0 .99.451.99.99v4.02c0 .546-.451.99-.99.99h-4.02a.996.996 0 0 1-.99-.99v-4.02zm-20 0c0-.546.451-.99.99-.99h4.02c.546 0 .99.451.99.99v4.02c0 .546-.451.99-.99.99h-4.02a.996.996 0 0 1-.99-.99v-4.02zm10 0c0-.546.451-.99.99-.99h4.02c.546 0 .99.451.99.99v4.02c0 .546-.451.99-.99.99h-4.02a.996.996 0 0 1-.99-.99v-4.02z" class="color-300"/><path fill="#A6D2FF" d="M31 40.99c0-.546.451-.99.99-.99h4.02c.546 0 .99.451.99.99v4.02c0 .546-.451.99-.99.99h-4.02a.996.996 0 0 1-.99-.99v-4.02zm-10 0c0-.546.451-.99.99-.99h4.02c.546 0 .99.451.99.99v4.02c0 .546-.451.99-.99.99h-4.02a.996.996 0 0 1-.99-.99v-4.02z" class="color-200"/><path fill="#0B77E3" d="M17 32h54v4H17z" class="color-400"/><path fill="#40A0FF" d="M68.575 20A2.426 2.426 0 0 1 71 22.428V32H17v-9.572A2.422 2.422 0 0 1 19.425 20h49.15zM27 24a2 2 0 1 0 0 4 2 2 0 0 0 0-4zm34 0a2 2 0 1 0 0 4 2 2 0 0 0 0-4z" class="color-300"/><path fill="#005CB9" d="M27 22a4 4 0 1 1 0 8 4 4 0 0 1 0-8zm34 0a4 4 0 1 1 0 8 4 4 0 0 1 0-8zm-34 2a2 2 0 1 0 0 4 2 2 0 0 0 0-4zm34 0a2 2 0 1 0 0 4 2 2 0 0 0 0-4z" class="color-500"/><path fill="#000" fill-rule="nonzero" d="M63 47c5.11 0 9.724 2.13 13 5.55v24.9A18.013 18.013 0 0 1 68.932 82H57.07C50.042 79.548 45 72.863 45 65c0-9.941 8.059-18 18-18z" class="color-shadow" opacity=".1"/></g><g class="animate-spin"><path fill="#005CB9" fill-rule="nonzero" d="M65 49c9.941 0 18 8.059 18 18s-8.059 18-18 18-18-8.059-18-18 8.059-18 18-18zm0 2.057c-8.805 0-15.943 7.138-15.943 15.943S56.195 82.943 65 82.943 80.943 75.805 80.943 67 73.805 51.057 65 51.057z" class="color-500"/><path fill="#40A0FF" fill-rule="nonzero" d="M65 83c-8.837 0-16-7.163-16-16s7.163-16 16-16 16 7.163 16 16-7.163 16-16 16z" class="color-300"/><path fill="#005CB9" d="M65 54c7.18 0 13 5.82 13 13s-5.82 13-13 13-13-5.82-13-13 5.82-13 13-13zm0 2.08c-6.03 0-10.92 4.89-10.92 10.92S58.97 77.92 65 77.92 75.92 73.03 75.92 67 71.03 56.08 65 56.08z" class="color-500"/><path fill="#FFF" d="M65 78c6.075 0 11-4.925 11-11s-4.925-11-11-11-11 4.925-11 11 4.925 11 11 11z" class="color-100"/><path fill="#005CB9" d="M71.451 60.234a1 1 0 0 1 .124 1.408l-3.719 4.438a3 3 0 1 1-5.835.559l-3.407-1.973a.77.77 0 1 1 .772-1.332l3.217 1.862a2.997 2.997 0 0 1 4-.733l3.44-4.105a1 1 0 0 1 1.408-.124zM64.978 66a1 1 0 1 0 0 2 1 1 0 0 0 0-2z" class="color-500"/></g></g></svg>