<svg xmlns="http://www.w3.org/2000/svg" width="92" height="92" class="wd-applet wd-applet-events" focusable="false" role="presentation" viewBox="0 0 92 92"><g fill="none" fill-rule="evenodd" class="wd-icon-container"><g fill="#0B77E3" fill-opacity=".2" class="animate-flood"><path d="M46 82c19.882 0 36-16.118 36-36S65.882 10 46 10 10 26.118 10 46s16.118 36 36 36z" class="color-400-alpha-20"/></g><g class="animate-shrink"><path fill="#FFF" d="M19 33h54v35.565A2.425 2.425 0 0 1 70.575 71h-49.15A2.434 2.434 0 0 1 19 68.565V33z" class="color-100"/><path fill="#40A0FF" d="M43 41.99c0-.546.451-.99.99-.99h4.02c.546 0 .99.451.99.99v4.02c0 .546-.451.99-.99.99h-4.02a.996.996 0 0 1-.99-.99v-4.02zm10 0c0-.546.451-.99.99-.99h4.02c.546 0 .99.451.99.99v4.02c0 .546-.451.99-.99.99h-4.02a.996.996 0 0 1-.99-.99v-4.02zm10 0c0-.546.451-.99.99-.99h4.02c.546 0 .99.451.99.99v4.02c0 .546-.451.99-.99.99h-4.02a.996.996 0 0 1-.99-.99v-4.02zm-20 10c0-.546.451-.99.99-.99h4.02c.546 0 .99.451.99.99v4.02c0 .546-.451.99-.99.99h-4.02a.996.996 0 0 1-.99-.99v-4.02zm10 0c0-.546.451-.99.99-.99h4.02c.546 0 .99.451.99.99v4.02c0 .546-.451.99-.99.99h-4.02a.996.996 0 0 1-.99-.99v-4.02zm10 0c0-.546.451-.99.99-.99h4.02c.546 0 .99.451.99.99v4.02c0 .546-.451.99-.99.99h-4.02a.996.996 0 0 1-.99-.99v-4.02zm-10 10c0-.546.451-.99.99-.99h4.02c.546 0 .99.451.99.99v4.02c0 .546-.451.99-.99.99h-4.02a.996.996 0 0 1-.99-.99v-4.02zm10 0c0-.546.451-.99.99-.99h4.02c.546 0 .99.451.99.99v4.02c0 .546-.451.99-.99.99h-4.02a.996.996 0 0 1-.99-.99v-4.02zm-40-10c0-.546.451-.99.99-.99h4.02c.546 0 .99.451.99.99v4.02c0 .546-.451.99-.99.99h-4.02a.996.996 0 0 1-.99-.99v-4.02zm10 0c0-.546.451-.99.99-.99h4.02c.546 0 .99.451.99.99v4.02c0 .546-.451.99-.99.99h-4.02a.996.996 0 0 1-.99-.99v-4.02zm10 10c0-.546.451-.99.99-.99h4.02c.546 0 .99.451.99.99v4.02c0 .546-.451.99-.99.99h-4.02a.996.996 0 0 1-.99-.99v-4.02zm-20 0c0-.546.451-.99.99-.99h4.02c.546 0 .99.451.99.99v4.02c0 .546-.451.99-.99.99h-4.02a.996.996 0 0 1-.99-.99v-4.02zm10 0c0-.546.451-.99.99-.99h4.02c.546 0 .99.451.99.99v4.02c0 .546-.451.99-.99.99h-4.02a.996.996 0 0 1-.99-.99v-4.02z" class="color-300"/><path fill="#A6D2FF" d="M33 41.99c0-.546.451-.99.99-.99h4.02c.546 0 .99.451.99.99v4.02c0 .546-.451.99-.99.99h-4.02a.996.996 0 0 1-.99-.99v-4.02zm-10 0c0-.546.451-.99.99-.99h4.02c.546 0 .99.451.99.99v4.02c0 .546-.451.99-.99.99h-4.02a.996.996 0 0 1-.99-.99v-4.02z" class="color-200"/><path fill="#40A0FF" d="M70.575 21A2.426 2.426 0 0 1 73 23.428V33H19v-9.572A2.422 2.422 0 0 1 21.425 21h49.15zM29 25a2 2 0 1 0 0 4 2 2 0 0 0 0-4zm34 0a2 2 0 1 0 0 4 2 2 0 0 0 0-4z" class="color-300"/><path fill="#005CB9" d="M35.114 55.662a1.01 1.01 0 0 1-.229-.12l-2.458-1.722a.997.997 0 0 1-.245-1.392.997.997 0 0 1 1.392-.246l1.668 1.168 3.448-4.924a.996.996 0 0 1 1.391-.244c.453.317.563.94.247 1.391l-4.018 5.738a.996.996 0 0 1-1.196.35zm10 0a1.01 1.01 0 0 1-.229-.12l-2.458-1.722a.997.997 0 0 1-.245-1.392.997.997 0 0 1 1.392-.246l1.668 1.168 3.448-4.924a.996.996 0 0 1 1.391-.244c.453.317.563.94.247 1.391l-4.018 5.738a.996.996 0 0 1-1.196.35zm-20 0a1.01 1.01 0 0 1-.229-.12l-2.458-1.722a.997.997 0 0 1-.245-1.392.997.997 0 0 1 1.392-.246l1.668 1.168 3.448-4.924a.996.996 0 0 1 1.391-.244c.453.317.563.94.247 1.391l-4.018 5.738a.996.996 0 0 1-1.196.35z" class="color-500"/><path fill="#000" d="M35 56.751A3.752 3.752 0 0 1 38.748 53H73v14.249A3.752 3.752 0 0 1 69.252 71H35V56.751z" class="color-shadow" opacity=".1"/><path fill="#005CB9" fill-rule="nonzero" d="M19 23.429V68.57A2.43 2.43 0 0 0 21.425 71h49.15A2.422 2.422 0 0 0 73 68.571V23.43A2.43 2.43 0 0 0 70.575 21h-49.15A2.422 2.422 0 0 0 19 23.429zM29 29a2 2 0 1 0 0-4 2 2 0 0 0 0 4zm0 2a4 4 0 1 1 0-8 4 4 0 0 1 0 8zm34-2a2 2 0 1 0 0-4 2 2 0 0 0 0 4zm0 2a4 4 0 1 1 0-8 4 4 0 0 1 0 8zm-46-7.571A4.422 4.422 0 0 1 21.425 19h49.15A4.43 4.43 0 0 1 75 23.429V68.57A4.422 4.422 0 0 1 70.575 73h-49.15A4.43 4.43 0 0 1 17 68.571V23.43z" class="color-500"/><path fill="#0B77E3" d="M19 33h54v4H19z" class="color-400"/></g><g class="animate-grow"><rect width="44" height="22" x="2" y="2" fill="#FFF" class="color-100" rx="1.25" transform="translate(38 56)"/><rect width="18" height="14" x="6" y="6" fill="#A6D2FF" class="color-200" rx="1" transform="translate(38 56)"/><path fill="#40A0FF" d="M9 17c0-.552.456-1 1.002-1h9.996A.999.999 0 0 1 21 17v3c0 .552-.456 1-1.002 1h-9.996A.999.999 0 0 1 9 20v-3z" class="color-300" transform="translate(38 56)"/><path fill="#005CB9" fill-rule="nonzero" d="M2 3.25v19.5c0 .688.56 1.25 1.25 1.25h41.5c.686 0 1.25-.56 1.25-1.25V3.25C46 2.563 45.44 2 44.75 2H3.25C2.563 2 2 2.56 2 3.25zm-2 0A3.253 3.253 0 0 1 3.25 0h41.5A3.251 3.251 0 0 1 48 3.25v19.5A3.253 3.253 0 0 1 44.75 26H3.25A3.251 3.251 0 0 1 0 22.75V3.25zM28 10A.998.998 0 0 1 29 9h14c.552 0 1 .443 1 .999v1.002A.998.998 0 0 1 43 12H29c-.552 0-1-.443-1-.999V9.999zm0 5c0-.552.456-.999 1.002-.999h9.996a.998.998 0 0 1 1.002.999v1.002c0 .552-.456.999-1.002.999h-9.996A.998.998 0 0 1 28 16.001v-1.002z" class="color-500" transform="translate(38 56)"/><rect width="5" height="6" x="12.5" y="9" fill="#FFF" class="color-100" rx="2.5" transform="translate(38 56)"/><path fill="#005CB9" fill-rule="nonzero" d="M22.993 4A3.003 3.003 0 0 1 26 6.999V19C26 20.661 24.65 22 22.993 22H7.007A3.003 3.003 0 0 1 4 19.001V7C4 5.339 5.35 4 7.007 4h15.986zm0 2H7.007C6.45 6 6 6.447 6 6.999V19c0 .552.45.999 1.007.999H8v-1c0-1.975 1.516-3.786 3.447-3.973A2.926 2.926 0 0 1 11 13.5v-3C11 8.566 13.062 7 15 7c1.933 0 4 1.57 4 3.5v3c0 .547-.165 1.065-.445 1.527C20.511 15.197 22 16.886 22 19v1h.993c.557 0 1.007-.447 1.007-.999V7C24 6.447 23.55 6 22.993 6zM18 17.011H12c-.98 0-2 1.008-2 1.989v1h10v-1c0-.989-1.025-1.989-2-1.989zM15 9c-.834 0-2 .672-2 1.5v3.023c0 .826 1.172 1.488 2 1.488.834 0 2-.659 2-1.488V10.5c0-.826-1.172-1.5-2-1.5z" class="color-500" transform="translate(38 56)"/></g></g></svg>