<svg xmlns="http://www.w3.org/2000/svg" width="92" height="92" class="wd-applet wd-applet-execution-metric-status" focusable="false" role="presentation" viewBox="0 0 92 92"><g fill="none" fill-rule="evenodd" class="wd-icon-container"><g fill="#0B77E3" fill-opacity=".2" class="animate-flood"><circle cx="36" cy="36" r="36" class="color-400-alpha-20" transform="translate(10 10)"/></g><g class="animate-shrink"><path fill="#005CB9" fill-rule="nonzero" d="M0 11a3 3 0 0 1 2.996-3h54.008A2.996 2.996 0 0 1 60 11v65a3 3 0 0 1-2.996 3H2.996A2.996 2.996 0 0 1 0 76V11z" class="color-500" transform="translate(16 4)"/><path fill="#40A0FF" d="M2 11a1 1 0 0 1 .996-1h54.008c.55 0 .996.446.996 1v65a1 1 0 0 1-.996 1H2.996A.996.996 0 0 1 2 76V11zM5 16V72a2 2 0 0 0 2 2h44.996A3.006 3.006 0 0 0 55 70.999V16A2.999 2.999 0 0 0 51.996 13H8.004A3.006 3.006 0 0 0 5 16.001z" class="color-300" transform="translate(16 4)"/><path fill="#FFF" d="M7 16.001C7 15.448 7.455 15 8.004 15h43.992A.999.999 0 0 1 53 16.001V71c0 .553-.455 1.001-1.004 1.001H7V16.001z" class="color-100" transform="translate(16 4)"/><path fill="#A6D2FF" d="M30 2c2.21 0 4 1.797 4 3.996V8h8.5c1.933 0 3.5 1.57 3.5 3.5V15H14v-3.5C14 9.567 15.565 8 17.5 8H26V5.996A4 4 0 0 1 30 2zm0 2a2 2 0 1 0 0 4 2 2 0 0 0 0-4z" class="color-200" transform="translate(16 4)"/><rect width="8" height="28" x="26" y="35" fill="#40A0FF" class="color-300" rx="1" transform="translate(16 4)"/><path fill="#005CB9" fill-rule="nonzero" d="M30 0c3.311 0 6 2.69 6 5.996L42.5 6c3.036 0 5.5 2.465 5.5 5.5V15a2 2 0 0 1-2 2H14a2 2 0 0 1-2-2v-3.5C12 8.462 14.461 6 17.5 6H24c0-3.315 2.69-6 6-6zm0 2a4 4 0 0 0-4 3.996V8h-8.5a3.499 3.499 0 0 0-3.5 3.5V15h32v-3.5C46 9.57 44.433 8 42.5 8H34V5.996C34 3.796 32.21 2 30 2zm0 2a2 2 0 1 1 0 4 2 2 0 0 1 0-4zm-2 57h4V37h-4v24zm-2-25.003c0-.55.453-.997.997-.997h6.006c.55 0 .997.44.997.997v26.006c0 .55-.453.997-.997.997h-6.006a.993.993 0 0 1-.997-.997V35.997zM18 61h4V27h-4v34zm-2-35.003c0-.55.453-.997.997-.997h6.006c.55 0 .997.453.997.997v36.006c0 .55-.453.997-.997.997h-6.006c-.55 0-.997-.453-.997-.997V25.997zM38 61h4V30h-4v31zm-2-31.99c0-.558.453-1.01.997-1.01h6.006c.55 0 .997.443.997 1.01v32.98c0 .558-.453 1.01-.997 1.01h-6.006A.997.997 0 0 1 36 61.99V29.01z" class="color-500" transform="translate(16 4)"/><path fill="#000" fill-rule="nonzero" d="M47 44c5.11 0 9.724 2.13 13 5.55v24.9A18.013 18.013 0 0 1 52.932 79H41.07C34.042 76.548 29 69.863 29 62c0-9.941 8.059-18 18-18z" class="color-shadow" opacity=".1" transform="translate(16 4)"/></g><g class="animate-spin"><path fill="#005CB9" fill-rule="nonzero" d="M65 83.943c8.805 0 15.943-7.138 15.943-15.943S73.805 52.057 65 52.057 49.057 59.195 49.057 68 56.195 83.943 65 83.943zM65 86c-9.941 0-18-8.059-18-18s8.059-18 18-18 18 8.059 18 18-8.059 18-18 18z" class="color-500"/><path fill="#40A0FF" fill-rule="nonzero" d="M65 84c-8.837 0-16-7.163-16-16s7.163-16 16-16 16 7.163 16 16-7.163 16-16 16z" class="color-300"/><path fill="#005CB9" fill-rule="nonzero" d="M65 78.92c6.03 0 10.92-4.89 10.92-10.92S71.03 57.08 65 57.08 54.08 61.97 54.08 68 58.97 78.92 65 78.92zM65 81c-7.18 0-13-5.82-13-13s5.82-13 13-13 13 5.82 13 13-5.82 13-13 13z" class="color-500"/><path fill="#FFF" d="M65 79c6.075 0 11-4.925 11-11s-4.925-11-11-11-11 4.925-11 11 4.925 11 11 11z" class="color-100"/><path fill="#005CB9" fill-rule="nonzero" d="M65 71a3 3 0 1 1 0-6 3 3 0 0 1 0 6zm-.022-2a1 1 0 1 0 0-2 1 1 0 0 0 0 2z" class="color-500"/><path fill="#005CB9" fill-rule="nonzero" d="M67.566 67.427l4.01-4.785a1 1 0 1 0-1.534-1.284l-4.009 4.784a1 1 0 0 0 1.533 1.285zm-3.975-.658l-4.205-2.435a.77.77 0 1 0-.772 1.332l4.206 2.435a.77.77 0 1 0 .771-1.332z" class="color-500"/></g></g></svg>