<svg xmlns="http://www.w3.org/2000/svg" width="92" height="92" class="wd-applet wd-applet-expense-links" focusable="false" role="presentation" viewBox="0 0 92 92"><g fill="none" fill-rule="evenodd" class="wd-icon-container"><g fill="#0B77E3" fill-opacity=".2" class="animate-flood"><path d="M46 82c-19.882 0-36-16.118-36-36s16.118-36 36-36 36 16.118 36 36-16.118 36-36 36z" class="color-400-alpha-20"/></g><g class="animate-sink"><path fill="#40A0FF" d="M32 11l1.29 1.29a1 1 0 0 0 1.42 0L36 11l1.29 1.29a1 1 0 0 0 1.42 0L40 11l1.29 1.29a1 1 0 0 0 1.42 0L44 11l1.29 1.29a1 1 0 0 0 1.42 0L48 11l1.29 1.29a1 1 0 0 0 1.42 0L52 11l1.29 1.29a1 1 0 0 0 1.42 0L56 11l1.29 1.29a1 1 0 0 0 1.422 0L60 11l1.29 1.29a1 1 0 0 0 1.42 0L64 11l1.29 1.29a1 1 0 0 0 1.42 0L68 11l1.29 1.29a1 1 0 0 0 1.42 0L72 11v63l-1.29-1.29a1 1 0 0 0-1.421 0L67.999 74l-1.289-1.29a1 1 0 0 0-1.42 0L64 74l-1.29-1.29a1 1 0 0 0-1.42 0L60 74l-1.29-1.29a1 1 0 0 0-1.42 0L56 74l-1.29-1.29a1 1 0 0 0-1.42 0L52 74l-1.29-1.29a1 1 0 0 0-1.42 0L48 74l-1.29-1.29a1 1 0 0 0-1.42 0L44 74l-1.29-1.29a1 1 0 0 0-1.42 0L40 74l-1.303-1.3a.992.992 0 0 0-1.41.01L36 74l-1.29-1.29a1 1 0 0 0-1.42 0L32 74V11z" class="color-300"/><path fill="#005CB9" fill-rule="nonzero" d="M74 11v63c0 1.782-2.154 2.674-3.414 1.414L70 74.828l-.587.587a2 2 0 0 1-2.829-.001L66 74.829l-.586.585a2 2 0 0 1-2.828 0L62 74.828l-.586.586a2 2 0 0 1-2.828 0L58 74.828l-.586.586a2 2 0 0 1-2.828 0L54 74.828l-.586.586a2 2 0 0 1-2.828 0L50 74.828l-.586.586a2 2 0 0 1-2.828 0L46 74.828l-.586.586a2 2 0 0 1-2.828 0L42 74.828l-.586.586a2 2 0 0 1-2.827.002L38 74.828l-.583.585a2 2 0 0 1-2.83.001L34 74.828l-.586.586C32.154 76.674 30 75.782 30 74V11c0-1.782 2.154-2.674 3.414-1.414l.586.586.586-.586a2 2 0 0 1 2.828 0l.586.586.586-.586a2 2 0 0 1 2.828 0l.586.586.586-.586a2 2 0 0 1 2.828 0l.586.586.586-.586a2 2 0 0 1 2.828 0l.586.586.586-.586a2 2 0 0 1 2.828 0l.586.586.586-.586a2 2 0 0 1 2.827-.001l.588.587.584-.585a2 2 0 0 1 2.83-.001l.585.586.586-.586a2 2 0 0 1 2.828 0l.586.586.586-.586a2 2 0 0 1 2.828 0l.586.586.586-.586C71.846 8.326 74 9.218 74 11zm-2 0l-1.29 1.29a1 1 0 0 1-1.42 0L68 11l-1.29 1.29a1 1 0 0 1-1.42 0L64 11l-1.29 1.29a1 1 0 0 1-1.42 0L60 11l-1.288 1.29a1 1 0 0 1-1.421 0L56 11l-1.29 1.29a1 1 0 0 1-1.42 0L52 11l-1.29 1.29a1 1 0 0 1-1.42 0L48 11l-1.29 1.29a1 1 0 0 1-1.42 0L44 11l-1.29 1.29a1 1 0 0 1-1.42 0L40 11l-1.29 1.29a1 1 0 0 1-1.42 0L36 11l-1.29 1.29a1 1 0 0 1-1.42 0L32 11v63l1.29-1.29a1 1 0 0 1 1.42 0L36 74l1.287-1.29a.992.992 0 0 1 1.41-.01L40 74l1.29-1.29a1 1 0 0 1 1.42 0L44 74l1.29-1.29a1 1 0 0 1 1.42 0L48 74l1.29-1.29a1 1 0 0 1 1.42 0L52 74l1.29-1.29a1 1 0 0 1 1.42 0L56 74l1.29-1.29a1 1 0 0 1 1.42 0L60 74l1.29-1.29a1 1 0 0 1 1.42 0L64 74l1.29-1.29a1 1 0 0 1 1.42 0L68 74l1.29-1.29a1 1 0 0 1 1.422 0L72 74V11z" class="color-500"/><path fill="#000" fill-rule="nonzero" d="M30.414 14.586l.586.586.586-.586a2 2 0 0 1 2.828 0l.586.586.586-.586a2 2 0 0 1 2.828 0l.586.586.586-.586a2 2 0 0 1 2.828 0l.586.586.586-.586a2 2 0 0 1 2.828 0l.586.586.586-.586a2 2 0 0 1 2.827-.001l.588.587.584-.585a2 2 0 0 1 2.83-.001l.585.586.586-.586a2 2 0 0 1 2.828 0l.586.586.586-.586a2 2 0 0 1 2.828 0l.586.586.586-.586C64.846 13.326 67 14.218 67 16v55c0 1.782-2.154 2.674-3.414 1.414L63 71.828l-.587.587a2 2 0 0 1-2.829-.001L59 71.829l-.586.585a2 2 0 0 1-2.828 0L55 71.828l-.586.586a2 2 0 0 1-2.828 0L51 71.828l-.586.586a2 2 0 0 1-2.828 0L47 71.828l-.586.586a2 2 0 0 1-2.828 0L43 71.828l-.586.586a2 2 0 0 1-2.828 0L39 71.828l-.586.586a2 2 0 0 1-2.828 0L35 71.828l-.586.586a2 2 0 0 1-2.827.002L31 71.828l-.583.585c-.781.782-.783-58.608-.002-57.827z" class="color-shadow" opacity=".1"/></g><g class="animate-float"><path fill="#FFF" d="M2 3l1.29 1.29a1 1 0 0 0 1.42 0L6 3l1.29 1.29a1 1 0 0 0 1.42 0L10 3l1.29 1.29a1 1 0 0 0 1.42 0L14 3l1.29 1.29a1 1 0 0 0 1.42 0L18 3l1.29 1.29a1 1 0 0 0 1.42 0L22 3l1.29 1.29a1 1 0 0 0 1.42 0L26 3l1.29 1.29a1 1 0 0 0 1.422 0L30 3l1.29 1.29a1 1 0 0 0 1.42 0L34 3l1.29 1.29a1 1 0 0 0 1.42 0L38 3l1.29 1.29a1 1 0 0 0 1.42 0L42 3v63l-1.29-1.29a1 1 0 0 0-1.421 0L37.999 66l-1.289-1.29a1 1 0 0 0-1.42 0L34 66l-1.29-1.29a1 1 0 0 0-1.42 0L30 66l-1.29-1.29a1 1 0 0 0-1.42 0L26 66l-1.29-1.29a1 1 0 0 0-1.42 0L22 66l-1.29-1.29a1 1 0 0 0-1.42 0L18 66l-1.29-1.29a1 1 0 0 0-1.42 0L14 66l-1.29-1.29a1 1 0 0 0-1.42 0L10 66l-1.303-1.3a.992.992 0 0 0-1.41.01L6 66l-1.29-1.29a1 1 0 0 0-1.42 0L2 66V3z" class="color-100" transform="translate(18 15)"/><path fill="#005CB9" fill-rule="nonzero" d="M44 3v63c0 1.782-2.154 2.674-3.414 1.414L40 66.828l-.587.587a2 2 0 0 1-2.829-.001L36 66.829l-.586.585a2 2 0 0 1-2.828 0L32 66.828l-.586.586a2 2 0 0 1-2.828 0L28 66.828l-.586.586a2 2 0 0 1-2.828 0L24 66.828l-.586.586a2 2 0 0 1-2.828 0L20 66.828l-.586.586a2 2 0 0 1-2.828 0L16 66.828l-.586.586a2 2 0 0 1-2.828 0L12 66.828l-.586.586a2 2 0 0 1-2.827.002L8 66.828l-.583.585a2 2 0 0 1-2.83.001L4 66.828l-.586.586C2.154 68.674 0 67.782 0 66V3C0 1.218 2.154.326 3.414 1.586L4 2.172l.586-.586a2 2 0 0 1 2.828 0L8 2.172l.586-.586a2 2 0 0 1 2.828 0l.586.586.586-.586a2 2 0 0 1 2.828 0l.586.586.586-.586a2 2 0 0 1 2.828 0l.586.586.586-.586a2 2 0 0 1 2.828 0l.586.586.586-.586a2 2 0 0 1 2.827-.001l.588.587.584-.585a2 2 0 0 1 2.83-.001l.585.586.586-.586a2 2 0 0 1 2.828 0l.586.586.586-.586a2 2 0 0 1 2.828 0l.586.586.586-.586C41.846.326 44 1.218 44 3zm-2 0l-1.29 1.29a1 1 0 0 1-1.42 0L38 3l-1.29 1.29a1 1 0 0 1-1.42 0L34 3l-1.29 1.29a1 1 0 0 1-1.42 0L30 3l-1.288 1.29a1 1 0 0 1-1.421 0L26 3l-1.29 1.29a1 1 0 0 1-1.42 0L22 3l-1.29 1.29a1 1 0 0 1-1.42 0L18 3l-1.29 1.29a1 1 0 0 1-1.42 0L14 3l-1.29 1.29a1 1 0 0 1-1.42 0L10 3 8.71 4.29a1 1 0 0 1-1.42 0L6 3 4.71 4.29a1 1 0 0 1-1.42 0L2 3v63l1.29-1.29a1 1 0 0 1 1.42 0L6 66l1.287-1.29a.992.992 0 0 1 1.41-.01L10 66l1.29-1.29a1 1 0 0 1 1.42 0L14 66l1.29-1.29a1 1 0 0 1 1.42 0L18 66l1.29-1.29a1 1 0 0 1 1.42 0L22 66l1.29-1.29a1 1 0 0 1 1.42 0L26 66l1.29-1.29a1 1 0 0 1 1.42 0L30 66l1.29-1.29a1 1 0 0 1 1.42 0L34 66l1.29-1.29a1 1 0 0 1 1.42 0L38 66l1.29-1.29a1 1 0 0 1 1.422 0L42 66V3z" class="color-500" transform="translate(18 15)"/><path fill="#005CB9" d="M8.243 56.657l-1.417 1.416a1.003 1.003 0 0 0 .002 1.412.996.996 0 0 0 1.413.002l1.416-1.416 1.416 1.416a1.003 1.003 0 0 0 1.412-.002.996.996 0 0 0 .002-1.412l-1.416-1.416 1.416-1.416a1.003 1.003 0 0 0-.002-1.413.996.996 0 0 0-1.412-.002l-1.416 1.417-1.416-1.417a1.003 1.003 0 0 0-1.413.002.996.996 0 0 0-.002 1.413l1.417 1.416z" class="color-500" transform="translate(18 15)"/><rect width="21" height="3" x="16" y="55" fill="#0B77E3" class="color-400" rx="1" transform="translate(18 15)"/><path fill="#40A0FF" d="M7 26.999c0-.552.455-.999.992-.999h18.016c.548 0 .992.443.992.999v1.002c0 .552-.455.999-.992.999H7.992A.992.992 0 0 1 7 28.001v-1.002zm23 0A.994.994 0 0 1 31.003 26h4.994a.998.998 0 0 1 1.003.999v1.002a.994.994 0 0 1-1.003.999h-4.994A.998.998 0 0 1 30 28.001v-1.002zm-23 6c0-.552.455-.999.992-.999h18.016c.548 0 .992.443.992.999v1.002c0 .552-.455.999-.992.999H7.992A.992.992 0 0 1 7 34.001v-1.002zm23 0A.994.994 0 0 1 31.003 32h4.994a.998.998 0 0 1 1.003.999v1.002a.994.994 0 0 1-1.003.999h-4.994A.998.998 0 0 1 30 34.001v-1.002zm-23 6c0-.552.455-.999.992-.999h18.016c.548 0 .992.443.992.999v1.002c0 .552-.455.999-.992.999H7.992A.992.992 0 0 1 7 40.001v-1.002zm23 0A.994.994 0 0 1 31.003 38h4.994a.998.998 0 0 1 1.003.999v1.002a.994.994 0 0 1-1.003.999h-4.994A.998.998 0 0 1 30 40.001v-1.002zm-23 6c0-.552.455-.999.992-.999h18.016c.548 0 .992.443.992.999v1.002c0 .552-.455.999-.992.999H7.992A.992.992 0 0 1 7 46.001v-1.002zm23 0A.994.994 0 0 1 31.003 44h4.994a.998.998 0 0 1 1.003.999v1.002a.994.994 0 0 1-1.003.999h-4.994A.998.998 0 0 1 30 46.001v-1.002z" class="color-300" transform="translate(18 15)"/><path fill="#005CB9" d="M7 14a1 1 0 0 1 .998-1h28.004a1 1 0 1 1 0 2H7.998A.997.997 0 0 1 7 14zm5 5c0-.552.455-1 .992-1h18.016c.548 0 .992.444.992 1 0 .552-.455 1-.992 1H12.992A.993.993 0 0 1 12 19z" class="color-500" transform="translate(18 15)"/></g><g class="animate-float-right"><path fill="#40A0FF" d="M67.566 76.061l-.006 5.958c0 .718.402.883.898.386L78.623 72.24a1.286 1.286 0 0 0-.008-1.806L68.49 60.307c-.497-.496-.908-.332-.909.378l-.005 5.817c-1.645.428-6.018 1.922-10.29 6.436-5.404 5.712-4.163 10.452-4.163 10.452.057.7.481.8.893.22 0 0 2.706-4.29 7.229-6.361 3.151-1.444 5.305-1.367 6.322-1.188z" class="color-300"/><path fill="#005CB9" fill-rule="nonzero" d="M69.903 58.893l10.126 10.126a3.286 3.286 0 0 1 .009 4.635L69.872 83.82c-1.765 1.765-4.314.686-4.312-1.803l.004-4.011c-.971.114-2.132.44-3.487 1.061-1.217.557-2.377 1.346-3.461 2.31a18.61 18.61 0 0 0-2.186 2.314 12.5 12.5 0 0 0-.723.987l-.062.092c-1.44 2.024-4.182 1.41-4.499-1.051a6.12 6.12 0 0 1-.066-.39c-.466-3.337.723-7.507 4.753-11.765 3.192-3.373 6.599-5.444 9.743-6.542l.004-4.339c.002-2.491 2.568-3.545 4.323-1.79zm-2.323 1.792l-.005 5.817c-1.645.428-6.018 1.922-10.29 6.436-5.404 5.712-4.163 10.452-4.163 10.452.057.7.481.8.893.22 0 0 2.706-4.29 7.229-6.361 3.151-1.444 5.305-1.367 6.322-1.188l-.006 5.958c0 .718.402.883.898.386L78.623 72.24a1.286 1.286 0 0 0-.008-1.806L68.49 60.307c-.497-.496-.908-.332-.909.378z" class="color-500"/></g></g></svg>