<svg xmlns="http://www.w3.org/2000/svg" width="92" height="92" class="wd-applet wd-applet-external-application" focusable="false" role="presentation" viewBox="0 0 92 92"><g fill="none" fill-rule="evenodd" class="wd-icon-container"><g fill="#0B77E3" fill-opacity=".2" class="animate-flood"><path d="M46 82c19.882 0 36-16.118 36-36S65.882 10 46 10 10 26.118 10 46s16.118 36 36 36z" class="color-400-alpha-20"/></g><g class="animate-shrink"><path fill="#FFF" d="M14 27v47.999A1 1 0 0 0 14.993 76h62.005C77.55 76 78 75.546 78 74.999V27H14z" class="color-100"/><path fill="#40A0FF" d="M14 17.997c0-.55.443-.997 1.005-.997h61.99c.555 0 1.005.453 1.005.997V25H14v-7.003z" class="color-300"/><path fill="#005CB9" fill-rule="nonzero" d="M76.995 15A2.998 2.998 0 0 1 80 18v57c0 1.66-1.341 3-3.005 3h-61.99A2.998 2.998 0 0 1 12 75V18c0-1.66 1.341-3 3.005-3h61.99zM78 27H14v47.999A1 1 0 0 0 14.993 76h62.005C77.55 76 78 75.546 78 74.999V27zM42.118 46.532l1.76 1.76-1.414 1.415-.707-.707-2.828 2.828 4.243 4.243L46 53.243l-.707-.707 1.414-1.415 1.761 1.761c.2.2.22.5.04.681l-5.016 5.016c-.177.177-.481.16-.68-.04l-6.351-6.35c-.2-.2-.22-.5-.04-.68l5.016-5.017c.177-.177.481-.16.68.04zm7.067-1.418l.7.7a.507.507 0 0 1-.003.718l-6.35 6.35a.5.5 0 0 1-.717.004l-.7-.7a.507.507 0 0 1 .003-.718l6.35-6.35a.5.5 0 0 1 .717-.004zm.004-5.653l6.35 6.35c.2.2.22.5.04.68l-5.016 5.017c-.177.177-.481.16-.68-.04l-1.762-1.76 1.415-1.415.707.707 2.828-2.828-4.243-4.243L46 44.757l.707.707-1.414 1.415-1.761-1.761c-.2-.2-.22-.5-.04-.681l5.016-5.016c.177-.177.481-.16.68.04zM76.995 17h-61.99a.997.997 0 0 0-1.005.997V25h64v-7.003c0-.544-.45-.997-1.005-.997zM18 19a2 2 0 1 1 0 4 2 2 0 0 1 0-4zm6 0a2 2 0 1 1 0 4 2 2 0 0 1 0-4zm6 0a2 2 0 1 1 0 4 2 2 0 0 1 0-4z" class="color-500"/></g><g class="animate-grow"><path fill="#000" d="M72.903 44.893L80 51.99v10.7l-7.128 7.13c-1.765 1.765-4.314.686-4.312-1.803l.004-4.011c-.971.114-2.132.44-3.487 1.061-1.217.557-2.377 1.346-3.461 2.31a18.61 18.61 0 0 0-2.186 2.314 12.5 12.5 0 0 0-.723.987l-.062.092c-1.44 2.024-4.182 1.41-4.499-1.051a6.12 6.12 0 0 1-.066-.39c-.466-3.337.723-7.507 4.753-11.765 3.192-3.373 6.599-5.444 9.743-6.542l.004-4.339c.002-2.491 2.568-3.545 4.323-1.79z" class="color-shadow" opacity=".1"/><path fill="#40A0FF" d="M72.566 64.061l-.006 5.958c0 .718.402.883.898.386L83.623 60.24a1.286 1.286 0 0 0-.008-1.806L73.49 48.307c-.497-.496-.908-.332-.909.378l-.005 5.817c-1.645.428-6.018 1.922-10.29 6.436-5.404 5.712-4.163 10.452-4.163 10.452.057.7.481.8.893.22 0 0 2.706-4.29 7.229-6.361 3.151-1.444 5.305-1.367 6.322-1.188z" class="color-300"/><path fill="#005CB9" fill-rule="nonzero" d="M72.56 70.02c0 .717.402.882.898.385L83.623 60.24a1.286 1.286 0 0 0-.008-1.806L73.49 48.307c-.497-.496-.908-.332-.909.378l-.005 5.817c-1.645.428-6.018 1.922-10.29 6.436-5.404 5.712-4.163 10.452-4.163 10.452.057.7.481.8.893.22 0 0 2.706-4.29 7.229-6.361 3.151-1.444 5.305-1.367 6.322-1.188l-.006 5.958zm-5.483-2.953c-1.217.557-2.377 1.346-3.461 2.31a18.61 18.61 0 0 0-2.186 2.314 12.5 12.5 0 0 0-.723.987l-.062.092c-1.44 2.024-4.182 1.41-4.499-1.051a6.12 6.12 0 0 1-.066-.39c-.466-3.337.723-7.507 4.753-11.765 3.192-3.373 6.599-5.444 9.743-6.542l.004-4.339c.002-2.491 2.568-3.545 4.323-1.79l10.126 10.126a3.286 3.286 0 0 1 .009 4.635L74.872 71.82c-1.765 1.765-4.314.686-4.312-1.803l.004-4.011c-.971.114-2.132.44-3.487 1.061z" class="color-500"/></g></g></svg>