<svg xmlns="http://www.w3.org/2000/svg" width="79" height="77" fill="none" class="wd-applet-extend wd-applet" focusable="false" role="presentation" viewBox="0 0 79 77"><g class="wd-icon-container"><g class="animate-flood"><path fill="#0B77E3" fill-opacity=".2" d="M36 72c19.882 0 36-16.118 36-36S55.882 0 36 0 0 16.118 0 36s16.118 36 36 36z" class="color-400-alpha-20"/></g><g class="animate-shrink"><path fill="#fff" d="M67 16H5v47h62V16z" class="color-100"/><path fill="#A6D2FF" fill-rule="evenodd" d="M41 23a1 1 0 0 1 1-1h.5a1 1 0 0 1 .4 1.917 1 1 0 0 1-1.9-.438V23zm3.5 0a1 1 0 0 1 1-1h1a1 1 0 1 1 0 2h-1a1 1 0 0 1-1-1zm4 0a1 1 0 0 1 1-1h1a1 1 0 1 1 0 2h-1a1 1 0 0 1-1-1zm4 0a1 1 0 0 1 1-1h1a1 1 0 1 1 0 2h-1a1 1 0 0 1-1-1zm4 0a1 1 0 0 1 1-1h1a1 1 0 1 1 0 2h-1a1 1 0 0 1-1-1zm4 0a1 1 0 0 1 1-1h.5a1 1 0 0 1 1 1v.48a1 1 0 0 1-1.9.437 1 1 0 0 1-.6-.917zm1.5 2.354a1 1 0 0 1 1 1v.959a1 1 0 1 1-2 0v-.959a1 1 0 0 1 1-1zm-20 0a1 1 0 0 1 1 1v.959a1 1 0 1 1-2 0v-.959a1 1 0 0 1 1-1zm0 3.834a1 1 0 0 1 1 1v.958a1 1 0 1 1-2 0v-.959a1 1 0 0 1 1-1zm20 0a1 1 0 0 1 1 1v.958a1 1 0 1 1-2 0v-.959a1 1 0 0 1 1-1zM42 33.02a1 1 0 0 1 1 1v.958a1 1 0 1 1-2 0v-.958a1 1 0 0 1 1-1zm20 0a1 1 0 0 1 1 1v.958a1 1 0 1 1-2 0v-.958a1 1 0 0 1 1-1zm-20 3.833a1 1 0 0 1 1 1v.959a1 1 0 1 1-2 0v-.959a1 1 0 0 1 1-1zm20 0a1 1 0 0 1 1 1v.959a1 1 0 1 1-2 0v-.959a1 1 0 0 1 1-1zm-20 3.834a1 1 0 0 1 1 1v.958a1 1 0 1 1-2 0v-.959a1 1 0 0 1 1-1zm20 0a1 1 0 0 1 1 1v.958a1 1 0 1 1-2 0v-.959a1 1 0 0 1 1-1zm-19.1 4.395a1 1 0 0 0-1.9.438V46a1 1 0 0 0 1 1h.5a1 1 0 0 0 .4-1.917zM62 44.52a1 1 0 0 1 1 1V46a1 1 0 0 1-1 1h-.5a1 1 0 0 1-.4-1.917 1 1 0 0 1 .9-.562zM44.5 46a1 1 0 0 1 1-1h1a1 1 0 1 1 0 2h-1a1 1 0 0 1-1-1zm4 0a1 1 0 0 1 1-1h1a1 1 0 1 1 0 2h-1a1 1 0 0 1-1-1zm4 0a1 1 0 0 1 1-1h1a1 1 0 1 1 0 2h-1a1 1 0 0 1-1-1zm4 0a1 1 0 0 1 1-1h1a1 1 0 1 1 0 2h-1a1 1 0 0 1-1-1z" class="color-200" clip-rule="evenodd"/><g fill="#40A0FF" class="color-300"><path d="M5 8a2 2 0 0 1 2-2h58a2 2 0 0 1 2 2v8H5V8zM34 42H13a1 1 0 0 0-1 1v1a1 1 0 0 0 1 1h21a1 1 0 0 0 1-1v-1a1 1 0 0 0-1-1zM20 48h-7a1 1 0 0 0-1 1v1a1 1 0 0 0 1 1h7a1 1 0 0 0 1-1v-1a1 1 0 0 0-1-1zM23 54H13a1 1 0 0 0-1 1v1a1 1 0 0 0 1 1h10a1 1 0 0 0 1-1v-1a1 1 0 0 0-1-1zM26 48h-2a1 1 0 0 0-1 1v1a1 1 0 0 0 1 1h2a1 1 0 0 0 1-1v-1a1 1 0 0 0-1-1z"/></g><g fill="#0875E1" class="color-400"><path d="M26.634 23.5a1 1 0 0 1 1.732 0l8.227 14.25a1 1 0 0 1-.866 1.5H19.273a1 1 0 0 1-.866-1.5l8.227-14.25zM14.897 32.5l-3.031 5.25a1 1 0 0 0 .866 1.5h3.031l2.382-4.125-1.516-2.625a1 1 0 0 0-1.732 0zM15.763 29a1.5 1.5 0 1 0 0-3 1.5 1.5 0 0 0 0 3z"/></g><g fill="#005CB9" class="color-500"><path fill-rule="evenodd" d="M66 7H6v55h60V7zM6 5a2 2 0 0 0-2 2v55a2 2 0 0 0 2 2h60a2 2 0 0 0 2-2V7a2 2 0 0 0-2-2H6z" clip-rule="evenodd"/><path fill-rule="evenodd" d="M66 17H4v-2h62v2z" clip-rule="evenodd"/><path d="M10 13a2 2 0 1 0 0-4 2 2 0 0 0 0 4zM16 13a2 2 0 1 0 0-4 2 2 0 0 0 0 4zM22 13a2 2 0 1 0 0-4 2 2 0 0 0 0 4z"/></g></g><g class="animate-grow"><g fill="#fff" class="color-100"><path d="M49 39a2 2 0 1 0 0-4 2 2 0 0 0 0 4zM68 50a2 2 0 1 0 0-4 2 2 0 0 0 0 4zM58 68a2 2 0 1 0 0-4 2 2 0 0 0 0 4z"/></g><path fill="#A6D2FF" fill-rule="evenodd" d="M47.052 37.456l-5.63 3.321c-1.313.774-1.313 2.672 0 3.446L56.983 53.4a2 2 0 0 0 2.032 0l7.308-4.31a2 2 0 0 1 3.443-2.03l4.812-2.838c1.312-.774 1.312-2.672 0-3.446L67.75 36.75l-8.734-5.15a2 2 0 0 0-2.032 0l-6.642 3.917a2 2 0 1 1-3.29 1.94z" class="color-200" clip-rule="evenodd"/><path fill="#40A0FF" d="M39 44.274v19.662a1 1 0 0 0 .482.856l17 10.29A1 1 0 0 0 58 74.225V68a2 2 0 1 1 0-4v-9.436a1 1 0 0 0-.482-.856l-17-10.29a1 1 0 0 0-1.518.856z" class="color-300"/><path fill="#0875E1" d="M69.88 47.318L77 43v22L58 76v-8a2 2 0 1 0 0-4v-9.476l8.526-5.172a2 2 0 0 0 3.354-2.034z" class="color-400"/><path fill="#005CB9" fill-rule="evenodd" d="M59.525 30.74a3 3 0 0 0-3.05 0l-5.123 3.024a4 4 0 0 0-6.321 3.733l-5.609 3.311a3 3 0 0 0-1.475 2.584v20.216a3 3 0 0 0 1.475 2.584L56.475 76.26a3 3 0 0 0 3.05 0l17.053-10.07a3 3 0 0 0 1.475-2.583V43.392a3 3 0 0 0-1.475-2.584L59.525 30.74zM49 35a2.002 2.002 0 0 1 1.96 2.403 2.003 2.003 0 0 1-2.588 1.496A2.001 2.001 0 0 1 49 35zm0 6c-1.32 0-2.49-.639-3.218-1.624L40.8 42.317 57.478 52.51a1 1 0 0 0 1.043 0l5.624-3.437a4 4 0 0 1 6.567-4.013l4.487-2.742-16.69-9.855a1 1 0 0 0-1.017 0l-4.857 2.867A4 4 0 0 1 49 41zm16.147 9.804l-5.583 3.412c-.18.11-.37.2-.564.269v7.641a4.002 4.002 0 0 1 0 7.748v4.374l16.561-9.779a1 1 0 0 0 .492-.86v-19.47l-4.255 2.601a4 4 0 0 1-6.65 4.064zM59 67.732A2 2 0 0 0 58 64a2 2 0 0 0 0 4 1.99 1.99 0 0 0 1-.268zm-2-5.606a4.002 4.002 0 0 0 0 7.748v4.374L40.439 64.47a1 1 0 0 1-.492-.86v-19.47l16.489 10.077c.18.11.37.2.564.269v7.641zm12.994-14.284a1.99 1.99 0 0 1-.876 1.816A1.99 1.99 0 0 1 68 50a1.999 1.999 0 0 1 0-4 2.001 2.001 0 0 1 1.994 1.842z" class="color-500" clip-rule="evenodd"/></g></g></svg>