<svg xmlns="http://www.w3.org/2000/svg" width="92" height="92" class="wd-applet wd-applet-fallback" focusable="false" role="presentation" viewBox="0 0 92 92"><g fill="none" fill-rule="evenodd" class="wd-icon-container"><g fill="#0B77E3" fill-opacity=".2" class="animate-flood"><path d="M46 82c19.882 0 36-16.118 36-36S65.882 10 46 10 10 26.118 10 46s16.118 36 36 36z" class="color-400-alpha-20"/></g><g class="animate-shrink"><path fill="#005CB9" fill-rule="nonzero" d="M76.848 42.704l1.544-1.247c-1.283-1.922-3.772-3.706-5.546-4.412l-.703 1.993a13.735 13.735 0 0 1 4.705 3.666zm3.079 7.33l2.022-.196c-.442-2.798-.92-4.327-2.175-6.52l-1.748 1.054a14.061 14.061 0 0 1 1.565 3.761c.151.62.267 1.254.336 1.901zm-1.51 7.785l1.779.938c1.166-2.376 1.684-4.128 1.797-6.637l-2.007-.087a13.697 13.697 0 0 1-1.568 5.786zm-5.554 5.603l.982 1.798c2.376-1.308 3.692-2.467 5.116-4.49l-1.628-1.178c-.415.563-.87 1.093-1.364 1.586a12.763 12.763 0 0 1-3.106 2.284zM63 65.005V67h-6v-1.995h6zm-8 0V67h-6v-1.994l5.446-.001H55zm-8 .001V67h-6v-1.994h6zm-8 0V67h-6v-1.994h6zM27.966 65H25v2h6v-1.994h-2.106L27.966 65zm37.044.005V67c2.7.06 4.588-.236 6.636-.985l-.653-1.787c-1.482.51-3.083.777-4.749.777H65.01zM17.415 63.15l-1.023 1.733c2.457 1.512 4.523 1.983 6.621 2.124v-2.044a12.008 12.008 0 0 1-5.598-1.813zm-4.82-6.114l-1.897.64c.958 2.72 2.32 4.524 3.862 5.954l1.389-1.572a11.504 11.504 0 0 1-3.355-5.022zm.078-7.61c.037-.114.075-.224.116-.33l-1.93-.755c-1.015 2.7-1.13 4.958-.869 7.044l2.132-.32a12.348 12.348 0 0 1-.003-.043 11.83 11.83 0 0 1 .554-5.596zm5.704-6.577l-.932-1.78c-2.537 1.371-4.133 3.044-5.496 5.223l1.697 1.047a11.879 11.879 0 0 1 4.73-4.49zm7.779-10.658l.025-.013-.383-1.962c-2.514.442-4.921 2.298-6.061 4.536l1.77.947a6.78 6.78 0 0 1 4.649-3.508zm11.889-8.21l-1.139-1.646c-1.85 1.095-3.683 2.572-4.984 4.374l1.539 1.292a19.745 19.745 0 0 1 4.584-4.02zm7.407-2.764l-.3-1.982c-1.875.24-4.157.859-6.262 1.982l.929 1.765c.353-.175.713-.34 1.078-.495a18.428 18.428 0 0 1 4.555-1.27zm7.995.379l.484-1.933c-2.034-.49-4.184-.772-6.608-.63l.114 2.004c.383-.023.768-.038 1.156-.038 1.664 0 3.295.206 4.854.597zm7.198 3.498l1.25-1.583c-1.689-1.35-3.584-2.377-5.856-3.233l-.67 1.906a19.61 19.61 0 0 1 5.276 2.91zm5.2 6.058l1.759-.977c-1.109-1.952-2.559-3.82-4.07-5.257l-1.38 1.47a19.8 19.8 0 0 1 3.692 4.764zm.878 1.797l1.818-.791c.698 1.272 1.567 4.047 1.553 6.1-.65-.189-1.32-.331-2.007-.423a19.553 19.553 0 0 0-1.364-4.886zm-45.871 4.668l-1.978-.216c-.278 1.729-.044 3.763.63 4.935a11.697 11.697 0 0 1 1.918-.571 6.743 6.743 0 0 1-.57-4.148zm11.402-8.007l-1.651-1.132c-.38.587-.748 1.187-1.1 1.8.004.002-.39-.108-.596-.132a10.3 10.3 0 0 0-.505-.046l-.208 1.99a6.75 6.75 0 0 1 2.33.678 19.821 19.821 0 0 1 1.73-3.158z" class="color-500"/><path fill="#FFF" d="M75.971 41.738a13.725 13.725 0 0 0-7.884-3.902 19.553 19.553 0 0 0-1.34-4.83 19.664 19.664 0 0 0-4.213-6.248 19.664 19.664 0 0 0-6.248-4.213A19.796 19.796 0 0 0 48.593 21c-.484 0-.964.023-1.44.057a18.255 18.255 0 0 0-6.256 1.431A19.665 19.665 0 0 0 30.524 32.77a6.725 6.725 0 0 0-3.01-.713 6.77 6.77 0 0 0-6.77 6.77c0 1.055.249 2.05.678 2.94a11.834 11.834 0 0 0-8.204 6.366A11.764 11.764 0 0 0 12 53.346c0 6.267 4.878 11.38 11.044 11.785l5.85.04H47.152l7.294-.002h11.798c3.79 0 7.242-1.543 9.725-4.031A13.722 13.722 0 0 0 80 51.409c0-1.129-.152-2.222-.41-3.276a13.874 13.874 0 0 0-3.619-6.395z" class="color-100"/></g></g></svg>