<svg xmlns="http://www.w3.org/2000/svg" width="92" height="92" class="wd-applet wd-applet-favbo" focusable="false" role="presentation" viewBox="0 0 92 92"><g fill="none" fill-rule="evenodd" class="wd-icon-container"><g fill="#0B77E3" fill-opacity=".2" class="animate-flood"><path d="M46 10c19.882 0 36 16.118 36 36S65.882 82 46 82 10 65.882 10 46s16.118-36 36-36z" class="color-400-alpha-20"/></g><g class="animate-float-right"><path fill="#FFF" d="M77 63H35L21 48V35l14.004-15H77z" class="color-100"/><path fill="#000" d="M34.995 62.998L21.27 48.288a1 1 0 0 1-.269-.682V35l8-9h45a1 1 0 0 1 1 1v35.998H34.995z" class="color-shadow" opacity=".1"/><path fill="#005CB9" fill-rule="nonzero" d="M77 18a2 2 0 0 1 2 2v43a2 2 0 0 1-2 2H35a2 2 0 0 1-1.462-.635l-14-15A2 2 0 0 1 19 48V35a2 2 0 0 1 .538-1.365l14.004-15A2 2 0 0 1 35.004 18H77zm0 2H35.004L21 35v13l14 15h42V20z" class="color-500"/></g><g class="animate-float-left"><path fill="#FFF" d="M67 45H25L11 30V17L25.004 2H67z" class="color-100" transform="translate(4 29)"/><path fill="#40A0FF" d="M35.001 12c.552 0 .999.439.999 1.003v20.994A.998.998 0 0 1 35.001 35h-1.002A.995.995 0 0 1 33 33.997V13.003A.998.998 0 0 1 33.999 12h1.002zm8 0c.552 0 .999.439.999 1.003v20.994A.998.998 0 0 1 43.001 35h-1.002A.995.995 0 0 1 41 33.997V13.003A.998.998 0 0 1 41.999 12h1.002z" class="color-300" transform="translate(4 29)"/><path fill="#005CB9" fill-rule="nonzero" d="M67 0a2 2 0 0 1 2 2v43a2 2 0 0 1-2 2H25a2 2 0 0 1-1.462-.635l-14-15A2 2 0 0 1 9 30V17a2 2 0 0 1 .538-1.365l14.004-15A2 2 0 0 1 25.004 0H67zm0 2H25.004L11 17v13l14 15h42V2z" class="color-500" transform="translate(4 29)"/><circle cx="19.5" cy="23.5" r="1.5" fill="#0B77E3" class="color-400" transform="translate(4 29)"/><path fill="#005CB9" fill-rule="nonzero" d="M19.5 20a3.5 3.5 0 1 1 0 7 3.5 3.5 0 0 1 0-7zm0 2a1.5 1.5 0 1 0 0 3 1.5 1.5 0 0 0 0-3z" class="color-500" transform="translate(4 29)"/><path fill="#005CB9" fill-rule="nonzero" d="M19.418 39.028l1.409 1.512c-.229.351-.468.7-.719 1.044C15.225 48.305 7.8 51.56 3.197 48.217-1.406 44.873-.604 36.805 4.28 30.083c4.883-6.721 12.308-9.977 16.911-6.633a6.783 6.783 0 0 1 1.5 1.495c-.273.616-.734 1.137-1.397 1.522a4.782 4.782 0 0 0-1.278-1.4c-3.478-2.526-9.799.246-14.118 6.192-4.32 5.946-5.003 12.814-1.526 15.34 3.478 2.526 9.799-.245 14.118-6.191.331-.455.64-.916.928-1.38z" class="color-500" transform="translate(4 29)"/></g></g></svg>