<svg xmlns="http://www.w3.org/2000/svg" width="93" height="92" fill="none" class="wd-applet-feedback-dashboard wd-applet" focusable="false" role="presentation" viewBox="0 0 93 92"><g class="wd-icon-container"><g class="animate-flood"><path fill="#0B77E3" fill-opacity=".2" fill-rule="evenodd" d="M47.087 82c19.882 0 36-16.118 36-36s-16.118-36-36-36-36 16.118-36 36 16.118 36 36 36z" class="color-400-alpha-20" clip-rule="evenodd"/></g><g class="animate-sink"><path fill="#fff" d="M12.925 16a4 4 0 0 1 4-4h36a4 4 0 0 1 4 4v22a4 4 0 0 1-4 4h-36a4 4 0 0 1-4-4V16z" class="color-100"/><path fill="#005CB9" fill-rule="evenodd" d="M52.925 14h-36a2 2 0 0 0-2 2v22a2 2 0 0 0 2 2h36a2 2 0 0 0 2-2V16a2 2 0 0 0-2-2zm-36-2a4 4 0 0 0-4 4v22a4 4 0 0 0 4 4h36a4 4 0 0 0 4-4V16a4 4 0 0 0-4-4h-36z" class="color-500" clip-rule="evenodd"/><path fill="#0875E1" fill-rule="evenodd" d="M50.403 17.622a1 1 0 0 1 .4 1.356l-4.5 8.27a1 1 0 0 1-1.301.428l-6.559-3.063-3.646 5.277a1 1 0 0 1-1.282.32l-4.224-2.185-2.98 3.543a1 1 0 0 1-.42.295l-5.62 2.075a1 1 0 0 1-.693-1.876l5.372-1.984 3.325-3.952a1 1 0 0 1 1.224-.245l4.153 2.148 3.626-5.248a1 1 0 0 1 1.246-.337l6.472 3.022 4.05-7.444a1 1 0 0 1 1.357-.4z" class="color-400" clip-rule="evenodd"/></g><g class="animate-shrink"><path fill="#40A0FF" d="M24.925 72c0-5.523 4.477-10 10-10h24c5.523 0 10 4.477 10 10v9a2 2 0 0 1-2 2h-40a2 2 0 0 1-2-2v-9z" class="color-300"/><path fill="#fff" d="M33.925 44c0-7.18 5.82-13 13-13s13 5.82 13 13v7c0 7.18-5.82 13-13 13s-13-5.82-13-13v-7z" class="color-100"/><path fill="#005CB9" fill-rule="evenodd" d="M53.856 62a12.99 12.99 0 0 0 6.069-11v-7c0-7.18-5.82-13-13-13s-13 5.82-13 13v7a12.99 12.99 0 0 0 6.069 11h-5.069c-5.523 0-10 4.477-10 10v9a2 2 0 0 0 2 2h40a2 2 0 0 0 2-2v-9c0-5.523-4.477-10-10-10h-5.069zm4.069-18v7c0 6.075-4.925 11-11 11s-11-4.925-11-11v-7c0-6.075 4.925-11 11-11s11 4.925 11 11zm-23 20a8 8 0 0 0-8 8v9h40v-9a8 8 0 0 0-8-8h-24z" class="color-500" clip-rule="evenodd"/></g><g class="animate-grow"><path fill="#005CB9" fill-rule="evenodd" d="M85.925 39.5c0 8.388-8.258 14.5-17.5 14.5-2.89 0-5.682-.597-8.157-1.675l-4.509 1.95a2 2 0 0 1-2.745-2.272l.961-4.289c-1.909-2.292-3.05-5.096-3.05-8.214 0-8.388 8.258-14.5 17.5-14.5s17.5 6.112 17.5 14.5zM62.566 51.076a17.12 17.12 0 0 1-2.282-.937l-5.319 2.301 1.189-5.302-.15-.16a12.405 12.405 0 0 1-1.442-1.881c-1.048-1.684-1.637-3.585-1.637-5.597 0-6.904 6.94-12.5 15.5-12.5 8.56 0 15.5 5.596 15.5 12.5S76.985 52 68.425 52a18.75 18.75 0 0 1-5.76-.892l-.034-.01a25.146 25.146 0 0 1-.065-.022z" class="color-500" clip-rule="evenodd"/><path fill="#fff" d="M68.425 52c8.56 0 15.5-5.596 15.5-12.5S76.985 27 68.425 27c-8.56 0-15.5 5.596-15.5 12.5 0 2.876 1.205 5.525 3.229 7.638l-1.189 5.302 5.319-2.3C62.65 51.318 65.439 52 68.425 52z" class="color-100"/><g fill="#40A0FF" fill-rule="evenodd" class="color-300" clip-rule="evenodd"><path d="M59.925 35a1 1 0 0 1 1-1h14a1 1 0 1 1 0 2h-14a1 1 0 0 1-1-1zM59.925 40a1 1 0 0 1 1-1h17a1 1 0 0 1 0 2h-17a1 1 0 0 1-1-1zM59.925 45a1 1 0 0 1 1-1h12a1 1 0 1 1 0 2h-12a1 1 0 0 1-1-1z"/></g></g></g></svg>