<svg xmlns="http://www.w3.org/2000/svg" width="92" height="92" class="wd-applet wd-applet-fin-accounting" focusable="false" role="presentation" viewBox="0 0 92 92"><g fill="none" fill-rule="evenodd" class="wd-icon-container"><g fill="#0B77E3" fill-opacity=".2" class="animate-flood"><path d="M46 82c19.882 0 36-16.118 36-36S65.882 10 46 10 10 26.118 10 46s16.118 36 36 36z" class="color-400-alpha-20"/></g><path fill="#40A0FF" d="M58.675 23.203l1.314 2.931-31.585 5.608-.21-.367 30.481-8.172zm0-5.227l1.457 3.165-33.797 8.984-.137-.27 32.477-11.88zm13.87 7.496l5.616 30.187L15.987 66.81l-5.083-30.404 61.64-10.935z" class="color-300"/><path fill="#000" d="M58.675 23.203l1.314 2.931-31.585 5.608-.21-.367 30.481-8.172zm0-5.227l1.457 3.165-33.797 8.984-.137-.27 32.477-11.88z" class="color-shadow" opacity=".1"/><path fill="#FFF" d="M60.36 22.561l5.504-1.824s1.068 5.188 1.051 5.125c-5.95 1.681-6.856-2-6.99-2.938-5.415 1.385-6.535-3.21-6.535-3.21l5.201-2.04 1.77 4.887zM12.426 42.755l-1.244-7.053 6.99-1.119s.159 7.13-5.746 8.172zM45.73 53.983c-4.351.767-8.731-2.178-9.499-6.53-.767-4.35 2.24-8.924 6.59-9.69 4.352-.768 8.87 2.28 9.636 6.632.768 4.351-2.376 8.82-6.727 9.588zm-30.737 5.59c5.906-1.04 8.194 5.714 8.194 5.714l-6.95 1.34-1.244-7.053zm61.665-11.03l1.243 7.053-6.99 1.118s-.159-7.13 5.747-8.171zm-2.92-16.23c-5.905 1.041-8.194-5.714-8.194-5.714l6.95-1.34 1.244 7.054z" class="color-100"/><path fill="#005CB9" fill-rule="nonzero" d="M19.141 35.11a8.033 8.033 0 0 1-6.547 9.285l2.43 13.781a8.033 8.033 0 0 1 9.327 6.479l45.225-7.974a8.033 8.033 0 0 1 6.506-9.271l-2.43-13.781a8.033 8.033 0 0 1-9.286-6.493l-45.225 7.975zm-1.97.348l-5.173.912a.804.804 0 0 0-.655.93l.904 5.126c3.321-.595 5.48-3.692 4.925-6.968zm5.21 29.544c-.602-3.264-3.687-5.433-7.01-4.856l.903 5.118a.806.806 0 0 0 .934.65l5.173-.912zm49.164-8.669l5.132-.905a.804.804 0 0 0 .655-.93l-.902-5.118a6.033 6.033 0 0 0-4.885 6.953zm-5.21-29.544a6.033 6.033 0 0 0 6.97 4.87l-.904-5.125a.806.806 0 0 0-.933-.65l-5.132.905zm.125-2.053l-.604-2.254a1.006 1.006 0 0 0-1.226-.713l-4.366 1.17a5.428 5.428 0 0 0 1.447 2.635l4.749-.838zM28.725 31.39l30.726-5.418a7.442 7.442 0 0 1-1.12-2.515L28.726 31.39zM9.499 36.205a3.01 3.01 0 0 1 1.978-2.946l45.445-16.54a3.003 3.003 0 0 1 3.851 1.79l.738 2.025 2.602-.697a3.006 3.006 0 0 1 3.675 2.128l.649 2.423 2.683-.474a2.806 2.806 0 0 1 3.25 2.273l4.932 27.964a2.804 2.804 0 0 1-2.278 3.247l-59.47 10.486a2.806 2.806 0 0 1-3.25-2.272l-4.93-27.964a2.787 2.787 0 0 1 .125-1.443zm50.072-15.15l-.677-1.863a1.003 1.003 0 0 0-1.288-.594l-3.455 1.257a4.844 4.844 0 0 0 1.197 2.33l4.223-1.13zm-33.03 8.85l26.704-7.156a6.85 6.85 0 0 1-.988-2.204l-25.715 9.36zm19.533 25.842c-5.439.96-10.625-2.672-11.584-8.111-.96-5.44 2.672-10.626 8.111-11.585 5.439-.959 10.626 2.673 11.585 8.112.959 5.439-2.673 10.625-8.112 11.584zm-.347-1.97a8 8 0 1 0-2.779-15.756 8 8 0 0 0 2.779 15.757z" class="color-500"/><g class="animate-grow"><path fill="#FFF" d="M48.75 39.005c1.886 1.204 3.307 3.12 3.707 5.39.405 2.293-.277 4.62-1.65 6.42A7.995 7.995 0 0 1 47 44c0-1.89.655-3.626 1.75-4.995z" class="color-100"/><path fill="#005CB9" d="M49.693 37.454a9.974 9.974 0 0 1 4.493 6.709 9.979 9.979 0 0 1-2.204 8.184 10.057 10.057 0 0 1-1.575-1.236 7.984 7.984 0 0 0 1.809-6.6 7.98 7.98 0 0 0-3.654-5.405c.321-.587.7-1.14 1.131-1.652z" class="color-500"/></g><g class="animate-float-rotate-left"><path fill="#0B77E3" d="M48.607 66.725l3.828 3.828L40.829 82.16l-3.83-3.828z" class="color-400"/><path fill="#40A0FF" d="M58.799 68.432a.999.999 0 0 1 0 1.414l-2.414 2.415a1 1 0 0 1-1.414 0L46.9 64.189a.999.999 0 0 1 0-1.414l2.414-2.414a.999.999 0 0 1 1.414 0l8.07 8.07z" class="color-300"/><path fill="#FCFCFC" d="M75.477 43.683c5.077 5.077 5.077 13.308 0 18.385-5.077 5.077-13.308 5.077-18.385 0-5.077-5.077-5.077-13.308 0-18.385 5.077-5.077 13.308-5.077 18.385 0" class="color-screen" opacity=".7"/><path fill="#000" d="M53.526 55.375c-.8-4.102.389-8.515 3.566-11.692 5.077-5.077 13.308-5.077 18.385 0a12.984 12.984 0 0 1 3.566 11.692 12.938 12.938 0 0 0-3.566-6.692c-5.077-5.077-13.308-5.077-18.385 0a12.938 12.938 0 0 0-3.566 6.692" class="color-shadow" opacity=".1"/><path fill="#A6D2FF" d="M56.792 62.367c5.32 5.32 13.883 5.384 19.126.142 5.242-5.243 5.178-13.805-.142-19.126-5.32-5.32-13.883-5.384-19.126-.142-5.242 5.243-5.178 13.806.142 19.126M54.44 64.72c-6.639-6.639-6.718-17.323-.177-23.865 6.541-6.54 17.226-6.462 23.865.177 6.64 6.64 6.718 17.324.177 23.865-6.542 6.541-17.226 6.462-23.865-.177" class="color-200"/><path fill="#005CB9" d="M58.244 60.916c4.507 4.507 11.76 4.56 16.2.12 4.442-4.441 4.388-11.694-.12-16.201-4.506-4.507-11.76-4.561-16.2-.12-4.441 4.44-4.387 11.694.12 16.2zm-1.495 1.513c-5.327-5.327-5.4-13.904-.145-19.16 5.255-5.254 13.832-5.181 19.159.146 5.326 5.326 5.4 13.904.145 19.159-5.255 5.255-13.833 5.182-19.16-.145zm-2.31 2.29c6.64 6.639 17.325 6.719 23.866.177 6.542-6.541 6.462-17.226-.176-23.865-6.64-6.638-17.324-6.718-23.865-.176-6.542 6.54-6.462 17.226.176 23.865zm-5.832 3.006L38 78.33l2.829 2.829 10.606-10.607-2.828-2.828zm.862-6.49a1.01 1.01 0 0 0-.162.132l-1.401 1.4a1.002 1.002 0 0 0-.005 1.424l7.068 7.068a1.012 1.012 0 0 0 1.423-.005l1.4-1.401c.05-.051.095-.105.132-.161a19.218 19.218 0 0 1-4.898-3.558 19.214 19.214 0 0 1-3.557-4.898zm-.814-1.836c-2.563-6.732-1.176-14.588 4.194-19.96 7.328-7.326 19.278-7.237 26.694.178 7.415 7.416 7.504 19.366.177 26.694-5.371 5.37-13.226 6.757-19.957 4.194a3.05 3.05 0 0 1-.556.762l-1.401 1.4a3.01 3.01 0 0 1-4.251.006l-.706-.706-10.606 10.607a2 2 0 0 1-2.83 0l-2.827-2.828a2 2 0 0 1 0-2.83l10.607-10.605-.706-.706a3 3 0 0 1 .005-4.251l1.4-1.401c.23-.23.489-.414.763-.554z" class="color-500"/></g></g></svg>