<svg xmlns="http://www.w3.org/2000/svg" width="92" height="92" fill="none" class="wd-applet-flexible-work wd-applet" focusable="false" role="presentation" viewBox="0 0 92 92"><g class="wd-icon-container"><g class="animate-flood"><path fill="#0B77E3" fill-opacity=".2" fill-rule="evenodd" d="M46 82c19.882 0 36-16.118 36-36S65.882 10 46 10 10 26.118 10 46s16.118 36 36 36z" class="color-400-alpha-20" clip-rule="evenodd"/></g><g class="animate-shrink"><path fill="#fff" fill-rule="evenodd" d="M29 24.508C29 17.047 35.042 11 42.5 11 49.956 11 56 17.046 56 24.508v8.985C56 40.953 49.958 47 42.5 47 35.044 47 29 40.954 29 33.492v-8.984z" class="color-100" clip-rule="evenodd"/><path fill="#A6D2FF" fill-rule="evenodd" d="M18 60c0-6.075 4.923-11 10.997-11h27.006C62.077 49 67 53.923 67 60v11H18V60z" class="color-200" clip-rule="evenodd"/><path fill="#005CB9" d="M18 60v11h49V60c0-6.077-4.923-11-10.997-11H28.997C22.923 49 18 53.925 18 60zm-2 0c0-7.18 5.818-13 12.997-13h27.006C63.182 47 69 52.82 69 60v10.997A2.002 2.002 0 0 1 67.003 73H17.997A1.998 1.998 0 0 1 16 70.997V60zm13-35.492v8.985C29 40.953 35.044 47 42.5 47 49.958 47 56 40.953 56 33.492v-8.984C56 17.046 49.956 11 42.5 11 35.042 11 29 17.047 29 24.508zm-2 0C27 15.943 33.938 9 42.5 9 51.061 9 58 15.942 58 24.508v8.985C58 42.056 51.062 49 42.5 49 33.939 49 27 42.058 27 33.492v-8.984z" class="color-500"/><path fill="#000" d="M55.555 47h.449c4.576 0 8.599 2.365 10.915 5.94h-.429v7.82a34.624 34.624 0 0 1 2.482-1.628c.018.287.028.576.028.868v10.738c-.456.634-.86 1.372-1.206 2.098-.242.106-.51.164-.79.164H56.365c-.515-1.091-1.195-2.249-2.026-3.08a41.916 41.916 0 0 0-5.87-4.28L47.69 67a2.56 2.56 0 0 1-2.51 1.29 2.683 2.683 0 0 1-.69-.17 2.911 2.911 0 0 1-.62-.34 2.7 2.7 0 0 1-.87-1.23l-2.87-8.67a2.64 2.64 0 0 1 0-1.62 2.61 2.61 0 0 1 1.88-1.67l9-1.83a2.56 2.56 0 0 1 2.6 1 2.53 2.53 0 0 1 .13 2.78L52.9 58a33.381 33.381 0 0 1 4.63 2.79v-7.85H56a2.57 2.57 0 0 1-1.93-4.27L55.555 47z" class="color-shadow" opacity=".1"/></g><g class="animate-grow"><path fill="#40A0FF" d="M49.72 65l.91.46a47.433 47.433 0 0 1 7.12 5.1c2.47 2.46 3.66 6.93 3.71 7.12v.26a.33.33 0 0 0 .33.33h4.33a.33.33 0 0 0 .36-.3v-.13s1.37-4.9 3.74-7.28a47.988 47.988 0 0 1 6.85-4.94L78 65l2.12 3.67a.53.53 0 0 0 .38.28.66.66 0 0 0 .46-.11.6.6 0 0 0 .19-.27l2.89-8.67a.502.502 0 0 0 0-.24.56.56 0 0 0-.45-.49l-9-1.83a.54.54 0 0 0-.46.11.57.57 0 0 0-.14.73L75.68 61l-1 .46a30.577 30.577 0 0 0-6.48 4.11L66.57 67V53h3.54a.57.57 0 0 0 .42-1l-6.06-6.85a.572.572 0 0 0-.85 0L57.56 52a.58.58 0 0 0 .12.857c.093.06.2.093.31.093h3.53V67l-1.64-1.4a29.763 29.763 0 0 0-6.79-4.26l-1-.46L54 57.52a.52.52 0 0 0 0-.61.551.551 0 0 0-.57-.23l-9 1.83a.56.56 0 0 0-.37.27l-.05.1a.55.55 0 0 0 0 .36l2.9 8.67a.49.49 0 0 0 .19.27c.04.032.084.06.13.08h.16A.55.55 0 0 0 48 68l1.72-3z" class="color-300"/><path fill="#005CB9" d="M66.21 80.23h-4.33a2.35 2.35 0 0 1-2.38-2.18c-.18-.64-1.27-4.22-3.16-6.11a41.922 41.922 0 0 0-5.87-4.28L49.69 69a2.56 2.56 0 0 1-3.17 1.1 2.58 2.58 0 0 1-.62-.35 2.619 2.619 0 0 1-.9-1.2l-2.87-8.67a2.64 2.64 0 0 1 0-1.62 2.61 2.61 0 0 1 1.92-1.71l9-1.83a2.56 2.56 0 0 1 2.6 1 2.53 2.53 0 0 1 .13 2.78L54.9 60c1.613.81 3.158 1.75 4.62 2.81v-7.87H58a2.57 2.57 0 0 1-1.92-4.27l6.05-6.85a2.66 2.66 0 0 1 3.87 0l6 6.85a2.57 2.57 0 0 1-1.92 4.27h-1.51v7.82a34.581 34.581 0 0 1 4.3-2.64l-.52-.9a2.57 2.57 0 0 1 2.73-3.8l9 1.83a2.54 2.54 0 0 1 1.71 1.23 2.55 2.55 0 0 1 .21 2.1l-2.9 8.66a2.51 2.51 0 0 1-.87 1.23 2.59 2.59 0 0 1-2 .49 2.53 2.53 0 0 1-1.78-1.25l-1.09-1.88a38.45 38.45 0 0 0-5.62 4.11c-1.83 1.84-3.05 5.8-3.2 6.31a2.32 2.32 0 0 1-2.33 1.98zM49.72 65l.91.46a47.433 47.433 0 0 1 7.12 5.1c2.47 2.46 3.66 6.93 3.71 7.12v.26a.33.33 0 0 0 .33.33h4.33a.33.33 0 0 0 .36-.3v-.13s1.37-4.9 3.74-7.28a47.996 47.996 0 0 1 6.85-4.94L78 65l2.12 3.67a.53.53 0 0 0 .38.28.66.66 0 0 0 .46-.11.6.6 0 0 0 .19-.27l2.89-8.67a.5.5 0 0 0 0-.24.559.559 0 0 0-.45-.49l-9-1.83a.539.539 0 0 0-.46.11.57.57 0 0 0-.14.73L75.68 61l-1 .46a30.581 30.581 0 0 0-6.48 4.11L66.57 67V53h3.54a.57.57 0 0 0 .42-1l-6.06-6.85a.572.572 0 0 0-.85 0L57.56 52a.58.58 0 0 0 .119.857c.092.06.2.093.31.093h3.53V67l-1.64-1.4a29.76 29.76 0 0 0-6.79-4.26l-1-.46L54 57.52a.52.52 0 0 0 0-.61.55.55 0 0 0-.57-.23l-9 1.83a.561.561 0 0 0-.37.27l-.05.1a.55.55 0 0 0 0 .36l2.9 8.67a.49.49 0 0 0 .19.27c.04.032.084.06.13.08h.16A.55.55 0 0 0 48 68l1.72-3z" class="color-500"/></g></g></svg>