<svg xmlns="http://www.w3.org/2000/svg" width="92" height="92" fill="none" class="wd-applet-flow-writer wd-applet" focusable="false" role="presentation" viewBox="0 0 92 92"><g class="wd-icon-container"><g class="animate-flood"><path fill="#0B77E3" fill-opacity=".2" fill-rule="evenodd" d="M46 82c19.882 0 36-16.118 36-36S65.882 10 46 10 10 26.118 10 46s16.118 36 36 36z" class="color-400-alpha-20" clip-rule="evenodd"/></g><path fill="#fff" d="M39 41.8c0-.442.392-.8.875-.8h12.25c.483 0 .875.358.875.8v6.4c0 .442-.392.8-.875.8h-12.25c-.483 0-.875-.358-.875-.8v-6.4z" class="color-100"/><path fill="#A6D2FF" fill-rule="evenodd" d="M19.875 41c-.483 0-.875.358-.875.8v6.4c0 .442.392.8.875.8h12.25c.483 0 .875-.358.875-.8v-6.4c0-.442-.392-.8-.875-.8h-12.25zm40 0c-.483 0-.875.358-.875.8v6.4c0 .442.392.8.875.8h12.25c.483 0 .875-.358.875-.8v-6.4c0-.442-.392-.8-.875-.8h-12.25z" class="color-200" clip-rule="evenodd"/><path fill="#005CB9" fill-rule="evenodd" d="M38 25h2v9h26.5a.5.5 0 0 1 .5.5V40h6a1 1 0 0 1 1 1v8a1 1 0 0 1-1 1h-6v11h-2V50h-6a1 1 0 0 1-1-1v-8a1 1 0 0 1 1-1h6v-4H47v4h6a1 1 0 0 1 1 1v8a1 1 0 0 1-1 1H39a1 1 0 0 1-1-1v-8a1 1 0 0 1 1-1h6v-4H27v4h6a1 1 0 0 1 1 1v8a1 1 0 0 1-1 1h-6v4h6.5a.5.5 0 0 1 .5.5V61h-2v-5h-6.5a.5.5 0 0 1-.5-.5V50h-6a1 1 0 0 1-1-1v-8a1 1 0 0 1 1-1h6v-5.5a.5.5 0 0 1 .5-.5H38v-9zM20 42v6h12v-6H20zm20 0v6h12v-6H40zm20 0v6h12v-6H60z" class="color-500" clip-rule="evenodd"/><g class="animate-grow"><path fill="#fff" d="M19 61.857c0-.473.418-.857.933-.857h26.134c.515 0 .933.384.933.857v10.286c0 .473-.418.857-.933.857H19.933c-.515 0-.933-.384-.933-.857V61.857z" class="color-100"/><path fill="#A6D2FF" d="M59 61.857c0-.473.392-.857.875-.857h12.25c.483 0 .875.384.875.857v10.286a.866.866 0 0 1-.875.857h-12.25a.866.866 0 0 1-.875-.857V61.857z" class="color-200"/><g fill="#005CB9" class="color-500"><path d="M22 65a1 1 0 0 1 1-1h20a1 1 0 1 1 0 2H23a1 1 0 0 1-1-1zM23 68a1 1 0 1 0 0 2h11a1 1 0 1 0 0-2H23z"/><path fill-rule="evenodd" d="M18 61a1 1 0 0 1 1-1h28a1 1 0 0 1 1 1v12a1 1 0 0 1-1 1H19a1 1 0 0 1-1-1V61zm2 11V62h26v10H20z" clip-rule="evenodd"/><path d="M63 64a1 1 0 1 0 0 2h6a1 1 0 1 0 0-2h-6zM62 69a1 1 0 0 1 1-1h6a1 1 0 1 1 0 2h-6a1 1 0 0 1-1-1z"/><path fill-rule="evenodd" d="M58 61a1 1 0 0 1 1-1h14a1 1 0 0 1 1 1v12a1 1 0 0 1-1 1H59a1 1 0 0 1-1-1V61zm2 11V62h12v10H60z" clip-rule="evenodd"/></g></g><g class="animate-shrink"><path fill="#fff" d="M19 19.833c0-.46.426-.833.952-.833h38.096c.526 0 .952.373.952.833v8.334c0 .46-.426.833-.952.833H19.952c-.526 0-.952-.373-.952-.833v-8.334z" class="color-100"/><g fill="#005CB9" class="color-500"><path d="M24 23a1 1 0 1 0 0 2h30a1 1 0 1 0 0-2H24z"/><path fill-rule="evenodd" d="M18 19a1 1 0 0 1 1-1h40a1 1 0 0 1 1 1v10a1 1 0 0 1-1 1H19a1 1 0 0 1-1-1V19zm2 9v-8h38v8H20z" clip-rule="evenodd"/></g></g></g></svg>