<svg xmlns="http://www.w3.org/2000/svg" width="92" height="92" class="wd-applet wd-applet-form-i9-process-status" focusable="false" role="presentation" viewBox="0 0 92 92"><g fill="none" fill-rule="evenodd" class="wd-icon-container"><g fill="#0B77E3" fill-opacity=".2" class="animate-flood"><path d="M46 82c19.882 0 36-16.118 36-36S65.882 10 46 10 10 26.118 10 46s16.118 36 36 36z" class="color-400-alpha-20"/></g><g class="animate-shrink"><path fill="#FFF" d="M72 79a1 1 0 0 1-.992 1H20.992A1 1 0 0 1 20 79V13a1 1 0 0 1 .992-1h50.016A1 1 0 0 1 72 13v66z" class="color-100"/><path fill="#005CB9" fill-rule="nonzero" d="M71.008 10A3 3 0 0 1 74 13v66c0 1.657-1.34 3-3 3H20.998A3.002 3.002 0 0 1 18 78.996V13.008C18 11.354 19.338 10 20.992 10h50.016zm0 2H20.992c-.542 0-.992.451-.992 1.008v65.988c0 .553.447 1.004.998 1.004H71c.555 0 1-.448 1-1V13a1 1 0 0 0-.992-1z" class="color-500"/><path fill="#40A0FF" d="M28 67.001a1 1 0 0 0 .995.999h17.01c.55 0 .995-.443.995-.999v-1.002a1 1 0 0 0-.995-.999h-17.01a.994.994 0 0 0-.995.999v1.002zm0-6A1 1 0 0 0 29 62h22c.552 0 1-.443 1-.999v-1.002A1 1 0 0 0 51 59H29c-.552 0-1 .443-1 .999v1.002zm0-10c0 .552.452.999.993.999h30.014a.993.993 0 0 0 .993-.999v-1.002c0-.552-.452-.999-.993-.999H28.993a.993.993 0 0 0-.993.999v1.002zm0-6c0 .552.452.999.993.999h30.014a.993.993 0 0 0 .993-.999v-1.002c0-.552-.452-.999-.993-.999H28.993a.993.993 0 0 0-.993.999v1.002zm0-6a1 1 0 0 0 .995.999h17.01c.55 0 .995-.443.995-.999v-1.002a1 1 0 0 0-.995-.999h-17.01a.994.994 0 0 0-.995.999v1.002z" class="color-300"/><path fill="#005CB9" d="M39.241 23.003c1.502 0 2.759 1.178 2.759 3.616C42 29.375 40.754 31 38.39 31c-.587 0-1.236-.177-1.598-.424l.362-1.307c.245.153.745.33 1.225.33 1.256 0 2.098-.766 2.194-2.167-.288.482-.874.824-1.598.824-1.289 0-2.386-.99-2.386-2.567 0-1.567 1.119-2.686 2.652-2.686zM29.491 23v7.992H28V23h1.491zm5.344 3.63v1.39h-3.089v-1.39h3.089zm4.353-2.249c-.639 0-1.182.507-1.182 1.26 0 .766.532 1.26 1.182 1.26.65 0 1.193-.506 1.193-1.26 0-.753-.543-1.26-1.193-1.26z" class="color-500"/></g><g class="animate-grow"><path fill="#40A0FF" d="M72.388 71.857l8.34 3.872-.24.398a16.816 16.816 0 0 1-3.41 3.96A17.177 17.177 0 0 1 68.454 84v-9.212a7.94 7.94 0 0 0 3.933-2.93zm-12.28.81a8.33 8.33 0 0 0 3.437 2.025V84c-4.113-.554-8.044-2.46-10.984-5.667-.35-.382-.68-.775-.987-1.177l-.301-.405 8.834-4.084zM51.15 57.286l6.668 6.849a8.34 8.34 0 0 0-.617 4.312l-8.424 4.22-.116-.399c-1.414-5.059-.547-10.606 2.49-14.982zm27.723-1.295l2.555-2.174c1.09-.927 2.02-.54 2.078.863l.492 11.769c.059 1.41-1.047 2.36-2.469 2.138L69.355 66.68c-1.424-.223-1.692-1.154-.603-2.08l2.913-2.478c-2.608-2.937-6.91-3.582-10.247-1.753l-6.873-6.725c7.408-5.621 18.102-4.662 24.328 2.347z" class="color-300"/><path fill="#005CB9" fill-rule="nonzero" d="M61.509 71.24a6.33 6.33 0 0 0 2.615 1.538 2 2 0 0 1 1.421 1.914V84a2 2 0 0 1-2.267 1.982c-4.689-.631-9.005-2.823-12.19-6.297a19.292 19.292 0 0 1-1.438-1.765 2 2 0 0 1 .783-2.984l8.835-4.085a2 2 0 0 1 2.24.389zm11.722-1.197l8.338 3.872a2 2 0 0 1 .888 2.818 18.786 18.786 0 0 1-4.083 4.877 19.174 19.174 0 0 1-9.624 4.368A2 2 0 0 1 66.455 84v-9.212a2 2 0 0 1 1.358-1.895 5.94 5.94 0 0 0 2.94-2.188 2 2 0 0 1 2.478-.662zm-13.124 2.624l-8.834 4.084c.392.544.821 1.073 1.288 1.582 2.94 3.206 6.87 5.113 10.984 5.667v-9.308a8.33 8.33 0 0 1-3.438-2.025zm12.281-.81a7.94 7.94 0 0 1-3.934 2.93V84a17.177 17.177 0 0 0 8.623-3.914 16.786 16.786 0 0 0 3.65-4.357l-8.339-3.872zM52.583 55.891l6.668 6.848a2 2 0 0 1 .403 2.189 6.34 6.34 0 0 0-.468 3.276 2 2 0 0 1-1.089 2.03l-8.424 4.22a2 2 0 0 1-2.809-1.204c-1.765-5.788-.8-12.142 2.643-17.104a2 2 0 0 1 3.076-.255zm-1.433 1.395c-3.116 4.491-3.948 10.216-2.373 15.38l8.424-4.22a8.34 8.34 0 0 1 .617-4.311l-6.668-6.85zm27.844-4.024l1.139-.968c2.342-1.993 5.243-.787 5.372 2.303l.491 11.769c.112 2.683-2.12 4.613-4.776 4.197l-12.174-1.907c-3.106-.486-3.988-3.539-1.59-5.58l1.091-.927a6.407 6.407 0 0 0-6.168-.026 2 2 0 0 1-2.36-.324l-6.872-6.725a2 2 0 0 1 .19-3.023c7.74-5.875 18.639-5.266 25.657 1.21zm-24.449.382l6.873 6.725c3.337-1.829 7.639-1.184 10.247 1.753L68.752 64.6c-1.089.926-.821 1.857.603 2.08l12.174 1.907c1.422.222 2.528-.729 2.469-2.138l-.492-11.769c-.058-1.403-.988-1.79-2.078-.863l-2.555 2.174c-6.226-7.01-16.92-7.968-24.328-2.347z" class="color-500"/></g></g></svg>