<svg xmlns="http://www.w3.org/2000/svg" width="92" height="92" class="wd-applet wd-applet-function-services" focusable="false" role="presentation" viewBox="0 0 92 92"><g fill="none" fill-rule="evenodd" class="wd-icon-container"><g fill="#0B77E3" fill-opacity=".2" class="animate-flood"><path d="M46 82c19.882 0 36-16.118 36-36S65.882 10 46 10 10 26.118 10 46s16.118 36 36 36z" class="color-400-alpha-20"/></g><g fill-rule="nonzero" class="animate-sink"><path fill="#40A0FF" d="M46.296 35.262l32.837 17.929a1 1 0 0 1 0 1.755L46.296 72.89a1 1 0 0 1-.96 0L12.6 54.944a1 1 0 0 1 0-1.754l32.736-17.928a1 1 0 0 1 .96 0z" class="color-300"/><path fill="#005CB9" d="M13.081 54.068l32.735 17.944 32.837-17.944L45.816 36.14 13.081 54.068zm33.694-19.684l32.837 17.93a2 2 0 0 1 0 3.51L46.776 73.767a2 2 0 0 1-1.92 0L12.12 55.821a2 2 0 0 1 0-3.508l32.736-17.928a2 2 0 0 1 1.919-.002z" class="color-500"/></g><path fill="#A6D2FF" fill-rule="nonzero" d="M46.296 27.262l32.837 17.929a1 1 0 0 1 0 1.755L46.296 64.89a1 1 0 0 1-.96 0L12.6 46.944a1 1 0 0 1 0-1.754l32.736-17.928a1 1 0 0 1 .96 0z" class="color-200"/><path fill="#005CB9" fill-rule="nonzero" d="M13.081 46.068l32.735 17.944 32.837-17.944L45.816 28.14 13.081 46.068zm33.694-19.684l32.837 17.93a2 2 0 0 1 0 3.51L46.776 65.767a2 2 0 0 1-1.92 0L12.12 47.821a2 2 0 0 1 0-3.508l32.736-17.928a2 2 0 0 1 1.919-.002z" class="color-500"/><g fill-rule="nonzero" class="animate-float"><path fill="#FFF" d="M46.296 19.262l32.837 17.929a1 1 0 0 1 0 1.755L46.296 56.89a1 1 0 0 1-.96 0L12.6 38.944a1 1 0 0 1 0-1.754l32.736-17.928a1 1 0 0 1 .96 0z" class="color-100"/><path fill="#005CB9" d="M35.052 36.037l1.688 6.764 8.052.957a1.041 1.041 0 1 1-.246 2.068l-8.765-1.041a1.041 1.041 0 0 1-.887-.782L33.03 36.54a1.041 1.041 0 1 1 2.02-.504zm8.99-4.2l5.71 10.962a1.041 1.041 0 0 1-1.847.962L42.195 32.8a1.041 1.041 0 0 1 1.848-.962zm2.712-2.814l9.806 2.083c.433.091.76.447.817.886l.821 6.42a1.041 1.041 0 0 1-2.066.264l-.727-5.687-9.084-1.929a1.041 1.041 0 0 1 .433-2.037z" class="color-500"/><path fill="#005CB9" d="M13.081 38.068l32.735 17.944 32.837-17.944L45.816 20.14 13.081 38.068zm33.694-19.684l32.837 17.93a2 2 0 0 1 0 3.51L46.776 57.767a2 2 0 0 1-1.92 0L12.12 39.821a2 2 0 0 1 0-3.508l32.736-17.928a2 2 0 0 1 1.919-.002z" class="color-500"/></g></g></svg>