<svg xmlns="http://www.w3.org/2000/svg" width="92" height="92" class="wd-applet wd-applet-gigs" focusable="false" role="presentation" viewBox="0 0 92 92"><g fill="none" fill-rule="evenodd" class="wd-icon-container"><g fill="#0B77E3" fill-opacity=".2" class="animate-flood"><path d="M46 82c19.882 0 36-16.118 36-36S65.882 10 46 10 10 26.118 10 46s16.118 36 36 36z" class="color-400-alpha-20"/></g><g class="animate-shrink"><path fill="#FFF" d="M14 27v47.999A1 1 0 0 0 14.993 76h62.005C77.55 76 78 75.546 78 74.999V27H14z" class="color-100"/><path fill="#A6D2FF" fill-rule="nonzero" d="M22 57h48.002c.552 0 1 .444 1 1 0 .552-.444 1-1 1H22C21.448 59 21 58.556 21 58c0-.552.445-1 1-1zm4 4h39.498a.999.999 0 1 1 0 2H26a.999.999 0 1 1 0-2zm5.046-11.47a1.513 1.513 0 0 0-1.509-1.484h-3.78a1.51 1.51 0 0 0-1.508 1.483 5.948 5.948 0 1 1 6.797 0zm-4.673-6.159v1.7c0 .7.57 1.274 1.274 1.274.709 0 1.275-.571 1.275-1.275v-1.699c0-.702-.571-1.275-1.275-1.275-.709 0-1.274.571-1.274 1.275zm22.673 6.158a1.513 1.513 0 0 0-1.509-1.483h-3.78a1.51 1.51 0 0 0-1.508 1.483 5.948 5.948 0 1 1 6.797 0zm-4.673-6.158v1.7c0 .7.57 1.274 1.274 1.274.709 0 1.275-.571 1.275-1.275v-1.699c0-.702-.571-1.275-1.275-1.275-.709 0-1.274.571-1.274 1.275z" class="color-200"/><path fill="#40A0FF" d="M14 17.997c0-.55.443-.997 1.005-.997h61.99c.555 0 1.005.453 1.005.997V25H14v-7.003zm10.249 31.532a1.51 1.51 0 0 1 1.508-1.483h3.78c.824 0 1.494.668 1.509 1.483a5.92 5.92 0 0 1-3.399 1.066 5.92 5.92 0 0 1-3.398-1.066zm18 0a1.51 1.51 0 0 1 1.508-1.483h3.78c.825 0 1.494.668 1.509 1.483a5.92 5.92 0 0 1-3.399 1.066 5.92 5.92 0 0 1-3.398-1.066z" class="color-300"/><path fill="#005CB9" fill-rule="nonzero" d="M64.136 40.824h.434a.5.5 0 0 1 .5.5v2.606h2.606a.5.5 0 0 1 .5.5v.434a.5.5 0 0 1-.5.5H65.07v2.607a.5.5 0 0 1-.5.5h-.434a.5.5 0 0 1-.5-.5v-2.607h-2.607a.5.5 0 0 1-.5-.5v-.434a.5.5 0 0 1 .5-.5h2.607v-2.606a.5.5 0 0 1 .5-.5zm.217 11.47a7.647 7.647 0 1 1 0-15.294 7.647 7.647 0 0 1 0 15.294zm0-1.75a5.897 5.897 0 1 0 0-11.794 5.897 5.897 0 0 0 0 11.794zm-36.706 1.75a7.647 7.647 0 1 1 0-15.294 7.647 7.647 0 0 1 0 15.294zm3.394-2.855a1.514 1.514 0 0 0-1.504-1.393h-3.78a1.51 1.51 0 0 0-1.508 1.483 5.921 5.921 0 0 0 3.398 1.066 5.92 5.92 0 0 0 3.399-1.066c0-.03-.002-.06-.005-.09zm-8.182-1.262a3.216 3.216 0 0 1 2.145-1.742 2.958 2.958 0 0 1-.33-1.363v-1.7a2.97 2.97 0 0 1 2.973-2.973 2.975 2.975 0 0 1 2.974 2.974v1.699c0 .492-.119.955-.33 1.364.948.23 1.732.88 2.143 1.742a5.948 5.948 0 1 0-9.575 0zm3.514-3.107c0 .702.57 1.275 1.274 1.275.709 0 1.275-.571 1.275-1.275v-1.699c0-.702-.571-1.275-1.275-1.275-.709 0-1.274.571-1.274 1.275v1.7zm19.274 7.224a7.647 7.647 0 1 1 0-15.294 7.647 7.647 0 0 1 0 15.294zm3.394-2.855a1.514 1.514 0 0 0-1.504-1.393h-3.78a1.51 1.51 0 0 0-1.508 1.483 5.921 5.921 0 0 0 3.398 1.066 5.92 5.92 0 0 0 3.399-1.066c0-.03-.002-.06-.005-.09zm-8.182-1.262a3.216 3.216 0 0 1 2.145-1.742 2.958 2.958 0 0 1-.33-1.363v-1.7a2.97 2.97 0 0 1 2.973-2.973 2.975 2.975 0 0 1 2.974 2.974v1.699c0 .492-.119.955-.33 1.364.948.23 1.732.88 2.143 1.742a5.948 5.948 0 1 0-9.574 0zm3.514-3.107c0 .702.57 1.275 1.274 1.275.709 0 1.275-.571 1.275-1.275v-1.699c0-.702-.571-1.275-1.275-1.275-.709 0-1.274.571-1.274 1.275v1.7zM18 23a2 2 0 1 1 0-4 2 2 0 0 1 0 4zm6 0a2 2 0 1 1 0-4 2 2 0 0 1 0 4zm6 0a2 2 0 1 1 0-4 2 2 0 0 1 0 4zm-18-5c0-1.66 1.341-3 3.005-3h61.99A2.998 2.998 0 0 1 80 18v57c0 1.66-1.341 3-3.005 3h-61.99A2.998 2.998 0 0 1 12 75V18zm2 9v47.999A1 1 0 0 0 14.993 76h62.005C77.55 76 78 75.546 78 74.999V27H14zm0-9.003V25h64v-7.003c0-.544-.45-.997-1.005-.997h-61.99a.997.997 0 0 0-1.005.997z" class="color-500"/></g></g></svg>