<svg xmlns="http://www.w3.org/2000/svg" width="92" height="92" class="wd-applet wd-applet-giving-doing" focusable="false" role="presentation" viewBox="0 0 92 92"><g fill="none" fill-rule="evenodd" class="wd-icon-container"><g fill="#0B77E3" fill-opacity=".2" class="animate-flood"><path d="M46 82c19.882 0 36-16.118 36-36S65.882 10 46 10 10 26.118 10 46s16.118 36 36 36z" class="color-400-alpha-20"/></g><g class="animate-float"><path fill="#A6D2FF" d="M39.587 74.457L16.251 51.121c-6.705-7.477-6.475-18.98.707-26.163 7.42-7.42 19.45-7.42 26.87 0a18.921 18.921 0 0 1 4.593 7.421l7.428 7.429-4.242 4.242L66.455 58.9a3.003 3.003 0 0 1 0 4.243 2.995 2.995 0 0 1-4.243 0L48.07 48.998a.997.997 0 0 0-1.413.001.997.997 0 0 0-.005 1.41l18.385 18.384a3.005 3.005 0 0 1 .005 4.248 3 3 0 0 1-4.248-.005L42.41 54.652a.994.994 0 0 0-1.409.005.995.995 0 0 0 .002 1.416l14.846 14.846a3.003 3.003 0 0 1 .001 4.244 2.995 2.995 0 0 1-4.243-.001L36.759 60.315a1 1 0 1 0-1.417 1.412l8.488 8.488a3.001 3.001 0 0 1-.002 4.24 3.005 3.005 0 0 1-4.24.002z" class="color-200"/><path fill="#005CB9" fill-rule="nonzero" d="M39.587 74.457a3.005 3.005 0 0 0 4.241-.001 3.001 3.001 0 0 0 .002-4.241l-8.488-8.488a1 1 0 1 1 1.417-1.412l14.847 14.847a2.995 2.995 0 0 0 4.243.001 3.003 3.003 0 0 0 0-4.244L41.001 56.073A.995.995 0 0 1 41 54.657a.994.994 0 0 1 1.41-.005l18.384 18.385a3 3 0 0 0 4.248.005 3.005 3.005 0 0 0-.005-4.248L46.652 50.41A.997.997 0 0 1 46.657 49a.997.997 0 0 1 1.413 0L62.212 63.14a2.995 2.995 0 0 0 4.244.001 3.003 3.003 0 0 0-.001-4.243L51.607 44.05l4.242-4.242-7.428-7.429a18.921 18.921 0 0 0-4.593-7.42c-7.42-7.42-19.45-7.42-26.87 0-7.182 7.182-7.412 18.685-.707 26.162l23.336 23.336zm17.676-36.064a2 2 0 0 1 0 2.829l-2.828 2.828 13.434 13.434a5.003 5.003 0 0 1-2.825 8.489l1.407 1.407a5.005 5.005 0 0 1 .005 7.076 5 5 0 0 1-7.076-.005l-.703-.703a4.976 4.976 0 0 1-1.414 2.83 4.995 4.995 0 0 1-7.072-.002l-3.534-3.535a4.978 4.978 0 0 1-1.414 2.83 5.005 5.005 0 0 1-7.07 0L14.837 52.537c-7.515-8.377-7.2-21.085.707-28.992 8.201-8.2 21.498-8.2 29.699 0a20.925 20.925 0 0 1 4.917 7.746l7.103 7.103z" class="color-500"/><path fill="#FFF" d="M68.678 58.192l7.07-7.07c6.706-7.478 6.476-18.98-.706-26.164-7.42-7.42-19.45-7.42-26.87 0-2.16 2.16-4.95 7.779-4.95 7.779l25.456 25.455z" class="color-100"/><path fill="#FFF" d="M48.19 24.978c.222-.247.451-.49.689-.727 7.03-7.03 18.426-7.03 25.456 0a17.985 17.985 0 0 1 3.33 4.586 21.102 21.102 0 0 1-2.623 3.192c-7.234 7.234-18.432 8.087-26.601 2.56l-9.113 9.113a3.496 3.496 0 0 1-4.945-.005 3.5 3.5 0 0 1-.005-4.945l13.794-13.794.019.02z" class="color-100"/><path fill="#005CB9" fill-rule="nonzero" d="M75.749 22.837l.351.36c.12.114.238.23.356.347 7.906 7.907 8.222 20.615.782 28.913l-7.146 7.15a2 2 0 0 1-2.829 0L46.757 39.1 40.75 45.11a5.505 5.505 0 0 1-7.78.002 5.504 5.504 0 0 1 .002-7.78l13.758-13.759.028-.028.062-.063.645-.644c7.811-7.81 20.474-7.81 28.285 0zm3.166 7.706l-.333.456a23.182 23.182 0 0 1-2.126 2.445c-7.429 7.428-18.836 8.803-27.725 3.683l-.56.56 20.507 20.505 7.07-7.07c5.152-5.745 6.21-13.867 3.167-20.579zm-30.036-6.292L34.385 38.745a3.504 3.504 0 0 0-.002 4.952 3.506 3.506 0 0 0 4.952-.002l9.106-9.106c8.169 5.527 19.367 4.674 26.6-2.56a21.102 21.102 0 0 0 2.624-3.192 17.985 17.985 0 0 0-3.33-4.586c-7.03-7.03-18.427-7.03-25.456 0z" class="color-500"/><path fill="#000" fill-rule="nonzero" d="M24.219 50.44a4.998 4.998 0 0 1 7.072 0 5.003 5.003 0 0 1-.001 7.072l-1.412 1.411a4.998 4.998 0 0 1-7.072.002 5.003 5.003 0 0 1 .001-7.073l1.412-1.411zm4.242 7.072l4.246-4.246a5 5 0 0 1 7.071 7.071l-4.246 4.246a5 5 0 0 1-7.071-7.071zm5.658 5.656l4.951-4.951a5 5 0 0 1 7.071 7.07L41.19 70.24a5 5 0 0 1-7.071-7.07zm8.486 2.828a5.004 5.004 0 0 1 7.07 0 5.002 5.002 0 0 1 0 7.071l-2.827 2.828a5.004 5.004 0 0 1-7.072 0 5.002 5.002 0 0 1 0-7.071l2.829-2.828z" class="color-shadow" opacity=".1"/><path fill="#FFF" d="M23.424 56.777a3.003 3.003 0 0 0-.001 4.244 2.998 2.998 0 0 0 4.244-.001l1.412-1.412a3.003 3.003 0 0 0 0-4.244 2.998 2.998 0 0 0-4.243.001l-1.412 1.412zm5.654 5.66a3 3 0 0 0 4.242 4.243l4.247-4.247a3 3 0 0 0-4.243-4.243l-4.246 4.247zm5.658 5.656a3 3 0 1 0 4.243 4.243l4.95-4.952a3 3 0 1 0-4.243-4.243l-4.95 4.952zm5.658 5.656a3.002 3.002 0 0 0 0 4.242 3.004 3.004 0 0 0 4.242 0l2.828-2.828a3.002 3.002 0 0 0 0-4.243 3.004 3.004 0 0 0-4.242 0l-2.828 2.829z" class="color-100"/><path fill="#005CB9" fill-rule="nonzero" d="M23.424 56.777a3.003 3.003 0 0 0-.001 4.244 2.998 2.998 0 0 0 4.244-.001l1.412-1.412a3.003 3.003 0 0 0 0-4.244 2.998 2.998 0 0 0-4.243.001l-1.412 1.412zm-.002-2.826a4.998 4.998 0 0 1 7.072-.001 5.003 5.003 0 0 1-.001 7.072l-1.412 1.412a4.998 4.998 0 0 1-7.072.001 5.003 5.003 0 0 1 0-7.072l1.413-1.412zm5.656 8.486a3 3 0 0 0 4.242 4.243l4.247-4.247a3 3 0 0 0-4.243-4.243l-4.246 4.247zm-1.415-1.414l4.247-4.247a5 5 0 0 1 7.071 7.071l-4.246 4.247a5 5 0 0 1-7.071-7.071zm7.073 7.07a3 3 0 1 0 4.243 4.243l4.95-4.952a3 3 0 1 0-4.243-4.243l-4.95 4.952zm-1.415-1.414l4.952-4.952a5 5 0 0 1 7.071 7.071l-4.951 4.952a5 5 0 0 1-7.072-7.071zm7.073 7.07a3.002 3.002 0 0 0 0 4.242 3.004 3.004 0 0 0 4.242 0l2.828-2.828a3.002 3.002 0 0 0 0-4.243 3.004 3.004 0 0 0-4.242 0l-2.828 2.829zm-1.415-1.415l2.828-2.828a5.004 5.004 0 0 1 7.072 0 5.002 5.002 0 0 1 0 7.071l-2.829 2.828a5.004 5.004 0 0 1-7.07 0 5.002 5.002 0 0 1 0-7.07z" class="color-500"/></g></g></svg>