<svg xmlns="http://www.w3.org/2000/svg" width="92" height="92" fill="none" class="wd-applet-guidance-workspace wd-applet" focusable="false" role="presentation" viewBox="0 0 92 92"><g class="wd-icon-container"><g class="animate-flood"><path fill="#0B77E3" fill-opacity=".2" fill-rule="evenodd" d="M46 82c19.882 0 36-16.118 36-36S65.882 10 46 10 10 26.118 10 46s16.118 36 36 36z" class="color-400-alpha-20" clip-rule="evenodd"/></g><g class="animate-float-left"><path fill="#A6D2FF" d="M16.139 23.9a2 2 0 0 1 .505-2.783l8.63-5.978a2 2 0 0 1 2.783.505l23.179 33.46a2 2 0 0 1-.506 2.783l-8.63 5.978a2 2 0 0 1-2.783-.505L16.14 23.9z" class="color-200"/><path fill="#005CB9" fill-rule="evenodd" d="M16.14 23.9a2 2 0 0 1 .505-2.783l8.63-5.978a2 2 0 0 1 2.783.505l23.178 33.46a2 2 0 0 1-.505 2.783l-8.63 5.978a2 2 0 0 1-2.783-.505L16.139 23.9zm1.643-1.139l8.63-5.978 23.179 33.46-8.63 5.978-2.42-3.493 2.803-1.942a1 1 0 1 0-1.139-1.644l-2.803 1.942-2.301-3.322 4.79-3.317a1 1 0 0 0-1.14-1.645l-4.789 3.318-2.301-3.322 2.803-1.941a1 1 0 0 0-1.139-1.644l-2.803 1.941-2.301-3.322 4.79-3.317a1 1 0 1 0-1.14-1.644l-4.789 3.317-2.301-3.322 2.803-1.941a1 1 0 0 0-1.139-1.644l-2.803 1.941-2.301-3.322 4.79-3.317a1 1 0 1 0-1.14-1.644l-4.789 3.317-2.42-3.493z" class="color-500" clip-rule="evenodd"/></g><g class="animate-float"><path fill="#fff" d="M41.637 15.91s-.888 2.145-2.938 2.648c-2.05.504-3.74-.933-3.74-.933l1.351-8.788 5.327 7.073z" class="color-100"/><path fill="#A6D2FF" d="M34.187 22.166a3 3 0 0 1 3.012-3.714l1.205.04a1 1 0 0 0 .525-.13l1.05-.593a3 3 0 0 1 4.39 1.896l11.086 45.121a2 2 0 0 1-1.465 2.42l-6.297 1.547a2 2 0 0 1-2.42-1.465L34.188 22.166z" class="color-200"/><path fill="#005CB9" fill-rule="evenodd" d="M33.33 17.669c-.058.431-.034.87.07 1.293l11.795 48.005a2.33 2.33 0 0 0 2.819 1.707l5.656-1.39a2.33 2.33 0 0 0 1.707-2.819L43.58 16.462a3.496 3.496 0 0 0-.537-1.18l-6.192-8.786c-.611-.867-1.968-.533-2.107.518l-1.416 10.656zm8.639.61l-1.185 1.285-1.974-.707-1.422 1.489-1.683-.384L47.137 66.49a.33.33 0 0 0 .4.242l5.656-1.39a.33.33 0 0 0 .241-.4L41.97 18.28zm-.758-2.127l-.999 1.082-1.95-.698-1.536 1.607-1.4-.32.617-4.64c.37.118.84.15 1.436.004.595-.146.998-.393 1.27-.67l2.562 3.635z" class="color-500" clip-rule="evenodd"/></g><g class="animate-spin"><path fill="#fff" d="M66.121 31a5.031 5.031 0 1 1-10.062 0 5.031 5.031 0 0 1 10.062 0z" class="color-100"/><path fill="#A6D2FF" fill-rule="evenodd" d="M48.355 38.435v.003l-.048.242-.034.12c-.144.382-.27.671-.574 1.318a1.158 1.158 0 0 0 .269 1.348c.25.228.361.331.497.462.17.164.316.312.439.449.05.055.096.108.138.16.035.042.073.081.114.118l.947.862c.332.302.809.384 1.223.21 1.898-.797 3.816-.896 5.975-.308 2.281.524 3.949 1.603 5.27 3.4.279.378.758.55 1.213.434.344-.087.628-.151 1.25-.284.652-.14.873-.189 1.19-.268.152-.038.295-.076.433-.115.411-.116.725-.449.817-.866.042-.194.074-.35.153-.764.066-.346.096-.497.14-.695.372-1.288 1.253-2.678 2.388-3.767.664-.637 4.416-2.771 5.67-2.815.468-.017.88-.315 1.043-.755.058-.157.16-.486.288-.921a76.573 76.573 0 0 0 .318-1.117c.073-.258.14-.466.218-.677.183-.495.01-1.05-.423-1.351-1.346-.94-2.395-2.394-3.066-4.247-.654-1.804-.768-3.907-.312-5.524l.023-.088c.057-.26.16-.514.443-1.117.203-.43.121-.94-.204-1.286l-.459-.488a70.167 70.167 0 0 0-.447-.471 26.483 26.483 0 0 0-1.179-1.159 1.153 1.153 0 0 0-1.186-.224c-2.032.774-4.067.844-6.26.215-2.159-.619-3.825-1.73-4.887-3.268a1.153 1.153 0 0 0-1.19-.473l-1.23.263-.094.023c-.342.096-.674.177-1.54.378a1.158 1.158 0 0 0-.87.88c-.032.15-.055.295-.082.52-.049.413-.05.428-.053.444l-.003.019c-.01.072-.019.117-.03.166-.02.101-.045.19-.068.253l-.03.087a4.185 4.185 0 0 1-.265.657c-.805 1.6-1.708 2.825-2.771 3.736-1.57 1.317-3.169 2-5.104 2.162a1.157 1.157 0 0 0-.996.776c-.137.396-.226.703-.435 1.496-.189.715-.271 1.001-.385 1.33-.165.479 0 1.009.405 1.309 2.772 2.05 3.889 4.877 3.47 8.746l-.03.145a2.96 2.96 0 0 0-.079.317zm11.418-2.357a5.297 5.297 0 1 0 2.742-10.233 5.297 5.297 0 0 0-2.742 10.233z" class="color-200" clip-rule="evenodd"/><path fill="#005CB9" fill-rule="evenodd" d="M58.335 13.75a2.153 2.153 0 0 1 2.222.883c.905 1.31 2.356 2.306 4.341 2.875 1.995.572 3.809.505 5.627-.188a2.153 2.153 0 0 1 2.216.419 27.389 27.389 0 0 1 1.227 1.206c.132.137.269.281.454.478l.458.487a2.16 2.16 0 0 1 .383 2.397c-.288.613-.343.771-.373.907l-.003.016-.03.117-.003.013c-.393 1.389-.303 3.277.289 4.91.615 1.7 1.553 2.97 2.698 3.768a2.158 2.158 0 0 1 .789 2.518 7.669 7.669 0 0 0-.193.6 79.06 79.06 0 0 1-.321 1.129c-.127.43-.238.791-.31.986a2.157 2.157 0 0 1-1.946 1.407c-.123.005-.45.083-.984.298-.497.2-1.073.474-1.643.774-.568.298-1.117.614-1.559.89-.469.293-.745.497-.827.576-1.021.98-1.79 2.21-2.11 3.294-.038.168-.066.31-.128.635-.08.414-.113.582-.158.79a2.158 2.158 0 0 1-1.523 1.614c-.148.042-.301.082-.461.122-.336.084-.57.137-1.225.276-.617.132-.887.194-1.212.276a2.153 2.153 0 0 1-2.265-.811c-1.173-1.595-2.63-2.545-4.688-3.018l-.02-.004-.02-.006c-1.963-.535-3.65-.438-5.324.265a2.153 2.153 0 0 1-2.283-.392l-.948-.862a2.165 2.165 0 0 1-.211-.222 3.963 3.963 0 0 0-.11-.127 7.805 7.805 0 0 0-.389-.397c-.126-.12-.23-.217-.478-.443a2.158 2.158 0 0 1-.5-2.513c.289-.615.404-.88.528-1.206l.011-.04.04-.205a4.17 4.17 0 0 1 .09-.372l.011-.052c.189-1.794.017-3.282-.478-4.532-.497-1.253-1.342-2.327-2.596-3.255a2.157 2.157 0 0 1-.756-2.438c.1-.292.175-.547.363-1.26.21-.798.307-1.134.457-1.567a2.157 2.157 0 0 1 1.857-1.446c1.713-.144 3.118-.737 4.54-1.928.933-.8 1.76-1.903 2.52-3.412a3.15 3.15 0 0 0 .207-.51l.005-.015.04-.118.005-.012.007-.024.018-.079.003-.012.002-.012a.762.762 0 0 0 .014-.077l.004-.027.002-.015.048-.405c.029-.243.056-.422.099-.616a2.158 2.158 0 0 1 1.62-1.64 32.455 32.455 0 0 0 1.494-.367l.018-.005.126-.03 1.242-.266zm.577 2.02a.153.153 0 0 0-.159-.064l-1.215.26-.064.015c-.36.101-.716.188-1.567.385a.158.158 0 0 0-.119.12 4.094 4.094 0 0 0-.066.424l-.049.409-.007.054-.001.011v.005a2.654 2.654 0 0 1-.045.245c-.025.12-.059.253-.103.374l-.02.06a5.19 5.19 0 0 1-.313.776l-.005.012-.006.011c-.847 1.684-1.825 3.027-3.014 4.047l-.008.007c-1.717 1.44-3.507 2.21-5.662 2.392a.157.157 0 0 0-.135.106c-.124.36-.205.637-.413 1.424-.19.718-.28 1.035-.407 1.402a.157.157 0 0 0 .055.178c1.517 1.123 2.616 2.486 3.266 4.127.647 1.632.825 3.477.603 5.53l-.006.05-.05.241-.015.047c-.014.046-.03.109-.051.212m0 0l-.048.243-.008.04-.057.2-.014.04c-.158.418-.297.735-.605 1.39a.158.158 0 0 0 .036.184c.253.23.372.34.518.48.183.176.345.341.489.5a5.828 5.828 0 0 1 .181.209l.948.862c.044.04.107.05.162.028 2.117-.89 4.26-.992 6.606-.356 2.494.576 4.367 1.784 5.833 3.777.037.05.1.073.16.058.363-.092.663-.16 1.287-.294.651-.139.858-.185 1.158-.26.142-.036.276-.071.404-.107a.158.158 0 0 0 .111-.119c.04-.179.069-.324.148-.736.066-.347.099-.512.147-.727l.006-.03.009-.028c.428-1.485 1.415-3.022 2.655-4.211.25-.24.692-.542 1.153-.83.487-.304 1.08-.644 1.688-.964.608-.32 1.247-.626 1.827-.859.542-.218 1.155-.423 1.66-.44a.157.157 0 0 0 .14-.103c.044-.12.137-.415.266-.855a75.671 75.671 0 0 0 .314-1.103l.002-.005c.078-.277.153-.51.242-.752a.157.157 0 0 0-.057-.184c-1.548-1.08-2.708-2.72-3.435-4.726-.713-1.97-.853-4.282-.337-6.123l.016-.062c.085-.378.237-.726.511-1.31a.158.158 0 0 0-.027-.175l-.46-.489a67.642 67.642 0 0 0-.44-.464 25.479 25.479 0 0 0-1.13-1.11.153.153 0 0 0-.157-.03c-2.245.855-4.502.927-6.891.242-2.334-.67-4.216-1.896-5.435-3.662M65.534 29.9a4.533 4.533 0 0 0-5.498-3.305A4.545 4.545 0 0 0 56.73 32.1a4.533 4.533 0 0 0 5.498 3.306 4.545 4.545 0 0 0 3.306-5.507zm-5.982-5.246a6.533 6.533 0 0 1 7.923 4.764 6.545 6.545 0 0 1-4.762 7.93 6.533 6.533 0 0 1-7.923-4.764 6.545 6.545 0 0 1 4.762-7.93z" class="color-500" clip-rule="evenodd"/></g><g class="animate-grow"><path fill="#fff" d="M16.732 34a3 3 0 0 0-3 3v4.397a1 1 0 0 1-.35.76L8.175 46.62a.5.5 0 0 0 0 .76l5.207 4.463a1 1 0 0 1 .35.76V70a3 3 0 0 0 3 3h60a3 3 0 0 0 3-3V37a3 3 0 0 0-3-3h-60z" class="color-100"/><path fill="#40A0FF" fill-rule="evenodd" d="M25 52a1 1 0 0 0-1 1v1a1 1 0 0 0 1 1h34a1 1 0 0 0 1-1v-1a1 1 0 0 0-1-1H25zm0 8a1 1 0 0 0-1 1v1a1 1 0 0 0 1 1h26a1 1 0 0 0 1-1v-1a1 1 0 0 0-1-1H25z" class="color-300" clip-rule="evenodd"/><path fill="#005CB9" fill-rule="evenodd" d="M16.732 32a5 5 0 0 0-5 5v3.937l-4.859 4.165a2.5 2.5 0 0 0 0 3.796l4.859 4.165V70a5 5 0 0 0 5 5h60a5 5 0 0 0 5-5V37a5 5 0 0 0-5-5h-60zm0 2a3 3 0 0 0-3 3v4.397a1 1 0 0 1-.35.76L8.175 46.62a.5.5 0 0 0 0 .76l5.207 4.463a1 1 0 0 1 .35.76V70a3 3 0 0 0 3 3h60a3 3 0 0 0 3-3V37a3 3 0 0 0-3-3h-60zm8.568 9a1.3 1.3 0 0 0-1.3 1.3v1.4a1.3 1.3 0 0 0 1.3 1.3h41.4a1.3 1.3 0 0 0 1.3-1.3v-1.4a1.3 1.3 0 0 0-1.3-1.3H25.3z" class="color-500" clip-rule="evenodd"/></g><g class="animate-grow"><path fill="#000" fill-opacity=".1" d="M83 67c0 2.972-3.5 8-3.5 8h-15S59 73.627 59 67s5.373-12 12-12 12 5.373 12 12z" class="color-shadow"/><path fill="#fff" d="M82 68c0 5.523-4.477 10-10 10s-10-4.477-10-10 4.477-10 10-10 10 4.477 10 10z" class="color-100"/><path fill="#005CB9" fill-rule="evenodd" d="M82 68c0 5.523-4.477 10-10 10s-10-4.477-10-10 4.477-10 10-10 10 4.477 10 10zm2 0c0 6.627-5.373 12-12 12s-12-5.373-12-12 5.373-12 12-12 12 5.373 12 12zm-11.682 3.016c-.074.151-.225.151-.253.151h-1.073a.217.217 0 0 1-.213-.194 5.152 5.152 0 0 1-.043-.545c0-.957.378-1.841 1.359-2.617l.825-.65c.517-.397.74-.884.74-1.425 0-.83-.567-1.625-1.72-1.625-1.222 0-1.755 1.029-1.755 2.04 0 .277-.183.536-.448.536h-1.119a.605.605 0 0 1-.6-.554 3.507 3.507 0 0 1-.018-.307C68 63.876 69.394 62 71.94 62c2.666 0 4.06 1.769 4.06 3.591 0 1.426-.688 2.436-1.703 3.194l-.706.524s-.793.7-.985 1.119l-.288.588zM71.769 75c-.646 0-1.16-.54-1.16-1.217 0-.678.514-1.233 1.16-1.233.646 0 1.175.555 1.175 1.233S72.415 75 71.77 75z" class="color-500" clip-rule="evenodd"/></g></g></svg>