<svg xmlns="http://www.w3.org/2000/svg" width="92" height="92" fill="none" class="wd-applet-guided-requisition wd-applet" focusable="false" role="presentation" viewBox="0 0 92 92"><g class="wd-icon-container"><g class="animate-flood"><path fill="#0B77E3" fill-opacity=".2" fill-rule="evenodd" d="M46 82.067c19.882 0 36-16.117 36-36 0-19.882-16.118-36-36-36s-36 16.118-36 36c0 19.883 16.118 36 36 36z" class="color-400-alpha-20" clip-rule="evenodd"/></g><g class="animate-grow"><path fill="#A6D2FF" d="M26.713 17.493c-.126-.559.111-1.089.53-1.183l12.895-2.922 12.896-2.922c.419-.095.86.28.987.84L59.31 34.64c.126.558-.11 1.088-.53 1.183l-25.79 5.844c-.42.095-.862-.281-.988-.84l-5.287-23.334z" class="color-200"/><path fill="#40A0FF" d="M36.385 14.922a.667.667 0 0 1 .502-.798l6.502-1.473a.667.667 0 0 1 .798.503l1.915 8.452a.667.667 0 0 1-.503.798l-6.502 1.473a.667.667 0 0 1-.797-.503l-1.915-8.452z" class="color-300"/><path fill="#005CB9" fill-rule="evenodd" d="M26.241 15.409a1 1 0 0 0-.754 1.196l5.746 25.357a1 1 0 0 0 1.196.754l27.33-6.09a1 1 0 0 0 .754-1.196l-5.746-25.357a1 1 0 0 0-1.196-.754l-27.33 6.09zm1.418 1.73l5.303 23.406 11.714-2.607-3.082-13.601-2.926.663a1 1 0 0 1-1.196-.755L35.468 15.4l-7.81 1.738zm15.885 6.756l3.084 13.609 11.714-2.607-5.304-23.407-7.81 1.738 1.996 8.807a1 1 0 0 1-.754 1.197l-2.926.663zm-6.11-8.87l1.767 7.803 5.852-1.326-1.768-7.802-5.852 1.326z" class="color-500" clip-rule="evenodd"/><path fill="#fff" d="M53.705 17.723a1.853 1.853 0 0 1 2.162-1.482l20.95 3.91a1.853 1.853 0 0 1 1.482 2.162l-4.1 21.971-24.594-4.59 4.1-21.97z" class="color-100"/><path fill="#40A0FF" d="M58.66 23.926a1 1 0 0 1 1.167-.8l10.813 2.018a1 1 0 1 1-.367 1.966L59.46 25.092a1 1 0 0 1-.8-1.166z" class="color-300"/><g fill="#A6D2FF" class="color-200"><path d="M54.61 29.274a1 1 0 0 1 1.167-.8l10.814 2.018a1 1 0 0 1-.367 1.966L55.41 30.44a1 1 0 0 1-.8-1.166zM69.356 32.026a1 1 0 0 1 1.167-.8l1.966.367a1 1 0 0 1-.367 1.966l-1.966-.367a1 1 0 0 1-.8-1.166zM53.877 33.206a1 1 0 0 1 1.166-.8l10.814 2.018a1 1 0 0 1-.367 1.966l-10.813-2.018a1 1 0 0 1-.8-1.166zM68.622 35.958a1 1 0 0 1 1.167-.8l1.966.367a1 1 0 0 1-.367 1.966l-1.966-.367a1 1 0 0 1-.8-1.166z"/></g><path fill="#005CB9" fill-rule="evenodd" d="M77.456 21.33l-22.61-4.22-4.058 21.746 22.61 4.219 4.058-21.745zm-22.243-6.186a2 2 0 0 0-2.333 1.6l-4.425 23.71 26.542 4.954 4.425-23.711a2 2 0 0 0-1.6-2.333l-22.609-4.22z" class="color-500" clip-rule="evenodd"/><g fill="#000" class="color-shadow" opacity=".1"><path d="M52.73 17.55a2 2 0 0 0-2.254 1.587l-2.782 13.93h2.14L52.73 17.55zM77.297 33.067H29.219l.453 2h47.25l.375-2z"/></g><g fill="#fff" class="color-100"><path fill-rule="evenodd" d="M32 80.067c2.21 0 3-.79 3-3 0-2.209-.79-3-3-3s-3 .791-3 3c0 2.21.79 3 3 3zm34 0c2.21 0 3-.79 3-3 0-2.209-.79-3-3-3s-3 .791-3 3c0 2.21.79 3 3 3z" clip-rule="evenodd"/><path d="M78 36.067H25.5l6 25 40.5-4 6-21z"/></g><g fill="#005CB9" class="color-500"><path fill-rule="evenodd" d="M50.433 35.067H64.5v22.5h-2v-20.5h-9.933l1.494 22.9-11.875 1.187-4.669-24.902 1.966-.369 4.33 23.098 8.126-.813-1.506-23.1z" clip-rule="evenodd"/><path d="M26.911 45.066l49.654-2-.065-1.998-49.654 1.999.065 1.999zM30 53.567l45.122-3.002L75 48.57l-45.122 3.002.122 1.996z"/><path fill-rule="evenodd" d="M17 29.067a1 1 0 0 1 1-1h5.127a1.5 1.5 0 0 1 1.438 1.073l1.468 5.82h51.493A1.5 1.5 0 0 1 79 36.738l-5.595 20.138A1.6 1.6 0 0 1 72 58.17L32.166 62.22a1.5 1.5 0 0 1-1.594-1.065l-7.818-31.087H18a1 1 0 0 1-1-1zm9.626 7.893l5.744 23.226 39.125-3.974 5.428-19.252H26.626zm50.409-.593z" clip-rule="evenodd"/><path fill-rule="evenodd" d="M32 60.567c.513.206.634-.141.428.372l-3.451 8.628h41.518a1 1 0 0 1 0 2H28.238a1.5 1.5 0 0 1-1.392-2.057l3.726-9.314c.205-.513.915.166 1.428.371zM34 77.067a2 2 0 1 1-4 0 2 2 0 0 1 4 0zm2 0a4 4 0 1 1-8 0 4 4 0 0 1 8 0zm32 0a2 2 0 1 1-4 0 2 2 0 0 1 4 0zm2 0a4 4 0 1 1-8 0 4 4 0 0 1 8 0z" clip-rule="evenodd"/></g></g></g></svg>