<svg xmlns="http://www.w3.org/2000/svg" width="92" height="92" class="wd-applet wd-applet-headcount-by-sales" focusable="false" role="presentation" viewBox="0 0 92 92"><g fill="none" fill-rule="evenodd" class="wd-icon-container"><g fill="#0B77E3" fill-opacity=".2" class="animate-flood"><path d="M46 82c-19.882 0-36-16.118-36-36s16.118-36 36-36 36 16.118 36 36-16.118 36-36 36z" class="color-400-alpha-20"/></g><g class="animate-shrink"><path fill="#FFF" d="M72 79a1 1 0 0 1-.992 1H20.992A1 1 0 0 1 20 79V13a1 1 0 0 1 .992-1h50.016A1 1 0 0 1 72 13v66z" class="color-100"/><path fill="#005CB9" fill-rule="nonzero" d="M71.008 82A3 3 0 0 0 74 79V13a3 3 0 0 0-2.992-3H20.992A3 3 0 0 0 18 13v66a3 3 0 0 0 2.992 3h50.016zm0-2H20.992A1 1 0 0 1 20 79V13a1 1 0 0 1 .992-1h50.016A1 1 0 0 1 72 13v66a1 1 0 0 1-.992 1z" class="color-500"/><path fill="#005CB9" d="M65.991 37c.557 0 1.009.451 1.009 1.003v23.994a.997.997 0 0 1-.134.501.988.988 0 0 1 .134.5v7.004c0 .551-.455.998-1 .998H51c-.552 0-1-.446-1-.998V63H28.009A1.007 1.007 0 0 1 27 61.997V38.003c0-.554.45-1.003 1.009-1.003H65.99zM65 63H52v6h13v-6zm-30-8h-6v6h6v-6zm15 0H37v6h13v-6zm15 0H52v6h13v-6zm-30-8h-6v6h6v-6zm15 0H37v6h13v-6zm15 0H52v6h13v-6zm-30-8h-6v6h6v-6zm15 0H37v6h13v-6zm15 0H52v6h13v-6z" class="color-500"/><path fill="#40A0FF" d="M44 23.999a.996.996 0 0 0-.993-.999H26.993a.993.993 0 0 0-.993.999v1.002c0 .552.445.999.993.999h16.014a.993.993 0 0 0 .993-.999v-1.002zm22 6c0-.552-.45-.999-1.009-.999H27.01c-.557 0-1.009.443-1.009.999v1.002c0 .552.45.999 1.009.999H64.99c.557 0 1.009-.443 1.009-.999v-1.002z" class="color-300"/></g></g></svg>