<svg xmlns="http://www.w3.org/2000/svg" width="92" height="92" fill="none" class="wd-applet-help wd-applet" focusable="false" role="presentation" viewBox="0 0 92 92"><g class="wd-icon-container"><g class="animate-flood"><path fill="#0B77E3" fill-opacity=".2" fill-rule="evenodd" d="M46 82c19.882 0 36-16.118 36-36S65.882 10 46 10 10 26.118 10 46s16.118 36 36 36z" class="color-400-alpha-20" clip-rule="evenodd"/></g><g class="animate-grow"><path fill="#fff" d="M14 27a1 1 0 0 1 1-1h56a1 1 0 0 1 1 1v37a1 1 0 0 1-1 1H39.303a1 1 0 0 0-.555.168l-13.193 8.795A1 1 0 0 1 24 73.132V66a1 1 0 0 0-1-1h-8a1 1 0 0 1-1-1V27z" class="color-100"/><path fill="#005CB9" fill-rule="evenodd" d="M15 24h56a3 3 0 0 1 3 3v37a3 3 0 0 1-3 3H39.606l-12.942 8.628C24.67 76.957 22 75.528 22 73.132V67h-7a3 3 0 0 1-3-3V27a3 3 0 0 1 3-3zm0 2a1 1 0 0 0-1 1v37a1 1 0 0 0 1 1h8a1 1 0 0 1 1 1v7.132a1 1 0 0 0 1.555.831l13.193-8.795a1 1 0 0 1 .555-.168H71a1 1 0 0 0 1-1V27a1 1 0 0 0-1-1H15z" class="color-500" clip-rule="evenodd"/><path fill="#A6D2FF" d="M38 45c0 5.523-4.477 10-10 10s-10-4.477-10-10 4.477-10 10-10 10 4.477 10 10z" class="color-200"/><path fill="#005CB9" fill-rule="evenodd" d="M28 53a8 8 0 1 0 0-16 8 8 0 0 0 0 16zm0 2c5.523 0 10-4.477 10-10s-4.477-10-10-10-10 4.477-10 10 4.477 10 10 10z" class="color-500" clip-rule="evenodd"/><path fill="#40A0FF" d="M34.76 52.37A9.964 9.964 0 0 1 28 55a9.964 9.964 0 0 1-6.76-2.63A4 4 0 0 1 25 47h6a4 4 0 0 1 3.76 5.37z" class="color-300"/><path fill="#005CB9" fill-rule="evenodd" d="M32.984 51.259A2 2 0 0 0 31 49h-6a2 2 0 0 0-1.984 2.259A7.959 7.959 0 0 0 28 53c1.886 0 3.616-.65 4.984-1.741zm-11.743 1.11A9.964 9.964 0 0 0 28 55c2.606 0 4.98-.997 6.76-2.63A4 4 0 0 0 31 47h-6a4 4 0 0 0-3.76 5.37z" class="color-500" clip-rule="evenodd"/><path fill="#fff" d="M24 43a4 4 0 0 1 8 0v2a4 4 0 0 1-8 0v-2z" class="color-100"/><path fill="#005CB9" fill-rule="evenodd" d="M30 45v-2a2 2 0 1 0-4 0v2a2 2 0 1 0 4 0zm-2-6a4 4 0 0 0-4 4v2a4 4 0 0 0 8 0v-2a4 4 0 0 0-4-4z" class="color-500" clip-rule="evenodd"/><path fill="#005CB9" d="M41 38.5a1.5 1.5 0 0 1 1.5-1.5h23a1.5 1.5 0 0 1 0 3h-23a1.5 1.5 0 0 1-1.5-1.5z" class="color-500"/><path fill="#40A0FF" d="M41 44.5a1.5 1.5 0 0 1 1.5-1.5h23a1.5 1.5 0 0 1 0 3h-23a1.5 1.5 0 0 1-1.5-1.5zM41 50.5a1.5 1.5 0 0 1 1.5-1.5h12a1.5 1.5 0 0 1 0 3h-12a1.5 1.5 0 0 1-1.5-1.5z" class="color-300"/><path fill="#000" fill-opacity=".1" d="M74 39c-12-3-13.8-13.5-13.8-15H67l7 9v6z" class="color-shadow"/></g><g class="animate-shrink"><path fill="#0875E1" d="M61.084 72.1a1 1 0 0 1 1.414 0l3.006 3.006a1 1 0 0 1 0 1.414l-9.193 9.192a1 1 0 0 1-1.414 0l-3.005-3.005a1 1 0 0 1 0-1.414l9.192-9.193z" class="color-400"/><path fill="#005CB9" fill-rule="evenodd" d="M61.791 74.222L54.013 82l1.591 1.591 7.778-7.778-1.59-1.591zM62.5 72.1a1 1 0 0 0-1.415 0l-9.192 9.192a1 1 0 0 0 0 1.414l3.005 3.005a1 1 0 0 0 1.414 0l9.193-9.192a1 1 0 0 0 0-1.414L62.498 72.1z" class="color-500" clip-rule="evenodd"/><path fill="#40A0FF" d="M61.086 68.727a1 1 0 0 1 1.415 0l6.364 6.364a1 1 0 0 1 0 1.415l-4.243 4.242a1 1 0 0 1-1.414 0l-6.364-6.364a1 1 0 0 1 0-1.414l4.242-4.243z" class="color-300"/><path fill="#005CB9" fill-rule="evenodd" d="M61.793 70.849l-2.828 2.828 4.95 4.95 2.828-2.829-4.95-4.95zm.708-2.122a1 1 0 0 0-1.415 0l-4.242 4.243a1 1 0 0 0 0 1.414l6.364 6.364a1 1 0 0 0 1.414 0l4.243-4.243a1 1 0 0 0 0-1.414L62.5 68.727z" class="color-500" clip-rule="evenodd"/><path fill="#A6D2FF" fill-rule="evenodd" d="M72.5 78.853c7.375 0 13.353-5.978 13.353-13.353S79.875 52.147 72.5 52.147 59.147 58.125 59.147 65.5 65.125 78.853 72.5 78.853zm.083-5.206a8.147 8.147 0 1 0 0-16.294 8.147 8.147 0 0 0 0 16.294z" class="color-200" clip-rule="evenodd"/><path fill="#005CB9" fill-rule="evenodd" d="M72.5 77C78.851 77 84 71.851 84 65.5S78.851 54 72.5 54 61 59.149 61 65.5 66.149 77 72.5 77zm0 2C79.956 79 86 72.956 86 65.5S79.956 52 72.5 52 59 58.044 59 65.5 65.044 79 72.5 79z" class="color-500" clip-rule="evenodd"/><path fill="#FCFCFC" d="M78.238 71.375c-3.224 3.224-8.43 3.246-11.626.05-3.196-3.197-3.174-8.402.05-11.626 3.224-3.224 8.43-3.246 11.626-.05 3.196 3.197 3.174 8.402-.05 11.626z" class="color-screen" opacity=".7"/><path fill="#000" d="M74 57.855v1.305c-3.003.837-5.966 3.833-7.836 7.852L65 66l1.857-6.706L69 58.5l3.5-1.5 1.5.855z" class="color-shadow" opacity=".1"/><path fill="#005CB9" fill-rule="evenodd" d="M72.5 72a6.5 6.5 0 1 0 0-13 6.5 6.5 0 0 0 0 13zm0 2a8.5 8.5 0 1 0 0-17 8.5 8.5 0 0 0 0 17z" class="color-500" clip-rule="evenodd"/></g><g class="animate-shrink"><path fill="#A6D2FF" d="M73.244 8.061l10 2.514a1 1 0 0 1 .756.97v8.671c0 1.384-.115 2.77-.583 4.073C82.344 27.274 79.537 32.793 73 35c-6.536-2.207-9.344-7.726-10.417-10.711-.468-1.302-.583-2.69-.583-4.073v-8.671a1 1 0 0 1 .756-.97l10-2.514a1 1 0 0 1 .488 0z" class="color-200"/><path fill="#005CB9" fill-rule="evenodd" d="M73 37.111l-.64-.216c-7.39-2.496-10.504-8.716-11.66-11.93-.582-1.62-.7-3.274-.7-4.749v-8.671a3 3 0 0 1 2.269-2.91l.487 1.94a1 1 0 0 0-.756.97v8.671c0 1.384.115 2.77.583 4.073C63.656 27.274 66.463 32.793 73 35c6.536-2.207 9.344-7.726 10.417-10.711.468-1.302.583-2.69.583-4.073v-8.671a1 1 0 0 0-.756-.97l-10-2.514a1 1 0 0 0-.488 0l-10 2.514-.487-1.94 10-2.513a3 3 0 0 1 1.462 0l10 2.513A3 3 0 0 1 86 11.545v8.671c0 1.475-.118 3.13-.7 4.75-1.156 3.213-4.27 9.433-11.66 11.929l-.64.216z" class="color-500" clip-rule="evenodd"/><path fill="#005CB9" fill-rule="evenodd" d="M80.106 14.205a1 1 0 0 1 .19 1.401l-8.385 11a1 1 0 0 1-1.586.006l-3.615-4.666a1 1 0 1 1 1.58-1.225l2.819 3.638 7.596-9.965a1 1 0 0 1 1.401-.19z" class="color-500" clip-rule="evenodd"/></g></g></svg>