<svg xmlns="http://www.w3.org/2000/svg" width="92" height="92" class="wd-applet wd-applet-hr-recruiting" focusable="false" role="presentation" viewBox="0 0 92 92"><g fill="none" fill-rule="evenodd" class="wd-icon-container"><g fill="#0B77E3" fill-opacity=".2" class="animate-flood"><path d="M46 82c19.882 0 36-16.118 36-36S65.882 10 46 10 10 26.118 10 46s16.118 36 36 36z" class="color-400-alpha-20"/></g><g class="animate-grow"><path fill="#40A0FF" d="M41.42 47.213a2.994 2.994 0 0 1 2.991-3h16.2a2.997 2.997 0 0 1 2.993 3v9.792H41.419v-9.792z" class="color-300"/><path fill="#005CB9" fill-rule="nonzero" d="M42 48v8h21v-8a3 3 0 0 0-3-3H45c-1.664 0-3 1.342-3 3zm-2.004.367C39.996 45.603 42.233 43 45 43h15c2.763 0 5.013 2.608 5.013 5.367v7.644a2 2 0 0 1-2 2H41.996a2 2 0 0 1-2-2v-7.644z" class="color-500"/><path fill="#FFF" d="M48 33.492v4.016A4.5 4.5 0 0 0 52.5 42a4.5 4.5 0 0 0 4.5-4.492v-4.016A4.5 4.5 0 0 0 52.5 29a4.5 4.5 0 0 0-4.5 4.492z" class="color-100"/><path fill="#005CB9" fill-rule="nonzero" d="M48 33.492v4.016A4.5 4.5 0 0 0 52.5 42a4.5 4.5 0 0 0 4.5-4.492v-4.016A4.5 4.5 0 0 0 52.5 29a4.5 4.5 0 0 0-4.5 4.492zm-2 0C46 29.907 48.915 27 52.5 27c3.587 0 6.5 2.91 6.5 6.492v4.016C59 41.093 56.085 44 52.5 44c-3.587 0-6.5-2.91-6.5-6.492v-4.016z" class="color-500"/></g><g class="animate-shrink"><path fill="#0B77E3" d="M30.174 57.384l4.65 4.65-14.51 14.512-4.652-4.65z" class="color-400"/><path fill="#40A0FF" d="M43.381 59.713c.493.492.493 1.29 0 1.781l-3.03 3.032a1.26 1.26 0 0 1-1.782 0L27.783 53.741a1.259 1.259 0 0 1 0-1.782l3.032-3.031a1.259 1.259 0 0 1 1.781 0l10.785 10.785z" class="color-300"/><path fill="#FCFCFC" d="M64.034 27.908c6.397 6.397 6.397 16.768 0 23.165-6.397 6.397-16.769 6.397-23.166 0-6.397-6.397-6.397-16.768 0-23.165 6.397-6.397 16.769-6.397 23.166 0" class="color-screen" opacity=".7"/><path fill="#000" d="M36.375 42.64c-1.008-5.168.49-10.729 4.493-14.732 6.397-6.397 16.768-6.397 23.165 0 4.005 4.003 5.502 9.564 4.494 14.732-.603-3.09-2.1-6.04-4.494-8.432-6.397-6.397-16.768-6.397-23.165 0a16.302 16.302 0 0 0-4.493 8.432" class="color-shadow" opacity=".1"/><path fill="#A6D2FF" d="M40.772 51.17c6.703 6.703 16.506 6.358 23.112-.247 6.605-6.606 6.728-16.186.025-22.89-6.704-6.704-16.563-6.859-23.169-.254-6.605 6.606-6.671 16.687.032 23.39m-3.759 3.759c-8.365-8.365-8.314-22.705-.072-30.948 8.242-8.242 22.329-8.039 30.694.326 8.365 8.365 8.204 22.089-.037 30.33-8.243 8.242-22.22 8.657-30.585.292" class="color-200"/><path fill="#005CB9" d="M42.251 50.042c5.68 5.678 14.68 5.12 20.275-.477 5.596-5.595 5.74-14.533.062-20.211-5.68-5.68-14.972-5.89-20.568-.295-5.595 5.596-5.623 15.128.055 20.807l.176.176zm-1.692-22.35c6.621-6.62 16.742-6.453 23.454.259 6.71 6.71 6.502 16.455-.12 23.076-6.62 6.621-16.504 6.97-23.214.258-6.712-6.712-6.741-16.971-.12-23.593zm26.917 26.823c8.243-8.241 8.425-21.746.061-30.111-8.365-8.364-22.225-8.537-30.466-.294-8.243 8.241-8.305 22.336.06 30.7 8.364 8.365 22.104 7.948 30.345-.295zm-37.24 3.299L16.095 71.956l4.243 4.242 14.142-14.142-4.242-4.242zm.689-7.76l-1.766 1.766c-.504.505-.476 1.61.017 2.105l9.21 9.21c.487.486 1.59.495 2.087-.001l1.765-1.766c.063-.064.138-.113.184-.184-2.222-1.127-4.816-3.127-6.677-4.988-1.86-1.861-3.51-4.103-4.636-6.326l-.184.185zm4.731-27.359c9.234-9.232 23.951-9.048 33.296.295 9.342 9.344 9.172 23.707-.06 32.94-6.768 6.767-15.928 9.252-24.41 6.022l-.83.83-1.765 1.766c-1.478 1.478-3.812 1.104-5.286-.37l-.708-.707-13.59 13.59c-.984.984-2.912 1.02-3.896.036l-3.563-3.563c-.984-.984-.593-2.563.391-3.547l13.587-13.588-.707-.707c-1.48-1.48-1.855-3.8-.37-5.286l1.765-1.766c.29-.288.83-.829.83-.829-3.227-8.485-1.45-18.348 5.316-25.116z" class="color-500"/></g></g></svg>