<svg xmlns="http://www.w3.org/2000/svg" width="92" height="92" class="wd-applet wd-applet-inbox" focusable="false" role="presentation" viewBox="0 0 92 92"><g fill="none" fill-rule="evenodd" class="wd-icon-container"><g fill="#0B77E3" fill-opacity=".2" class="animate-flood"><path d="M46 82c19.882 0 36-16.118 36-36S65.882 10 46 10 10 26.118 10 46s16.118 36 36 36z" class="color-400-alpha-20"/></g><path fill="#0B77E3" d="M18.357 42.772c.355-.426 1.094-.772 1.65-.772h51.986c.556 0 1.29.34 1.65.772L78 48H14l4.357-5.228z" class="color-400"/><path fill="#005CB9" fill-rule="nonzero" d="M18.357 42.772L14 48h64l-4.357-5.228c-.36-.432-1.094-.772-1.65-.772H20.007c-.556 0-1.295.346-1.65.772zM20.007 40h51.986c1.151 0 2.448.605 3.187 1.492l4.356 5.228C80.622 48.022 79.696 50 78 50H14c-1.696 0-2.622-1.978-1.536-3.28l4.356-5.228c.736-.883 2.037-1.492 3.187-1.492z" class="color-500"/><g class="animate-sink"><path fill="#40A0FF" d="M28 24v23c0 .553.446 1 .997 1h36.006c.544 0 .997-.448.997-1V24H28z" class="color-300"/><path fill="#005CB9" fill-rule="nonzero" d="M28 24v23c0 .553.446 1 .997 1h36.006c.544 0 .997-.448.997-1V24H28zm0-2h38a2 2 0 0 1 2 2v23c0 1.655-1.347 3-2.997 3H28.997A2.998 2.998 0 0 1 26 47V24a2 2 0 0 1 2-2z" class="color-500"/></g><g class="animate-sink-less"><path fill="#A6D2FF" d="M24 27v27.003c0 .557.45.997 1.003.997h42.994A.997.997 0 0 0 69 54.003V27H24z" class="color-200"/><path fill="#005CB9" fill-rule="nonzero" d="M24 27v27.003c0 .557.45.997 1.003.997h42.994A.997.997 0 0 0 69 54.003V27H24zm0-2h45a2 2 0 0 1 2 2v27.003A2.997 2.997 0 0 1 67.997 57H25.003A2.996 2.996 0 0 1 22 54.003V27a2 2 0 0 1 2-2z" class="color-500"/></g><g class="animate-float"><path fill="#FFF" d="M70.336 62a.993.993 0 0 1-.337.059H23.001A.995.995 0 0 1 22 61.06v-.071L21 61l1-.56V31h49v30.06a.994.994 0 0 1-.33.739L71 62h-.664z" class="color-100"/><path fill="#005CB9" fill-rule="nonzero" d="M71 29a2 2 0 0 1 2 2v30.06a3.003 3.003 0 0 1-3.001 2.999H23.001A2.995 2.995 0 0 1 20 61.06V31a2 2 0 0 1 2-2h49zm-.001 4.171L46 48 22 33.18v27.88c0 .56.448.999 1.001.999h46.998c.547 0 1.001-.447 1.001-.998l-.001-27.89zm-.246-2.172h-48.49l23.745 14.996L70.753 31z" class="color-500"/></g><path fill="#000" d="M73 42v18.005c0 .55-.442.995-1 .995H21a1 1 0 0 1-1-.995V42h11.999L32 43.997a6 6 0 0 0 5.784 5.999l.225.004H54.99A6.005 6.005 0 0 0 61 43.997L60.999 42H73z" class="color-shadow" opacity=".1"/><path fill="#40A0FF" d="M78 49v18.005c0 .55-.443.995-1.005.995h-61.99C14.45 68 14 67.55 14 67.005V49h16v.997a5.995 5.995 0 0 0 5.775 5.999L36 56h20c3.313 0 6-2.688 6-6.003V49h16z" class="color-300"/><path fill="#005CB9" fill-rule="nonzero" d="M30 49H14v18.005c0 .544.45.995 1.005.995h61.99A.995.995 0 0 0 78 67.005V49H62v1.997A6.002 6.002 0 0 1 56 57H36c-3.314 0-6-2.678-6-6.003V49zm0-2a2 2 0 0 1 2 2v1.997A3.996 3.996 0 0 0 36 55h20c2.208 0 4-1.792 4-4.003V49a2 2 0 0 1 2-2h16a2 2 0 0 1 2 2v18.005A2.995 2.995 0 0 1 76.995 70h-61.99A3.004 3.004 0 0 1 12 67.005V49a2 2 0 0 1 2-2h16z" class="color-500"/></g></svg>