<svg xmlns="http://www.w3.org/2000/svg" width="92" height="92" class="wd-applet wd-applet-influencers" focusable="false" role="presentation" viewBox="0 0 92 92"><g fill="none" fill-rule="evenodd" class="wd-icon-container"><g fill="#0B77E3" fill-opacity=".2" class="animate-flood"><path d="M46 86c22.091 0 40-17.909 40-40S68.091 6 46 6 6 23.909 6 46s17.909 40 40 40z" class="color-400-alpha-20"/></g><g class="animate-shrink"><path fill="#A6D2FF" d="M72.999 32H18a.993.993 0 0 0-1.001.992v45.516c0 .552.448.992 1.001.992H73A.993.993 0 0 0 74 78.508V32.992A.994.994 0 0 0 72.999 32z" class="color-200"/><path fill="#005CB9" fill-rule="nonzero" d="M68.293 42H22.707a.699.699 0 0 0-.707.697v30.606c0 .38.316.697.707.697h45.586a.699.699 0 0 0 .707-.697V42.697a.705.705 0 0 0-.707-.697zm0-2A2.705 2.705 0 0 1 71 42.697v30.606A2.699 2.699 0 0 1 68.293 76H22.707A2.705 2.705 0 0 1 20 73.303V42.697A2.699 2.699 0 0 1 22.707 40h45.586zM73 32H18a.993.993 0 0 0-1.001.992v45.516c0 .552.448.992 1.001.992H73A.993.993 0 0 0 74 78.508V32.992A.994.994 0 0 0 72.999 32zm0-2A2.994 2.994 0 0 1 76 32.992v45.516a2.993 2.993 0 0 1-3.001 2.992H18A2.994 2.994 0 0 1 15 78.508V32.992A2.993 2.993 0 0 1 18.001 30H73z" class="color-500"/><path fill="#40A0FF" d="M68.293 42H22.707a.699.699 0 0 0-.707.697v28.606c0 .38.316.697.707.697h45.586a.699.699 0 0 0 .707-.697V42.697a.705.705 0 0 0-.707-.697z" class="color-300"/><path fill="#40A0FF" d="M68.293 71H22.707a.698.698 0 0 0-.707.695v1.61a.7.7 0 0 0 .707.695h45.586a.698.698 0 0 0 .707-.695v-1.61a.7.7 0 0 0-.707-.695z" class="color-300"/><path fill="#005CB9" fill-rule="nonzero" d="M68.293 42H22.707a.698.698 0 0 0-.707.695v26.61a.7.7 0 0 0 .707.695h45.586a.698.698 0 0 0 .707-.695v-26.61a.7.7 0 0 0-.707-.695zm0-2A2.7 2.7 0 0 1 71 42.695v26.61A2.698 2.698 0 0 1 68.293 72H22.707A2.7 2.7 0 0 1 20 69.305v-26.61A2.698 2.698 0 0 1 22.707 40h45.586z" class="color-500"/><path fill="#005CB9" fill-rule="nonzero" d="M68.293 42H22.707a.704.704 0 0 0-.707.707v22.586c0 .396.316.707.707.707h45.586a.704.704 0 0 0 .707-.707V42.707a.703.703 0 0 0-.707-.707zm0-2A2.703 2.703 0 0 1 71 42.707v22.586A2.704 2.704 0 0 1 68.293 68H22.707A2.703 2.703 0 0 1 20 65.293V42.707A2.704 2.704 0 0 1 22.707 40h45.586z" class="color-500"/><path fill="#005CB9" fill-rule="nonzero" d="M35.03 68H28v1.848a1 1 0 0 0 1.007.994h5.016a.994.994 0 0 0 1.007-.994V68zm2-2v3.848a2.994 2.994 0 0 1-3.007 2.994h-5.016A3 3 0 0 1 26 69.848V66h11.03z" class="color-500"/><path fill="#FFF" d="M22.707 66a.703.703 0 0 1-.707-.707V42.707c0-.39.311-.707.707-.707h45.586c.39 0 .707.311.707.707v22.586c0 .39-.311.707-.707.707H35.03v3.848c0 .55-.44.994-1.007.994h-5.016A1 1 0 0 1 28 69.848V66z" class="color-100"/><path fill="#005CB9" fill-rule="nonzero" d="M32.71 27h25.096c.393 0 .709-.317.709-.709V10.71c0-.4-.318-.709-.71-.709H32.71a.708.708 0 0 0-.709.709V26.29c0 .4.318.709.71.709zm0 2A2.704 2.704 0 0 1 30 26.291V10.71A2.708 2.708 0 0 1 32.71 8h25.096a2.704 2.704 0 0 1 2.709 2.709V26.29A2.708 2.708 0 0 1 57.805 29H32.71z" class="color-500"/><path fill="#40A0FF" d="M32.71 27h25.096c.393 0 .709-.317.709-.709V10.71c0-.4-.318-.709-.71-.709H32.71a.708.708 0 0 0-.709.709V26.29c0 .4.318.709.71.709z" class="color-300"/><path fill="#FFF" d="M23.707 37h43.586a.7.7 0 0 0 .707-.699V18.7a.704.704 0 0 0-.707-.699H23.707a.7.7 0 0 0-.707.699V36.3c0 .385.316.699.707.699z" class="color-100"/><path fill="#005CB9" fill-rule="nonzero" d="M64 17v-2.297a.704.704 0 0 0-.706-.703H27.706a.707.707 0 0 0-.706.703V17h37zm-39 0v-2.297A2.707 2.707 0 0 1 27.706 12h35.588A2.704 2.704 0 0 1 66 14.703V17H25zm-1.293 20h43.586a.7.7 0 0 0 .707-.699V18.7a.704.704 0 0 0-.707-.699H23.707a.7.7 0 0 0-.707.699V36.3c0 .385.316.699.707.699zm0 2A2.703 2.703 0 0 1 21 36.301V18.7A2.7 2.7 0 0 1 23.707 16h43.586A2.703 2.703 0 0 1 70 18.699V36.3A2.7 2.7 0 0 1 67.293 39H23.707z" class="color-500"/><path fill="#A6D2FF" d="M27 16h37v-1.297a.704.704 0 0 0-.706-.703H27.706a.707.707 0 0 0-.706.703V16z" class="color-200"/><path fill="#005CB9" fill-rule="nonzero" d="M35 15.842h7.03v-1.848A1 1 0 0 0 41.023 13h-5.016a.994.994 0 0 0-1.007.994v1.848zm-2 2v-3.848A2.994 2.994 0 0 1 36.007 11h5.016a3 3 0 0 1 3.007 2.994v3.848H33z" class="color-500"/><path fill="#FFF" d="M35 18.842h7.03v-4.848A1 1 0 0 0 41.023 13h-5.016a.994.994 0 0 0-1.007.994v4.848z" class="color-100"/><path fill="#005CB9" fill-rule="nonzero" d="M47 11.842h7.031V9.994A1 1 0 0 0 53.024 9h-5.017A.994.994 0 0 0 47 9.994v1.848zm-2 2V9.994A2.994 2.994 0 0 1 48.007 7h5.017a3 3 0 0 1 3.007 2.994v3.848H45z" class="color-500"/><path fill="#A6D2FF" d="M47 14.842h7.031V9.994A1 1 0 0 0 53.024 9h-5.017A.994.994 0 0 0 47 9.994v4.848z" class="color-200"/><path fill="#0B77E3" d="M36 35c-.556 0-1 .446-1 .997v6.006c0 .544.448.997 1 .997.556 0 1-.446 1-.997v-6.006c0-.544-.448-.997-1-.997zm19 0c-.556 0-1 .446-1 .997v6.006c0 .544.448.997 1 .997.556 0 1-.446 1-.997v-6.006c0-.544-.448-.997-1-.997z" class="color-400"/><path fill="#A6D2FF" d="M48 50c0-.552.445-1 1-1h14c.552 0 1 .444 1 1 0 .552-.445 1-1 1H49c-.552 0-1-.444-1-1zm0 3c0-.552.456-1 1.002-1h9.996A.999.999 0 0 1 60 53c0 .552-.456 1-1.002 1h-9.996A.999.999 0 0 1 48 53zm0 4c0-.552.445-1 .996-1h9.008c.55 0 .996.444.996 1 0 .552-.445 1-.996 1h-9.008A.995.995 0 0 1 48 57zm12 0a1 1 0 0 1 1.01-1h1.98a1 1 0 1 1 0 2h-1.98c-.558 0-1.01-.444-1.01-1zm4 3c0 .552-.445 1-.996 1h-9.008A.995.995 0 0 1 53 60c0-.552.445-1 .996-1h9.008c.55 0 .996.444.996 1zm-12 0a1 1 0 0 1-1.01 1h-1.98a1 1 0 1 1 0-2h1.98c.558 0 1.01.444 1.01 1zM27 49.007c0-.556.445-1.007 1-1.007h14c.552 0 1 .45 1 1.007v11.986C43 61.55 42.555 62 42 62H28c-.552 0-1-.45-1-1.007V49.007z" class="color-200"/><path fill="#40A0FF" d="M31 58h8a1 1 0 0 1 1 1v3H30v-3a1 1 0 0 1 1-1z" class="color-300"/><path fill="#FFF" fill-rule="nonzero" d="M33 53.5v2c0 .826.895 1.5 2 1.5 1.112 0 2-.672 2-1.5v-2c0-.826-.895-1.5-2-1.5-1.112 0-2 .672-2 1.5z" class="color-100"/><path fill="#005CB9" fill-rule="nonzero" d="M31 60.777V62h8v-1.223c0-.974-.795-1.777-1.775-1.777h-4.45c-.979 0-1.775.796-1.775 1.777zm-2 0A3.777 3.777 0 0 1 32.775 57h4.45A3.781 3.781 0 0 1 41 60.777v2.634H29v-2.634zm-2-11.778V61c0 .552.45.999 1.007.999h13.986c.557 0 1.007-.447 1.007-.999V49c0-.552-.45-.999-1.007-.999H28.007c-.557 0-1.007.447-1.007.999zm-2 0C25 47.339 26.35 46 28.007 46h13.986A3.003 3.003 0 0 1 45 48.999V61C45 62.661 43.65 64 41.993 64H28.007A3.003 3.003 0 0 1 25 61.001V49zm8 4.501v2c0 .826.895 1.5 2 1.5 1.112 0 2-.672 2-1.5v-2c0-.826-.895-1.5-2-1.5-1.112 0-2 .672-2 1.5zm-2 0c0-1.934 1.785-3.5 4-3.5 2.209 0 4 1.57 4 3.5v2c0 1.934-1.785 3.5-4 3.5-2.209 0-4-1.57-4-3.5v-2zM36 35c-.556 0-1 .446-1 .997v6.006c0 .544.448.997 1 .997.556 0 1-.446 1-.997v-6.006c0-.544-.448-.997-1-.997zm0-2c1.655 0 3 1.347 3 2.997v6.006A2.996 2.996 0 0 1 36 45c-1.655 0-3-1.347-3-2.997v-6.006A2.996 2.996 0 0 1 36 33zm19 2c-.556 0-1 .446-1 .997v6.006c0 .544.448.997 1 .997.556 0 1-.446 1-.997v-6.006c0-.544-.448-.997-1-.997zm0-2c1.655 0 3 1.347 3 2.997v6.006A2.996 2.996 0 0 1 55 45c-1.655 0-3-1.347-3-2.997v-6.006A2.996 2.996 0 0 1 55 33z" class="color-500"/></g></g></svg>