<svg xmlns="http://www.w3.org/2000/svg" width="92" height="92" class="wd-applet wd-applet-in-process" focusable="false" role="presentation" viewBox="0 0 92 92"><g fill="none" fill-rule="evenodd" class="wd-icon-container"><g fill="#0B77E3" fill-opacity=".2" class="animate-flood"><path d="M46 82c-19.882 0-36-16.118-36-36s16.118-36 36-36 36 16.118 36 36-16.118 36-36 36z" class="color-400-alpha-20"/></g><g class="animate-shrink"><path fill="#FFF" d="M72 79a1 1 0 0 1-.992 1H20.992A1 1 0 0 1 20 79V13a1 1 0 0 1 .992-1h50.016A1 1 0 0 1 72 13v66z" class="color-100"/><path fill="#005CB9" fill-rule="nonzero" d="M71.008 82A3 3 0 0 0 74 79V13a3 3 0 0 0-2.992-3H20.992A3 3 0 0 0 18 13v66a3 3 0 0 0 2.992 3h50.016zm0-2H20.992A1 1 0 0 1 20 79V13a1 1 0 0 1 .992-1h50.016A1 1 0 0 1 72 13v66a1 1 0 0 1-.992 1z" class="color-500"/><path fill="#40A0FF" d="M59 26.999a1 1 0 0 0-.995-.999h-17.01a.994.994 0 0 0-.995.999v1.002a1 1 0 0 0 .995.999h17.01c.55 0 .995-.443.995-.999v-1.002zm5 5A1 1 0 0 0 63 31H41c-.552 0-1 .443-1 .999v1.002A1 1 0 0 0 41 34h22c.552 0 1-.443 1-.999v-1.002zm-5 11a1 1 0 0 0-.995-.999h-17.01a.994.994 0 0 0-.995.999v1.002a1 1 0 0 0 .995.999h17.01c.55 0 .995-.443.995-.999v-1.002zm5 5A1 1 0 0 0 63 47H41c-.552 0-1 .443-1 .999v1.002A1 1 0 0 0 41 50h22c.552 0 1-.443 1-.999v-1.002zm-5 11a1 1 0 0 0-.995-.999h-17.01a.994.994 0 0 0-.995.999v1.002a1 1 0 0 0 .995.999h17.01c.55 0 .995-.443.995-.999v-1.002zm5 5A1 1 0 0 0 63 63H41c-.552 0-1 .443-1 .999v1.002A1 1 0 0 0 41 66h22c.552 0 1-.443 1-.999v-1.002z" class="color-300"/><path fill="#005CB9" fill-rule="nonzero" d="M31 57a5 5 0 1 0 0 10 5 5 0 0 0 0-10zm0 2a3 3 0 1 1 0 6 3 3 0 0 1 0-6zm0-18a5 5 0 1 0 0 10 5 5 0 0 0 0-10zm0 2a3 3 0 1 1 0 6 3 3 0 0 1 0-6z" class="color-500"/><path fill="#A6D2FF" d="M31 49a3 3 0 1 1 0-6 3 3 0 0 1 0 6zm0 16a3 3 0 1 1 0-6 3 3 0 0 1 0 6z" class="color-200"/><path fill="#005CB9" d="M29.506 33.533a1.01 1.01 0 0 1-.23-.12l-2.457-1.72a.997.997 0 0 1-.245-1.393.997.997 0 0 1 1.392-.246l1.668 1.168 3.448-4.924a.996.996 0 0 1 1.391-.244c.452.317.563.94.247 1.39l-4.018 5.739a.996.996 0 0 1-1.196.35z" class="color-500"/></g></g></svg>