<svg xmlns="http://www.w3.org/2000/svg" width="92" height="92" class="wd-applet wd-applet-institutions" focusable="false" role="presentation" viewBox="0 0 92 92"><g fill="none" fill-rule="evenodd" class="wd-icon-container"><g fill="#0B77E3" fill-opacity=".2" class="animate-flood"><path d="M46 82c19.882 0 36-16.118 36-36S65.882 10 46 10 10 26.118 10 46s16.118 36 36 36z" class="color-400-alpha-20"/></g><g class="animate-grow"><path fill="#40A0FF" d="M77.22 62.127c.286.192 1.738 1.101 3.088.768 1.505-.372 2.316-2.148 2.316-2.148s-1.633-1.175-3.139-.803c-.796.196-1.398.785-1.788 1.297.192-.643.328-1.522.007-2.294C77.113 57.52 75.188 57 75.188 57s-.964 1.789-.372 3.215c.505 1.217 1.984 1.775 2.404 1.912zm3.5-24.189c.037.142.065.223.065.223s2.47-.13 3.536-1.554c1.066-1.426.324-3.607.324-3.607s-2.47.13-3.536 1.554c-.396.528-.542 1.16-.57 1.746-.24-.636-.635-1.32-1.285-1.756-1.507-1.008-3.812-.306-3.812-.306s.137 2.338 1.643 3.346c1.256.842 3.067.493 3.635.354zm.929 6.114l.02.077s2.387.026 3.516-1.114c1.13-1.14.575-3.015.575-3.015s-2.387-.026-3.516 1.114c-.328.33-.514.723-.613 1.114-.17-.564-.451-1.147-.912-1.555-1.204-1.07-3.186-.544-3.186-.544s-.028 2.259 1.177 3.327c.946.84 2.37.696 2.939.596zm-67.826 17.19c-.39-.513-.991-1.102-1.788-1.298-1.506-.372-3.138.803-3.138.803s.81 1.776 2.315 2.148c1.35.333 2.802-.576 3.088-.768.42-.137 1.899-.695 2.404-1.912.592-1.426-.372-3.215-.372-3.215s-1.924.521-2.516 1.947c-.32.772-.185 1.65.007 2.294zM10.983 36.3c-.03-.586-.176-1.218-.571-1.746C9.346 33.13 6.875 33 6.875 33s-.742 2.181.324 3.607c1.066 1.425 3.537 1.554 3.537 1.554s.027-.081.065-.223c.567.14 2.378.488 3.635-.354 1.506-1.008 1.642-3.346 1.642-3.346s-2.305-.702-3.812.306c-.65.436-1.045 1.12-1.284 1.756zm-1.094 5.928a2.387 2.387 0 0 0-.612-1.114C8.147 39.974 5.76 40 5.76 40s-.555 1.874.575 3.015c1.13 1.14 3.516 1.114 3.516 1.114l.02-.077c.57.1 1.993.243 2.939-.596 1.205-1.068 1.177-3.327 1.177-3.327s-1.981-.525-3.186.544c-.46.408-.741.991-.912 1.555zm-3.694 7.754c-1.506-1.037-1.571-3.344-1.571-3.344s2.377-.625 3.883.412c1.506 1.037 1.571 3.344 1.571 3.344s-2.377.625-3.883-.412zm5.061-3.495C12.353 45.062 14.79 45 14.79 45s.66 2.25-.435 3.675c-1.096 1.425-3.534 1.486-3.534 1.486s-.66-2.25.435-3.674zm-2.612 10.04c-1.506-.635-1.93-2.45-1.93-2.45s2.02-.787 3.526-.152c1.506.635 1.93 2.45 1.93 2.45s-2.02.786-3.526.151zm3.787-3.089c.67-1.425 2.59-1.825 2.59-1.825s.83 1.91.16 3.336c-.672 1.424-2.59 1.825-2.59 1.825s-.831-1.91-.16-3.336zm72.894-3.456c-1.505 1.037-3.883.412-3.883.412s.065-2.307 1.571-3.344 3.884-.412 3.884-.412-.066 2.307-1.572 3.344zm-5.06-3.495c1.095 1.425.434 3.674.434 3.674s-2.437-.061-3.534-1.486C76.07 47.25 76.73 45 76.73 45s2.438.062 3.534 1.487zm2.611 10.04c-1.506.634-3.525-.152-3.525-.152s.424-1.815 1.93-2.45c1.506-.635 3.525.151 3.525.151s-.424 1.816-1.93 2.45zm-3.787-3.089c.671 1.426-.16 3.336-.16 3.336s-1.918-.4-2.589-1.825c-.671-1.426.16-3.336.16-3.336s1.919.4 2.59 1.825z" class="color-300"/><path fill="#005CB9" fill-rule="nonzero" d="M15.53 64.096l.71-.429c-4.73-7.948-7.224-19.323-5.1-27.182l-.797-.227c-2.4 8.275.344 19.7 5.187 27.838zm60.64 0l-.71-.429c4.73-7.948 7.224-19.323 5.1-27.182l.796-.227c2.4 8.275-.343 19.7-5.187 27.838z" class="color-500"/></g><g class="animate-shrink"><path fill="#40A0FF" d="M17 72h-2.995A.998.998 0 0 0 13 73v5a1 1 0 0 0 1.005 1h63.99A.998.998 0 0 0 79 78v-5a1 1 0 0 0-1.005-1H75v-4.01c0-.539-.446-.99-.996-.99H17.996a.996.996 0 0 0-.996.99V72zm-4-43.01c0 .567.45 1.01 1.005 1.01h63.99c.562 0 1.005-.452 1.005-1.01v-4.438c-.049-.008-32.11-17.337-32.11-17.337-.485-.255-1.287-.258-1.779 0L13 24.54v4.45z" class="color-300"/><path fill="#FFF" d="M46 23a4 4 0 1 0 0-8 4 4 0 0 0 0 8zM29 62V35h1.002c.552 0 .998-.452.998-1.01V31h-9v2.99c0 .567.447 1.01.998 1.01H24v27h-1.002A.998.998 0 0 0 22 63.01V66h9v-2.99c0-.558-.446-1.01-.998-1.01H29zm8 0h-1.002A.998.998 0 0 0 35 63.01V66h9v-2.99c0-.558-.446-1.01-.998-1.01H42V35h1.002c.552 0 .998-.452.998-1.01V31h-9v2.99c0 .567.447 1.01.998 1.01H37v27zm13 0h-1.002A.998.998 0 0 0 48 63.01V66h9v-2.99c0-.558-.446-1.01-.998-1.01H55V35h1.002c.552 0 .998-.452.998-1.01V31h-9v2.99c0 .567.447 1.01.998 1.01H50v27zm13 0h-1.002A.998.998 0 0 0 61 63.01V66h9v-2.99c0-.558-.446-1.01-.998-1.01H68V35h1.002c.552 0 .998-.452.998-1.01V31h-9v2.99c0 .567.447 1.01.998 1.01H63v27z" class="color-100"/><path fill="#005CB9" d="M47.817 6.443a18245.906 18245.906 0 0 1 4.862 2.545c3.646 1.91 7.292 3.82 10.695 5.605 4.416 2.315 8.063 4.23 10.733 5.634a1653.386 1653.386 0 0 1 4.502 2.377l.273.148c.134.076.134.076.203.119.052.032.052.032.201.148.124.093.124.093.587.83l.078.703L80 27.99C80 29.65 78.663 31 76.995 31H72v2.99a3.01 3.01 0 0 1-2 2.84v23.34a3.01 3.01 0 0 1 2 2.84V66h1.004A2.998 2.998 0 0 1 76 68.99V71h.995A3 3 0 0 1 80 74v3c0 1.66-1.341 3-3.005 3h-61.99A3 3 0 0 1 12 77v-3c0-1.66 1.341-3 3.005-3H16v-2.01A2.996 2.996 0 0 1 18.996 66H20v-2.99c0-1.315.832-2.43 2-2.84V36.83a3.004 3.004 0 0 1-2-2.84V31h-4.995A3.002 3.002 0 0 1 12 27.99v-3.45a2 2 0 0 1 1.07-1.771L44.183 6.444c1.072-.563 2.57-.56 3.635-.001zM76.995 73h-61.99A.998.998 0 0 0 14 74v3a1 1 0 0 0 1.005 1h61.99A.998.998 0 0 0 78 77v-3a1 1 0 0 0-1.005-1zm-3.99-5h-54.01a.996.996 0 0 0-.995.99V71h56v-2.01c0-.539-.446-.99-.996-.99zm-43.003-6h-7.004A.998.998 0 0 0 22 63.01V66h9v-2.99c0-.558-.446-1.01-.998-1.01zm13 0h-7.004A.998.998 0 0 0 35 63.01V66h9v-2.99c0-.558-.446-1.01-.998-1.01zm13 0h-7.004A.998.998 0 0 0 48 63.01V66h9v-2.99c0-.558-.446-1.01-.998-1.01zm13 0h-7.004A.998.998 0 0 0 61 63.01V66h9v-2.99c0-.558-.446-1.01-.998-1.01zM59 33.99a3.01 3.01 0 0 1-2 2.84v23.34a3.01 3.01 0 0 1 2 2.84c0-1.315.832-2.43 2-2.84V36.83a3.002 3.002 0 0 1-1.994-2.644L59 33.991zm-13 0a3.01 3.01 0 0 1-2 2.84v23.34a3.01 3.01 0 0 1 2 2.84c0-1.315.832-2.43 2-2.84V36.83a3.002 3.002 0 0 1-1.994-2.644L46 33.991zm-13 0a3.01 3.01 0 0 1-2 2.84v23.34a3.01 3.01 0 0 1 2 2.84c0-1.315.832-2.43 2-2.84V36.83a3.002 3.002 0 0 1-1.994-2.644L33 33.991zM29 37h-5v23h5V37zm13 0h-5v23h5V37zm13 0h-5v23h5V37zm13 0h-5v23h5V37zm-37-6h-9v2.99c0 .567.447 1.01.998 1.01h7.004c.552 0 .998-.452.998-1.01V31zm13 0h-9v2.99c0 .567.447 1.01.998 1.01h7.004c.552 0 .998-.452.998-1.01V31zm13 0h-9v2.99c0 .567.447 1.01.998 1.01h7.004c.552 0 .998-.452.998-1.01V31zm13 0h-9v2.99c0 .567.447 1.01.998 1.01h7.004c.552 0 .998-.452.998-1.01V31zM45.111 8.215L15.03 23.999 37.005 24c.51 0 .93.383.988.883L38 25c0 .552-.455 1-.995 1H14v1.99c0 .567.45 1.01 1.005 1.01h61.99c.562 0 1.005-.452 1.005-1.01L77.999 26H54.995A.995.995 0 0 1 54 25c0-.552.455-1 .995-1h21.98a4896.54 4896.54 0 0 0-13.565-7.13l-.934-.49C54.688 12.297 46.89 8.215 46.89 8.215c-.485-.255-1.287-.258-1.779 0zM46 25a6 6 0 1 1 0-12 6 6 0 0 1 0 12zm0-2a4 4 0 1 0 0-8 4 4 0 0 0 0 8z" class="color-500"/></g></g></svg>