<svg xmlns="http://www.w3.org/2000/svg" width="92" height="92" class="wd-applet wd-applet-integrations" focusable="false" role="presentation" viewBox="0 0 92 92"><g fill="none" fill-rule="evenodd" class="wd-icon-container"><g fill="#0B77E3" fill-opacity=".2" class="animate-flood"><path d="M10 46c0-19.882 16.113-36 36-36 19.882 0 36 16.113 36 36 0 19.882-16.113 36-36 36-19.882 0-36-16.113-36-36z" class="color-400-alpha-20"/></g><g class="animate-left"><path fill="#FFF" d="M42.667 25.167v8.968a4.836 4.836 0 0 1 6.655 4.479 4.836 4.836 0 0 1-6.655 4.477v8.551l11.756.001a4.829 4.829 0 0 0-.476 1.817l-.008.28a4.837 4.837 0 0 0 4.839 4.835 4.837 4.837 0 0 0 4.84-4.834c0-.753-.178-1.463-.485-2.098h11.273c.252 1.03.401 2.1.4 3.203.001 3.708-1.51 7.082-3.945 9.51a13.436 13.436 0 0 1-9.519 3.94H42.655v-4.249a4.836 4.836 0 0 1-6.788-4.421 4.836 4.836 0 0 1 6.788-4.421v-3.516l-10.517.001a4.808 4.808 0 0 0 .546-1.97l.007-.268a4.837 4.837 0 0 0-4.839-4.833 4.836 4.836 0 0 0-4.84 4.833c0 .808.201 1.569.553 2.238H9.455a11.58 11.58 0 0 1 8.029-6.223 6.585 6.585 0 0 1-.664-2.873 6.622 6.622 0 0 1 6.626-6.619 6.59 6.59 0 0 1 2.946.697 19.237 19.237 0 0 1 10.153-10.05c1.9-.801 3.973-1.3 6.122-1.455z" class="color-100"/><path fill="#A6D2FF" d="M40.706 64.46a4.836 4.836 0 0 1-4.839-4.833 4.836 4.836 0 0 1 6.788-4.421v-3.562H32.126c.352-.67.553-1.43.553-2.238a4.837 4.837 0 0 0-4.839-4.834A4.837 4.837 0 0 0 23 49.406c0 .808.201 1.569.553 2.238H9.443a11.486 11.486 0 0 0-1.193 5.095c0 6.126 4.775 11.125 10.81 11.52l-.007.04h23.603v-4.25a4.824 4.824 0 0 1-1.95.41z" class="color-200"/><path fill="#005CB9" fill-rule="nonzero" d="M43.668 50.643h10.755a1 1 0 0 1 .9 1.435 3.812 3.812 0 0 0-.384 1.663 3.837 3.837 0 0 0 3.839 3.834c2.12 0 3.84-1.717 3.84-3.834 0-.58-.133-1.142-.385-1.662a1 1 0 0 1 .9-1.436h11.273a1 1 0 0 1 .971.763c.283 1.155.43 2.299.43 3.44 0 3.879-1.548 7.534-4.238 10.216a14.433 14.433 0 0 1-10.227 4.235h-18.63a1.016 1.016 0 0 1-.056.001H19.053a.999.999 0 0 1-.354-.064C12.251 68.662 7.25 63.264 7.25 56.74c0-1.94.448-3.819 1.295-5.537a1 1 0 0 1 .147-.22 12.592 12.592 0 0 1 7.452-6.203 7.526 7.526 0 0 1-.324-2.185c0-4.208 3.415-7.619 7.626-7.619.84 0 1.662.14 2.444.406a20.248 20.248 0 0 1 10.267-9.68 20.335 20.335 0 0 1 6.438-1.531 1 1 0 0 1 1.072.997v7.67a5.836 5.836 0 0 1 6.655 5.776 5.836 5.836 0 0 1-6.655 5.776v6.254zm-2.013 16.655v-1.916a5.836 5.836 0 0 1-6.776-6.133 5.837 5.837 0 0 1 6.776-5.379v-1.226h-9.529a1 1 0 0 1-.885-1.465 3.794 3.794 0 0 0 .438-1.773 3.837 3.837 0 0 0-3.839-3.834A3.837 3.837 0 0 0 24 49.406c0 .626.152 1.229.438 1.773a1 1 0 0 1-.885 1.465h-13.47a10.462 10.462 0 0 0-.833 4.095c0 5.567 4.333 10.16 9.875 10.522.074.005.145.018.213.037h22.317zm-8.087-16.654h8.1v-7.553a1 1 0 0 1 1.374-.927 3.836 3.836 0 0 0 5.28-3.55 3.836 3.836 0 0 0-5.28-3.552 1 1 0 0 1-1.375-.927v-7.862a18.199 18.199 0 0 0-4.733 1.27 18.249 18.249 0 0 0-9.625 9.529 1 1 0 0 1-1.362.495 5.588 5.588 0 0 0-2.501-.592 5.622 5.622 0 0 0-5.626 5.619c0 .848.195 1.674.564 2.438a1 1 0 0 1-.698 1.414c-2.618.54-4.911 2.06-6.443 4.198h10.89a5.837 5.837 0 0 1 5.706-7.072 5.84 5.84 0 0 1 5.656 4.376 5.837 5.837 0 0 1 .073 2.696zm40.03 2h-9.086a5.837 5.837 0 0 1-5.734 6.931 5.837 5.837 0 0 1-5.734-6.932h-9.389v2.562a1 1 0 0 1-1.403.915 3.836 3.836 0 0 0-5.385 3.506 3.836 3.836 0 0 0 5.385 3.506 1 1 0 0 1 1.403.915v3.25h17.687c3.346 0 6.498-1.332 8.813-3.65a12.404 12.404 0 0 0 3.651-8.802c0-.727-.07-1.46-.207-2.202z" class="color-500"/></g><g class="animate-right"><path fill="#40A0FF" d="M81.863 34.392a13.44 13.44 0 0 0-7.716-3.815 19.095 19.095 0 0 0-1.313-4.722 19.221 19.221 0 0 0-4.123-6.107 19.248 19.248 0 0 0-6.115-4.118 19.397 19.397 0 0 0-7.53-1.51c-.473 0-.943.022-1.41.055v8.968a4.836 4.836 0 0 1 6.655 4.479 4.835 4.835 0 0 1-6.654 4.477v8.6h11.768a4.802 4.802 0 0 0-.485 2.097 4.837 4.837 0 0 0 4.84 4.834 4.837 4.837 0 0 0 4.839-4.834c0-.752-.178-1.462-.484-2.097h11.272a13.433 13.433 0 0 0-3.544-6.307z" class="color-300"/><path fill="#005CB9" d="M55.066 13.12c2.749 0 5.451.547 7.92 1.589a20.247 20.247 0 0 1 6.431 4.332 20.221 20.221 0 0 1 4.338 6.425 20.06 20.06 0 0 1 1.263 4.238 14.437 14.437 0 0 1 7.55 3.98 14.433 14.433 0 0 1 3.81 6.776 1 1 0 0 1-.97 1.239h-9.895a5.837 5.837 0 0 1-5.734 6.931 5.837 5.837 0 0 1-5.733-6.931h-10.39a1 1 0 0 1-1-1v-8.6a1 1 0 0 1 1.377-.926 3.835 3.835 0 0 0 5.278-3.551 3.836 3.836 0 0 0-5.28-3.552 1 1 0 0 1-1.374-.927v-8.968a1 1 0 0 1 .928-.997 20.547 20.547 0 0 1 1.48-.059zm0 2c-.134 0-.27.001-.41.005v6.72a5.836 5.836 0 0 1 6.655 5.776 5.835 5.835 0 0 1-6.654 5.776v6.302h10.768a1 1 0 0 1 .9 1.435 3.801 3.801 0 0 0-.385 1.662 3.837 3.837 0 0 0 3.84 3.834c2.12 0 3.839-1.716 3.839-3.834 0-.577-.133-1.14-.385-1.663a1 1 0 0 1 .9-1.434h9.93a12.386 12.386 0 0 0-2.908-4.6 12.44 12.44 0 0 0-7.142-3.53 1 1 0 0 1-.857-.85 18.095 18.095 0 0 0-5.153-10.263 18.247 18.247 0 0 0-5.797-3.905 18.397 18.397 0 0 0-7.141-1.432z" class="color-500"/></g></g></svg>