<svg xmlns="http://www.w3.org/2000/svg" width="92" height="92" class="wd-applet wd-applet-inventory" focusable="false" role="presentation" viewBox="0 0 92 92"><g fill="none" fill-rule="evenodd" class="wd-icon-container"><g fill="#0B77E3" fill-opacity=".2" class="animate-flood"><path d="M46 85c19.882 0 36-16.118 36-36S65.882 13 46 13 10 29.118 10 49s16.118 36 36 36z" class="color-400-alpha-20"/></g><g class="animate-shrink"><path fill="#005CB9" fill-rule="nonzero" d="M75 36a2 2 0 0 1 2 2v38.003A3 3 0 0 1 74.004 79H19.996A3 3 0 0 1 17 76.003V38a2 2 0 0 1 2-2h56zm0 2H19v38.003a1 1 0 0 0 .996.997h54.008a1 1 0 0 0 .996-.997V38zM64 19c1.262 0 2.593.763 3.234 1.852l9.49 16.134C77.508 38.319 76.547 40 75 40H19c-1.547 0-2.508-1.68-1.724-3.014l9.49-16.134C27.406 19.765 28.744 19 30 19h34zm-18 2H30c-.545 0-1.228.388-1.51.866L19 38h27V21zm18 0H48v17h27l-9.49-16.134C65.228 21.387 64.552 21 64 21z" class="color-500"/><path fill="#FFF" d="M19 40v36.003a1 1 0 0 0 .996.997h54.008a1 1 0 0 0 .996-.997V40H19z" class="color-100"/><path fill="#A6D2FF" d="M46 21H30c-.545 0-1.228.388-1.51.866L19 38h27V21zm2 0h16c.552 0 1.228.387 1.51.866L75 38H48V21z" class="color-200"/><path fill="#005CB9" d="M24 62h1v10h-1V62zm2 0h3v10h-3V62zm4 0h1v10h-1V62zm3 0h2v10h-2V62zm3 0h1v10h-1V62zm2 0h1v10h-1V62zm2 0h2v10h-2V62zm4 0h2v10h-2V62z" class="color-500"/></g></g></svg>