<svg xmlns="http://www.w3.org/2000/svg" width="92" height="92" class="wd-applet wd-applet-invoices" focusable="false" role="presentation" viewBox="0 0 92 92"><g fill="none" fill-rule="evenodd" class="wd-icon-container"><g fill="#0B77E3" fill-opacity=".2" class="animate-flood"><path d="M46 82c19.882 0 36-16.118 36-36S65.882 10 46 10 10 26.118 10 46s16.118 36 36 36z" class="color-400-alpha-20"/></g><g class="animate-sink"><path fill="#40A0FF" d="M32 11l1.29 1.29a1 1 0 0 0 1.42 0L36 11l1.29 1.29a1 1 0 0 0 1.42 0L40 11l1.29 1.29a1 1 0 0 0 1.42 0L44 11l1.29 1.29a1 1 0 0 0 1.42 0L48 11l1.29 1.29a1 1 0 0 0 1.42 0L52 11l1.29 1.29a1 1 0 0 0 1.42 0L56 11l1.29 1.29a1 1 0 0 0 1.422 0L60 11l1.29 1.29a1 1 0 0 0 1.42 0L64 11l1.29 1.29a1 1 0 0 0 1.42 0L68 11l1.29 1.29a1 1 0 0 0 1.42 0L72 11v63l-1.29-1.29a1 1 0 0 0-1.421 0L67.999 74l-1.289-1.29a1 1 0 0 0-1.42 0L64 74l-1.29-1.29a1 1 0 0 0-1.42 0L60 74l-1.29-1.29a1 1 0 0 0-1.42 0L56 74l-1.29-1.29a1 1 0 0 0-1.42 0L52 74l-1.29-1.29a1 1 0 0 0-1.42 0L48 74l-1.29-1.29a1 1 0 0 0-1.42 0L44 74l-1.29-1.29a1 1 0 0 0-1.42 0L40 74l-1.303-1.3a.992.992 0 0 0-1.41.01L36 74l-1.29-1.29a1 1 0 0 0-1.42 0L32 74V11z" class="color-300"/><path fill="#005CB9" fill-rule="nonzero" d="M74 11v63c0 1.782-2.154 2.674-3.414 1.414L70 74.828l-.587.587a2 2 0 0 1-2.829-.001L66 74.829l-.586.585a2 2 0 0 1-2.828 0L62 74.828l-.586.586a2 2 0 0 1-2.828 0L58 74.828l-.586.586a2 2 0 0 1-2.828 0L54 74.828l-.586.586a2 2 0 0 1-2.828 0L50 74.828l-.586.586a2 2 0 0 1-2.828 0L46 74.828l-.586.586a2 2 0 0 1-2.828 0L42 74.828l-.586.586a2 2 0 0 1-2.827.002L38 74.828l-.583.585a2 2 0 0 1-2.83.001L34 74.828l-.586.586C32.154 76.674 30 75.782 30 74V11c0-1.782 2.154-2.674 3.414-1.414l.586.586.586-.586a2 2 0 0 1 2.828 0l.586.586.586-.586a2 2 0 0 1 2.828 0l.586.586.586-.586a2 2 0 0 1 2.828 0l.586.586.586-.586a2 2 0 0 1 2.828 0l.586.586.586-.586a2 2 0 0 1 2.828 0l.586.586.586-.586a2 2 0 0 1 2.827-.001l.588.587.584-.585a2 2 0 0 1 2.83-.001l.585.586.586-.586a2 2 0 0 1 2.828 0l.586.586.586-.586a2 2 0 0 1 2.828 0l.586.586.586-.586C71.846 8.326 74 9.218 74 11zm-2 0l-1.29 1.29a1 1 0 0 1-1.42 0L68 11l-1.29 1.29a1 1 0 0 1-1.42 0L64 11l-1.29 1.29a1 1 0 0 1-1.42 0L60 11l-1.288 1.29a1 1 0 0 1-1.421 0L56 11l-1.29 1.29a1 1 0 0 1-1.42 0L52 11l-1.29 1.29a1 1 0 0 1-1.42 0L48 11l-1.29 1.29a1 1 0 0 1-1.42 0L44 11l-1.29 1.29a1 1 0 0 1-1.42 0L40 11l-1.29 1.29a1 1 0 0 1-1.42 0L36 11l-1.29 1.29a1 1 0 0 1-1.42 0L32 11v63l1.29-1.29a1 1 0 0 1 1.42 0L36 74l1.287-1.29a.992.992 0 0 1 1.41-.01L40 74l1.29-1.29a1 1 0 0 1 1.42 0L44 74l1.29-1.29a1 1 0 0 1 1.42 0L48 74l1.29-1.29a1 1 0 0 1 1.42 0L52 74l1.29-1.29a1 1 0 0 1 1.42 0L56 74l1.29-1.29a1 1 0 0 1 1.42 0L60 74l1.29-1.29a1 1 0 0 1 1.42 0L64 74l1.29-1.29a1 1 0 0 1 1.42 0L68 74l1.29-1.29a1 1 0 0 1 1.422 0L72 74V11z" class="color-500"/><path fill="#000" fill-rule="nonzero" d="M67 54V16c0-1.782-2.154-2.674-3.414-1.414l-.586.586-.586-.586a2 2 0 0 0-2.828 0l-.586.586-.586-.586a2 2 0 0 0-2.828 0l-.586.586-.586-.586a2 2 0 0 0-2.83 0l-.583.586-.588-.587a2 2 0 0 0-2.827 0l-.586.587-.586-.586a2 2 0 0 0-2.828 0l-.586.586-.586-.586a2 2 0 0 0-2.828 0l-.586.586-.586-.586a2 2 0 0 0-2.828 0l-.586.586-.586-.586a2 2 0 0 0-2.828 0l-.586.586-.586-.586c-.78-.781-.78 58.61.002 57.827l.583-.585.588.588a2 2 0 0 0 2.827-.002l.586-.586V57.754A3.757 3.757 0 0 1 38.751 54H67z" class="color-shadow" opacity=".1"/></g><g class="animate-float"><path fill="#FFF" d="M2 3l1.29 1.29a1 1 0 0 0 1.42 0L6 3l1.29 1.29a1 1 0 0 0 1.42 0L10 3l1.29 1.29a1 1 0 0 0 1.42 0L14 3l1.29 1.29a1 1 0 0 0 1.42 0L18 3l1.29 1.29a1 1 0 0 0 1.42 0L22 3l1.29 1.29a1 1 0 0 0 1.42 0L26 3l1.29 1.29a1 1 0 0 0 1.422 0L30 3l1.29 1.29a1 1 0 0 0 1.42 0L34 3l1.29 1.29a1 1 0 0 0 1.42 0L38 3l1.29 1.29a1 1 0 0 0 1.42 0L42 3v63l-1.29-1.29a1 1 0 0 0-1.421 0L37.999 66l-1.289-1.29a1 1 0 0 0-1.42 0L34 66l-1.29-1.29a1 1 0 0 0-1.42 0L30 66l-1.29-1.29a1 1 0 0 0-1.42 0L26 66l-1.29-1.29a1 1 0 0 0-1.42 0L22 66l-1.29-1.29a1 1 0 0 0-1.42 0L18 66l-1.29-1.29a1 1 0 0 0-1.42 0L14 66l-1.29-1.29a1 1 0 0 0-1.42 0L10 66l-1.303-1.3a.992.992 0 0 0-1.41.01L6 66l-1.29-1.29a1 1 0 0 0-1.42 0L2 66V3z" class="color-100" transform="translate(18 15)"/><path fill="#005CB9" fill-rule="nonzero" d="M44 3v63c0 1.782-2.154 2.674-3.414 1.414L40 66.828l-.587.587a2 2 0 0 1-2.829-.001L36 66.829l-.586.585a2 2 0 0 1-2.828 0L32 66.828l-.586.586a2 2 0 0 1-2.828 0L28 66.828l-.586.586a2 2 0 0 1-2.828 0L24 66.828l-.586.586a2 2 0 0 1-2.828 0L20 66.828l-.586.586a2 2 0 0 1-2.828 0L16 66.828l-.586.586a2 2 0 0 1-2.828 0L12 66.828l-.586.586a2 2 0 0 1-2.827.002L8 66.828l-.583.585a2 2 0 0 1-2.83.001L4 66.828l-.586.586C2.154 68.674 0 67.782 0 66V3C0 1.218 2.154.326 3.414 1.586L4 2.172l.586-.586a2 2 0 0 1 2.828 0L8 2.172l.586-.586a2 2 0 0 1 2.828 0l.586.586.586-.586a2 2 0 0 1 2.828 0l.586.586.586-.586a2 2 0 0 1 2.828 0l.586.586.586-.586a2 2 0 0 1 2.828 0l.586.586.586-.586a2 2 0 0 1 2.827-.001l.588.587.584-.585a2 2 0 0 1 2.83-.001l.585.586.586-.586a2 2 0 0 1 2.828 0l.586.586.586-.586a2 2 0 0 1 2.828 0l.586.586.586-.586C41.846.326 44 1.218 44 3zm-2 0l-1.29 1.29a1 1 0 0 1-1.42 0L38 3l-1.29 1.29a1 1 0 0 1-1.42 0L34 3l-1.29 1.29a1 1 0 0 1-1.42 0L30 3l-1.288 1.29a1 1 0 0 1-1.421 0L26 3l-1.29 1.29a1 1 0 0 1-1.42 0L22 3l-1.29 1.29a1 1 0 0 1-1.42 0L18 3l-1.29 1.29a1 1 0 0 1-1.42 0L14 3l-1.29 1.29a1 1 0 0 1-1.42 0L10 3 8.71 4.29a1 1 0 0 1-1.42 0L6 3 4.71 4.29a1 1 0 0 1-1.42 0L2 3v63l1.29-1.29a1 1 0 0 1 1.42 0L6 66l1.287-1.29a.992.992 0 0 1 1.41-.01L10 66l1.29-1.29a1 1 0 0 1 1.42 0L14 66l1.29-1.29a1 1 0 0 1 1.42 0L18 66l1.29-1.29a1 1 0 0 1 1.42 0L22 66l1.29-1.29a1 1 0 0 1 1.42 0L26 66l1.29-1.29a1 1 0 0 1 1.42 0L30 66l1.29-1.29a1 1 0 0 1 1.42 0L34 66l1.29-1.29a1 1 0 0 1 1.42 0L38 66l1.29-1.29a1 1 0 0 1 1.422 0L42 66V3z" class="color-500" transform="translate(18 15)"/><path fill="#005CB9" d="M8.243 56.657l-1.417 1.416a1.003 1.003 0 0 0 .002 1.412.996.996 0 0 0 1.413.002l1.416-1.416 1.416 1.416a1.003 1.003 0 0 0 1.412-.002.996.996 0 0 0 .002-1.412l-1.416-1.416 1.416-1.416a1.003 1.003 0 0 0-.002-1.413.996.996 0 0 0-1.412-.002l-1.416 1.417-1.416-1.417a1.003 1.003 0 0 0-1.413.002.996.996 0 0 0-.002 1.413l1.417 1.416z" class="color-500" transform="translate(18 15)"/><rect width="21" height="3" x="16" y="55" fill="#0B77E3" class="color-400" rx="1" transform="translate(18 15)"/><path fill="#40A0FF" d="M7 26.999c0-.552.455-.999.992-.999h18.016c.548 0 .992.443.992.999v1.002c0 .552-.455.999-.992.999H7.992A.992.992 0 0 1 7 28.001v-1.002zm23 0A.994.994 0 0 1 31.003 26h4.994a.998.998 0 0 1 1.003.999v1.002a.994.994 0 0 1-1.003.999h-4.994A.998.998 0 0 1 30 28.001v-1.002zm-23 6c0-.552.455-.999.992-.999h18.016c.548 0 .992.443.992.999v1.002c0 .552-.455.999-.992.999H7.992A.992.992 0 0 1 7 34.001v-1.002zm23 0A.994.994 0 0 1 31.003 32h4.994a.998.998 0 0 1 1.003.999v1.002a.994.994 0 0 1-1.003.999h-4.994A.998.998 0 0 1 30 34.001v-1.002zm-23 6c0-.552.455-.999.992-.999h18.016c.548 0 .992.443.992.999v1.002c0 .552-.455.999-.992.999H7.992A.992.992 0 0 1 7 40.001v-1.002zm23 0A.994.994 0 0 1 31.003 38h4.994a.998.998 0 0 1 1.003.999v1.002a.994.994 0 0 1-1.003.999h-4.994A.998.998 0 0 1 30 40.001v-1.002zm-23 6c0-.552.455-.999.992-.999h18.016c.548 0 .992.443.992.999v1.002c0 .552-.455.999-.992.999H7.992A.992.992 0 0 1 7 46.001v-1.002zm23 0A.994.994 0 0 1 31.003 44h4.994a.998.998 0 0 1 1.003.999v1.002a.994.994 0 0 1-1.003.999h-4.994A.998.998 0 0 1 30 46.001v-1.002z" class="color-300" transform="translate(18 15)"/><path fill="#005CB9" d="M7 14a1 1 0 0 1 .998-1h28.004a1 1 0 1 1 0 2H7.998A.997.997 0 0 1 7 14zm5 5c0-.552.455-1 .992-1h18.016c.548 0 .992.444.992 1 0 .552-.455 1-.992 1H12.992A.993.993 0 0 1 12 19z" class="color-500" transform="translate(18 15)"/><path fill="#000" d="M42 60v6l-1.29-1.29a1 1 0 0 0-1.421 0L37.999 66l-1.289-1.29a1 1 0 0 0-1.42 0L34 66l-1.29-1.29a1 1 0 0 0-1.42 0L30 66l-1.29-1.29a1 1 0 0 0-1.42 0L26 66l-1.29-1.29a1 1 0 0 0-1.42 0L22 66l-1.29-1.29a1 1 0 0 0-1.42 0L18 66l-1-1V42.754A3.757 3.757 0 0 1 20.751 39H56v21H42z" class="color-shadow" opacity=".1" transform="translate(18 15)"/></g><g class="animate-grow"><rect width="44" height="22" x="2" y="2" fill="#FFF" class="color-100" rx="1.25" transform="translate(38 57)"/><rect width="18" height="14" x="6" y="6" fill="#A6D2FF" class="color-200" rx="1" transform="translate(38 57)"/><path fill="#40A0FF" d="M9 17c0-.552.456-1 1.002-1h9.996A.999.999 0 0 1 21 17v3c0 .552-.456 1-1.002 1h-9.996A.999.999 0 0 1 9 20v-3z" class="color-300" transform="translate(38 57)"/><path fill="#005CB9" fill-rule="nonzero" d="M2 3.25v19.5c0 .688.56 1.25 1.25 1.25h41.5c.686 0 1.25-.56 1.25-1.25V3.25C46 2.563 45.44 2 44.75 2H3.25C2.563 2 2 2.56 2 3.25zm-2 0A3.253 3.253 0 0 1 3.25 0h41.5A3.251 3.251 0 0 1 48 3.25v19.5A3.253 3.253 0 0 1 44.75 26H3.25A3.251 3.251 0 0 1 0 22.75V3.25zM28 10A.998.998 0 0 1 29 9h14c.552 0 1 .443 1 .999v1.002A.998.998 0 0 1 43 12H29c-.552 0-1-.443-1-.999V9.999zm0 5c0-.552.456-.999 1.002-.999h9.996a.998.998 0 0 1 1.002.999v1.002c0 .552-.456.999-1.002.999h-9.996A.998.998 0 0 1 28 16.001v-1.002z" class="color-500" transform="translate(38 57)"/><rect width="5" height="6" x="12.5" y="9" fill="#FFF" class="color-100" rx="2.5" transform="translate(38 57)"/><path fill="#005CB9" fill-rule="nonzero" d="M22.993 4A3.003 3.003 0 0 1 26 6.999V19C26 20.661 24.65 22 22.993 22H7.007A3.003 3.003 0 0 1 4 19.001V7C4 5.339 5.35 4 7.007 4h15.986zm0 2H7.007C6.45 6 6 6.447 6 6.999V19c0 .552.45.999 1.007.999H8v-1c0-1.975 1.516-3.786 3.447-3.973A2.926 2.926 0 0 1 11 13.5v-3C11 8.566 13.062 7 15 7c1.933 0 4 1.57 4 3.5v3c0 .547-.165 1.065-.445 1.527C20.511 15.197 22 16.886 22 19v1h.993c.557 0 1.007-.447 1.007-.999V7C24 6.447 23.55 6 22.993 6zM18 17.011H12c-.98 0-2 1.008-2 1.989v1h10v-1c0-.989-1.025-1.989-2-1.989zM15 9c-.834 0-2 .672-2 1.5v3.023c0 .826 1.172 1.488 2 1.488.834 0 2-.659 2-1.488V10.5c0-.826-1.172-1.5-2-1.5z" class="color-500" transform="translate(38 57)"/></g></g></svg>