<svg xmlns="http://www.w3.org/2000/svg" width="92" height="92" class="wd-applet wd-applet-jacks" focusable="false" role="presentation" viewBox="0 0 92 92"><g fill="none" fill-rule="evenodd" class="wd-icon-container"><g fill="#0B77E3" fill-opacity=".2" class="animate-flood"><circle cx="36" cy="36" r="36" class="color-400-alpha-20" transform="translate(10 10)"/></g><g class="animate-shrink"><path fill="#FFF" d="M71.854 51.285c-3.259-1.86-7.232-1.257-9.831 1.17l-11.308-6.459 11.304-6.453c2.598 2.427 6.576 3.027 9.835 1.17 3.962-2.265 5.325-7.289 3.033-11.213-2.29-3.928-7.37-5.27-11.335-3.007-3.256 1.86-4.715 5.566-3.888 9.005L48.36 41.954v-12.91c3.426-1.013 5.942-4.118 5.942-7.834 0-4.534-3.72-8.21-8.299-8.21-4.583 0-8.301 3.677-8.301 8.21 0 3.717 2.514 6.821 5.94 7.834v12.913l-11.306-6.46c.827-3.438-.632-7.143-3.888-9-3.963-2.269-9.038-.926-11.332 3.002-2.29 3.925-.935 8.944 3.038 11.214 3.252 1.859 7.224 1.256 9.823-1.175l11.304 6.457-11.306 6.46c-2.597-2.428-6.569-3.032-9.827-1.171-3.968 2.265-5.325 7.287-3.036 11.213 2.298 3.925 7.374 5.27 11.336 3.002 3.257-1.856 4.715-5.561 3.888-9.006l11.304-6.451v12.917c-3.426 1.013-5.94 4.114-5.94 7.831 0 4.537 3.72 8.21 8.301 8.21 4.58 0 8.299-3.673 8.299-8.21 0-3.717-2.516-6.818-5.942-7.831V50.042L59.661 56.5a8.16 8.16 0 0 0 3.889 9.005c3.966 2.264 9.044.921 11.335-3.003 2.293-3.931.934-8.953-3.03-11.218" class="color-100"/><path fill="#005CB9" fill-rule="nonzero" d="M71.359 52.153c-2.809-1.602-6.315-1.152-8.654 1.033l-.538.503-13.469-7.693 13.465-7.687.539.503c2.336 2.183 5.847 2.633 8.656 1.033 3.482-1.99 4.675-6.4 2.665-9.841-2.012-3.451-6.483-4.636-9.975-2.643a7.15 7.15 0 0 0-3.412 7.903l.176.73-13.452 7.682v-15.38l.717-.211c3.081-.91 5.225-3.683 5.225-6.875 0-3.978-3.268-7.21-7.299-7.21-4.033 0-7.301 3.232-7.301 7.21 0 3.193 2.142 5.964 5.224 6.875l.716.212V43.68l-13.454-7.687.176-.73a7.142 7.142 0 0 0-3.413-7.898c-3.488-1.997-7.955-.814-9.971 2.638-2.01 3.446-.82 7.848 2.67 9.841 2.802 1.602 6.305 1.151 8.644-1.036l.539-.504 13.464 7.691-13.466 7.693-.538-.503c-2.339-2.185-5.842-2.636-8.65-1.033-3.484 1.99-4.676 6.395-2.668 9.84 2.02 3.452 6.49 4.636 9.978 2.638a7.143 7.143 0 0 0 3.41-7.904l-.174-.73L44.64 48.32v15.387l-.716.212c-3.083.91-5.223 3.68-5.223 6.872 0 3.98 3.267 7.21 7.3 7.21 4.033 0 7.299-3.23 7.299-7.21 0-3.191-2.142-5.96-5.226-6.872l-.716-.212V48.318l13.45 7.687-.175.73a7.158 7.158 0 0 0 3.412 7.902c3.493 1.994 7.964.81 9.976-2.638 2.012-3.45.821-7.856-2.663-9.846l.496-.868-.495.868zm.99-1.737l-.495.869.496-.869c4.448 2.541 5.972 8.18 3.399 12.591-2.568 4.398-8.252 5.903-12.696 3.366a9.156 9.156 0 0 1-4.511-9.36l-9.184-5.248v10.478c3.533 1.358 5.942 4.71 5.942 8.547C55.3 75.88 51.133 80 46 80c-5.133 0-9.3-4.12-9.3-9.21 0-3.838 2.407-7.19 5.94-8.547v-10.48l-9.185 5.242a9.136 9.136 0 0 1-4.511 9.361c-4.437 2.542-10.12 1.036-12.697-3.365-2.57-4.409-1.044-10.046 3.404-12.586 3.356-1.916 7.488-1.53 10.44.82l9.173-5.24-9.17-5.238c-2.953 2.352-7.085 2.74-10.437.824-4.453-2.543-5.977-8.178-3.406-12.586 2.571-4.403 8.254-5.907 12.69-3.366a9.137 9.137 0 0 1 4.514 9.356l9.186 5.249V29.76c-3.532-1.358-5.94-4.712-5.94-8.55 0-5.087 4.168-9.21 9.301-9.21 5.13 0 9.299 4.123 9.299 9.21 0 3.838-2.41 7.192-5.942 8.55V40.23l9.184-5.245a9.147 9.147 0 0 1 4.512-9.362c4.443-2.536 10.128-1.03 12.695 3.372 2.572 4.404 1.044 10.044-3.402 12.586-3.358 1.913-7.496 1.527-10.447-.82l-9.17 5.234 9.174 5.24c2.953-2.349 7.086-2.735 10.444-.82z" class="color-500"/></g></g></svg>