<svg xmlns="http://www.w3.org/2000/svg" width="92" height="92" class="wd-applet wd-applet-job-req-workspace" focusable="false" role="presentation" viewBox="0 0 92 92"><g fill="none" fill-rule="evenodd" class="wd-icon-container"><circle cx="46" cy="48" r="36" fill="#0B77E3" fill-opacity=".2" class="color-400-alpha-20"/><g class="animate-sink-less"><path fill="#40A0FF" d="M18 78h50a4 4 0 0 0 4-4V30.167c0-.553-.452-1-.993-1H40.99c-.549 0-1.268-.348-1.611-.782l-6.014-7.603C33.024 20.35 32.302 20 31.74 20H15.008C14.45 20 14 20.443 14 21.002v52.996A4 4 0 0 0 18 78z" class="color-300"/><path fill="#005CB9" fill-rule="nonzero" d="M18 78h50a4 4 0 0 0 4-4V30.167c0-.553-.452-1-.993-1H40.99c-.549 0-1.268-.348-1.611-.782l-6.014-7.603C33.024 20.35 32.302 20 31.74 20H15.008C14.45 20 14 20.443 14 21.002v52.996A4 4 0 0 0 18 78zm-6-56.998A3.001 3.001 0 0 1 15.008 18h16.731c1.171 0 2.472.627 3.195 1.54l6.013 7.604c-.036-.046 30.06.023 30.06.023a3.001 3.001 0 0 1 2.993 3V74a6 6 0 0 1-6 6H18a6 6 0 0 1-6-6V21.002z" class="color-500"/></g><g class="animate-float-rotate-right"><path fill="#FFF" d="M73 13v56H33V13z" class="color-200"/><path fill="#005CB9" fill-rule="nonzero" d="M71.7 13.034H34.3c-.6 0-1.1.456-1.1 1.018v53.896c0 .568.493 1.018 1.1 1.018h37.4c.6 0 1.1-.456 1.1-1.018V14.052c0-.568-.493-1.018-1.1-1.018zm0-2.034c1.823 0 3.3 1.362 3.3 3.052v53.896C75 69.633 73.515 71 71.7 71H34.3c-1.823 0-3.3-1.362-3.3-3.052V14.052C31 12.367 32.485 11 34.3 11h37.4z" class="color-500"/><g fill="#40A0FF" class="color-300"><rect width="3" height="25" rx="1" transform="rotate(90 20 50)"/><rect width="3" height="6" y="28" rx="1" transform="rotate(90 20 50)"/><rect width="3" height="25" x="7" rx="1" transform="rotate(90 20 50)"/><rect width="3" height="6" x="7" y="28" rx="1" transform="rotate(90 20 50)"/><rect width="3" height="25" x="14" rx="1" transform="rotate(90 20 50)"/><rect width="3" height="6" x="14" y="28" rx="1" transform="rotate(90 20 50)"/><rect width="3" height="25" x="21" rx="1" transform="rotate(90 20 50)"/><rect width="3" height="6" x="21" y="28" rx="1" transform="rotate(90 20 50)"/><rect width="3" height="25" x="28" rx="1" transform="rotate(90 20 50)"/><rect width="3" height="6" x="28" y="28" rx="1" transform="rotate(90 20 50)"/></g><g fill="#005CB9" class="color-500"><rect width="2" height="26" rx="1" transform="rotate(90 23.5 42.5)"/><rect width="2" height="18" x="4" y="4" rx="1" transform="rotate(90 23.5 42.5)"/></g></g><g class="animate-float-rotate-left"><path fill="#000" d="M0 0h55v26H0z" class="color-shadow" opacity=".1" transform="rotate(90 22 37)"/><path fill="#FFF" d="M2 5h57v36H2z" class="color-100" transform="rotate(90 22 37)"/><path fill="#005CB9" fill-rule="nonzero" d="M2 6v34c0 .545.448 1 1.001 1H58A.997.997 0 0 0 59 40V6c0-.545-.448-1-1.001-1H3A.997.997 0 0 0 2 6zM0 6c0-1.657 1.338-3 3.001-3H58A3.006 3.006 0 0 1 61 6v34c0 1.657-1.338 3-3.001 3H3A3.006 3.006 0 0 1 0 40V6z" class="color-500" transform="rotate(90 22 37)"/><g fill="#40A0FF" class="color-300"><path d="M25 8.998c0-.551.443-.998.999-.998h1.002c.552 0 .999.447.999.998v28.004a.996.996 0 0 1-.999.998h-1.002a.999.999 0 0 1-.999-.998V8.998zM31 20.993c0-.548.443-.993.999-.993h1.002c.552 0 .999.445.999.993v16.014a.993.993 0 0 1-.999.993h-1.002a.996.996 0 0 1-.999-.993V20.993zM31 8.995c0-.55.443-.995.999-.995h1.002c.552 0 .999.456.999.995v8.01c0 .55-.443.995-.999.995h-1.002c-.552 0-.999-.456-.999-.995v-8.01zM37 17c0-.552.443-1 .999-1h1.002c.552 0 .999.455.999 1v15c0 .552-.443 1-.999 1h-1.002c-.552 0-.999-.455-.999-1V17zM37 35.999c0-.552.443-.999.999-.999h1.002c.552 0 .999.443.999.999v1.002a.996.996 0 0 1-.999.999h-1.002a.996.996 0 0 1-.999-.999v-1.002zM45 15c0-.552.443-1 .999-1h1.002A1 1 0 0 1 48 15v22c0 .552-.443 1-.999 1h-1.002A1 1 0 0 1 45 37V15zM45 9.01c0-.558.443-1.01.999-1.01h1.002c.552 0 .999.443.999 1.01v1.98c0 .558-.443 1.01-.999 1.01h-1.002A.999.999 0 0 1 45 10.99V9.01zM51 20.993c0-.548.443-.993.999-.993h1.002c.552 0 .999.445.999.993v16.014a.993.993 0 0 1-.999.993h-1.002a.996.996 0 0 1-.999-.993V20.993z" transform="rotate(90 22 37)"/></g><rect width="16" height="14" x="6" y="15" fill="#A6D2FF" class="color-200" rx="1" transform="rotate(90 22 37)"/><rect width="4" height="6" x="11.5" y="19" fill="#FFF" class="color-100" rx="2" transform="rotate(90 22 37)"/><path fill="#40A0FF" d="M17.75 23.25v-2.5a2 2 0 0 1 2-2h.5v6.5h-.5a2 2 0 0 1-2-2z" class="color-300" transform="rotate(90 22 37)"/><g fill="#005CB9" fill-rule="nonzero" class="color-500"><path d="M6 28V16a3 3 0 0 1 3-3h10a3 3 0 0 1 3 3v12a3 3 0 0 1-3 3H9a3 3 0 0 1-3-3zm2 0a1 1 0 0 0 1 1h10a1 1 0 0 0 1-1V16a1 1 0 0 0-1-1H9a1 1 0 0 0-1 1v12z" transform="rotate(90 22 37)"/><path d="M9 22a3.5 3.5 0 0 1 3.5-3.5h2a3.5 3.5 0 0 1 0 7h-2A3.5 3.5 0 0 1 9 22zm2 0a1.5 1.5 0 0 0 1.5 1.5h2a1.5 1.5 0 0 0 0-3h-2A1.5 1.5 0 0 0 11 22z" transform="rotate(90 22 37)"/><path d="M16 23v-2a4 4 0 0 1 4-4h2v10h-2a4 4 0 0 1-4-4zm2 0a2 2 0 0 0 2 2v-6a2 2 0 0 0-2 2v2z" transform="rotate(90 22 37)"/></g></g><g class="animate-sink-less"><path fill="#000" d="M76 40.007A2.991 2.991 0 0 0 73.009 37H22.991A2.996 2.996 0 0 0 20 39.997V74a4.002 4.002 0 0 1-3 3.874c.32.082.655.126 1 .126h54a4 4 0 0 0 4-3.993A6.006 6.006 0 0 1 70 80H16v-2c.345 0 .68-.044 1-.126z" class="color-shadow" opacity=".1"/><path fill="#A6D2FF" d="M73.999 78A3.996 3.996 0 0 0 78 74.005V41.004c0-.553-.45-1.004-.996-1.004H24.996c-.545 0-.996.452-.996 1.007V74a5.978 5.978 0 0 1-1.528 4H74z" class="color-200"/><path fill="#005CB9" fill-rule="nonzero" d="M73.999 78A3.996 3.996 0 0 0 78 74.005V41.004c0-.553-.45-1.004-.996-1.004H24.996c-.545 0-.996.452-.996 1.007V74a5.978 5.978 0 0 1-1.528 4H74zM22 41.007A3.006 3.006 0 0 1 24.996 38h52.008A3.003 3.003 0 0 1 80 41.004v33A5.996 5.996 0 0 1 73.999 80H18v-2a4 4 0 0 0 4-4V41.007z" class="color-500"/></g></g></svg>