<svg xmlns="http://www.w3.org/2000/svg" width="92" height="92" fill="none" class="wd-applet-journey wd-applet" focusable="false" role="presentation" viewBox="0 0 92 92"><g class="wd-icon-container"><g class="animate-flood"><path fill="#0B77E3" fill-opacity=".2" fill-rule="evenodd" d="M46 82c19.882 0 36-16.118 36-36S65.882 10 46 10 10 26.118 10 46s16.118 36 36 36z" class="color-400-alpha-20" clip-rule="evenodd"/></g><g class="animate-shrink"><path fill="#fff" d="M20 11a1 1 0 0 1 1-1h38a1 1 0 0 1 1 1v62a1 1 0 0 1-1 1H21a1 1 0 0 1-1-1V11z" class="color-100"/><path fill="#40A0FF" d="M32 74v7a1 1 0 0 0 1 1h38a1 1 0 0 0 1-1V19a1 1 0 0 0-1-1H60v55a1 1 0 0 1-1 1H32z" class="color-300"/><path fill="#0875E1" d="M58 73H34v7l24-7z" class="color-400"/><path fill="#005CB9" fill-rule="evenodd" d="M21 10a1 1 0 0 0-1 1v62a1 1 0 0 0 1 1h11v7a1 1 0 0 0 1 1h38a1 1 0 0 0 1-1V19a1 1 0 0 0-1-1H60v-7a1 1 0 0 0-1-1H21zm1 2v60h36V12H22zm38 8v52.976a2 2 0 0 1-1.44 1.944L41.143 80H70V20H60zM34 74v6l20.571-6H34z" class="color-500" clip-rule="evenodd"/></g><g class="animate-shrink"><ellipse cx="40" cy="53" fill="#A6D2FF" class="color-200" rx="8" ry="4"/></g><g class="animate-float"><path fill="#fff" fill-rule="evenodd" d="M40 52c2.25 0 12-15.024 12-21.775C52 23.473 46.627 18 40 18s-12 5.473-12 12.225C28 36.976 37.75 52 40 52z" class="color-100" clip-rule="evenodd"/><path fill="#40A0FF" fill-rule="evenodd" d="M40 52c2.25 0 12-15.024 12-21.775C52 23.473 46.627 18 40 18s-12 5.473-12 12.225C28 36.976 37.75 52 40 52zm0-16.427c2.9 0 5.25-2.395 5.25-5.348 0-2.954-2.35-5.349-5.25-5.349s-5.25 2.395-5.25 5.349c0 2.953 2.35 5.348 5.25 5.348z" class="color-300" clip-rule="evenodd"/><g fill="#005CB9" class="color-500"><path fill-rule="evenodd" d="M48.625 35.717c.923-2.294 1.412-4.204 1.412-5.492C50.037 24.578 45.543 20 40 20c-5.543 0-10.037 4.578-10.037 10.225 0 1.287.489 3.198 1.412 5.492.902 2.241 2.142 4.66 3.463 6.895 1.323 2.239 2.697 4.241 3.85 5.66.519.638.963 1.12 1.312 1.446.35-.326.793-.808 1.312-1.446 1.153-1.419 2.527-3.421 3.85-5.66 1.321-2.235 2.56-4.654 3.463-6.895zm-9.082 14.37c-.022.01-.022.012 0 0zm.913-.001c.022.013.022.01 0 0zm6.757-19.861c0 4.058-3.23 7.348-7.213 7.348-3.984 0-7.213-3.29-7.213-7.348 0-4.059 3.23-7.349 7.213-7.349 3.984 0 7.213 3.29 7.213 7.349zm4.787 0C52 36.976 42.25 52 40 52S28 36.976 28 30.225C28 23.473 33.373 18 40 18s12 5.473 12 12.225zm-6.75 0c0 2.953-2.35 5.348-5.25 5.348s-5.25-2.395-5.25-5.348c0-2.954 2.35-5.349 5.25-5.349s5.25 2.395 5.25 5.349z" clip-rule="evenodd"/><path fill-rule="evenodd" d="M37.18 41.636a.97.97 0 0 1 1.369.232l1.875 2.674c.315.45.213 1.074-.228 1.395a.97.97 0 0 1-1.37-.232l-1.875-2.674a1.012 1.012 0 0 1 .228-1.395z" clip-rule="evenodd"/><path d="M37 40.157a.757.757 0 0 1-.75.764.757.757 0 0 1-.75-.764c0-.422.336-.764.75-.764s.75.342.75.764z"/></g></g></g></svg>