<svg xmlns="http://www.w3.org/2000/svg" width="92" height="92" class="wd-applet wd-applet-journal-insights" focusable="false" role="presentation" viewBox="0 0 92 92"><g fill="none" fill-rule="evenodd" class="wd-icon-container"><g fill="#0B77E3" fill-opacity=".2" class="animate-flood"><path d="M46 82c19.882 0 36-16.118 36-36S65.882 10 46 10 10 26.118 10 46s16.118 36 36 36z" class="color-400-alpha-20"/></g><g class="animate-sink"><path fill="#005CB9" fill-rule="nonzero" d="M19 0a2 2 0 0 1 2 2v13a2 2 0 0 1-2 2H2a2 2 0 0 1-2-2V8.5C0 3.81 3.808 0 8.5 0H19zm0 2H8.5C4.91 2 2 4.917 2 8.5V15h17V2z" class="color-500" transform="translate(18 9)"/><path fill="#005CB9" fill-rule="nonzero" d="M48.003 68A2.996 2.996 0 0 0 51 64.995V3.005A3 3 0 0 0 48.003 0H7.997A2.996 2.996 0 0 0 5 3.005v61.99A3 3 0 0 0 7.997 68h40.006zm0-2H7.997A1 1 0 0 1 7 64.995V3.005A.996.996 0 0 1 7.997 2h40.006A1 1 0 0 1 49 3.005v61.99A.996.996 0 0 1 48.003 66z" class="color-500" transform="translate(18 9)"/><rect width="42" height="64" x="7" y="2" fill="#40A0FF" class="color-300" rx="1" transform="translate(18 9)"/></g><g class="animate-sink-less"><path fill="#005CB9" fill-rule="nonzero" d="M48.997 0A3 3 0 0 1 52 3.005v61.99A3.001 3.001 0 0 1 48.997 68H3.003A3 3 0 0 1 0 64.995V3.005A3.001 3.001 0 0 1 3.003 0h45.994zm0 2H3.003C2.445 2 2 2.45 2 3.005v61.99A1 1 0 0 0 3.003 66h45.994c.558 0 1.003-.45 1.003-1.005V3.005A1 1 0 0 0 48.997 2z" class="color-500" transform="translate(20 12)"/><rect width="48" height="64" x="2" y="2" fill="#A6D2FF" class="color-200" rx="1" transform="translate(20 12)"/></g><g class="animate-float"><path fill="#005CB9" fill-rule="nonzero" d="M53.008 2A2.994 2.994 0 0 1 56 5.005v61.99A3.002 3.002 0 0 1 53.008 70H2.992A2.994 2.994 0 0 1 0 66.995V5.005A3.002 3.002 0 0 1 2.992 2h50.016zm0 2H2.992C2.45 4 2 4.45 2 5.005v61.99A.994.994 0 0 0 2.992 68h50.016c.542 0 .992-.45.992-1.005V5.005A.994.994 0 0 0 53.008 4z" class="color-500" transform="translate(18 13)"/><rect width="52" height="64" x="2" y="4" fill="#FFF" class="color-100" rx="1" transform="translate(18 13)"/><path fill="#005CB9" fill-rule="nonzero" d="M6 2a2 2 0 0 1 2 2v64a2 2 0 0 1-2 2H3.01A3.003 3.003 0 0 1 0 66.995V5.005A3.002 3.002 0 0 1 3.01 2H6zm0 2H3.01C2.442 4 2 4.45 2 5.005v61.99C2 67.557 2.452 68 3.01 68H6V4z" class="color-500" transform="translate(18 13)"/><path fill="#0B77E3" d="M2 5.005C2 4.45 2.443 4 3.01 4H6v64H3.01C2.451 68 2 67.557 2 66.995V5.005z" class="color-400" transform="translate(18 13)"/><path fill="#005CB9" fill-rule="nonzero" d="M22 0a2 2 0 0 1 2 2v15a2.5 2.5 0 0 1-4 2l-2-1.5-2 1.5a2.5 2.5 0 0 1-4-2V2a2 2 0 0 1 2-2h8z" class="color-500" transform="translate(18 13)"/><path fill="#A6D2FF" d="M14 2h8v15a.5.5 0 0 1-.8.4l-2.9-2.175a.5.5 0 0 0-.6 0L14.8 17.4a.5.5 0 0 1-.8-.4V2z" class="color-200" transform="translate(18 13)"/><path fill="#005CB9" fill-rule="nonzero" d="M47.735 42.043a6.705 6.705 0 0 0 2.228-4.474 6.878 6.878 0 0 0-.985-4.317c-1.345-2.229-3.346-3.15-6.099-2.662v-1.024a6.31 6.31 0 0 0-2.62-4.53 5.44 5.44 0 0 0-4.573-.858 6.02 6.02 0 0 0-4.238 5.656 62.557 62.557 0 0 0 0 4.017v6.301c0 4.309 0 8.751.039 13.13a8.536 8.536 0 0 0 .782 3.593 5.381 5.381 0 0 0 4.378 3.103c.136.008.272.008.407 0a5.627 5.627 0 0 0 4.559-2.473 7.015 7.015 0 0 0 1.25-4.096c3.074.386 5.177-.677 6.405-3.245 1.352-2.804.766-5.798-1.549-8.121h.016zm.149 7.443c-1.04 2.174-2.737 2.836-5.654 2.222a.778.778 0 0 0-.68.18.79.79 0 0 0-.258.662 5.831 5.831 0 0 1-.915 4.05 4.018 4.018 0 0 1-3.565 1.803 3.802 3.802 0 0 1-3.128-2.237 6.967 6.967 0 0 1-.626-2.907c0-1.93 0-3.875-.039-5.813h2.346v5.719a.79.79 0 0 0 .227.551l1.102 1.119a1.833 1.833 0 0 0 0 .291c0 .796.641 1.442 1.431 1.442s1.431-.646 1.431-1.442c0-.796-.64-1.441-1.43-1.441a1.809 1.809 0 0 0-.298 0l-.891-.851v-6.175a.785.785 0 0 0-.782-.788h-3.128v-4.939h6.334V44.8c.005.21.09.409.234.559a.779.779 0 0 0 .548.228h1.337v3.19c-.001.339.213.64.531.749l1.478.496a1.43 1.43 0 0 0 1.63 1.05 1.44 1.44 0 0 0 1.179-1.544 1.435 1.435 0 0 0-1.425-1.318c-.322 0-.634.111-.883.315l-.954-.315v-2.63h.961a.785.785 0 0 0 .782-.788v-3.978c.536-.35.779-1.011.598-1.627a1.44 1.44 0 0 0-1.38-1.039c-.637 0-1.199.423-1.38 1.039-.18.616.063 1.278.599 1.627v3.198h-2.307v-3.875a.779.779 0 0 0-.782-.788h-7.115v-2.954h6.826a.824.824 0 0 0 .39-.102l1.369-.788c.2.1.418.154.641.157a1.444 1.444 0 0 0 1.451-1.411 1.445 1.445 0 0 0-1.376-1.486 1.443 1.443 0 0 0-1.498 1.361l-1.22.686h-2.228v-2.095c.41-.267.659-.722.664-1.213a1.437 1.437 0 1 0-2.773-.546 1.455 1.455 0 0 0 .553 1.759v2.095h-2.8v-.97-3.937a4.439 4.439 0 0 1 3.09-4.207c.309-.078.626-.118.945-.118a3.93 3.93 0 0 1 2.276.748 4.733 4.733 0 0 1 1.954 3.403c.02.396.02.793 0 1.19v.638a.79.79 0 0 0 .293.64c.193.155.446.21.685.147 2.588-.661 4.246-.126 5.372 1.749.622.994.897 2.17.781 3.34a5.197 5.197 0 0 1-2.345 3.938.79.79 0 0 0-.047 1.253c2.338 1.937 3.01 4.442 1.853 6.86h.016zM30.533 35.3V33.86c0-1.316 0-2.678-.04-4.025a6.027 6.027 0 0 0-4.245-5.656 5.441 5.441 0 0 0-4.496.867 6.31 6.31 0 0 0-2.612 4.537c-.019.338-.019.677 0 1.016-2.775-.41-4.777.44-6.13 2.67a6.862 6.862 0 0 0-.97 4.324 6.713 6.713 0 0 0 2.237 4.466c-2.346 2.364-2.9 5.325-1.564 8.137 1.236 2.568 3.339 3.631 6.412 3.238a6.975 6.975 0 0 0 1.25 4.088 5.603 5.603 0 0 0 4.552 2.473c.138.008.276.008.414 0a5.398 5.398 0 0 0 4.379-3.15 8.536 8.536 0 0 0 .782-3.593 728 728 0 0 0 0-13.705l.03-4.246z" class="color-500" transform="translate(18 13)"/><path fill="#A6D2FF" fill-rule="nonzero" d="M28.97 53.26a6.92 6.92 0 0 1-.634 2.922 3.794 3.794 0 0 1-3.128 2.245 4.025 4.025 0 0 1-3.565-1.804 5.815 5.815 0 0 1-.93-4.049.79.79 0 0 0-.783-.85h-.156c-2.925.614-4.621-.048-5.661-2.214-1.103-2.418-.47-4.931 1.869-6.884a.79.79 0 0 0-.055-1.253 5.197 5.197 0 0 1-2.346-3.938 5.324 5.324 0 0 1 .782-3.348c1.126-1.867 2.784-2.41 5.372-1.749.237.06.488.004.679-.151a.79.79 0 0 0 .29-.636v-.646a9.792 9.792 0 0 1 0-1.182 4.733 4.733 0 0 1 1.947-3.41 3.887 3.887 0 0 1 3.222-.63 4.431 4.431 0 0 1 3.065 4.182c.047 1.316.047 2.662.039 3.939v5.718c.016 4.537.023 9.177-.024 13.737h.016z" class="color-200" transform="translate(18 13)"/></g></g></svg>