<svg xmlns="http://www.w3.org/2000/svg" width="92" height="92" fill="none" class="wd-applet-learning-trainer wd-applet" focusable="false" role="presentation" viewBox="0 0 92 92"><g class="wd-icon-container"><g class="animate-flood"><path fill="#0B77E3" fill-opacity=".2" fill-rule="evenodd" d="M46 82c19.882 0 36-16.118 36-36S65.882 10 46 10 10 26.118 10 46s16.118 36 36 36z" class="color-400-alpha-20" clip-rule="evenodd"/></g><g class="animate-shrink"><path fill="#005CB9" fill-rule="evenodd" d="M18 24a2 2 0 0 0 2 2h17a2 2 0 0 0 2-2V11a2 2 0 0 0-2-2H26.5c-4.692 0-8.5 3.81-8.5 8.5V24zm6 0h-4v-6.5a6.508 6.508 0 0 1 4-6V24zm0-12.5c.77-.322 1.614-.5 2.5-.5H24v.5z" class="color-500" clip-rule="evenodd"/><rect width="42" height="64" fill="#40A0FF" class="color-300" rx="1" transform="matrix(1 0 0 -1 25 75)"/><path fill="#005CB9" fill-rule="evenodd" d="M23 73.995A3 3 0 0 0 25.997 77h40.006A2.996 2.996 0 0 0 69 73.995V14a1 1 0 0 1 1 1.005v61.99C70 77.55 69.555 78 68.998 78H23.002A1 1 0 0 1 22 76.995v-61.99c0-.554.443-1.004 1-1.005v59.995zM23 12a3.001 3.001 0 0 0-3 3.005v61.99A3 3 0 0 0 23.003 80h45.995A3.001 3.001 0 0 0 72 76.995v-61.99A3 3 0 0 0 69 12a2.999 2.999 0 0 0-2.997-3H25.997A2.996 2.996 0 0 0 23 12zm2 2v59.995A1 1 0 0 0 25.997 75h40.006c.55 0 .997-.443.997-1.005V14H25zm42-2H25c.003-.56.448-1 .997-1h40.006c.552 0 .994.447.997 1z" class="color-500" clip-rule="evenodd"/><rect width="48" height="64" x="22" y="14" fill="#A6D2FF" class="color-200" rx="1"/><rect width="47" height="64" x="25" y="17" fill="#fff" class="color-100" rx="1"/><path fill="#005CB9" fill-rule="evenodd" d="M21.01 15A3.002 3.002 0 0 0 18 18.005v61.99A3.003 3.003 0 0 0 21.01 83H24a2 2 0 0 0 2-2V17a2 2 0 0 0-2-2h-2.99zM20 79.995v-61.99c0-.555.443-1.005 1.01-1.005H24v64h-2.99c-.558 0-1.01-.443-1.01-1.005z" class="color-500" clip-rule="evenodd"/><path fill="#40A0FF" fill-rule="evenodd" d="M74 23h3a1 1 0 0 1 1 1v8a1 1 0 0 1-1 1h-3V23zm0 16h3a1 1 0 0 1 1 1v8a1 1 0 0 1-1 1h-3V39zm3 16h-3v10h3a1 1 0 0 0 1-1v-8a1 1 0 0 0-1-1z" class="color-300" clip-rule="evenodd"/><path fill="#005CB9" fill-rule="evenodd" d="M18 18.005A3.002 3.002 0 0 1 20.992 15h50.016A2.994 2.994 0 0 1 74 18.005V21h2.99c1.656 0 3.01 1.345 3.01 2.995v8.01A2.997 2.997 0 0 1 76.99 35H74v2h2.99c1.656 0 3.01 1.344 3.01 2.995v8.01A2.997 2.997 0 0 1 76.99 51H74v2h2.99c1.656 0 3.01 1.344 3.01 2.995v8.01A2.997 2.997 0 0 1 76.99 67H74v12.995A3.002 3.002 0 0 1 71.008 83H20.992A2.994 2.994 0 0 1 18 79.995v-61.99zM72 65V18.005A.994.994 0 0 0 71.008 17H20.992c-.543 0-.992.45-.992 1.005v61.99A.994.994 0 0 0 20.992 81h50.016c.543 0 .992-.45.992-1.005V65zm2 0h2.99a.997.997 0 0 0 1.01-.995v-8.01c0-.54-.452-.995-1.01-.995H74v10zm0-16h2.99a.997.997 0 0 0 1.01-.995v-8.01c0-.54-.452-.995-1.01-.995H74v10zm0-16h2.99a.997.997 0 0 0 1.01-.995v-8.01c0-.54-.452-.995-1.01-.995H74v10z" class="color-500" clip-rule="evenodd"/><path fill="#0B77E3" d="M20 18a1 1 0 0 1 1-1h3v64h-3a1 1 0 0 1-1-1V18z" class="color-400"/><path fill="#40A0FF" fill-rule="evenodd" d="M48.143 30.92s-9.813 3.819-10.89 13.856c-1.078 10.038 5.44 16.113 5.44 16.113s10.85-5.962 11.383-14.789c.534-8.826-5.933-15.18-5.933-15.18z" class="color-300" clip-rule="evenodd"/><path fill="#fff" d="M59.753 31.965c-7.26 2.098-21.78 10.649-16.94 28.557 7.421-1.129 20.328-8.228 16.94-28.556z" class="color-100"/><path fill="#005CB9" fill-rule="evenodd" d="M48.143 30.92s-9.813 3.819-10.89 13.856c-.878 8.18 3.288 13.729 4.86 15.502l-1.844 3.137a.686.686 0 0 0 1.183.695l1.817-3.092c5.95-1 11.28-4.375 14.392-9.764 3.203-5.548 4.662-14.547 2.346-20.325-2.935.421-6.024 1.979-8.8 4.095-1.518-2.585-3.064-4.104-3.064-4.104zm-3.941 28.512c5.206-1.19 9.616-4.32 12.24-8.865 2.98-5.161 4.143-12.92 2.633-18.063-5.107 1.262-11.06 6.166-14.105 11.44-2.52 4.365-3.086 9.503-1.734 14.424l5.042-8.578-1.759-4.466a.686.686 0 1 1 1.276-.503l1.366 3.467 4.853-8.257a.686.686 0 0 1 1.183.695l-2.8 4.761 2.443.17a.686.686 0 1 1-.095 1.368l-3.124-.217-3.01 5.12 3.093-.043a.686.686 0 0 1 .017 1.371l-3.922.056-3.597 6.12zm5.972-23.584c-1.188-1.997-2.303-3.194-2.303-3.194s-8.224 3.203-9.182 12.27c-.612 5.798 1.396 10.1 2.924 12.447-.938-4.54-.392-9.296 1.867-13.533l-.89-2.75a.686.686 0 0 1 1.259-.544l.559 1.726c.323-.497.673-.995 1.047-1.489l.684-3.49a.686.686 0 1 1 1.353.22l-.214 1.094a31.003 31.003 0 0 1 2.896-2.757z" class="color-500" clip-rule="evenodd"/></g></g></svg>