<svg xmlns="http://www.w3.org/2000/svg" width="92" height="92" class="wd-applet wd-applet-learning-admin" focusable="false" role="presentation" viewBox="0 0 92 92"><g fill="none" fill-rule="evenodd" class="wd-icon-container"><g fill="#0B77E3" fill-opacity=".2" class="animate-flood"><path d="M46 82c19.882 0 36-16.118 36-36S65.882 10 46 10 10 26.118 10 46s16.118 36 36 36z" class="color-400-alpha-20"/></g><g class="animate-float"><path fill="#FFF" d="M42.351 11.904a3.008 3.008 0 0 1 3.675-2.128l29.935 8.021c.539.145.858.7.717 1.227L66.066 58.628a.999.999 0 0 1-1.234.704l-29.935-8.02a2.995 2.995 0 0 1-2.119-3.681l9.573-35.727z" class="color-100"/><path fill="#005CB9" fill-rule="nonzero" d="M42.351 11.904l-9.573 35.727a2.995 2.995 0 0 0 2.119 3.68l29.935 8.021a.999.999 0 0 0 1.234-.704l10.612-39.604a1.009 1.009 0 0 0-.717-1.227l-29.935-8.02a3.008 3.008 0 0 0-3.675 2.127zm-1.932-.517a5.008 5.008 0 0 1 6.125-3.543l29.935 8.021a3.009 3.009 0 0 1 2.13 3.677L67.999 59.146a2.999 2.999 0 0 1-3.684 2.118L34.38 53.243a4.995 4.995 0 0 1-3.533-6.13l9.573-35.726zM62.36 33.822a.998.998 0 0 0-.708-1.224L48.13 28.975a.997.997 0 0 0-1.226.706l-.26.968a.998.998 0 0 0 .71 1.224l13.52 3.623a.997.997 0 0 0 1.226-.706l.26-.968zm7.09-3.277a.995.995 0 0 0-.71-1.224l-19.314-5.175a.998.998 0 0 0-1.227.705l-.259.968a.995.995 0 0 0 .71 1.225l19.314 5.175a.998.998 0 0 0 1.226-.706l.26-.968zM42.87 9.965L32.26 49.57a1.003 1.003 0 0 0 .706 1.224l1.933.518L46.027 9.776l-1.933-.517a.996.996 0 0 0-1.223.707zm-1.931-.517a2.996 2.996 0 0 1 3.673-2.121l3.864 1.035-12.164 45.399-3.865-1.036a3.003 3.003 0 0 1-2.12-3.673L40.939 9.448z" class="color-500"/><path fill="#40A0FF" d="M42.87 9.966a.996.996 0 0 1 1.224-.707l1.933.517-11.13 41.535-1.932-.518a1.003 1.003 0 0 1-.706-1.224L42.87 9.966z" class="color-300"/><path fill="#000" d="M37.963 37h33.895l-1.09 4H38.963z" class="color-shadow" opacity=".1"/></g><g class="animate-float-right"><rect width="38" height="38" fill="#FFF" class="color-100" rx="3" transform="translate(39 40)"/><path fill="#005CB9" fill-rule="nonzero" d="M2 2.998v32.004c0 .546.451.998.998.998h32.004c.546 0 .998-.451.998-.998V2.998c0-.546-.451-.998-.998-.998H2.998C2.452 2 2 2.451 2 2.998zm-2 0A3.004 3.004 0 0 1 2.998 0h32.004A3.004 3.004 0 0 1 38 2.998v32.004A3.004 3.004 0 0 1 35.002 38H2.998A3.004 3.004 0 0 1 0 35.002V2.998z" class="color-500" transform="translate(39 40)"/><path fill="#0B77E3" d="M8 14.745C8 13.78 8.793 13 9.745 13h10.51c.964 0 1.745.787 1.745 1.745v8.51C22 24.22 21.207 25 20.255 25H9.745A1.749 1.749 0 0 1 8 23.255v-8.51zm21.89 10.132c.613.312 1.11.01 1.11-.695V13.806c0-.696-.503-1.001-1.11-.69L24 16.144v5.732l5.89 3z" class="color-400" transform="translate(39 40)"/></g><g class="animate-float-left"><path fill="#FFF" d="M.776 11.956a3.004 3.004 0 0 1 2.121-3.674L30.91.776a2.994 2.994 0 0 1 3.674 2.121l12.423 46.366a3.004 3.004 0 0 1-2.12 3.673l-28.014 7.506a2.994 2.994 0 0 1-3.673-2.12L.776 11.955z" class="color-100" transform="translate(9 18)"/><path fill="#0B77E3" d="M12.945 50.18l30.202-8.441 2.172 8.62a.506.506 0 0 1-.356.608L15.83 58.755a.5.5 0 0 1-.614-.361l-2.271-8.214zm1.512-28.804c-.705.189-1.435-.243-1.628-.966-.194-.722.222-1.46.927-1.65.706-.189 1.435.243 1.629.966.193.722-.222 1.46-.928 1.65zm.028 3.077c.207-.798.9-1.036 1.547-.529l1.365 1.07-1.657 5.992-1.753.47c-.784.21-1.25-.269-1.042-1.069l1.54-5.934zm3.009 4.734l3.75-14.359c.21-.8.86-.988 1.459-.415l10.94 10.471c.596.571.443 1.205-.339 1.414l-14.77 3.958c-.784.21-1.249-.27-1.04-1.069z" class="color-400" transform="translate(9 18)"/><path fill="#005CB9" fill-rule="nonzero" d="M2.708 11.438l12.424 46.366a.994.994 0 0 0 1.224.707l28.013-7.507c.529-.141.848-.694.706-1.224L32.652 3.415a.994.994 0 0 0-1.224-.707L3.415 10.214a1.004 1.004 0 0 0-.707 1.224zm-1.932.518a3.004 3.004 0 0 1 2.121-3.674L30.91.776a2.994 2.994 0 0 1 3.674 2.121l12.423 46.366a3.004 3.004 0 0 1-2.12 3.673l-28.014 7.506a2.994 2.994 0 0 1-3.673-2.12L.776 11.955z" class="color-500" transform="translate(9 18)"/><circle cx="29.2" cy="50.41" r="2.5" fill="#A6D2FF" class="color-200" transform="translate(9 18)"/><path fill="#40A0FF" d="M26.574 39.846l.26.968a.996.996 0 0 1-.713 1.225l-8.58 2.299a1 1 0 0 1-1.229-.705l-.26-.968a.996.996 0 0 1 .713-1.225l8.58-2.299a1 1 0 0 1 1.229.705zm6.576-1.762l.259.968a1.005 1.005 0 0 1-.717 1.226l-1.995.535a1.001 1.001 0 0 1-1.234-.704l-.259-.968a1.005 1.005 0 0 1 .717-1.226l1.995-.534a1.001 1.001 0 0 1 1.234.703zm2.545-6.28l.26.968a1.003 1.003 0 0 1-.7 1.222L16.13 39.118a.993.993 0 0 1-1.217-.708l-.26-.968a1.003 1.003 0 0 1 .7-1.222l19.125-5.124a.993.993 0 0 1 1.217.708z" class="color-300" transform="translate(9 18)"/></g></g></svg>