<svg xmlns="http://www.w3.org/2000/svg" width="92" height="92" class="wd-applet wd-applet-learning" focusable="false" role="presentation" viewBox="0 0 92 92"><g fill="none" fill-rule="evenodd" class="wd-icon-container"><g fill="#0B77E3" fill-opacity=".2" class="animate-flood"><path d="M46 82c19.882 0 36-16.118 36-36S65.882 10 46 10 10 26.118 10 46s16.118 36 36 36z" class="color-400-alpha-20"/></g><g class="animate-float-right"><path fill="#40A0FF" d="M58.058 8s-14.312 5.569-15.883 20.208c-1.57 14.64 7.936 23.5 7.936 23.5s15.822-8.696 16.6-21.569C67.49 17.266 58.058 8 58.058 8z" class="color-300"/><path fill="#FFF" d="M71.905 37.66c-4.672 8.092-12.774 13.073-21.756 14.365C46.776 43.6 47.039 34.093 51.71 26c4.672-8.092 14.642-16.688 23.624-17.98 3.373 8.425 1.242 21.547-3.43 29.639z" class="color-100"/><path fill="#005CB9" d="M58.058 8s2.254 2.215 4.468 5.983c4.047-3.086 8.55-5.36 12.829-5.974 3.372 8.424 1.241 21.547-3.43 29.639-4.536 7.855-12.303 12.779-20.97 14.242l-2.656 4.516a1 1 0 1 1-1.724-1.014l2.69-4.575c-2.294-2.587-8.37-10.679-7.09-22.609C43.746 13.568 58.058 8 58.058 8zm15.944 2.31c-7.448 1.84-16.13 8.993-20.57 16.684-3.676 6.366-4.502 13.859-2.53 21.035l7.353-12.509-2.565-6.514a1 1 0 0 1 .458-1.247l.106-.05a1 1 0 0 1 1.297.565l1.991 5.056 7.08-12.043a1 1 0 0 1 1.264-.408l.104.053a1 1 0 0 1 .356 1.369l-4.083 6.944 3.562.248a1 1 0 0 1 .93.95l-.001.117a1 1 0 0 1-1.067.928l-4.556-.317-4.39 7.468 4.511-.063a1 1 0 0 1 1.004.871l.008.117a1 1 0 0 1-.988 1.012l-5.72.08-5.245 8.926c7.593-1.735 14.024-6.3 17.85-12.929 4.346-7.527 6.043-18.842 3.84-26.343zm-16.34.22S45.667 15.2 44.27 28.422c-.893 8.45 2.031 14.721 4.258 18.147-1.364-6.618-.565-13.552 2.729-19.73l-1.298-4.01a1 1 0 0 1 1.836-.795l.815 2.518c.47-.725.98-1.45 1.526-2.171l.998-5.09a1 1 0 0 1 1.974.321l-.313 1.595a45.261 45.261 0 0 1 4.223-4.022c-1.733-2.913-3.358-4.657-3.358-4.657z" class="color-500"/></g><g class="animate-shrink"><path fill="#A6D2FF" d="M51.478 63.284c2.11-2.24 3.823-.81 3.823 0s-4.24 7.502-4.548 8.01c-.14.229-2.076 1.225-4.16 2.25l-.545.268-.546.266a371.811 371.811 0 0 1-4.2 2.005s8.066-10.559 10.176-12.8zm-4.207 1.731s-1.512 2.36-3.02 4.7l-.333.519c-1.277 1.98-2.468 3.817-2.638 4.042-.383.508-3.03 1.46-3.688 1.132-.66-.327 5.258-9.37 7.634-11.362 2.375-1.992 2.045.97 2.045.97zm-7.147 1.622s-3.745 7.955-4.32 8.504c-.574.55-4.407-.327-4.407-.327s.414-.659 1.066-1.64l.24-.36c1.41-2.105 3.69-5.342 5.43-7.018 2.714-2.614 1.99.841 1.99.841z" class="color-200"/><path fill="#FFF" d="M11.075 75.06c-3.73 6.125 2.82 12.003 10.833 12.002 8.013 0 24.913-6.696 27.788-8.92s11.935-6.541 10.468-12.386c0 0-.674-1.548-3.593 1.688-2.919 3.236-12.815 8.943-19.315 8.943-6.5 0-14.446 0-14.446-4.786 0 0 1.545-5.638 8.841-9.386 0 0 4.13-3.511-1.372-3.511 0 0-5.151 2.168-11.427 7.376-1.931 1.602-5.347 4.989-7.777 8.98z" class="color-100"/><path fill="#005CB9" fill-rule="nonzero" d="M31.397 74.814s3.833.877 4.407.327c.575-.55 4.32-8.504 4.32-8.504s.723-3.455-1.99-.841c-2.714 2.613-6.737 9.018-6.737 9.018zm-.44 1.072c-1.342-.307-1.986-.97-1.253-2.135a100.02 100.02 0 0 1 3.521-5.173c.404-.552.797-1.072 1.179-1.557.858-1.092 1.64-1.989 2.342-2.666 1.287-1.24 2.37-1.819 3.65-1.431 1.392.422 1.791 1.487 1.814 2.767.006.323-.018.642-.061.956a6.021 6.021 0 0 1-.068.4 2 2 0 0 1-.148.442 186.97 186.97 0 0 1-.638 1.344c-.48 1.006-.967 2.012-1.429 2.953l-.145.295c-1.395 2.827-1.586 3.006-2.091 3.49-.905.865-2.256.767-4.21.508-.337-.045-.648.063-1.009 0-.336-.06-.622-.007-.927-.07-.185-.038-.445-.105-.526-.123zm6.635-.478c.659.327 3.305-.624 3.688-1.132.383-.508 5.991-9.26 5.991-9.26s.33-2.962-2.045-.97c-2.376 1.992-8.294 11.035-7.634 11.362zm-2.041-.34c.026-.29.097-.556.204-.847.14-.385.36-.846.657-1.396.526-.973 1.303-2.24 2.193-3.58 1.994-3.003 4.047-5.65 5.335-6.731 1.168-.98 2.278-1.42 3.457-1.02 1.155.393 1.655 1.3 1.828 2.375a5.264 5.264 0 0 1 .034 1.368 2 2 0 0 1-.304.857l-.256.4a2710.755 2710.755 0 0 1-2.728 4.246c-1.855 2.88-3.08 4.17-3.414 4.317-1.635.723-7.76 1.284-9.302.519-.977-.484 2.221.309 2.296-.509zm7.61-.23s7.467-3.698 7.72-4.137c.252-.439 3.715-6.22 3.715-6.918 0-.7-1.4-1.936-3.123 0-1.723 1.935-8.311 11.055-8.311 11.055zm.888-.022c-1.87.926-3.73.542-2.508-1.15a357.146 357.146 0 0 1 1.3-1.79 574.653 574.653 0 0 1 2.894-3.937l.181-.244c1.95-2.621 3.353-4.445 4.063-5.242 2.562-2.878 6.617-1.77 6.617 1.33 0 .857-.472 1.79-1.954 4.42l-.172.304c-.64 1.126-2.151 1.89-1.856 1.378-.425.74-.914 1.013-4.407 2.825l-.265.137a268.94 268.94 0 0 1-3.893 1.97zm-32.974.244c-3.73 6.125 2.82 12.003 10.833 12.002 8.013 0 24.913-6.696 27.788-8.92s11.935-6.541 10.468-12.386c0 0-.674-1.548-3.593 1.688-2.919 3.236-12.815 8.943-19.315 8.943-6.5 0-14.446 0-14.446-4.786 0 0 1.545-5.638 8.841-9.386 0 0 4.13-3.511-1.372-3.511 0 0-5.151 2.168-11.427 7.376-1.931 1.602-5.347 4.989-7.777 8.98zm26.181-.673c5.155 0 14.658-4.766 17.83-8.283 2.429-2.692 4.627-3.49 6.267-2.024.317.282.518.586.645.877a2 2 0 0 1 .106.313c1.064 4.239-1.429 7.67-6.357 11.198-1.002.716-4.365 2.899-4.827 3.256-4.153 3.213-21.682 9.338-29.012 9.338-9.766 0-17.105-7.549-12.541-15.042 2.194-3.604 5.413-7.16 8.208-9.48 2.837-2.354 5.661-4.289 8.346-5.834 1.629-.938 2.865-1.543 3.582-1.845a2 2 0 0 1 .776-.157c3.612 0 5.68 1.761 4.61 4.486-.215.55-.546 1.057-.963 1.553a8.59 8.59 0 0 1-.98.996 2 2 0 0 1-.38.255c-1.562.802-2.905 1.733-4.049 2.766-1.36 1.23-2.37 2.536-3.085 3.83-.297.54-.492.974-.602 1.268.29 1.848 3.848 2.53 12.426 2.53z" class="color-500"/></g></g></svg>