<svg xmlns="http://www.w3.org/2000/svg" width="92" height="92" class="wd-applet wd-applet-lifesaver" focusable="false" role="presentation" viewBox="0 0 92 92"><g fill="none" fill-rule="evenodd" class="wd-icon-container"><g fill="#0B77E3" fill-opacity=".2" class="animate-flood"><path d="M46 82c19.882 0 36-16.118 36-36S65.882 10 46 10 10 26.118 10 46s16.118 36 36 36z" class="color-400-alpha-20"/></g><g class="animate-shrink"><path fill="#40A0FF" fill-rule="nonzero" d="M28 18c7.17 0 13.24 4.717 15.273 11.218-.667.107-1.322.254-1.96.436C39.483 24.05 34.214 20 28 20c-7.732 0-14 6.268-14 14a13.97 13.97 0 0 0 5.03 10.75A15.915 15.915 0 0 1 28 42c.491 0 .978.022 1.458.066-.153.645-.27 1.305-.347 1.977A14.193 14.193 0 0 0 28 44c-2.64 0-5.108.73-7.215 2 2.107 1.27 4.576 2 7.215 2 .374 0 .745-.015 1.111-.043.077.672.194 1.332.347 1.977-.48.044-.967.066-1.458.066a15.926 15.926 0 0 1-8.97-2.748A13.965 13.965 0 0 0 14 58c0 7.732 6.268 14 14 14 6.215 0 11.484-4.05 13.312-9.654.64.182 1.294.329 1.961.436C41.24 69.282 35.171 74 28 74c-8.837 0-16-7.163-16-16 0-4.779 2.095-9.068 5.417-12A15.96 15.96 0 0 1 12 34c0-8.837 7.163-16 16-16zm36.003 0c8.837 0 16 7.163 16 16 0 4.779-2.095 9.068-5.417 12a15.96 15.96 0 0 1 5.417 12c0 8.837-7.163 16-16 16-7.17 0-13.24-4.717-15.273-11.218a16.896 16.896 0 0 0 1.96-.436C52.52 67.95 57.789 72 64.004 72c7.732 0 14-6.268 14-14a13.97 13.97 0 0 0-5.03-10.75 15.915 15.915 0 0 1-8.97 2.75c-.491 0-.978-.022-1.458-.066.153-.645.27-1.305.347-1.977.366.028.737.043 1.111.043 2.64 0 5.108-.73 7.215-2-2.107-1.27-4.576-2-7.215-2-.374 0-.745.015-1.111.043a16.942 16.942 0 0 0-.347-1.977c.48-.044.967-.066 1.458-.066 3.324 0 6.411 1.014 8.97 2.748A13.965 13.965 0 0 0 78.002 34c0-7.732-6.268-14-14-14-6.215 0-11.484 4.05-13.312 9.654a16.896 16.896 0 0 0-1.961-.436C50.763 22.718 56.832 18 64.003 18z" class="color-300"/><path fill="#005CB9" fill-rule="nonzero" d="M46 15c17.12 0 31 13.88 31 31 0 17.12-13.88 31-31 31-17.12 0-31-13.88-31-31 0-17.12 13.88-31 31-31zm0 2c-16.016 0-29 12.984-29 29s12.984 29 29 29 29-12.984 29-29-12.984-29-29-29zm0 12c9.39 0 17 7.61 17 17s-7.61 17-17 17-17-7.61-17-17 7.61-17 17-17zm0 2c-8.286 0-15 6.716-15 15 0 8.286 6.716 15 15 15 8.286 0 15-6.716 15-15 0-8.286-6.716-15-15-15z" class="color-500"/><path fill="#FFF" d="M46 17c16.016 0 29 12.984 29 29S62.016 75 46 75 17 62.016 17 46s12.984-29 29-29zm0 12c-9.389 0-17 7.611-17 17s7.611 17 17 17 17-7.611 17-17-7.611-17-17-17z" class="color-100"/><path fill="#40A0FF" d="M54 30.995a17.038 17.038 0 0 0-16 0V18.12a29.137 29.137 0 0 1 16 0v12.875zm0 30.01V73.88a29.137 29.137 0 0 1-16 0V61.005a17.038 17.038 0 0 0 16 0zM61.005 38H73.88a29.137 29.137 0 0 1 0 16H61.005a17.038 17.038 0 0 0 0-16zm-30.01 0a17.038 17.038 0 0 0 0 16H18.12a29.137 29.137 0 0 1 0-16h12.875z" class="color-300"/><path fill="#005CB9" fill-rule="nonzero" d="M56 57.67v17.718l-1.45.415a31.137 31.137 0 0 1-17.1 0L36 75.388V57.671l2.942 1.57a15.038 15.038 0 0 0 14.116 0L56 57.67zm-2 3.335a17.038 17.038 0 0 1-16 0V73.88a29.137 29.137 0 0 0 16 0V61.005zM75.388 36l.415 1.45a31.137 31.137 0 0 1 0 17.1L75.388 56H57.671l1.57-2.942a15.038 15.038 0 0 0 0-14.116L57.67 36h17.717zM34.33 36l-1.57 2.942a15.038 15.038 0 0 0 0 14.116L34.33 56H16.612l-.415-1.45a31.137 31.137 0 0 1 0-17.1l.415-1.45h17.717zm39.551 2H61.005a17.038 17.038 0 0 1 0 16H73.88a29.137 29.137 0 0 0 0-16zm-42.885 0H18.12a29.137 29.137 0 0 0 0 16h12.875a17.038 17.038 0 0 1 0-16zM54.55 16.197l1.45.415v17.717l-2.942-1.57a15.038 15.038 0 0 0-14.116 0L36 34.33V16.612l1.45-.415a31.137 31.137 0 0 1 17.1 0zM38 18.12v12.875a17.038 17.038 0 0 1 16 0V18.12a29.137 29.137 0 0 0-16 0z" class="color-500"/></g></g></svg>