<svg xmlns="http://www.w3.org/2000/svg" width="92" height="92" class="wd-applet wd-applet-line-graph" focusable="false" role="presentation" viewBox="0 0 92 92"><g fill="none" fill-rule="evenodd" class="wd-icon-container"><g fill="#0B77E3" fill-opacity=".2" class="animate-flood"><circle cx="36" cy="36" r="36" class="color-400-alpha-20" transform="translate(10 10)"/></g><rect width="64" height="50" x="14" y="19" fill="#FFF" class="color-100" rx="1"/><path fill="#40A0FF" d="M28 17.01c0-.558.455-1.01 1-1.01h34a1 1 0 0 1 1 1.01v1.98A1.01 1.01 0 0 1 63 20H29a1 1 0 0 1-1-1.01v-1.98zm35.31 53.04l2.347 8.755a.999.999 0 0 0 1.225.71.998.998 0 0 0 .707-1.224l-2.199-8.207-2.08-.034zM28.326 70l-2.358 8.8c-.144.538-.69.858-1.226.714a1.001 1.001 0 0 1-.706-1.229l2.213-8.258L28.325 70z" class="color-300"/><path fill="#000" d="M28.325 70l-.804 3H25.45l.798-2.973L28.325 70zm34.986.05l2.08.034.78 2.916h-2.07l-.79-2.95z" class="color-shadow" opacity=".1"/><path fill="#005CB9" d="M63 14a3 3 0 0 1 3 3h10.995A3.002 3.002 0 0 1 80 19.999V68A2.997 2.997 0 0 1 76.995 71h-9.326l1.816 6.778a3.002 3.002 0 0 1-2.12 3.682 3.001 3.001 0 0 1-3.675-2.129L61.457 71H30.13l-2.231 8.327a3.001 3.001 0 0 1-3.676 2.128 3.002 3.002 0 0 1-2.12-3.681L23.918 71h-8.913A3.002 3.002 0 0 1 12 68.001V20A2.997 2.997 0 0 1 15.005 17H26l.005-.167A3.01 3.01 0 0 1 29 14h34zm2.6 57.004l-2.07.003 2.092 7.806c.144.538.689.859 1.226.715.534-.143.85-.693.705-1.232L65.6 71.004zm-37.542.001l-2.073.008-1.95 7.278c-.145.54.172 1.09.705 1.232a1.001 1.001 0 0 0 1.227-.714l2.09-7.804zM26 19.001L15.005 19a.997.997 0 0 0-1.005.999V68c0 .551.45.999 1.005.999h61.99A.997.997 0 0 0 78 68.001V20c0-.551-.45-.999-1.005-.999H66l-.005.167A3.01 3.01 0 0 1 63 22H29a3 3 0 0 1-3-3zM63 16H29c-.545 0-1 .452-1 1.01v1.98A1 1 0 0 0 29 20h34c.545 0 1-.452 1-1.01v-1.98A1 1 0 0 0 63 16z" class="color-500"/><g class="animate-grow"><path fill="#40A0FF" d="M67.997 59a1 1 0 0 1 .996.883L69 60c0 .552-.455 1-1.004 1H24l-.045-.003-.058-.002L24 61c-.062 0-.124-.006-.183-.016l-.02-.005a.99.99 0 0 1-.797-.975V30.996c0-.51.383-.932.883-.99L24 30c.552 0 1 .438 1 .996L25.001 59h42.996z" class="color-300"/><path fill="#0B77E3" fill-rule="nonzero" d="M44.532 54.55a1 1 0 0 0 1.292-.317l5.33-7.764 8.15 7.915a1 1 0 0 0 1.496-.117l8-10.667a1 1 0 0 0-1.6-1.2l-7.318 9.758-8.185-7.95a1 1 0 0 0-1.521.152l-5.496 8.006-6.212-3.287a1 1 0 0 0-1.24.248L32.4 55.193l-7.747 2.87a1 1 0 0 0 .694 1.875l8-2.963a1 1 0 0 0 .425-.302l4.482-5.445 6.278 3.323z" class="color-400"/><path fill="#005CB9" fill-rule="nonzero" d="M44.532 40.55a1 1 0 0 0 .997-.035l5.42-3.378 8.452 6.33a1 1 0 0 0 1.424-.235l8-11.666a1 1 0 0 0-1.65-1.132l-7.41 10.807-8.166-6.115a1 1 0 0 0-1.128-.049l-5.512 3.437-6.491-3.435a1 1 0 0 0-1.339.393l-13 23.037a1 1 0 0 0 1.742.982l12.522-22.189 6.14 3.249z" class="color-500"/></g></g></svg>