<svg xmlns="http://www.w3.org/2000/svg" width="92" height="92" fill="none" class="wd-applet-manager-insights wd-applet" focusable="false" role="presentation" viewBox="0 0 92 92"><g class="wd-icon-container"><g class="animate-flood"><path fill="#0B77E3" fill-opacity=".2" d="M46 82c19.882 0 36-16.118 36-36S65.882 10 46 10 10 26.118 10 46s16.118 36 36 36z" class="color-400-alpha-20"/></g><path fill="#005CB9" d="M41.248 35.59l1.515 1.306-11.659 13.515-1.514-1.307L41.248 35.59zM63.41 50.118l-1.527 1.292L49.59 36.883l1.527-1.292L63.41 50.118z" class="color-500"/><g class="animate-float"><path fill="#A6D2FF" fill-rule="evenodd" d="M59 72.381A12.956 12.956 0 0 0 68 76c3.493 0 6.664-1.377 9-3.619V71h.624H77c0-1.659-1.34-3-2.992-3H61.992A2.993 2.993 0 0 0 59 71h-.624H59v1.381zm-1.913-2.314A12.94 12.94 0 0 1 55 63c0-7.18 5.819-13 13-13 7.18 0 13 5.819 13 13a12.94 12.94 0 0 1-2.087 7.067A4.994 4.994 0 0 0 74.008 66H61.992a4.992 4.992 0 0 0-4.905 4.067zM71.314 66h-6.632A5.998 5.998 0 0 1 62 60.998v-2.996A6.004 6.004 0 0 1 68 52c3.314 0 6 2.688 6 6.002v2.996A6 6 0 0 1 71.315 66z" class="color-200" clip-rule="evenodd"/><path fill="#40A0FF" fill-rule="evenodd" d="M59 72.381A12.956 12.956 0 0 0 68 76c3.493 0 6.665-1.377 9-3.619V71h.624H77c0-1.659-1.34-3-2.992-3H61.992A2.993 2.993 0 0 0 59 71h-.624H59v1.381z" class="color-300" clip-rule="evenodd"/><path fill="#fff" d="M72.5 58a4.5 4.5 0 1 0-9 0v3a4.5 4.5 0 1 0 9 0v-3z" class="color-100"/><path fill="#005CB9" d="M53 63c0-8.285 6.715-15 15-15s15 6.715 15 15-6.715 15-15 15-15-6.715-15-15zm6 9.381A12.956 12.956 0 0 0 68 76c3.493 0 6.664-1.377 9-3.619V71h.624H77c0-1.659-1.34-3-2.992-3H61.992A2.993 2.993 0 0 0 59 71h-.624H59v1.381zm-1.913-2.314A4.992 4.992 0 0 1 61.992 66h12.016c2.439 0 4.47 1.75 4.905 4.067A12.94 12.94 0 0 0 81 63c0-7.181-5.82-13-13-13-7.181 0-13 5.82-13 13 0 2.606.767 5.033 2.087 7.067zM71.314 66h-6.632A5.998 5.998 0 0 1 62 60.998v-2.996A6.004 6.004 0 0 1 68 52c3.314 0 6 2.688 6 6.002v2.996A6 6 0 0 1 71.315 66zM64 58.002v2.996C64 63.208 65.79 65 68 65c2.205 0 4-1.792 4-4.002v-2.996C72 55.792 70.21 54 68 54c-2.205 0-4 1.792-4 4.002z" class="color-500"/></g><g class="animate-float"><path fill="#A6D2FF" fill-rule="evenodd" d="M15 72.381A12.956 12.956 0 0 0 24 76c3.493 0 6.664-1.377 9-3.619V71h.624H33c0-1.659-1.34-3-2.992-3H17.992A2.993 2.993 0 0 0 15 71h-.624H15v1.381zm-1.914-2.314A12.94 12.94 0 0 1 11 63c0-7.18 5.819-13 13-13 7.18 0 13 5.819 13 13a12.94 12.94 0 0 1-2.087 7.067A4.994 4.994 0 0 0 30.008 66H17.992a4.992 4.992 0 0 0-4.906 4.067zM27.316 66h-6.633A5.998 5.998 0 0 1 18 60.998v-2.996A6.004 6.004 0 0 1 24 52c3.314 0 6 2.688 6 6.002v2.996A6 6 0 0 1 27.315 66z" class="color-200" clip-rule="evenodd"/><path fill="#40A0FF" fill-rule="evenodd" d="M15 72.381A12.956 12.956 0 0 0 24 76c3.494 0 6.665-1.377 9-3.619V71h.624H33c0-1.659-1.34-3-2.992-3H17.992A2.993 2.993 0 0 0 15 71h-.624H15v1.381z" class="color-300" clip-rule="evenodd"/><path fill="#fff" d="M28.5 58a4.5 4.5 0 1 0-9 0v3a4.5 4.5 0 1 0 9 0v-3z" class="color-100"/><path fill="#005CB9" d="M9 63c0-8.285 6.715-15 15-15s15 6.715 15 15-6.715 15-15 15S9 71.285 9 63zm6 9.381A12.956 12.956 0 0 0 24 76c3.493 0 6.664-1.377 9-3.619V71h.624H33c0-1.659-1.34-3-2.992-3H17.992A2.993 2.993 0 0 0 15 71h-.624H15v1.381zm-1.914-2.314A4.992 4.992 0 0 1 17.992 66h12.016c2.439 0 4.47 1.75 4.905 4.067A12.94 12.94 0 0 0 37 63c0-7.181-5.82-13-13-13-7.181 0-13 5.82-13 13 0 2.606.767 5.033 2.086 7.067zM27.316 66h-6.633A5.998 5.998 0 0 1 18 60.998v-2.996A6.004 6.004 0 0 1 24 52c3.314 0 6 2.688 6 6.002v2.996A6 6 0 0 1 27.315 66zM20 58.002v2.996C20 63.208 21.79 65 24 65c2.205 0 4-1.792 4-4.002v-2.996C28 55.792 26.21 54 24 54c-2.205 0-4 1.792-4 4.002z" class="color-500"/></g><g class="animate-grow"><path fill="#fff" d="M46 40c-8.837 0-16-7.163-16-16S37.163 8 46 8s16 7.163 16 16-7.163 16-16 16z" class="color-100"/><path fill="#40A0FF" d="M38.86 29.951l1.536 2.017a2.123 2.123 0 0 0 3.173.231l.032-.032c.084-.083.168-.165.26-.238l2.33-1.847c.046-.036.087-.077.129-.117l.017-.018a1.062 1.062 0 0 1 1.154-.22c.046.019.091.037.138.05l4.99 1.49c.051.015.101.035.15.056l.007.002c.57.233 1.125-.066 1.352-.53l3.143 4.561A15.95 15.95 0 0 1 46 40a15.95 15.95 0 0 1-11.27-4.644l3.958-5.745c.036.12.093.236.172.34z" class="color-300"/><path fill="#A6D2FF" d="M40 14.778L46 12v5l-6-2.222z" class="color-200"/><g fill="#005CB9" fill-rule="evenodd" class="color-500" clip-rule="evenodd"><path d="M46 41c-9.389 0-17-7.611-17-17S36.611 7 46 7s17 7.611 17 17-7.611 17-17 17zm0-2c3.823 0 7.311-1.43 9.96-3.784l-.975-1.415-6.471-2.974a2 2 0 0 0-2.317.474l-.714.787a4 4 0 0 1-6.062-.158l-.606-.741-2.775 4.027A14.944 14.944 0 0 0 46 39zm-6.003-9.526l5.18-7.517a1 1 0 0 1 1.647 0l5.942 8.623-3.417-1.57a4 4 0 0 0-4.634.947l-.714.788a2 2 0 0 1-3.03-.079l-.974-1.192zm8.474-8.651l8.917 12.94A14.941 14.941 0 0 0 61 24c0-8.284-6.716-15-15-15-8.284 0-15 6.716-15 15 0 3.729 1.36 7.14 3.612 9.764l8.918-12.942c1.192-1.73 3.748-1.73 4.94 0z"/><path d="M39.58 13.87a1 1 0 0 0 .073 1.846L45 17.695V20h2v-8a1 1 0 0 0-1.42-.908l-6 2.778zM45 15.563l-2.398-.888L45 13.565v1.998z"/></g></g></g></svg>