<svg xmlns="http://www.w3.org/2000/svg" width="92" height="92" class="wd-applet wd-applet-mobile" focusable="false" role="presentation" viewBox="0 0 92 92"><g fill="none" fill-rule="evenodd" class="wd-icon-container"><g fill="#0B77E3" fill-opacity=".2" class="animate-flood"><circle cx="36" cy="36" r="36" class="color-400-alpha-20" transform="translate(10 10)"/></g><g class="animate-shrink"><path fill="#005CB9" fill-rule="nonzero" d="M64 12a4 4 0 0 1 4 4v61a4 4 0 0 1-4 4H28a4 4 0 0 1-4-4V16a4 4 0 0 1 4-4h36zm0 2H28a2 2 0 0 0-2 2v61a2 2 0 0 0 2 2h36a2 2 0 0 0 2-2V16a2 2 0 0 0-2-2z" class="color-500"/><path fill="#FFF" d="M28 14h36a2 2 0 0 1 2 2v52H26V16a2 2 0 0 1 2-2z" class="color-100"/><path fill="#0B77E3" d="M38.41 33.36a1 1 0 0 1 .369.36l1.313 2.203-3.665 6.294H34a1 1 0 0 1-.872-1.49l3.92-6.984a1 1 0 0 1 1.361-.383zm10.89-8.238a1 1 0 0 1 .385.372l8.847 15.054a1 1 0 0 1-.862 1.507H40.638a1 1 0 0 1-.879-1.478l8.185-15.054a1 1 0 0 1 1.356-.401zm-9.975 4.337a1.375 1.375 0 1 1 0 2.75 1.375 1.375 0 0 1 0-2.75zM26 68h40v9a2 2 0 0 1-2 2H28a2 2 0 0 1-2-2v-9z" class="color-400"/><path fill="#40A0FF" d="M34 51.625h11a1 1 0 0 1 1 1V54a1 1 0 0 1-1 1H34a1 1 0 0 1-1-1v-1.375a1 1 0 0 1 1-1zM34 46h24a1 1 0 0 1 1 1v1.375a1 1 0 0 1-1 1H34a1 1 0 0 1-1-1V47a1 1 0 0 1 1-1zm16.545 5.625h2.728a1 1 0 0 1 1 1V54a1 1 0 0 1-1 1h-2.728a1 1 0 0 1-1-1v-1.375a1 1 0 0 1 1-1z" class="color-300"/><path fill="#A6D2FF" d="M47.147 75.915a2.5 2.5 0 1 1-1.294-4.83 2.5 2.5 0 0 1 1.294 4.83z" class="color-200"/></g></g></svg>