<svg xmlns="http://www.w3.org/2000/svg" width="92" height="92" class="wd-applet wd-applet-more" focusable="false" role="presentation" viewBox="0 0 92 92"><g fill="none" fill-rule="evenodd" class="wd-icon-container"><g fill="#0B77E3" fill-opacity=".2" class="animate-flood"><circle cx="36" cy="36" r="36" class="color-400-alpha-20" transform="translate(10 10)"/></g><g class="animate-shrink"><path fill="#FFF" d="M46 54a8 8 0 1 0 0-16 8 8 0 0 0 0 16zm-20 0a8 8 0 1 0 0-16 8 8 0 0 0 0 16zm40 0a8 8 0 1 0 0-16 8 8 0 0 0 0 16z" class="color-100"/><path fill="#005CB9" fill-rule="nonzero" d="M46 52a6 6 0 1 0 0-12 6 6 0 0 0 0 12zm0-14a8 8 0 1 1 0 16 8 8 0 0 1 0-16zm-20 0a8 8 0 1 1 0 16 8 8 0 0 1 0-16zm40 0a8 8 0 1 1 0 16 8 8 0 0 1 0-16zm-40 2a6 6 0 1 0 0 12 6 6 0 0 0 0-12zm40 0a6 6 0 1 0 0 12 6 6 0 0 0 0-12z" class="color-500"/></g></g></svg>