<svg xmlns="http://www.w3.org/2000/svg" width="92" height="92" class="wd-applet wd-applet-my-account" focusable="false" role="presentation" viewBox="0 0 92 92"><g fill="none" fill-rule="evenodd" class="wd-icon-container"><g fill="#0B77E3" fill-opacity=".2" class="animate-flood"><path d="M46 82c19.882 0 36-16.118 36-36S65.882 10 46 10 10 26.118 10 46s16.118 36 36 36z" class="color-400-alpha-20"/></g><g class="animate-shrink"><path fill="#005CB9" fill-rule="nonzero" d="M36.88 46C32.175 43.338 29 38.287 29 32.493v-8.986C29 14.943 35.938 8 44.5 8 53.061 8 60 14.942 60 23.507v8.986c0 5.793-3.175 10.845-7.88 13.507h5.883C65.182 46 71 51.82 71 59v10.997A2.002 2.002 0 0 1 69.003 72H19.997A1.998 1.998 0 0 1 18 69.997V59c0-7.18 5.818-13 12.997-13h5.883zM20 59v11h49V59c0-6.076-4.923-11-10.997-11H30.997C24.923 48 20 52.925 20 59zm11-35.493v8.986C31 39.954 37.044 46 44.5 46 51.957 46 58 39.952 58 32.493v-8.986C58 16.046 51.956 10 44.5 10 37.043 10 31 16.048 31 23.507z" class="color-500"/><path fill="#A6D2FF" d="M20 59c0-6.075 4.923-11 10.997-11h27.006C64.077 48 69 52.924 69 59v11H20V59z" class="color-200"/><path fill="#FFF" d="M31 23.507C31 16.047 37.043 10 44.5 10 51.956 10 58 16.046 58 23.507v8.986C58 39.953 51.957 46 44.5 46 37.044 46 31 39.954 31 32.493v-8.986z" class="color-100"/><path fill="#000" d="M49.181 70c-.918-1.729-2.32-2.927-4.26-3.69a2 2 0 0 1-1.264-2.002c.025-.35.03-.661.027-1.39-.003-.828.002-1.202.036-1.685a2 2 0 0 1 1.318-1.74c1.77-.637 3.064-1.665 4.192-3.273.762-1.11 1.303-2.497 1.662-4.227.054-.3.068-.41.074-.6l.008-.12a1.153 1.153 0 0 0 0-.175c-.007-.123.008-.011-.076-.594a6.101 6.101 0 0 1-.065-.624 2 2 0 0 1 1.059-1.857l.042-.023h6.07c.298 0 .593.012.885.035a9.29 9.29 0 0 0 2.689.559C65.896 50.078 69 54.175 69 59v11H49.181z" class="color-shadow" opacity=".1"/></g><g class="animate-grow"><path fill="#005CB9" fill-rule="nonzero" d="M52.31 76.012a3.885 3.885 0 0 1-.008-.427c-.585-3.766-2.31-6.068-5.381-7.275a2 2 0 0 1-1.264-2.002c.025-.35.03-.661.027-1.39-.003-.828.002-1.202.036-1.685a2 2 0 0 1 1.318-1.74c1.77-.637 3.064-1.665 4.192-3.273.762-1.11 1.303-2.497 1.662-4.227.054-.3.068-.41.074-.6l.008-.12a1.153 1.153 0 0 0 0-.175c-.007-.123.008-.011-.076-.594a6.101 6.101 0 0 1-.065-.624 2 2 0 0 1 1.059-1.857 34.89 34.89 0 0 0 1.42-.78l.112-.062 1.193-.61a2 2 0 0 1 2.204.257c1.331 1.13 3.132 1.751 5.326 1.79 2.22.038 4.09-.533 5.789-1.76a2 2 0 0 1 2.087-.157 28.544 28.544 0 0 1 1.552.877c.174.105.353.214.586.358l.595.368a2 2 0 0 1 .918 2.055c-.112.624-.143.873-.134 1.073l.002.118c-.022 1.587.598 3.52 1.668 5.05 1.1 1.576 2.43 2.647 3.869 3.167a2 2 0 0 1 1.312 2.066c-.02.219-.03.428-.034.68 0 .005-.002.529-.007.682.014-.447-.006 1.059-.057 1.6a2 2 0 0 1-1.406 1.728c-1.346.412-2.728 1.492-3.954 3.128l-.127.154c-.184.222-.243.308-.243.307a2 2 0 0 1-.198.44c-.793 1.307-1.255 2.813-1.278 4.052.008.158.02.325.044.668.03.423.043.608.053.833a2 2 0 0 1-.977 1.811 16.63 16.63 0 0 1-.426.245c-.323.179-.556.3-1.156.606-.558.285-.833.428-1.158.61a2 2 0 0 1-2.225-.183c-1.657-1.324-3.443-1.915-5.723-1.833-2.226-.009-3.958.568-5.498 1.761a2 2 0 0 1-2.141.197l-1.191-.614a2 2 0 0 1-.243-.148 4.363 4.363 0 0 0-.155-.105 8.412 8.412 0 0 0-.516-.305 23.345 23.345 0 0 0-.609-.32 2 2 0 0 1-1.052-2.131c.122-.684.173-1.007.214-1.423l-.018-.261zm3.295 2.915l1.19.614c1.826-1.413 3.97-2.191 6.732-2.18 2.728-.1 4.972.68 6.964 2.27.963-.538 1.846-.93 2.695-1.435-.022-.482-.078-1.076-.1-1.558.015-1.593.568-3.473 1.568-5.123.127-.406.403-.734.679-1.063 1.424-1.902 3.134-3.28 4.969-3.841.058-.63.036-1.111.049-1.482.012-.37-.01-.852.048-1.481-1.832-.662-3.491-1.988-4.829-3.901-1.337-1.914-2.054-4.26-2.028-6.224-.022-.482.07-1 .163-1.517-.927-.572-1.705-1.067-2.598-1.527-2.054 1.483-4.348 2.184-6.995 2.138-2.647-.046-4.892-.826-6.585-2.264l-1.193.61c-.425.251-.964.538-1.503.825.022.483.193 1.041.134 1.67-.012.37-.058.63-.104.888-.405 1.957-1.027 3.613-1.981 5.005-1.31 1.867-2.905 3.21-5.165 4.023-.07 1 .008 2.076-.063 3.075 3.848 1.512 6.02 4.515 6.665 9.084-.047.258.022.482.01.852-.06.63-.152 1.146-.244 1.664.446.23 1.041.537 1.522.878zm11.788-7.805a7 7 0 1 1-6.787-12.244 7 7 0 0 1 6.787 12.244zm-.97-1.749a5 5 0 1 0-4.848-8.746 5 5 0 0 0 4.849 8.746z" class="color-500"/><path fill="#40A0FF" d="M55.605 78.927c-.48-.341-1.076-.648-1.522-.878.092-.518.185-1.035.243-1.664.013-.37-.056-.594-.01-.852-.644-4.57-2.816-7.572-6.664-9.084.071-1-.007-2.075.063-3.075 2.26-.813 3.855-2.156 5.165-4.023.954-1.392 1.576-3.048 1.98-5.005.047-.259.093-.517.105-.888.059-.629-.112-1.187-.134-1.67.54-.287 1.078-.574 1.503-.826l1.193-.609c1.693 1.438 3.938 2.218 6.585 2.264 2.647.046 4.94-.655 6.995-2.138.893.46 1.671.955 2.598 1.527-.092.518-.185 1.035-.163 1.517-.026 1.963.691 4.31 2.028 6.224 1.338 1.913 2.997 3.239 4.83 3.9-.06.63-.037 1.112-.05 1.482-.012.37.01.853-.048 1.482-1.835.56-3.545 1.939-4.97 3.84-.275.33-.55.658-.678 1.064-1 1.65-1.553 3.53-1.568 5.123.022.482.078 1.076.1 1.558-.849.504-1.732.897-2.695 1.436-1.992-1.591-4.236-2.372-6.964-2.271-2.762-.011-4.906.767-6.731 2.18l-1.19-.614zm11.788-7.805a7 7 0 1 0-6.787-12.244 7 7 0 0 0 6.787 12.244z" class="color-300"/></g></g></svg>