<svg xmlns="http://www.w3.org/2000/svg" width="92" height="92" class="wd-applet wd-applet-my-processes" focusable="false" role="presentation" viewBox="0 0 92 92"><g fill="none" fill-rule="evenodd" class="wd-icon-container"><g fill="#0B77E3" fill-opacity=".2" class="animate-flood"><path d="M46 82c19.882 0 36-16.118 36-36S65.882 10 46 10 10 26.118 10 46s16.118 36 36 36z" class="color-400-alpha-20"/></g><g class="animate-shrink"><path fill="#FFF" d="M29 24.507C29 17.047 35.043 11 42.5 11 49.956 11 56 17.046 56 24.507v8.986C56 40.953 49.957 47 42.5 47 35.044 47 29 40.954 29 33.493v-8.986z" class="color-100"/><path fill="#A6D2FF" d="M18 60c0-6.075 4.923-11 10.997-11h27.006C62.077 49 67 53.924 67 60v11H18V60z" class="color-200"/><path fill="#005CB9" fill-rule="nonzero" d="M50.12 47h5.883C63.182 47 69 52.82 69 60v10.997A2.002 2.002 0 0 1 67.003 73H17.997A1.998 1.998 0 0 1 16 70.997V60c0-7.18 5.818-13 12.997-13h5.883C30.175 44.338 27 39.287 27 33.493v-8.986C27 15.943 33.938 9 42.5 9 51.061 9 58 15.942 58 24.507v8.986c0 5.793-3.175 10.845-7.88 13.507zM29 24.507v8.986C29 40.954 35.044 47 42.5 47 49.957 47 56 40.952 56 33.493v-8.986C56 17.046 49.956 11 42.5 11 35.043 11 29 17.048 29 24.507zM18 60v11h49V60c0-6.076-4.923-11-10.997-11H28.997C22.923 49 18 53.925 18 60z" class="color-500"/><path fill="#000" d="M65.003 51c.137 0 .271.01.403.027A12.951 12.951 0 0 1 69 60v13H46V61.007A3.006 3.006 0 0 1 48.997 58h6.006c.35 0 .685.06.997.17V54A3.002 3.002 0 0 1 58.997 51h6.006z" class="color-shadow" opacity=".1"/></g><g class="animate-grow"><path fill="#FFF" d="M50 63.007c0-.556.453-1.007.997-1.007h6.006c.55 0 .997.45.997 1.007V76h-8V63.007z" class="color-100"/><path fill="#40A0FF" d="M60 55.999c0-.552.453-.999.997-.999h6.006c.55 0 .997.439.997.999V76h-8V55.999z" class="color-300"/><path fill="#FFF" d="M70 46.998c0-.551.453-.998.997-.998h6.006c.55 0 .997.447.997.998V76h-8V46.998z" class="color-100"/><path fill="#005CB9" fill-rule="nonzero" d="M77.003 44A2.998 2.998 0 0 1 80 46.998V76a2 2 0 0 1-2 2H50a2 2 0 0 1-2-2V63.007A3.006 3.006 0 0 1 50.997 60h6.006c.35 0 .685.06.997.17V56A3.002 3.002 0 0 1 60.997 53h6.006c.35 0 .685.06.997.169v-6.17A3.002 3.002 0 0 1 70.997 44h6.006zm-20 18h-6.006c-.544 0-.997.45-.997 1.007V76h8V63.007c0-.557-.446-1.007-.997-1.007zm10-7h-6.006c-.544 0-.997.447-.997.999V76h8V55.999a.992.992 0 0 0-.997-.999zm10-9h-6.006c-.544 0-.997.447-.997.998V76h8V46.998a.998.998 0 0 0-.997-.998z" class="color-500"/></g></g></svg>