<svg xmlns="http://www.w3.org/2000/svg" width="92" height="92" class="wd-applet wd-applet-my-requests" focusable="false" role="presentation" viewBox="0 0 92 92"><g fill="none" fill-rule="evenodd" class="wd-icon-container"><g fill="#0B77E3" fill-opacity=".2" class="animate-flood"><path d="M45 84c19.882 0 36-16.118 36-36S64.882 12 45 12 9 28.118 9 48s16.118 36 36 36z" class="color-400-alpha-20"/></g><path fill="#40A0FF" d="M8 44.55v38.448C8 83.553 8.449 84 9.003 84h73.994A1 1 0 0 0 84 82.998V44.55c0-.555-.348-1.284-.776-1.633L46.776 10.282c-.424-.345-1.124-.349-1.552 0L8.776 42.917C8.352 43.262 8 43.997 8 44.55z" class="color-300"/><path fill="#005CB9" fill-rule="nonzero" d="M48.038 8.73l36.447 32.635c.897.73 1.515 2.029 1.515 3.185v38.448A3 3 0 0 1 82.997 86H9.003A3.001 3.001 0 0 1 6 82.998V44.55c0-1.154.622-2.459 1.515-3.185L43.962 8.73c1.163-.946 2.916-.943 4.076 0zm-2.814 1.552L8.776 42.917C8.352 43.262 8 43.997 8 44.55v38.448C8 83.553 8.449 84 9.003 84h73.994A1 1 0 0 0 84 82.998V44.55c0-.555-.348-1.284-.776-1.633L46.776 10.282c-.424-.345-1.124-.349-1.552 0z" class="color-500"/><path fill="#005CB9" fill-rule="nonzero" d="M6.5 45h79v-2h-79z" class="color-500"/><g class="animate-float"><path fill="#005CB9" fill-rule="nonzero" d="M53.008 72A3 3 0 0 0 56 69V3a3 3 0 0 0-2.992-3H2.992A3 3 0 0 0 0 3v66a3 3 0 0 0 2.992 3h50.016zm0-2H2.992A1 1 0 0 1 2 69V3a1 1 0 0 1 .992-1h50.016A1 1 0 0 1 54 3v66a1 1 0 0 1-.992 1z" class="color-500" transform="translate(18 10)"/><path fill="#FFF" d="M54 69a1 1 0 0 1-.992 1H2.992A1 1 0 0 1 2 69V3a1 1 0 0 1 .992-1h50.016A1 1 0 0 1 54 3v66z" class="color-100" transform="translate(18 10)"/><path fill="#40A0FF" d="M41 16.999a1 1 0 0 0-.995-.999h-17.01a.994.994 0 0 0-.995.999v1.002a1 1 0 0 0 .995.999h17.01c.55 0 .995-.443.995-.999v-1.002zm5 5A1 1 0 0 0 45 21H23c-.552 0-1 .443-1 .999v1.002A1 1 0 0 0 23 24h22c.552 0 1-.443 1-.999v-1.002zm-5 11a1 1 0 0 0-.995-.999h-17.01a.994.994 0 0 0-.995.999v1.002a1 1 0 0 0 .995.999h17.01c.55 0 .995-.443.995-.999v-1.002zm5 5A1 1 0 0 0 45 37H23c-.552 0-1 .443-1 .999v1.002A1 1 0 0 0 23 40h22c.552 0 1-.443 1-.999v-1.002zm-5 11a1 1 0 0 0-.995-.999h-17.01a.994.994 0 0 0-.995.999v1.002a1 1 0 0 0 .995.999h17.01c.55 0 .995-.443.995-.999v-1.002zm5 5A1 1 0 0 0 45 53H23c-.552 0-1 .443-1 .999v1.002A1 1 0 0 0 23 56h22c.552 0 1-.443 1-.999v-1.002z" class="color-300" transform="translate(18 10)"/><path fill="#005CB9" d="M14.472 36l2.235-2.235a.994.994 0 0 0 .004-1.406l-.07-.069a.993.993 0 0 0-1.406.004L13 34.528l-2.235-2.234a.993.993 0 0 0-1.407-.004l-.069.07a.994.994 0 0 0 .004 1.405L11.528 36l-2.235 2.235a.994.994 0 0 0-.004 1.406l.07.069a.993.993 0 0 0 1.406-.004L13 37.472l2.235 2.234a.993.993 0 0 0 1.407.004l.069-.07a.994.994 0 0 0-.004-1.405L14.472 36z" class="color-500" transform="translate(18 10)"/><path fill="#005CB9" fill-rule="nonzero" d="M13 48a5 5 0 1 0 0 10 5 5 0 0 0 0-10zm0 2a3 3 0 1 1 0 6 3 3 0 0 1 0-6z" class="color-500" transform="translate(18 10)"/><circle cx="13" cy="53" r="3" fill="#A6D2FF" class="color-200" transform="translate(18 10)"/><path fill="#005CB9" d="M11.506 23.533a1.01 1.01 0 0 1-.23-.12l-2.457-1.72a.997.997 0 0 1-.245-1.393.997.997 0 0 1 1.392-.246l1.668 1.168 3.448-4.924a.996.996 0 0 1 1.391-.244c.452.317.563.94.247 1.39l-4.018 5.739a.996.996 0 0 1-1.196.35z" class="color-500" transform="translate(18 10)"/></g><path fill="#000" d="M8 44.9l38 16.5 38-16.5V86H8z" class="color-shadow" opacity=".1"/><path fill="#40A0FF" d="M9.002 84h73.996c.549 0 1.002-.452 1.002-1.009V47L46 65.317 8 47v35.991C8 83.551 8.449 84 9.002 84z" class="color-300"/><path fill="#005CB9" d="M82.928 45.312C84.26 44.466 86 45.422 86 47v35.991c0 .525-.135 1.02-.372 1.45l-.626-.394C84.97 85.04 84.212 86 83 86H9.002A3.004 3.004 0 0 1 6 82.991V47c0-1.577 1.74-2.534 3.072-1.688l37.05 18.277zM8 47v35.991C8 83.551 8.449 84 9.002 84H83L8 47zm76 0L48.259 64.643 84 82.275V47z" class="color-500"/></g></svg>