<svg xmlns="http://www.w3.org/2000/svg" width="92" height="92" class="wd-applet wd-applet-my-recent-purchase-orders" focusable="false" role="presentation" viewBox="0 0 92 92"><g fill="none" fill-rule="evenodd" class="wd-icon-container"><g fill="#0B77E3" fill-opacity=".2" class="animate-flood"><path d="M46 82c19.882 0 36-16.118 36-36S65.882 10 46 10 10 26.118 10 46s16.118 36 36 36z" class="color-400-alpha-20"/></g><g class="animate-shrink"><path fill="#FFF" d="M28 23.507C28 16.047 34.043 10 41.5 10 48.956 10 55 16.046 55 23.507v8.986C55 39.953 48.957 46 41.5 46 34.044 46 28 39.954 28 32.493v-8.986z" class="color-100"/><path fill="#A6D2FF" d="M17 59c0-6.075 4.923-11 10.997-11h27.006C61.077 48 66 52.924 66 59v11H17V59z" class="color-200"/><path fill="#005CB9" fill-rule="nonzero" d="M17 59v11h49V59c0-6.076-4.923-11-10.997-11H27.997C21.923 48 17 52.925 17 59zm-2 0c0-7.18 5.818-13 12.997-13h27.006C62.182 46 68 51.82 68 59v10.997A2.002 2.002 0 0 1 66.003 72H16.997A1.998 1.998 0 0 1 15 69.997V59zm13-35.493v8.986C28 39.954 34.044 46 41.5 46 48.957 46 55 39.952 55 32.493v-8.986C55 16.046 48.956 10 41.5 10 34.043 10 28 16.048 28 23.507zm-2 0C26 14.943 32.938 8 41.5 8 50.061 8 57 14.942 57 23.507v8.986C57 41.057 50.062 48 41.5 48 32.939 48 26 41.058 26 32.493v-8.986z" class="color-500"/><path fill="#000" d="M68 59v13H42V55.999A3 3 0 0 1 44.993 53h21.543A12.948 12.948 0 0 1 68 59z" class="color-shadow" opacity=".1"/></g><g class="animate-grow"><rect width="32" height="21" x="2" y="2" fill="#FFF" class="color-100" rx="1" transform="translate(44 55)"/><path fill="#005CB9" fill-rule="nonzero" d="M2 2.999V22c0 .56.444.999.993.999h30.014a1 1 0 0 0 .993-.999V3A.99.99 0 0 0 33.007 2H2.993A1 1 0 0 0 2 2.999zm-2 0A3 3 0 0 1 2.993 0h30.014A2.99 2.99 0 0 1 36 2.999V22A3 3 0 0 1 33.007 25H2.993A2.99 2.99 0 0 1 0 22.001V3z" class="color-500" transform="translate(44 55)"/><rect width="6" height="3" x="4" y="6" fill="#A6D2FF" class="color-200" rx="1" transform="translate(44 55)"/><rect width="8" height="5" x="24" y="5" fill="#A6D2FF" class="color-200" rx="1" transform="translate(44 55)"/><path fill="#40A0FF" d="M4 13.999A.997.997 0 0 1 5 13h3c.552 0 1 .443 1 .999v1.002A.997.997 0 0 1 8 16H5c-.552 0-1-.443-1-.999v-1.002zm0 5c0-.552.453-.999.997-.999h6.006c.55 0 .997.443.997.999v1.002c0 .552-.453.999-.997.999H4.997A.995.995 0 0 1 4 20.001v-1.002zm10 0c0-.552.445-.999.996-.999h9.008c.55 0 .996.443.996.999v1.002a.997.997 0 0 1-.996.999h-9.008a.994.994 0 0 1-.996-.999v-1.002zm-2-5A.997.997 0 0 1 13 13h3c.552 0 1 .443 1 .999v1.002A.997.997 0 0 1 16 16h-3c-.552 0-1-.443-1-.999v-1.002zm8 0A.997.997 0 0 1 21 13h3c.552 0 1 .443 1 .999v1.002A.997.997 0 0 1 24 16h-3c-.552 0-1-.443-1-.999v-1.002zm8 0A.999.999 0 0 1 29.01 13h1.98c.558 0 1.01.443 1.01.999v1.002a.999.999 0 0 1-1.01.999h-1.98c-.558 0-1.01-.443-1.01-.999v-1.002z" class="color-300" transform="translate(44 55)"/></g></g></svg>