<svg xmlns="http://www.w3.org/2000/svg" width="92" height="92" class="wd-applet wd-applet-my-schedule" focusable="false" role="presentation" viewBox="0 0 92 92"><g fill="none" fill-rule="evenodd" class="wd-icon-container"><g fill="#0B77E3" fill-opacity=".2" class="animate-flood"><path d="M46 82c19.882 0 36-16.118 36-36S65.882 10 46 10 10 26.118 10 46s16.118 36 36 36z" class="color-400-alpha-20"/></g><g class="animate-shrink"><path fill="#FFF" d="M19 33h54v35.565A2.425 2.425 0 0 1 70.575 71h-49.15A2.434 2.434 0 0 1 19 68.565V33z" class="color-100"/><path fill="#40A0FF" d="M43 41.99c0-.546.451-.99.99-.99h4.02c.546 0 .99.451.99.99v4.02c0 .546-.451.99-.99.99h-4.02a.996.996 0 0 1-.99-.99v-4.02zm10 0c0-.546.451-.99.99-.99h4.02c.546 0 .99.451.99.99v4.02c0 .546-.451.99-.99.99h-4.02a.996.996 0 0 1-.99-.99v-4.02zm10 0c0-.546.451-.99.99-.99h4.02c.546 0 .99.451.99.99v4.02c0 .546-.451.99-.99.99h-4.02a.996.996 0 0 1-.99-.99v-4.02zm-20 10c0-.546.451-.99.99-.99h4.02c.546 0 .99.451.99.99v4.02c0 .546-.451.99-.99.99h-4.02a.996.996 0 0 1-.99-.99v-4.02zm10 0c0-.546.451-.99.99-.99h4.02c.546 0 .99.451.99.99v4.02c0 .546-.451.99-.99.99h-4.02a.996.996 0 0 1-.99-.99v-4.02zm10 0c0-.546.451-.99.99-.99h4.02c.546 0 .99.451.99.99v4.02c0 .546-.451.99-.99.99h-4.02a.996.996 0 0 1-.99-.99v-4.02zm-10 10c0-.546.451-.99.99-.99h4.02c.546 0 .99.451.99.99v4.02c0 .546-.451.99-.99.99h-4.02a.996.996 0 0 1-.99-.99v-4.02zm10 0c0-.546.451-.99.99-.99h4.02c.546 0 .99.451.99.99v4.02c0 .546-.451.99-.99.99h-4.02a.996.996 0 0 1-.99-.99v-4.02zm-40-10c0-.546.451-.99.99-.99h4.02c.546 0 .99.451.99.99v4.02c0 .546-.451.99-.99.99h-4.02a.996.996 0 0 1-.99-.99v-4.02zm10 0c0-.546.451-.99.99-.99h4.02c.546 0 .99.451.99.99v4.02c0 .546-.451.99-.99.99h-4.02a.996.996 0 0 1-.99-.99v-4.02zm10 10c0-.546.451-.99.99-.99h4.02c.546 0 .99.451.99.99v4.02c0 .546-.451.99-.99.99h-4.02a.996.996 0 0 1-.99-.99v-4.02zm-20 0c0-.546.451-.99.99-.99h4.02c.546 0 .99.451.99.99v4.02c0 .546-.451.99-.99.99h-4.02a.996.996 0 0 1-.99-.99v-4.02zm10 0c0-.546.451-.99.99-.99h4.02c.546 0 .99.451.99.99v4.02c0 .546-.451.99-.99.99h-4.02a.996.996 0 0 1-.99-.99v-4.02z" class="color-300"/><path fill="#A6D2FF" d="M33 41.99c0-.546.451-.99.99-.99h4.02c.546 0 .99.451.99.99v4.02c0 .546-.451.99-.99.99h-4.02a.996.996 0 0 1-.99-.99v-4.02zm-10 0c0-.546.451-.99.99-.99h4.02c.546 0 .99.451.99.99v4.02c0 .546-.451.99-.99.99h-4.02a.996.996 0 0 1-.99-.99v-4.02z" class="color-200"/><path fill="#40A0FF" d="M70.575 21A2.426 2.426 0 0 1 73 23.428V33H19v-9.572A2.422 2.422 0 0 1 21.425 21h49.15zM29 25a2 2 0 1 0 0 4 2 2 0 0 0 0-4zm34 0a2 2 0 1 0 0 4 2 2 0 0 0 0-4z" class="color-300"/><path fill="#000" d="M54 63c0-8.284 6.566-15 14.682-15h.305c1.243 0 2.866.158 4.019.455V71H56.26A15.169 15.169 0 0 1 54 63z" class="color-shadow" opacity=".1"/><path fill="#005CB9" fill-rule="nonzero" d="M19 23.429V68.57A2.43 2.43 0 0 0 21.425 71h49.15A2.422 2.422 0 0 0 73 68.571V23.43A2.43 2.43 0 0 0 70.575 21h-49.15A2.422 2.422 0 0 0 19 23.429zM29 29a2 2 0 1 0 0-4 2 2 0 0 0 0 4zm0 2a4 4 0 1 1 0-8 4 4 0 0 1 0 8zm34-2a2 2 0 1 0 0-4 2 2 0 0 0 0 4zm0 2a4 4 0 1 1 0-8 4 4 0 0 1 0 8zm-46-7.571A4.422 4.422 0 0 1 21.425 19h49.15A4.43 4.43 0 0 1 75 23.429V68.57A4.422 4.422 0 0 1 70.575 73h-49.15A4.43 4.43 0 0 1 17 68.571V23.43z" class="color-500"/><path fill="#0B77E3" d="M19 33h54v4H19z" class="color-400"/></g><g class="animate-grow"><path fill="#A6D2FF" d="M6 24.381A12.957 12.957 0 0 0 15 28c3.493 0 6.664-1.377 9-3.619V23h.624H24c0-1.659-1.34-3-2.992-3H8.992A2.993 2.993 0 0 0 6 23h-.624H6v1.381zm-1.913-2.314A12.94 12.94 0 0 1 2 15C2 7.82 7.819 2 15 2c7.18 0 13 5.819 13 13a12.94 12.94 0 0 1-2.087 7.067A4.995 4.995 0 0 0 21.008 18H8.992a4.992 4.992 0 0 0-4.905 4.067zM18.315 18h-6.632A5.997 5.997 0 0 1 9 12.998v-2.996A6.004 6.004 0 0 1 15 4c3.314 0 6 2.688 6 6.002v2.996A6 6 0 0 1 18.315 18z" class="color-200" transform="translate(56 50)"/><path fill="#40A0FF" d="M6 24.381A12.957 12.957 0 0 0 15 28c3.493 0 6.664-1.377 9-3.619V23h.624H24c0-1.659-1.34-3-2.992-3H8.992A2.993 2.993 0 0 0 6 23h-.624H6v1.381z" class="color-300" transform="translate(56 50)"/><rect width="9" height="12" x="10.5" y="5.5" fill="#FFF" class="color-100" rx="4.5" transform="translate(56 50)"/><path fill="#005CB9" fill-rule="nonzero" d="M15 0c8.285 0 15 6.715 15 15s-6.715 15-15 15S0 23.285 0 15 6.715 0 15 0zm6.008 20H8.992a2.993 2.993 0 0 0-2.987 2.823L6 23v1.381A12.957 12.957 0 0 0 15 28c3.493 0 6.664-1.377 9-3.619V23c0-1.659-1.34-3-2.992-3zM15 2C7.819 2 2 7.82 2 15c0 2.606.767 5.033 2.087 7.067A4.992 4.992 0 0 1 8.992 18h2.69A5.997 5.997 0 0 1 9 12.998v-2.996A6.004 6.004 0 0 1 15 4c3.314 0 6 2.688 6 6.002v2.996A6 6 0 0 1 18.315 18h2.693c2.439 0 4.47 1.75 4.905 4.067A12.94 12.94 0 0 0 28 15c0-7.181-5.82-13-13-13zm0 4l-.2.005a4.005 4.005 0 0 0-3.8 3.997v2.996C11 15.208 12.79 17 15 17l.2-.005a4.005 4.005 0 0 0 3.8-3.997v-2.996C19 7.792 17.21 6 15 6z" class="color-500" transform="translate(56 50)"/></g></g></svg>