<svg xmlns="http://www.w3.org/2000/svg" width="92" height="92" class="wd-applet wd-applet-notebooks" focusable="false" role="presentation" viewBox="0 0 92 92"><g fill="none" fill-rule="evenodd" class="wd-icon-container"><g fill="#0B77E3" fill-opacity=".2" class="animate-flood"><path d="M46 82c19.882 0 36-16.118 36-36S65.882 10 46 10 10 26.118 10 46s16.118 36 36 36z" class="color-400-alpha-20"/></g><g class="animate-sink"><path fill="#005CB9" fill-rule="nonzero" d="M19 0a2 2 0 0 1 2 2v13a2 2 0 0 1-2 2H2a2 2 0 0 1-2-2V8.5C0 3.81 3.808 0 8.5 0H19zm0 2H8.5C4.91 2 2 4.917 2 8.5V15h17V2z" class="color-500" transform="translate(18 9)"/><path fill="#005CB9" fill-rule="nonzero" d="M48.003 68A2.996 2.996 0 0 0 51 64.995V3.005A3 3 0 0 0 48.003 0H7.997A2.996 2.996 0 0 0 5 3.005v61.99A3 3 0 0 0 7.997 68h40.006zm0-2H7.997A1 1 0 0 1 7 64.995V3.005A.996.996 0 0 1 7.997 2h40.006A1 1 0 0 1 49 3.005v61.99A.996.996 0 0 1 48.003 66z" class="color-500" transform="translate(18 9)"/><rect width="42" height="64" x="7" y="2" fill="#40A0FF" class="color-300" rx="1" transform="translate(18 9)"/></g><g class="animate-sink-less"><path fill="#005CB9" fill-rule="nonzero" d="M48.997 0A3 3 0 0 1 52 3.005v61.99A3.001 3.001 0 0 1 48.997 68H3.003A3 3 0 0 1 0 64.995V3.005A3.001 3.001 0 0 1 3.003 0h45.994zm0 2H3.003C2.445 2 2 2.45 2 3.005v61.99A1 1 0 0 0 3.003 66h45.994c.558 0 1.003-.45 1.003-1.005V3.005A1 1 0 0 0 48.997 2z" class="color-500" transform="translate(20 12)"/><rect width="48" height="64" x="2" y="2" fill="#A6D2FF" class="color-200" rx="1" transform="translate(20 12)"/></g><g class="animate-float"><path fill="#005CB9" fill-rule="nonzero" d="M53.008 2A2.994 2.994 0 0 1 56 5.005v61.99A3.002 3.002 0 0 1 53.008 70H2.992A2.994 2.994 0 0 1 0 66.995V5.005A3.002 3.002 0 0 1 2.992 2h50.016zm0 2H2.992C2.45 4 2 4.45 2 5.005v61.99A.994.994 0 0 0 2.992 68h50.016c.542 0 .992-.45.992-1.005V5.005A.994.994 0 0 0 53.008 4z" class="color-500" transform="translate(18 13)"/><rect width="52" height="64" x="2" y="4" fill="#FFF" class="color-100" rx="1" transform="translate(18 13)"/><path fill="#005CB9" fill-rule="nonzero" d="M6 2a2 2 0 0 1 2 2v64a2 2 0 0 1-2 2H3.01A3.003 3.003 0 0 1 0 66.995V5.005A3.002 3.002 0 0 1 3.01 2H6zm0 2H3.01C2.442 4 2 4.45 2 5.005v61.99C2 67.557 2.452 68 3.01 68H6V4z" class="color-500" transform="translate(18 13)"/><path fill="#0B77E3" d="M2 5.005C2 4.45 2.443 4 3.01 4H6v64H3.01C2.451 68 2 67.557 2 66.995V5.005z" class="color-400" transform="translate(18 13)"/><path fill="#005CB9" fill-rule="nonzero" d="M22 0a2 2 0 0 1 2 2v15a2.5 2.5 0 0 1-4 2l-2-1.5-2 1.5a2.5 2.5 0 0 1-4-2V2a2 2 0 0 1 2-2h8z" class="color-500" transform="translate(18 13)"/><path fill="#A6D2FF" d="M14 2h8v15a.5.5 0 0 1-.8.4l-2.9-2.175a.5.5 0 0 0-.6 0L14.8 17.4a.5.5 0 0 1-.8-.4V2z" class="color-200" transform="translate(18 13)"/></g></g></svg>