<svg xmlns="http://www.w3.org/2000/svg" width="92" height="92" class="wd-applet wd-applet-onboarding" focusable="false" role="presentation" viewBox="0 0 92 92"><g fill="none" fill-rule="evenodd" class="wd-icon-container"><g fill="#0B77E3" fill-opacity=".2" class="animate-flood"><path d="M46 82c19.882 0 36-16.118 36-36S65.882 10 46 10 10 26.118 10 46s16.118 36 36 36z" class="color-400-alpha-20"/></g><path fill="#40A0FF" d="M66 18v48h12V21.003A3 3 0 0 0 75.003 18H66z" class="color-300"/><path fill="#005CB9" fill-rule="nonzero" d="M75.003 16A5 5 0 0 1 80 21.003V64a2 2 0 0 1-2 2H66a2 2 0 0 1-2-2V18a2 2 0 0 1 2-2h9.003zm0 2H66v46h12V21.003A3 3 0 0 0 75.003 18z" class="color-500"/><path fill="#FFF" d="M17.997 22A2.997 2.997 0 0 0 15 24.994V75l4-5h55.993A4.003 4.003 0 0 0 79 65.99v-1.98A4.001 4.001 0 0 0 75.007 60h-9A1.006 1.006 0 0 1 65 59.003V22H17.997z" class="color-100"/><path fill="#000" d="M78.171 65.273c.492-1.345-.5-5.15-4.164-5.273h-9A1.006 1.006 0 0 1 64 59.003V22h-4v40.007c0 .547.445.993.993.993h13.012a4.05 4.05 0 0 1 3.9 3.013c.115-.276.173-.483.266-.74z" class="color-shadow" opacity=".1"/><path fill="#005CB9" fill-rule="nonzero" d="M12 73c0 1.89 2.38 2.726 3.562 1.25l3.4-2.25h55.031C77.31 72 80 68.311 80 65c0-3.313-2.682-7-5.993-7H66V22a2 2 0 0 0-2-2H16.997A5.002 5.002 0 0 0 12 25.005V73zm2 0V25.005A3.002 3.002 0 0 1 16.997 22H64v37.003c0 .544.45.997 1.007.997h9C76.213 60 78 62.79 78 65c0 2.205-1.794 5-4.007 5H18l-4 3z" class="color-500"/><path fill="#005CB9" fill-rule="nonzero" d="M26 70a2 2 0 0 1 2 2v2a2 2 0 0 1-2 2H15.002A3.006 3.006 0 0 1 12 73c0-1.662 1.345-3 3.002-3H26zm0 2H15.002a.999.999 0 1 0 0 2H26v-2zM22.812 49.607c.015-.02.914-1.222 1.197-1.582a1 1 0 1 0-1.57-1.239c-.303.384-1.215 1.605-1.216 1.607a1 1 0 0 0 1.589 1.214zm4.609-4.52a5.987 5.987 0 0 1 1.649-.472 1 1 0 1 0-.273-1.982 7.986 7.986 0 0 0-2.196.63 1 1 0 1 0 .82 1.824zm6.126.203l.25.098c.452.18.805.416 1.082.707a1 1 0 1 0 1.45-1.378 4.983 4.983 0 0 0-1.789-1.186c-.095-.038-.189-.075-.283-.11a1 1 0 0 0-.71 1.87zm2.215 4.877c-.04.567-.113 1.184-.22 1.912a1 1 0 0 0 1.978.292c.115-.775.193-1.44.237-2.063a1 1 0 0 0-1.995-.14zm-.965 6.895c-.075.82-.089 1.534-.031 2.18a1 1 0 0 0 1.992-.177c-.046-.513-.034-1.111.03-1.82a1 1 0 1 0-1.99-.183zm4.03 6.392c.656.069 1.393.055 2.22-.042a1 1 0 1 0-.232-1.986c-.688.08-1.28.091-1.78.039a1 1 0 1 0-.208 1.99zm7.403-1.494c.714-.37 1.335-.801 1.865-1.29a1 1 0 1 0-1.357-1.47 6.44 6.44 0 0 1-1.426.983 1 1 0 1 0 .918 1.777z" class="color-500"/><path fill="#40A0FF" d="M15.002 72A.999.999 0 0 0 14 73c0 .552.456 1 1.002 1H26v-2H15.002zm8.013-43.37a9.803 9.803 0 0 0-2.55-6.63h-3.862c-2.377 0 0 0 0 0C15.165 22 14 23.342 14 25.003v45.293S14.58 70 16 70h14S16.603 55.787 18.931 45.457c2.329-10.33 4.084-10.492 4.084-16.828z" class="color-300"/><g fill="#40A0FF" class="animate-shrink"><path d="M49.5 57c4.694 0 8.5-2.239 8.5-5s-3.806-5-8.5-5-8.5 2.239-8.5 5 3.806 5 8.5 5z" class="color-300"/></g><g class="animate-float"><path fill="#40A0FF" d="M49.485 31C52.947 31 56 33.364 56 38.086s-6.192 11.757-6.192 11.757a.421.421 0 0 1-.653.003S43 43.087 43 38.086c0-5 3.024-7.086 6.485-7.086zm.155 2.943a4 4 0 1 0 0 8 4 4 0 0 0 0-8z" class="color-300"/><path fill="#005CB9" fill-rule="nonzero" d="M49.485 29C54.375 29 58 32.58 58 38.086c0 1.411-.398 2.938-1.116 4.586-.584 1.342-1.37 2.738-2.31 4.164a43.964 43.964 0 0 1-3.237 4.297 2.42 2.42 0 0 1-3.67.05 39.935 39.935 0 0 1-3.256-4.235c-1.113-1.675-2.007-3.323-2.605-4.912-.521-1.388-.806-2.705-.806-3.95C41 32.38 44.504 29 49.485 29zm0 2C46.024 31 43 33.085 43 38.086s6.155 11.76 6.155 11.76a.421.421 0 0 0 .653-.003S56 42.808 56 38.086C56 33.364 52.947 31 49.485 31zm.155 2.943a4 4 0 1 1 0 8 4 4 0 0 1 0-8zm0 2a2 2 0 1 0 0 4 2 2 0 0 0 0-4z" class="color-500"/></g></g></svg>