<svg xmlns="http://www.w3.org/2000/svg" width="92" height="92" class="wd-applet wd-applet-organization" focusable="false" role="presentation" viewBox="0 0 92 92"><g fill="none" fill-rule="evenodd" class="wd-icon-container"><g fill="#0B77E3" fill-opacity=".2" class="animate-flood"><path d="M46 82c19.882 0 36-16.118 36-36S65.882 10 46 10 10 26.118 10 46s16.118 36 36 36z" class="color-400-alpha-20"/></g><path fill="#005CB9" fill-rule="nonzero" d="M46.5 75C30.76 75 18 62.24 18 46.5S30.76 18 46.5 18 75 30.76 75 46.5 62.24 75 46.5 75zm0-2C61.136 73 73 61.136 73 46.5S61.136 20 46.5 20 20 31.864 20 46.5 31.864 73 46.5 73z" class="color-500"/><g class="animate-grow"><path fill="#A6D2FF" d="M59 72.381A12.957 12.957 0 0 0 68 76c3.493 0 6.664-1.377 9-3.619V71h.624H77c0-1.659-1.34-3-2.992-3H61.992A2.993 2.993 0 0 0 59 71h-.624H59v1.381zm-1.913-2.314A12.94 12.94 0 0 1 55 63c0-7.18 5.819-13 13-13 7.18 0 13 5.819 13 13a12.94 12.94 0 0 1-2.087 7.067A4.995 4.995 0 0 0 74.008 66H61.992a4.992 4.992 0 0 0-4.905 4.067zM71.315 66h-6.632A5.997 5.997 0 0 1 62 60.998v-2.996A6.004 6.004 0 0 1 68 52c3.314 0 6 2.688 6 6.002v2.996A6 6 0 0 1 71.315 66z" class="color-200"/><path fill="#40A0FF" d="M59 72.381A12.957 12.957 0 0 0 68 76c3.493 0 6.664-1.377 9-3.619V71h.624H77c0-1.659-1.34-3-2.992-3H61.992A2.993 2.993 0 0 0 59 71h-.624H59v1.381z" class="color-300"/><path fill="#FFF" d="M63.5 58.002A4.504 4.504 0 0 1 68 53.5c2.485 0 4.5 2.009 4.5 4.502v2.996A4.504 4.504 0 0 1 68 65.5a4.497 4.497 0 0 1-4.5-4.502v-2.996z" class="color-100"/><path fill="#005CB9" fill-rule="nonzero" d="M68 48c8.285 0 15 6.715 15 15s-6.715 15-15 15-15-6.715-15-15 6.715-15 15-15zm6.008 20H61.992a2.993 2.993 0 0 0-2.987 2.823L59 71v1.381A12.957 12.957 0 0 0 68 76c3.493 0 6.664-1.377 9-3.619V71c0-1.659-1.34-3-2.992-3zM68 50c-7.181 0-13 5.82-13 13 0 2.606.767 5.033 2.087 7.067A4.992 4.992 0 0 1 61.992 66h2.69A5.997 5.997 0 0 1 62 60.998v-2.996A6.004 6.004 0 0 1 68 52c3.314 0 6 2.688 6 6.002v2.996A6 6 0 0 1 71.315 66h2.693c2.439 0 4.47 1.75 4.905 4.067A12.94 12.94 0 0 0 81 63c0-7.181-5.82-13-13-13zm0 4l-.2.005a4.005 4.005 0 0 0-3.8 3.997v2.996C64 63.208 65.79 65 68 65l.2-.005a4.005 4.005 0 0 0 3.8-3.997v-2.996C72 55.792 70.21 54 68 54z" class="color-500"/></g><g class="animate-grow"><path fill="#A6D2FF" d="M15 72.381A12.957 12.957 0 0 0 24 76c3.493 0 6.664-1.377 9-3.619V71h.624H33c0-1.659-1.34-3-2.992-3H17.992A2.993 2.993 0 0 0 15 71h-.624H15v1.381zm-1.913-2.314A12.94 12.94 0 0 1 11 63c0-7.18 5.819-13 13-13 7.18 0 13 5.819 13 13a12.94 12.94 0 0 1-2.087 7.067A4.995 4.995 0 0 0 30.008 66H17.992a4.992 4.992 0 0 0-4.905 4.067zM27.315 66h-6.632A5.997 5.997 0 0 1 18 60.998v-2.996A6.004 6.004 0 0 1 24 52c3.314 0 6 2.688 6 6.002v2.996A6 6 0 0 1 27.315 66z" class="color-200"/><path fill="#40A0FF" d="M15 72.381A12.957 12.957 0 0 0 24 76c3.493 0 6.664-1.377 9-3.619V71h.624H33c0-1.659-1.34-3-2.992-3H17.992A2.993 2.993 0 0 0 15 71h-.624H15v1.381z" class="color-300"/><path fill="#FFF" d="M19.5 58.002A4.504 4.504 0 0 1 24 53.5c2.485 0 4.5 2.009 4.5 4.502v2.996A4.504 4.504 0 0 1 24 65.5a4.497 4.497 0 0 1-4.5-4.502v-2.996z" class="color-100"/><path fill="#005CB9" fill-rule="nonzero" d="M24 48c8.285 0 15 6.715 15 15s-6.715 15-15 15S9 71.285 9 63s6.715-15 15-15zm6.008 20H17.992a2.993 2.993 0 0 0-2.987 2.823L15 71v1.381A12.957 12.957 0 0 0 24 76c3.493 0 6.664-1.377 9-3.619V71c0-1.659-1.34-3-2.992-3zM24 50c-7.181 0-13 5.82-13 13 0 2.606.767 5.033 2.087 7.067A4.992 4.992 0 0 1 17.992 66h2.69A5.997 5.997 0 0 1 18 60.998v-2.996A6.004 6.004 0 0 1 24 52c3.314 0 6 2.688 6 6.002v2.996A6 6 0 0 1 27.315 66h2.693c2.439 0 4.47 1.75 4.905 4.067A12.94 12.94 0 0 0 37 63c0-7.181-5.82-13-13-13zm0 4l-.2.005a4.005 4.005 0 0 0-3.8 3.997v2.996C20 63.208 21.79 65 24 65l.2-.005a4.005 4.005 0 0 0 3.8-3.997v-2.996C28 55.792 26.21 54 24 54z" class="color-500"/></g><g class="animate-grow"><path fill="#A6D2FF" d="M37 33.381A12.957 12.957 0 0 0 46 37c3.493 0 6.664-1.377 9-3.619V32h.624H55c0-1.659-1.34-3-2.992-3H39.992A2.993 2.993 0 0 0 37 32h-.624H37v1.381zm-1.913-2.314A12.94 12.94 0 0 1 33 24c0-7.18 5.819-13 13-13 7.18 0 13 5.819 13 13a12.94 12.94 0 0 1-2.087 7.067A4.995 4.995 0 0 0 52.008 27H39.992a4.992 4.992 0 0 0-4.905 4.067zM49.315 27h-6.632A5.997 5.997 0 0 1 40 21.998v-2.996A6.004 6.004 0 0 1 46 13c3.314 0 6 2.688 6 6.002v2.996A6 6 0 0 1 49.315 27z" class="color-200"/><path fill="#40A0FF" d="M37 33.381A12.957 12.957 0 0 0 46 37c3.493 0 6.664-1.377 9-3.619V32h.624H55c0-1.659-1.34-3-2.992-3H39.992A2.993 2.993 0 0 0 37 32h-.624H37v1.381z" class="color-300"/><path fill="#FFF" d="M41.5 19.002A4.504 4.504 0 0 1 46 14.5c2.485 0 4.5 2.009 4.5 4.502v2.996A4.504 4.504 0 0 1 46 26.5a4.497 4.497 0 0 1-4.5-4.502v-2.996z" class="color-100"/><path fill="#005CB9" fill-rule="nonzero" d="M46 9c8.285 0 15 6.715 15 15s-6.715 15-15 15-15-6.715-15-15S37.715 9 46 9zm6.008 20H39.992a2.993 2.993 0 0 0-2.987 2.823L37 32v1.381A12.957 12.957 0 0 0 46 37c3.493 0 6.664-1.377 9-3.619V32c0-1.659-1.34-3-2.992-3zM46 11c-7.181 0-13 5.82-13 13 0 2.606.767 5.033 2.087 7.067A4.992 4.992 0 0 1 39.992 27h2.69A5.997 5.997 0 0 1 40 21.998v-2.996A6.004 6.004 0 0 1 46 13c3.314 0 6 2.688 6 6.002v2.996A6 6 0 0 1 49.315 27h2.693c2.439 0 4.47 1.75 4.905 4.067A12.94 12.94 0 0 0 59 24c0-7.181-5.82-13-13-13zm0 4l-.2.005a4.005 4.005 0 0 0-3.8 3.997v2.996C42 24.208 43.79 26 46 26l.2-.005a4.005 4.005 0 0 0 3.8-3.997v-2.996C50 16.792 48.21 15 46 15z" class="color-500"/></g></g></svg>