<svg xmlns="http://www.w3.org/2000/svg" width="92" height="92" fill="none" class="wd-applet-paw wd-applet" focusable="false" role="presentation" viewBox="0 0 92 92"><g class="wd-icon-container"><g class="animate-flood"><path fill="#0B77E3" fill-opacity=".2" fill-rule="evenodd" d="M46 82c19.882 0 36-16.118 36-36S65.882 10 46 10 10 26.118 10 46s16.118 36 36 36z" class="color-400-alpha-20" clip-rule="evenodd"/></g><g class="animate-shrink"><path fill="#fff" d="M28.245 39.89c-1.05-2.987-3.7-4.556-5.764-3.778-2.064.777-3.12 3.742-2.07 6.729 1.05 2.986 3.7 4.555 5.764 3.777 2.064-.778 3.12-3.743 2.07-6.729zm13.733-13.085c-.533-3.13-2.88-5.15-5.043-4.756-2.163.395-3.7 3.125-3.167 6.255.533 3.13 2.88 5.15 5.043 4.756 2.163-.395 3.7-3.125 3.167-6.255zm16.254 1.499c.533-3.13-1.004-5.86-3.167-6.255-2.164-.395-4.51 1.627-5.043 4.756-.533 3.13 1.004 5.86 3.167 6.255 2.163.395 4.51-1.626 5.043-4.756zM71.588 42.84c1.05-2.987-.005-5.952-2.07-6.73-2.064-.777-4.713.792-5.763 3.778-1.05 2.986.005 5.951 2.07 6.73 2.064.777 4.713-.792 5.763-3.778zm-30.84 22.245c.326-.137.416-.175.577-.24 1.74-.715 3.042-1.055 4.675-1.057 1.663-.001 2.978.357 4.794 1.124.146.061.27.115.527.225 2.446 1.052 3.355 1.154 5.336.235 5.582-2.588 4.391-11.85-2.079-18.548-5.593-5.79-11.557-5.79-17.15 0-6.51 6.74-7.761 16.176-2.17 18.508 2.114.882 3.059.775 5.49-.247z" class="color-100"/><path fill="#005DBA" d="M28.246 39.889c-1.05-2.986-3.7-4.555-5.764-3.777-2.064.777-3.12 3.742-2.07 6.729 1.05 2.986 3.7 4.555 5.764 3.777 2.064-.778 3.12-3.743 2.07-6.729zm1.887-.663c1.353 3.85.003 8.037-3.252 9.264-3.295 1.241-6.992-1.108-8.355-4.986-1.354-3.85-.004-8.038 3.25-9.264 3.296-1.242 6.993 1.108 8.357 4.986zm11.846-12.42c-.533-3.13-2.88-5.152-5.043-4.757-2.163.395-3.7 3.125-3.167 6.255.533 3.13 2.88 5.15 5.043 4.756 2.163-.395 3.7-3.125 3.167-6.255zm1.971-.337c.688 4.037-1.351 7.933-4.78 8.558-3.45.63-6.682-2.335-7.373-6.387-.687-4.038 1.352-7.933 4.78-8.558 3.45-.63 6.683 2.335 7.373 6.387zm14.282 1.835c.534-3.13-1.004-5.86-3.167-6.255-2.163-.395-4.51 1.627-5.042 4.756-.534 3.13 1.004 5.86 3.167 6.255 2.163.395 4.51-1.627 5.042-4.756zm1.972.336c-.69 4.052-3.923 7.017-7.373 6.387-3.428-.625-5.468-4.52-4.78-8.558.69-4.052 3.923-7.017 7.373-6.387 3.428.625 5.468 4.52 4.78 8.558zm11.385 14.2c1.05-2.986-.006-5.95-2.07-6.728-2.064-.778-4.714.79-5.764 3.777-1.05 2.986.006 5.951 2.07 6.729 2.064.778 4.714-.791 5.764-3.777zm1.887.664c-1.364 3.878-5.061 6.227-8.356 4.986-3.255-1.227-4.605-5.414-3.251-9.264 1.363-3.878 5.06-6.227 8.355-4.986 3.255 1.226 4.605 5.414 3.252 9.264zM40.749 65.086c.325-.137.416-.175.577-.241 1.739-.714 3.042-1.054 4.675-1.056 1.663-.001 2.978.357 4.794 1.124l.527.225c2.446 1.052 3.354 1.154 5.336.235 5.582-2.589 4.391-11.85-2.08-18.548-5.593-5.79-11.556-5.79-17.15 0-6.51 6.739-7.76 16.176-2.17 18.508 2.115.882 3.06.774 5.491-.247zm.775 1.843c-2.97 1.249-4.445 1.33-7.036.25-7.242-3.02-5.886-14.095 1.502-21.744 6.38-6.604 13.648-6.604 20.027 0 7.339 7.597 8.614 18.445 1.482 21.752-2.497 1.158-3.966 1.08-6.968-.212l-.515-.22c-1.696-.716-2.73-.967-4.013-.966-1.27.002-2.301.243-3.918.906l-.56.234zM36.001 57a1 1 0 1 0 0-2 1 1 0 0 0 0 2zm7.716-11.125c-1.142.386-2.78 1.317-4.407 2.987a14.14 14.14 0 0 0-2.402 3.32 1 1 0 0 0 1.772.929 12.144 12.144 0 0 1 2.062-2.853 11.44 11.44 0 0 1 2.536-1.97c.506-.287.887-.454 1.08-.52a1 1 0 1 0-.641-1.893z" class="color-500"/></g></g></svg>