<svg xmlns="http://www.w3.org/2000/svg" width="92" height="92" class="wd-applet wd-applet-payroll-work-area" focusable="false" role="presentation" viewBox="0 0 92 92"><g fill="none" fill-rule="evenodd" class="wd-icon-container"><g fill="#0B77E3" fill-opacity=".2" class="animate-flood"><circle cx="36" cy="36" r="36" class="color-400-alpha-20" transform="translate(10 10)"/></g><g class="animate-shrink"><path fill="#FFF" d="M67 75a1 1 0 0 1-.992 1H15.992A1 1 0 0 1 15 75V9a1 1 0 0 1 .992-1h50.016A1 1 0 0 1 67 9v66z" class="color-100"/><path fill="#40A0FF" d="M40 34.001v-1.002c0-.556.45-.999 1.003-.999h20.994a.995.995 0 0 1 1.003.999v1.002c0 .556-.45.999-1.003.999H41.003A.995.995 0 0 1 40 34.001zm0 6v-1.002c0-.556.45-.999 1.003-.999h20.994a.995.995 0 0 1 1.003.999v1.002c0 .556-.45.999-1.003.999H41.003A.995.995 0 0 1 40 40.001zm1 17v-1.002c0-.556.45-.999 1.003-.999h20.994a.995.995 0 0 1 1.003.999v1.002c0 .556-.45.999-1.003.999H42.003A.995.995 0 0 1 41 57.001zm0 6v-1.002A.998.998 0 0 1 42.003 61h4.994a.994.994 0 0 1 1.003.999v1.002a.998.998 0 0 1-1.003.999h-4.994A.994.994 0 0 1 41 63.001z" class="color-300"/><path fill="#005CB9" fill-rule="nonzero" d="M69 75c0 1.657-1.34 3-3 3H15.998A3.002 3.002 0 0 1 13 74.996V9.008C13 7.354 14.338 6 15.992 6h50.016A3 3 0 0 1 69 9v66zm-2 0V9a1 1 0 0 0-.992-1H15.992C15.45 8 15 8.451 15 9.008v65.988c0 .553.447 1.004.998 1.004H66c.555 0 1-.448 1-1zM27 16c0-.556.446-1 .997-1h26.006c.557 0 .997.448.997 1 0 .556-.446 1-.997 1H27.997A.994.994 0 0 1 27 16zm-3 5c0-.556.447-1 1-1h32c.545 0 1 .448 1 1 0 .556-.447 1-1 1H25c-.545 0-1-.448-1-1z" class="color-500"/><path fill="#A6D2FF" d="M19 60a9 9 0 0 1 9-9 9 9 0 0 1 9 9 9 9 0 0 1-9 9 9 9 0 0 1-9-9zm0-23a9 9 0 0 1 9-9 9 9 0 0 1 9 9 9 9 0 0 1-9 9 9 9 0 0 1-9-9z" class="color-200"/><path fill="#40A0FF" d="M24 63.998c0-1.104 2.888-.998 4-.998 1.105 0 4-.102 4 .998v2.004C32 67.106 29.112 68 28 68c-1.105 0-4-.898-4-1.998v-2.004zm0-23c0-1.104 2.888-.998 4-.998 1.105 0 4-.102 4 .998v2.004C32 44.106 29.112 45 28 45c-1.105 0-4-.898-4-1.998v-2.004z" class="color-300"/><path fill="#005CB9" d="M23.98 43h8.04s-.798-1.661-1.784-1.661h-4.472c-.984 0-1.785 1.661-1.785 1.661zm-2 0h12.04c0-2.084-1.695-3.661-3.784-3.661h-4.472c-2.09 0-3.785 1.57-3.785 3.661zm2 23h8.04s-.798-1.661-1.784-1.661h-4.472c-.984 0-1.785 1.661-1.785 1.661zm-2 0h12.04c0-2.084-1.695-3.661-3.784-3.661h-4.472c-2.09 0-3.785 1.57-3.785 3.661z" class="color-500"/><path fill="#005CB9" fill-rule="nonzero" d="M21 60c0 3.858 3.134 7 7 7 3.858 0 7-3.134 7-7 0-3.858-3.134-7-7-7-3.858 0-7 3.134-7 7zm-2 0c0-4.968 4.035-9 9-9 4.968 0 9 4.035 9 9 0 4.968-4.035 9-9 9-4.968 0-9-4.035-9-9zm7-2.002v2.004c0 1.1.895 1.998 2 1.998 1.112 0 2-.894 2-1.998v-2.004c0-1.1-.895-1.998-2-1.998-1.112 0-2 .894-2 1.998zm-2 0A3.994 3.994 0 0 1 28 54c2.208 0 4 1.793 4 3.998v2.004A3.994 3.994 0 0 1 28 64c-2.208 0-4-1.793-4-3.998v-2.004zM21 37c0 3.858 3.134 7 7 7 3.858 0 7-3.134 7-7 0-3.858-3.134-7-7-7-3.858 0-7 3.134-7 7zm-2 0c0-4.968 4.035-9 9-9 4.968 0 9 4.035 9 9 0 4.968-4.035 9-9 9-4.968 0-9-4.035-9-9zm7-2.002v2.004c0 1.1.895 1.998 2 1.998 1.112 0 2-.894 2-1.998v-2.004c0-1.1-.895-1.998-2-1.998-1.112 0-2 .894-2 1.998zm-2 0A3.994 3.994 0 0 1 28 31c2.208 0 4 1.793 4 3.998v2.004A3.994 3.994 0 0 1 28 41c-2.208 0-4-1.793-4-3.998v-2.004z" class="color-500"/><path fill="#FFF" d="M26 57.998c0-1.104.888-1.998 2-1.998 1.105 0 2 .898 2 1.998v2.004A1.994 1.994 0 0 1 28 62c-1.105 0-2-.898-2-1.998v-2.004zm0-23c0-1.104.888-1.998 2-1.998 1.105 0 2 .898 2 1.998v2.004A1.994 1.994 0 0 1 28 39c-1.105 0-2-.898-2-1.998v-2.004z" class="color-100"/></g><g class="animate-sink"><path fill="#40A0FF" d="M57.428 79.237C59.492 80.357 62.246 81 65 81c5.5 0 11-2.566 11-6.364v-2.545L65 76.83l-11-4.74v2.546c0 1.896 1.371 3.485 3.428 4.601z" class="color-300"/><path fill="#A6D2FF" d="M65 77c6.075 0 11-3.358 11-7.5 0-4.142-4.925-7.5-11-7.5s-11 3.358-11 7.5c0 4.142 4.925 7.5 11 7.5z" class="color-200"/><path fill="#FFF" d="M65 73.417c3.866 0 7-1.829 7-4.084s-3.134-4.083-7-4.083-7 1.828-7 4.083 3.134 4.084 7 4.084z" class="color-100"/><path fill="#005CB9" d="M68 80.748V78.75c-.65.11-1.319.185-2 .223v1.999a18.068 18.068 0 0 0 2-.224zm2-.463c.707-.21 1.379-.464 2-.758V77.53c-.633.292-1.302.544-2 .753v2.002zm-6 .687v-2a17.747 17.747 0 0 1-2-.222v1.998c.655.11 1.325.186 2 .224zm-6-1.445c.621.294 1.293.548 2 .758v-2.002a15.227 15.227 0 0 1-2-.753v1.997zm-2-1.233v-1.9a10.736 10.736 0 0 1-2-1.776v.018c0 1.413.761 2.655 2 3.658zm18 0c1.239-1.003 2-2.245 2-3.658v-.018c-.567.654-1.24 1.25-2 1.776v1.9zM52.003 69.7A7.448 7.448 0 0 1 52 69.5c0-5.445 5.947-9.5 13-9.5s13 4.055 13 9.5c0 .067 0 .133-.003.199L78 69.7v4.936C78 79.665 71.837 83 65 83c-3.071 0-6.153-.718-8.525-2.005C53.714 79.498 52 77.287 52 74.636V69.7l.003-.001zM65 77c6.075 0 11-3.358 11-7.5 0-4.142-4.925-7.5-11-7.5s-11 3.358-11 7.5c0 4.142 4.925 7.5 11 7.5zm0-1.583c-4.825 0-9-2.436-9-6.084 0-3.648 4.175-6.083 9-6.083s9 2.435 9 6.083-4.175 6.084-9 6.084zm0-2c3.866 0 7-1.829 7-4.084s-3.134-4.083-7-4.083-7 1.828-7 4.083 3.134 4.084 7 4.084z" class="color-500"/></g><path fill="#40A0FF" d="M54.428 72.237C56.492 73.357 59.246 74 62 74c5.5 0 11-2.566 11-6.364v-2.545L62 69.83l-11-4.74v2.546c0 1.896 1.371 3.485 3.428 4.601z" class="color-300"/><path fill="#A6D2FF" d="M62 70c6.075 0 11-3.358 11-7.5 0-4.142-4.925-7.5-11-7.5s-11 3.358-11 7.5c0 4.142 4.925 7.5 11 7.5z" class="color-200"/><path fill="#FFF" d="M62 66.417c3.866 0 7-1.829 7-4.084s-3.134-4.083-7-4.083-7 1.828-7 4.083 3.134 4.084 7 4.084z" class="color-100"/><path fill="#005CB9" d="M65 73.748V71.75c-.65.11-1.319.185-2 .223v1.999a18.068 18.068 0 0 0 2-.224zm2-.463c.707-.21 1.379-.464 2-.758V70.53c-.633.292-1.302.544-2 .753v2.002zm-6 .687v-2a17.747 17.747 0 0 1-2-.222v1.998c.655.11 1.325.186 2 .224zm-6-1.445c.621.294 1.293.548 2 .758v-2.002a15.227 15.227 0 0 1-2-.753v1.997zm-2-1.233v-1.9a10.736 10.736 0 0 1-2-1.776v.018c0 1.413.761 2.655 2 3.658zm18 0c1.239-1.003 2-2.245 2-3.658v-.018c-.567.654-1.24 1.25-2 1.776v1.9zM49.003 62.7A7.448 7.448 0 0 1 49 62.5c0-5.445 5.947-9.5 13-9.5s13 4.055 13 9.5c0 .067 0 .133-.003.199L75 62.7v4.936C75 72.665 68.837 76 62 76c-3.071 0-6.153-.718-8.525-2.005C50.714 72.498 49 70.287 49 67.636V62.7l.003-.001zM62 70c6.075 0 11-3.358 11-7.5 0-4.142-4.925-7.5-11-7.5s-11 3.358-11 7.5c0 4.142 4.925 7.5 11 7.5zm0-1.583c-4.825 0-9-2.436-9-6.084 0-3.648 4.175-6.083 9-6.083s9 2.435 9 6.083-4.175 6.084-9 6.084zm0-2c3.866 0 7-1.829 7-4.084s-3.134-4.083-7-4.083-7 1.828-7 4.083 3.134 4.084 7 4.084z" class="color-500"/><g class="animate-float"><path fill="#40A0FF" d="M58.428 65.237C60.492 66.357 63.246 67 66 67c5.5 0 11-2.566 11-6.364v-2.545L66 62.83l-11-4.74v2.546c0 1.896 1.371 3.485 3.428 4.601z" class="color-300"/><path fill="#A6D2FF" d="M66 63c6.075 0 11-3.358 11-7.5 0-4.142-4.925-7.5-11-7.5s-11 3.358-11 7.5c0 4.142 4.925 7.5 11 7.5z" class="color-200"/><path fill="#FFF" d="M66 59.417c3.866 0 7-1.829 7-4.084s-3.134-4.083-7-4.083-7 1.828-7 4.083 3.134 4.084 7 4.084z" class="color-100"/><path fill="#005CB9" d="M69 66.748V64.75c-.65.11-1.319.185-2 .223v1.999a18.068 18.068 0 0 0 2-.224zm2-.463c.707-.21 1.379-.464 2-.758V63.53c-.633.292-1.302.544-2 .753v2.002zm-6 .687v-2a17.747 17.747 0 0 1-2-.222v1.998c.655.11 1.325.186 2 .224zm-6-1.445c.621.294 1.293.548 2 .758v-2.002a15.227 15.227 0 0 1-2-.753v1.997zm-2-1.233v-1.9a10.736 10.736 0 0 1-2-1.776v.018c0 1.413.761 2.655 2 3.658zm18 0c1.239-1.003 2-2.245 2-3.658v-.018c-.567.654-1.24 1.25-2 1.776v1.9zM53.003 55.7A7.448 7.448 0 0 1 53 55.5c0-5.445 5.947-9.5 13-9.5s13 4.055 13 9.5c0 .067 0 .133-.003.199L79 55.7v4.936C79 65.665 72.837 69 66 69c-3.071 0-6.153-.718-8.525-2.005C54.714 65.498 53 63.287 53 60.636V55.7l.003-.001zM66 63c6.075 0 11-3.358 11-7.5 0-4.142-4.925-7.5-11-7.5s-11 3.358-11 7.5c0 4.142 4.925 7.5 11 7.5zm0-1.583c-4.825 0-9-2.436-9-6.084 0-3.648 4.175-6.083 9-6.083s9 2.435 9 6.083-4.175 6.084-9 6.084zm0-2c3.866 0 7-1.829 7-4.084s-3.134-4.083-7-4.083-7 1.828-7 4.083 3.134 4.084 7 4.084z" class="color-500"/></g></g></svg>