<svg xmlns="http://www.w3.org/2000/svg" width="92" height="92" class="wd-applet wd-applet-payroll-year-end" focusable="false" role="presentation" viewBox="0 0 92 92"><g fill="none" fill-rule="evenodd" class="wd-icon-container"><g fill="#0B77E3" fill-opacity=".2" class="animate-flood"><circle cx="36" cy="36" r="36" class="color-400-alpha-20" transform="translate(10 10)"/></g><g class="animate-shrink"><path fill="#FFF" d="M19 33h54v35.565A2.425 2.425 0 0 1 70.575 71h-49.15A2.434 2.434 0 0 1 19 68.565V33z" class="color-100"/><path fill="#40A0FF" d="M58.01 61c.546 0 .99.451.99.99v4.02c0 .546-.451.99-.99.99h-4.02a.996.996 0 0 1-.99-.99v-4.02c0-.546.451-.99.99-.99h4.02zm10 0c.546 0 .99.451.99.99v4.02c0 .546-.451.99-.99.99h-4.02a.996.996 0 0 1-.99-.99v-4.02c0-.546.451-.99.99-.99h4.02zm-20 0c.546 0 .99.451.99.99v4.02c0 .546-.451.99-.99.99h-4.02a.996.996 0 0 1-.99-.99v-4.02c0-.546.451-.99.99-.99h4.02zm-20 0c.546 0 .99.451.99.99v4.02c0 .546-.451.99-.99.99h-4.02a.996.996 0 0 1-.99-.99v-4.02c0-.546.451-.99.99-.99h4.02zm10 0c.546 0 .99.451.99.99v4.02c0 .546-.451.99-.99.99h-4.02a.996.996 0 0 1-.99-.99v-4.02c0-.546.451-.99.99-.99h4.02zm10-10c.546 0 .99.451.99.99v4.02c0 .546-.451.99-.99.99h-4.02a.996.996 0 0 1-.99-.99v-4.02c0-.546.451-.99.99-.99h4.02zm10 0c.546 0 .99.451.99.99v4.02c0 .546-.451.99-.99.99h-4.02a.996.996 0 0 1-.99-.99v-4.02c0-.546.451-.99.99-.99h4.02zm10 0c.546 0 .99.451.99.99v4.02c0 .546-.451.99-.99.99h-4.02a.996.996 0 0 1-.99-.99v-4.02c0-.546.451-.99.99-.99h4.02zm-40 0c.546 0 .99.451.99.99v4.02c0 .546-.451.99-.99.99h-4.02a.996.996 0 0 1-.99-.99v-4.02c0-.546.451-.99.99-.99h4.02zm10 0c.546 0 .99.451.99.99v4.02c0 .546-.451.99-.99.99h-4.02a.996.996 0 0 1-.99-.99v-4.02c0-.546.451-.99.99-.99h4.02zm10-10c.546 0 .99.451.99.99v4.02c0 .546-.451.99-.99.99h-4.02a.996.996 0 0 1-.99-.99v-4.02c0-.546.451-.99.99-.99h4.02zm10 0c.546 0 .99.451.99.99v4.02c0 .546-.451.99-.99.99h-4.02a.996.996 0 0 1-.99-.99v-4.02c0-.546.451-.99.99-.99h4.02zm10 0c.546 0 .99.451.99.99v4.02c0 .546-.451.99-.99.99h-4.02a.996.996 0 0 1-.99-.99v-4.02c0-.546.451-.99.99-.99h4.02zm2.565-20A2.426 2.426 0 0 1 73 23.428V33H19v-9.572A2.422 2.422 0 0 1 21.425 21h49.15zM29 25a2 2 0 1 0 0 4 2 2 0 0 0 0-4zm34 0a2 2 0 1 0 0 4 2 2 0 0 0 0-4z" class="color-300"/><path fill="#000" d="M54 63c0-8.284 6.566-15 14.682-15h.305c1.243 0 2.866.158 4.019.455V71H56.26A15.169 15.169 0 0 1 54 63z" class="color-shadow" opacity=".1"/><path fill="#005CB9" fill-rule="nonzero" d="M19 23.429V68.57A2.43 2.43 0 0 0 21.425 71h49.15A2.422 2.422 0 0 0 73 68.571V23.43A2.43 2.43 0 0 0 70.575 21h-49.15A2.422 2.422 0 0 0 19 23.429zM29 29a2 2 0 1 0 0-4 2 2 0 0 0 0 4zm0 2a4 4 0 1 1 0-8 4 4 0 0 1 0 8zm34-2a2 2 0 1 0 0-4 2 2 0 0 0 0 4zm0 2a4 4 0 1 1 0-8 4 4 0 0 1 0 8zm-46-7.571A4.422 4.422 0 0 1 21.425 19h49.15A4.43 4.43 0 0 1 75 23.429V68.57A4.422 4.422 0 0 1 70.575 73h-49.15A4.43 4.43 0 0 1 17 68.571V23.43z" class="color-500"/><path fill="#0B77E3" d="M19 33h54v4H19z" class="color-400"/><path fill="#A6D2FF" d="M23 41.99c0-.546.451-.99.99-.99h4.02c.546 0 .99.451.99.99v4.02c0 .546-.451.99-.99.99h-4.02a.996.996 0 0 1-.99-.99v-4.02zm10 0c0-.546.451-.99.99-.99h4.02c.546 0 .99.451.99.99v4.02c0 .546-.451.99-.99.99h-4.02a.996.996 0 0 1-.99-.99v-4.02z" class="color-200"/></g><g class="animate-sink"><path fill="#40A0FF" d="M57.428 79.237C59.492 80.357 62.246 81 65 81c5.5 0 11-2.566 11-6.364v-2.545L65 76.83l-11-4.74v2.546c0 1.896 1.371 3.485 3.428 4.601z" class="color-300"/><path fill="#A6D2FF" d="M65 77c6.075 0 11-3.358 11-7.5 0-4.142-4.925-7.5-11-7.5s-11 3.358-11 7.5c0 4.142 4.925 7.5 11 7.5z" class="color-200"/><path fill="#FFF" d="M65 73.417c3.866 0 7-1.829 7-4.084s-3.134-4.083-7-4.083-7 1.828-7 4.083 3.134 4.084 7 4.084z" class="color-100"/><path fill="#005CB9" d="M68 80.748V78.75c-.65.11-1.319.185-2 .223v1.999a18.068 18.068 0 0 0 2-.224zm2-.463c.707-.21 1.379-.464 2-.758V77.53c-.633.292-1.302.544-2 .753v2.002zm-6 .687v-2a17.747 17.747 0 0 1-2-.222v1.998c.655.11 1.325.186 2 .224zm-6-1.445c.621.294 1.293.548 2 .758v-2.002a15.227 15.227 0 0 1-2-.753v1.997zm-2-1.233v-1.9a10.736 10.736 0 0 1-2-1.776v.018c0 1.413.761 2.655 2 3.658zm18 0c1.239-1.003 2-2.245 2-3.658v-.018c-.567.654-1.24 1.25-2 1.776v1.9zM52.003 69.7A7.448 7.448 0 0 1 52 69.5c0-5.445 5.947-9.5 13-9.5s13 4.055 13 9.5c0 .067 0 .133-.003.199L78 69.7v4.936C78 79.665 71.837 83 65 83c-3.071 0-6.153-.718-8.525-2.005C53.714 79.498 52 77.287 52 74.636V69.7l.003-.001zM65 77c6.075 0 11-3.358 11-7.5 0-4.142-4.925-7.5-11-7.5s-11 3.358-11 7.5c0 4.142 4.925 7.5 11 7.5zm0-1.583c-4.825 0-9-2.436-9-6.084 0-3.648 4.175-6.083 9-6.083s9 2.435 9 6.083-4.175 6.084-9 6.084zm0-2c3.866 0 7-1.829 7-4.084s-3.134-4.083-7-4.083-7 1.828-7 4.083 3.134 4.084 7 4.084z" class="color-500"/></g><path fill="#40A0FF" d="M54.428 72.237C56.492 73.357 59.246 74 62 74c5.5 0 11-2.566 11-6.364v-2.545L62 69.83l-11-4.74v2.546c0 1.896 1.371 3.485 3.428 4.601z" class="color-300"/><path fill="#A6D2FF" d="M62 70c6.075 0 11-3.358 11-7.5 0-4.142-4.925-7.5-11-7.5s-11 3.358-11 7.5c0 4.142 4.925 7.5 11 7.5z" class="color-200"/><path fill="#FFF" d="M62 66.417c3.866 0 7-1.829 7-4.084s-3.134-4.083-7-4.083-7 1.828-7 4.083 3.134 4.084 7 4.084z" class="color-100"/><path fill="#005CB9" d="M65 73.748V71.75c-.65.11-1.319.185-2 .223v1.999a18.068 18.068 0 0 0 2-.224zm2-.463c.707-.21 1.379-.464 2-.758V70.53c-.633.292-1.302.544-2 .753v2.002zm-6 .687v-2a17.747 17.747 0 0 1-2-.222v1.998c.655.11 1.325.186 2 .224zm-6-1.445c.621.294 1.293.548 2 .758v-2.002a15.227 15.227 0 0 1-2-.753v1.997zm-2-1.233v-1.9a10.736 10.736 0 0 1-2-1.776v.018c0 1.413.761 2.655 2 3.658zm18 0c1.239-1.003 2-2.245 2-3.658v-.018c-.567.654-1.24 1.25-2 1.776v1.9zM49.003 62.7A7.448 7.448 0 0 1 49 62.5c0-5.445 5.947-9.5 13-9.5s13 4.055 13 9.5c0 .067 0 .133-.003.199L75 62.7v4.936C75 72.665 68.837 76 62 76c-3.071 0-6.153-.718-8.525-2.005C50.714 72.498 49 70.287 49 67.636V62.7l.003-.001zM62 70c6.075 0 11-3.358 11-7.5 0-4.142-4.925-7.5-11-7.5s-11 3.358-11 7.5c0 4.142 4.925 7.5 11 7.5zm0-1.583c-4.825 0-9-2.436-9-6.084 0-3.648 4.175-6.083 9-6.083s9 2.435 9 6.083-4.175 6.084-9 6.084zm0-2c3.866 0 7-1.829 7-4.084s-3.134-4.083-7-4.083-7 1.828-7 4.083 3.134 4.084 7 4.084z" class="color-500"/><g class="animate-float"><path fill="#40A0FF" d="M58.428 65.237C60.492 66.357 63.246 67 66 67c5.5 0 11-2.566 11-6.364v-2.545L66 62.83l-11-4.74v2.546c0 1.896 1.371 3.485 3.428 4.601z" class="color-300"/><path fill="#A6D2FF" d="M66 63c6.075 0 11-3.358 11-7.5 0-4.142-4.925-7.5-11-7.5s-11 3.358-11 7.5c0 4.142 4.925 7.5 11 7.5z" class="color-200"/><path fill="#FFF" d="M66 59.417c3.866 0 7-1.829 7-4.084s-3.134-4.083-7-4.083-7 1.828-7 4.083 3.134 4.084 7 4.084z" class="color-100"/><path fill="#005CB9" d="M69 66.748V64.75c-.65.11-1.319.185-2 .223v1.999a18.068 18.068 0 0 0 2-.224zm2-.463c.707-.21 1.379-.464 2-.758V63.53c-.633.292-1.302.544-2 .753v2.002zm-6 .687v-2a17.747 17.747 0 0 1-2-.222v1.998c.655.11 1.325.186 2 .224zm-6-1.445c.621.294 1.293.548 2 .758v-2.002a15.227 15.227 0 0 1-2-.753v1.997zm-2-1.233v-1.9a10.736 10.736 0 0 1-2-1.776v.018c0 1.413.761 2.655 2 3.658zm18 0c1.239-1.003 2-2.245 2-3.658v-.018c-.567.654-1.24 1.25-2 1.776v1.9zM53.003 55.7A7.448 7.448 0 0 1 53 55.5c0-5.445 5.947-9.5 13-9.5s13 4.055 13 9.5c0 .067 0 .133-.003.199L79 55.7v4.936C79 65.665 72.837 69 66 69c-3.071 0-6.153-.718-8.525-2.005C54.714 65.498 53 63.287 53 60.636V55.7l.003-.001zM66 63c6.075 0 11-3.358 11-7.5 0-4.142-4.925-7.5-11-7.5s-11 3.358-11 7.5c0 4.142 4.925 7.5 11 7.5zm0-1.583c-4.825 0-9-2.436-9-6.084 0-3.648 4.175-6.083 9-6.083s9 2.435 9 6.083-4.175 6.084-9 6.084zm0-2c3.866 0 7-1.829 7-4.084s-3.134-4.083-7-4.083-7 1.828-7 4.083 3.134 4.084 7 4.084z" class="color-500"/></g></g></svg>