<svg xmlns="http://www.w3.org/2000/svg" width="92" height="92" class="wd-applet wd-applet-payroll" focusable="false" role="presentation" viewBox="0 0 92 92"><g fill="none" fill-rule="evenodd" class="wd-icon-container"><g fill="#0B77E3" fill-opacity=".2" class="animate-flood"><path d="M46 82c19.882 0 36-16.118 36-36S65.882 10 46 10 10 26.118 10 46s16.118 36 36 36z" class="color-400-alpha-20"/></g><g class="animate-shrink"><path fill="#FFF" d="M21 16.997A3.002 3.002 0 0 1 24.005 14H72l-5 4v55.993A4.006 4.006 0 0 1 63 78c-2.21 0-4-1.787-4-3.993v-9c0-.556-.453-1.007-.997-1.007H21V16.997z" class="color-100"/><path fill="#A6D2FF" d="M29 27a3 3 0 1 0 0-6 3 3 0 0 0 0 6zm0 16a3 3 0 1 0 0-6 3 3 0 0 0 0 6zm0 15a3 3 0 1 0 0-6 3 3 0 0 0 0 6z" class="color-200"/><path fill="#000" d="M21 62h38.991c.56 0 1.009.448 1.009 1v11.004a3.998 3.998 0 0 0 3 3.87 4.005 4.005 0 0 1-.8.121L63 78c-2.21 0-4-1.787-4-3.993v-9c0-.556-.453-1.007-.997-1.007H21v-2z" class="color-shadow" opacity=".1"/><path fill="#40A0FF" d="M13 66h45l1 12H16c-1.657 0-3-1.342-3-2.997V66zm56-47.998A4.004 4.004 0 0 1 73 14c2.21 0 4 1.792 4 4.002V25h-8v-6.998zM38 20.999A1 1 0 0 1 39 20h22c.552 0 1 .443 1 .999v1.002A1 1 0 0 1 61 23H39c-.552 0-1-.443-1-.999v-1.002zm0 5c0-.552.449-.999 1.007-.999h12.986a1 1 0 0 1 1.007.999v1.002c0 .552-.449.999-1.007.999H39.007A1 1 0 0 1 38 27.001v-1.002zM38.995 39a.994.994 0 0 1-.995-.999v-1.002a.993.993 0 0 1 .466-.845.984.984 0 0 1 .529-.154h22.004c.553 0 1.001.443 1.001.999v1.002A1 1 0 0 1 61 39H38.994zM38 41.999c0-.552.449-.999 1.007-.999h12.986a1 1 0 0 1 1.007.999v1.002c0 .552-.449.999-1.007.999H39.007A1 1 0 0 1 38 43.001v-1.002zm0 10A1 1 0 0 1 39 51h22c.552 0 1 .443 1 .999v1.002A1 1 0 0 1 61 54H39c-.552 0-1-.443-1-.999v-1.002zm0 5c0-.552.449-.999 1.007-.999h12.986a1 1 0 0 1 1.007.999v1.002c0 .552-.449.999-1.007.999H39.007A1 1 0 0 1 38 58.001v-1.002z" class="color-300"/><path fill="#000" d="M73 14c.346 0 .68.044 1 .126a4.001 4.001 0 0 0-3 3.87V25h-2v-6.998a4.005 4.005 0 0 1 3.8-3.997L73 14z" class="color-shadow" opacity=".1"/><path fill="#005CB9" fill-rule="nonzero" d="M69 27v46.993a6.006 6.006 0 0 1-7.275 5.871c-.225.088-.47.136-.725.136H16.003A5 5 0 0 1 11 75.003V66a2 2 0 0 1 2-2h6V16.997A5.002 5.002 0 0 1 24.005 12H72c.13 0 .254.011.373.032A6.001 6.001 0 0 1 79 18.002V25a2 2 0 0 1-2 2h-8zm-.47-13H24.005A3.002 3.002 0 0 0 21 16.997V64h37.003c.544 0 .997.45.997 1.007v9A3.996 3.996 0 0 0 63 78c2.205 0 4-1.794 4-4.007v-55.99A5.98 5.98 0 0 1 68.53 14zM13 66v9.003A3 3 0 0 0 16.003 78h42.523C56.799 75.978 57 74.006 57 74.006V66H13zm56-47.998V25h8v-6.998C77 15.792 75.21 14 73 14c-2.205 0-4 1.792-4 4.002zM29 60a5 5 0 1 1 0-10 5 5 0 0 1 0 10zm0-2a3 3 0 1 0 0-6 3 3 0 0 0 0 6zm0-13a5 5 0 1 1 0-10 5 5 0 0 1 0 10zm0-2a3 3 0 1 0 0-6 3 3 0 0 0 0 6zm0-14a5 5 0 1 1 0-10 5 5 0 0 1 0 10zm0-2a3 3 0 1 0 0-6 3 3 0 0 0 0 6z" class="color-500"/></g><g class="animate-grow"><circle cx="21" cy="16" r="14" fill="#40A0FF" class="color-300" transform="translate(43 54)"/><circle cx="16" cy="16" r="14" fill="#A6D2FF" class="color-200" transform="translate(43 54)"/><circle cx="16" cy="16" r="10" fill="#FFF" class="color-100" transform="translate(43 54)"/><path fill="#005CB9" d="M16 25.5A9.5 9.5 0 0 1 6.5 16 9.5 9.5 0 0 1 16 6.5a9.5 9.5 0 0 1 9.5 9.5 9.5 9.5 0 0 1-9.5 9.5zm0 2c6.351 0 11.5-5.149 11.5-11.5S22.351 4.5 16 4.5 4.5 9.649 4.5 16 9.649 27.5 16 27.5zm0 2.5C8.268 30 2 23.732 2 16S8.268 2 16 2s14 6.268 14 14-6.268 14-14 14zM26.311 3.5H26v.009a17.553 17.553 0 0 0-.508-.391c.278.119.551.246.819.382zm3.677 0A15.933 15.933 0 0 0 20 0c-.677 0-1.345.042-2 .124A16.101 16.101 0 0 0 16 0C7.163 0 0 7.163 0 16s7.163 16 16 16c.677 0 1.345-.042 2-.124.655.082 1.323.124 2 .124 8.837 0 16-7.163 16-16a15.97 15.97 0 0 0-6-12.491V3.5h-.012zm1.137 4h-1.567a15.986 15.986 0 0 0-1.485-2h1.187c.685.604 1.31 1.274 1.865 2zm2.136 4h-1.902a15.909 15.909 0 0 0-.734-2h1.778c.335.639.623 1.307.858 2zm-1.437 12h-1.687c.341-.642.64-1.31.893-2h1.848a13.904 13.904 0 0 1-1.054 2zm-1.54 2a14.076 14.076 0 0 1-2.297 2h-.863a16.095 16.095 0 0 0 1.752-2h1.408zm3.637-8c-.073.683-.195 1.35-.362 2h-1.943c.146-.653.251-1.32.315-2h1.99zm.07-2h-1.999a15.862 15.862 0 0 0-.186-2h1.971a14 14 0 0 1 .214 2z" class="color-500" transform="translate(43 54)"/></g></g></svg>