<svg xmlns="http://www.w3.org/2000/svg" width="92" height="92" class="wd-applet wd-applet-payroll-compliance" focusable="false" role="presentation" viewBox="0 0 92 92"><g fill="none" fill-rule="evenodd" class="wd-icon-container"><g fill="#0B77E3" fill-opacity=".2" class="animate-flood"><path d="M46 82c19.882 0 36-16.118 36-36S65.882 10 46 10 10 26.118 10 46s16.118 36 36 36z" class="color-400-alpha-20"/></g><g class="animate-shrink"><path fill="#FFF" d="M72 79a1 1 0 0 1-.992 1H20.992A1 1 0 0 1 20 79V13a1 1 0 0 1 .992-1h50.016A1 1 0 0 1 72 13v66z" class="color-100"/><path fill="#005CB9" fill-rule="nonzero" d="M71.008 82A3 3 0 0 0 74 79V13a3 3 0 0 0-2.992-3H20.992A3 3 0 0 0 18 13v66a3 3 0 0 0 2.992 3h50.016zm0-2H20.992A1 1 0 0 1 20 79V13a1 1 0 0 1 .992-1h50.016A1 1 0 0 1 72 13v66a1 1 0 0 1-.992 1z" class="color-500"/><path fill="#40A0FF" d="M59 26.999a1 1 0 0 0-.995-.999h-17.01a.994.994 0 0 0-.995.999v1.002a1 1 0 0 0 .995.999h17.01c.55 0 .995-.443.995-.999v-1.002zm5 5A1 1 0 0 0 63 31H41c-.552 0-1 .443-1 .999v1.002A1 1 0 0 0 41 34h22c.552 0 1-.443 1-.999v-1.002zm-5 11a1 1 0 0 0-.995-.999h-17.01a.994.994 0 0 0-.995.999v1.002a1 1 0 0 0 .995.999h17.01c.55 0 .995-.443.995-.999v-1.002zm5 5A1 1 0 0 0 63 47H41c-.552 0-1 .443-1 .999v1.002A1 1 0 0 0 41 50h22c.552 0 1-.443 1-.999v-1.002zm-5 11a1 1 0 0 0-.995-.999h-17.01a.994.994 0 0 0-.995.999v1.002a1 1 0 0 0 .995.999h17.01c.55 0 .995-.443.995-.999v-1.002zm5 5A1 1 0 0 0 63 63H41c-.552 0-1 .443-1 .999v1.002A1 1 0 0 0 41 66h22c.552 0 1-.443 1-.999v-1.002z" class="color-300"/><path fill="#005CB9" d="M29.114 33.662a1.01 1.01 0 0 1-.229-.12l-2.458-1.722a.997.997 0 0 1-.245-1.392.997.997 0 0 1 1.392-.246l1.668 1.168 3.448-4.924a.996.996 0 0 1 1.391-.244c.453.317.563.94.247 1.391l-4.018 5.738a.996.996 0 0 1-1.196.35zm0 16a1.01 1.01 0 0 1-.229-.12l-2.458-1.722a.997.997 0 0 1-.245-1.392.997.997 0 0 1 1.392-.246l1.668 1.168 3.448-4.924a.996.996 0 0 1 1.391-.244c.453.317.563.94.247 1.391l-4.018 5.738a.996.996 0 0 1-1.196.35zm0 16a1.01 1.01 0 0 1-.229-.12l-2.458-1.722a.997.997 0 0 1-.245-1.392.997.997 0 0 1 1.392-.246l1.668 1.168 3.448-4.924a.996.996 0 0 1 1.391-.244c.453.317.563.94.247 1.391l-4.018 5.738a.996.996 0 0 1-1.196.35z" class="color-500"/></g><g class="animate-sink"><path fill="#40A0FF" d="M56.428 79.237C58.492 80.357 61.246 81 64 81c5.5 0 11-2.566 11-6.364v-2.545L64 76.83l-11-4.74v2.546c0 1.896 1.371 3.485 3.428 4.601z" class="color-300"/><path fill="#A6D2FF" d="M64 77c6.075 0 11-3.358 11-7.5 0-4.142-4.925-7.5-11-7.5s-11 3.358-11 7.5c0 4.142 4.925 7.5 11 7.5z" class="color-200"/><path fill="#FFF" d="M64 73.417c3.866 0 7-1.829 7-4.084s-3.134-4.083-7-4.083-7 1.828-7 4.083 3.134 4.084 7 4.084z" class="color-100"/><path fill="#000" d="M64 77c6.075 0 11-3.358 11-7.5 0-4.142-4.925-7.5-11-7.5s-11 3.358-11 7.5c0 4.142 4.925 7.5 11 7.5z" class="color-shadow" opacity=".1"/><path fill="#005CB9" d="M67 80.748V78.75c-.65.11-1.319.185-2 .223v1.999a18.068 18.068 0 0 0 2-.224zm2-.463c.707-.21 1.379-.464 2-.758V77.53c-.633.292-1.302.544-2 .753v2.002zm-6 .687v-2a17.747 17.747 0 0 1-2-.222v1.998c.655.11 1.325.186 2 .224zm-6-1.445c.621.294 1.293.548 2 .758v-2.002a15.227 15.227 0 0 1-2-.753v1.997zm-2-1.233v-1.9a10.736 10.736 0 0 1-2-1.776v.018c0 1.413.761 2.655 2 3.658zm18 0c1.239-1.003 2-2.245 2-3.658v-.018c-.567.654-1.24 1.25-2 1.776v1.9zM51.003 69.7A7.448 7.448 0 0 1 51 69.5c0-5.445 5.947-9.5 13-9.5s13 4.055 13 9.5c0 .067 0 .133-.003.199L77 69.7v4.936C77 79.665 70.837 83 64 83c-3.071 0-6.153-.718-8.525-2.005C52.714 79.498 51 77.287 51 74.636V69.7l.003-.001zM64 77c6.075 0 11-3.358 11-7.5 0-4.142-4.925-7.5-11-7.5s-11 3.358-11 7.5c0 4.142 4.925 7.5 11 7.5zm0-1.583c-4.825 0-9-2.436-9-6.084 0-3.648 4.175-6.083 9-6.083s9 2.435 9 6.083-4.175 6.084-9 6.084zm0-2c3.866 0 7-1.829 7-4.084s-3.134-4.083-7-4.083-7 1.828-7 4.083 3.134 4.084 7 4.084z" class="color-500"/></g><path fill="#40A0FF" d="M53.428 71.237C55.492 72.357 58.246 73 61 73c5.5 0 11-2.566 11-6.364v-2.545L61 68.83l-11-4.74v2.546c0 1.896 1.371 3.485 3.428 4.601z" class="color-300"/><path fill="#A6D2FF" d="M61 69c6.075 0 11-3.358 11-7.5 0-4.142-4.925-7.5-11-7.5s-11 3.358-11 7.5c0 4.142 4.925 7.5 11 7.5z" class="color-200"/><path fill="#FFF" d="M61 65.417c3.866 0 7-1.829 7-4.084s-3.134-4.083-7-4.083-7 1.828-7 4.083 3.134 4.084 7 4.084z" class="color-100"/><path fill="#000" d="M61 69c6.075 0 11-3.358 11-7.5 0-4.142-4.925-7.5-11-7.5s-11 3.358-11 7.5c0 4.142 4.925 7.5 11 7.5z" class="color-shadow" opacity=".1"/><path fill="#005CB9" d="M64 72.748V70.75c-.65.11-1.319.185-2 .223v1.999a18.068 18.068 0 0 0 2-.224zm2-.463c.707-.21 1.379-.464 2-.758V69.53c-.633.292-1.302.544-2 .753v2.002zm-6 .687v-2a17.747 17.747 0 0 1-2-.222v1.998c.655.11 1.325.186 2 .224zm-6-1.445c.621.294 1.293.548 2 .758v-2.002a15.227 15.227 0 0 1-2-.753v1.997zm-2-1.233v-1.9a10.736 10.736 0 0 1-2-1.776v.018c0 1.413.761 2.655 2 3.658zm18 0c1.239-1.003 2-2.245 2-3.658v-.018c-.567.654-1.24 1.25-2 1.776v1.9zM48.003 61.7A7.448 7.448 0 0 1 48 61.5c0-5.445 5.947-9.5 13-9.5s13 4.055 13 9.5c0 .067 0 .133-.003.199L74 61.7v4.936C74 71.665 67.837 75 61 75c-3.071 0-6.153-.718-8.525-2.005C49.714 71.498 48 69.287 48 66.636V61.7l.003-.001zM61 69c6.075 0 11-3.358 11-7.5 0-4.142-4.925-7.5-11-7.5s-11 3.358-11 7.5c0 4.142 4.925 7.5 11 7.5zm0-1.583c-4.825 0-9-2.436-9-6.084 0-3.648 4.175-6.083 9-6.083s9 2.435 9 6.083-4.175 6.084-9 6.084zm0-2c3.866 0 7-1.829 7-4.084s-3.134-4.083-7-4.083-7 1.828-7 4.083 3.134 4.084 7 4.084z" class="color-500"/><g class="animate-float"><path fill="#40A0FF" d="M59.428 65.237C61.492 66.357 64.246 67 67 67c5.5 0 11-2.566 11-6.364v-2.545L67 62.83l-11-4.74v2.546c0 1.896 1.371 3.485 3.428 4.601z" class="color-300"/><path fill="#A6D2FF" d="M67 63c6.075 0 11-3.358 11-7.5 0-4.142-4.925-7.5-11-7.5s-11 3.358-11 7.5c0 4.142 4.925 7.5 11 7.5z" class="color-200"/><path fill="#FFF" d="M67 59.417c3.866 0 7-1.829 7-4.084s-3.134-4.083-7-4.083-7 1.828-7 4.083 3.134 4.084 7 4.084z" class="color-100"/><path fill="#005CB9" d="M70 66.748V64.75c-.65.11-1.319.185-2 .223v1.999a18.068 18.068 0 0 0 2-.224zm2-.463c.707-.21 1.379-.464 2-.758V63.53c-.633.292-1.302.544-2 .753v2.002zm-6 .687v-2a17.747 17.747 0 0 1-2-.222v1.998c.655.11 1.325.186 2 .224zm-6-1.445c.621.294 1.293.548 2 .758v-2.002a15.227 15.227 0 0 1-2-.753v1.997zm-2-1.233v-1.9a10.736 10.736 0 0 1-2-1.776v.018c0 1.413.761 2.655 2 3.658zm18 0c1.239-1.003 2-2.245 2-3.658v-.018c-.567.654-1.24 1.25-2 1.776v1.9zM54.003 55.7A7.448 7.448 0 0 1 54 55.5c0-5.445 5.947-9.5 13-9.5s13 4.055 13 9.5c0 .067 0 .133-.003.199L80 55.7v4.936C80 65.665 73.837 69 67 69c-3.071 0-6.153-.718-8.525-2.005C55.714 65.498 54 63.287 54 60.636V55.7l.003-.001zM67 63c6.075 0 11-3.358 11-7.5 0-4.142-4.925-7.5-11-7.5s-11 3.358-11 7.5c0 4.142 4.925 7.5 11 7.5zm0-1.583c-4.825 0-9-2.436-9-6.084 0-3.648 4.175-6.083 9-6.083s9 2.435 9 6.083-4.175 6.084-9 6.084zm0-2c3.866 0 7-1.829 7-4.084s-3.134-4.083-7-4.083-7 1.828-7 4.083 3.134 4.084 7 4.084z" class="color-500"/></g></g></svg>