<svg xmlns="http://www.w3.org/2000/svg" width="92" height="92" class="wd-applet wd-applet-pencil-ruler" focusable="false" role="presentation" viewBox="0 0 92 92"><g fill="none" fill-rule="evenodd" class="wd-icon-container"><g fill="#0B77E3" fill-opacity=".2" class="animate-flood"><circle cx="36" cy="36" r="36" class="color-400-alpha-20" transform="translate(10 10)"/></g><g class="animate-float-rotate-right"><path fill="#005CB9" fill-rule="nonzero" d="M15.828 26.263l49.498 49.498 12.02-12.02c.782-.782.79-2.04.02-2.81L30.659 14.224c-.77-.77-2.028-.761-2.809.02l-12.02 12.02zm-1.414-1.414l12.021-12.02c1.562-1.563 4.078-1.58 5.62-.038l46.744 46.744c1.54 1.541 1.524 4.057-.038 5.62l-12.02 12.02c-.782.781-2.04.79-2.81.019L14.395 27.659c-.77-.77-.762-2.029.02-2.81zM25.021 36.87l4.95-4.95 1.414 1.415-4.95 4.95-1.414-1.415zm5.657 5.657l4.95-4.95 1.414 1.414-4.95 4.95-1.414-1.414zm5.657 5.657l4.95-4.95 1.413 1.414-4.95 4.95-1.413-1.414zm5.656 5.657l4.95-4.95 1.414 1.414-4.95 4.95-1.414-1.414zm5.657 5.656l4.95-4.95 1.414 1.415-4.95 4.95-1.414-1.415zm5.657 5.657l4.95-4.95 1.414 1.415-4.95 4.95-1.414-1.415zm10.607.707l1.414 1.415-4.95 4.95-1.414-1.415 4.95-4.95zm-36.77-46.669a3 3 0 1 1 4.243 4.243 3 3 0 0 1-4.243-4.243z" class="color-500"/><path fill="#FFF" d="M14.414 24.85l12.021-12.022c1.562-1.562 4.078-1.579 5.62-.037l46.744 46.744c1.54 1.541 1.524 4.057-.038 5.62l-12.02 12.02c-.782.781-2.04.79-2.81.019L14.395 27.659c-.77-.77-.762-2.029.02-2.81zm1.414 1.413l49.498 49.498 12.02-12.02c.782-.782.79-2.04.02-2.81L30.659 14.224c-.77-.77-2.028-.761-2.809.02l-12.02 12.02zm-1.414-1.414l12.021-12.02c1.562-1.563 4.078-1.58 5.62-.038l46.744 46.744c1.54 1.541 1.524 4.057-.038 5.62l-12.02 12.02c-.782.781-2.04.79-2.81.019L14.395 27.659c-.77-.77-.762-2.029.02-2.81zm11.314 11.314l4.243-4.243 1.414 1.415-4.243 4.242-1.414-1.414zm5.657 5.657l4.242-4.243 1.415 1.414-4.243 4.243-1.414-1.414zm5.657 5.657l4.242-4.243 1.414 1.414-4.242 4.243-1.414-1.414zm5.656 5.657l4.243-4.243 1.414 1.414-4.242 4.243-1.415-1.414zm5.657 5.656l4.243-4.242 1.414 1.414-4.242 4.243-1.415-1.415zm5.657 5.657l4.243-4.242 1.414 1.414-4.243 4.242-1.414-1.414zm5.657 5.657l4.243-4.243 1.414 1.415-4.243 4.242-1.414-1.414zM31.385 23.435a3 3 0 1 0-4.243-4.243 3 3 0 0 0 4.243 4.243z" class="color-100"/></g><g class="animate-float-rotate-left"><path fill="#005CB9" fill-rule="nonzero" d="M70.4 16.246a2 2 0 0 0-2.831.003c-27.562 27.675-41.914 42.025-43.056 43.05-.499.448-2.654 5.213-6.465 14.296 9.179-3.943 14.013-6.203 14.504-6.778.407-.478 14.67-14.743 42.792-42.796a2 2 0 0 0 .001-2.83L70.4 16.246zm6.36 3.53a4 4 0 0 1 0 5.658c-27.528 27.46-42.34 42.273-42.686 42.68-.82.961-5.145 2.983-15.237 7.319-1.652.71-3.33-.953-2.633-2.611 4.222-10.063 6.109-14.236 6.973-15.012 1.096-.982 15.576-15.461 42.975-42.972a4 4 0 0 1 5.657-.012l4.95 4.95zm-54.547 52.63c-.775.434-2.397.962-4.867 1.584.609-2.382 1.108-3.982 1.499-4.8.586-1.226 4.53 2.565 3.368 3.216zm6.424-14.168l.474 3.93 3.944.486c.53.065.935.527.928 1.06l-.05 3.727a.976.976 0 0 1-1.03.967 1.062 1.062 0 0 1-1.005-1.066l.037-2.784-3.825-.47a1.065 1.065 0 0 1-.921-.924l-.452-3.744-2.494.198a1.061 1.061 0 0 1-1.127-.935.977.977 0 0 1 .895-1.095l3.5-.278c.556-.044 1.059.37 1.126.928z" class="color-500"/><path fill="#40A0FF" d="M75.345 21.191a2 2 0 0 1-.001 2.83c-8.45 8.43-15.993 15.96-22.629 22.59l-1.843 1.841-.603.604-7.892 7.892-.524.524-1.54 1.54-6.353 6.364.023-1.663a1.063 1.063 0 0 0-.928-1.06l-3.944-.485-.474-3.93a1.061 1.061 0 0 0-1.127-.928l-1.08.086c4.098-4.072 8.775-8.733 14.029-13.983l1.915-1.915 1.966-1.965 2.698-2.7c6.17-6.175 13.014-13.036 20.531-20.584a2 2 0 0 1 2.831-.003z" class="color-300"/><path fill="#FFF" d="M31.935 64.558l-.036 2.713c-1.313.762-4.49 2.246-9.53 4.452-.269-.827-1.497-2.081-2.444-2.57 2.286-5.352 3.738-8.532 4.357-9.539l2.455-.194.452 3.744c.058.48.442.865.921.924l3.825.47z" class="color-100"/></g></g></svg>