<svg xmlns="http://www.w3.org/2000/svg" width="92" height="92" fill="none" class="wd-applet-people-community-cards wd-applet" focusable="false" role="presentation" viewBox="0 0 92 92"><g class="wd-icon-container"><g class="animate-flood"><path fill="#0B77E3" fill-opacity=".2" d="M46 83c19.882 0 36-16.118 36-36S65.882 11 46 11 10 27.118 10 47s16.118 36 36 36z" class="color-400-alpha-20"/></g><g class="animate-grow"><path fill="#fff" d="M8 27a1 1 0 0 1 1-1h32a1 1 0 0 1 1 1v38a1 1 0 0 1-1 1H9a1 1 0 0 1-1-1V27z" class="color-100"/><path fill="#005CB9" fill-rule="evenodd" d="M9 24h32a3 3 0 0 1 3 3v38a3 3 0 0 1-3 3H9a3 3 0 0 1-3-3V27a3 3 0 0 1 3-3zm0 2a1 1 0 0 0-1 1v38a1 1 0 0 0 1 1h32a1 1 0 0 0 1-1V27a1 1 0 0 0-1-1H9z" class="color-500" clip-rule="evenodd"/><path fill="#A6D2FF" fill-rule="evenodd" d="M17.2 54.13a11.229 11.229 0 0 0 7.8 3.137c3.028 0 5.776-1.194 7.8-3.137v-1.197h.54-.54c0-1.437-1.16-2.6-2.593-2.6H19.793a2.594 2.594 0 0 0-2.593 2.6h-.54.54v1.197zm-1.658-2.005A11.215 11.215 0 0 1 13.733 46c0-6.222 5.043-11.267 11.267-11.267 6.223 0 11.267 5.043 11.267 11.267 0 2.258-.665 4.362-1.809 6.125a4.329 4.329 0 0 0-4.251-3.525H19.793a4.327 4.327 0 0 0-4.251 3.525zM27.873 48.6h-5.748a5.198 5.198 0 0 1-2.325-4.335v-2.596a5.201 5.201 0 0 1 10.4 0v2.596a5.2 5.2 0 0 1-2.327 4.335z" class="color-200" clip-rule="evenodd"/><path fill="#40A0FF" fill-rule="evenodd" d="M17.2 54.13a11.229 11.229 0 0 0 7.8 3.137c3.028 0 5.776-1.194 7.8-3.136v-1.198h.54-.54c0-1.437-1.16-2.6-2.593-2.6H19.793a2.594 2.594 0 0 0-2.593 2.6h-.54.54v1.198z" class="color-300" clip-rule="evenodd"/><path fill="#fff" d="M28.9 41.667a3.9 3.9 0 0 0-7.8 0v2.6a3.9 3.9 0 0 0 7.8 0v-2.6z" class="color-100"/><path fill="#005CB9" d="M12 46c0-7.18 5.82-13 13-13s13 5.82 13 13-5.82 13-13 13-13-5.82-13-13zm5.2 8.13a11.229 11.229 0 0 0 7.8 3.137c3.028 0 5.776-1.194 7.8-3.136v-1.198c0-1.437-1.161-2.6-2.593-2.6H19.793a2.594 2.594 0 0 0-2.593 2.6v1.198zm-1.658-2.005a4.327 4.327 0 0 1 4.251-3.525h10.414a4.329 4.329 0 0 1 4.251 3.525A11.215 11.215 0 0 0 36.267 46c0-6.224-5.045-11.267-11.267-11.267-6.224 0-11.267 5.045-11.267 11.267 0 2.259.665 4.362 1.809 6.125zM27.873 48.6h-5.748a5.198 5.198 0 0 1-2.325-4.335v-2.596a5.201 5.201 0 0 1 10.4 0v2.596a5.2 5.2 0 0 1-2.327 4.335zm-6.34-6.931v2.596a3.468 3.468 0 1 0 6.934 0v-2.596a3.468 3.468 0 1 0-6.934 0z" class="color-500"/></g><g class="animate-float"><path fill="#fff" d="M52 64a1 1 0 0 1 1-1h24a1 1 0 0 1 1 1v12a1 1 0 0 1-1 1h-5v5l-6.667-5H53a1 1 0 0 1-1-1V64z" class="color-100"/><path fill="#005CB9" fill-rule="evenodd" d="M50 64a3 3 0 0 1 3-3h24a3 3 0 0 1 3 3v12a3 3 0 0 1-3 3h-3v3c0 1.648-1.882 2.589-3.2 1.6L64.667 79H53a3 3 0 0 1-3-3V64zm3-1a1 1 0 0 0-1 1v12a1 1 0 0 0 1 1h12.333L72 82v-5h5a1 1 0 0 0 1-1V64a1 1 0 0 0-1-1H53z" class="color-500" clip-rule="evenodd"/><g fill="#A6D2FF" class="color-200"><path d="M61 70a2 2 0 1 1-4 0 2 2 0 0 1 4 0zM67 70a2 2 0 1 1-4 0 2 2 0 0 1 4 0zM73 70a2 2 0 1 1-4 0 2 2 0 0 1 4 0z"/></g></g><g class="animate-float-left"><path fill="#fff" d="M58 40a1 1 0 0 1 1-1h24a1 1 0 0 1 1 1v12a1 1 0 0 1-1 1H59a1 1 0 0 1-1-1V40z" class="color-100"/><path fill="#005CB9" fill-rule="evenodd" d="M59 37h24a3 3 0 0 1 3 3v12a3 3 0 0 1-3 3H59a3 3 0 0 1-3-3V40a3 3 0 0 1 3-3zm0 2a1 1 0 0 0-1 1v12a1 1 0 0 0 1 1h24a1 1 0 0 0 1-1V40a1 1 0 0 0-1-1H59z" class="color-500" clip-rule="evenodd"/><circle cx="64" cy="46" r="3" fill="#A6D2FF" class="color-200"/><rect width="12" height="2" x="69" y="43" fill="#005CB9" class="color-500" rx=".5"/><rect width="9" height="2" x="69" y="47" fill="#40A0FF" class="color-300" rx=".5"/></g><g class="animate-float"><path fill="#fff" d="M52 16a1 1 0 0 1 1-1h24a1 1 0 0 1 1 1v12a1 1 0 0 1-1 1H53a1 1 0 0 1-1-1V16z" class="color-100"/><path fill="#005CB9" fill-rule="evenodd" d="M53 13h24a3 3 0 0 1 3 3v12a3 3 0 0 1-3 3H53a3 3 0 0 1-3-3V16a3 3 0 0 1 3-3zm0 2a1 1 0 0 0-1 1v12a1 1 0 0 0 1 1h24a1 1 0 0 0 1-1V16a1 1 0 0 0-1-1H53z" class="color-500" clip-rule="evenodd"/><path fill="#A6D2FF" d="M71 24c0 1.105-2.686 2-6 2s-6-.895-6-2 2.686-2 6-2 6 .895 6 2z" class="color-200"/><path fill="#40A0FF" fill-rule="evenodd" d="M64.734 22.886S60 17.906 60 14.221C60 10.536 62.326 9 64.989 9 67.65 9 70 10.742 70 14.221c0 3.48-4.763 8.663-4.763 8.663a.333.333 0 0 1-.502.002z" class="color-300" clip-rule="evenodd"/><path fill="#005CB9" fill-rule="evenodd" d="M58.916 17.951c-.501-1.113-.916-2.41-.916-3.73 0-2.282.735-4.165 2.139-5.461C61.51 7.49 63.29 7 64.989 7c1.76 0 3.53.578 4.878 1.853C71.238 10.15 72 12.007 72 14.221c0 1.285-.427 2.566-.926 3.654-.511 1.117-1.174 2.195-1.808 3.116a33.284 33.284 0 0 1-2.488 3.171l-.047.053-.01.01a2.333 2.333 0 0 1-3.446.028l-.012-.012-.048-.051-.168-.184a30.36 30.36 0 0 1-2.322-2.93c-.635-.913-1.298-1.991-1.809-3.125zm5.819 4.935S60 17.906 60 14.221C60 10.536 62.326 9 64.989 9 67.65 9 70 10.742 70 14.221c0 3.48-4.763 8.663-4.763 8.663a.333.333 0 0 1-.502.002z" class="color-500" clip-rule="evenodd"/><path fill="#fff" d="M66 14a1 1 0 1 1-2 0 1 1 0 0 1 2 0z" class="color-100"/><path fill="#005CB9" fill-rule="evenodd" d="M65 13a1 1 0 1 0 0 2 1 1 0 0 0 0-2zm3 1a3 3 0 1 1-6 0 3 3 0 0 1 6 0z" class="color-500" clip-rule="evenodd"/></g></g></svg>