<svg xmlns="http://www.w3.org/2000/svg" width="92" height="92" class="wd-applet wd-applet-people-analytics" focusable="false" role="presentation" viewBox="0 0 92 92"><g fill="none" fill-rule="evenodd" class="wd-icon-container"><g fill="#0B77E3" fill-opacity=".2" class="animate-flood"><path d="M46 82c19.882 0 36-16.118 36-36S65.882 10 46 10 10 26.118 10 46s16.118 36 36 36z" class="color-400-alpha-20"/></g><g class="animate-shrink"><path fill="#40A0FF" fill-rule="nonzero" d="M18.014 44.5h-1.406l16.036-23.52c.015-.024.031-.047.048-.07l.26-.382.375-.02a.937.937 0 0 1 .238-.013l36.79-1.989a.954.954 0 0 1 .214-.011l.976-.053-.041.984c.007.08.004.16-.01.242L70.459 44.5h-.555L39.782 73.583l-.235-1.677L18.014 44.5zm2.543 0l18.439 23.467L35.71 44.5H20.557zm16.893-2h9.158l-5.536-8.12-4.466 2.09.844 6.03zm-2.02 0l-.72-5.142L23.726 42.5H35.43zm-2.562-18.299L21.041 41.55l13.38-6.263L32.867 24.2zm3.448 10.197l3.614-1.692-4.847-7.109 1.233 8.801zM67.025 44.5h-17.77l-6.77 23.694L67.025 44.5zm-26.19 22.185l6.34-22.185H37.73l3.106 22.185zM48.68 41.99l5.767-6.337-6.926-4.29-4.614 2.16 5.773 8.467zm7.137-7.841l10.576-11.621-16.71 7.822 6.134 3.799zm9.685 8.352l-9.325-5.777-5.258 5.777h14.583zm3.058-.459l.826-19.832-11.84 13.01L68.56 42.04zM36.734 22.327l10.92 6.764 17.76-8.315-28.68 1.55zm5.031 9.52l3.725-1.743-8.506-5.27 4.781 7.013z" class="color-300"/><path fill="#FFF" d="M18.5 46a2.5 2.5 0 1 1 0-5 2.5 2.5 0 0 1 0 5zm30 0a2.5 2.5 0 1 1 0-5 2.5 2.5 0 0 1 0 5zm21 0a2.5 2.5 0 1 1 0-5 2.5 2.5 0 0 1 0 5zm1-24a2.5 2.5 0 1 1 0-5 2.5 2.5 0 0 1 0 5zm-37 2a2.5 2.5 0 1 1 0-5 2.5 2.5 0 0 1 0 5zm7 50a2.5 2.5 0 1 1 0-5 2.5 2.5 0 0 1 0 5z" class="color-100"/><path fill="#005CB9" fill-rule="nonzero" d="M18.5 48a4.5 4.5 0 1 1 0-9 4.5 4.5 0 0 1 0 9zm0-2a2.5 2.5 0 1 0 0-5 2.5 2.5 0 0 0 0 5zm30 2a4.5 4.5 0 1 1 0-9 4.5 4.5 0 0 1 0 9zm0-2a2.5 2.5 0 1 0 0-5 2.5 2.5 0 0 0 0 5zm21 2a4.5 4.5 0 1 1 0-9 4.5 4.5 0 0 1 0 9zm0-2a2.5 2.5 0 1 0 0-5 2.5 2.5 0 0 0 0 5zm1-22a4.5 4.5 0 1 1 0-9 4.5 4.5 0 0 1 0 9zm0-2a2.5 2.5 0 1 0 0-5 2.5 2.5 0 0 0 0 5zm-37 4a4.5 4.5 0 1 1 0-9 4.5 4.5 0 0 1 0 9zm0-2a2.5 2.5 0 1 0 0-5 2.5 2.5 0 0 0 0 5zm7 52a4.5 4.5 0 1 1 0-9 4.5 4.5 0 0 1 0 9zm0-2a2.5 2.5 0 1 0 0-5 2.5 2.5 0 0 0 0 5z" class="color-500"/></g><g class="animate-grow"><path fill="#A6D2FF" d="M6 24.381A12.957 12.957 0 0 0 15 28c3.493 0 6.664-1.377 9-3.619V23h.624H24c0-1.659-1.34-3-2.992-3H8.992A2.993 2.993 0 0 0 6 23h-.624H6v1.381zm-1.913-2.314A12.94 12.94 0 0 1 2 15C2 7.82 7.819 2 15 2c7.18 0 13 5.819 13 13a12.94 12.94 0 0 1-2.087 7.067A4.995 4.995 0 0 0 21.008 18H8.992a4.992 4.992 0 0 0-4.905 4.067zM18.315 18h-6.632A5.997 5.997 0 0 1 9 12.998v-2.996A6.004 6.004 0 0 1 15 4c3.314 0 6 2.688 6 6.002v2.996A6 6 0 0 1 18.315 18z" class="color-200" transform="translate(55 55)"/><path fill="#40A0FF" d="M6 24.381A12.957 12.957 0 0 0 15 28c3.493 0 6.664-1.377 9-3.619V23h.624H24c0-1.659-1.34-3-2.992-3H8.992A2.993 2.993 0 0 0 6 23h-.624H6v1.381z" class="color-300" transform="translate(55 55)"/><rect width="9" height="12" x="10.5" y="5.5" fill="#FFF" class="color-100" rx="4.5" transform="translate(55 55)"/><path fill="#005CB9" fill-rule="nonzero" d="M15 0c8.285 0 15 6.715 15 15s-6.715 15-15 15S0 23.285 0 15 6.715 0 15 0zm6.008 20H8.992a2.993 2.993 0 0 0-2.987 2.823L6 23v1.381A12.957 12.957 0 0 0 15 28c3.493 0 6.664-1.377 9-3.619V23c0-1.659-1.34-3-2.992-3zM15 2C7.819 2 2 7.82 2 15c0 2.606.767 5.033 2.087 7.067A4.992 4.992 0 0 1 8.992 18h2.69A5.997 5.997 0 0 1 9 12.998v-2.996A6.004 6.004 0 0 1 15 4c3.314 0 6 2.688 6 6.002v2.996A6 6 0 0 1 18.315 18h2.693c2.439 0 4.47 1.75 4.905 4.067A12.94 12.94 0 0 0 28 15c0-7.181-5.82-13-13-13zm0 4l-.2.005a4.005 4.005 0 0 0-3.8 3.997v2.996C11 15.208 12.79 17 15 17l.2-.005a4.005 4.005 0 0 0 3.8-3.997v-2.996C19 7.792 17.21 6 15 6z" class="color-500" transform="translate(55 55)"/></g></g></svg>