<svg xmlns="http://www.w3.org/2000/svg" width="93" height="92" fill="none" class="wd-applet-people-workspace wd-applet" focusable="false" role="presentation" viewBox="0 0 93 92"><g class="wd-icon-container"><g class="animate-flood"><path fill="#0B77E3" fill-opacity=".2" fill-rule="evenodd" d="M46.663 82c19.882 0 36-16.118 36-36s-16.118-36-36-36-36 16.118-36 36 16.118 36 36 36z" class="color-400-alpha-20" clip-rule="evenodd"/></g><g class="animate-float"><path fill="#40A0FF" d="M78.663 34h-64a3 3 0 0 0-3 3v14a3 3 0 0 0 3 3h64a3 3 0 0 0 3-3V37a3 3 0 0 0-3-3z" class="color-300"/><path fill="#005CB9" d="M13.663 36.994v14.012c0 .545.45.994 1.008.994h63.984a.994.994 0 0 0 1.008-.994V36.994c0-.545-.45-.994-1.008-.994H14.671a.994.994 0 0 0-1.008.994zm-2 0A2.994 2.994 0 0 1 14.671 34h63.984a3.003 3.003 0 0 1 3.008 2.994v14.012A2.994 2.994 0 0 1 78.655 54H14.671a3.003 3.003 0 0 1-3.008-2.994V36.994z" class="color-500"/></g><g class="animate-spin"><circle cx="59.75" cy="31" r="5.03" fill="#fff" class="color-100"/><path fill="#A6D2FF" fill-rule="evenodd" d="M47.018 38.435v.003l-.048.242-.034.12c-.144.382-.27.671-.574 1.318a1.158 1.158 0 0 0 .269 1.348c.25.228.362.331.497.462.171.164.316.312.439.449.05.055.096.108.138.16.035.042.073.081.114.118l.947.862c.332.302.809.384 1.223.21 1.898-.797 3.816-.896 5.975-.308 2.281.524 3.949 1.603 5.27 3.4.279.378.758.55 1.213.434.344-.087.628-.151 1.25-.284.652-.14.873-.189 1.19-.268.152-.038.295-.076.433-.115.411-.116.725-.449.817-.866.043-.194.074-.35.153-.764.066-.346.096-.497.14-.695.372-1.288 1.253-2.678 2.388-3.767.664-.637 4.416-2.771 5.67-2.815.468-.017.88-.315 1.043-.755.058-.157.16-.486.288-.921a76.573 76.573 0 0 0 .318-1.117c.073-.258.14-.466.218-.677.183-.495.01-1.05-.423-1.351-1.346-.94-2.395-2.394-3.066-4.247-.654-1.804-.768-3.907-.311-5.524l.022-.088c.057-.26.16-.514.444-1.117.202-.43.12-.94-.205-1.286l-.459-.488a70.167 70.167 0 0 0-.447-.471 26.483 26.483 0 0 0-1.178-1.159 1.153 1.153 0 0 0-1.188-.224c-2.03.774-4.066.844-6.258.215-2.16-.619-3.826-1.73-4.888-3.268a1.153 1.153 0 0 0-1.19-.473l-1.23.263-.094.023c-.342.096-.674.177-1.54.378a1.158 1.158 0 0 0-.869.88c-.033.15-.056.295-.083.52-.049.413-.05.428-.053.444l-.002.019c-.01.072-.02.117-.03.166-.021.101-.046.19-.069.253l-.03.087a4.187 4.187 0 0 1-.265.657c-.805 1.6-1.708 2.825-2.771 3.736-1.57 1.317-3.169 2-5.104 2.162a1.157 1.157 0 0 0-.996.776c-.137.396-.226.703-.435 1.496-.189.715-.271 1.001-.385 1.33-.165.479 0 1.009.405 1.309 2.772 2.05 3.889 4.877 3.47 8.746l-.03.145a2.96 2.96 0 0 0-.079.317zm11.418-2.357a5.297 5.297 0 1 0 2.742-10.233 5.297 5.297 0 0 0-2.742 10.233z" class="color-200" clip-rule="evenodd"/><path fill="#005CB9" fill-rule="evenodd" d="M56.998 13.75a2.153 2.153 0 0 1 2.222.882c.905 1.31 2.356 2.307 4.341 2.876 1.995.572 3.809.505 5.627-.188a2.153 2.153 0 0 1 2.216.419 27.504 27.504 0 0 1 1.227 1.206c.132.137.27.281.454.478l.458.487c.607.645.759 1.596.382 2.397-.287.613-.342.771-.371.907l-.004.016-.03.117-.003.013c-.393 1.389-.303 3.276.289 4.91.616 1.7 1.553 2.97 2.698 3.767a2.157 2.157 0 0 1 .789 2.519 7.732 7.732 0 0 0-.193.6 101.385 101.385 0 0 1-.321 1.128c-.126.43-.238.792-.31.987a2.157 2.157 0 0 1-1.946 1.407c-.123.005-.45.083-.984.298-.497.2-1.072.474-1.643.773-.568.3-1.117.615-1.559.89-.469.294-.745.498-.827.577-1.021.98-1.79 2.209-2.11 3.294-.038.168-.066.309-.128.635-.08.414-.113.582-.158.79a2.158 2.158 0 0 1-1.523 1.614c-.148.041-.301.082-.461.122a32.5 32.5 0 0 1-1.225.276c-.617.132-.887.193-1.212.276a2.153 2.153 0 0 1-2.264-.811c-1.174-1.595-2.63-2.545-4.689-3.018l-.02-.004-.019-.006c-1.964-.535-3.65-.438-5.325.265a2.153 2.153 0 0 1-2.283-.392l-.948-.862a2.165 2.165 0 0 1-.211-.222 4.089 4.089 0 0 0-.11-.127 7.808 7.808 0 0 0-.389-.397c-.126-.12-.229-.217-.478-.443a2.158 2.158 0 0 1-.5-2.513c.289-.615.404-.88.528-1.206l.011-.04.04-.206c.027-.13.055-.252.09-.37l.011-.054c.189-1.794.017-3.282-.478-4.53-.497-1.254-1.342-2.328-2.596-3.256a2.157 2.157 0 0 1-.756-2.438c.1-.292.175-.547.363-1.26.21-.798.307-1.134.456-1.567a2.157 2.157 0 0 1 1.858-1.446c1.713-.145 3.118-.737 4.54-1.928.934-.801 1.76-1.904 2.52-3.412.135-.289.164-.366.207-.51l.005-.015.04-.118.005-.012.007-.024c.005-.02.012-.047.018-.079l.003-.012.002-.012a.825.825 0 0 0 .014-.078l.004-.026.002-.015.048-.405c.029-.243.056-.422.099-.616a2.158 2.158 0 0 1 1.62-1.64 32.54 32.54 0 0 0 1.494-.367l.018-.005.125-.03 1.243-.266zm.577 2.019a.153.153 0 0 0-.159-.063l-1.215.26-.064.015a35 35 0 0 1-1.567.385.158.158 0 0 0-.118.12 4.111 4.111 0 0 0-.067.424l-.048.409-.007.054-.002.011v.005a2.654 2.654 0 0 1-.045.244c-.025.121-.059.254-.103.375l-.02.06a5.186 5.186 0 0 1-.313.775l-.005.012-.006.012c-.847 1.684-1.824 3.027-3.014 4.047l-.008.007c-1.717 1.44-3.507 2.21-5.662 2.392a.157.157 0 0 0-.135.105c-.124.36-.205.638-.413 1.425-.19.718-.28 1.035-.407 1.402a.157.157 0 0 0 .055.178c1.518 1.122 2.616 2.486 3.266 4.126.647 1.633.825 3.478.603 5.532l-.006.049-.05.241-.015.047c-.014.046-.03.108-.051.211m0 0l-.048.244-.008.04-.057.2-.014.04c-.158.418-.297.735-.605 1.39a.158.158 0 0 0 .036.184c.253.23.372.34.518.48.183.176.345.34.489.5a5.828 5.828 0 0 1 .181.209l.948.862c.044.04.107.05.162.027 2.117-.889 4.26-.992 6.606-.356 2.494.577 4.367 1.784 5.833 3.778.037.05.1.073.16.057.363-.092.663-.16 1.287-.293.651-.139.858-.185 1.158-.26.143-.036.276-.071.404-.108a.158.158 0 0 0 .111-.118c.04-.179.069-.325.148-.737.066-.346.099-.51.147-.726l.007-.03.008-.028c.428-1.485 1.415-3.022 2.655-4.212.25-.24.692-.54 1.153-.828.487-.305 1.08-.645 1.688-.965.608-.32 1.247-.626 1.827-.86.542-.217 1.155-.422 1.66-.44a.157.157 0 0 0 .14-.102c.044-.12.137-.415.266-.855a75.671 75.671 0 0 0 .314-1.103l.002-.005a9.7 9.7 0 0 1 .242-.752.157.157 0 0 0-.057-.184c-1.548-1.08-2.708-2.72-3.435-4.726-.713-1.97-.853-4.282-.337-6.124l.016-.06c.085-.38.237-.727.511-1.311a.158.158 0 0 0-.027-.175l-.46-.489a65.39 65.39 0 0 0-.44-.464 25.271 25.271 0 0 0-1.13-1.11.153.153 0 0 0-.157-.03c-2.245.855-4.502.927-6.891.242-2.334-.67-4.216-1.896-5.435-3.662M64.197 29.9a4.533 4.533 0 0 0-5.498-3.306 4.545 4.545 0 0 0-3.305 5.507 4.533 4.533 0 0 0 5.497 3.306 4.545 4.545 0 0 0 3.306-5.507zm-5.982-5.246a6.533 6.533 0 0 1 7.923 4.764 6.545 6.545 0 0 1-4.762 7.929 6.533 6.533 0 0 1-7.923-4.764 6.545 6.545 0 0 1 4.762-7.929z" class="color-500" clip-rule="evenodd"/></g><g class="animate-float-left"><rect width="14.5" height="44.7" x="10.26" y="25.28" fill="#A6D2FF" class="color-200" rx="2" transform="rotate(-34.711 10.262 25.284)"/><path fill="#005CB9" fill-rule="evenodd" d="M11.401 26.928a2 2 0 0 1 .505-2.783l8.63-5.978a2 2 0 0 1 2.783.505l23.179 33.46a2 2 0 0 1-.506 2.783l-8.63 5.978a2 2 0 0 1-2.783-.505l-23.178-33.46zm1.644-1.139l8.63-5.978 23.178 33.46-8.63 5.978-2.42-3.493 2.804-1.942a1 1 0 1 0-1.14-1.644l-2.802 1.942-2.301-3.322 4.789-3.318a1 1 0 0 0-1.139-1.644l-4.79 3.318-2.3-3.322 2.803-1.942a1 1 0 0 0-1.14-1.644l-2.802 1.942-2.301-3.322 4.789-3.318a1 1 0 0 0-1.139-1.644l-4.79 3.318-2.3-3.322 2.803-1.942a1 1 0 0 0-1.14-1.644l-2.802 1.942-2.301-3.322 4.789-3.318a1 1 0 1 0-1.139-1.644l-4.79 3.318-2.419-3.493z" class="color-500" clip-rule="evenodd"/></g><g class="animate-float"><path fill="#fff" d="M36.808 16.127s-.888 2.144-2.938 2.648c-2.05.504-3.74-.934-3.74-.934l1.351-8.788 5.327 7.073z" class="color-100"/><path fill="#A6D2FF" d="M29.358 22.382a3 3 0 0 1 3.012-3.714l1.205.04a1 1 0 0 0 .525-.13l1.05-.593a3 3 0 0 1 4.39 1.896l11.087 45.121a2 2 0 0 1-1.465 2.42l-6.297 1.547a2 2 0 0 1-2.42-1.465L29.358 22.382z" class="color-200"/><path fill="#005CB9" fill-rule="evenodd" d="M28.5 17.884c-.057.433-.033.871.07 1.295l11.796 48.004a2.33 2.33 0 0 0 2.818 1.707l5.657-1.39a2.33 2.33 0 0 0 1.706-2.818L38.752 16.677a3.496 3.496 0 0 0-.537-1.18l-6.193-8.786c-.61-.867-1.967-.533-2.106.518L28.5 17.884zm8.64.612l-1.185 1.284-1.974-.707-1.422 1.489-1.683-.384 11.432 46.528a.33.33 0 0 0 .4.242l5.656-1.39a.33.33 0 0 0 .241-.4L37.14 18.497zm-.758-2.128l-.999 1.082-1.95-.698-1.536 1.607-1.4-.319.617-4.642c.37.12.84.152 1.436.005.595-.146.998-.393 1.27-.67l2.562 3.635z" class="color-500" clip-rule="evenodd"/></g><g class="animate-grow"><path fill="#fff" fill-rule="evenodd" d="M8.663 43.007v27.986c0 .56.444 1.007.99 1.007h74.02c.544 0 .99-.448.99-1.007V43.007a.996.996 0 0 0-.99-1.007H9.653a.998.998 0 0 0-.99 1.007z" class="color-100" clip-rule="evenodd"/><path fill="#A6D2FF" fill-rule="evenodd" d="M23.663 67c5.523 0 10-4.477 10-10s-4.477-10-10-10-10 4.477-10 10 4.477 10 10 10zm0-15a3 3 0 0 0-3 3v2a3 3 0 1 0 6 0v-2a3 3 0 0 0-3-3z" class="color-200" clip-rule="evenodd"/><g fill="#40A0FF" class="color-300"><path d="M41.663 53a1 1 0 0 0-1 1v1a1 1 0 0 0 1 1h18a1 1 0 0 0 1-1v-1a1 1 0 0 0-1-1h-18zM17.663 63.947v1.054a9.956 9.956 0 0 0 6 1.999 9.956 9.956 0 0 0 6-2v-1.053c0-1.624-.857-2.947-3.428-2.947h-5.143c-2.143 0-3.429 1.32-3.429 2.947z"/></g><g fill="#005CB9" class="color-500"><path d="M40.663 49a1 1 0 0 1 1-1h26a1 1 0 0 1 1 1v1a1 1 0 0 1-1 1h-26a1 1 0 0 1-1-1v-1zM56.663 65a3 3 0 0 1 3-3h18a3 3 0 0 1 0 6h-18a3 3 0 0 1-3-3z"/><path fill-rule="evenodd" d="M34.663 57c0 6.075-4.925 11-11 11s-11-4.925-11-11 4.925-11 11-11 11 4.925 11 11zm-6 7.484a8.959 8.959 0 0 1-5 1.516c-1.85 0-3.57-.558-5-1.516V64c0-.653.218-1.14.513-1.451.28-.294.74-.549 1.487-.549h6c1.089 0 1.464.31 1.61.48.195.225.39.68.39 1.52v.484zm1.885-1.687C30.21 61.177 29.093 60 26.663 60h-.354a3.99 3.99 0 0 0 1.354-3v-2a4 4 0 0 0-8 0v2a3.99 3.99 0 0 0 1.354 3h-.354c-2.042 0-3.416 1.194-3.852 2.836A9 9 0 1 1 32.663 57c0 2.208-.795 4.23-2.115 5.797zM25.663 57v-2a2 2 0 1 0-4 0v2a2 2 0 1 0 4 0z" clip-rule="evenodd"/><path fill-rule="evenodd" d="M6.663 43.007A2.998 2.998 0 0 1 9.653 40h74.02a2.996 2.996 0 0 1 2.99 3.007v27.986A2.998 2.998 0 0 1 83.673 74H9.653a2.996 2.996 0 0 1-2.99-3.007V43.007zm2 0v27.986c0 .56.444 1.007.99 1.007h74.02c.544 0 .99-.448.99-1.007V43.007a.996.996 0 0 0-.99-1.007H9.653a.998.998 0 0 0-.99 1.007z" clip-rule="evenodd"/></g></g></g></svg>