<svg xmlns="http://www.w3.org/2000/svg" width="92" height="92" class="wd-applet wd-applet-performance-dashboard" focusable="false" role="presentation" viewBox="0 0 92 92"><g fill="none" fill-rule="evenodd" class="wd-icon-container"><g fill="#0B77E3" fill-opacity=".2" class="animate-flood"><circle cx="36" cy="36" r="36" class="color-400-alpha-20" transform="translate(10 10)"/></g><path fill="#FFF" d="M15 26.002c0-1.106.897-2.002 2.005-2.002h19.99c1.107 0 2.005.898 2.005 2.002v38.996A2.003 2.003 0 0 1 36.995 67h-19.99A2.005 2.005 0 0 1 15 64.998V26.002zm26 0c0-1.106.89-2.002 2-2.002h32c1.105 0 2 .898 2 2.002v38.996C77 66.104 76.11 67 75 67H43c-1.105 0-2-.898-2-2.002V26.002z" class="color-100"/><g fill="#0B77E3" fill-rule="nonzero" class="animate-grow"><path d="M68.132 31.246l-1.328-.265a1 1 0 0 1 .392-1.962L71 29.78v3.82a1 1 0 0 1-2 0v-.477L47.637 50.771a1 1 0 1 1-1.274-1.542l21.769-17.983z" class="color-400"/></g><path fill="#40A0FF" d="M19 44.999A.998.998 0 0 1 20 44h14c.552 0 1 .443 1 .999v1.002A.998.998 0 0 1 34 47H20c-.552 0-1-.443-1-.999v-1.002zm0 10A.998.998 0 0 1 20 54h14c.552 0 1 .443 1 .999v1.002A.998.998 0 0 1 34 57H20c-.552 0-1-.443-1-.999v-1.002zm0-5A.998.998 0 0 1 20 49h14c.552 0 1 .443 1 .999v1.002A.998.998 0 0 1 34 52H20c-.552 0-1-.443-1-.999v-1.002zm0 10A.998.998 0 0 1 20 59h14c.552 0 1 .443 1 .999v1.002A.998.998 0 0 1 34 62H20c-.552 0-1-.443-1-.999v-1.002zm0-30A.998.998 0 0 1 20 29h14c.552 0 1 .443 1 .999v1.002A.998.998 0 0 1 34 32H20c-.552 0-1-.443-1-.999v-1.002zm36 18.996a1 1 0 0 1 .997-.995h6.006a1 1 0 0 1 .997.995v17.01a1 1 0 0 1-.997.995h-6.006a1 1 0 0 1-.997-.995v-17.01z" class="color-300"/><g class="animate-shrink"><path fill="#40A0FF" d="M28 36.003A.996.996 0 0 1 29.003 35h4.994A.996.996 0 0 1 35 36.003v4.994A.996.996 0 0 1 33.997 42h-4.994A.996.996 0 0 1 28 40.997v-4.994z" class="color-300"/><path fill="#005CB9" fill-rule="nonzero" d="M33.997 35A.996.996 0 0 1 35 36.003v4.994A.996.996 0 0 1 33.997 42h-4.994A.996.996 0 0 1 28 40.997v-4.994A.996.996 0 0 1 29.003 35h4.994zM33 37h-3v3h3v-3z" class="color-500"/></g><g fill="#005CB9" fill-rule="nonzero" class="animate-shrink"><path d="M24.997 35A.996.996 0 0 1 26 36.003v4.994A.996.996 0 0 1 24.997 42h-4.994A.996.996 0 0 1 19 40.997v-4.994A.996.996 0 0 1 20.003 35h4.994zM24 37h-3v3h3v-3z" class="color-500"/></g><path fill="#005CB9" fill-rule="nonzero" d="M75 24c1.105 0 2 .898 2 2.002v38.996C77 66.104 76.11 67 75 67H43c-1.105 0-2-.898-2-2.002V26.002c0-1.106.89-2.002 2-2.002h32zm-38.005 0c1.107 0 2.005.898 2.005 2.002v38.996A2.003 2.003 0 0 1 36.995 67h-19.99A2.005 2.005 0 0 1 15 64.998V26.002c0-1.106.897-2.002 2.005-2.002h19.99zm-11.783 2.001L17.005 26l-.001.89v.202l-.001 2.964v.381l-.001 5.5v.522l-.001 9.625v.584L17 64.998h1.83l9.563.001h.395l8.196.001h.011l.001-.89v-.202l.001-2.964v-.381l.001-5.5v-.522l.001-9.625v-.584L37 26.014v-.012h-1.83l-9.563-.001h-.395zm38.524 0L43 26v38.998l10.805.001h.46L74.99 65H75L75 26.002l-10.805-.001h-.46zM57 65h4V50h-4v15zm-2-16.005a1 1 0 0 1 .997-.995h6.006a1 1 0 0 1 .997.995v17.01a1 1 0 0 1-.997.995h-6.006a1 1 0 0 1-.997-.995v-17.01zM67 65h4V42h-4v23zm-2-24.007a1 1 0 0 1 .997-.993h6.006c.55 0 .997.446.997.993v25.014a1 1 0 0 1-.997.993h-6.006a.996.996 0 0 1-.997-.993V40.993zM47 65h4v-7h-4v7zm-2-8.004a1 1 0 0 1 .997-.996h6.006c.55 0 .997.445.997.996v9.008a1 1 0 0 1-.997.996h-6.006a.996.996 0 0 1-.997-.996v-9.008z" class="color-500"/></g></svg>