<svg xmlns="http://www.w3.org/2000/svg" width="92" height="92" class="wd-applet wd-applet-performance" focusable="false" role="presentation" viewBox="0 0 92 92"><g fill="none" fill-rule="evenodd" class="wd-icon-container"><g fill="#0B77E3" fill-opacity=".2" class="animate-flood"><path d="M46 82c19.882 0 36-16.118 36-36S65.882 10 46 10 10 26.118 10 46s16.118 36 36 36z" class="color-400-alpha-20"/></g><g class="animate-shrink"><path fill="#005CB9" fill-rule="nonzero" d="M16 15a3 3 0 0 1 2.996-3h54.008A2.996 2.996 0 0 1 76 15v65a3 3 0 0 1-2.996 3H18.996A2.996 2.996 0 0 1 16 80V15z" class="color-500"/><path fill="#40A0FF" d="M18 15a1 1 0 0 1 .996-1h54.008c.55 0 .996.446.996 1v65a1 1 0 0 1-.996 1H18.996A.996.996 0 0 1 18 80V15zM21 20V76a2 2 0 0 0 2 2h44.996A3.006 3.006 0 0 0 71 74.999V20A2.999 2.999 0 0 0 67.996 17H24.004A3.006 3.006 0 0 0 21 20.001z" class="color-300"/><path fill="#FFF" d="M23 20.001c0-.553.455-1.001 1.004-1.001h43.992A.999.999 0 0 1 69 20.001V75c0 .553-.455 1.001-1.004 1.001H23V20.001z" class="color-100"/><path fill="#A6D2FF" d="M46 41a7 7 0 1 0 0-14 7 7 0 0 0 0 14z" class="color-200"/><path fill="#005CB9" fill-rule="nonzero" d="M46 43a9 9 0 1 1 0-18 9 9 0 0 1 0 18zm0-2a7 7 0 1 0 0-14 7 7 0 0 0 0 14zm5.634-2.845A6.99 6.99 0 0 1 46 41a6.99 6.99 0 0 1-5.635-2.846 3.785 3.785 0 0 1 2.524-2.05A3.483 3.483 0 0 1 42.5 34.5v-2c0-1.934 1.562-3.5 3.5-3.5 1.933 0 3.5 1.57 3.5 3.5v2c0 .579-.14 1.125-.388 1.605a3.792 3.792 0 0 1 2.522 2.05zM44.5 32.5v2c0 .826.672 1.5 1.5 1.5.834 0 1.5-.672 1.5-1.5v-2c0-.826-.672-1.5-1.5-1.5-.834 0-1.5.672-1.5 1.5z" class="color-500"/><path fill="#40A0FF" d="M42 39.746A1.777 1.777 0 0 1 43.775 38h4.45c.97 0 1.758.786 1.775 1.746A6.968 6.968 0 0 1 46 41a6.968 6.968 0 0 1-4-1.254z" class="color-300"/><path fill="#FFF" fill-rule="nonzero" d="M44.5 32.5v2c0 .826.672 1.5 1.5 1.5.834 0 1.5-.672 1.5-1.5v-2c0-.826-.672-1.5-1.5-1.5-.834 0-1.5.672-1.5 1.5z" class="color-100"/><path fill="#005CB9" fill-rule="nonzero" d="M40 10h-6.5c-3.039 0-5.5 2.462-5.5 5.5V19a2 2 0 0 0 2 2h32a2 2 0 0 0 2-2v-3.5c0-3.035-2.464-5.5-5.5-5.5H52v-.004a6 6 0 0 0-12 0V10z" class="color-500"/><path fill="#A6D2FF" d="M46 6c2.21 0 4 1.797 4 3.996V12h8.5c1.933 0 3.5 1.57 3.5 3.5V19H30v-3.5c0-1.933 1.565-3.5 3.5-3.5H42V9.996A4 4 0 0 1 46 6zm0 2a2 2 0 1 0 0 4 2 2 0 0 0 0-4z" class="color-200"/><path fill="#40A0FF" d="M47 57.999c0-.552-.455-.999-.992-.999H27.992a.992.992 0 0 0-.992.999v1.002c0 .552.455.999.992.999h18.016a.992.992 0 0 0 .992-.999v-1.002zm-16 5A.999.999 0 0 0 29.99 62h-1.98c-.558 0-1.01.443-1.01.999v1.002c0 .552.443.999 1.01.999h1.98c.558 0 1.01-.443 1.01-.999v-1.002zm24 0A.995.995 0 0 0 53.998 62H34.002a.998.998 0 0 0-1.002.999v1.002c0 .552.44.999 1.002.999h19.996A.998.998 0 0 0 55 64.001v-1.002zm-16 5c0-.552-.456-.999-1.002-.999h-9.996a.998.998 0 0 0-1.002.999v1.002c0 .552.456.999 1.002.999h9.996A.998.998 0 0 0 39 69.001v-1.002zm14 0c0-.552-.456-.999-1.002-.999h-9.996a.998.998 0 0 0-1.002.999v1.002c0 .552.456.999 1.002.999h9.996A.998.998 0 0 0 53 69.001v-1.002zm5-10a.998.998 0 0 0-.998-.999h-7.004a.995.995 0 0 0-.998.999v1.002c0 .552.446.999.998.999h7.004c.551 0 .998-.443.998-.999v-1.002zm7 0A.997.997 0 0 0 64 57h-3c-.552 0-1 .443-1 .999v1.002c0 .552.444.999 1 .999h3c.552 0 1-.443 1-.999v-1.002z" class="color-300"/><path fill="#005CB9" d="M30.044 51.974a.298.298 0 0 0-.287 0l-1.446.785a.18.18 0 0 1-.264-.186l.267-1.7a.337.337 0 0 0-.088-.285l-1.176-1.221a.18.18 0 0 1 .102-.303l1.624-.257a.313.313 0 0 0 .232-.177l.73-1.528a.18.18 0 0 1 .325 0l.73 1.528c.045.095.132.161.232.177l1.624.257a.18.18 0 0 1 .102.303l-1.176 1.22a.337.337 0 0 0-.089.286l.268 1.7a.18.18 0 0 1-.264.186l-1.446-.785zm8 0a.298.298 0 0 0-.287 0l-1.446.785a.18.18 0 0 1-.264-.186l.267-1.7a.337.337 0 0 0-.088-.285l-1.176-1.221a.18.18 0 0 1 .102-.303l1.624-.257a.313.313 0 0 0 .232-.177l.73-1.528a.18.18 0 0 1 .325 0l.73 1.528c.045.095.132.161.232.177l1.624.257a.18.18 0 0 1 .102.303l-1.176 1.22a.337.337 0 0 0-.089.286l.268 1.7a.18.18 0 0 1-.264.186l-1.446-.785zm8 0a.298.298 0 0 0-.287 0l-1.446.785a.18.18 0 0 1-.264-.186l.267-1.7a.337.337 0 0 0-.088-.285l-1.176-1.221a.18.18 0 0 1 .102-.303l1.624-.257a.313.313 0 0 0 .232-.177l.73-1.528a.18.18 0 0 1 .325 0l.73 1.528c.045.095.132.161.232.177l1.624.257a.18.18 0 0 1 .102.303l-1.176 1.22a.337.337 0 0 0-.089.286l.268 1.7a.18.18 0 0 1-.264.186l-1.446-.785zm8 0a.298.298 0 0 0-.287 0l-1.446.785a.18.18 0 0 1-.264-.186l.267-1.7a.337.337 0 0 0-.088-.285l-1.176-1.221a.18.18 0 0 1 .102-.303l1.624-.257a.313.313 0 0 0 .232-.177l.73-1.528a.18.18 0 0 1 .325 0l.73 1.528c.045.095.132.161.232.177l1.624.257a.18.18 0 0 1 .102.303l-1.176 1.22a.337.337 0 0 0-.089.286l.268 1.7a.18.18 0 0 1-.264.186l-1.446-.785zm8 0a.298.298 0 0 0-.287 0l-1.446.785a.18.18 0 0 1-.264-.186l.267-1.7a.337.337 0 0 0-.088-.285l-1.176-1.221a.18.18 0 0 1 .102-.303l1.624-.257a.313.313 0 0 0 .232-.177l.73-1.528a.18.18 0 0 1 .325 0l.73 1.528c.045.095.132.161.232.177l1.624.257a.18.18 0 0 1 .102.303l-1.176 1.22a.337.337 0 0 0-.089.286l.268 1.7a.18.18 0 0 1-.264.186l-1.446-.785z" class="color-500"/></g></g></svg>