<svg xmlns="http://www.w3.org/2000/svg" width="92" height="92" class="wd-applet wd-applet-pie-graph" focusable="false" role="presentation" viewBox="0 0 92 92"><g fill="none" fill-rule="evenodd" class="wd-icon-container"><g fill="#0B77E3" fill-opacity=".2" class="animate-flood"><circle cx="36" cy="36" r="36" class="color-400-alpha-20" transform="translate(10 10)"/></g><rect width="64" height="50" x="14" y="19" fill="#FFF" class="color-100" rx="1"/><path fill="#40A0FF" d="M62.31 70.05l3.286 9.772c.177.525.715.747 1.215.488l1.141-.59c.495-.257.78-.894.637-1.429l-2.199-8.207-4.08-.034zM29.326 70l-2.381 9.798c-.131.539-.688.916-1.23.845l-1.947-.257a.884.884 0 0 1-.755-1.111l2.236-9.248L29.325 70z" class="color-300"/><path fill="#000" d="M28.325 70l-.804 3H25.45l.798-2.973L28.325 70zm34.986.05l2.08.034.78 2.916h-2.07l-.79-2.95z" class="color-shadow" opacity=".1"/><path fill="#40A0FF" d="M33 31.999c0-.552.445-.999.993-.999h16.014c.548 0 .993.443.993.999v1.002a.996.996 0 0 1-.993.999H33.993a.993.993 0 0 1-.993-.999v-1.002zm0 5c0-.552.456-.999 1.002-.999h9.996a.998.998 0 0 1 1.002.999v1.002c0 .552-.456.999-1.002.999h-9.996A.998.998 0 0 1 33 38.001v-1.002zm-10 5a1 1 0 0 1 .995-.999h17.01c.55 0 .995.443.995.999v1.002a1 1 0 0 1-.995.999h-17.01a.994.994 0 0 1-.995-.999v-1.002zm10 11c0-.552.453-.999.997-.999h6.006c.55 0 .997.443.997.999v1.002c0 .552-.453.999-.997.999h-6.006a.995.995 0 0 1-.997-.999v-1.002zm-10 5c0-.552.455-.999.992-.999h18.016c.548 0 .992.443.992.999v1.002c0 .552-.455.999-.992.999H23.992a.992.992 0 0 1-.992-.999v-1.002zm10-10A.994.994 0 0 1 34.003 47h4.994a.998.998 0 0 1 1.003.999v1.002a.994.994 0 0 1-1.003.999h-4.994A.998.998 0 0 1 33 49.001v-1.002zm-5-30.99c0-.557.455-1.009 1-1.009h34a1 1 0 0 1 1 1.01v1.98A1.01 1.01 0 0 1 63 20H29a1 1 0 0 1-1-1.01v-1.98z" class="color-300"/><path fill="#A6D2FF" d="M23 48.003A.996.996 0 0 1 24.003 47h4.994A.996.996 0 0 1 30 48.003v4.994A.996.996 0 0 1 28.997 54h-4.994A.996.996 0 0 1 23 52.997v-4.994zM56.018 57a8.018 8.018 0 0 1 0-16.036v8.018h8.018A8.018 8.018 0 0 1 56.018 57z" class="color-200"/><path fill="#005CB9" fill-rule="nonzero" d="M63 14a3 3 0 0 1 3 3h10.995A3.002 3.002 0 0 1 80 19.999V68A2.997 2.997 0 0 1 76.995 71h-9.326l1.816 6.778a3.002 3.002 0 0 1-2.12 3.682 3.001 3.001 0 0 1-3.675-2.129L61.457 71H30.13l-2.231 8.327a3.001 3.001 0 0 1-3.676 2.128 3.002 3.002 0 0 1-2.12-3.681L23.918 71h-8.913A3.002 3.002 0 0 1 12 68.001V20A2.997 2.997 0 0 1 15.005 17H26l.005-.167A3.01 3.01 0 0 1 29 14h34zm2.6 57.004l-2.07.003 2.092 7.806c.144.538.689.859 1.226.715.534-.143.85-.693.705-1.232L65.6 71.004zm-37.542.001l-2.073.008-1.95 7.278c-.145.54.172 1.09.705 1.232a1.001 1.001 0 0 0 1.227-.714l2.09-7.804zM26 19.001L15.005 19a.997.997 0 0 0-1.005.999V68c0 .551.45.999 1.005.999h61.99A.997.997 0 0 0 78 68.001V20c0-.551-.45-.999-1.005-.999H66l-.005.167A3.01 3.01 0 0 1 63 22H29a3 3 0 0 1-3-3zM63 16H29c-.545 0-1 .452-1 1.01v1.98A1 1 0 0 0 29 20h34c.545 0 1-.452 1-1.01v-1.98A1 1 0 0 0 63 16zm-6.982 41a8.018 8.018 0 0 0 8.018-8.018h-8.018v-8.018a8.018 8.018 0 1 0 0 16.036zm10.018-10.018v2C66.036 54.515 61.551 59 56.018 59S46 54.515 46 48.982s4.485-10.018 10.018-10.018h2v8.018h8.018zM25 49v3h3v-3h-3zm-2-.997A.996.996 0 0 1 24.003 47h4.994A.996.996 0 0 1 30 48.003v4.994A.996.996 0 0 1 28.997 54h-4.994A.996.996 0 0 1 23 52.997v-4.994z" class="color-500"/><g class="animate-grow"><path fill="#0B77E3" d="M23 32.003A.996.996 0 0 1 24.003 31h4.994A.996.996 0 0 1 30 32.003v4.994A.996.996 0 0 1 28.997 38h-4.994A.996.996 0 0 1 23 36.997v-4.994z" class="color-400"/><path fill="#005CB9" fill-rule="nonzero" d="M25 33v3h3v-3h-3zm-2-.997A.996.996 0 0 1 24.003 31h4.994A.996.996 0 0 1 30 32.003v4.994A.996.996 0 0 1 28.997 38h-4.994A.996.996 0 0 1 23 36.997v-4.994z" class="color-500"/></g><g class="animate-grow"><path fill="#0B77E3" d="M61.8 35.82l.063 7.364 7.438-.062c0-3.796-3.176-7.567-7.5-7.302z" class="color-400"/><path fill="#005CB9" fill-rule="nonzero" d="M62 36v7h7c0-3.796-3.204-7-7-7zm.127-2c4.9 0 8.873 3.972 8.873 8.873v2H60.127V34h2z" class="color-500"/></g></g></svg>