<svg xmlns="http://www.w3.org/2000/svg" width="92" height="92" fill="none" class="wd-applet-planning wd-applet" focusable="false" role="presentation" viewBox="0 0 92 92"><g class="wd-icon-container"><path fill="#fff" d="M0 0h92v92H0z"/><g class="animate-flood"><path fill="#0B77E3" fill-opacity=".2" fill-rule="evenodd" d="M46 82c19.882 0 36-16.118 36-36S65.882 10 46 10 10 26.118 10 46s16.118 36 36 36z" class="color-400-alpha-20" clip-rule="evenodd"/></g><g class="animate-float-left"><path fill="#A6D2FF" d="M54.5 22H43v32l11.5 11.5V22z" class="color-200"/><path fill="#fff" d="M43.5 20.5l4-7.5H51l3.5 7.5h-11z" class="color-100"/><g fill="#005CB9" fill-rule="evenodd" class="color-500" clip-rule="evenodd"><path d="M42 21.12a1 1 0 0 1 1-1h12a1 1 0 0 1 1 1v43.262c0 .894-1.082 1.339-1.71.704l-12-12.12a1 1 0 0 1-.29-.704V21.12zm6 2.02a1 1 0 0 0-1-1h-2a1 1 0 0 0-1 1v28.285a1 1 0 0 0 .29.704l2 2.02c.628.635 1.71.19 1.71-.704V23.141zm6 36.365c0 .894-1.082 1.339-1.71.704l-2-2.02a1 1 0 0 1-.29-.704V23.141a1 1 0 0 1 1-1h2a1 1 0 0 1 1 1v36.364z"/><path d="M50.182 8.738a1.316 1.316 0 0 0-2.364 0l-5.677 11.47c-.44.888.2 1.933 1.183 1.933h11.352c.983 0 1.622-1.045 1.183-1.933l-5.677-11.47zm-2.74 4.565L44.5 19.615c-.147.296.172.505.5.505h8.5c.328 0 .647-.209.5-.505L50.69 13.3a1.043 1.043 0 0 1-.074.003h-3.175z"/></g><path fill="#1F262E" fill-rule="evenodd" d="M49.41 11.575c.62-.33 1.338-.197 1.603.298l3.98 7.434c.265.495-.023 1.164-.643 1.494-.62.33-1.338.197-1.603-.298l-3.98-7.434c-.265-.495.023-1.164.643-1.494z" class="color-shadow" clip-rule="evenodd" opacity=".1"/></g><g class="animate-sink"><path fill="#fff" d="M73 10v63.044a1 1 0 0 1-.306.72l-.7.674a1 1 0 0 1-1.403-.014l-9.3-9.346a1 1 0 0 1-.291-.705V10a1 1 0 0 1 1-1h10a1 1 0 0 1 1 1z" class="color-100"/><path fill="#1F262E" fill-rule="evenodd" d="M72.427 8c.703 0 1.273.455 1.273 1.016v63.28c0 .56-.57 1.015-1.273 1.015s-1.273-.455-1.273-1.016V9.015c0-.56.57-1.015 1.273-1.015z" class="color-shadow" clip-rule="evenodd" opacity=".1"/><path fill="#005CB9" fill-rule="evenodd" d="M59 9.967v51.8c0 .816.329 1.595.911 2.163l10 10.369C71.815 76.15 75 74.798 75 72.137V9.967a3.006 3.006 0 0 0-3-3.011H62c-1.657 0-3 1.348-3 3.011zm2 48.989v2.812c0 .271.11.531.304.72l10 10.37c.634.617 1.696.166 1.696-.721V9.967c0-.554-.448-1.004-1-1.004H62c-.552 0-1 .45-1 1.004v7.989h6a1 1 0 1 1 0 2h-6v11h6a1 1 0 1 1 0 2h-6v11h6a1 1 0 1 1 0 2h-6v11h6a1 1 0 1 1 0 2h-6z" class="color-500" clip-rule="evenodd"/></g><g class="animate-grow"><path fill="#40A0FF" d="M19 77V21.506c0-.903 1.103-1.344 1.725-.688l52.672 55.494c.605.637.153 1.688-.725 1.688H20a1 1 0 0 1-1-1z" class="color-300"/><path fill="#fff" d="M31 66V51.515c0-.904 1.106-1.344 1.727-.686l13.68 14.484c.602.638.15 1.687-.727 1.687H32a1 1 0 0 1-1-1z" class="color-100"/><g fill="#005CB9" fill-rule="evenodd" class="color-500" clip-rule="evenodd"><path d="M29 52.051v13.478a3 3 0 0 0 3 3h12.686c2.629 0 3.986-3.141 2.184-5.056L34.185 49.995C32.323 48.017 29 49.335 29 52.05zm2 13.478V52.051c0-.906 1.108-1.345 1.728-.685l12.686 13.478c.6.638.148 1.685-.728 1.685H32a1 1 0 0 1-1-1z"/><path d="M17 23.006v53.523a3 3 0 0 0 3 3h51.645c2.647 0 3.997-3.178 2.16-5.083L22.158 20.923C20.285 18.98 17 20.307 17 23.006zm2 53.523V23.006c0-.9 1.095-1.342 1.72-.694l51.645 53.523c.613.635.163 1.695-.72 1.695H20a1 1 0 0 1-1-1z"/></g><path fill="#1F262E" fill-rule="evenodd" d="M30.465 50.145c.513-.48 1.24-.537 1.625-.128L45.974 64.79c.384.41.28 1.13-.232 1.61-.514.48-1.241.537-1.626.127L30.233 51.755c-.385-.41-.281-1.13.232-1.61z" class="color-shadow" clip-rule="evenodd" opacity=".1"/></g></g></svg>