<svg xmlns="http://www.w3.org/2000/svg" width="92" height="92" class="wd-applet wd-applet-portal" focusable="false" role="presentation" viewBox="0 0 92 92"><g fill="none" fill-rule="evenodd" class="wd-icon-container"><g fill="#0B77E3" fill-opacity=".2" class="animate-flood"><circle cx="36" cy="36" r="36" class="color-400-alpha-20" transform="translate(10 10)"/></g><g class="animate-sink-less"><path fill="#40A0FF" d="M18 72h50a4 4 0 0 0 4-4V24.167c0-.553-.452-1-.993-1H40.99c-.549 0-1.268-.348-1.611-.782l-6.014-7.603C33.024 14.35 32.302 14 31.74 14H15.008C14.45 14 14 14.443 14 15.002v52.996A4 4 0 0 0 18 72z" class="color-300"/><path fill="#005CB9" fill-rule="nonzero" d="M18 72h50a4 4 0 0 0 4-4V24.167c0-.553-.452-1-.993-1H40.99c-.549 0-1.268-.348-1.611-.782l-6.014-7.603C33.024 14.35 32.302 14 31.74 14H15.008C14.45 14 14 14.443 14 15.002v52.996A4 4 0 0 0 18 72zm-6-56.998A3.001 3.001 0 0 1 15.008 12h16.731c1.171 0 2.472.627 3.195 1.54l6.013 7.604c-.036-.046 30.06.023 30.06.023a3.001 3.001 0 0 1 2.993 3V68a6 6 0 0 1-6 6H18a6 6 0 0 1-6-6V15.002z" class="color-500"/></g><g class="animate-float-rotate-left"><path fill="#FFF" d="M41 57.258l-.002-29.617-.02-7.103-1.713 1.41L37.552 20l-1.713 1.948L34.127 20l-1.713 1.948L30.703 20l-1.714 1.948L27.277 20l-1.713 1.948L23.85 20l-1.713 1.948L20.425 20l-1.712 1.948L17 20.565V23.172l.002 29.614.02 8.77 1.713-1.504L20.448 62l1.713-1.948L23.873 62l1.713-1.948L27.297 62l1.714-1.948L30.723 62l1.713-1.948L34.15 62l1.713-1.948L37.575 62l1.712-1.948L41 61.508v-4.25z" class="color-100"/><path fill="#005CB9" fill-rule="nonzero" d="M39.377 20.561l2.595-2.136.006 2.11.02 7.106L42 57.258v6.412l-2.611-2.22-1.814 2.065-1.713-1.949-1.713 1.949-1.713-1.949-1.713 1.949-1.712-1.949-1.714 1.949-1.711-1.948-1.713 1.948-1.712-1.949-1.714 1.948-1.803-2.051-2.617 2.298-.005-2.203-.02-8.772L16 23.172v-4.7l2.595 2.096 1.83-2.083 1.713 1.949 1.713-1.949 1.713 1.949 1.713-1.949 1.712 1.949 1.714-1.949 1.711 1.948 1.713-1.948 1.712 1.949 1.714-1.948 1.824 2.075zM40 57.258l-.002-29.614-.014-4.992-.83.684-1.602-1.822-1.713 1.949-1.712-1.949-1.714 1.95-1.71-1.95-1.714 1.949-1.712-1.949-1.713 1.949-1.713-1.949-1.713 1.949-1.713-1.949-1.594 1.815-.83-.67V52.782l.016 6.568.809-.71 1.622 1.845 1.713-1.949 1.712 1.949 1.714-1.95 1.71 1.95 1.714-1.949 1.712 1.949 1.714-1.949 1.712 1.949 1.713-1.949 1.713 1.949 1.61-1.833.815.692v-2.087z" class="color-500"/><path fill="#005CB9" d="M21.094 53l-.907.907a.642.642 0 0 0 .002.904c.251.252.655.251.904.002l.907-.907.907.907a.642.642 0 0 0 .904-.002.638.638 0 0 0 .002-.904L22.906 53l.907-.907a.642.642 0 0 0-.002-.904.638.638 0 0 0-.904-.002l-.907.907-.907-.907a.642.642 0 0 0-.904.002.638.638 0 0 0-.002.904l.907.907z" class="color-500"/><path fill="#0B77E3" d="M26 52a1 1 0 0 1 .999-1H38a1 1 0 1 1 0 2H27A.997.997 0 0 1 26 52z" class="color-400"/><path fill="#40A0FF" d="M20 36.929c0-.513.413-.929.922-.929h10.156c.51 0 .922.412.922.929a.925.925 0 0 1-.922.928H20.922A.923.923 0 0 1 20 36.93zm13.8 0a.93.93 0 0 1 .932-.929h2.336a.928.928 0 1 1 0 1.857h-2.336a.928.928 0 0 1-.932-.928zM20 40.643c0-.513.413-.929.922-.929h10.156c.51 0 .922.412.922.929a.925.925 0 0 1-.922.928H20.922a.923.923 0 0 1-.922-.928zm13.8 0a.93.93 0 0 1 .932-.929h2.336a.928.928 0 1 1 0 1.857h-2.336a.928.928 0 0 1-.932-.928zM20 44.357c0-.513.413-.928.922-.928h10.156c.51 0 .922.412.922.928a.925.925 0 0 1-.922.929H20.922a.923.923 0 0 1-.922-.929zm13.8 0a.93.93 0 0 1 .932-.928h2.336a.928.928 0 1 1 0 1.857h-2.336a.928.928 0 0 1-.932-.929z" class="color-300"/><path fill="#005CB9" d="M20 29.571c0-.315.254-.571.579-.571H37.42c.32 0 .579.265.579.571a.572.572 0 0 1-.579.572H20.58A.581.581 0 0 1 20 29.57zm3 2.858a.57.57 0 0 1 .579-.572H34.42c.32 0 .579.265.579.572a.57.57 0 0 1-.579.571H23.58a.581.581 0 0 1-.579-.571z" class="color-500"/></g><g class="animate-float-rotate-right"><rect width="32" height="21" x="2" y="2" fill="#FFF" class="color-100" rx="1" transform="translate(34 17)"/><path fill="#005CB9" fill-rule="nonzero" d="M2 2.999V22c0 .56.444.999.993.999h30.014a1 1 0 0 0 .993-.999V3A.99.99 0 0 0 33.007 2H2.993A1 1 0 0 0 2 2.999zm-2 0A3 3 0 0 1 2.993 0h30.014A2.99 2.99 0 0 1 36 2.999V22A3 3 0 0 1 33.007 25H2.993A2.99 2.99 0 0 1 0 22.001V3z" class="color-500" transform="translate(34 17)"/><rect width="6" height="3" x="4" y="6" fill="#A6D2FF" class="color-200" rx="1" transform="translate(34 17)"/><rect width="8" height="5" x="24" y="5" fill="#A6D2FF" class="color-200" rx="1" transform="translate(34 17)"/><path fill="#40A0FF" d="M4 13.999A.997.997 0 0 1 5 13h3c.552 0 1 .443 1 .999v1.002A.997.997 0 0 1 8 16H5c-.552 0-1-.443-1-.999v-1.002zm0 5c0-.552.453-.999.997-.999h6.006c.55 0 .997.443.997.999v1.002c0 .552-.453.999-.997.999H4.997A.995.995 0 0 1 4 20.001v-1.002zm10 0c0-.552.445-.999.996-.999h9.008c.55 0 .996.443.996.999v1.002a.997.997 0 0 1-.996.999h-9.008a.994.994 0 0 1-.996-.999v-1.002zm-2-5A.997.997 0 0 1 13 13h3c.552 0 1 .443 1 .999v1.002A.997.997 0 0 1 16 16h-3c-.552 0-1-.443-1-.999v-1.002zm8 0A.997.997 0 0 1 21 13h3c.552 0 1 .443 1 .999v1.002A.997.997 0 0 1 24 16h-3c-.552 0-1-.443-1-.999v-1.002zm8 0A.999.999 0 0 1 29.01 13h1.98c.558 0 1.01.443 1.01.999v1.002a.999.999 0 0 1-1.01.999h-1.98c-.558 0-1.01-.443-1.01-.999v-1.002z" class="color-300" transform="translate(34 17)"/></g><g class="animate-sink-less"><path fill="#000" d="M56.009 0A2.991 2.991 0 0 1 59 2.997V37a4 4 0 0 1-4 4H1c-.345 0-.68-.044-1-.126 1.725-.444 3-2.01 3-3.874V2.997A2.996 2.996 0 0 1 5.991 0h50.018z" class="color-shadow" opacity=".1" transform="translate(17 31)"/><path fill="#A6D2FF" d="M56.999 41A3.996 3.996 0 0 0 61 37.005V4.004C61 3.45 60.55 3 60.004 3H7.996C7.451 3 7 3.452 7 4.007V37a5.978 5.978 0 0 1-1.528 4H57z" class="color-200" transform="translate(17 31)"/><path fill="#005CB9" fill-rule="nonzero" d="M56.999 41A3.996 3.996 0 0 0 61 37.005V4.004C61 3.45 60.55 3 60.004 3H7.996C7.451 3 7 3.452 7 4.007V37a5.978 5.978 0 0 1-1.528 4H57zM5 4.007A3.006 3.006 0 0 1 7.996 1h52.008A3.003 3.003 0 0 1 63 4.004v33A5.996 5.996 0 0 1 56.999 43H1v-2a4 4 0 0 0 4-4V4.007z" class="color-500" transform="translate(17 31)"/><circle cx="34" cy="22" r="10" fill="#FFF" class="color-100" transform="translate(17 31)"/><path fill="#005CB9" fill-rule="nonzero" d="M34 32c5.523 0 10-4.477 10-10s-4.477-10-10-10-10 4.477-10 10 4.477 10 10 10zm0 2c-6.627 0-12-5.373-12-12s5.373-12 12-12 12 5.373 12 12-5.373 12-12 12z" class="color-500" transform="translate(17 31)"/><rect width="6" height="9" x="31" y="15" fill="#FFF" class="color-100" rx="3" transform="translate(17 31)"/><path fill="#005CB9" fill-rule="nonzero" d="M34 15a3 3 0 0 0-3 3v3a3 3 0 0 0 6 0v-3a3 3 0 0 0-3-3zm0-2a5 5 0 0 1 5 5v3a5 5 0 0 1-10 0v-3a5 5 0 0 1 5-5z" class="color-500" transform="translate(17 31)"/><path fill="#40A0FF" d="M41 28.96A2 2 0 0 0 39 27H29a2 2 0 0 0-2 1.96c2.14 1.864 4.781 3.005 7 3.005 2.219 0 4.86-1.141 7-3.006z" class="color-300" transform="translate(17 31)"/><path fill="#005CB9" fill-rule="nonzero" d="M39 27H29a2 2 0 0 0-2 1.96c2.14 1.864 4.781 3.005 7 3.005 2.219 0 4.86-1.141 7-3.006A2 2 0 0 0 39 27zm4 1.92l.018.933-.704.614c-2.487 2.168-5.58 3.498-8.314 3.498s-5.827-1.33-8.314-3.498l-.704-.614.019-.934A4 4 0 0 1 29 25h10a4 4 0 0 1 4 3.92z" class="color-500" transform="translate(17 31)"/></g></g></svg>