<svg xmlns="http://www.w3.org/2000/svg" width="92" height="92" class="wd-applet wd-applet-prism" focusable="false" role="presentation" viewBox="0 0 92 92"><g fill="none" fill-rule="evenodd" class="wd-icon-container"><g fill="#0B77E3" fill-opacity=".2" class="animate-flood"><path d="M46 82c19.882 0 36-16.118 36-36S65.882 10 46 10c-19.883 0-36 16.118-36 36s16.117 36 36 36" class="color-400-alpha-20"/></g><g class="animate-shrink"><path fill="#FFF" d="M46 11.5V51l34 18z" class="color-100"/><path fill="#A6D2FF" d="M46 11v40L12 69z" class="color-200"/><path fill="#0B77E3" d="M46.169 51L81 70H11l35.169-19z" class="color-400"/><path fill="#005CB9" fill-rule="nonzero" d="M9 71h74L46 9 9 71zm38-21V14l31 53-31-17zm-2-36v36L14 67l31-53zm1.082 38L77.5 69h-63l31.582-17z" class="color-500"/></g></g></svg>