<svg xmlns="http://www.w3.org/2000/svg" width="92" height="92" class="wd-applet wd-applet-procurement" focusable="false" role="presentation" viewBox="0 0 92 92"><g fill="none" fill-rule="evenodd" class="wd-icon-container"><g fill="#0B77E3" fill-opacity=".2" class="animate-flood"><path d="M46 83c19.882 0 36-16.118 36-36S65.882 11 46 11 10 27.118 10 47s16.118 36 36 36z" class="color-400-alpha-20"/></g><path fill="#005CB9" fill-rule="nonzero" d="M46 16c17.12 0 31 13.88 31 31 0 17.12-13.88 31-31 31-17.12 0-31-13.88-31-31 0-17.12 13.88-31 31-31zm0 2c-16.016 0-29 12.984-29 29s12.984 29 29 29 29-12.984 29-29-12.984-29-29-29z" class="color-500"/><g class="animate-grow"><path fill="#A6D2FF" d="M6 24.381A12.957 12.957 0 0 0 15 28c3.493 0 6.664-1.377 9-3.619V23h.624H24c0-1.659-1.34-3-2.992-3H8.992A2.993 2.993 0 0 0 6 23h-.624H6v1.381zm-1.913-2.314A12.94 12.94 0 0 1 2 15C2 7.82 7.819 2 15 2c7.18 0 13 5.819 13 13a12.94 12.94 0 0 1-2.087 7.067A4.995 4.995 0 0 0 21.008 18H8.992a4.992 4.992 0 0 0-4.905 4.067zM18.315 18h-6.632A5.997 5.997 0 0 1 9 12.998v-2.996A6.004 6.004 0 0 1 15 4c3.314 0 6 2.688 6 6.002v2.996A6 6 0 0 1 18.315 18z" class="color-200" transform="translate(9 48)"/><path fill="#40A0FF" d="M15 28c3.493 0 6.664-1.377 9-3.619V23c0-1.659-1.34-3-2.992-3H8.992A2.993 2.993 0 0 0 6 23v1.381A12.957 12.957 0 0 0 15 28z" class="color-300" transform="translate(9 48)"/><rect width="9" height="12" x="10.5" y="5.5" fill="#FFF" class="color-100" rx="4.5" transform="translate(9 48)"/><path fill="#005CB9" fill-rule="nonzero" d="M0 15C0 6.715 6.715 0 15 0s15 6.715 15 15-6.715 15-15 15S0 23.285 0 15zm6 9.381A12.957 12.957 0 0 0 15 28c3.493 0 6.664-1.377 9-3.619V23h.624H24c0-1.659-1.34-3-2.992-3H8.992A2.993 2.993 0 0 0 6 23h-.624H6v1.381zm-1.913-2.314A4.992 4.992 0 0 1 8.992 18h12.016c2.439 0 4.47 1.75 4.905 4.067A12.94 12.94 0 0 0 28 15c0-7.181-5.82-13-13-13C7.819 2 2 7.82 2 15c0 2.606.767 5.033 2.087 7.067zM18.315 18h-6.632A5.997 5.997 0 0 1 9 12.998v-2.996A6.004 6.004 0 0 1 15 4c3.314 0 6 2.688 6 6.002v2.996A6 6 0 0 1 18.315 18zM11 10.002v2.996C11 15.208 12.79 17 15 17c2.205 0 4-1.792 4-4.002v-2.996C19 7.792 17.21 6 15 6c-2.205 0-4 1.792-4 4.002z" class="color-500" transform="translate(9 48)"/></g><g class="animate-grow"><path fill="#A6D2FF" d="M33 21c0 7.181 5.82 13 13 13 7.181 0 13-5.82 13-13 0-7.181-5.82-13-13-13-7.181 0-13 5.82-13 13z" class="color-200"/><path fill="#40A0FF" d="M38 14h16v14H38z" class="color-300"/><path fill="#A6D2FF" d="M45 25h2v3h-2z" class="color-200"/><path fill="#FFF" d="M41 18h3v3h-3zm7 0h3v3h-3z" class="color-100"/><path fill="#005CB9" fill-rule="nonzero" d="M33 21c0 7.181 5.82 13 13 13 7.181 0 13-5.82 13-13 0-7.181-5.82-13-13-13-7.181 0-13 5.82-13 13zm-2 0c0-8.285 6.715-15 15-15s15 6.715 15 15-6.715 15-15 15-15-6.715-15-15z" class="color-500"/><path fill="#005CB9" fill-rule="nonzero" d="M53.136 12C54.722 12 56 13.34 56 14.997v12.006C56 28.657 54.722 30 53.143 30H38.857C37.277 30 36 28.66 36 27.003V14.997C36 13.343 37.278 12 38.857 12h14.28zm-.074 2H38.938c-.518 0-.938.446-.938.997v12.006c0 .554.42.997.938.997H43v-5h6v5h4.062c.518 0 .938-.446.938-.997V14.997c0-.554-.42-.997-.938-.997zM47 25h-2v3h2v-3z" class="color-500"/></g><g class="animate-grow"><path fill="#A6D2FF" d="M55 63c0 7.181 5.82 13 13 13 7.181 0 13-5.82 13-13 0-7.181-5.82-13-13-13-7.181 0-13 5.82-13 13z" class="color-200"/><path fill="#40A0FF" d="M60 57h8a1 1 0 0 1 1 1v9h-9a1 1 0 0 1-1-1v-8a1 1 0 0 1 1-1z" class="color-300"/><path fill="#FFF" d="M72 60h2.5a1 1 0 0 1 .8.4l2.5 3.333a1 1 0 0 1 .2.6V66a1 1 0 0 1-1 1h-6v-6a1 1 0 0 1 1-1z" class="color-100"/><path fill="#005CB9" fill-rule="nonzero" d="M72 60a1 1 0 0 0-1 1v6h6a1 1 0 0 0 1-1v-1.667a1 1 0 0 0-.2-.6L75.3 60.4a1 1 0 0 0-.8-.4H72zm0-2h2.5a3 3 0 0 1 2.4 1.2l2.5 3.333a3 3 0 0 1 .6 1.8V66a3 3 0 0 1-3 3h-8v-8a3 3 0 0 1 3-3zm-12-1a1 1 0 0 0-1 1v8a1 1 0 0 0 1 1h9v-9a1 1 0 0 0-1-1h-8zm0-2h8a3 3 0 0 1 3 3v11H60a3 3 0 0 1-3-3v-8a3 3 0 0 1 3-3z" class="color-500"/><path fill="#A6D2FF" d="M62.5 70a1.5 1.5 0 1 0 0-3 1.5 1.5 0 0 0 0 3zm12 0a1.5 1.5 0 1 0 0-3 1.5 1.5 0 0 0 0 3z" class="color-200"/><path fill="#005CB9" fill-rule="nonzero" d="M62.5 65a3.5 3.5 0 1 1 0 7 3.5 3.5 0 0 1 0-7zm12 0a3.5 3.5 0 1 1 0 7 3.5 3.5 0 0 1 0-7zm-12 2a1.5 1.5 0 1 0 0 3 1.5 1.5 0 0 0 0-3zm12 0a1.5 1.5 0 1 0 0 3 1.5 1.5 0 0 0 0-3zm-12 1a.5.5 0 1 1 0 1 .5.5 0 0 1 0-1zm12 0a.5.5 0 1 1 0 1 .5.5 0 0 1 0-1z" class="color-500"/><path fill="#005CB9" fill-rule="nonzero" d="M55 63c0 7.181 5.82 13 13 13 7.181 0 13-5.82 13-13 0-7.181-5.82-13-13-13-7.181 0-13 5.82-13 13zm-2 0c0-8.285 6.715-15 15-15s15 6.715 15 15-6.715 15-15 15-15-6.715-15-15z" class="color-500"/></g></g></svg>