<svg xmlns="http://www.w3.org/2000/svg" width="92" height="92" class="wd-applet wd-applet-project-hierarchy" focusable="false" role="presentation" viewBox="0 0 92 92"><g fill="none" fill-rule="evenodd" class="wd-icon-container"><g fill="#0B77E3" fill-opacity=".2" class="animate-flood"><circle cx="36" cy="36" r="36" class="color-400-alpha-20" transform="translate(10 10)"/></g><g class="animate-shrink"><path fill="#005CB9" fill-rule="nonzero" d="M0 11a3 3 0 0 1 2.996-3h54.008A2.996 2.996 0 0 1 60 11v65a3 3 0 0 1-2.996 3H2.996A2.996 2.996 0 0 1 0 76V11z" class="color-500" transform="translate(16 4)"/><path fill="#40A0FF" d="M2 11a1 1 0 0 1 .996-1h54.008c.55 0 .996.446.996 1v65a1 1 0 0 1-.996 1H2.996A.996.996 0 0 1 2 76V11zM5 16V72a2 2 0 0 0 2 2h44.996A3.006 3.006 0 0 0 55 70.999V16A2.999 2.999 0 0 0 51.996 13H8.004A3.006 3.006 0 0 0 5 16.001z" class="color-300" transform="translate(16 4)"/><path fill="#FFF" d="M7 16.001C7 15.448 7.455 15 8.004 15h43.992A.999.999 0 0 1 53 16.001V71c0 .553-.455 1.001-1.004 1.001H7V16.001z" class="color-100" transform="translate(16 4)"/><path fill="#A6D2FF" d="M30 2c2.21 0 4 1.797 4 3.996V8h8.5c1.933 0 3.5 1.57 3.5 3.5V15H14v-3.5C14 9.567 15.565 8 17.5 8H26V5.996A4 4 0 0 1 30 2zm0 2a2 2 0 1 0 0 4 2 2 0 0 0 0-4z" class="color-200" transform="translate(16 4)"/><path fill="#005CB9" fill-rule="nonzero" d="M30 0c3.311 0 6 2.69 6 5.996L42.5 6c3.036 0 5.5 2.465 5.5 5.5V15a2 2 0 0 1-2 2H14a2 2 0 0 1-2-2v-3.5C12 8.462 14.461 6 17.5 6H24c0-3.315 2.69-6 6-6zm0 2a4 4 0 0 0-4 3.996V8h-8.5a3.499 3.499 0 0 0-3.5 3.5V15h32v-3.5C46 9.57 44.433 8 42.5 8H34V5.996C34 3.796 32.21 2 30 2zm0 2a2 2 0 1 1 0 4 2 2 0 0 1 0-4z" class="color-500" transform="translate(16 4)"/><path fill="#A6D2FF" d="M35 42h10a1 1 0 0 1 1 1v8a1 1 0 0 1-1 1H35a1 1 0 0 1-1-1v-8a1 1 0 0 1 1-1zm-20 0h10a1 1 0 0 1 1 1v8a1 1 0 0 1-1 1H15a1 1 0 0 1-1-1v-8a1 1 0 0 1 1-1z" class="color-200" transform="translate(16 4)"/><rect width="12" height="10" x="24" y="24" fill="#40A0FF" class="color-300" rx="1" transform="translate(16 4)"/><path fill="#005CB9" d="M31 37h10v5h-2v-3H21v3h-2v-5h10v-3h2v3zm8 15h2v3h-2v-3zm-20 0h2v3h-2v-3zm17 5v6h8v-6h-8zm-1-2h10a1 1 0 0 1 1 1v8a1 1 0 0 1-1 1H35a1 1 0 0 1-1-1v-8a1 1 0 0 1 1-1zm-19 2v6h8v-6h-8zm-1-2h10a1 1 0 0 1 1 1v8a1 1 0 0 1-1 1H15a1 1 0 0 1-1-1v-8a1 1 0 0 1 1-1zm21-11v6h8v-6h-8zm-1-2h10a1 1 0 0 1 1 1v8a1 1 0 0 1-1 1H35a1 1 0 0 1-1-1v-8a1 1 0 0 1 1-1zm-19 2v6h8v-6h-8zm-1-2h10a1 1 0 0 1 1 1v8a1 1 0 0 1-1 1H15a1 1 0 0 1-1-1v-8a1 1 0 0 1 1-1zm11-16v6h8v-6h-8zm-1-2h10a1 1 0 0 1 1 1v8a1 1 0 0 1-1 1H25a1 1 0 0 1-1-1v-8a1 1 0 0 1 1-1z" class="color-500" transform="translate(16 4)"/></g></g></svg>