<svg xmlns="http://www.w3.org/2000/svg" width="92" height="92" class="wd-applet wd-applet-prospects" focusable="false" role="presentation" viewBox="0 0 92 92"><g fill="none" fill-rule="evenodd" class="wd-icon-container"><g fill="#0B77E3" fill-opacity=".2" class="animate-flood"><path d="M46 82c19.882 0 36-16.118 36-36S65.882 10 46 10 10 26.118 10 46s16.118 36 36 36z" class="color-400-alpha-20"/></g><path fill="#A6D2FF" d="M46 45H17.508A13.67 13.67 0 0 0 17 48.7v7.025c0 3.767 17.605 2.09 29 5.275V45zm32.925-2h-65.85C11.934 43 11 41.54 11 39.755v-1.51C11 36.46 11.934 35 13.075 35h65.85C80.066 35 81 36.46 81 38.245v1.51C81 41.54 80.066 43 78.925 43z" class="color-200"/><path fill="#40A0FF" d="M75 48.7v7.025c0 3.265-17.384 2.09-29 5.275V45h28.492A13.67 13.67 0 0 1 75 48.7zm3.615-14.166C76.287 33.28 70.17 30 70.17 30H21.747l-8.168 4.403c-1.124.605-.322.597 0 .597h64.94c.3 0 .862-.053.096-.466z" class="color-300"/><path fill="#005CB9" d="M70.171 28a2 2 0 0 1 .946.238l.022.011.041.023.338.18 1.057.568a12877.938 12877.938 0 0 1 6.988 3.754c.287.154.522.308.73.503C81.975 34 83 36.04 83 38.245v1.51C82.999 42.509 81.405 45 78.925 45h-2.366c.291 1.2.441 2.44.441 3.7v7.025c0 2.154-1.657 3.097-4.523 3.719-1.717.373-3.817.621-7.603.954.057-.005-3.47.3-4.514.395-1.784.163-3.29.316-4.725.488-3.6.43-6.576.954-9.106 1.648a2 2 0 0 1-1.068-.003c-2.566-.717-5.627-1.225-9.426-1.62a163.3 163.3 0 0 0-4.043-.362c-.596-.047-1.206-.093-1.984-.15l-1.931-.143c-4.223-.315-6.386-.542-8.245-.934-3.038-.64-4.832-1.703-4.832-3.992v-7.026c0-1.258.15-2.498.44-3.699h-2.365c-1.305 0-2.364-.689-3.075-1.742v5.837a4.886 4.886 0 0 1 3.244 7.276c.199.618.393 1.29.581 2.008.332 1.266.632 2.613.896 3.959a72.564 72.564 0 0 1 .287 1.553l.032.187.01.066a2 2 0 0 1 .027.322c0 4.712-12.077 4.712-12.077 0 0-.778.929-5.207 1.837-8.089A4.886 4.886 0 0 1 8 49.11V37.126C8 33.75 10.687 31 14.003 31h1.682l5.113-2.76a2 2 0 0 1 .95-.24H70.17zm4.321 17H17.508A13.67 13.67 0 0 0 17 48.7v7.025c0 2.626 8.552 2.606 17.593 3.432l.787.074c3.678.356 7.397.868 10.62 1.769 3.556-.975 7.652-1.542 11.625-1.952l.793-.08C67.115 58.108 75 57.924 75 55.725v-7.026c0-1.28-.177-2.521-.508-3.699zm-4.32-15H21.746l-8.168 4.403c-1.084.583-.377.597-.036.597h-.468C11.934 35 11 36.46 11 38.245v1.51C11 41.54 11.934 43 13.075 43h65.85c1.14 0 2.074-1.46 2.075-3.245v-1.51C81 36.46 80.066 35 78.925 35h-65.36H78.52c.3 0 .862-.053.096-.466a3220.58 3220.58 0 0 0-3.304-1.775l-.481-.259L70.17 30zm-53.988 3h29.691c.519 0 .94-.448.94-1s-.421-1-.94-1H19.892l-3.708 2z" class="color-500"/><g fill="#005CB9" class="animate-grow"><path d="M50 43h24v2H50z" class="color-500"/></g><path fill="#FFF" d="M7.078 56a2.885 2.885 0 1 1 3.921 0c1.237 3.302 2.078 8.466 2.078 8.466 0 2.045-8.077 2.045-8.077 0 0 0 .84-5.164 2.078-8.465zM45.5 34a2.5 2.5 0 1 0 0-5 2.5 2.5 0 0 0 0 5z" class="color-100"/><g class="animate-float-rotate-left"><path fill="#0B77E3" d="M52.607 68.725l3.828 3.828L44.829 84.16l-3.83-3.828z" class="color-400"/><path fill="#40A0FF" d="M62.799 70.432a.999.999 0 0 1 0 1.414l-2.414 2.415a1 1 0 0 1-1.414 0L50.9 66.189a.999.999 0 0 1 0-1.414l2.414-2.414a.999.999 0 0 1 1.414 0l8.07 8.07z" class="color-300"/><path fill="#FCFCFC" d="M79.477 45.683c5.077 5.077 5.077 13.308 0 18.385-5.077 5.077-13.308 5.077-18.385 0-5.077-5.077-5.077-13.308 0-18.385 5.077-5.077 13.308-5.077 18.385 0" class="color-screen" opacity=".7"/><path fill="#000" d="M57.526 57.375c-.8-4.102.389-8.515 3.566-11.692 5.077-5.077 13.308-5.077 18.385 0a12.984 12.984 0 0 1 3.566 11.692 12.938 12.938 0 0 0-3.566-6.692c-5.077-5.077-13.308-5.077-18.385 0a12.938 12.938 0 0 0-3.566 6.692" class="color-shadow" opacity=".1"/><path fill="#A6D2FF" d="M60.792 64.367c5.32 5.32 13.883 5.384 19.126.142 5.242-5.243 5.178-13.805-.142-19.126-5.32-5.32-13.883-5.384-19.126-.142-5.242 5.243-5.178 13.806.142 19.126M58.44 66.72c-6.639-6.639-6.718-17.323-.177-23.865 6.541-6.54 17.226-6.462 23.865.177 6.64 6.64 6.718 17.324.177 23.865-6.542 6.541-17.226 6.462-23.865-.177" class="color-200"/><path fill="#005CB9" d="M62.244 62.916c4.507 4.507 11.76 4.56 16.2.12 4.442-4.441 4.388-11.694-.12-16.201-4.506-4.507-11.76-4.561-16.2-.12-4.441 4.44-4.387 11.694.12 16.2zm-1.495 1.513c-5.327-5.327-5.4-13.904-.145-19.16 5.255-5.254 13.832-5.181 19.159.146 5.326 5.326 5.4 13.904.145 19.159-5.255 5.255-13.833 5.182-19.16-.145zm-2.31 2.29c6.64 6.639 17.325 6.719 23.866.177 6.542-6.541 6.462-17.226-.176-23.865-6.64-6.638-17.324-6.718-23.865-.176-6.542 6.54-6.462 17.226.176 23.865zm-5.832 3.006L42 80.33l2.829 2.829 10.606-10.607-2.828-2.828zm.862-6.49a1.01 1.01 0 0 0-.162.132l-1.401 1.4a1.002 1.002 0 0 0-.005 1.424l7.068 7.068a1.012 1.012 0 0 0 1.423-.005l1.4-1.401c.05-.051.095-.105.132-.161a19.218 19.218 0 0 1-4.898-3.558 19.214 19.214 0 0 1-3.557-4.898zm-.814-1.836c-2.563-6.732-1.176-14.588 4.194-19.96 7.328-7.326 19.278-7.237 26.694.178 7.415 7.416 7.504 19.366.177 26.694-5.371 5.37-13.226 6.757-19.957 4.194a3.05 3.05 0 0 1-.556.762l-1.401 1.4a3.01 3.01 0 0 1-4.251.006l-.706-.706-10.606 10.607a2 2 0 0 1-2.83 0l-2.827-2.828a2 2 0 0 1 0-2.83l10.607-10.605-.706-.706a3 3 0 0 1 .005-4.251l1.4-1.401c.23-.23.489-.414.763-.554z" class="color-500"/></g></g></svg>