<svg xmlns="http://www.w3.org/2000/svg" width="92" height="92" class="wd-applet wd-applet-pulsepoint" focusable="false" role="presentation" viewBox="0 0 92 92"><g fill="none" fill-rule="evenodd" class="wd-icon-container"><g fill="#0B77E3" fill-opacity=".2" class="animate-flood"><path d="M46 82c19.882 0 36-16.118 36-36S65.882 10 46 10 10 26.118 10 46s16.118 36 36 36z" class="color-400-alpha-20"/></g><g class="animate-shrink"><path fill="#40A0FF" d="M46.513 32.107a6.74 6.74 0 0 1-.497.008c-.259 0-.523-.004-.528-.008C43.105 27.874 37.289 25 32.002 25 24.266 25 18 31.142 18 38.718 18 57.652 39.168 66.309 45.999 73 52.829 66.31 74 57.652 74 38.718 74.001 31.142 67.733 25 60.002 25c-5.29 0-11.106 2.874-13.489 7.107z" class="color-300"/><path fill="#FFF" fill-rule="nonzero" d="M44.169 37.202l3.082 17.465 3.554-11.895L53.643 49h2.528a3.001 3.001 0 1 1 0 2h-3.814l-1.162-2.549-4.446 14.882-2.918-16.535-2.516 10.067L38.382 51H20v-2h19.618l1.067 2.135 3.484-13.933z" class="color-100"/><path fill="#005CB9" fill-rule="nonzero" d="M46.513 32.107C46.36 32.379 46 33 46 33s-.34-.597-.512-.893C43.105 27.874 37.289 25 32.002 25 24.266 25 18 31.142 18 38.718 18 57.652 39.168 66.309 45.999 73 52.829 66.31 74 57.652 74 38.718 74.001 31.142 67.733 25 60.002 25c-5.29 0-11.106 2.874-13.489 7.107zM60.002 23c8.826 0 16 7.029 15.998 15.718 0 10.484-5.52 18.382-15.836 26.257-.896.684-11.123 7.845-12.766 9.454l-1.4 1.37-1.399-1.37c-1.642-1.609-11.868-8.77-12.764-9.454C21.519 57.101 16 49.202 16 38.718 16 30.028 23.172 23 32.002 23c5.317 0 10.875 2.52 14 6.334 3.135-3.82 8.687-6.334 14-6.334z" class="color-500"/></g></g></svg>