<svg xmlns="http://www.w3.org/2000/svg" width="92" height="92" class="wd-applet wd-applet-purchase-requisitions" focusable="false" role="presentation" viewBox="0 0 92 92"><g fill="none" fill-rule="evenodd" class="wd-icon-container"><g fill="#0B77E3" fill-opacity=".2" class="animate-flood"><path d="M42 82c19.882 0 36-16.118 36-36S61.882 10 42 10 6 26.118 6 46s16.118 36 36 36z" class="color-400-alpha-20"/></g><g class="animate-shrink"><path fill="#005CB9" fill-rule="nonzero" d="M65.008 82A3 3 0 0 0 68 79V13a3 3 0 0 0-2.992-3H14.992A3 3 0 0 0 12 13v66a3 3 0 0 0 2.992 3h50.016zm0-2H14.992A1 1 0 0 1 14 79V13a1 1 0 0 1 .992-1h50.016A1 1 0 0 1 66 13v66a1 1 0 0 1-.992 1z" class="color-500"/><path fill="#FFF" d="M66 79a1 1 0 0 1-.992 1H14.992A1 1 0 0 1 14 79V13a1 1 0 0 1 .992-1h50.016A1 1 0 0 1 66 13v66z" class="color-100"/><path fill="#005CB9" d="M25 23a1 1 0 0 1 .998-1h28.004a1 1 0 1 1 0 2H25.998A.997.997 0 0 1 25 23zm5 5c0-.552.455-1 .992-1h18.016c.548 0 .992.444.992 1 0 .552-.455 1-.992 1H30.992A.993.993 0 0 1 30 28z" class="color-500"/><path fill="#40A0FF" d="M28 39.001c0 .552-.453.999-.997.999h-6.006a.995.995 0 0 1-.997-.999v-1.002c0-.552.453-.999.997-.999h6.006c.55 0 .997.443.997.999v1.002zm2 0v-1.002c0-.556.447-.999.998-.999h28.004c.55 0 .998.447.998.999v1.002a.996.996 0 0 1-.998.999H30.998a.999.999 0 0 1-.998-.999zm-2 7c0 .552-.453.999-.997.999h-6.006a.995.995 0 0 1-.997-.999v-1.002c0-.552.453-.999.997-.999h6.006c.55 0 .997.443.997.999v1.002zm2 0v-1.002c0-.556.447-.999.998-.999h28.004c.55 0 .998.447.998.999v1.002a.996.996 0 0 1-.998.999H30.998a.999.999 0 0 1-.998-.999zm-2 7c0 .552-.453.999-.997.999h-6.006a.995.995 0 0 1-.997-.999v-1.002c0-.552.453-.999.997-.999h6.006c.55 0 .997.443.997.999v1.002zm2 0v-1.002c0-.556.447-.999.998-.999h28.004c.55 0 .998.447.998.999v1.002a.996.996 0 0 1-.998.999H30.998a.999.999 0 0 1-.998-.999zm-2 7c0 .552-.453.999-.997.999h-6.006a.995.995 0 0 1-.997-.999v-1.002c0-.552.453-.999.997-.999h6.006c.55 0 .997.443.997.999v1.002zm2 0v-1.002c0-.556.447-.999.998-.999h28.004c.55 0 .998.447.998.999v1.002a.996.996 0 0 1-.998.999H30.998a.999.999 0 0 1-.998-.999zm-2 7c0 .552-.453.999-.997.999h-6.006a.995.995 0 0 1-.997-.999v-1.002c0-.552.453-.999.997-.999h6.006c.55 0 .997.443.997.999v1.002zm2 0v-1.002c0-.556.447-.999.998-.999h28.004c.55 0 .998.447.998.999v1.002a.996.996 0 0 1-.998.999H30.998a.999.999 0 0 1-.998-.999z" class="color-300"/><path fill="#000" d="M65.999 59L66 80H42V61.999A3 3 0 0 1 44.993 59h21.006z" class="color-shadow" opacity=".1"/></g><g class="animate-grow"><rect width="32" height="21" x="2" y="2" fill="#FFF" class="color-100" rx="1" transform="translate(44 61)"/><path fill="#005CB9" fill-rule="nonzero" d="M2 2.999V22c0 .56.444.999.993.999h30.014a1 1 0 0 0 .993-.999V3A.99.99 0 0 0 33.007 2H2.993A1 1 0 0 0 2 2.999zm-2 0A3 3 0 0 1 2.993 0h30.014A2.99 2.99 0 0 1 36 2.999V22A3 3 0 0 1 33.007 25H2.993A2.99 2.99 0 0 1 0 22.001V3z" class="color-500" transform="translate(44 61)"/><rect width="6" height="3" x="4" y="6" fill="#A6D2FF" class="color-200" rx="1" transform="translate(44 61)"/><rect width="8" height="5" x="24" y="5" fill="#A6D2FF" class="color-200" rx="1" transform="translate(44 61)"/><path fill="#40A0FF" d="M4 13.999A.997.997 0 0 1 5 13h3c.552 0 1 .443 1 .999v1.002A.997.997 0 0 1 8 16H5c-.552 0-1-.443-1-.999v-1.002zm0 5c0-.552.453-.999.997-.999h6.006c.55 0 .997.443.997.999v1.002c0 .552-.453.999-.997.999H4.997A.995.995 0 0 1 4 20.001v-1.002zm10 0c0-.552.445-.999.996-.999h9.008c.55 0 .996.443.996.999v1.002a.997.997 0 0 1-.996.999h-9.008a.994.994 0 0 1-.996-.999v-1.002zm-2-5A.997.997 0 0 1 13 13h3c.552 0 1 .443 1 .999v1.002A.997.997 0 0 1 16 16h-3c-.552 0-1-.443-1-.999v-1.002zm8 0A.997.997 0 0 1 21 13h3c.552 0 1 .443 1 .999v1.002A.997.997 0 0 1 24 16h-3c-.552 0-1-.443-1-.999v-1.002zm8 0A.999.999 0 0 1 29.01 13h1.98c.558 0 1.01.443 1.01.999v1.002a.999.999 0 0 1-1.01.999h-1.98c-.558 0-1.01-.443-1.01-.999v-1.002z" class="color-300" transform="translate(44 61)"/></g></g></svg>