<svg xmlns="http://www.w3.org/2000/svg" width="92" height="92" class="wd-applet wd-applet-purchases" focusable="false" role="presentation" viewBox="0 0 92 92"><g fill="none" fill-rule="evenodd" class="wd-icon-container"><g fill="#0B77E3" fill-opacity=".2" class="animate-flood"><path d="M46 82c19.882 0 36-16.118 36-36S65.882 10 46 10 10 26.118 10 46s16.118 36 36 36z" class="color-400-alpha-20"/></g><g class="animate-right"><rect width="49" height="31" x="2" y="2" fill="#A6D2FF" class="color-200" rx="1" transform="translate(33 34)"/><path fill="#40A0FF" d="M2 7h49v4H2z" class="color-300" transform="translate(33 34)"/><path fill="#005CB9" fill-rule="nonzero" d="M2 2.996v29.008c0 .558.448.996 1.001.996h46.998c.547 0 1.001-.446 1.001-.996V2.996A.994.994 0 0 0 49.999 2H3.001C2.454 2 2 2.446 2 2.996zm-2 0A3.002 3.002 0 0 1 3.001 0h46.998A2.994 2.994 0 0 1 53 2.996v29.008A3.002 3.002 0 0 1 49.999 35H3.001A2.994 2.994 0 0 1 0 32.004V2.996zM52 5v8H1V5h51zm-1 2H2v4h49V7z" class="color-500" transform="translate(33 34)"/></g><g class="animate-left"><rect width="49" height="31" x="2" y="2" fill="#FFF" class="color-100" rx="1" transform="translate(6 20)"/><path fill="#A6D2FF" d="M6 8.99c0-.546.446-.99.998-.99h7.004c.551 0 .998.451.998.99v4.02c0 .546-.446.99-.998.99H6.998A.999.999 0 0 1 6 13.01V8.99zM38 7h9a1 1 0 0 1 1 1v6a1 1 0 0 1-1 1h-9a1 1 0 0 1-1-1V8a1 1 0 0 1 1-1z" class="color-200" transform="translate(6 20)"/><path fill="#40A0FF" d="M5 20.999c0-.552.443-.999.99-.999h5.838c.547 0 .99.443.99.999v1.002a.994.994 0 0 1-.99.999H5.99a.992.992 0 0 1-.99-.999v-1.002zm0 6.154a.998.998 0 0 1 1-1h9.727c.553 0 1 .444 1 1v1.002a.998.998 0 0 1-1 .999H6c-.552 0-1-.443-1-1v-1.001zm13.682 0c0-.552.453-1 1.009-1h14.921c.558 0 1.01.444 1.01 1v1.002c0 .552-.454.999-1.01.999H19.691a1.001 1.001 0 0 1-1.01-1v-1.001zm-1.955-6.154c0-.552.443-.999.99-.999h5.838c.547 0 .99.443.99.999v1.002a.994.994 0 0 1-.99.999h-5.838a.992.992 0 0 1-.99-.999v-1.002zm11.728 0c0-.552.442-.999.99-.999h5.838c.546 0 .99.443.99.999v1.002a.994.994 0 0 1-.99.999h-5.838a.992.992 0 0 1-.99-.999v-1.002zm11.727 0c0-.552.443-.999.99-.999h5.838c.547 0 .99.443.99.999v1.002a.994.994 0 0 1-.99.999h-5.838a.992.992 0 0 1-.99-.999v-1.002z" class="color-300" transform="translate(6 20)"/><path fill="#005CB9" fill-rule="nonzero" d="M49.999 0A2.994 2.994 0 0 1 53 2.996v29.008A3.002 3.002 0 0 1 49.999 35H3.001A2.994 2.994 0 0 1 0 32.004V2.996A3.002 3.002 0 0 1 3.001 0h46.998zm0 2H3.001C2.454 2 2 2.446 2 2.996v29.008c0 .558.448.996 1.001.996h46.998c.547 0 1.001-.446 1.001-.996V2.996A.994.994 0 0 0 49.999 2zM39 13h7V9h-7v4zm-1-6h9a1 1 0 0 1 1 1v6a1 1 0 0 1-1 1h-9a1 1 0 0 1-1-1V8a1 1 0 0 1 1-1z" class="color-500" transform="translate(6 20)"/></g></g></svg>