<svg xmlns="http://www.w3.org/2000/svg" width="92" height="92" class="wd-applet wd-applet-purchasing" focusable="false" role="presentation" viewBox="0 0 92 92"><g fill="none" fill-rule="evenodd" class="wd-icon-container"><g fill="#0B77E3" fill-opacity=".2" class="animate-flood"><path d="M46 82c19.882 0 36-16.118 36-36S65.882 10 46 10 10 26.118 10 46s16.118 36 36 36z" class="color-400-alpha-20"/></g><g class="animate-shrink"><rect width="64" height="4" x="2" y="17" fill="#40A0FF" class="color-300" rx="1" transform="translate(12 16)"/><path fill="#005CB9" fill-rule="nonzero" d="M50.675 2a6 6 0 0 1 5.693 4.103L59.333 15h5.662A3.002 3.002 0 0 1 68 18.01v1.98c0 1.661-1.337 3.01-3.005 3.01h-2.081l-4.027 32.39c-.279 1.483-1.634 2.61-3.14 2.61H13.13c-1.49 0-2.84-1.098-3.159-2.552L5.113 23H3.005A3.002 3.002 0 0 1 0 19.99v-1.98C0 16.348 1.337 15 3.005 15h5.662l2.965-8.897A6 6 0 0 1 17.325 2h33.35zM60.76 23H7.29l4.635 32.02c.118.54.658.98 1.205.98h42.617c.54 0 1.073-.439 1.174-.98L60.761 23zm4.235-6H3.005C2.443 17 2 17.452 2 18.01v1.98c0 .567.45 1.01 1.005 1.01h61.99c.562 0 1.005-.452 1.005-1.01v-1.98c0-.567-.45-1.01-1.005-1.01zM50.675 4h-33.35a4 4 0 0 0-3.795 2.735L10.775 15h46.45L54.47 6.735A4 4 0 0 0 50.675 4z" class="color-500" transform="translate(12 16)"/><path fill="#FFF" d="M60.76 23H7.29l4.635 32.02c.118.54.658.98 1.205.98h42.617c.54 0 1.073-.439 1.174-.98L60.761 23z" class="color-100" transform="translate(12 16)"/><path fill="#005CB9" d="M19.085 29.04a1 1 0 0 1 1.083.909l1.656 18.928a1 1 0 0 1-1.992.174l-1.656-18.928a1 1 0 0 1 .909-1.083zM34 29a1 1 0 0 1 1 1v19a1 1 0 0 1-2 0V30a1 1 0 0 1 1-1zm14.915.04a1 1 0 0 1 .91 1.083l-1.657 18.928a1 1 0 1 1-1.992-.174l1.656-18.928a1 1 0 0 1 1.083-.909z" class="color-500" transform="translate(12 16)"/><path fill="#005CB9" fill-rule="nonzero" d="M41 0a3 3 0 0 1 0 6H27a3 3 0 0 1 0-6h14zm0 2H27a1 1 0 0 0 0 2h14a1 1 0 0 0 0-2z" class="color-500" transform="translate(12 16)"/><path fill="#A6D2FF" d="M27 2a1 1 0 0 0 0 2h14a1 1 0 0 0 0-2H27z" class="color-200" transform="translate(12 16)"/></g></g></svg>