<svg xmlns="http://www.w3.org/2000/svg" width="92" height="92" class="wd-applet wd-applet-purchase-orders" focusable="false" role="presentation" viewBox="0 0 92 92"><g fill="none" fill-rule="evenodd" class="wd-icon-container"><g fill="#0B77E3" fill-opacity=".2" class="animate-flood"><path d="M46 82c19.882 0 36-16.118 36-36S65.882 10 46 10 10 26.118 10 46s16.118 36 36 36z" class="color-400-alpha-20"/></g><g class="animate-shrink"><path fill="#005CB9" fill-rule="nonzero" d="M71.008 82A3 3 0 0 0 74 79V13a3 3 0 0 0-2.992-3H20.992A3 3 0 0 0 18 13v66a3 3 0 0 0 2.992 3h50.016zm0-2H20.992A1 1 0 0 1 20 79V13a1 1 0 0 1 .992-1h50.016A1 1 0 0 1 72 13v66a1 1 0 0 1-.992 1z" class="color-500"/><path fill="#FFF" d="M72 79a1 1 0 0 1-.992 1H20.992A1 1 0 0 1 20 79V13a1 1 0 0 1 .992-1h50.016A1 1 0 0 1 72 13v66z" class="color-100"/><path fill="#005CB9" d="M31 23a1 1 0 0 1 .998-1h28.004a1 1 0 1 1 0 2H31.998A.997.997 0 0 1 31 23zm5 5c0-.552.455-1 .992-1h18.016c.548 0 .992.444.992 1 0 .552-.455 1-.992 1H36.992A.993.993 0 0 1 36 28z" class="color-500"/><path fill="#40A0FF" d="M34 39.001c0 .552-.453.999-.997.999h-6.006a.995.995 0 0 1-.997-.999v-1.002c0-.552.453-.999.997-.999h6.006c.55 0 .997.443.997.999v1.002zm2 0v-1.002c0-.556.447-.999.998-.999h28.004c.55 0 .998.447.998.999v1.002a.996.996 0 0 1-.998.999H36.998a.999.999 0 0 1-.998-.999zm-2 7c0 .552-.453.999-.997.999h-6.006a.995.995 0 0 1-.997-.999v-1.002c0-.552.453-.999.997-.999h6.006c.55 0 .997.443.997.999v1.002zm2 0v-1.002c0-.556.447-.999.998-.999h28.004c.55 0 .998.447.998.999v1.002a.996.996 0 0 1-.998.999H36.998a.999.999 0 0 1-.998-.999zm-2 7c0 .552-.453.999-.997.999h-6.006a.995.995 0 0 1-.997-.999v-1.002c0-.552.453-.999.997-.999h6.006c.55 0 .997.443.997.999v1.002zm2 0v-1.002c0-.556.447-.999.998-.999h28.004c.55 0 .998.447.998.999v1.002a.996.996 0 0 1-.998.999H36.998a.999.999 0 0 1-.998-.999zm-2 7c0 .552-.453.999-.997.999h-6.006a.995.995 0 0 1-.997-.999v-1.002c0-.552.453-.999.997-.999h6.006c.55 0 .997.443.997.999v1.002zm2 0v-1.002c0-.556.447-.999.998-.999h28.004c.55 0 .998.447.998.999v1.002a.996.996 0 0 1-.998.999H36.998a.999.999 0 0 1-.998-.999zm-2 7c0 .552-.453.999-.997.999h-6.006a.995.995 0 0 1-.997-.999v-1.002c0-.552.453-.999.997-.999h6.006c.55 0 .997.443.997.999v1.002zm2 0v-1.002c0-.556.447-.999.998-.999h28.004c.55 0 .998.447.998.999v1.002a.996.996 0 0 1-.998.999H36.998a.999.999 0 0 1-.998-.999z" class="color-300"/></g></g></svg>