<svg xmlns="http://www.w3.org/2000/svg" width="92" height="92" class="wd-applet wd-applet-question-mark" focusable="false" role="presentation" viewBox="0 0 92 92"><g fill="none" fill-rule="evenodd" class="wd-icon-container"><g fill="#0B77E3" fill-opacity=".2" class="animate-flood"><circle cx="36" cy="36" r="36" class="color-400-alpha-20" transform="translate(10 10)"/></g><g class="animate-shrink"><path fill="#FFF" d="M11.396 38.071c0-3.453.428-6.203 1.283-8.25.855-2.047 2.421-4.064 4.698-6.05 2.276-1.985 3.792-3.601 4.547-4.847.755-1.247 1.133-2.561 1.133-3.944 0-4.17-1.963-6.257-5.887-6.257-1.862 0-3.353.562-4.472 1.686-1.12 1.124-1.705 2.674-1.755 4.65H0c.05-4.712 1.604-8.4 4.66-11.063C7.717 1.332 11.887 0 17.17 0c5.333 0 9.472 1.264 12.414 3.793C32.53 6.32 34 9.89 34 14.503c0 2.097-.478 4.077-1.434 5.939s-2.63 3.927-5.019 6.197l-3.056 2.85c-1.913 1.8-3.007 3.908-3.283 6.325l-.151 2.257h-9.661z" class="color-100" transform="translate(29 19)"/><path fill="#005CB9" fill-rule="nonzero" d="M20.122 37.071l.092-1.37c.304-2.657 1.51-4.981 3.595-6.944l3.05-2.843c2.315-2.2 3.92-4.182 4.818-5.929A11.825 11.825 0 0 0 33 14.504c0-4.335-1.356-7.625-4.067-9.953C26.189 2.194 22.28 1 17.17 1 12.114 1 8.177 2.258 5.317 4.75c-2.612 2.276-4.039 5.36-4.281 9.308h8.975c.207-1.773.864-3.236 1.978-4.354 1.316-1.322 3.063-1.98 5.18-1.98 4.491 0 6.888 2.546 6.888 7.256 0 1.568-.43 3.061-1.277 4.462-.82 1.354-2.397 3.034-4.746 5.083-2.168 1.891-3.641 3.788-4.432 5.68-.716 1.715-1.118 4.006-1.193 6.866h7.713zm-9.726 1c0-3.574.447-6.45 1.36-8.636.92-2.201 2.58-4.338 4.963-6.417 2.207-1.924 3.66-3.475 4.35-4.612.661-1.092.988-2.229.988-3.426 0-3.632-1.53-5.257-4.887-5.257-1.607 0-2.841.465-3.764 1.392-.927.93-1.42 2.235-1.463 3.968l-.024.975h-12.93l.011-1.01C-.947 10.062.722 6.101 4.003 3.241 7.257.407 11.66-1 17.17-1c5.556 0 9.924 1.335 13.066 4.034C33.413 5.762 35 9.612 35 14.504c0 2.255-.516 4.391-1.544 6.395-1.014 1.974-2.754 4.123-5.227 6.471l-3.052 2.846c-1.745 1.642-2.727 3.535-2.971 5.665l-.214 3.19H10.396v-1z" class="color-500" transform="translate(29 19)"/><circle cx="16.5" cy="48.5" r="4.5" fill="#FFF" class="color-100" transform="translate(29 19)"/><path fill="#005CB9" fill-rule="nonzero" d="M16.5 53a4.5 4.5 0 1 0 0-9 4.5 4.5 0 0 0 0 9zm0 2a6.5 6.5 0 1 1 0-13 6.5 6.5 0 0 1 0 13z" class="color-500" transform="translate(29 19)"/></g></g></svg>