<svg xmlns="http://www.w3.org/2000/svg" width="92" height="92" class="wd-applet wd-applet-recent-sign-ons" focusable="false" role="presentation" viewBox="0 0 92 92"><g fill="none" fill-rule="evenodd" class="wd-icon-container"><g fill="#0B77E3" fill-opacity=".2" class="animate-flood"><path d="M46 82c19.882 0 36-16.118 36-36S65.882 10 46 10 10 26.118 10 46s16.118 36 36 36z" class="color-400-alpha-20"/></g><g class="animate-shrink"><rect width="80" height="51" y="7" fill="#FFF" class="color-100" rx="3" transform="translate(6 13)"/><path fill="#40A0FF" d="M2 9.998C2 9.447 2.446 9 3.003 9h73.994A1 1 0 0 1 78 9.998V18H2V9.998zm59 32.001c0-.552-.455-.999-.992-.999H41.992a.992.992 0 0 0-.992.999v1.002c0 .552.455.999.992.999h18.016a.992.992 0 0 0 .992-.999v-1.002zm-16 5A.999.999 0 0 0 43.99 46h-1.98c-.558 0-1.01.443-1.01.999v1.002c0 .552.443.999 1.01.999h1.98c.558 0 1.01-.443 1.01-.999v-1.002zm24 0A.995.995 0 0 0 67.998 46H48.002a.998.998 0 0 0-1.002.999v1.002c0 .552.44.999 1.002.999h19.996A.998.998 0 0 0 69 48.001v-1.002zm3-5a.998.998 0 0 0-.998-.999h-7.004a.995.995 0 0 0-.998.999v1.002c0 .552.446.999.998.999h7.004c.551 0 .998-.443.998-.999v-1.002z" class="color-300" transform="translate(6 13)"/><path fill="#A6D2FF" d="M33 22c2.21 0 4 1.787 4 4v22c0 2.21-1.787 4-4 4H11c-2.21 0-4-1.787-4-4V26c0-2.21 1.787-4 4-4h22zm-11 9l-.176.005A3 3 0 0 0 19 33.997v3.006A3.002 3.002 0 0 0 22 40l.176-.005A3 3 0 0 0 25 37.003v-3.006A3.002 3.002 0 0 0 22 31zm26.007-20c.548 0 .993.444.993 1v3c0 .552-.445 1-.993 1H31.993A.994.994 0 0 1 31 15v-3c0-.552.445-1 .993-1h16.014z" class="color-200" transform="translate(6 13)"/><rect width="18" height="9" x="13" y="43" fill="#40A0FF" class="color-300" rx="4" transform="translate(6 13)"/><path fill="#000" d="M14 48h16v2H14z" class="color-shadow" opacity=".1" transform="translate(6 13)"/><path fill="#005CB9" fill-rule="nonzero" d="M2 10v45c0 .557.442 1 .99 1h74.02c.545 0 .99-.446.99-1V10c0-.557-.442-1-.99-1H2.99A.995.995 0 0 0 2 10zm-2 0c0-1.657 1.338-3 2.99-3h74.02A2.992 2.992 0 0 1 80 10v45c0 1.657-1.338 3-2.99 3H2.99A2.992 2.992 0 0 1 0 55V10zm38 2h4V2h-4v10zM36 1.007C36 .45 36.453 0 36.997 0h6.006c.55 0 .997.45.997 1.007v11.986c0 .556-.453 1.007-.997 1.007h-6.006c-.55 0-.997-.45-.997-1.007V1.007zm23 29.992a.996.996 0 0 0-.993-.999H41.993a.993.993 0 0 0-.993.999v1.002c0 .552.445.999.993.999h16.014a.993.993 0 0 0 .993-.999v-1.002zm10-5a.994.994 0 0 0-.997-.999H41.997a.995.995 0 0 0-.997.999v1.002c0 .552.44.999.997.999h26.006c.55 0 .997-.443.997-.999v-1.002zm-60 0v22.002C9 49.107 9.894 50 11 50h22c1.107 0 2-.894 2-2V26c0-1.107-.894-2-2-2H11c-1.107 0-2 .894-2 2zm-2 0C7 23.791 8.787 22 11 22h22c2.21 0 4 1.787 4 4v22c0 2.21-1.787 4-4 4H11c-2.21 0-4-1.787-4-4V26zM14 46.5V50h16v-3.5c0-1.93-1.563-3.5-3.491-3.5H17.49A3.496 3.496 0 0 0 14 46.5zm-2 0c0-3.036 2.458-5.5 5.491-5.5h9.018A5.498 5.498 0 0 1 32 46.5V52H12v-5.5zm7-12.503v3.006a3 3 0 0 0 6 0v-3.006a3 3 0 0 0-6 0zm-2 0a5 5 0 0 1 10 0v3.006a5 5 0 0 1-10 0v-3.006z" class="color-500" transform="translate(6 13)"/><path fill="#0B77E3" d="M38 2h4v10h-4z" class="color-400" transform="translate(6 13)"/></g></g></svg>