<svg xmlns="http://www.w3.org/2000/svg" width="92" height="92" class="wd-applet wd-applet-recent-activity" focusable="false" role="presentation" viewBox="0 0 92 92"><g fill="none" fill-rule="evenodd" class="wd-icon-container"><g fill="#0B77E3" fill-opacity=".2" class="animate-flood"><path d="M46 82c19.882 0 36-16.118 36-36S65.882 10 46 10 10 26.118 10 46s16.118 36 36 36z" class="color-400-alpha-20"/></g><g class="animate-grow"><rect width="26" height="74" x="13" y="2" fill="#A6D2FF" class="color-200" rx="1" transform="translate(20 7)"/><path fill="#005CB9" fill-rule="nonzero" d="M13 2.99v72.02c0 .537.45.99 1.003.99h23.994A.998.998 0 0 0 39 75.01V2.99c0-.537-.45-.99-1.003-.99H14.003A.998.998 0 0 0 13 2.99zm-2 0A2.998 2.998 0 0 1 14.003 0h23.994A3.003 3.003 0 0 1 41 2.99v72.02A2.998 2.998 0 0 1 37.997 78H14.003A3.003 3.003 0 0 1 11 75.01V2.99z" class="color-500" transform="translate(20 7)"/><path fill="#40A0FF" fill-rule="nonzero" d="M26 63C12.745 63 2 52.255 2 39s10.745-24 24-24 24 10.745 24 24-10.745 24-24 24z" class="color-300" transform="translate(20 7)"/><path fill="#FFF" d="M26 58c10.493 0 19-8.507 19-19s-8.507-19-19-19S7 28.507 7 39s8.507 19 19 19z" class="color-100" transform="translate(20 7)"/><path fill="#000" d="M26 20c10.493 0 19 8.507 19 19 0 .505-.02 1.005-.058 1.5C44.177 30.707 35.988 23 26 23c-9.989 0-18.177 7.708-18.942 17.5A19.297 19.297 0 0 1 7 39c0-10.493 8.507-19 19-19z" class="color-shadow" opacity=".1" transform="translate(20 7)"/><path fill="#005CB9" d="M17.5 7h17a1 1 0 0 0 0-2h-17a1 1 0 0 0 0 2zm0 5h17a1 1 0 0 0 0-2h-17a1 1 0 0 0 0 2zm0 56h17a1 1 0 0 0 0-2h-17a1 1 0 0 0 0 2zm0 5h17a1 1 0 0 0 0-2h-17a1 1 0 0 0 0 2z" class="color-500" transform="translate(20 7)"/><g fill="#005CB9" fill-rule="nonzero" class="animate-spin"><path d="M26.018 43.365a4.5 4.5 0 1 0 0-9 4.5 4.5 0 0 0 0 9zm0-2a2.5 2.5 0 1 1 0-5 2.5 2.5 0 0 1 0 5zM26 63c13.255 0 24-10.745 24-24S39.255 15 26 15 2 25.745 2 39s10.745 24 24 24zm0 2C11.64 65 0 53.36 0 39s11.64-26 26-26 26 11.64 26 26-11.64 26-26 26zm0-7c10.493 0 19-8.507 19-19s-8.507-19-19-19S7 28.507 7 39s8.507 19 19 19zm0 2C14.402 60 5 50.598 5 39s9.402-21 21-21 21 9.402 21 21-9.402 21-21 21zm11.191-32.722l-8.76 8.392a1 1 0 0 0 1.383 1.444l8.76-8.392a1 1 0 1 0-1.383-1.444zM23.275 35.98l-7.663-5.924a1 1 0 1 0-1.224 1.582l7.663 5.924a1 1 0 1 0 1.224-1.582z" class="color-500" transform="translate(20 7)"/></g></g></g></svg>