<svg xmlns="http://www.w3.org/2000/svg" width="92" height="92" class="wd-applet wd-applet-recruiting" focusable="false" role="presentation" viewBox="0 0 92 92"><g fill="none" fill-rule="evenodd" class="wd-icon-container"><g fill="#0B77E3" fill-opacity=".2" class="animate-flood"><path d="M46 82c19.882 0 36-16.118 36-36S65.882 10 46 10 10 26.118 10 46s16.118 36 36 36z" class="color-400-alpha-20"/></g><g class="animate-shrink"><path fill="#FFF" d="M72 78.978a1 1 0 0 1-.992 1L20.992 80A.999.999 0 0 1 20 79V13a1 1 0 0 1 .992-1h50.016A1 1 0 0 1 72 13v65.978z" class="color-100"/><path fill="#005CB9" fill-rule="nonzero" d="M20.992 82A3 3 0 0 1 18 79V13a3 3 0 0 1 2.992-3h50.016A3 3 0 0 1 74 13v66a3 3 0 0 1-2.992 3H20.992zm0-2h50.016A1 1 0 0 0 72 79V13a1 1 0 0 0-.992-1H20.992A1 1 0 0 0 20 13v66a1 1 0 0 0 .992 1z" class="color-500"/><path fill="#40A0FF" d="M26 66.001c0 .552.455.999 1 .999h32c.553 0 1-.443 1-.999v-1.002c0-.552-.455-.999-1-.999H27c-.553 0-1 .443-1 .999v1.002zm36 0c0 .552.443.999 1.01.999h1.98c.558 0 1.01-.443 1.01-.999v-1.002A.999.999 0 0 0 64.99 64h-1.98c-.558 0-1.01.443-1.01.999v1.002zm-32-9a.999.999 0 0 1-1.01.999h-1.98c-.558 0-1.01-.443-1.01-.999v-1.002A.999.999 0 0 1 27.01 55h1.98c.558 0 1.01.443 1.01.999v1.002zm-4-12c0 .552.45.999 1.009.999H64.99c.557 0 1.009-.443 1.009-.999v-1.002c0-.552-.45-.999-1.009-.999H27.01c-.557 0-1.009.443-1.009.999v1.002zm6 12c0 .552.439.999 1.003.999h20.994A.998.998 0 0 0 55 57.001v-1.002A.995.995 0 0 0 53.997 55H33.003a.998.998 0 0 0-1.003.999v1.002zm-6-6A1 1 0 0 0 27 52h22c.552 0 1-.443 1-.999v-1.002A1 1 0 0 0 49 49H27c-.552 0-1 .443-1 .999v1.002zm0 21c0 .552.456.999.998.999h27.004a.996.996 0 0 0 .998-.999v-1.002c0-.552-.456-.999-.998-.999H26.998a.996.996 0 0 0-.998.999v1.002zm26-21c0 .552.45.999 1.007.999h11.986A1 1 0 0 0 66 51.001v-1.002c0-.552-.45-.999-1.007-.999H53.007a1 1 0 0 0-1.007.999v1.002z" class="color-300"/><path fill="#A6D2FF" d="M55 33.398V20.602a.599.599 0 0 0-.599-.602H37.6a.6.6 0 0 0-.599.602v12.796c0 .335.268.602.599.602H54.4a.6.6 0 0 0 .599-.602z" class="color-200"/><path fill="#005CB9" fill-rule="nonzero" d="M37.599 36A2.599 2.599 0 0 1 35 33.398V20.602A2.6 2.6 0 0 1 37.599 18H54.4A2.599 2.599 0 0 1 57 20.602v12.796A2.6 2.6 0 0 1 54.401 36H37.6zm0-2H54.4a.6.6 0 0 0 .599-.602V20.602a.599.599 0 0 0-.599-.602H37.6a.6.6 0 0 0-.599.602v12.796c0 .335.268.602.599.602z" class="color-500"/><path fill="#40A0FF" d="M40 31.999c0-.552.456-.999 1.002-.999h9.996a.998.998 0 0 1 1.002.999v1.002c0 .552-.456.999-1.002.999h-9.996A.998.998 0 0 1 40 33.001v-1.002z" class="color-300"/><path fill="#FFF" fill-rule="nonzero" d="M43.5 24.8v2.4c0 .99 1.12 1.8 2.5 1.8 1.39 0 2.5-.806 2.5-1.8v-2.4c0-.99-1.12-1.8-2.5-1.8-1.39 0-2.5.806-2.5 1.8z" class="color-100"/><path fill="#005CB9" fill-rule="nonzero" d="M53.993 18A3.003 3.003 0 0 1 57 20.999V33C57 34.661 55.65 36 53.993 36H38.007A3.003 3.003 0 0 1 35 33.001V21C35 19.339 36.35 18 38.007 18h15.986zm0 2H38.007c-.557 0-1.007.447-1.007.999V33c0 .552.45.999 1.007.999H39v-1c0-1.975 1.516-3.786 3.447-3.973A2.926 2.926 0 0 1 42 27.5v-3c0-1.934 2.062-3.5 4-3.5 1.933 0 4 1.57 4 3.5v3c0 .547-.165 1.065-.445 1.527C51.511 29.197 53 30.886 53 33v1h.993c.557 0 1.007-.447 1.007-.999V21c0-.552-.45-.999-1.007-.999zM49 31.011H43c-.98 0-2 1.008-2 1.989v1h10v-1c0-.989-1.025-1.989-2-1.989zM46 23c-.834 0-2 .672-2 1.5v3.023c0 .826 1.172 1.488 2 1.488.834 0 2-.659 2-1.488V24.5c0-.826-1.172-1.5-2-1.5z" class="color-500"/></g></g></svg>