<svg xmlns="http://www.w3.org/2000/svg" width="92" height="92" class="wd-applet wd-applet-recruiting-cycle" focusable="false" role="presentation" viewBox="0 0 92 92"><g fill="none" fill-rule="evenodd" class="wd-icon-container"><g fill="#0B77E3" fill-opacity=".2" class="animate-flood"><path d="M10 46c0-19.882 16.113-36 36-36 19.882 0 36 16.113 36 36 0 19.882-16.113 36-36 36-19.882 0-36-16.113-36-36z" class="color-400-alpha-20"/></g><g class="animate-sink"><rect width="60" height="12" fill="#40A0FF" class="color-300" rx="3" transform="translate(16 21)"/><path fill="#005CB9" fill-rule="nonzero" d="M2 3.007v5.986c0 .56.446 1.007.996 1.007h54.008c.55 0 .996-.447.996-1.007V3.007A.999.999 0 0 0 57.004 2H2.996A.999.999 0 0 0 2 3.007zm-2 0A2.999 2.999 0 0 1 2.996 0h54.008A2.999 2.999 0 0 1 60 3.007v5.986A2.999 2.999 0 0 1 57.004 12H2.996A2.999 2.999 0 0 1 0 8.993V3.007z" class="color-500" transform="translate(16 21)"/></g><g class="animate-sink-less"><rect width="70" height="20" fill="#A6D2FF" class="color-200" rx="3" transform="translate(11 26)"/><path fill="#005CB9" fill-rule="nonzero" d="M2 2.994v14.012c0 .545.45.994 1.008.994h63.984A.994.994 0 0 0 68 17.006V2.994C68 2.45 67.55 2 66.992 2H3.008A.994.994 0 0 0 2 2.994zm-2 0A2.994 2.994 0 0 1 3.008 0h63.984A3.003 3.003 0 0 1 70 2.994v14.012A2.994 2.994 0 0 1 66.992 20H3.008A3.003 3.003 0 0 1 0 17.006V2.994z" class="color-500" transform="translate(11 26)"/></g><g class="animate-float"><rect width="80" height="40" fill="#FFF" class="color-100" rx="3" transform="translate(6 31)"/><path fill="#000" d="M57 15c9.941 0 18 8.059 18 18 0 2.483-.503 4.849-1.412 7H40.412A17.943 17.943 0 0 1 39 33c0-9.941 8.059-18 18-18z" class="color-shadow" opacity=".1" transform="translate(6 31)"/><path fill="#40A0FF" d="M59 24.999c0-.552-.455-.999-.992-.999H39.992a.992.992 0 0 0-.992.999v1.002c0 .552.455.999.992.999h18.016a.992.992 0 0 0 .992-.999v-1.002zm-16 5A.999.999 0 0 0 41.99 29h-1.98c-.558 0-1.01.443-1.01.999v1.002c0 .552.443.999 1.01.999h1.98c.558 0 1.01-.443 1.01-.999v-1.002zm24 0A.995.995 0 0 0 65.998 29H46.002a.998.998 0 0 0-1.002.999v1.002c0 .552.44.999 1.002.999h19.996A.998.998 0 0 0 67 31.001v-1.002zm3-5a.998.998 0 0 0-.998-.999h-7.004a.995.995 0 0 0-.998.999v1.002c0 .552.446.999.998.999h7.004c.551 0 .998-.443.998-.999v-1.002z" class="color-300" transform="translate(6 31)"/><rect width="30" height="30" x="5" y="5" fill="#A6D2FF" class="color-200" rx="4" transform="translate(6 31)"/><rect width="18" height="9" x="11" y="26" fill="#40A0FF" class="color-300" rx="4" transform="translate(6 31)"/><rect width="6" height="9" x="17" y="14" fill="#FFF" class="color-100" rx="3" transform="translate(6 31)"/><path fill="#005CB9" fill-rule="nonzero" d="M2 3.007v33.986c0 .56.444 1.007.99 1.007h74.02c.544 0 .99-.448.99-1.007V3.007A.996.996 0 0 0 77.01 2H2.99A.998.998 0 0 0 2 3.007zm-2 0A2.998 2.998 0 0 1 2.99 0h74.02A2.996 2.996 0 0 1 80 3.007v33.986A2.998 2.998 0 0 1 77.01 40H2.99A2.996 2.996 0 0 1 0 36.993V3.007zm57 10.992a.996.996 0 0 0-.993-.999H39.993a.993.993 0 0 0-.993.999v1.002c0 .552.445.999.993.999h16.014a.993.993 0 0 0 .993-.999v-1.002zm10-5A.994.994 0 0 0 66.003 8H39.997a.995.995 0 0 0-.997.999v1.002c0 .552.44.999.997.999h26.006c.55 0 .997-.443.997-.999V8.999zm-60 0v22.002C7 32.107 7.894 33 9 33h22c1.107 0 2-.894 2-2V9c0-1.107-.894-2-2-2H9c-1.107 0-2 .894-2 2zM5 9C5 6.791 6.787 5 9 5h22c2.21 0 4 1.787 4 4v22c0 2.21-1.787 4-4 4H9c-2.21 0-4-1.787-4-4V9zM12 29.5V33h16v-3.5c0-1.93-1.563-3.5-3.491-3.5H15.49A3.496 3.496 0 0 0 12 29.5zm-2 0c0-3.036 2.458-5.5 5.491-5.5h9.018A5.498 5.498 0 0 1 30 29.5V35H10v-5.5zm7-12.503v3.006a3 3 0 0 0 6 0v-3.006a3 3 0 0 0-6 0zm-2 0a5 5 0 0 1 10 0v3.006a5 5 0 0 1-10 0v-3.006z" class="color-500" transform="translate(6 31)"/><path fill="#000" d="M12 31h16v2H12z" class="color-shadow" opacity=".1" transform="translate(6 31)"/></g><g class="animate-spin"><path fill="#40A0FF" fill-rule="nonzero" d="M65 82c-8.837 0-16-7.163-16-16s7.163-16 16-16 16 7.163 16 16-7.163 16-16 16z" class="color-300"/><path fill="#FFF" d="M65 77c6.075 0 11-4.925 11-11s-4.925-11-11-11-11 4.925-11 11 4.925 11 11 11z" class="color-100"/><path fill="#005CB9" fill-rule="nonzero" d="M65 81.943c8.805 0 15.943-7.138 15.943-15.943S73.805 50.057 65 50.057 49.057 57.195 49.057 66 56.195 81.943 65 81.943zM65 84c-9.941 0-18-8.059-18-18s8.059-18 18-18 18 8.059 18 18-8.059 18-18 18zm0-7.08c6.03 0 10.92-4.89 10.92-10.92S71.03 55.08 65 55.08 54.08 59.97 54.08 66 58.97 76.92 65 76.92zM65 79c-7.18 0-13-5.82-13-13s5.82-13 13-13 13 5.82 13 13-5.82 13-13 13zm-2.397-14.804a2.997 2.997 0 0 1 4-.733l3.44-4.105a1 1 0 1 1 1.532 1.284l-3.719 4.438a3 3 0 1 1-5.835.559l-3.407-1.973a.77.77 0 1 1 .772-1.332l3.217 1.862zM64.978 67a1 1 0 1 0 0-2 1 1 0 0 0 0 2z" class="color-500"/></g></g></svg>