<svg xmlns="http://www.w3.org/2000/svg" width="92" height="92" class="wd-applet wd-applet-recruiting-dashboard" focusable="false" role="presentation" viewBox="0 0 92 92"><g fill="none" fill-rule="evenodd" class="wd-icon-container"><g fill="#0B77E3" fill-opacity=".2" class="animate-flood"><path d="M46 82c19.882 0 36-16.118 36-36S65.882 10 46 10 10 26.118 10 46s16.118 36 36 36z" class="color-400-alpha-20"/></g><path fill="#FFF" d="M72 78.978a1 1 0 0 1-.992 1L20.992 80A.999.999 0 0 1 20 79V13a1 1 0 0 1 .992-1h50.016A1 1 0 0 1 72 13v65.978z" class="color-100"/><path fill="#40A0FF" d="M26 66.001v-1.002A.996.996 0 0 1 27 64h32c.545 0 1 .447 1 .999v1.002A.996.996 0 0 1 59 67H27c-.545 0-1-.447-1-.999zm36 0v-1.002c0-.556.452-.999 1.01-.999h1.98a.999.999 0 0 1 1.01.999v1.002c0 .556-.452.999-1.01.999h-1.98a.999.999 0 0 1-1.01-.999zm-32-9a.999.999 0 0 1-1.01.999h-1.98c-.558 0-1.01-.443-1.01-.999v-1.002A.999.999 0 0 1 27.01 55h1.98c.558 0 1.01.443 1.01.999v1.002zm-4 15v-1.002c0-.556.447-.999.998-.999h27.004c.542 0 .998.447.998.999v1.002a.996.996 0 0 1-.998.999H26.998c-.542 0-.998-.447-.998-.999zM26 45.001v-1.002c0-.556.452-.999 1.009-.999H45.99v3H27.01c-.56 0-1.009-.447-1.009-.999zm6 12v-1.002c0-.556.45-.999 1.003-.999h7.994v3h-7.994A.995.995 0 0 1 32 57.001zm-6-6v-1.002A.997.997 0 0 1 27 49h15v3H27a1 1 0 0 1-1-.999z" class="color-300"/><g fill="#40A0FF" class="animate-grow"><path d="M65.991 45.001c0 .552-.449.999-1.009.999H46v-3h18.982c.558 0 1.01.443 1.01.999v1.002zM41.003 55h12.994a.995.995 0 0 1 1.003.999v1.002c0 .556-.45.999-1.003.999H41.003v-3zM50 51.001A1 1 0 0 1 49 52H42v-3h6.999c.552 0 1 .443 1 .999v1.002zm2.001 0v-1.002A1 1 0 0 1 53.007 49h11.986c.557 0 1.007.447 1.007.999v1.002a1 1 0 0 1-1.007.999H53.007A1.002 1.002 0 0 1 52 51.001z" class="color-300"/></g><path fill="#005CB9" fill-rule="nonzero" d="M20 13v66a1 1 0 0 0 .992 1h50.016A1 1 0 0 0 72 79V13a1 1 0 0 0-.992-1H20.992A1 1 0 0 0 20 13zm-2 0a3 3 0 0 1 2.992-3h50.016A3 3 0 0 1 74 13v66a3 3 0 0 1-2.992 3H20.992A3 3 0 0 1 18 79V13z" class="color-500"/><path fill="#A6D2FF" d="M55 33.398V20.602a.599.599 0 0 0-.599-.602H37.6a.6.6 0 0 0-.599.602v12.796c0 .335.268.602.599.602H54.4a.6.6 0 0 0 .599-.602z" class="color-200"/><path fill="#40A0FF" d="M40 31.999c0-.552.456-.999 1.002-.999h9.996a.998.998 0 0 1 1.002.999v1.002c0 .552-.456.999-1.002.999h-9.996A.998.998 0 0 1 40 33.001v-1.002z" class="color-300"/><path fill="#FFF" fill-rule="nonzero" d="M43.5 24.8v2.4c0 .99 1.12 1.8 2.5 1.8 1.39 0 2.5-.806 2.5-1.8v-2.4c0-.99-1.12-1.8-2.5-1.8-1.39 0-2.5.806-2.5 1.8z" class="color-100"/><path fill="#005CB9" fill-rule="nonzero" d="M53.993 18A3.003 3.003 0 0 1 57 20.999V33C57 34.661 55.65 36 53.993 36H38.007A3.003 3.003 0 0 1 35 33.001V21C35 19.339 36.35 18 38.007 18h15.986zm0 2H38.007c-.557 0-1.007.447-1.007.999V33c0 .552.45.999 1.007.999H39v-1c0-1.975 1.516-3.786 3.447-3.973A2.926 2.926 0 0 1 42 27.5v-3c0-1.934 2.062-3.5 4-3.5 1.933 0 4 1.57 4 3.5v3c0 .547-.165 1.065-.445 1.527C51.511 29.197 53 30.886 53 33v1h.993c.557 0 1.007-.447 1.007-.999V21c0-.552-.45-.999-1.007-.999zM49 31.011H43c-.98 0-2 1.008-2 1.989v1h10v-1c0-.989-1.025-1.989-2-1.989zM46 23c-.834 0-2 .672-2 1.5v3.023c0 .826 1.172 1.488 2 1.488.834 0 2-.659 2-1.488V24.5c0-.826-1.172-1.5-2-1.5z" class="color-500"/><g class="animate-float-rotate-left"><path fill="#0B77E3" d="M41.607 69.725l3.828 3.828L33.829 85.16l-3.83-3.828z" class="color-400"/><path fill="#40A0FF" d="M51.799 71.432a.999.999 0 0 1 0 1.414l-2.414 2.415a1 1 0 0 1-1.414 0L39.9 67.189a.999.999 0 0 1 0-1.414l2.414-2.414a.999.999 0 0 1 1.414 0l8.07 8.07z" class="color-300"/><path fill="#FCFCFC" d="M68.477 46.683c5.077 5.077 5.077 13.308 0 18.385-5.077 5.077-13.308 5.077-18.385 0-5.077-5.077-5.077-13.308 0-18.385 5.077-5.077 13.308-5.077 18.385 0" class="color-screen" opacity=".7"/><path fill="#000" d="M46.526 58.375c-.8-4.102.389-8.515 3.566-11.692 5.077-5.077 13.308-5.077 18.385 0a12.984 12.984 0 0 1 3.566 11.692 12.938 12.938 0 0 0-3.566-6.692c-5.077-5.077-13.308-5.077-18.385 0a12.938 12.938 0 0 0-3.566 6.692" class="color-shadow" opacity=".1"/><path fill="#A6D2FF" d="M49.792 65.367c5.32 5.32 13.883 5.384 19.126.142 5.242-5.243 5.178-13.805-.142-19.126-5.32-5.32-13.883-5.384-19.126-.142-5.242 5.243-5.178 13.806.142 19.126M47.44 67.72c-6.639-6.639-6.718-17.323-.177-23.865 6.541-6.54 17.226-6.462 23.865.177 6.64 6.64 6.718 17.324.177 23.865-6.542 6.541-17.226 6.462-23.865-.177" class="color-200"/><path fill="#005CB9" d="M51.244 63.916c4.507 4.507 11.76 4.56 16.2.12 4.442-4.441 4.388-11.694-.12-16.201-4.506-4.507-11.76-4.561-16.2-.12-4.441 4.44-4.387 11.694.12 16.2zm-1.495 1.513c-5.327-5.327-5.4-13.904-.145-19.16 5.255-5.254 13.832-5.181 19.159.146 5.326 5.326 5.4 13.904.145 19.159-5.255 5.255-13.833 5.182-19.16-.145zm-2.31 2.29c6.64 6.639 17.325 6.719 23.866.177 6.542-6.541 6.462-17.226-.176-23.865-6.64-6.638-17.324-6.718-23.865-.176-6.542 6.54-6.462 17.226.176 23.865zm-5.832 3.006L31 81.33l2.829 2.829 10.606-10.607-2.828-2.828zm.862-6.49a1.01 1.01 0 0 0-.162.132l-1.401 1.4a1.002 1.002 0 0 0-.005 1.424l7.068 7.068a1.012 1.012 0 0 0 1.423-.005l1.4-1.401c.05-.051.095-.105.132-.161a19.218 19.218 0 0 1-4.898-3.558 19.214 19.214 0 0 1-3.557-4.898zm-.814-1.836c-2.563-6.732-1.176-14.588 4.194-19.96 7.328-7.326 19.278-7.237 26.694.178 7.415 7.416 7.504 19.366.177 26.694-5.371 5.37-13.226 6.757-19.957 4.194a3.05 3.05 0 0 1-.556.762l-1.401 1.4a3.01 3.01 0 0 1-4.251.006l-.706-.706-10.606 10.607a2 2 0 0 1-2.83 0l-2.827-2.828a2 2 0 0 1 0-2.83l10.607-10.605-.706-.706a3 3 0 0 1 .005-4.251l1.4-1.401c.23-.23.489-.414.763-.554z" class="color-500"/></g></g></svg>