<svg xmlns="http://www.w3.org/2000/svg" width="92" height="92" class="wd-applet wd-applet-recruiters" focusable="false" role="presentation" viewBox="0 0 92 92"><g fill="none" fill-rule="evenodd" class="wd-icon-container"><g fill="#0B77E3" fill-opacity=".2" class="animate-flood"><path d="M46 82c19.882 0 36-16.118 36-36S65.882 10 46 10 10 26.118 10 46s16.118 36 36 36z" class="color-400-alpha-20"/></g><g class="animate-sink"><rect width="60" height="12" fill="#40A0FF" class="color-300" rx="3" transform="translate(16 21)"/><path fill="#005CB9" fill-rule="nonzero" d="M2 3.007v5.986c0 .56.446 1.007.996 1.007h54.008c.55 0 .996-.447.996-1.007V3.007A.999.999 0 0 0 57.004 2H2.996A.999.999 0 0 0 2 3.007zm-2 0A2.999 2.999 0 0 1 2.996 0h54.008A2.999 2.999 0 0 1 60 3.007v5.986A2.999 2.999 0 0 1 57.004 12H2.996A2.999 2.999 0 0 1 0 8.993V3.007z" class="color-500" transform="translate(16 21)"/></g><g class="animate-sink-less"><rect width="70" height="20" fill="#A6D2FF" class="color-200" rx="3" transform="translate(11 26)"/><path fill="#005CB9" fill-rule="nonzero" d="M2 2.994v14.012c0 .545.45.994 1.008.994h63.984A.994.994 0 0 0 68 17.006V2.994C68 2.45 67.55 2 66.992 2H3.008A.994.994 0 0 0 2 2.994zm-2 0A2.994 2.994 0 0 1 3.008 0h63.984A3.003 3.003 0 0 1 70 2.994v14.012A2.994 2.994 0 0 1 66.992 20H3.008A3.003 3.003 0 0 1 0 17.006V2.994z" class="color-500" transform="translate(11 26)"/></g><g class="animate-float"><rect width="80" height="40" fill="#FFF" class="color-100" rx="3" transform="translate(6 31)"/><path fill="#40A0FF" d="M59 24.999c0-.552-.455-.999-.992-.999H39.992a.992.992 0 0 0-.992.999v1.002c0 .552.455.999.992.999h18.016a.992.992 0 0 0 .992-.999v-1.002zm-16 5A.999.999 0 0 0 41.99 29h-1.98c-.558 0-1.01.443-1.01.999v1.002c0 .552.443.999 1.01.999h1.98c.558 0 1.01-.443 1.01-.999v-1.002zm24 0A.995.995 0 0 0 65.998 29H46.002a.998.998 0 0 0-1.002.999v1.002c0 .552.44.999 1.002.999h19.996A.998.998 0 0 0 67 31.001v-1.002zm3-5a.998.998 0 0 0-.998-.999h-7.004a.995.995 0 0 0-.998.999v1.002c0 .552.446.999.998.999h7.004c.551 0 .998-.443.998-.999v-1.002z" class="color-300" transform="translate(6 31)"/><rect width="30" height="30" x="5" y="5" fill="#A6D2FF" class="color-200" rx="4" transform="translate(6 31)"/><rect width="6" height="9" x="17" y="14" fill="#FFF" class="color-100" rx="3" transform="translate(6 31)"/><rect width="18" height="9" x="11" y="26" fill="#40A0FF" class="color-300" rx="4" transform="translate(6 31)"/><path fill="#005CB9" fill-rule="nonzero" d="M2 3.007v33.986c0 .56.444 1.007.99 1.007h74.02c.544 0 .99-.448.99-1.007V3.007A.996.996 0 0 0 77.01 2H2.99A.998.998 0 0 0 2 3.007zm-2 0A2.998 2.998 0 0 1 2.99 0h74.02A2.996 2.996 0 0 1 80 3.007v33.986A2.998 2.998 0 0 1 77.01 40H2.99A2.996 2.996 0 0 1 0 36.993V3.007zm57 10.992a.996.996 0 0 0-.993-.999H39.993a.993.993 0 0 0-.993.999v1.002c0 .552.445.999.993.999h16.014a.993.993 0 0 0 .993-.999v-1.002zm10-5A.994.994 0 0 0 66.003 8H39.997a.995.995 0 0 0-.997.999v1.002c0 .552.44.999.997.999h26.006c.55 0 .997-.443.997-.999V8.999zm-60 0v22.002C7 32.107 7.894 33 9 33h22c1.107 0 2-.894 2-2V9c0-1.107-.894-2-2-2H9c-1.107 0-2 .894-2 2zM5 9C5 6.791 6.787 5 9 5h22c2.21 0 4 1.787 4 4v22c0 2.21-1.787 4-4 4H9c-2.21 0-4-1.787-4-4V9zM12 29.5V33h16v-3.5c0-1.93-1.563-3.5-3.491-3.5H15.49A3.496 3.496 0 0 0 12 29.5zm-2 0c0-3.036 2.458-5.5 5.491-5.5h9.018A5.498 5.498 0 0 1 30 29.5V35H10v-5.5zm7-12.503v3.006a3 3 0 0 0 6 0v-3.006a3 3 0 0 0-6 0zm-2 0a5 5 0 0 1 10 0v3.006a5 5 0 0 1-10 0v-3.006z" class="color-500" transform="translate(6 31)"/><path fill="#000" d="M12 31h16v2H12z" class="color-shadow" opacity=".1" transform="translate(6 31)"/></g><g class="animate-float-rotate-left"><path fill="#0B77E3" d="M48.607 67.725l3.828 3.828L40.829 83.16l-3.83-3.828z" class="color-400"/><path fill="#40A0FF" d="M58.799 69.432a.999.999 0 0 1 0 1.414l-2.414 2.415a1 1 0 0 1-1.414 0L46.9 65.189a.999.999 0 0 1 0-1.414l2.414-2.414a.999.999 0 0 1 1.414 0l8.07 8.07z" class="color-300"/><path fill="#FCFCFC" d="M75.477 44.683c5.077 5.077 5.077 13.308 0 18.385-5.077 5.077-13.308 5.077-18.385 0-5.077-5.077-5.077-13.308 0-18.385 5.077-5.077 13.308-5.077 18.385 0" class="color-screen" opacity=".7"/><path fill="#000" d="M53.526 56.375c-.8-4.102.389-8.515 3.566-11.692 5.077-5.077 13.308-5.077 18.385 0a12.984 12.984 0 0 1 3.566 11.692 12.938 12.938 0 0 0-3.566-6.692c-5.077-5.077-13.308-5.077-18.385 0a12.938 12.938 0 0 0-3.566 6.692" class="color-shadow" opacity=".1"/><path fill="#A6D2FF" d="M56.792 63.367c5.32 5.32 13.883 5.384 19.126.142 5.242-5.243 5.178-13.805-.142-19.126-5.32-5.32-13.883-5.384-19.126-.142-5.242 5.243-5.178 13.806.142 19.126M54.44 65.72c-6.639-6.639-6.718-17.323-.177-23.865 6.541-6.54 17.226-6.462 23.865.177 6.64 6.64 6.718 17.324.177 23.865-6.542 6.541-17.226 6.462-23.865-.177" class="color-200"/><path fill="#005CB9" d="M58.244 61.916c4.507 4.507 11.76 4.56 16.2.12 4.442-4.441 4.388-11.694-.12-16.201-4.506-4.507-11.76-4.561-16.2-.12-4.441 4.44-4.387 11.694.12 16.2zm-1.495 1.513c-5.327-5.327-5.4-13.904-.145-19.16 5.255-5.254 13.832-5.181 19.159.146 5.326 5.326 5.4 13.904.145 19.159-5.255 5.255-13.833 5.182-19.16-.145zm-2.31 2.29c6.64 6.639 17.325 6.719 23.866.177 6.542-6.541 6.462-17.226-.176-23.865-6.64-6.638-17.324-6.718-23.865-.176-6.542 6.54-6.462 17.226.176 23.865zm-5.832 3.006L38 79.33l2.829 2.829 10.606-10.607-2.828-2.828zm.862-6.49a1.01 1.01 0 0 0-.162.132l-1.401 1.4a1.002 1.002 0 0 0-.005 1.424l7.068 7.068a1.012 1.012 0 0 0 1.423-.005l1.4-1.401c.05-.051.095-.105.132-.161a19.218 19.218 0 0 1-4.898-3.558 19.214 19.214 0 0 1-3.557-4.898zm-.814-1.836c-2.563-6.732-1.176-14.588 4.194-19.96 7.328-7.326 19.278-7.237 26.694.178 7.415 7.416 7.504 19.366.177 26.694-5.371 5.37-13.226 6.757-19.957 4.194a3.05 3.05 0 0 1-.556.762l-1.401 1.4a3.01 3.01 0 0 1-4.251.006l-.706-.706-10.606 10.607a2 2 0 0 1-2.83 0l-2.827-2.828a2 2 0 0 1 0-2.83l10.607-10.605-.706-.706a3 3 0 0 1 .005-4.251l1.4-1.401c.23-.23.489-.414.763-.554z" class="color-500"/></g></g></svg>