<svg xmlns="http://www.w3.org/2000/svg" width="92" height="92" class="wd-applet wd-applet-regions" focusable="false" role="presentation" viewBox="0 0 92 92"><g fill="none" fill-rule="evenodd" class="wd-icon-container"><g fill="#0B77E3" fill-opacity=".2" class="animate-flood"><circle cx="36" cy="36" r="36" class="color-400-alpha-20" transform="translate(10 10)"/></g><g class="animate-shrink"><circle cx="25" cy="25" r="25" fill="#FFF" class="color-100" transform="translate(21 21)"/><path fill="#005CB9" d="M42.673 7.327C37.96 2.602 31.673 0 25 0 18.327 0 12.04 2.602 7.327 7.327 2.612 12.05 0 18.327 0 25c0 6.673 2.602 12.96 7.327 17.673C12.05 47.388 18.327 50 25 50c6.673 0 12.96-2.602 17.673-7.327C47.388 37.95 50 31.673 50 25c0-6.673-2.602-12.96-7.327-17.673zm5.061 16.55h-9.693c-.092-3.856-.633-7.57-1.582-10.867a24.794 24.794 0 0 0 5.153-3.55 22.704 22.704 0 0 1 6.122 14.417zm-21.611 2.246h9.683c-.082 3.55-.572 6.949-1.418 9.99a25.23 25.23 0 0 0-8.265-1.797v-8.193zM40 7.898a22.74 22.74 0 0 1-4.245 2.949 26.043 26.043 0 0 0-1.316-3.061c-.97-1.919-2.071-3.49-3.286-4.694A22.667 22.667 0 0 1 40 7.898zM26.123 2.592c2.336.52 4.54 2.673 6.316 6.184.48.948.908 1.959 1.285 3.03a22.902 22.902 0 0 1-7.601 1.704V2.592zm8.275 11.367c.836 3.02 1.316 6.398 1.398 9.929h-9.673v-8.122a25.266 25.266 0 0 0 8.275-1.807zm-10.52 9.918h-9.684c.082-3.53.561-6.908 1.398-9.928a24.789 24.789 0 0 0 8.275 1.796v8.132h.01zm.01-21.285V13.51a22.848 22.848 0 0 1-7.602-1.704 25.46 25.46 0 0 1 1.286-3.03c1.775-3.51 3.98-5.664 6.316-6.184zm-5.03.5c-1.215 1.204-2.317 2.785-3.287 4.694-.48.959-.918 1.98-1.316 3.06a23.071 23.071 0 0 1-4.245-2.948 22.661 22.661 0 0 1 8.847-4.806zM8.397 9.459a25.2 25.2 0 0 0 5.153 3.551c-.949 3.307-1.5 7.01-1.582 10.867H2.276A22.704 22.704 0 0 1 8.398 9.46zM2.276 26.123h9.693c.092 3.887.643 7.612 1.602 10.928a24.587 24.587 0 0 0-5.132 3.53 22.67 22.67 0 0 1-6.163-14.458zm7.775 16.02a22.826 22.826 0 0 1 4.225-2.929c.387 1.051.816 2.062 1.295 3 .97 1.919 2.072 3.49 3.286 4.704a22.77 22.77 0 0 1-8.806-4.775zm13.837 5.265c-2.337-.52-4.541-2.673-6.316-6.184a26.143 26.143 0 0 1-1.266-2.969 22.52 22.52 0 0 1 7.582-1.694v10.847zm-8.266-11.296c-.846-3.04-1.336-6.438-1.418-9.99h9.684v8.194a24.732 24.732 0 0 0-8.266 1.796zm10.51 11.296V36.561a22.76 22.76 0 0 1 7.582 1.694 26.236 26.236 0 0 1-1.265 2.97c-1.776 3.51-3.98 5.663-6.316 6.183zm5.031-.5c1.215-1.204 2.317-2.785 3.286-4.704.48-.939.908-1.949 1.296-3 1.5.806 2.918 1.786 4.224 2.929a22.512 22.512 0 0 1-8.806 4.775zm10.429-6.326a24.958 24.958 0 0 0-5.133-3.531c.96-3.316 1.51-7.051 1.602-10.928h9.694a22.774 22.774 0 0 1-6.163 14.459z" class="color-500" transform="translate(21 21)"/><path fill="#000" fill-rule="nonzero" d="M25 0c8.695 0 16.353 4.439 20.832 11.174-2.744 5.684-7.348 11.26-9.298 13.5l-.217.248c-.442.502-.7.78-.7.78a.872.872 0 0 1-1.307.006l-.018-.019C33.769 25.14 22 12.691 22 3.426c0-1.177.093-2.269.27-3.278A25.17 25.17 0 0 1 25 0z" class="color-shadow" opacity=".1" transform="translate(21 21)"/></g><g class="animate-grow"><path fill="#40A0FF" fill-rule="nonzero" d="M12.31 35.708a.872.872 0 0 0 1.307-.005S26 22.373 26 13.426C26 4.48 19.894 0 12.97 0 6.048 0 0 3.95 0 13.426c0 9.476 12.31 22.282 12.31 22.282z" class="color-300" transform="translate(45 11)"/><path fill="#005CB9" fill-rule="nonzero" d="M13.776 34.348a1.072 1.072 0 0 0-.013-.014l.013.014zm.24-2.15a77.894 77.894 0 0 0 4.15-5.42c1.7-2.443 3.106-4.808 4.118-7.01C23.41 17.322 24 15.17 24 13.426 24 6.231 19.478 2 12.97 2 6.253 2 2 5.885 2 13.426c0 1.575.416 3.397 1.216 5.414 1.01 2.543 2.586 5.296 4.576 8.132a70.314 70.314 0 0 0 5.156 6.477c.332-.38.69-.798 1.069-1.251zm-.265 2.124a55.67 55.67 0 0 1-.803-.873 62.665 62.665 0 0 1-.796.892c.404-.454 1.172-.463 1.611-.007l-.012-.012zm-1.441 1.386S0 22.902 0 13.426C0 3.951 6.047 0 12.97 0 19.895 0 26 4.479 26 13.426c0 8.948-12.383 22.277-12.383 22.277a.872.872 0 0 1-1.307.005z" class="color-500" transform="translate(45 11)"/><circle cx="13" cy="12" r="3" fill="#FFF" class="color-100" transform="translate(45 11)"/><path fill="#005CB9" fill-rule="nonzero" d="M13 15a3 3 0 1 0 0-6 3 3 0 0 0 0 6zm0 2a5 5 0 1 1 0-10 5 5 0 0 1 0 10z" class="color-500" transform="translate(45 11)"/></g></g></svg>