<svg xmlns="http://www.w3.org/2000/svg" width="92" height="92" fill="none" class="wd-applet-remove-par-inventory wd-applet" focusable="false" role="presentation" viewBox="0 0 92 92"><g class="wd-icon-container"><g class="animate-flood"><path fill="#0B77E3" fill-opacity=".2" fill-rule="evenodd" d="M46 82c19.882 0 36-16.118 36-36S65.882 10 46 10 10 26.118 10 46s16.118 36 36 36z" class="color-400-alpha-20" clip-rule="evenodd"/></g><g class="animate-shrink"><path fill="#005CB9" d="M16 15a3 3 0 0 1 2.996-3h54.008A2.996 2.996 0 0 1 76 15v65a3 3 0 0 1-2.996 3H18.996A2.996 2.996 0 0 1 16 80V15z" class="color-500"/><path fill="#40A0FF" fill-rule="evenodd" d="M18 15a1 1 0 0 1 .996-1h54.008c.55 0 .996.446.996 1v65a1 1 0 0 1-.996 1H18.996A.996.996 0 0 1 18 80V15zM21 20V76a2 2 0 0 0 2 2h44.996A3.006 3.006 0 0 0 71 74.999V20A2.999 2.999 0 0 0 67.996 17H24.004A3.006 3.006 0 0 0 21 20.001z" class="color-300" clip-rule="evenodd"/><path fill="#fff" fill-rule="evenodd" d="M23 20.001c0-.553.455-1.001 1.004-1.001h43.992A.999.999 0 0 1 69 20.001V75c0 .553-.455 1.001-1.004 1.001H23V20.001z" class="color-100" clip-rule="evenodd"/><path fill="#40A0FF" fill-rule="evenodd" d="M41 27.999a1 1 0 0 1 .995-.999h17.01c.55 0 .995.443.995.999v1.002a1 1 0 0 1-.995.999h-17.01a.994.994 0 0 1-.995-.999v-1.002zm0 5A1 1 0 0 1 42 32h22c.552 0 1 .443 1 .999v1.002A1 1 0 0 1 64 35H42c-.552 0-1-.443-1-.999v-1.002zm0 11a1 1 0 0 1 .995-.999h17.01c.55 0 .995.443.995.999v1.002a1 1 0 0 1-.995.999h-17.01a.994.994 0 0 1-.995-.999v-1.002zm0 5A1 1 0 0 1 42 48h22c.552 0 1 .443 1 .999v1.002A1 1 0 0 1 64 51H42c-.552 0-1-.443-1-.999v-1.002zm0 11a1 1 0 0 1 .995-.999h17.01c.55 0 .995.443.995.999v1.002a1 1 0 0 1-.995.999h-17.01a.994.994 0 0 1-.995-.999v-1.002zm0 5A1 1 0 0 1 42 64h22c.552 0 1 .443 1 .999v1.002A1 1 0 0 1 64 67H42c-.552 0-1-.443-1-.999v-1.002z" class="color-300" clip-rule="evenodd"/><path fill="#005CB9" d="M32 52a5 5 0 1 1 0-10 5 5 0 0 1 0 10zm0 16a5 5 0 1 1 0-10 5 5 0 0 1 0 10zm-.494-33.467c-.08-.029-.156-.069-.23-.12l-2.457-1.72a.998.998 0 0 1-.245-1.393.997.997 0 0 1 1.392-.246l1.668 1.168 3.448-4.924a.996.996 0 0 1 1.391-.244c.452.317.563.94.247 1.39l-4.018 5.739a.996.996 0 0 1-1.196.35z" class="color-500"/><path fill="#A6D2FF" fill-rule="evenodd" d="M32 50a3 3 0 1 1 0-6 3 3 0 0 1 0 6zm0 16a3 3 0 1 1 0-6 3 3 0 0 1 0 6z" class="color-200" clip-rule="evenodd"/><path fill="#005CB9" d="M40 10h-6.5c-3.039 0-5.5 2.462-5.5 5.5V19a2 2 0 0 0 2 2h32a2 2 0 0 0 2-2v-3.5c0-3.035-2.464-5.5-5.5-5.5H52v-.004a6 6 0 0 0-12 0V10z" class="color-500"/><path fill="#A6D2FF" fill-rule="evenodd" d="M42 12V9.996a4 4 0 0 1 8 0V12h8.5c1.933 0 3.5 1.57 3.5 3.5V19H30v-3.5c0-1.933 1.565-3.5 3.5-3.5H42zm4 0a2 2 0 1 0 0-4 2 2 0 0 0 0 4z" class="color-200" clip-rule="evenodd"/><path fill="#000" fill-rule="evenodd" d="M76 52.751v27.242a3 3 0 0 1-.456 1.597c-.717.519-1.473.986-2.264 1.397-.094.008-.19.013-.288.013H56.746C50.956 80.007 47 73.966 47 67c0-9.941 8.059-18 18-18 4.142 0 7.958 1.4 11 3.751z" class="color-shadow" clip-rule="evenodd" opacity=".1"/></g><g class="animate-grow"><path fill="#005CB9" d="M52 68.5C52 77.615 59.387 85 68.5 85 77.615 85 85 77.613 85 68.5 85 59.385 77.613 52 68.5 52 59.385 52 52 59.387 52 68.5zm-2 0C50 58.282 58.281 50 68.5 50 78.718 50 87 58.281 87 68.5 87 78.718 78.719 87 68.5 87 58.282 87 50 78.719 50 68.5z" class="color-500"/><path fill="#fff" fill-rule="evenodd" d="M52 68.5C52 77.615 59.387 85 68.5 85 77.615 85 85 77.613 85 68.5 85 59.385 77.613 52 68.5 52 59.385 52 52 59.387 52 68.5z" class="color-100" clip-rule="evenodd"/><g fill="#005CB9" fill-rule="evenodd" class="color-500" clip-rule="evenodd"><path d="M76.074 72.732a1.001 1.001 0 0 1-.005 1.412l-1.925 1.925a1.002 1.002 0 0 1-1.412.005L60.703 64.046a1.001 1.001 0 0 1 .006-1.412l1.925-1.925a1.002 1.002 0 0 1 1.412-.006l12.028 12.029z"/><path d="M64.046 76.074a1.002 1.002 0 0 1-1.412-.005l-1.925-1.925a1.002 1.002 0 0 1-.006-1.412l12.029-12.029a1.002 1.002 0 0 1 1.412.006l1.925 1.925c.391.391.39 1.028.005 1.412L64.046 76.074z"/></g></g></g></svg>