<svg xmlns="http://www.w3.org/2000/svg" width="92" height="92" class="wd-applet wd-applet-reports" focusable="false" role="presentation" viewBox="0 0 92 92"><g fill="none" fill-rule="evenodd" class="wd-icon-container"><g fill="#0B77E3" fill-opacity=".2" class="animate-flood"><circle cx="36" cy="36" r="36" class="color-400-alpha-20" transform="translate(10 10)"/></g><g class="animate-shrink"><path fill="#005CB9" fill-rule="nonzero" d="M16 15a3 3 0 0 1 2.996-3h54.008A2.996 2.996 0 0 1 76 15v65a3 3 0 0 1-2.996 3H18.996A2.996 2.996 0 0 1 16 80V15z" class="color-500"/><path fill="#40A0FF" d="M18 15a1 1 0 0 1 .996-1h54.008c.55 0 .996.446.996 1v65a1 1 0 0 1-.996 1H18.996A.996.996 0 0 1 18 80V15zM21 20V76a2 2 0 0 0 2 2h44.996A3.006 3.006 0 0 0 71 74.999V20A2.999 2.999 0 0 0 67.996 17H24.004A3.006 3.006 0 0 0 21 20.001z" class="color-300"/><path fill="#FFF" d="M23 20.001c0-.553.455-1.001 1.004-1.001h43.992A.999.999 0 0 1 69 20.001V75c0 .553-.455 1.001-1.004 1.001H23V20.001z" class="color-100"/><path fill="#A6D2FF" d="M46 6c2.21 0 4 1.797 4 3.996V12h8.5c1.933 0 3.5 1.57 3.5 3.5V19H30v-3.5c0-1.933 1.565-3.5 3.5-3.5H42V9.996A4 4 0 0 1 46 6zm0 2a2 2 0 1 0 0 4 2 2 0 0 0 0-4z" class="color-200"/><path fill="#005CB9" fill-rule="nonzero" d="M46 4c3.311 0 6 2.69 6 5.996l6.5.004c3.036 0 5.5 2.465 5.5 5.5V19a2 2 0 0 1-2 2H30a2 2 0 0 1-2-2v-3.5c0-3.038 2.461-5.5 5.5-5.5H40c0-3.315 2.69-6 6-6zm0 2a4 4 0 0 0-4 3.996V12h-8.5a3.499 3.499 0 0 0-3.5 3.5V19h32v-3.5c0-1.93-1.567-3.5-3.5-3.5H50V9.996C50 7.796 48.21 6 46 6zm0 2a2 2 0 1 1 0 4 2 2 0 0 1 0-4z" class="color-500"/><path fill="#40A0FF" d="M30 60.999c0-.552.455-.999.992-.999h18.016c.548 0 .992.443.992.999v1.002c0 .552-.455.999-.992.999H30.992a.992.992 0 0 1-.992-.999v-1.002zm25 0A.994.994 0 0 1 56.003 60h4.994a.998.998 0 0 1 1.003.999v1.002a.994.994 0 0 1-1.003.999h-4.994A.998.998 0 0 1 55 62.001v-1.002zm-25 6c0-.552.455-.999.992-.999h18.016c.548 0 .992.443.992.999v1.002c0 .552-.455.999-.992.999H30.992a.992.992 0 0 1-.992-.999v-1.002zm25 0A.994.994 0 0 1 56.003 66h4.994a.998.998 0 0 1 1.003.999v1.002a.994.994 0 0 1-1.003.999h-4.994A.998.998 0 0 1 55 68.001v-1.002zm-25-12c0-.552.455-.999.992-.999h18.016c.548 0 .992.443.992.999v1.002c0 .552-.455.999-.992.999H30.992a.992.992 0 0 1-.992-.999v-1.002zm25 0A.994.994 0 0 1 56.003 54h4.994a.998.998 0 0 1 1.003.999v1.002a.994.994 0 0 1-1.003.999h-4.994A.998.998 0 0 1 55 56.001v-1.002z" class="color-300"/><path fill="#A6D2FF" d="M44.018 48.036a8.018 8.018 0 0 0 8.018-8.018h-8.018V32a8.018 8.018 0 0 0 0 16.036z" class="color-200"/><path fill="#005CB9" fill-rule="nonzero" d="M38 40.018a6.018 6.018 0 0 0 11.696 2h-7.678V34.34A6.02 6.02 0 0 0 38 40.018zm6.018 8.018a8.018 8.018 0 1 1 0-16.036v8.018h8.018a8.018 8.018 0 0 1-8.018 8.018z" class="color-500"/><path fill="#0B77E3" d="M47.8 28.82l.063 7.364 7.438-.062c0-3.796-3.176-7.567-7.5-7.302z" class="color-400"/><path fill="#005CB9" fill-rule="nonzero" d="M48 29v7h7c0-3.796-3.204-7-7-7zm.127-2c4.9 0 8.873 3.972 8.873 8.873v2H46.127V27h2z" class="color-500"/></g></g></svg>