<svg xmlns="http://www.w3.org/2000/svg" width="92" height="92" class="wd-applet wd-applet-reports-favorites" focusable="false" role="presentation" viewBox="0 0 92 92"><g fill="none" fill-rule="evenodd" class="wd-icon-container"><g fill="#0B77E3" fill-opacity=".2" class="animate-flood"><path d="M46 82c19.882 0 36-16.118 36-36S65.882 10 46 10 10 26.118 10 46s16.118 36 36 36z" class="color-400-alpha-20"/></g><g class="animate-shrink"><path fill="#005CB9" fill-rule="nonzero" d="M16 15a3 3 0 0 1 2.996-3h54.008A2.996 2.996 0 0 1 76 15v65a3 3 0 0 1-2.996 3H18.996A2.996 2.996 0 0 1 16 80V15z" class="color-500"/><path fill="#40A0FF" d="M18 15a1 1 0 0 1 .996-1h54.008c.55 0 .996.446.996 1v65a1 1 0 0 1-.996 1H18.996A.996.996 0 0 1 18 80V15zM21 20V76a2 2 0 0 0 2 2h44.996A3.006 3.006 0 0 0 71 74.999V20A2.999 2.999 0 0 0 67.996 17H24.004A3.006 3.006 0 0 0 21 20.001z" class="color-300"/><path fill="#FFF" d="M23 20.001c0-.553.455-1.001 1.004-1.001h43.992A.999.999 0 0 1 69 20.001V75c0 .553-.455 1.001-1.004 1.001H23V20.001z" class="color-100"/><path fill="#40A0FF" d="M41 27.999a1 1 0 0 1 .995-.999h17.01c.55 0 .995.443.995.999v1.002a1 1 0 0 1-.995.999h-17.01a.994.994 0 0 1-.995-.999v-1.002zm0 5A1 1 0 0 1 42 32h22c.552 0 1 .443 1 .999v1.002A1 1 0 0 1 64 35H42c-.552 0-1-.443-1-.999v-1.002zm0 11a1 1 0 0 1 .995-.999h17.01c.55 0 .995.443.995.999v1.002a1 1 0 0 1-.995.999h-17.01a.994.994 0 0 1-.995-.999v-1.002zm0 5A1 1 0 0 1 42 48h22c.552 0 1 .443 1 .999v1.002A1 1 0 0 1 64 51H42c-.552 0-1-.443-1-.999v-1.002zm0 11a1 1 0 0 1 .995-.999h17.01c.55 0 .995.443.995.999v1.002a1 1 0 0 1-.995.999h-17.01a.994.994 0 0 1-.995-.999v-1.002zm0 5A1 1 0 0 1 42 64h22c.552 0 1 .443 1 .999v1.002A1 1 0 0 1 64 67H42c-.552 0-1-.443-1-.999v-1.002z" class="color-300"/><path fill="#005CB9" fill-rule="nonzero" d="M32 42a5 5 0 1 1 0 10 5 5 0 0 1 0-10zm0 16a5 5 0 1 1 0 10 5 5 0 0 1 0-10zm-.494-23.467a1.01 1.01 0 0 1-.23-.12l-2.457-1.72a.997.997 0 0 1-.245-1.393.997.997 0 0 1 1.392-.246l1.668 1.168 3.448-4.924a.996.996 0 0 1 1.391-.244c.452.317.563.94.247 1.39l-4.018 5.739a.996.996 0 0 1-1.196.35z" class="color-500"/><path fill="#A6D2FF" d="M32 50a3 3 0 1 0 0-6 3 3 0 0 0 0 6zm0 16a3 3 0 1 0 0-6 3 3 0 0 0 0 6z" class="color-200"/><path fill="#005CB9" fill-rule="nonzero" d="M40 10h-6.5c-3.039 0-5.5 2.462-5.5 5.5V19a2 2 0 0 0 2 2h32a2 2 0 0 0 2-2v-3.5c0-3.035-2.464-5.5-5.5-5.5H52v-.004a6 6 0 0 0-12 0V10z" class="color-500"/><path fill="#A6D2FF" d="M46 6c2.21 0 4 1.797 4 3.996V12h8.5c1.933 0 3.5 1.57 3.5 3.5V19H30v-3.5c0-1.933 1.565-3.5 3.5-3.5H42V9.996A4 4 0 0 1 46 6zm0 2a2 2 0 1 0 0 4 2 2 0 0 0 0-4z" class="color-200"/><path fill="#000" fill-opacity=".11" fill-rule="nonzero" d="M53 83l2.048-9.9-5.903-6.026c-2.14-2.184-.142-6.152 2.876-6.611l.135-.016 7.86-.656 3.021-6.562.048-.11c1.331-2.825 4.497-2.825 5.828 0l.048.11 4.02 7.562L76 61V80c0 1.511-1.29 3-3.018 3H53z" class="color-shadow"/></g><g class="animate-grow"><path fill="#FFF" d="M69 79.222l7.526 4.488c1.249.688 2.08.108 1.85-1.298l-1.573-8.978 6.621-6.76c1-1.02.664-2.02-.748-2.234l-9.093-.759-3.48-8.71c-.61-1.294-1.599-1.295-2.209 0l-3.48 8.71-9.092.759c-1.407.214-1.747 1.215-.748 2.235l6.621 6.759-1.573 8.978c-.23 1.404.598 1.988 1.85 1.298L69 79.222z" class="color-100"/><path fill="#005CB9" fill-rule="nonzero" d="M69 79.222l7.526 4.488c1.249.688 2.08.108 1.85-1.298l-1.573-8.978 6.621-6.76c1-1.02.664-2.02-.748-2.234l-9.093-.759-3.48-8.71c-.61-1.294-1.599-1.295-2.209 0l-3.48 8.71-9.092.759c-1.407.214-1.747 1.215-.748 2.235l6.621 6.759-1.573 8.978c-.23 1.404.598 1.988 1.85 1.298L69 79.222zm-6.563 6.24c-2.71 1.493-5.289-.32-4.785-3.395l1.396-7.967-5.903-6.026c-2.14-2.184-1.142-5.152 1.876-5.611l.135-.016 7.86-.656 3.021-7.562.048-.11c1.331-2.825 4.497-2.825 5.828 0l.048.11 3.02 7.562 7.861.656.135.016c3.023.46 4.017 3.425 1.876 5.611L78.95 74.1l1.4 7.988c.5 3.057-2.08 4.865-4.849 3.34L69 81.551l-6.562 3.911z" class="color-500"/></g></g></svg>