<svg xmlns="http://www.w3.org/2000/svg" width="92" height="92" class="wd-applet wd-applet-reports-hierarchy" focusable="false" role="presentation" viewBox="0 0 92 92"><g fill="none" fill-rule="evenodd" class="wd-icon-container"><g fill="#0B77E3" fill-opacity=".2" class="animate-flood"><path d="M46 82c19.882 0 36-16.118 36-36S65.882 10 46 10 10 26.118 10 46s16.118 36 36 36z" class="color-400-alpha-20"/></g><g class="animate-shrink"><path fill="#005CB9" fill-rule="nonzero" d="M16 15a3 3 0 0 1 2.996-3h54.008A2.996 2.996 0 0 1 76 15v65a3 3 0 0 1-2.996 3H18.996A2.996 2.996 0 0 1 16 80V15z" class="color-500"/><path fill="#40A0FF" d="M18 15a1 1 0 0 1 .996-1h54.008c.55 0 .996.446.996 1v65a1 1 0 0 1-.996 1H18.996A.996.996 0 0 1 18 80V15zM21 20V76a2 2 0 0 0 2 2h44.996A3.006 3.006 0 0 0 71 74.999V20A2.999 2.999 0 0 0 67.996 17H24.004A3.006 3.006 0 0 0 21 20.001z" class="color-300"/><path fill="#FFF" d="M23 20.001c0-.553.455-1.001 1.004-1.001h43.992A.999.999 0 0 1 69 20.001V75c0 .553-.455 1.001-1.004 1.001H23V20.001z" class="color-100"/><path fill="#005CB9" d="M33.5 10l6.5-.004A6 6 0 0 1 52 10h6.5c3.036 0 5.5 2.465 5.5 5.5V19a2 2 0 0 1-2 2H30a2 2 0 0 1-2-2v-3.5c0-3.038 2.461-5.5 5.5-5.5z" class="color-500"/><path fill="#A6D2FF" d="M42 12V9.996a4 4 0 0 1 8 0V12h8.5c1.933 0 3.5 1.57 3.5 3.5V19H30v-3.5c0-1.933 1.565-3.5 3.5-3.5H42zm4 0a2 2 0 1 0 0-4 2 2 0 0 0 0 4zm0 28a7 7 0 1 1 0-14 7 7 0 0 1 0 14zM35 68a7 7 0 1 1 0-14 7 7 0 0 1 0 14zm22 0a7 7 0 1 1 0-14 7 7 0 0 1 0 14z" class="color-200"/><path fill="#40A0FF" d="M41.242 37.968c-.134-.534.214-.968.753-.968h8.01c.55 0 .888.428.753.968l-.516 2.064c-.134.534-.695.968-1.239.968h-6.006c-.55 0-1.104-.428-1.24-.968l-.515-2.064zm-11 28c-.134-.534.214-.968.753-.968h8.01c.55 0 .888.428.753.968l-.516 2.064c-.134.534-.695.968-1.239.968h-6.006c-.55 0-1.104-.428-1.24-.968l-.515-2.064zm22 0c-.134-.534.214-.968.753-.968h8.01c.55 0 .888.428.753.968l-.516 2.064c-.134.534-.695.968-1.239.968h-6.006c-.55 0-1.104-.428-1.24-.968l-.515-2.064z" class="color-300"/><path fill="#FFF" fill-rule="nonzero" d="M44.5 31.5c0-.828.666-1.5 1.5-1.5.828 0 1.5.674 1.5 1.5v2c0 .828-.666 1.5-1.5 1.5-.828 0-1.5-.674-1.5-1.5v-2zm-11 28c0-.828.666-1.5 1.5-1.5.828 0 1.5.674 1.5 1.5v2c0 .828-.666 1.5-1.5 1.5-.828 0-1.5-.674-1.5-1.5v-2zm22 0c0-.828.666-1.5 1.5-1.5.828 0 1.5.674 1.5 1.5v2c0 .828-.666 1.5-1.5 1.5-.828 0-1.5-.674-1.5-1.5v-2z" class="color-100"/><path fill="#005CB9" fill-rule="nonzero" d="M57 68a7 7 0 1 0 0-14 7 7 0 0 0 0 14zm0 2a9 9 0 1 1 0-18 9 9 0 0 1 0 18zm-3.5-8.5v-2c0-1.934 1.562-3.5 3.5-3.5 1.933 0 3.5 1.57 3.5 3.5v2c0 .579-.14 1.125-.388 1.605A3.785 3.785 0 0 1 63 66.777L61 69h-8l-2-2.223a3.78 3.78 0 0 1 2.89-3.672 3.483 3.483 0 0 1-.39-1.605zM47 40v6h11v8h-2v-6H36v6h-2v-8h11v-6h2zm6 26.777V69h8v-2.223c0-.974-.795-1.777-1.775-1.777h-4.45c-.979 0-1.775.796-1.775 1.777zm2.5-7.277v2c0 .826.672 1.5 1.5 1.5.834 0 1.5-.672 1.5-1.5v-2c0-.826-.672-1.5-1.5-1.5-.834 0-1.5.672-1.5 1.5zM35 68a7 7 0 1 0 0-14 7 7 0 0 0 0 14zm0 2a9 9 0 1 1 0-18 9 9 0 0 1 0 18zm-3.5-8.5v-2c0-1.934 1.562-3.5 3.5-3.5 1.933 0 3.5 1.57 3.5 3.5v2c0 .579-.14 1.125-.388 1.605A3.785 3.785 0 0 1 41 66.777L39 69h-8l-2-2.223a3.78 3.78 0 0 1 2.89-3.672 3.483 3.483 0 0 1-.39-1.605zm-.5 5.277V69h8v-2.223c0-.974-.795-1.777-1.775-1.777h-4.45c-.979 0-1.775.796-1.775 1.777zm2.5-7.277v2c0 .826.672 1.5 1.5 1.5.834 0 1.5-.672 1.5-1.5v-2c0-.826-.672-1.5-1.5-1.5-.834 0-1.5.672-1.5 1.5zM46 40a7 7 0 1 0 0-14 7 7 0 0 0 0 14zm0 2a9 9 0 1 1 0-18 9 9 0 0 1 0 18zm-3.5-8.5v-2c0-1.934 1.562-3.5 3.5-3.5 1.933 0 3.5 1.57 3.5 3.5v2c0 .579-.14 1.125-.388 1.605A3.785 3.785 0 0 1 52 38.777L50 41h-8l-2-2.223a3.78 3.78 0 0 1 2.89-3.672 3.483 3.483 0 0 1-.39-1.605zm-.5 5.277V41h8v-2.223c0-.974-.795-1.777-1.775-1.777h-4.45c-.979 0-1.775.796-1.775 1.777zm2.5-7.277v2c0 .826.672 1.5 1.5 1.5.834 0 1.5-.672 1.5-1.5v-2c0-.826-.672-1.5-1.5-1.5-.834 0-1.5.672-1.5 1.5z" class="color-500"/></g></g></svg>