<svg xmlns="http://www.w3.org/2000/svg" width="92" height="92" class="wd-applet wd-applet-reporting-analytics" focusable="false" role="presentation" viewBox="0 0 92 92"><g fill="none" fill-rule="evenodd" class="wd-icon-container"><g fill="#0B77E3" fill-opacity=".2" class="animate-flood"><circle cx="36" cy="36" r="36" class="color-400-alpha-20" transform="translate(10 10)"/></g><rect width="64" height="50" x="14" y="19" fill="#FFF" class="color-100" rx="1"/><path fill="#40A0FF" d="M28 17.01c0-.558.455-1.01 1-1.01h34a1 1 0 0 1 1 1.01v1.98A1.01 1.01 0 0 1 63 20H29a1 1 0 0 1-1-1.01v-1.98zm35.31 53.04l2.347 8.755a.999.999 0 0 0 1.225.71.998.998 0 0 0 .707-1.224l-2.199-8.207-2.08-.034zM28.326 70l-2.358 8.8c-.144.538-.69.858-1.226.714a1.001 1.001 0 0 1-.706-1.229l2.213-8.258L28.325 70z" class="color-300"/><path fill="#000" d="M28.325 70l-.804 3H25.45l.798-2.973L28.325 70zm34.986.05l2.08.034.78 2.916h-2.07l-.79-2.95z" class="color-shadow" opacity=".1"/><g class="animate-grow"><path fill="#40A0FF" d="M53 44a1 1 0 0 1 .99-1h4.02a1 1 0 0 1 .99 1v15a1 1 0 0 1-.99 1h-4.02a1 1 0 0 1-.99-1V44z" class="color-300"/><path fill="#005CB9" fill-rule="nonzero" d="M59.003 42a1 1 0 0 1 .997.995v17.01a1 1 0 0 1-.997.995h-6.006a1 1 0 0 1-.997-.995v-17.01a1 1 0 0 1 .997-.995h6.006zM58 44h-4v15h4V44z" class="color-500"/><path fill="#005CB9" d="M69.003 34c.55 0 .997.446.997.993v25.014a1 1 0 0 1-.997.993h-6.006a.996.996 0 0 1-.997-.993V34.993a1 1 0 0 1 .997-.993h6.006zM68 36h-4v23h4V36zM49.003 50c.55 0 .997.445.997.996v9.008a1 1 0 0 1-.997.996h-6.006a.996.996 0 0 1-.997-.996v-9.008a1 1 0 0 1 .997-.996h6.006zM48 52h-4v7h4v-7z" class="color-500"/></g><path fill="#A6D2FF" d="M29 50a7 7 0 0 0 7-7h-7v-7a7 7 0 0 0 0 14z" class="color-200"/><g class="animate-grow"><path fill="#0B77E3" d="M34 30c4.733 0 8 3.545 8 8h-8v-8z" class="color-400"/><path fill="#005CB9" fill-rule="nonzero" d="M35 29a8 8 0 0 1 8 8v2H33V29h2zm0 2v6h6a6 6 0 0 0-6-6z" class="color-500"/></g><path fill="#005CB9" fill-rule="nonzero" d="M63 14a3 3 0 0 1 3 3h10.995A3.002 3.002 0 0 1 80 19.999V68A2.997 2.997 0 0 1 76.995 71h-9.326l1.816 6.778a3.002 3.002 0 0 1-2.12 3.682 3.001 3.001 0 0 1-3.675-2.129L61.457 71H30.13l-2.231 8.327a3.001 3.001 0 0 1-3.676 2.128 3.002 3.002 0 0 1-2.12-3.681L23.918 71h-8.913A3.002 3.002 0 0 1 12 68.001V20A2.997 2.997 0 0 1 15.005 17H26l.005-.167A3.01 3.01 0 0 1 29 14h34zm2.6 57.004l-2.07.003 2.092 7.806c.144.538.689.859 1.226.715.534-.143.85-.693.705-1.232L65.6 71.004zm-37.542.001l-2.073.008-1.95 7.278c-.145.54.172 1.09.705 1.232a1.001 1.001 0 0 0 1.227-.714l2.09-7.804zM26 19.001L15.005 19a.997.997 0 0 0-1.005.999V68c0 .551.45.999 1.005.999h61.99A.997.997 0 0 0 78 68.001V20c0-.551-.45-.999-1.005-.999H66l-.005.167A3.01 3.01 0 0 1 63 22H29a3 3 0 0 1-3-3zM63 16H29c-.545 0-1 .452-1 1.01v1.98A1 1 0 0 0 29 20h34c.545 0 1-.452 1-1.01v-1.98A1 1 0 0 0 63 16zM29 50a7 7 0 0 0 7-7h-7v-7a7 7 0 0 0 0 14zm9-9v2a9 9 0 1 1-9-9h2v7h7z" class="color-500"/></g></svg>