<svg xmlns="http://www.w3.org/2000/svg" width="92" height="92" class="wd-applet wd-applet-report-admin" focusable="false" role="presentation" viewBox="0 0 92 92"><g fill="none" fill-rule="evenodd" class="wd-icon-container"><g fill="#0B77E3" fill-opacity=".2" class="animate-flood"><circle cx="36" cy="36" r="36" class="color-400-alpha-20" transform="translate(10 10)"/></g><rect width="64" height="50" x="14" y="19" fill="#FFF" class="color-100" rx="1"/><path fill="#40A0FF" d="M28 17.01c0-.558.455-1.01 1-1.01h34a1 1 0 0 1 1 1.01v1.98A1.01 1.01 0 0 1 63 20H29a1 1 0 0 1-1-1.01v-1.98zm35.31 53.04l2.347 8.755a.999.999 0 0 0 1.225.71.998.998 0 0 0 .707-1.224l-2.199-8.207-2.08-.034zM28.326 70l-2.358 8.8c-.144.538-.69.858-1.226.714a1.001 1.001 0 0 1-.706-1.229l2.213-8.258L28.325 70z" class="color-300"/><path fill="#000" d="M28.247 70.05l-.79 2.95h-2.07l.741-2.769 2.12-.182z" class="color-shadow" opacity=".1"/><g class="animate-grow"><path fill="#40A0FF" d="M53 39.999a1 1 0 0 1 .99-.999h4.02a.99.99 0 0 1 .99.999V59a1 1 0 0 1-.99.999h-4.02a.99.99 0 0 1-.99-.999V40z" class="color-300"/><path fill="#005CB9" fill-rule="nonzero" d="M54 40.421V58.58h4V40.42h-4zM59.003 38c.55 0 .997.546.997 1.204v20.592c0 .665-.453 1.204-.997 1.204h-6.006c-.55 0-.997-.546-.997-1.204V39.204c0-.665.453-1.204.997-1.204h6.006zm-10 12c.55 0 .997.445.997.996v9.008a1 1 0 0 1-.997.996h-6.006a.996.996 0 0 1-.997-.996v-9.008a1 1 0 0 1 .997-.996h6.006zm20-17c.55 0 .997.463.997 1.03v25.94c0 .569-.453 1.03-.997 1.03h-6.006c-.55 0-.997-.463-.997-1.03V34.03c0-.569.453-1.03.997-1.03h6.006zM48 52h-4v7h4v-7zm20-17h-4v24h4V35z" class="color-500"/></g><path fill="#A6D2FF" d="M29 50a7 7 0 0 0 7-7h-7v-7a7 7 0 0 0 0 14z" class="color-200"/><path fill="#005CB9" d="M31 34v7h7v2a9 9 0 1 1-9-9h2zm-2 2a7 7 0 1 0 7 7h-7v-7z" class="color-500"/><path fill="#005CB9" fill-rule="nonzero" d="M63 14a3 3 0 0 1 3 3h10.995A3.002 3.002 0 0 1 80 19.999V68A2.997 2.997 0 0 1 76.995 71h-9.326l1.816 6.778a3.002 3.002 0 0 1-2.12 3.682 3.001 3.001 0 0 1-3.675-2.129L61.457 71H30.13l-2.231 8.327a3.001 3.001 0 0 1-3.676 2.128 3.002 3.002 0 0 1-2.12-3.681L23.918 71h-8.913A3.002 3.002 0 0 1 12 68.001V20A2.997 2.997 0 0 1 15.005 17H26l.005-.167A3.01 3.01 0 0 1 29 14h34zm2.6 57.004l-2.07.003 2.092 7.806c.144.538.689.859 1.226.715.534-.143.85-.693.705-1.232L65.6 71.004zm-37.542.001l-2.073.008-1.95 7.278c-.145.54.172 1.09.705 1.232a1.001 1.001 0 0 0 1.227-.714l2.09-7.804zM26 19.001L15.005 19a.997.997 0 0 0-1.005.999V68c0 .551.45.999 1.005.999h61.99A.997.997 0 0 0 78 68.001V20c0-.551-.45-.999-1.005-.999H66l-.005.167A3.01 3.01 0 0 1 63 22H29a3 3 0 0 1-3-3zM63 16H29c-.545 0-1 .452-1 1.01v1.98A1 1 0 0 0 29 20h34c.545 0 1-.452 1-1.01v-1.98A1 1 0 0 0 63 16z" class="color-500"/><g class="animate-grow"><path fill="#0B77E3" d="M34 30c4.995 0 8 4 8 8h-8v-8z" class="color-400"/><path fill="#005CB9" fill-rule="nonzero" d="M35 31v6h6a6 6 0 0 0-6-6zm0-2a8 8 0 0 1 8 8v2H33V29h2z" class="color-500"/></g><g class="animate-float-rotate-left"><path fill="#0B77E3" d="M49.607 69.725l3.828 3.828L41.829 85.16l-3.83-3.828z" class="color-400"/><path fill="#40A0FF" d="M59.799 71.432a.999.999 0 0 1 0 1.414l-2.414 2.415a1 1 0 0 1-1.414 0L47.9 67.189a.999.999 0 0 1 0-1.414l2.414-2.414a.999.999 0 0 1 1.414 0l8.07 8.07z" class="color-300"/><path fill="#FCFCFC" d="M76.477 46.683c5.077 5.077 5.077 13.308 0 18.385-5.077 5.077-13.308 5.077-18.385 0-5.077-5.077-5.077-13.308 0-18.385 5.077-5.077 13.308-5.077 18.385 0" class="color-screen" opacity=".7"/><path fill="#000" d="M54.526 58.375c-.8-4.102.389-8.515 3.566-11.692 5.077-5.077 13.308-5.077 18.385 0a12.984 12.984 0 0 1 3.566 11.692 12.938 12.938 0 0 0-3.566-6.692c-5.077-5.077-13.308-5.077-18.385 0a12.938 12.938 0 0 0-3.566 6.692" class="color-shadow" opacity=".1"/><path fill="#A6D2FF" d="M57.792 65.367c5.32 5.32 13.883 5.384 19.126.142 5.242-5.243 5.178-13.805-.142-19.126-5.32-5.32-13.883-5.384-19.126-.142-5.242 5.243-5.178 13.806.142 19.126M55.44 67.72c-6.639-6.639-6.718-17.323-.177-23.865 6.541-6.54 17.226-6.462 23.865.177 6.64 6.64 6.718 17.324.177 23.865-6.542 6.541-17.226 6.462-23.865-.177" class="color-200"/><path fill="#005CB9" d="M59.244 63.916c4.507 4.507 11.76 4.56 16.2.12 4.442-4.441 4.388-11.694-.12-16.201-4.506-4.507-11.76-4.561-16.2-.12-4.441 4.44-4.387 11.694.12 16.2zm-1.495 1.513c-5.327-5.327-5.4-13.904-.145-19.16 5.255-5.254 13.832-5.181 19.159.146 5.326 5.326 5.4 13.904.145 19.159-5.255 5.255-13.833 5.182-19.16-.145zm-2.31 2.29c6.64 6.639 17.325 6.719 23.866.177 6.542-6.541 6.462-17.226-.176-23.865-6.64-6.638-17.324-6.718-23.865-.176-6.542 6.54-6.462 17.226.176 23.865zm-5.832 3.006L39 81.33l2.829 2.829 10.606-10.607-2.828-2.828zm.862-6.49a1.01 1.01 0 0 0-.162.132l-1.401 1.4a1.002 1.002 0 0 0-.005 1.424l7.068 7.068a1.012 1.012 0 0 0 1.423-.005l1.4-1.401c.05-.051.095-.105.132-.161a19.218 19.218 0 0 1-4.898-3.558 19.214 19.214 0 0 1-3.557-4.898zm-.814-1.836c-2.563-6.732-1.176-14.588 4.194-19.96 7.328-7.326 19.278-7.237 26.694.178 7.415 7.416 7.504 19.366.177 26.694-5.371 5.37-13.226 6.757-19.957 4.194a3.05 3.05 0 0 1-.556.762l-1.401 1.4a3.01 3.01 0 0 1-4.251.006l-.706-.706-10.606 10.607a2 2 0 0 1-2.83 0l-2.827-2.828a2 2 0 0 1 0-2.83l10.607-10.605-.706-.706a3 3 0 0 1 .005-4.251l1.4-1.401c.23-.23.489-.414.763-.554z" class="color-500"/></g></g></svg>