<svg xmlns="http://www.w3.org/2000/svg" width="92" height="92" class="wd-applet wd-applet-reports-gauge" focusable="false" role="presentation" viewBox="0 0 92 92"><g fill="none" fill-rule="evenodd" class="wd-icon-container"><g fill="#0B77E3" fill-opacity=".2" class="animate-flood"><path d="M46 82c19.882 0 36-16.118 36-36S65.882 10 46 10 10 26.118 10 46s16.118 36 36 36z" class="color-400-alpha-20"/></g><g class="animate-shrink"><path fill="#005CB9" fill-rule="nonzero" d="M16 15a3 3 0 0 1 2.996-3h54.008A2.996 2.996 0 0 1 76 15v65a3 3 0 0 1-2.996 3H18.996A2.996 2.996 0 0 1 16 80V15z" class="color-500"/><path fill="#40A0FF" d="M18 15a1 1 0 0 1 .996-1h54.008c.55 0 .996.446.996 1v65a1 1 0 0 1-.996 1H18.996A.996.996 0 0 1 18 80V15zM21 20V76a2 2 0 0 0 2 2h44.996A3.006 3.006 0 0 0 71 74.999V20A2.999 2.999 0 0 0 67.996 17H24.004A3.006 3.006 0 0 0 21 20.001z" class="color-300"/><path fill="#FFF" d="M23 20.001c0-.553.455-1.001 1.004-1.001h43.992A.999.999 0 0 1 69 20.001V75c0 .553-.455 1.001-1.004 1.001H23V20.001z" class="color-100"/><path fill="#40A0FF" d="M41 27.999a1 1 0 0 1 .995-.999h17.01c.55 0 .995.443.995.999v1.002a1 1 0 0 1-.995.999h-17.01a.994.994 0 0 1-.995-.999v-1.002zm0 5A1 1 0 0 1 42 32h22c.552 0 1 .443 1 .999v1.002A1 1 0 0 1 64 35H42c-.552 0-1-.443-1-.999v-1.002zm0 11a1 1 0 0 1 .995-.999h17.01c.55 0 .995.443.995.999v1.002a1 1 0 0 1-.995.999h-17.01a.994.994 0 0 1-.995-.999v-1.002zm0 5A1 1 0 0 1 42 48h22c.552 0 1 .443 1 .999v1.002A1 1 0 0 1 64 51H42c-.552 0-1-.443-1-.999v-1.002zm0 11a1 1 0 0 1 .995-.999h17.01c.55 0 .995.443.995.999v1.002a1 1 0 0 1-.995.999h-17.01a.994.994 0 0 1-.995-.999v-1.002zm0 5A1 1 0 0 1 42 64h22c.552 0 1 .443 1 .999v1.002A1 1 0 0 1 64 67H42c-.552 0-1-.443-1-.999v-1.002z" class="color-300"/><path fill="#005CB9" fill-rule="nonzero" d="M32 42a5 5 0 1 1 0 10 5 5 0 0 1 0-10zm0 16a5 5 0 1 1 0 10 5 5 0 0 1 0-10zm-.494-23.467a1.01 1.01 0 0 1-.23-.12l-2.457-1.72a.997.997 0 0 1-.245-1.393.997.997 0 0 1 1.392-.246l1.668 1.168 3.448-4.924a.996.996 0 0 1 1.391-.244c.452.317.563.94.247 1.39l-4.018 5.739a.996.996 0 0 1-1.196.35z" class="color-500"/><path fill="#A6D2FF" d="M32 50a3 3 0 1 0 0-6 3 3 0 0 0 0 6zm0 16a3 3 0 1 0 0-6 3 3 0 0 0 0 6z" class="color-200"/><path fill="#005CB9" fill-rule="nonzero" d="M40 10h-6.5c-3.039 0-5.5 2.462-5.5 5.5V19a2 2 0 0 0 2 2h32a2 2 0 0 0 2-2v-3.5c0-3.035-2.464-5.5-5.5-5.5H52v-.004a6 6 0 0 0-12 0V10z" class="color-500"/><path fill="#A6D2FF" d="M46 6c2.21 0 4 1.797 4 3.996V12h8.5c1.933 0 3.5 1.57 3.5 3.5V19H30v-3.5c0-1.933 1.565-3.5 3.5-3.5H42V9.996A4 4 0 0 1 46 6zm0 2a2 2 0 1 0 0 4 2 2 0 0 0 0-4z" class="color-200"/><path fill="#000" d="M76 79.993A3 3 0 0 1 72.992 83H52.998C48.141 79.351 45 73.542 45 67c0-11.046 9.954-21 21-21 3.643 0 7.058.974 10 2.676v31.317z" class="color-shadow" opacity=".1"/></g><g class="animate-grow"><circle cx="19" cy="19" r="18" fill="#A6D2FF" class="color-200" transform="translate(48 48)"/><circle cx="19" cy="19" r="12" fill="#0B77E3" class="color-400" transform="translate(48 48)"/><path fill="#FFF" d="M11 20a1 1 0 1 0 0-2 1 1 0 0 0 0 2zm16 0a1 1 0 1 0 0-2 1 1 0 0 0 0 2zm-2-6a1 1 0 1 0 0-2 1 1 0 0 0 0 2zm-12 0a1 1 0 1 0 0-2 1 1 0 0 0 0 2zm6-2a1 1 0 1 0 0-2 1 1 0 0 0 0 2zm-.484 2.952c.267-1.067.702-1.063.968 0L21 21h-4l1.516-6.048z" class="color-100" transform="translate(48 48)"/><path fill="#A6D2FF" fill-rule="nonzero" d="M19 28a4 4 0 1 0 0-8 4 4 0 0 0 0 8zm0-2.667a1.333 1.333 0 1 1 0-2.666 1.333 1.333 0 0 1 0 2.666z" class="color-200" transform="translate(48 48)"/><path fill="#005CB9" fill-rule="nonzero" d="M19 30c6.075 0 11-4.925 11-11S25.075 8 19 8 8 12.925 8 19s4.925 11 11 11zm0 2c-7.18 0-13-5.82-13-13S11.82 6 19 6s13 5.82 13 13-5.82 13-13 13zm0 4c9.389 0 17-7.611 17-17S28.389 2 19 2 2 9.611 2 19s7.611 17 17 17zm0 2C8.507 38 0 29.493 0 19S8.507 0 19 0s19 8.507 19 19-8.507 19-19 19z" class="color-500" transform="translate(48 48)"/></g></g></svg>