<svg xmlns="http://www.w3.org/2000/svg" width="92" height="92" class="wd-applet wd-applet-resource-management" focusable="false" role="presentation" viewBox="0 0 92 92"><g fill="none" fill-rule="evenodd" class="wd-icon-container"><g fill="#0B77E3" fill-opacity=".2" class="animate-flood"><circle cx="36" cy="36" r="36" class="color-400-alpha-20" transform="translate(10 10)"/></g><g class="animate-grow"><path fill="#FFF" d="M52 51h26a2 2 0 0 1 2 2v12a2 2 0 0 1-2 2H52a2 2 0 0 1-2-2V53a2 2 0 0 1 2-2zm0-26h26a2 2 0 0 1 2 2v20a2 2 0 0 1-2 2H52a2 2 0 0 1-2-2V27a2 2 0 0 1 2-2zm-38 0h32a2 2 0 0 1 2 2v38a2 2 0 0 1-2 2H14a2 2 0 0 1-2-2V27a2 2 0 0 1 2-2z" class="color-100"/><g class="animate-shrink"><circle cx="12" cy="12" r="10" fill="#A6D2FF" class="color-200" transform="translate(18 34)"/><path fill="#40A0FF" d="M19 18.96A2 2 0 0 0 17 17H7a2 2 0 0 0-2 1.96c2.14 1.864 4.781 3.005 7 3.005 2.219 0 4.86-1.141 7-3.006z" class="color-300" transform="translate(18 34)"/><rect width="6" height="9" x="9" y="5" fill="#FFF" class="color-100" rx="3" transform="translate(18 34)"/><path fill="#005CB9" d="M12 0c6.627 0 12 5.373 12 12s-5.373 12-12 12S0 18.627 0 12 5.373 0 12 0zm5 17H7a2 2 0 0 0-2 1.96c2.14 1.864 4.781 3.005 7 3.005 2.219 0 4.86-1.141 7-3.006A2 2 0 0 0 17 17zM12 2C6.477 2 2 6.477 2 12c0 1.894.527 3.665 1.441 5.175A3.997 3.997 0 0 1 7 15h2a4.992 4.992 0 0 1-2-4V8a5 5 0 1 1 10 0v3a4.992 4.992 0 0 1-2 4h2a4 4 0 0 1 3.56 2.174A9.956 9.956 0 0 0 22 12c0-5.523-4.477-10-10-10zm0 3a3 3 0 0 0-3 3v3a3 3 0 0 0 6 0V8a3 3 0 0 0-3-3z" class="color-500" transform="translate(18 34)"/></g><g class="animate-shrink"><path fill="#40A0FF" d="M60.886 43.961a6.313 6.313 0 0 0-.744-.43c.045-.252.09-.504.119-.812.006-.18-.028-.29-.005-.416-.315-2.233-1.376-3.7-3.256-4.439.035-.488-.004-1.014.03-1.502 1.105-.397 1.884-1.053 2.524-1.966.466-.68.77-1.489.968-2.445.023-.127.045-.253.051-.434.029-.307-.055-.58-.066-.816.264-.14.527-.28.735-.403l.583-.298c.827.702 1.924 1.084 3.217 1.106 1.294.023 2.414-.32 3.418-1.045.436.225.816.467 1.27.747-.046.252-.091.505-.08.74-.013.96.337 2.107.99 3.042.654.934 1.465 1.582 2.36 1.906-.029.307-.018.543-.024.724-.006.18.005.416-.024.723-.896.274-1.732.948-2.428 1.877-.134.16-.269.321-.33.52-.49.806-.76 1.724-.767 2.503.01.235.038.526.049.761-.415.246-.846.438-1.317.701-.973-.777-2.07-1.158-3.403-1.11-1.35-.004-2.397.376-3.289 1.066l-.581-.3z" class="color-300"/><path fill="#005CB9" d="M61.964 28.806l.508.432c.646.548 1.52.85 2.588.868 1.08.02 1.988-.259 2.814-.855l.498-.36.546.281c.196.102.388.209.6.334.11.065.225.135.366.222l.37.229.58.357-.12.67c-.055.303-.07.424-.064.578-.01.77.29 1.71.81 2.455.536.766 1.181 1.286 1.88 1.538l.727.263-.071.77c-.013.14-.016.243-.017.46a6.7 6.7 0 0 1-.004.257l-.001.096c-.001.271-.006.42-.026.635l-.062.668-.641.196c-.653.2-1.324.724-1.986 1.598-.085.104-.113.145-.112.14l-.036.116-.063.104c-.39.644-.616 1.388-.622 1.94.004.085.01.165.023.353l.008.111.01.165c.004.046.006.087.008.132l.027.599-.516.306c-.179.106-.355.202-.602.329l-.374.19c-.139.072-.253.133-.363.195l-.587.329-.526-.42c-.805-.644-1.672-.931-2.782-.891-1.082-.004-1.924.276-2.672.856l-.504.39-1.148-.592-.122-.074a3 3 0 0 0-.245-.153 9.13 9.13 0 0 0-.377-.202l-.657-.339.132-.734c.062-.345.086-.501.102-.662.001-.018 0-.037-.003-.085-.01-.13-.012-.171-.009-.264-.284-1.838-1.122-2.955-2.615-3.542l-.683-.269.051-.732a8.69 8.69 0 0 0 .013-.677v-.3c.002-.215.006-.356.018-.525l.046-.65.613-.22c.86-.31 1.489-.81 2.037-1.591.37-.54.634-1.215.802-2.012.033-.19.04-.243.046-.394.005-.055 0-.123-.023-.281a3.252 3.252 0 0 1-.045-.397l-.03-.631.559-.297c.38-.203.539-.29.749-.412l1.177-.6zm-.235 2.365s-.05.03-.151.087a2.63 2.63 0 0 1-.005.292c-.007.21-.025.344-.06.533l-.012.07c-.23 1.112-.589 2.03-1.128 2.818-.645.919-1.407 1.596-2.358 2.06v.198c1.826.947 2.904 2.611 3.231 4.934l.023.158c-.004.216-.008.38-.012.49a8.273 8.273 0 0 1-.02.185l.156.1c.976-.605 2.078-.905 3.326-.9 1.315-.048 2.477.264 3.52.936l.197-.101-.01-.197c.01-.945.319-1.998.855-2.918.091-.241.211-.416.446-.7.656-.874 1.418-1.546 2.248-1.956a4.26 4.26 0 0 1 .003-.128c-.824-.44-1.556-1.109-2.157-1.97-.756-1.08-1.175-3.753-1.17-3.844a17.006 17.006 0 0 0-.15-.09c-1.043.61-2.197.9-3.476.878-1.25-.022-2.372-.338-3.296-.935z" class="color-500"/><path fill="#FFF" d="M65.485 37.874a1 1 0 1 0-.97-1.748 1 1 0 0 0 .97 1.748z" class="color-100"/><path fill="#005CB9" d="M67.624 35.546a3 3 0 1 1-5.248 2.908 3 3 0 0 1 5.248-2.908zm-3.109.58a1 1 0 1 0 .97 1.748 1 1 0 0 0-.97-1.748z" class="color-500"/></g><g class="animate-shrink"><path fill="#40A0FF" d="M60 60h11a1 1 0 0 1 0 2H60a1 1 0 1 1 0-2z" class="color-300"/><path fill="#0B77E3" d="M56 56h18a1 1 0 0 1 0 2H56a1 1 0 1 1 0-2z" class="color-400"/></g><path fill="#005CB9" fill-rule="nonzero" d="M52 53v12h26V53H52zm0-2h26a2 2 0 0 1 2 2v12a2 2 0 0 1-2 2H52a2 2 0 0 1-2-2V53a2 2 0 0 1 2-2zm0-24v20h26V27H52zm0-2h26a2 2 0 0 1 2 2v20a2 2 0 0 1-2 2H52a2 2 0 0 1-2-2V27a2 2 0 0 1 2-2zm-38 2v38h32V27H14zm0-2h32a2 2 0 0 1 2 2v38a2 2 0 0 1-2 2H14a2 2 0 0 1-2-2V27a2 2 0 0 1 2-2z" class="color-500"/></g></g></svg>