<svg xmlns="http://www.w3.org/2000/svg" width="92" height="92" class="wd-applet wd-applet-rfq" focusable="false" role="presentation" viewBox="0 0 92 92"><g fill="none" fill-rule="evenodd" class="wd-icon-container"><g fill="#0B77E3" fill-opacity=".2" class="animate-flood"><path d="M46 82c19.882 0 36-16.118 36-36S65.882 10 46 10 10 26.118 10 46s16.118 36 36 36z" class="color-400-alpha-20"/></g><g class="animate-sink"><path fill="#40A0FF" d="M23 16h36a1 1 0 0 1 1 1v8a1 1 0 0 1-1 1H23a1 1 0 0 1-1-1v-8a1 1 0 0 1 1-1z" class="color-300" transform="translate(18 18)"/><path fill="#005CB9" fill-rule="nonzero" d="M25 0a3 3 0 0 1 3 3v2a3 3 0 0 1-3 3h-1v6h35a3 3 0 0 1 3 3v8a3 3 0 0 1-3 3H24v8H4V8H3a3 3 0 0 1-3-3V3a3 3 0 0 1 3-3h22zm-3 8H6v26h16V8zm37 8H24v10h35a1 1 0 0 0 1-1v-8a1 1 0 0 0-1-1zM25 2H3a1 1 0 0 0-1 1v2a1 1 0 0 0 1 1h22a1 1 0 0 0 1-1V3a1 1 0 0 0-1-1z" class="color-500" transform="translate(18 18)"/><path fill="#FFF" d="M6 8h16v26H6z" class="color-100" transform="translate(18 18)"/><path fill="#0B77E3" d="M6 11h16v2H6zm0 18h16v2H6z" class="color-400" transform="translate(18 18)"/><path fill="#005CB9" fill-rule="nonzero" d="M25 34a3 3 0 0 1 3 3v2a3 3 0 0 1-3 3H3a3 3 0 0 1-3-3v-2a3 3 0 0 1 3-3h22zm0 2H3a1 1 0 0 0-1 1v2a1 1 0 0 0 1 1h22a1 1 0 0 0 1-1v-2a1 1 0 0 0-1-1z" class="color-500" transform="translate(18 18)"/><rect width="24" height="4" x="2" y="36" fill="#40A0FF" class="color-300" rx="1" transform="translate(18 18)"/><rect width="24" height="4" x="2" y="2" fill="#40A0FF" class="color-300" rx="1" transform="translate(18 18)"/></g><path fill="#40A0FF" d="M44 74v-2a1 1 0 0 0-1-1H21a1 1 0 0 0-1 1v2h-5a1 1 0 0 0-1 1v2a1 1 0 0 0 1 1h34a1 1 0 0 0 1-1v-2a1 1 0 0 0-1-1h-5z" class="color-300"/><path fill="#005CB9" fill-rule="nonzero" d="M43 69a3 3 0 0 1 3 3h3a3 3 0 0 1 3 3v2a3 3 0 0 1-3 3H15a3 3 0 0 1-3-3v-2a3 3 0 0 1 3-3h3a3 3 0 0 1 3-3h22zm0 2H21a1 1 0 0 0-1 1v2h-5a1 1 0 0 0-1 1v2a1 1 0 0 0 1 1h34a1 1 0 0 0 1-1v-2a1 1 0 0 0-1-1h-5v-2a1 1 0 0 0-1-1z" class="color-500"/></g></svg>