<svg xmlns="http://www.w3.org/2000/svg" width="92" height="92" class="wd-applet wd-applet-rocket" focusable="false" role="presentation" viewBox="0 0 92 92"><g fill="none" fill-rule="evenodd" class="wd-icon-container"><g fill="#0B77E3" fill-opacity=".2" class="animate-flood"><circle cx="36" cy="36" r="36" class="color-400-alpha-20" transform="translate(10 10)"/></g><g class="animate-float"><path fill="#40A0FF" fill-rule="nonzero" d="M41.931 65.734l.107-.079c.825-.58 1.846-.85 2.985-.85h.122c.544.005 2.8.13 4.46 1.759.429-1.778 1.694-2.562 3.28-2.562l.048-.001h.139c.713.016 3.252.274 3.841 3.113.688 3.213-2.948 8.432-2.948 10.842l-.02-.02c-.18-.19-1.596-1.7-2.791-3.902-.597 3.501-2.15 7.376-3.213 10.027l-.324.81A44.61 44.61 0 0 0 47.182 86c-2.02-1.339-5.609-5.209-6.84-10.98-.467 1.156-.822 2.183-.822 2.936l-.02-.02a9.827 9.827 0 0 1-.203-.222l-.136-.153C38.09 76.336 35 72.417 35 68.018c0-2.811 1.474-4.016 3.44-4.016l.048-.001h.138c.575.013 2.334.183 3.305 1.733z" class="color-300"/><path fill="#005CB9" fill-rule="nonzero" d="M46.113 7c1.888 0 5.713 4.426 9.143 9.881 3.492 5.554 5.867 11.2 6.545 16.404l.012.091 11.201 12.167-.014.801-.015.745a570.442 570.442 0 0 1-.22 7.899c-.073 2.004-.153 3.74-.24 5.136l-.217 3.499-2.901-1.968c-1.38-.935-3.209-1.723-5.373-2.355-1.1-.322-2.25-.593-3.423-.819l.043-.426-.017.174a509.41 509.41 0 0 1-1.125 10.02L59.292 70H32.573l-.22-1.75a384.41 384.41 0 0 1-.368-3.082c-.275-2.39-.55-4.945-.807-7.563a345.33 345.33 0 0 1-.669-7.638c-.415-5.491-.593-10.012-.472-13.265l-.014-.114L21 46.308v.03c.008.402.09 4.72.247 8.926l.024.63c.057 1.464.124 2.89.2 4.106 2.711-1.84 6.464-2.895 9.6-3.494a410.684 410.684 0 0 0 .196 1.999c-1.13.22-2.239.484-3.3.795-2.165.632-3.994 1.42-5.374 2.355l-2.9 1.968-.219-3.499a205.339 205.339 0 0 1-.239-5.136A499.441 499.441 0 0 1 19 46.344l-.014-.806 11.21-12.077.01-.073c.683-5.284 3.091-10.932 6.628-16.489C40.316 11.43 44.2 7 46.113 7zm0 2C44.686 9 32 23.845 32 36.252c.01.116.024.23.043.342A53.152 53.152 0 0 0 32 38.502v.684c.012 2.896.19 6.345.443 9.834l.062.837c.053.699.109 1.397.166 2.091l.07.83A430.335 430.335 0 0 0 34.337 68h23.19s1.084-8.62 1.816-17.458l.102-1.263.065-.841.062-.839c.304-4.182.491-8.203.408-11.155.01-.063.016-.127.02-.192C60 23.771 47.464 9 46.113 9zm15.87 27.533c.082 3.253-.136 7.853-.59 13.477a378.246 378.246 0 0 1-.603 6.69l.021-.216c3.16.595 6.973 1.654 9.718 3.516.076-1.216.143-2.642.2-4.107l.024-.63c.157-4.206.239-8.523.246-8.924l.001-.03-9.015-9.793a5.185 5.185 0 0 0-.002.017z" class="color-500"/><path fill="#FFF" d="M32.043 36.594C31.63 46.546 34.337 68 34.337 68h23.19s2.73-21.716 2.453-31.556c.01-.063.016-.127.02-.192C60 23.771 47.464 9 46.113 9 44.686 9 32 23.845 32 36.252c.01.116.024.23.043.342z" class="color-100"/><path fill="#005CB9" fill-rule="nonzero" d="M46 49.667l1.6 2.133c.579.772 1.401 2.097 2.216 3.862C51.178 58.614 52 61.763 52 65c0 3.237-.822 6.386-2.184 9.338-.815 1.765-1.637 3.09-2.216 3.862l-1.612 2.149-1.596-2.16c-.576-.78-1.396-2.114-2.21-3.883C40.823 71.342 40 68.203 40 65c0-3.237.822-6.386 2.184-9.338.815-1.765 1.637-3.09 2.216-3.862l1.6-2.133zM46 53s-4 5.333-4 12c0 6.588 4 12 4 12s4-5.333 4-12-4-12-4-12z" class="color-500"/><path fill="#40A0FF" fill-rule="nonzero" d="M31.072 56.506c-3.137.6-6.89 1.655-9.601 3.494C21.157 54.964 21 46.308 21 46.308l9.023-9.72.014.114c-.12 3.253.057 7.774.472 13.265.158 2.093.348 4.284.563 6.54zm30.913-19.99L71 46.308s-.157 8.656-.47 13.692c-2.746-1.862-6.558-2.92-9.719-3.516.22-2.234.415-4.403.582-6.474.454-5.624.672-10.224.59-13.477l.002-.017zM50 65c0 6.667-4 12-4 12s-4-5.412-4-12c0-6.667 4-12 4-12s4 5.333 4 12z" class="color-300"/><path fill="#A6D2FF" d="M46 41a7 7 0 1 0 0-14 7 7 0 0 0 0 14z" class="color-200"/><path fill="#005CB9" fill-rule="nonzero" d="M46 43a9 9 0 1 1 0-18 9 9 0 0 1 0 18zm0-2a7 7 0 1 0 0-14 7 7 0 0 0 0 14zm5.634-2.845A6.99 6.99 0 0 1 46 41a6.99 6.99 0 0 1-5.635-2.846 3.785 3.785 0 0 1 2.524-2.05A3.483 3.483 0 0 1 42.5 34.5v-2c0-1.934 1.562-3.5 3.5-3.5 1.933 0 3.5 1.57 3.5 3.5v2c0 .579-.14 1.125-.388 1.605a3.792 3.792 0 0 1 2.522 2.05zM44.5 32.5v2c0 .826.672 1.5 1.5 1.5.834 0 1.5-.672 1.5-1.5v-2c0-.826-.672-1.5-1.5-1.5-.834 0-1.5.672-1.5 1.5z" class="color-500"/><path fill="#40A0FF" d="M42 39.746A1.777 1.777 0 0 1 43.775 38h4.45c.97 0 1.758.786 1.775 1.746A6.968 6.968 0 0 1 46 41a6.968 6.968 0 0 1-4-1.254z" class="color-300"/><path fill="#FFF" fill-rule="nonzero" d="M44.5 32.5v2c0 .826.672 1.5 1.5 1.5.834 0 1.5-.672 1.5-1.5v-2c0-.826-.672-1.5-1.5-1.5-.834 0-1.5.672-1.5 1.5z" class="color-100"/></g></g></svg>