<svg xmlns="http://www.w3.org/2000/svg" width="92" height="92" class="wd-applet wd-applet-safety" focusable="false" role="presentation" viewBox="0 0 92 92"><g fill="none" fill-rule="evenodd" class="wd-icon-container"><g fill="#0B77E3" fill-opacity=".2" class="animate-flood"><path d="M46 82c19.882 0 36-16.118 36-36S65.882 10 46 10 10 26.118 10 46s16.118 36 36 36z" class="color-400-alpha-20"/></g><g class="animate-shrink"><path fill="#005CB9" fill-rule="nonzero" d="M47.425 10.465a3 3 0 0 1 1.215 1.216l32.324 59.894A3 3 0 0 1 78.324 76H13.676a3 3 0 0 1-2.64-4.425L43.36 11.681a3 3 0 0 1 4.065-1.216zm-2.305 2.166L12.796 72.525a1 1 0 0 0 .88 1.475h64.648a1 1 0 0 0 .88-1.475L46.88 12.631a1 1 0 0 0-1.76 0z" class="color-500"/><path fill="#FFF" d="M46.88 12.63l32.324 59.895a1 1 0 0 1-.88 1.475H13.676a1 1 0 0 1-.88-1.475L45.12 12.631a1 1 0 0 1 1.76 0z" class="color-100"/><path fill="#1369BE" d="M45.98 35.64a2.66 2.66 0 0 0-2.656 2.815l.899 15.468A1.78 1.78 0 0 0 46 55.6c.943 0 1.721-.736 1.774-1.677l.868-15.467a2.666 2.666 0 0 0-2.662-2.816zm-2.9 25.72c0 1.6 1.28 2.92 2.88 2.92 1.64 0 2.96-1.32 2.96-2.92 0-1.6-1.32-2.96-2.96-2.96-1.6 0-2.88 1.36-2.88 2.96z" class="color-500"/></g></g></svg>