<svg xmlns="http://www.w3.org/2000/svg" width="92" height="92" class="wd-applet wd-applet-security" focusable="false" role="presentation" viewBox="0 0 92 92"><g fill="none" fill-rule="evenodd" class="wd-icon-container"><g fill="#0B77E3" fill-opacity=".2" class="animate-flood"><path d="M46 82c19.882 0 36-16.118 36-36S65.882 10 46 10 10 26.118 10 46s16.118 36 36 36z" class="color-400-alpha-20"/></g><g class="animate-shrink"><path fill="#005CB9" fill-rule="nonzero" d="M16 15a3 3 0 0 1 2.996-3h54.008A2.996 2.996 0 0 1 76 15v65a3 3 0 0 1-2.996 3H18.996A2.996 2.996 0 0 1 16 80V15z" class="color-500"/><path fill="#40A0FF" d="M18 15a1 1 0 0 1 .996-1h54.008c.55 0 .996.446.996 1v65a1 1 0 0 1-.996 1H18.996A.996.996 0 0 1 18 80V15zM21 20V76a2 2 0 0 0 2 2h44.996A3.006 3.006 0 0 0 71 74.999V20A2.999 2.999 0 0 0 67.996 17H24.004A3.006 3.006 0 0 0 21 20.001z" class="color-300"/><path fill="#FFF" d="M23 20.001c0-.553.455-1.001 1.004-1.001h43.992A.999.999 0 0 1 69 20.001V75c0 .553-.455 1.001-1.004 1.001H23V20.001z" class="color-100"/><path fill="#40A0FF" d="M41 27.999a1 1 0 0 1 .995-.999h17.01c.55 0 .995.443.995.999v1.002a1 1 0 0 1-.995.999h-17.01a.994.994 0 0 1-.995-.999v-1.002zm0 5A1 1 0 0 1 42 32h22c.552 0 1 .443 1 .999v1.002A1 1 0 0 1 64 35H42c-.552 0-1-.443-1-.999v-1.002zm0 11a1 1 0 0 1 .995-.999h17.01c.55 0 .995.443.995.999v1.002a1 1 0 0 1-.995.999h-17.01a.994.994 0 0 1-.995-.999v-1.002zm0 5A1 1 0 0 1 42 48h22c.552 0 1 .443 1 .999v1.002A1 1 0 0 1 64 51H42c-.552 0-1-.443-1-.999v-1.002zm0 11a1 1 0 0 1 .995-.999h17.01c.55 0 .995.443.995.999v1.002a1 1 0 0 1-.995.999h-17.01a.994.994 0 0 1-.995-.999v-1.002zm0 5A1 1 0 0 1 42 64h22c.552 0 1 .443 1 .999v1.002A1 1 0 0 1 64 67H42c-.552 0-1-.443-1-.999v-1.002z" class="color-300"/><path fill="#A6D2FF" d="M32 50a3 3 0 1 0 0-6 3 3 0 0 0 0 6zm0 16a3 3 0 1 0 0-6 3 3 0 0 0 0 6z" class="color-200"/><path fill="#005CB9" fill-rule="nonzero" d="M32 52a5 5 0 1 1 0-10 5 5 0 0 1 0 10zm0 16a5 5 0 1 1 0-10 5 5 0 0 1 0 10zm-.494-33.467a1.01 1.01 0 0 1-.23-.12l-2.457-1.72a.997.997 0 0 1-.245-1.393.997.997 0 0 1 1.392-.246l1.668 1.168 3.448-4.924a.996.996 0 0 1 1.391-.244c.452.317.563.94.247 1.39l-4.018 5.739a.996.996 0 0 1-1.196.35zM32 50a3 3 0 1 0 0-6 3 3 0 0 0 0 6zm0 16a3 3 0 1 0 0-6 3 3 0 0 0 0 6zM40 10h-6.5c-3.039 0-5.5 2.462-5.5 5.5V19a2 2 0 0 0 2 2h32a2 2 0 0 0 2-2v-3.5c0-3.035-2.464-5.5-5.5-5.5H52v-.004a6 6 0 0 0-12 0V10z" class="color-500"/><path fill="#A6D2FF" d="M46 6c2.21 0 4 1.797 4 3.996V12h8.5c1.933 0 3.5 1.57 3.5 3.5V19H30v-3.5c0-1.933 1.565-3.5 3.5-3.5H42V9.996A4 4 0 0 1 46 6zm0 2a2 2 0 1 0 0 4 2 2 0 0 0 0-4z" class="color-200"/></g><g class="animate-grow"><path fill="#A6D2FF" fill-rule="nonzero" d="M8 8.318C8 5.933 9.79 4 12 4s4 1.932 4 4.318v1.364C16 12.067 14.21 14 12 14s-4-1.932-4-4.318V8.318zm-2 .026v1.312C6 13.162 8.686 16 12 16s6-2.84 6-6.344V8.344C18 4.838 15.314 2 12 2S6 4.84 6 8.344z" class="color-200" transform="translate(56 44)"/><rect width="20" height="17" x="2" y="11" fill="#40A0FF" class="color-300" rx="1" transform="translate(56 44)"/><path fill="#FFF" d="M12.5 16c1.38 0 2.5 1.007 2.5 2.25 0 .98-.696 1.813-1.667 2.122v1.8a.828.828 0 0 1-.728.822L12.5 23a.83.83 0 0 1-.833-.829v-1.799C10.696 20.063 10 19.23 10 18.25c0-1.243 1.12-2.25 2.5-2.25z" class="color-100" transform="translate(56 44)"/><path fill="#005CB9" fill-rule="nonzero" d="M2 12v15a1 1 0 0 0 .992 1h18.016c.537 0 .992-.448.992-1V12a1 1 0 0 0-.992-1H2.992C2.455 11 2 11.448 2 12zm-2 0c0-1.653 1.347-3 2.992-3h18.016A3 3 0 0 1 24 12v15c0 1.653-1.347 3-2.992 3H2.992A3 3 0 0 1 0 27V12zM12 0c4.445 0 8 3.758 8 8.344v1.755H4V8.344C4 3.759 7.556 0 12 0zm0 2C8.65 2 6 4.861 6 8.318v1.364h12V8.318C18 4.86 15.35 2 12 2zm0 2c2.21 0 4 1.803 4 4.03V11H8V8.03C8 5.804 9.79 4 12 4zm0 2c-1.105 0-2 .773-2 1.727V9h4V7.727C14 6.773 13.105 6 12 6zm1.333 14.372C14.304 20.063 15 19.23 15 18.25c0-1.243-1.12-2.25-2.5-2.25S10 17.007 10 18.25c0 .98.696 1.813 1.667 2.122v1.8c0 .459.373.828.833.828a.829.829 0 0 0 .833-.829v-1.799zm2 1.8A2.829 2.829 0 0 1 12.5 25a2.83 2.83 0 0 1-2.833-2.829v-.617C8.647 20.774 8 19.584 8 18.25 8 15.853 10.059 14 12.5 14s4.5 1.853 4.5 4.25c0 1.333-.646 2.524-1.667 3.304v.617z" class="color-500" transform="translate(56 44)"/></g></g></svg>