<svg xmlns="http://www.w3.org/2000/svg" width="92" height="92" class="wd-applet wd-applet-skills" focusable="false" role="presentation" viewBox="0 0 92 92"><g fill="none" fill-rule="evenodd" class="wd-icon-container"><g fill="#0B77E3" fill-opacity=".2" class="animate-flood"><path d="M46 82c19.882 0 36-16.118 36-36S65.882 10 46 10 10 26.118 10 46s16.118 36 36 36z" class="color-400-alpha-20"/></g><g class="animate-grow"><path fill="#FFF" fill-rule="nonzero" d="M50.875 41a4.5 4.5 0 1 0-9 0v3a4.5 4.5 0 1 0 9 0v-3z" class="color-100"/><path fill="#A6D2FF" d="M35.462 53.067A12.94 12.94 0 0 1 33.374 46c0-7.18 5.819-13 13-13 7.18 0 13 5.819 13 13a12.94 12.94 0 0 1-2.087 7.067A4.994 4.994 0 0 0 52.383 49H40.367a4.992 4.992 0 0 0-4.906 4.067zM49.69 49h-6.632a5.998 5.998 0 0 1-2.683-5.002v-2.996a6.004 6.004 0 0 1 6-6.002c3.314 0 6 2.688 6 6.002v2.996A6 6 0 0 1 49.69 49z" class="color-200"/><path fill="#40A0FF" d="M37.375 55.381a12.957 12.957 0 0 0 9 3.619c3.494 0 6.665-1.377 9-3.619V54c0-1.659-1.34-3-2.992-3H40.367a2.993 2.993 0 0 0-2.992 3v1.381z" class="color-300"/><path fill="#005CB9" fill-rule="nonzero" d="M31.375 46c0-8.285 6.715-15 15-15s15 6.715 15 15-6.715 15-15 15-15-6.715-15-15zm6 9.381a12.956 12.956 0 0 0 9 3.619c3.493 0 6.664-1.377 9-3.619V54c0-1.659-1.34-3-2.992-3H40.367a2.993 2.993 0 0 0-2.992 3v1.381zm-1.913-2.314A4.992 4.992 0 0 1 40.367 49h12.016c2.439 0 4.47 1.75 4.905 4.067A12.941 12.941 0 0 0 59.375 46c0-7.181-5.82-13-13-13-7.181 0-13 5.82-13 13 0 2.606.767 5.033 2.087 7.067zM49.69 49h-6.632a5.998 5.998 0 0 1-2.683-5.002v-2.996a6.004 6.004 0 0 1 6-6.002c3.314 0 6 2.687 6 6.002v2.996A6 6 0 0 1 49.69 49zm-7.315-7.998v2.996c0 2.21 1.79 4.002 4 4.002 2.205 0 4-1.792 4-4.002v-2.996c0-2.21-1.79-4.002-4-4.002-2.205 0-4 1.792-4 4.002z" class="color-500"/></g><g class="animate-shrink"><path fill="#FFF" fill-rule="nonzero" d="M65.03 24.175a.973.973 0 0 0-.06-1.445 29.86 29.86 0 0 0-15.872-6.576.974.974 0 0 0-1.064.98v7.05c0 .516.393.944.904 1.015a20.893 20.893 0 0 1 9.75 4.04c.412.311.992.286 1.357-.079l4.985-4.985z" class="color-100"/><path fill="#A6D2FF" d="M62.873 31.989c-.364.364-.39.945-.079 1.356a20.894 20.894 0 0 1 4.04 9.75c.071.512.5.905 1.016.905h7.05a.974.974 0 0 0 .98-1.065 29.862 29.862 0 0 0-6.576-15.871.973.973 0 0 0-1.445-.06l-4.986 4.985z" class="color-200"/><path fill="#40A0FF" fill-rule="nonzero" d="M44.034 17.119a.974.974 0 0 0-1.066-.98c-15.12 1.544-26.917 14.316-26.917 29.844 0 16.569 13.431 30 30 30 15.527 0 28.3-11.797 29.843-26.917A.974.974 0 0 0 74.915 48h-7.05c-.516 0-.945.392-1.016.903-1.42 10.216-10.191 18.08-20.798 18.08-11.598 0-21-9.402-21-21 0-10.607 7.864-19.377 18.08-20.798.51-.071.903-.5.903-1.015v-7.051z" class="color-300"/><path fill="#005CB9" fill-rule="nonzero" d="M44.034 17.119v7.05c0 .516-.393.945-.903 1.016-10.216 1.42-18.08 10.191-18.08 20.798 0 11.598 9.402 21 21 21 10.607 0 19.377-7.864 20.798-18.08.071-.51.5-.903 1.015-.903h7.051c.579 0 1.038.489.98 1.064-.033.314-.07.625-.111.936-1.963 14.67-14.527 25.983-29.733 25.983-16.569 0-30-13.431-30-30 0-15.206 11.314-27.77 25.983-29.733.31-.042.622-.078.935-.11a.973.973 0 0 1 1.065.979zm-2 1.15c-13.56 1.947-23.983 13.614-23.983 27.714 0 15.464 12.536 28 28 28 14.1 0 25.767-10.423 27.714-23.983H68.7c-1.9 10.788-11.318 18.983-22.65 18.983-12.703 0-23-10.297-23-23 0-11.333 8.195-20.75 18.983-22.65V18.27zm25.825 8.734a.973.973 0 0 1 1.445.06 29.85 29.85 0 0 1 6.576 15.871.973.973 0 0 1-.98 1.066h-7.05c-.516 0-.945-.393-1.015-.904a20.894 20.894 0 0 0-4.04-9.751 1.036 1.036 0 0 1 .078-1.356zm.6 2.228l-3.58 3.58A22.886 22.886 0 0 1 68.687 42h5.063a27.846 27.846 0 0 0-5.29-12.77zM48.984 16.149l.114.005A29.85 29.85 0 0 1 64.97 22.73a.973.973 0 0 1 .06 1.446l-4.985 4.985c-.365.365-.945.39-1.357.08a20.893 20.893 0 0 0-9.75-4.041c-.511-.07-.904-.5-.904-1.015v-7.05a.973.973 0 0 1 1.064-.98zm1.05 2.134v5.064a22.887 22.887 0 0 1 9.188 3.807l3.58-3.58a27.846 27.846 0 0 0-12.768-5.291z" class="color-500"/></g></g></svg>