<svg xmlns="http://www.w3.org/2000/svg" width="92" height="92" class="wd-applet wd-applet-spend-management" focusable="false" role="presentation" viewBox="0 0 92 92"><g fill="none" fill-rule="evenodd" class="wd-icon-container"><g fill="#0B77E3" fill-opacity=".2" class="animate-flood"><path d="M46 82c19.882 0 36-16.118 36-36S65.882 10 46 10 10 26.118 10 46s16.118 36 36 36z" class="color-400-alpha-20"/></g><g class="animate-shrink"><path fill="#FFF" d="M21 15h50v62H21z" class="color-100"/><path fill="#40A0FF" d="M41 45h10v10H41V45zm0 15h10v10H41V60zm-15 0h10v10H26V60zm0-15h10v10H26V45z" class="color-300"/><path fill="#0B77E3" d="M56 45h10v25H56z" class="color-400"/><path fill="#A6D2FF" d="M27 24h38v14H27z" class="color-200"/><path fill="#000" d="M26 25c0-.552.45-1 1.009-1H64.99c.557 0 1.009.444 1.009 1v1H26v-1z" class="color-shadow" opacity=".1"/><path fill="#005CB9" fill-rule="nonzero" d="M69.991 14A3.007 3.007 0 0 1 73 17.003v57.994A3.005 3.005 0 0 1 69.991 78H22.01A3.007 3.007 0 0 1 19 74.997V17.003A3.005 3.005 0 0 1 22.009 14H69.99zm0 2H22.01c-.56 0-1.009.45-1.009 1.003v57.994c0 .553.452 1.003 1.009 1.003H69.99c.56 0 1.009-.45 1.009-1.003V17.003C71 16.45 70.548 16 69.991 16zM50 59a2 2 0 0 1 2 2v8a2 2 0 0 1-2 2h-8a2 2 0 0 1-2-2v-8a2 2 0 0 1 2-2h8zm-15 0a2 2 0 0 1 2 2v8a2 2 0 0 1-2 2h-8a2 2 0 0 1-2-2v-8a2 2 0 0 1 2-2h8zm30-15a2 2 0 0 1 2 2v23a2 2 0 0 1-2 2h-8a2 2 0 0 1-2-2V46a2 2 0 0 1 2-2h8zM50 61h-8v8h8v-8zm-15 0h-8v8h8v-8zm30-15h-8v23h8V46zm-15-2a2 2 0 0 1 2 2v8a2 2 0 0 1-2 2h-8a2 2 0 0 1-2-2v-8a2 2 0 0 1 2-2h8zm-15 0a2 2 0 0 1 2 2v8a2 2 0 0 1-2 2h-8a2 2 0 0 1-2-2v-8a2 2 0 0 1 2-2h8zm15 2h-8v8h8v-8zm-15 0h-8v8h8v-8zm30-24a2 2 0 0 1 2 2v14a2 2 0 0 1-2 2H27a2 2 0 0 1-2-2V24a2 2 0 0 1 2-2h38zm0 2H27v14h38V24z" class="color-500"/></g></g></svg>