<svg xmlns="http://www.w3.org/2000/svg" width="92" height="92" class="wd-applet wd-applet-spend-target" focusable="false" role="presentation" viewBox="0 0 92 92"><g fill="none" fill-rule="evenodd" class="wd-icon-container"><g fill="#0B77E3" fill-opacity=".2" class="animate-flood"><path d="M46 82c19.882 0 36-16.118 36-36S65.882 10 46 10 10 26.118 10 46s16.118 36 36 36z" class="color-400-alpha-20"/></g><g class="animate-shrink"><path fill="#FFF" d="M21 15h50v62H21z" class="color-100"/><path fill="#40A0FF" d="M42 46h8v8h-8zm0 15h8v8h-8v-8zm-15 0h8v8h-8v-8zm0-15h8v8h-8v-8z" class="color-300"/><path fill="#0B77E3" d="M57 46h8v23h-8z" class="color-400"/><path fill="#A6D2FF" d="M27 24h38v14H27z" class="color-200"/><path fill="#000" d="M26 25c0-.552.45-1 1.009-1H64.99c.557 0 1.009.444 1.009 1v1H26v-1z" class="color-shadow" opacity=".1"/><path fill="#005CB9" fill-rule="nonzero" d="M69.991 14A3.007 3.007 0 0 1 73 17.003v57.994A3.005 3.005 0 0 1 69.991 78H22.01A3.007 3.007 0 0 1 19 74.997V17.003A3.005 3.005 0 0 1 22.009 14H69.99zm0 2H22.01c-.56 0-1.009.45-1.009 1.003v57.994c0 .553.452 1.003 1.009 1.003H69.99c.56 0 1.009-.45 1.009-1.003V17.003C71 16.45 70.548 16 69.991 16zM50 59a2 2 0 0 1 2 2v8a2 2 0 0 1-2 2h-8a2 2 0 0 1-2-2v-8a2 2 0 0 1 2-2h8zm-15 0a2 2 0 0 1 2 2v8a2 2 0 0 1-2 2h-8a2 2 0 0 1-2-2v-8a2 2 0 0 1 2-2h8zm30-15a2 2 0 0 1 2 2v23a2 2 0 0 1-2 2h-8a2 2 0 0 1-2-2V46a2 2 0 0 1 2-2h8zM50 61h-8v8h8v-8zm-15 0h-8v8h8v-8zm30-15h-8v23h8V46zm-15-2a2 2 0 0 1 2 2v8a2 2 0 0 1-2 2h-8a2 2 0 0 1-2-2v-8a2 2 0 0 1 2-2h8zm-15 0a2 2 0 0 1 2 2v8a2 2 0 0 1-2 2h-8a2 2 0 0 1-2-2v-8a2 2 0 0 1 2-2h8zm15 2h-8v8h8v-8zm-15 0h-8v8h8v-8zm30-24a2 2 0 0 1 2 2v14a2 2 0 0 1-2 2H27a2 2 0 0 1-2-2V24a2 2 0 0 1 2-2h38zm0 2H27v14h38V24z" class="color-500"/></g><g class="animate-grow"><path fill="#005CB9" fill-rule="nonzero" d="M46 66c0 9.39 7.611 17 17 17 9.39 0 17-7.611 17-17 0-9.39-7.611-17-17-17-9.39 0-17 7.611-17 17zm-2 0c0-10.494 8.505-19 19-19 10.494 0 19 8.505 19 19 0 10.494-8.505 19-19 19-10.494 0-19-8.505-19-19z" class="color-500"/><path fill="#FFF" d="M46 66c0 9.39 7.611 17 17 17 9.39 0 17-7.611 17-17 0-9.39-7.611-17-17-17-9.39 0-17 7.611-17 17z" class="color-100"/><path fill="#40A0FF" fill-rule="nonzero" d="M54 66a9 9 0 0 0 9 9 9 9 0 0 0 9-9 9 9 0 0 0-9-9 9 9 0 0 0-9 9zm-4 0c0-7.18 5.82-13 13-13s13 5.82 13 13-5.82 13-13 13-13-5.82-13-13z" class="color-300"/><path fill="#FFF" d="M54 66a9 9 0 0 0 9 9 9 9 0 0 0 9-9 9 9 0 0 0-9-9 9 9 0 0 0-9 9z" class="color-100"/><path fill="#0B77E3" d="M59 66c0-2.21 1.795-4 4-4 2.21 0 4 1.795 4 4 0 2.21-1.795 4-4 4-2.21 0-4-1.795-4-4z" class="color-400"/><path fill="#40A0FF" d="M77.06 46.364c.466-.457.795-.307.735.34l-.312 3.364-6.102 6.113.504-3.42c.075-.805.607-1.92 1.187-2.488M82.66 51.774c.512-.502.34-.842-.363-.762l-3.823.434L72 57.791l3.524-.4c.878-.1 2.098-.679 2.717-1.286" class="color-300"/><path fill="#000" fill-rule="nonzero" d="M64.414 66L63 67.414l-12-12L52.414 54l12 12zM63 67.414L64.414 66l-12-12L51 55.414l12 12z" class="color-shadow" opacity=".1"/><path fill="#005CB9" fill-rule="nonzero" d="M77.5 50l1.414 1.414-15.5 15.5L62 65.5 77.5 50zm1.414 1.414l-15.5 15.5L62 65.5 77.5 50l1.414 1.414z" class="color-500"/></g></g></svg>