<svg xmlns="http://www.w3.org/2000/svg" width="92" height="92" class="wd-applet wd-applet-square" focusable="false" role="presentation" viewBox="0 0 92 92"><g fill="none" fill-rule="evenodd" class="wd-icon-container"><g fill="#0B77E3" fill-opacity=".2" class="animate-flood"><circle cx="36" cy="36" r="36" class="color-400-alpha-20" transform="translate(10 10)"/></g><g class="animate-shrink"><rect width="38" height="38" fill="#FFF" class="color-100" rx="1" transform="translate(27 27)"/><path fill="#005CB9" fill-rule="nonzero" d="M1 0a1 1 0 0 0-1 1v36a1 1 0 0 0 1 1h36a1 1 0 0 0 1-1V1a1 1 0 0 0-1-1H1zm0-2h36a3 3 0 0 1 3 3v36a3 3 0 0 1-3 3H1a3 3 0 0 1-3-3V1a3 3 0 0 1 3-3z" class="color-500" transform="translate(27 27)"/></g></g></svg>