<svg xmlns="http://www.w3.org/2000/svg" width="92" height="92" class="wd-applet wd-applet-star" focusable="false" role="presentation" viewBox="0 0 92 92"><g fill="none" fill-rule="evenodd" class="wd-icon-container"><g fill="#0B77E3" fill-opacity=".2" class="animate-flood"><path d="M46 82c19.882 0 36-16.118 36-36S65.882 10 46 10 10 26.118 10 46s16.118 36 36 36z" class="color-400-alpha-20"/></g><g class="animate-shrink"><path fill="#FFF" d="M46 62.345l-13.035 7.182c-2.002 1.104-3.326.169-2.958-2.078L32.52 52.08 21.935 41.264c-1.597-1.631-1.055-3.233 1.196-3.576l14.539-2.215 6.563-13.939c.976-2.072 2.558-2.071 3.533 0l6.563 13.94 14.54 2.214c2.257.344 2.795 1.943 1.195 3.576L59.478 52.081l2.514 15.368c.369 2.251-.96 3.179-2.958 2.078L46 62.345z" class="color-100"/><path fill="#005CB9" fill-rule="nonzero" d="M46 62.345l13.034 7.182c1.998 1.101 3.327.173 2.958-2.078L59.478 52.08l10.586-10.817c1.6-1.633 1.062-3.232-1.196-3.576L54.33 35.473l-6.563-13.939c-.975-2.071-2.557-2.072-3.533 0l-6.563 13.94-14.54 2.214c-2.25.343-2.792 1.945-1.195 3.576L32.52 52.081l-2.514 15.368c-.368 2.247.956 3.182 2.958 2.078l13.034-7.182zm-12.07 8.934c-3.46 1.907-6.535-.256-5.897-4.153l2.351-14.37-9.879-10.093c-2.736-2.795-1.538-6.364 2.325-6.952l13.484-2.054 6.11-12.975c1.696-3.602 5.455-3.602 7.152 0l6.109 12.975 13.484 2.054c3.87.589 5.064 4.154 2.325 6.952l-9.88 10.094 2.352 14.369c.638 3.9-2.44 6.058-5.897 4.153l-12.07-6.65-12.069 6.65zm20.2-33.15a1.003 1.003 0 0 1 1.126-.851l5.947.836a.996.996 0 0 1 .849 1.129 1.003 1.003 0 0 1-1.127.851l-5.947-.836a.996.996 0 0 1-.849-1.129zm8.875 1.306a.997.997 0 0 1 1.098-.89l.996.104a.997.997 0 0 1 .89 1.1.997.997 0 0 1-1.099.89l-.997-.106a.997.997 0 0 1-.888-1.098z" class="color-500"/></g></g></svg>