<svg xmlns="http://www.w3.org/2000/svg" width="92" height="92" fill="none" class="wd-applet-strategic-sourcing wd-applet" focusable="false" role="presentation" viewBox="0 0 92 92"><g class="wd-icon-container"><g class="animate-flood"><path fill="#0B77E3" fill-opacity=".2" fill-rule="evenodd" d="M46 82c19.882 0 36-16.118 36-36S65.882 10 46 10 10 26.118 10 46s16.118 36 36 36z" class="color-400-alpha-20" clip-rule="evenodd"/></g><g class="animate-float-left"><path fill="#fff" d="M41.238 76.44l-5.605 2.266a1 1 0 0 1-1.187-.343l-1.793-2.493a11 11 0 0 0-5.417-3.999l-6.452-2.174a9 9 0 0 1-2.785-1.53l-4.142-3.349-4.65-6.789a.404.404 0 0 1 .073-.537 3.637 3.637 0 0 1 5.263.614l2.328 3.137c.149.2.327.377.53.523l2.572 1.857a4.001 4.001 0 0 0 2.006.743l4.93.415c.118.01.172-.143.074-.21l-5.227-3.522a2.23 2.23 0 0 1-.156-3.582.743.743 0 0 1 .767-.102l14.467 6.397a6 6 0 0 1 3.243 3.524l2.301 6.645a2 2 0 0 1-1.14 2.509z" class="color-100"/><path fill="#005CB9" fill-rule="evenodd" d="M8.636 56.727a4.637 4.637 0 0 1 6.71.783l2.328 3.137c.087.118.193.222.312.308l2.573 1.857a3 3 0 0 0 1.504.557l1.539.13-2.405-1.62a3.23 3.23 0 0 1-.226-5.19 1.743 1.743 0 0 1 1.8-.238l14.467 6.396a7 7 0 0 1 3.784 4.112l2.3 6.645a3 3 0 0 1-1.71 3.763l-5.605 2.266a2 2 0 0 1-2.372-.686l-1.794-2.493a10 10 0 0 0-4.924-3.635l-6.452-2.174a10 10 0 0 1-3.095-1.7l-4.255-3.441-4.733-6.91a1.404 1.404 0 0 1 .254-1.867zm5.104 1.975a2.638 2.638 0 0 0-3.373-.748l4.233 6.178 4.027 3.257a8 8 0 0 0 2.476 1.36l6.452 2.174a12 12 0 0 1 5.91 4.363l1.793 2.493 5.605-2.266a1 1 0 0 0 .57-1.255l-2.301-6.645a5 5 0 0 0-2.703-2.936l-14.313-6.33a1.23 1.23 0 0 0 .198 1.873l5.228 3.522c.953.643.429 2.132-.716 2.036l-4.931-.416a5 5 0 0 1-2.507-.928l-2.572-1.857a3.436 3.436 0 0 1-.748-.738l-2.328-3.137z" class="color-500" clip-rule="evenodd"/></g><g class="animate-float-right"><path fill="#fff" d="M50.762 76.44l5.605 2.266a1 1 0 0 0 1.187-.343l1.793-2.493a11 11 0 0 1 5.417-3.999l6.452-2.174a9 9 0 0 0 2.785-1.53l4.142-3.349 4.65-6.789a.404.404 0 0 0-.073-.537 3.637 3.637 0 0 0-5.263.614l-2.328 3.137c-.148.2-.327.377-.53.523l-2.572 1.857a4.001 4.001 0 0 1-2.006.743l-4.93.415c-.118.01-.172-.143-.074-.21l5.228-3.522a2.23 2.23 0 0 0 .155-3.582.743.743 0 0 0-.767-.102l-14.467 6.397a6 6 0 0 0-3.243 3.524l-2.301 6.645a2 2 0 0 0 1.14 2.509z" class="color-100"/><path fill="#005CB9" fill-rule="evenodd" d="M83.364 56.727a4.637 4.637 0 0 0-6.71.783l-2.328 3.137a1.44 1.44 0 0 1-.312.308l-2.573 1.857a3 3 0 0 1-1.504.557l-1.539.13 2.405-1.62a3.23 3.23 0 0 0 .226-5.19 1.743 1.743 0 0 0-1.8-.238l-14.467 6.396a7 7 0 0 0-3.784 4.112l-2.3 6.645a3 3 0 0 0 1.71 3.763l5.605 2.266a2 2 0 0 0 2.372-.686l1.794-2.493a10 10 0 0 1 4.924-3.635l6.452-2.174a10 10 0 0 0 3.095-1.7l4.255-3.441 4.733-6.91a1.404 1.404 0 0 0-.254-1.867zm-5.104 1.975a2.638 2.638 0 0 1 3.373-.748L77.4 64.132l-4.027 3.257a8 8 0 0 1-2.476 1.36l-6.452 2.174a12 12 0 0 0-5.91 4.363l-1.793 2.493-5.605-2.266a1 1 0 0 1-.57-1.255l2.301-6.645a5 5 0 0 1 2.703-2.936l14.313-6.33a1.23 1.23 0 0 1-.198 1.873l-5.228 3.522c-.953.642-.429 2.132.716 2.036l4.931-.416a5 5 0 0 0 2.507-.928l2.572-1.857c.286-.206.538-.455.749-.738l2.327-3.137z" class="color-500" clip-rule="evenodd"/></g><g class="animate-grow"><path fill="#40A0FF" fill-rule="evenodd" d="M37.74 53.824C39.991 55.206 42.996 56 46 56c6 0 12-3.169 12-7.857V45l-12 5.85L34 45v3.143c0 2.34 1.496 4.303 3.74 5.68z" class="color-300" clip-rule="evenodd"/><path fill="#A6D2FF" fill-rule="evenodd" d="M46 52c6.627 0 12-3.806 12-8.5S52.627 35 46 35s-12 3.806-12 8.5S39.373 52 46 52z" class="color-200" clip-rule="evenodd"/><path fill="#fff" fill-rule="evenodd" d="M46 48c4.418 0 8-2.015 8-4.5S50.418 39 46 39s-8 2.015-8 4.5 3.582 4.5 8 4.5z" class="color-100" clip-rule="evenodd"/><path fill="#005CB9" fill-rule="evenodd" d="M49 54.748V52.75c-.65.11-1.319.185-2 .223v1.999a18.08 18.08 0 0 0 2-.224zm2-.462c.707-.211 1.379-.465 2-.76V51.53c-.633.292-1.302.544-2 .753v2.002zm-6 .686v-2a17.77 17.77 0 0 1-2-.222v1.998c.655.11 1.325.186 2 .224zm-6-1.445c.621.294 1.293.548 2 .758v-2.002a15.234 15.234 0 0 1-2-.753v1.997zm-2-1.233v-1.9a10.731 10.731 0 0 1-2-1.776v.018c0 1.413.761 2.655 2 3.658zm18 0c1.239-1.003 2-2.245 2-3.658v-.018c-.567.654-1.24 1.25-2 1.776v1.9zM33.003 43.7A7.314 7.314 0 0 1 33 43.5c0-5.445 5.947-9.5 13-9.5s13 4.055 13 9.5c0 .066 0 .133-.003.199L59 43.7v4.936C59 53.665 52.837 57 46 57c-3.071 0-6.154-.718-8.525-2.005C34.714 53.498 33 51.287 33 48.636V43.7l.003-.001zM46 51c6.075 0 11-3.358 11-7.5 0-4.142-4.925-7.5-11-7.5s-11 3.358-11 7.5c0 4.142 4.925 7.5 11 7.5zm0-1.583c-4.825 0-9-2.436-9-6.084 0-3.648 4.175-6.083 9-6.083s9 2.435 9 6.083-4.175 6.084-9 6.084zm0-2c3.866 0 7-1.828 7-4.084 0-2.255-3.134-4.083-7-4.083s-7 1.828-7 4.083c0 2.256 3.134 4.084 7 4.084z" class="color-500" clip-rule="evenodd"/></g><g class="animate-grow"><path fill="#fff" d="M24 19.5a2.5 2.5 0 0 1 2.5-2.5h2.463a2.5 2.5 0 0 1 2.035 1.047l1.335 1.87 1.247 1.87c.274.41.42.893.42 1.387v2.16c0 .92-.746 1.666-1.667 1.666H24v-7.5z" class="color-100"/><path fill="#40A0FF" d="M10 15.625A2.625 2.625 0 0 1 12.625 13h8.75A2.625 2.625 0 0 1 24 15.625V27H12.625A2.625 2.625 0 0 1 10 24.375v-8.75z" class="color-300"/><g fill="#A6D2FF" class="color-200"><path d="M16 31a3 3 0 1 0 0-6 3 3 0 0 0 0 6zM29 31a3 3 0 1 0 0-6 3 3 0 0 0 0 6z"/></g><path fill="#005CB9" fill-rule="evenodd" d="M20 28h5a4 4 0 0 0 8 0 2 2 0 0 0 2-2v-2.592a3 3 0 0 0-.504-1.664L33 19.5l-1.603-2.244A3 3 0 0 0 28.957 16H26c-.35 0-.687.06-1 .17V15a3 3 0 0 0-3-3H12a3 3 0 0 0-3 3v10a3 3 0 0 0 3 3 4 4 0 0 0 8 0zm2-14H12a1 1 0 0 0-1 1v10a1 1 0 0 0 1 1h.535A3.998 3.998 0 0 1 16 24c1.48 0 2.773.804 3.465 2H23V15a1 1 0 0 0-1-1zm10.465 12H33v-2.592a1 1 0 0 0-.168-.554l-1.478-2.218-1.584-2.217a1 1 0 0 0-.814-.419H26a1 1 0 0 0-1 1v7h.535A3.998 3.998 0 0 1 29 24c1.48 0 2.773.804 3.465 2zM18 28a2 2 0 1 1-4 0 2 2 0 0 1 4 0zm13 0a2 2 0 1 1-4 0 2 2 0 0 1 4 0z" class="color-500" clip-rule="evenodd"/></g><g class="animate-grow"><path fill="#fff" d="M69 13c2.21 0 4 1.894 4 4.23v2.54c0 2.336-1.79 4.23-4 4.23s-4-1.894-4-4.23v-2.54c0-2.336 1.79-4.23 4-4.23z" class="color-100"/><path fill="#40A0FF" d="M60 30.25c0-2.9 2.82-5.25 6.3-5.25h5.4c3.48 0 6.3 2.35 6.3 5.25 0 .414-.403.75-.9.75H60.9c-.497 0-.9-.336-.9-.75z" class="color-300"/><path fill="#005CB9" fill-rule="evenodd" d="M69 12a5 5 0 0 1 5 5v3a4.992 4.992 0 0 1-2 4 7 7 0 0 1 7 7 1 1 0 0 1-1 1H60a1 1 0 0 1-1-1 7 7 0 0 1 7-7 4.992 4.992 0 0 1-2-4v-3a5 5 0 0 1 5-5zm3 5v3a3 3 0 1 1-6 0v-3a3 3 0 1 1 6 0zM61.1 30a5.002 5.002 0 0 1 4.9-4h6a5.002 5.002 0 0 1 4.9 4H61.1z" class="color-500" clip-rule="evenodd"/></g></g></svg>