<svg xmlns="http://www.w3.org/2000/svg" width="92" height="92" class="wd-applet wd-applet-student-finances" focusable="false" role="presentation" viewBox="0 0 92 92"><g fill="none" fill-rule="evenodd" class="wd-icon-container"><g fill="#0B77E3" fill-opacity=".2" class="animate-flood"><path d="M46 82c19.882 0 36-16.118 36-36S65.882 10 46 10 10 26.118 10 46s16.118 36 36 36z" class="color-400-alpha-20"/></g><g class="animate-shrink"><path fill="#40A0FF" d="M18 73h-2.995A.998.998 0 0 0 14 74v3a1 1 0 0 0 1.005 1h61.99A.998.998 0 0 0 78 77v-3a1 1 0 0 0-1.005-1H74v-4.01c0-.539-.446-.99-.996-.99H18.996a.996.996 0 0 0-.996.99V73zm-3.857-48.448H14v3.439c0 .566.45 1.009 1.005 1.009h61.99c.562 0 1.005-.452 1.005-1.01v-3.438h-.143L78 24.54 46.89 8.215c-.485-.255-1.287-.258-1.779 0L14 24.54l.143.012z" class="color-300"/><path fill="#FFF" d="M46 23a4 4 0 1 0 0-8 4 4 0 0 0 0 8zM29 62V35h1.002c.552 0 .998-.452.998-1.01V31h-9v2.99c0 .567.447 1.01.998 1.01H24v27h-1.002A.998.998 0 0 0 22 63.01V66h9v-2.99c0-.558-.446-1.01-.998-1.01H29zm8 0h-1.002A.998.998 0 0 0 35 63.01V66h9v-2.99c0-.558-.446-1.01-.998-1.01H42V35h1.002c.552 0 .998-.452.998-1.01V31h-9v2.99c0 .567.447 1.01.998 1.01H37v27zm13 0h-1.002A.998.998 0 0 0 48 63.01V66h9v-2.99c0-.558-.446-1.01-.998-1.01H55V35h1.002c.552 0 .998-.452.998-1.01V31h-9v2.99c0 .567.447 1.01.998 1.01H50v27zm13 0h-1.002A.998.998 0 0 0 61 63.01V66h9v-2.99c0-.558-.446-1.01-.998-1.01H68V35h1.002c.552 0 .998-.452.998-1.01V31h-9v2.99c0 .567.447 1.01.998 1.01H63v27z" class="color-100"/><path fill="#005CB9" d="M47.817 6.443a18245.906 18245.906 0 0 1 4.862 2.545c3.646 1.91 7.292 3.82 10.695 5.605 4.416 2.315 8.063 4.23 10.733 5.634a1653.386 1653.386 0 0 1 4.502 2.377l.273.148c.134.076.134.076.203.119.052.032.052.032.201.148.124.093.124.093.587.83l.078.703L80 27.99C80 29.65 78.663 31 76.995 31H72v2.99a3.01 3.01 0 0 1-2 2.84v23.34a3.01 3.01 0 0 1 2 2.84V66h1.004A2.998 2.998 0 0 1 76 68.99V71h.995A3 3 0 0 1 80 74v3c0 1.66-1.341 3-3.005 3h-61.99A3 3 0 0 1 12 77v-3c0-1.66 1.341-3 3.005-3H16v-2.01A2.996 2.996 0 0 1 18.996 66H20v-2.99c0-1.315.832-2.43 2-2.84V36.83a3.004 3.004 0 0 1-2-2.84V31h-4.995A3.002 3.002 0 0 1 12 27.99v-3.45a2 2 0 0 1 1.07-1.771L44.183 6.444c1.072-.563 2.57-.56 3.635-.001zM76.995 73h-61.99A.998.998 0 0 0 14 74v3a1 1 0 0 0 1.005 1h61.99A.998.998 0 0 0 78 77v-3a1 1 0 0 0-1.005-1zm-3.99-5h-54.01a.996.996 0 0 0-.995.99V71h56v-2.01c0-.539-.446-.99-.996-.99zm-43.003-6h-7.004A.998.998 0 0 0 22 63.01V66h9v-2.99c0-.558-.446-1.01-.998-1.01zm13 0h-7.004A.998.998 0 0 0 35 63.01V66h9v-2.99c0-.558-.446-1.01-.998-1.01zm13 0h-7.004A.998.998 0 0 0 48 63.01V66h9v-2.99c0-.558-.446-1.01-.998-1.01zm13 0h-7.004A.998.998 0 0 0 61 63.01V66h9v-2.99c0-.558-.446-1.01-.998-1.01zM59 33.99a3.01 3.01 0 0 1-2 2.84v23.34a3.01 3.01 0 0 1 2 2.84c0-1.315.832-2.43 2-2.84V36.83a3.002 3.002 0 0 1-1.994-2.644L59 33.991zm-13 0a3.01 3.01 0 0 1-2 2.84v23.34a3.01 3.01 0 0 1 2 2.84c0-1.315.832-2.43 2-2.84V36.83a3.002 3.002 0 0 1-1.994-2.644L46 33.991zm-13 0a3.01 3.01 0 0 1-2 2.84v23.34a3.01 3.01 0 0 1 2 2.84c0-1.315.832-2.43 2-2.84V36.83a3.002 3.002 0 0 1-1.994-2.644L33 33.991zM29 37h-5v23h5V37zm13 0h-5v23h5V37zm13 0h-5v23h5V37zm13 0h-5v23h5V37zm-37-6h-9v2.99c0 .567.447 1.01.998 1.01h7.004c.552 0 .998-.452.998-1.01V31zm13 0h-9v2.99c0 .567.447 1.01.998 1.01h7.004c.552 0 .998-.452.998-1.01V31zm13 0h-9v2.99c0 .567.447 1.01.998 1.01h7.004c.552 0 .998-.452.998-1.01V31zm13 0h-9v2.99c0 .567.447 1.01.998 1.01h7.004c.552 0 .998-.452.998-1.01V31zM45.111 8.215L15.03 23.999 37.005 24c.51 0 .93.383.988.883L38 25c0 .552-.455 1-.995 1H14v1.99c0 .567.45 1.01 1.005 1.01h61.99c.562 0 1.005-.452 1.005-1.01L77.999 26H54.995A.995.995 0 0 1 54 25c0-.552.455-1 .995-1h21.98a4896.54 4896.54 0 0 0-13.565-7.13l-.934-.49C54.688 12.297 46.89 8.215 46.89 8.215c-.485-.255-1.287-.258-1.779 0zM46 25a6 6 0 1 1 0-12 6 6 0 0 1 0 12zm0-2a4 4 0 1 0 0-8 4 4 0 0 0 0 8z" class="color-500"/><path fill="#000" d="M80 74.011V77a3 3 0 0 1-3 3H38a3 3 0 0 1-3-3V58a3 3 0 0 1 3-3h32c-.002 3.46-.002 5.19 0 5.19 1.155.264 2.061 1.758 2 2.813V66h1c1.54 0 3 1.193 3 3.02.007 0 .007.66 0 1.98h1.006C78.754 71 80 72.48 80 74.011z" class="color-shadow" opacity=".1"/></g><g class="animate-grow"><path fill="#A6D2FF" d="M39 60.046v19.908c0 .586.466 1.046 1.042 1.046h40.916c.574 0 1.042-.468 1.042-1.046V60.046C82 59.46 81.534 59 80.958 59H40.042c-.574 0-1.042.468-1.042 1.046z" class="color-200"/><path fill="#FFF" fill-rule="nonzero" d="M54 69.965v.07C54 73.337 56.686 76 60 76c3.307 0 6-2.67 6-5.965v-.07C66 66.663 63.314 64 60 64c-3.307 0-6 2.67-6 5.965zm23-10.302v.074C77 62.043 79.189 64 82 64v-4.193c0-.399-.455-.807-1.126-.807H77.06c-.04.218-.06.439-.06.663zM40.126 59c-.671 0-1.126.408-1.126.807V64c2.811 0 5-1.957 5-4.263v-.074c0-.224-.02-.445-.06-.663h-3.814zm41.21 17h-.073C78.957 76 77 78.189 77 81h4.193c.399 0 .807-.455.807-1.126V76.06a3.649 3.649 0 0 0-.663-.06zM39 79.874c0 .671.408 1.126.807 1.126H44c0-2.811-1.957-5-4.263-5h-.074c-.224 0-.445.02-.663.06v3.814z" class="color-100"/><path fill="#005CB9" fill-rule="nonzero" d="M80.874 57C82.604 57 84 58.39 84 60.119V79.88A3.124 3.124 0 0 1 80.874 83H40.126A3.117 3.117 0 0 1 37 79.881V60.12A3.124 3.124 0 0 1 40.126 57h40.748zm.084 2H40.042c-.574 0-1.042.468-1.042 1.046v19.908c0 .586.466 1.046 1.042 1.046h40.916c.574 0 1.042-.468 1.042-1.046V60.046C82 59.46 81.534 59 80.958 59zm-.084-2C82.604 57 84 58.251 84 59.807v5.933c-.634.17-1.305.26-2 .26-3.866 0-7-2.796-7-6.263v-.074c0-.952.238-1.855.664-2.663h5.21zM77 59.663v.074C77 62.043 79.189 64 82 64v-4.193c0-.399-.455-.807-1.126-.807H77.06c-.04.218-.06.439-.06.663zm-31 0v.074C46 63.204 42.866 66 39 66c-.695 0-1.366-.09-2-.26v-5.933C37 58.25 38.397 57 40.126 57h5.21A5.69 5.69 0 0 1 46 59.663zM40.126 59c-.671 0-1.126.408-1.126.807V64c2.811 0 5-1.957 5-4.263v-.074c0-.224-.02-.445-.06-.663h-3.814zM84 74.664v5.21C84 81.604 82.749 83 81.193 83H75.26a7.751 7.751 0 0 1-.26-2c0-3.866 2.796-7 6.263-7h.074a5.69 5.69 0 0 1 2.663.664zM81.337 76h-.074C78.957 76 77 78.189 77 81h4.193c.399 0 .807-.455.807-1.126V76.06a3.649 3.649 0 0 0-.663-.06zm-41.674-2h.074C43.204 74 46 77.134 46 81c0 .695-.09 1.366-.26 2h-5.933C38.25 83 37 81.603 37 79.874v-5.21A5.69 5.69 0 0 1 39.663 74zM39 79.874c0 .671.408 1.126.807 1.126H44c0-2.811-1.957-5-4.263-5h-.074c-.224 0-.445.02-.663.06v3.814zm13-9.91C52 65.566 55.59 62 60 62c4.418 0 8 3.558 8 7.965v.07c0 4.4-3.59 7.965-8 7.965-4.418 0-8-3.558-8-7.965v-.07zm2 0v.071C54 73.337 56.686 76 60 76c3.307 0 6-2.67 6-5.965v-.07C66 66.663 63.314 64 60 64c-3.307 0-6 2.67-6 5.965z" class="color-500"/></g></g></svg>