<svg xmlns="http://www.w3.org/2000/svg" width="92" height="92" class="wd-applet wd-applet-student-academics" focusable="false" role="presentation" viewBox="0 0 92 92"><g fill="none" fill-rule="evenodd" class="wd-icon-container"><g fill="#0B77E3" fill-opacity=".2" class="animate-flood"><path d="M46 82c19.882 0 36-16.118 36-36S65.882 10 46 10 10 26.118 10 46s16.118 36 36 36z" class="color-400-alpha-20"/></g><g class="animate-shrink"><path fill="#A6D2FF" d="M46 45H17.508A13.67 13.67 0 0 0 17 48.7v7.025c0 3.767 17.605 2.09 29 5.275V45zm32.925-2h-65.85C11.934 43 11 41.54 11 39.755v-1.51C11 36.46 11.934 35 13.075 35h65.85C80.066 35 81 36.46 81 38.245v1.51C81 41.54 80.066 43 78.925 43z" class="color-200"/><path fill="#40A0FF" d="M74.492 45A13.67 13.67 0 0 1 75 48.7v7.025c0 3.265-17.384 2.09-29 5.275V45h28.492zm4.123-10.466A8368.675 8368.675 0 0 0 70.17 30H21.747l-8.168 4.403c-1.124.605-.322.597 0 .597h64.94c.3 0 .862-.053.096-.466z" class="color-300"/><path fill="#005CB9" d="M70.171 28a2 2 0 0 1 .946.238l.022.011.041.023.338.18 1.057.568a12874.982 12874.982 0 0 1 6.988 3.754c.287.154.522.308.73.503C81.975 34 83 36.04 83 38.245v1.51C82.999 42.509 81.405 45 78.925 45h-2.366c.291 1.2.441 2.44.441 3.7v7.025c0 2.154-1.657 3.097-4.523 3.719-1.717.373-3.817.621-7.603.954.057-.005-3.47.3-4.514.395-1.784.163-3.29.316-4.725.488-3.6.43-6.576.954-9.106 1.648a2 2 0 0 1-1.068-.003c-2.566-.717-5.627-1.225-9.426-1.62a163.3 163.3 0 0 0-4.043-.362c-.596-.047-1.206-.093-1.984-.15l-1.931-.143c-4.223-.315-6.386-.542-8.245-.934-3.038-.64-4.832-1.703-4.832-3.992v-7.026c0-1.258.15-2.498.44-3.699h-2.365c-1.305 0-2.364-.689-3.075-1.742v5.837a4.886 4.886 0 0 1 3.244 7.276c.199.618.393 1.29.581 2.008.332 1.266.632 2.613.896 3.959a72.564 72.564 0 0 1 .287 1.553l.032.187.01.066a2 2 0 0 1 .027.322c0 4.712-12.077 4.712-12.077 0 0-.778.929-5.207 1.837-8.089A4.886 4.886 0 0 1 8 49.11V37.126C8 33.75 10.687 31 14.003 31h1.682l5.113-2.76a2 2 0 0 1 .95-.24H70.17zm4.321 17H17.508A13.67 13.67 0 0 0 17 48.7v7.025c0 2.626 8.552 2.606 17.593 3.432l.787.074c3.678.356 7.397.868 10.62 1.769 3.556-.975 7.652-1.542 11.625-1.952l.793-.08C67.115 58.108 75 57.924 75 55.725v-7.026c0-1.28-.177-2.521-.508-3.699zm-4.32-15H21.746l-8.168 4.403c-1.084.583-.377.597-.036.597h-.468C11.934 35 11 36.46 11 38.245v1.51C11 41.54 11.934 43 13.075 43h65.85c1.14 0 2.074-1.46 2.075-3.245v-1.51C81 36.46 80.066 35 78.925 35h-65.36H78.52c.3 0 .862-.053.096-.466a3220.56 3220.56 0 0 0-3.304-1.775l-.481-.259L70.17 30zm-53.988 3h29.691c.519 0 .94-.448.94-1s-.421-1-.94-1H19.892l-3.708 2z" class="color-500"/><path fill="#FFF" d="M7.078 56a2.885 2.885 0 1 1 3.921 0c1.237 3.302 2.078 8.466 2.078 8.466 0 2.045-8.077 2.045-8.077 0 0 0 .84-5.164 2.078-8.465zM45.5 34a2.5 2.5 0 1 0 0-5 2.5 2.5 0 0 0 0 5z" class="color-100"/></g></g></svg>