<svg xmlns="http://www.w3.org/2000/svg" width="92" height="92" class="wd-applet wd-applet-suggestions" focusable="false" role="presentation" viewBox="0 0 92 92"><g fill="none" fill-rule="evenodd" class="wd-icon-container"><g fill="#0B77E3" fill-opacity=".2" class="animate-flood"><circle cx="36" cy="36" r="36" class="color-400-alpha-20" transform="translate(10 10)"/></g><path fill="#FFF" d="M17 43h58v9.005a1 1 0 0 1-1.007.995H18.007A1.008 1.008 0 0 1 17 52.005V43zm4 11h50v22H21z" class="color-100"/><path fill="#A6D2FF" d="M27.393 30.794c.337-.439 1.065-.794 1.61-.794h34c.552 0 1.268.348 1.61.794L74.004 43h-56l9.39-12.206zM38 63a1 1 0 0 0-1 1v1a1 1 0 0 0 1 1h16a1 1 0 0 0 1-1v-1a1 1 0 0 0-1-1H38z" class="color-200"/><path fill="#005CB9" fill-rule="nonzero" d="M73.003 41a2 2 0 0 1 2 2v8.003A3 3 0 0 1 72.007 54h-.004v20.003A3 3 0 0 1 69.007 77H23a3 3 0 0 1-2.996-2.997V54c-1.659 0-3-1.349-3-2.997V43a2 2 0 0 1 2-2v10.003a1 1 0 0 0 .996.997h52.008a1 1 0 0 0 .996-.997V41zm-3 13h-48v20.003c0 .5.498.997.996.997h46.008c.497 0 .996-.502.996-.997V54zm-7-25c1.262 0 2.593.763 3.234 1.852l8.49 11.134C75.51 43.319 74.55 45 73.003 45h-54c-1.547 0-2.508-1.68-1.724-3.014l8.49-11.134C26.41 29.765 27.748 29 29.004 29h34zm0 2h-34c-.545 0-1.228.388-1.51.866L19.003 43h54l-8.49-11.134c-.282-.479-.958-.866-1.51-.866zm-6 2c1.656 0 3 1.337 3 2.999v1.002c0 1.657-1.344.999-3 .999h-22c-1.656 0-3 .663-3-.999v-1.002a3 3 0 0 1 3-2.999h22zM54 61a3 3 0 0 1 3 3v1a3 3 0 0 1-3 3H38a3 3 0 0 1-3-3v-1a3 3 0 0 1 3-3h16zm0 2H38a1 1 0 0 0-1 1v1a1 1 0 0 0 1 1h16a1 1 0 0 0 1-1v-1a1 1 0 0 0-1-1z" class="color-500"/><path fill="#000" fill-opacity=".1" d="M20 54h52v2H20z" class="color-shadow"/><rect width="24" height="3" x="34" y="35" fill="#0B77E3" class="color-400" rx="1"/><g class="animate-sink"><path fill="#FFF" d="M57 18.787c0-.441-.38-.787-.849-.787H35.85c-.467 0-.849.352-.849.787V39h22V18.787z" class="color-100"/><path fill="#40A0FF" d="M53 28c0-.552-.45-1-1.007-1H40.007C39.45 27 39 27.444 39 28c0 .552.45 1 1.007 1h11.986C52.55 29 53 28.556 53 28zm-4 4c0-.552-.456-1-.995-1h-8.01A.995.995 0 0 0 39 32c0 .552.456 1 .995 1h8.01c.55 0 .995-.444.995-1z" class="color-300"/><path fill="#005CB9" fill-rule="nonzero" d="M57 19.006A.999.999 0 0 0 55.997 18H36.003c-.552 0-1.003.45-1.003 1.006L35.003 39H57V19.006zm2 18.988C59 39.654 56.654 41 54.997 41H37.003C35.343 41 33 39.662 33 37.994V19.006A3.006 3.006 0 0 1 36.003 16h19.994A2.999 2.999 0 0 1 59 19.006v18.988zM53 22c0-.552-.45-1-1.007-1H40.007C39.45 21 39 21.444 39 22c0 .552.45 1 1.007 1h11.986C52.55 23 53 22.556 53 22z" class="color-500"/></g><path fill="#A6D2FF" d="M27.09 39.406c.504-.224 1.368-.406 1.913-.406h34c.552 0 1.41.182 1.913.406L73.003 43h-54l8.088-3.594z" class="color-200"/><path fill="#005CB9" fill-rule="nonzero" d="M32.003 35.999a3 3 0 0 1 3-2.999h22c1.656 0 3 1.337 3 2.999v1.002a3 3 0 0 1-3 2.999h-22c-1.656 0-3-1.337-3-2.999v-1.002zm2-2v3.002c0 .556.448.999 1 .999h22a1 1 0 0 0 1-.999v-3.002a.997.997 0 0 0-1-.999h-22a1 1 0 0 0-1 .999z" class="color-500"/><path fill="#000" fill-opacity=".1" d="M35 36h22v2H35z" class="color-shadow"/></g></svg>