<svg xmlns="http://www.w3.org/2000/svg" width="92" height="92" class="wd-applet wd-applet-supplier-accounts" focusable="false" role="presentation" viewBox="0 0 92 92"><g fill="none" fill-rule="evenodd" class="wd-icon-container"><g fill="#0B77E3" fill-opacity=".2" class="animate-flood"><path d="M46 83c19.882 0 36-16.118 36-36S65.882 11 46 11 10 27.118 10 47s16.118 36 36 36z" class="color-400-alpha-20"/></g><g class="animate-shrink"><path fill="#005CB9" fill-rule="nonzero" d="M71.008 82A3 3 0 0 0 74 79V13a3 3 0 0 0-2.992-3H20.992A3 3 0 0 0 18 13v66a3 3 0 0 0 2.992 3h50.016zm0-2H20.992A1 1 0 0 1 20 79V13a1 1 0 0 1 .992-1h50.016A1 1 0 0 1 72 13v66a1 1 0 0 1-.992 1z" class="color-500"/><path fill="#FFF" d="M72 79a1 1 0 0 1-.992 1H20.992A1 1 0 0 1 20 79V13a1 1 0 0 1 .992-1h50.016A1 1 0 0 1 72 13v66z" class="color-100"/><path fill="#005CB9" d="M31 23a1 1 0 0 1 .998-1h28.004a1 1 0 1 1 0 2H31.998A.997.997 0 0 1 31 23zm5 5c0-.552.455-1 .992-1h18.016c.548 0 .992.444.992 1 0 .552-.455 1-.992 1H36.992A.993.993 0 0 1 36 28z" class="color-500"/><path fill="#40A0FF" d="M34 39.001c0 .552-.453.999-.997.999h-6.006a.995.995 0 0 1-.997-.999v-1.002c0-.552.453-.999.997-.999h6.006c.55 0 .997.443.997.999v1.002zm2 0v-1.002c0-.556.447-.999.998-.999h28.004c.55 0 .998.447.998.999v1.002a.996.996 0 0 1-.998.999H36.998a.999.999 0 0 1-.998-.999zm-2 7c0 .552-.453.999-.997.999h-6.006a.995.995 0 0 1-.997-.999v-1.002c0-.552.453-.999.997-.999h6.006c.55 0 .997.443.997.999v1.002zm2 0v-1.002c0-.556.447-.999.998-.999h28.004c.55 0 .998.447.998.999v1.002a.996.996 0 0 1-.998.999H36.998a.999.999 0 0 1-.998-.999zm-2 7c0 .552-.453.999-.997.999h-6.006a.995.995 0 0 1-.997-.999v-1.002c0-.552.453-.999.997-.999h6.006c.55 0 .997.443.997.999v1.002zm2 0v-1.002c0-.556.447-.999.998-.999h28.004c.55 0 .998.447.998.999v1.002a.996.996 0 0 1-.998.999H36.998a.999.999 0 0 1-.998-.999zm-2 7c0 .552-.453.999-.997.999h-6.006a.995.995 0 0 1-.997-.999v-1.002c0-.552.453-.999.997-.999h6.006c.55 0 .997.443.997.999v1.002zm2 0v-1.002c0-.556.447-.999.998-.999h28.004c.55 0 .998.447.998.999v1.002a.996.996 0 0 1-.998.999H36.998a.999.999 0 0 1-.998-.999zm-2 7c0 .552-.453.999-.997.999h-6.006a.995.995 0 0 1-.997-.999v-1.002c0-.552.453-.999.997-.999h6.006c.55 0 .997.443.997.999v1.002zm2 0v-1.002c0-.556.447-.999.998-.999h28.004c.55 0 .998.447.998.999v1.002a.996.996 0 0 1-.998.999H36.998a.999.999 0 0 1-.998-.999z" class="color-300"/></g><g class="animate-grow"><rect width="44" height="22" x="2" y="2" fill="#FFF" class="color-100" rx="1.25" transform="translate(34 60)"/><rect width="18" height="14" x="6" y="6" fill="#A6D2FF" class="color-200" rx="1" transform="translate(34 60)"/><path fill="#40A0FF" d="M9 17c0-.552.456-1 1.002-1h9.996A.999.999 0 0 1 21 17v3c0 .552-.456 1-1.002 1h-9.996A.999.999 0 0 1 9 20v-3z" class="color-300" transform="translate(34 60)"/><path fill="#005CB9" fill-rule="nonzero" d="M2 3.25v19.5c0 .688.56 1.25 1.25 1.25h41.5c.686 0 1.25-.56 1.25-1.25V3.25C46 2.563 45.44 2 44.75 2H3.25C2.563 2 2 2.56 2 3.25zm-2 0A3.253 3.253 0 0 1 3.25 0h41.5A3.251 3.251 0 0 1 48 3.25v19.5A3.253 3.253 0 0 1 44.75 26H3.25A3.251 3.251 0 0 1 0 22.75V3.25zM28 10A.998.998 0 0 1 29 9h14c.552 0 1 .443 1 .999v1.002A.998.998 0 0 1 43 12H29c-.552 0-1-.443-1-.999V9.999zm0 5c0-.552.456-.999 1.002-.999h9.996a.998.998 0 0 1 1.002.999v1.002c0 .552-.456.999-1.002.999h-9.996A.998.998 0 0 1 28 16.001v-1.002z" class="color-500" transform="translate(34 60)"/><rect width="5" height="6" x="12.5" y="9" fill="#FFF" class="color-100" rx="2.5" transform="translate(34 60)"/><path fill="#005CB9" fill-rule="nonzero" d="M22.993 4A3.003 3.003 0 0 1 26 6.999V19C26 20.661 24.65 22 22.993 22H7.007A3.003 3.003 0 0 1 4 19.001V7C4 5.339 5.35 4 7.007 4h15.986zm0 2H7.007C6.45 6 6 6.447 6 6.999V19c0 .552.45.999 1.007.999H8v-1c0-1.975 1.516-3.786 3.447-3.973A2.926 2.926 0 0 1 11 13.5v-3C11 8.566 13.062 7 15 7c1.933 0 4 1.57 4 3.5v3c0 .547-.165 1.065-.445 1.527C20.511 15.197 22 16.886 22 19v1h.993c.557 0 1.007-.447 1.007-.999V7C24 6.447 23.55 6 22.993 6zM18 17.011H12c-.98 0-2 1.008-2 1.989v1h10v-1c0-.989-1.025-1.989-2-1.989zM15 9c-.834 0-2 .672-2 1.5v3.023c0 .826 1.172 1.488 2 1.488.834 0 2-.659 2-1.488V10.5c0-.826-1.172-1.5-2-1.5z" class="color-500" transform="translate(34 60)"/></g></g></svg>