<svg xmlns="http://www.w3.org/2000/svg" width="92" height="92" class="wd-applet wd-applet-supplier-management" focusable="false" role="presentation" viewBox="0 0 92 92"><g fill="none" fill-rule="evenodd" class="wd-icon-container"><g fill="#0B77E3" fill-opacity=".2" class="animate-flood"><path d="M46 82c19.882 0 36-16.118 36-36S65.882 10 46 10 10 26.118 10 46s16.118 36 36 36z" class="color-400-alpha-20"/></g><g class="animate-shrink"><path fill="#005CB9" fill-rule="nonzero" d="M21 18a9 9 0 0 1 9 9v42h41a3 3 0 0 1 0 6H30a3 3 0 0 1-6 0V28a4 4 0 0 0-4-4h-5a3 3 0 1 1 0-6h6zm0 2h-6a1 1 0 1 0 0 2h5a6 6 0 0 1 6 6v47a1 1 0 0 0 2 0v-2h43a1 1 0 0 0 0-2H28V27a7 7 0 0 0-7-7z" class="color-500"/><path fill="#A6D2FF" d="M21 20a7 7 0 0 1 7 7v43.999L71 71a1 1 0 0 1 0 2l-43-.001V75a1 1 0 0 1-2 0V28a6 6 0 0 0-6-6h-5a1 1 0 1 1 0-2h6z" class="color-200"/><path fill="#FFF" d="M31 49h30a1 1 0 0 1 1 1v18a1 1 0 0 1-1 1H31a1 1 0 0 1-1-1V50a1 1 0 0 1 1-1zm1-16h16a1 1 0 0 1 1 1v12a1 1 0 0 1-1 1H32a1 1 0 0 1-1-1V34a1 1 0 0 1 1-1z" class="color-100"/><path fill="#40A0FF" d="M37 32h6l-.5 8h-5l-.5-8zm5 16h8l-.5 10h-7L42 48zM26 78a6 6 0 1 0 0-12 6 6 0 0 0 0 12zm46 0a6 6 0 1 0 0-12 6 6 0 0 0 0 12z" class="color-300"/><path fill="#005CB9" fill-rule="nonzero" d="M21 18a9 9 0 0 1 9 9v4.764A2.989 2.989 0 0 1 32 31h16a3 3 0 0 1 3 3v12c0 .351-.06.688-.171 1H61a3 3 0 0 1 3 3v18a3 3 0 0 1-3 3H33.938a8 8 0 1 1-9.937-6.748L24 28a4 4 0 0 0-4-4h-5a3 3 0 1 1 0-6h6zm51 46a8 8 0 1 1 0 16 8 8 0 0 1 0-16zm-46 2a6 6 0 1 0 0 12 6 6 0 0 0 0-12zm46 0a6 6 0 1 0 0 12 6 6 0 0 0 0-12zm-46 2a4 4 0 1 1 0 8 4 4 0 0 1 0-8zm46 0a4 4 0 1 1 0 8 4 4 0 0 1 0-8zM41 49H31a1 1 0 0 0-1 1l.001 15.07A8.03 8.03 0 0 1 33.418 69H61a1 1 0 0 0 1-1V50a1 1 0 0 0-1-1H51v7a3 3 0 0 1-3 3h-4a3 3 0 0 1-3-3v-7zM21 20v2.083c2.838.477 5 2.944 5 5.917v36c.69 0 1.361.088 2 .252V27a7 7 0 0 0-7-7zm28 29h-6v7a1 1 0 0 0 1 1h4a1 1 0 0 0 1-1v-7zM36 33h-4a1 1 0 0 0-1 1v12a1 1 0 0 0 1 1h16a1 1 0 0 0 1-1V34a1 1 0 0 0-1-1h-4v5a3 3 0 0 1-3 3h-2a3 3 0 0 1-3-3v-5zm6 0h-4v5a1 1 0 0 0 1 1h2a1 1 0 0 0 1-1v-5z" class="color-500"/><path fill="#005CB9" fill-rule="nonzero" d="M26 68a4 4 0 1 1 0 8 4 4 0 0 1 0-8zm46 0a4 4 0 1 1 0 8 4 4 0 0 1 0-8zm-46 2a2 2 0 1 0 0 4 2 2 0 0 0 0-4zm46 0a2 2 0 1 0 0 4 2 2 0 0 0 0-4z" class="color-500"/><path fill="#FFF" d="M26 74a2 2 0 1 0 0-4 2 2 0 0 0 0 4zm46 0a2 2 0 1 0 0-4 2 2 0 0 0 0 4z" class="color-100"/></g></g></svg>