<svg xmlns="http://www.w3.org/2000/svg" width="92" height="92" class="wd-applet wd-applet-teaching" focusable="false" role="presentation" viewBox="0 0 92 92"><g fill="none" fill-rule="evenodd" class="wd-icon-container"><g fill="#0B77E3" fill-opacity=".2" class="animate-flood"><circle cx="36" cy="36" r="36" class="color-400-alpha-20" transform="translate(10 10)"/></g><g class="animate-shrink"><path fill="#005CB9" fill-rule="nonzero" d="M4 2a2 2 0 0 0-2 2v37a2 2 0 0 0 2 2h58a2 2 0 0 0 2-2V4a2 2 0 0 0-2-2H4zm0-2h58a4 4 0 0 1 4 4v37a4 4 0 0 1-4 4H4a4 4 0 0 1-4-4V4a4 4 0 0 1 4-4z" class="color-500" transform="translate(13 13)"/><rect width="62" height="41" x="2" y="2" fill="#FFF" class="color-100" rx="2" transform="translate(13 13)"/><path fill="#40A0FF" d="M2.969 37H62.03C63.12 37 64 37.895 64 39v3c0 1.105-.881 2-1.969 2H2.97C1.88 44 1 43.105 1 42v-3c0-1.105.881-2 1.969-2z" class="color-300" transform="translate(13 13)"/><path fill="#005CB9" fill-rule="nonzero" d="M3 38a1 1 0 0 0-1 1v3a1 1 0 0 0 1 1h60a1 1 0 0 0 1-1v-3a1 1 0 0 0-1-1H3zm0-2h60a3 3 0 0 1 3 3v3a3 3 0 0 1-3 3H3a3 3 0 0 1-3-3v-3a3 3 0 0 1 3-3z" class="color-500" transform="translate(13 13)"/><path fill="#40A0FF" d="M30 21.999c0-.552.455-.999.995-.999h23.01c.55 0 .995.443.995.999v1.002c0 .552-.455.999-.995.999h-23.01a.994.994 0 0 1-.995-.999v-1.002zM12 14h42a1 1 0 0 1 1 1v1a1 1 0 0 1-1 1H12a1 1 0 0 1-1-1v-1a1 1 0 0 1 1-1zm0-7h28a1 1 0 0 1 1 1v1a1 1 0 0 1-1 1H12a1 1 0 0 1-1-1V8a1 1 0 0 1 1-1z" class="color-300" transform="translate(13 13)"/></g><g class="animate-grow"><path fill="#005CB9" fill-rule="nonzero" d="M20 0c6.63 0 12 5.367 12 11.997v6.006c0 4.174-2.13 7.849-5.364 9.998L29.999 28c2.149 0 4.14.68 5.77 1.834l6.736-19.068a5.887 5.887 0 0 1 7.512-3.59l.105.038.035.013a6 6 0 0 1 3.551 7.617L43.413 43.988a6 6 0 0 1-4.97 3.963A2.02 2.02 0 0 1 38 48H2a2 2 0 0 1-2-2v-8c0-5.522 4.478-10 10-10h3.362A11.981 11.981 0 0 1 8 18.004v-6.006C8 5.37 13.372 0 20 0zm24.391 11.432l-7.004 19.831A9.963 9.963 0 0 1 40 38v7.3a3.982 3.982 0 0 0 1.527-1.978l10.295-29.144A4 4 0 0 0 49.455 9.1l-.035-.013a3.887 3.887 0 0 0-5.029 2.345z" class="color-500" transform="translate(10 34)"/><path fill="#A6D2FF" d="M49.35 9.062l.07.025.035.013a4 4 0 0 1 2.367 5.078L41.527 43.322A4.001 4.001 0 0 1 38 45.982V46H2v-8c0-4.418 3.583-8 8-8h20a7.995 7.995 0 0 1 6.601 3.484l7.79-22.052a3.887 3.887 0 0 1 4.96-2.37z" class="color-200" transform="translate(10 34)"/><rect width="20" height="26" x="10" y="2" fill="#FFF" class="color-100" rx="10" transform="translate(10 34)"/></g></g></svg>