<svg xmlns="http://www.w3.org/2000/svg" width="92" height="92" class="wd-applet wd-applet-teams-work" focusable="false" role="presentation" viewBox="0 0 92 92"><g fill="none" fill-rule="evenodd" class="wd-icon-container"><g fill="#0B77E3" fill-opacity=".2" class="animate-flood"><path d="M46 82c19.882 0 36-16.118 36-36S65.882 10 46 10 10 26.118 10 46s16.118 36 36 36z" class="color-400-alpha-20"/></g><path fill="#005CB9" fill-rule="nonzero" d="M41.248 35.59L28.59 50.104l1.514 1.306 12.658-14.514-1.514-1.306zm22.161 14.527L51.117 35.591l-1.526 1.292 12.292 14.526 1.526-1.292z" class="color-500"/><g class="animate-grow"><path fill="#A6D2FF" d="M6 24.381A12.957 12.957 0 0 0 15 28c3.493 0 6.664-1.377 9-3.619V23h.624H24c0-1.659-1.34-3-2.992-3H8.992A2.993 2.993 0 0 0 6 23h-.624H6v1.381zm-1.913-2.314A12.94 12.94 0 0 1 2 15C2 7.82 7.819 2 15 2c7.18 0 13 5.819 13 13a12.94 12.94 0 0 1-2.087 7.067A4.995 4.995 0 0 0 21.008 18H8.992a4.992 4.992 0 0 0-4.905 4.067zM18.315 18h-6.632A5.997 5.997 0 0 1 9 12.998v-2.996A6.004 6.004 0 0 1 15 4c3.314 0 6 2.688 6 6.002v2.996A6 6 0 0 1 18.315 18z" class="color-200" transform="translate(53 48)"/><path fill="#40A0FF" d="M6 24.381A12.957 12.957 0 0 0 15 28c3.493 0 6.664-1.377 9-3.619V23h.624H24c0-1.659-1.34-3-2.992-3H8.992A2.993 2.993 0 0 0 6 23h-.624H6v1.381z" class="color-300" transform="translate(53 48)"/><rect width="9" height="12" x="10.5" y="5.5" fill="#FFF" class="color-100" rx="4.5" transform="translate(53 48)"/><path fill="#005CB9" fill-rule="nonzero" d="M15 0c8.285 0 15 6.715 15 15s-6.715 15-15 15S0 23.285 0 15 6.715 0 15 0zm6.008 20H8.992a2.993 2.993 0 0 0-2.987 2.823L6 23v1.381A12.957 12.957 0 0 0 15 28c3.493 0 6.664-1.377 9-3.619V23c0-1.659-1.34-3-2.992-3zM15 2C7.819 2 2 7.82 2 15c0 2.606.767 5.033 2.087 7.067A4.992 4.992 0 0 1 8.992 18h2.69A5.997 5.997 0 0 1 9 12.998v-2.996A6.004 6.004 0 0 1 15 4c3.314 0 6 2.688 6 6.002v2.996A6 6 0 0 1 18.315 18h2.693c2.439 0 4.47 1.75 4.905 4.067A12.94 12.94 0 0 0 28 15c0-7.181-5.82-13-13-13zm0 4l-.2.005a4.005 4.005 0 0 0-3.8 3.997v2.996C11 15.208 12.79 17 15 17l.2-.005a4.005 4.005 0 0 0 3.8-3.997v-2.996C19 7.792 17.21 6 15 6z" class="color-500" transform="translate(53 48)"/></g><g class="animate-grow"><path fill="#A6D2FF" d="M6 24.381A12.957 12.957 0 0 0 15 28c3.493 0 6.664-1.377 9-3.619V23h.624H24c0-1.659-1.34-3-2.992-3H8.992A2.993 2.993 0 0 0 6 23h-.624H6v1.381zm-1.913-2.314A12.94 12.94 0 0 1 2 15C2 7.82 7.819 2 15 2c7.18 0 13 5.819 13 13a12.94 12.94 0 0 1-2.087 7.067A4.995 4.995 0 0 0 21.008 18H8.992a4.992 4.992 0 0 0-4.905 4.067zM18.315 18h-6.632A5.997 5.997 0 0 1 9 12.998v-2.996A6.004 6.004 0 0 1 15 4c3.314 0 6 2.688 6 6.002v2.996A6 6 0 0 1 18.315 18z" class="color-200" transform="translate(9 48)"/><path fill="#40A0FF" d="M6 24.381A12.957 12.957 0 0 0 15 28c3.493 0 6.664-1.377 9-3.619V23h.624H24c0-1.659-1.34-3-2.992-3H8.992A2.993 2.993 0 0 0 6 23h-.624H6v1.381z" class="color-300" transform="translate(9 48)"/><rect width="9" height="12" x="10.5" y="5.5" fill="#FFF" class="color-100" rx="4.5" transform="translate(9 48)"/><path fill="#005CB9" fill-rule="nonzero" d="M15 0c8.285 0 15 6.715 15 15s-6.715 15-15 15S0 23.285 0 15 6.715 0 15 0zm6.008 20H8.992a2.993 2.993 0 0 0-2.987 2.823L6 23v1.381A12.957 12.957 0 0 0 15 28c3.493 0 6.664-1.377 9-3.619V23c0-1.659-1.34-3-2.992-3zM15 2C7.819 2 2 7.82 2 15c0 2.606.767 5.033 2.087 7.067A4.992 4.992 0 0 1 8.992 18h2.69A5.997 5.997 0 0 1 9 12.998v-2.996A6.004 6.004 0 0 1 15 4c3.314 0 6 2.688 6 6.002v2.996A6 6 0 0 1 18.315 18h2.693c2.439 0 4.47 1.75 4.905 4.067A12.94 12.94 0 0 0 28 15c0-7.181-5.82-13-13-13zm0 4l-.2.005a4.005 4.005 0 0 0-3.8 3.997v2.996C11 15.208 12.79 17 15 17l.2-.005a4.005 4.005 0 0 0 3.8-3.997v-2.996C19 7.792 17.21 6 15 6z" class="color-500" transform="translate(9 48)"/></g><g class="animate-grow"><path fill="#FFF" d="M59 39.994V9.006A.999.999 0 0 0 57.997 8H34.003C33.451 8 33 8.45 33 9.006v30.988A.999.999 0 0 0 34.003 41h23.994c.552 0 1.003-.45 1.003-1.006z" class="color-100"/><path fill="#40A0FF" d="M51 16c0-.552-.438-1-1.003-1h-4.994A.999.999 0 0 0 44 16c0 .552.438 1 1.003 1h4.994A.999.999 0 0 0 51 16zm0 10c0-.552-.438-1-1.003-1h-4.994A.999.999 0 0 0 44 26c0 .552.438 1 1.003 1h4.994A.999.999 0 0 0 51 26zm0 9c0-.552-.438-1-1.003-1h-4.994A.999.999 0 0 0 44 35c0 .552.438 1 1.003 1h4.994A.999.999 0 0 0 51 35zm4-22c0-.552-.445-1-.996-1h-9.008A.995.995 0 0 0 44 13c0 .552.445 1 .996 1h9.008c.55 0 .996-.444.996-1zm0 10c0-.552-.445-1-.996-1h-9.008A.995.995 0 0 0 44 23c0 .552.445 1 .996 1h9.008c.55 0 .996-.444.996-1zm0 9c0-.552-.445-1-.996-1h-9.008A.995.995 0 0 0 44 32c0 .552.445 1 .996 1h9.008c.55 0 .996-.444.996-1zm-16-6a2 2 0 1 0 0-4 2 2 0 0 0 0 4zm0 9a2 2 0 1 0 0-4 2 2 0 0 0 0 4z" class="color-300"/><path fill="#0B77E3" d="M41.612 11.342l.09.055c.347.243.433.72.19 1.068l-2.767 3.95a.775.775 0 0 1-.1.117l-.01.011a.772.772 0 0 1-1.067.19l-1.637-1.147a.765.765 0 0 1-.242-.978l.054-.09a.772.772 0 0 1 1.068-.19l1.02.714 2.422-3.458a.765.765 0 0 1 .98-.242z" class="color-400"/><path fill="#005CB9" fill-rule="nonzero" d="M59 39.994V9.006A.999.999 0 0 0 57.997 8H34.003C33.451 8 33 8.45 33 9.006v30.988A.999.999 0 0 0 34.003 41h23.994c.552 0 1.003-.45 1.003-1.006zm2 0A3.006 3.006 0 0 1 57.997 43H34.003A2.999 2.999 0 0 1 31 39.994V9.006A3.006 3.006 0 0 1 34.003 6h23.994A2.999 2.999 0 0 1 61 9.006v30.988z" class="color-500"/></g></g></svg>