<svg xmlns="http://www.w3.org/2000/svg" width="92" height="92" class="wd-applet wd-applet-team-goals" focusable="false" role="presentation" viewBox="0 0 92 92"><g fill="none" fill-rule="evenodd" class="wd-icon-container"><g fill="#0B77E3" fill-opacity=".2" class="animate-flood"><path d="M46 82c19.882 0 36-16.118 36-36S65.882 10 46 10 10 26.118 10 46s16.118 36 36 36z" class="color-400-alpha-20"/></g><path fill="#005CB9" fill-rule="nonzero" d="M46.5 75C30.76 75 18 62.24 18 46.5S30.76 18 46.5 18 75 30.76 75 46.5 62.24 75 46.5 75zm0-2C61.136 73 73 61.136 73 46.5S61.136 20 46.5 20 20 31.864 20 46.5 31.864 73 46.5 73z" class="color-500"/><g class="animate-grow"><path fill="#005CB9" fill-rule="nonzero" d="M29 25c0 9.39 7.611 17 17 17 9.39 0 17-7.611 17-17 0-9.39-7.611-17-17-17-9.39 0-17 7.611-17 17zm-2 0c0-10.494 8.505-19 19-19 10.494 0 19 8.505 19 19 0 10.494-8.505 19-19 19-10.494 0-19-8.505-19-19z" class="color-500"/><path fill="#FFF" d="M29 25c0 9.39 7.611 17 17 17 9.39 0 17-7.611 17-17 0-9.39-7.611-17-17-17-9.39 0-17 7.611-17 17z" class="color-100"/><path fill="#40A0FF" fill-rule="nonzero" d="M37 25a9 9 0 0 0 9 9 9 9 0 0 0 9-9 9 9 0 0 0-9-9 9 9 0 0 0-9 9zm-4 0c0-7.18 5.82-13 13-13s13 5.82 13 13-5.82 13-13 13-13-5.82-13-13z" class="color-300"/><path fill="#FFF" d="M37 25a9 9 0 0 0 9 9 9 9 0 0 0 9-9 9 9 0 0 0-9-9 9 9 0 0 0-9 9z" class="color-100"/><path fill="#0B77E3" d="M42 25c0-2.21 1.795-4 4-4 2.21 0 4 1.795 4 4 0 2.21-1.795 4-4 4-2.21 0-4-1.795-4-4z" class="color-400"/><path fill="#40A0FF" d="M60.06 5.364c.466-.457.795-.307.735.34l-.312 3.364-6.102 6.113.504-3.42c.075-.805.607-1.92 1.187-2.488M65.66 10.774c.512-.502.34-.842-.363-.762l-3.823.434L55 16.791l3.524-.4c.878-.1 2.098-.679 2.717-1.286" class="color-300"/><path fill="#000" fill-rule="nonzero" d="M47.414 25L46 26.414l-12-12L35.414 13l12 12zM46 26.414L47.414 25l-12-12L34 14.414l12 12z" class="color-shadow" opacity=".1"/><path fill="#005CB9" fill-rule="nonzero" d="M60.5 9l1.414 1.414-15.5 15.5L45 24.5 60.5 9zm1.414 1.414l-15.5 15.5L45 24.5 60.5 9l1.414 1.414z" class="color-500"/></g><g class="animate-grow"><path fill="#A6D2FF" d="M6 24.381A12.957 12.957 0 0 0 15 28c3.493 0 6.664-1.377 9-3.619V23h.624H24c0-1.659-1.34-3-2.992-3H8.992A2.993 2.993 0 0 0 6 23h-.624H6v1.381zm-1.913-2.314A12.94 12.94 0 0 1 2 15C2 7.82 7.819 2 15 2c7.18 0 13 5.819 13 13a12.94 12.94 0 0 1-2.087 7.067A4.995 4.995 0 0 0 21.008 18H8.992a4.992 4.992 0 0 0-4.905 4.067zM18.315 18h-6.632A5.997 5.997 0 0 1 9 12.998v-2.996A6.004 6.004 0 0 1 15 4c3.314 0 6 2.688 6 6.002v2.996A6 6 0 0 1 18.315 18z" class="color-200" transform="translate(53 48)"/><path fill="#40A0FF" d="M6 24.381A12.957 12.957 0 0 0 15 28c3.493 0 6.664-1.377 9-3.619V23h.624H24c0-1.659-1.34-3-2.992-3H8.992A2.993 2.993 0 0 0 6 23h-.624H6v1.381z" class="color-300" transform="translate(53 48)"/><rect width="9" height="12" x="10.5" y="5.5" fill="#FFF" class="color-100" rx="4.5" transform="translate(53 48)"/><path fill="#005CB9" fill-rule="nonzero" d="M15 0c8.285 0 15 6.715 15 15s-6.715 15-15 15S0 23.285 0 15 6.715 0 15 0zm6.008 20H8.992a2.993 2.993 0 0 0-2.987 2.823L6 23v1.381A12.957 12.957 0 0 0 15 28c3.493 0 6.664-1.377 9-3.619V23c0-1.659-1.34-3-2.992-3zM15 2C7.819 2 2 7.82 2 15c0 2.606.767 5.033 2.087 7.067A4.992 4.992 0 0 1 8.992 18h2.69A5.997 5.997 0 0 1 9 12.998v-2.996A6.004 6.004 0 0 1 15 4c3.314 0 6 2.688 6 6.002v2.996A6 6 0 0 1 18.315 18h2.693c2.439 0 4.47 1.75 4.905 4.067A12.94 12.94 0 0 0 28 15c0-7.181-5.82-13-13-13zm0 4l-.2.005a4.005 4.005 0 0 0-3.8 3.997v2.996C11 15.208 12.79 17 15 17l.2-.005a4.005 4.005 0 0 0 3.8-3.997v-2.996C19 7.792 17.21 6 15 6z" class="color-500" transform="translate(53 48)"/></g><g class="animate-grow"><path fill="#A6D2FF" d="M6 24.381A12.957 12.957 0 0 0 15 28c3.493 0 6.664-1.377 9-3.619V23h.624H24c0-1.659-1.34-3-2.992-3H8.992A2.993 2.993 0 0 0 6 23h-.624H6v1.381zm-1.913-2.314A12.94 12.94 0 0 1 2 15C2 7.82 7.819 2 15 2c7.18 0 13 5.819 13 13a12.94 12.94 0 0 1-2.087 7.067A4.995 4.995 0 0 0 21.008 18H8.992a4.992 4.992 0 0 0-4.905 4.067zM18.315 18h-6.632A5.997 5.997 0 0 1 9 12.998v-2.996A6.004 6.004 0 0 1 15 4c3.314 0 6 2.688 6 6.002v2.996A6 6 0 0 1 18.315 18z" class="color-200" transform="translate(9 48)"/><path fill="#40A0FF" d="M6 24.381A12.957 12.957 0 0 0 15 28c3.493 0 6.664-1.377 9-3.619V23h.624H24c0-1.659-1.34-3-2.992-3H8.992A2.993 2.993 0 0 0 6 23h-.624H6v1.381z" class="color-300" transform="translate(9 48)"/><rect width="9" height="12" x="10.5" y="5.5" fill="#FFF" class="color-100" rx="4.5" transform="translate(9 48)"/><path fill="#005CB9" fill-rule="nonzero" d="M15 0c8.285 0 15 6.715 15 15s-6.715 15-15 15S0 23.285 0 15 6.715 0 15 0zm6.008 20H8.992a2.993 2.993 0 0 0-2.987 2.823L6 23v1.381A12.957 12.957 0 0 0 15 28c3.493 0 6.664-1.377 9-3.619V23c0-1.659-1.34-3-2.992-3zM15 2C7.819 2 2 7.82 2 15c0 2.606.767 5.033 2.087 7.067A4.992 4.992 0 0 1 8.992 18h2.69A5.997 5.997 0 0 1 9 12.998v-2.996A6.004 6.004 0 0 1 15 4c3.314 0 6 2.688 6 6.002v2.996A6 6 0 0 1 18.315 18h2.693c2.439 0 4.47 1.75 4.905 4.067A12.94 12.94 0 0 0 28 15c0-7.181-5.82-13-13-13zm0 4l-.2.005a4.005 4.005 0 0 0-3.8 3.997v2.996C11 15.208 12.79 17 15 17l.2-.005a4.005 4.005 0 0 0 3.8-3.997v-2.996C19 7.792 17.21 6 15 6z" class="color-500" transform="translate(9 48)"/></g></g></svg>