<svg xmlns="http://www.w3.org/2000/svg" width="92" height="92" class="wd-applet wd-applet-tenure" focusable="false" role="presentation" viewBox="0 0 92 92"><g fill="none" fill-rule="evenodd" class="wd-icon-container"><g fill="#0B77E3" fill-opacity=".2" class="animate-flood"><path d="M46 82c19.882 0 36-16.118 36-36S65.882 10 46 10 10 26.118 10 46s16.118 36 36 36z" class="color-400-alpha-20"/></g><g class="animate-shrink"><path fill="#40A0FF" d="M16 47.99v21.234a3 3 0 0 0 2.996 2.99h54.008A2.99 2.99 0 0 0 76 69.224V47.99A3 3 0 0 0 73.004 45H18.996A2.99 2.99 0 0 0 16 47.99z" class="color-300"/><path fill="#005CB9" fill-rule="nonzero" d="M73.004 72C74.663 72 76 70.876 76 69.224V47.99A3 3 0 0 0 73.004 45H18.996A2.99 2.99 0 0 0 16 47.99v21.234C16 70.864 17.341 72 18.996 72H45V50h2.03v22h25.974zM14 47.99A4.99 4.99 0 0 1 18.996 43h54.008A5 5 0 0 1 78 47.99v21.234C78 71.982 75.765 74 73.004 74H18.996C16.24 74 14 71.973 14 69.224V47.99z" class="color-500"/><path fill="#000" d="M76 44v7.961h-7V54a3 3 0 0 1-3 3h-6a3 3 0 0 1-3-3v-2.039H34.999L35 54a3 3 0 0 1-3 3h-6a3 3 0 0 1-3-3l-.001-2.039H16V44h60z" class="color-shadow" opacity=".1"/><path fill="#A6D2FF" d="M14 30.999v15.169c0 1.105.897 1.999 2.007 1.999h59.986a2.004 2.004 0 0 0 2.007-2V31A2.002 2.002 0 0 0 75.993 29H16.007A2.004 2.004 0 0 0 14 30.999z" class="color-200"/><path fill="#005CB9" fill-rule="nonzero" d="M59.779 18c.547 0 .99.443.99 1.01v1.98c0 .558-.452 1.01-.99 1.01h-2.395v5h18.609A4.002 4.002 0 0 1 80 30.999v15.169C80 48.376 78.211 50 76 50H16c-2.213 0-4-1.621-4-3.832V30.999A4.004 4.004 0 0 1 16.007 27H35v-5h-2.01a.995.995 0 0 1-.99-1.01v-1.98c0-.558.452-1.01.99-1.01H59.78zm16.214 11H16.007A2.004 2.004 0 0 0 14 30.999v15.169c0 1.105.89 1.832 2 1.832h60c1.108 0 2-.73 2-1.832V30.999A2.002 2.002 0 0 0 75.993 29zM54 22H38.384v5H54v-5z" class="color-500"/><path fill="#FFF" d="M24.9 46.032v6.936c0 .573.575 1.232 1.16 1.232h5.868c.585 0 1.162-.662 1.162-1.232V46.03c0-.574-.576-1.13-1.162-1.13h-5.867c-.585 0-1.161.562-1.161 1.132zm34 0v6.936c0 .573.575 1.232 1.16 1.232h5.868c.585 0 1.162-.662 1.162-1.232V46.03c0-.574-.576-1.13-1.162-1.13h-5.867c-.585 0-1.161.562-1.161 1.132z" class="color-100"/><path fill="#005CB9" fill-rule="nonzero" d="M25 45.995V53c0 .553.45 1 1.003 1H32c.553 0 1-.45 1-1v-7.005A.994.994 0 0 0 32 45h-5.997a1 1 0 0 0-1.003.995zm-2 0C23 44.023 24.033 43 26.003 43H32c1.982 0 3 1.052 3 2.995v6.683C35 54.977 33.995 56 32 56h-5.997C24.011 56 23 54.962 23 52.678v-6.683zm36 0V53c0 .553.45 1 1.003 1H66c.553 0 1-.45 1-1v-7.005A.994.994 0 0 0 66 45h-5.997a1 1 0 0 0-1.003.995zm-2 0C57 44.023 58.033 43 60.003 43H66c1.982 0 3 1.052 3 2.995v6.683C69 54.977 67.995 56 66 56h-5.997C58.011 56 57 54.962 57 52.678v-6.683z" class="color-500"/><path fill="#000" d="M46 74c-1.07-2.45-2-5.156-2-8 0-11.046 9.954-21 21-21 3.643 0 9.047 1.555 13 5v18.998C78 71.996 75.998 74 73 74H46z" class="color-shadow" opacity=".1"/></g><g class="animate-spin"><path fill="#40A0FF" fill-rule="nonzero" d="M65 82c-8.837 0-16-7.163-16-16s7.163-16 16-16 16 7.163 16 16-7.163 16-16 16z" class="color-300"/><path fill="#FFF" d="M65 77c6.075 0 11-4.925 11-11s-4.925-11-11-11-11 4.925-11 11 4.925 11 11 11z" class="color-100"/><path fill="#005CB9" fill-rule="nonzero" d="M65 81.943c8.805 0 15.943-7.138 15.943-15.943S73.805 50.057 65 50.057 49.057 57.195 49.057 66 56.195 81.943 65 81.943zM65 84c-9.941 0-18-8.059-18-18s8.059-18 18-18 18 8.059 18 18-8.059 18-18 18zm0-7.08c6.03 0 10.92-4.89 10.92-10.92S71.03 55.08 65 55.08 54.08 59.97 54.08 66 58.97 76.92 65 76.92zM65 79c-7.18 0-13-5.82-13-13s5.82-13 13-13 13 5.82 13 13-5.82 13-13 13zm-2.397-14.804a2.997 2.997 0 0 1 4-.733l3.44-4.105a1 1 0 1 1 1.532 1.284l-3.719 4.438a3 3 0 1 1-5.835.559l-3.407-1.973a.77.77 0 1 1 .772-1.332l3.217 1.862zM64.978 67a1 1 0 1 0 0-2 1 1 0 0 0 0 2z" class="color-500"/></g></g></svg>