<svg xmlns="http://www.w3.org/2000/svg" width="92" height="92" class="wd-applet wd-applet-time" focusable="false" role="presentation" viewBox="0 0 92 92"><g fill="none" fill-rule="evenodd" class="wd-icon-container"><g fill="#0B77E3" fill-opacity=".2" class="animate-flood"><path d="M46 82c19.882 0 36-16.118 36-36S65.882 10 46 10 10 26.118 10 46s16.118 36 36 36z" class="color-400-alpha-20"/></g><g class="animate-sink"><path fill="#005CB9" fill-rule="nonzero" d="M27 10v32c0 .545.446 1 .997 1h36.006c.544 0 .997-.447.997-1V10c0-.545-.446-1-.997-1H27.997c-.544 0-.997.447-.997 1zm-2 0c0-1.656 1.347-3 2.997-3h36.006A3.003 3.003 0 0 1 67 10v32c0 1.656-1.347 3-2.997 3H27.997A3.003 3.003 0 0 1 25 42V10z" class="color-500"/><path fill="#FFF" d="M27 10v32c0 .545.446 1 .997 1h36.006c.544 0 .997-.447.997-1V10c0-.545-.446-1-.997-1H27.997c-.544 0-.997.447-.997 1z" class="color-100"/><path fill="#40A0FF" d="M32 14.999c0-.552.456-.999 1.002-.999h9.996a.998.998 0 0 1 1.002.999v1.002c0 .552-.456.999-1.002.999h-9.996A.998.998 0 0 1 32 16.001v-1.002zm16 0c0-.552.456-.999 1.002-.999h9.996a.998.998 0 0 1 1.002.999v1.002c0 .552-.456.999-1.002.999h-9.996A.998.998 0 0 1 48 16.001v-1.002zm-16 6c0-.552.456-.999 1.002-.999h9.996a.998.998 0 0 1 1.002.999v1.002c0 .552-.456.999-1.002.999h-9.996A.998.998 0 0 1 32 22.001v-1.002zm16 0c0-.552.456-.999 1.002-.999h9.996a.998.998 0 0 1 1.002.999v1.002c0 .552-.456.999-1.002.999h-9.996A.998.998 0 0 1 48 22.001v-1.002zm-16 6c0-.552.456-.999 1.002-.999h9.996a.998.998 0 0 1 1.002.999v1.002c0 .552-.456.999-1.002.999h-9.996A.998.998 0 0 1 32 28.001v-1.002zm16 0c0-.552.456-.999 1.002-.999h9.996a.998.998 0 0 1 1.002.999v1.002c0 .552-.456.999-1.002.999h-9.996A.998.998 0 0 1 48 28.001v-1.002z" class="color-300"/></g><path fill="#A6D2FF" d="M20 35.004c0-.555.45-1.004.992-1.004h50.016c.548 0 .992.455.992 1.004v43.992c0 .555-.45 1.004-.992 1.004H20.992c-.548 0-.992-.455-.992-1.004V35.004z" class="color-200"/><path fill="#40A0FF" fill-rule="nonzero" d="M46 73c-8.837 0-16-7.163-16-16s7.163-16 16-16 16 7.163 16 16-7.163 16-16 16z" class="color-300"/><path fill="#005CB9" fill-rule="nonzero" d="M20 35.064v43.872c0 .569.444 1.023.992 1.023h50.016c.542 0 .992-.458.992-1.023V35.064c0-.569-.444-1.023-.992-1.023H20.992c-.542 0-.992.458-.992 1.023zm-2 0C18 33.377 19.34 32 20.992 32h50.016C72.665 32 74 33.373 74 35.064v43.872C74 80.623 72.66 82 71.008 82H20.992C19.335 82 18 80.627 18 78.936V35.064zM46 75c-9.941 0-18-8.059-18-18s8.059-18 18-18 18 8.059 18 18-8.059 18-18 18zm0-2.057c8.805 0 15.943-7.138 15.943-15.943S54.805 41.057 46 41.057 30.057 48.195 30.057 57 37.195 72.943 46 72.943zm0-5.023c6.03 0 10.92-4.89 10.92-10.92S52.03 46.08 46 46.08 35.08 50.97 35.08 57 39.97 67.92 46 67.92zM46 70c-7.18 0-13-5.82-13-13s5.82-13 13-13 13 5.82 13 13-5.82 13-13 13z" class="color-500"/><g class="animate-spin"><path fill="#FFF" d="M46 68c6.075 0 11-4.925 11-11s-4.925-11-11-11-11 4.925-11 11 4.925 11 11 11z" class="color-100"/><path fill="#005CB9" d="M52.451 50.234a1 1 0 0 1 .124 1.408l-3.719 4.438a3 3 0 1 1-5.835.559l-3.407-1.973a.77.77 0 0 1 .772-1.332l3.217 1.862a2.997 2.997 0 0 1 4-.733l3.44-4.105a1 1 0 0 1 1.408-.124zM45.978 56a1 1 0 1 0 0 2 1 1 0 0 0 0-2z" class="color-500"/></g></g></svg>