<svg xmlns="http://www.w3.org/2000/svg" width="92" height="92" class="wd-applet wd-applet-timesheets" focusable="false" role="presentation" viewBox="0 0 92 92"><g fill="none" fill-rule="evenodd" class="wd-icon-container"><g fill="#0B77E3" fill-opacity=".2" class="animate-flood"><path d="M46 82c19.882 0 36-16.118 36-36S65.882 10 46 10 10 26.118 10 46s16.118 36 36 36z" class="color-400-alpha-20"/></g><g class="animate-shrink"><path fill="#FFF" d="M72 79a1 1 0 0 1-.992 1H20.992A1 1 0 0 1 20 79V13a1 1 0 0 1 .992-1h50.016A1 1 0 0 1 72 13v66z" class="color-100"/><path fill="#005CB9" d="M31 23a1 1 0 0 1 .998-1h28.004a1 1 0 1 1 0 2H31.998A.997.997 0 0 1 31 23zm5 5c0-.552.455-1 .992-1h18.016c.548 0 .992.444.992 1 0 .552-.455 1-.992 1H36.992A.993.993 0 0 1 36 28z" class="color-500"/><path fill="#005CB9" fill-rule="nonzero" d="M71.008 82A3 3 0 0 0 74 79V13a3 3 0 0 0-2.992-3H20.992A3 3 0 0 0 18 13v66a3 3 0 0 0 2.992 3h50.016zm0-2H20.992A1 1 0 0 1 20 79V13a1 1 0 0 1 .992-1h50.016A1 1 0 0 1 72 13v66a1 1 0 0 1-.992 1z" class="color-500"/><path fill="#40A0FF" d="M34 39.001c0 .552-.453.999-.997.999h-6.006a.995.995 0 0 1-.997-.999v-1.002c0-.552.453-.999.997-.999h6.006c.55 0 .997.443.997.999v1.002zm2 0v-1.002c0-.556.447-.999.998-.999h28.004c.55 0 .998.447.998.999v1.002a.996.996 0 0 1-.998.999H36.998a.999.999 0 0 1-.998-.999zm-2 7c0 .552-.453.999-.997.999h-6.006a.995.995 0 0 1-.997-.999v-1.002c0-.552.453-.999.997-.999h6.006c.55 0 .997.443.997.999v1.002zm2 0v-1.002c0-.556.447-.999.998-.999h28.004c.55 0 .998.447.998.999v1.002a.996.996 0 0 1-.998.999H36.998a.999.999 0 0 1-.998-.999zm-2 7c0 .552-.453.999-.997.999h-6.006a.995.995 0 0 1-.997-.999v-1.002c0-.552.453-.999.997-.999h6.006c.55 0 .997.443.997.999v1.002zm2 0v-1.002c0-.556.447-.999.998-.999h28.004c.55 0 .998.447.998.999v1.002a.996.996 0 0 1-.998.999H36.998a.999.999 0 0 1-.998-.999zm-2 7c0 .552-.453.999-.997.999h-6.006a.995.995 0 0 1-.997-.999v-1.002c0-.552.453-.999.997-.999h6.006c.55 0 .997.443.997.999v1.002zm2 0v-1.002c0-.556.447-.999.998-.999h28.004c.55 0 .998.447.998.999v1.002a.996.996 0 0 1-.998.999H36.998a.999.999 0 0 1-.998-.999zm-2 7c0 .552-.453.999-.997.999h-6.006a.995.995 0 0 1-.997-.999v-1.002c0-.552.453-.999.997-.999h6.006c.55 0 .997.443.997.999v1.002zm2 0v-1.002c0-.556.447-.999.998-.999h28.004c.55 0 .998.447.998.999v1.002a.996.996 0 0 1-.998.999H36.998a.999.999 0 0 1-.998-.999z" class="color-300"/><path fill="#000" d="M74 78.993A3 3 0 0 1 70.992 82H52.998C48.141 78.351 45 72.542 45 66c0-11.046 7.954-20 19-20 3.643 0 7.058.974 10 2.676v30.317z" class="color-shadow" opacity=".1"/></g><g class="animate-spin"><path fill="#40A0FF" fill-rule="nonzero" d="M65 82c-8.837 0-16-7.163-16-16s7.163-16 16-16 16 7.163 16 16-7.163 16-16 16z" class="color-300"/><path fill="#FFF" d="M65 77c6.075 0 11-4.925 11-11s-4.925-11-11-11-11 4.925-11 11 4.925 11 11 11z" class="color-100"/><path fill="#005CB9" fill-rule="nonzero" d="M65 81.943c8.805 0 15.943-7.138 15.943-15.943S73.805 50.057 65 50.057 49.057 57.195 49.057 66 56.195 81.943 65 81.943zM65 84c-9.941 0-18-8.059-18-18s8.059-18 18-18 18 8.059 18 18-8.059 18-18 18zm0-7.08c6.03 0 10.92-4.89 10.92-10.92S71.03 55.08 65 55.08 54.08 59.97 54.08 66 58.97 76.92 65 76.92zM65 79c-7.18 0-13-5.82-13-13s5.82-13 13-13 13 5.82 13 13-5.82 13-13 13zm-2.397-14.804a2.997 2.997 0 0 1 4-.733l3.44-4.105a1 1 0 1 1 1.532 1.284l-3.719 4.438a3 3 0 1 1-5.835.559l-3.407-1.973a.77.77 0 1 1 .772-1.332l3.217 1.862zM64.978 67a1 1 0 1 0 0-2 1 1 0 0 0 0 2z" class="color-500"/></g></g></svg>