<svg xmlns="http://www.w3.org/2000/svg" width="92" height="92" class="wd-applet wd-applet-total-company-spend" focusable="false" role="presentation" viewBox="0 0 92 92"><g fill="none" fill-rule="evenodd" class="wd-icon-container"><g fill="#0B77E3" fill-opacity=".2" class="animate-flood"><path d="M46 82c19.882 0 36-16.118 36-36S65.882 10 46 10 10 26.118 10 46s16.118 36 36 36z" class="color-400-alpha-20"/></g><g class="animate-float"><path fill="#40A0FF" d="M74.214 25.936L12.573 36.871l5.084 30.404L79.83 56.123l-5.617-30.187zm-13.87-7.496L27.869 30.32l.137.269 33.797-8.984-1.457-3.165zm0 5.227l-30.48 8.172.209.367 31.586-5.608-1.314-2.931z" class="color-300"/><path fill="#000" d="M60.345 18.44L27.867 30.32l.137.269 33.798-8.984-1.457-3.165zm0 5.227l-30.481 8.172.209.367 31.585-5.608-1.313-2.931z" class="color-shadow" opacity=".1"/><path fill="#FFF" d="M75.408 32.777l-1.244-7.053-6.95 1.339s2.288 6.755 8.194 5.714zm2.919 16.23c-5.905 1.04-5.746 8.17-5.746 8.17l6.99-1.117-1.244-7.053zm-61.664 11.03l1.243 7.054 6.95-1.34s-2.288-6.754-8.193-5.713zm30.736-5.59c4.352-.767 7.495-5.237 6.728-9.588-.767-4.351-5.285-7.4-9.636-6.633-4.351.768-7.357 5.34-6.59 9.692.767 4.35 5.147 7.296 9.498 6.529zM14.095 43.219c5.906-1.041 5.746-8.172 5.746-8.172l-6.99 1.119 1.244 7.053zM62.03 23.026l-1.77-4.887-5.2 2.039s1.12 4.595 6.535 3.21c.133.939 1.04 4.619 6.99 2.938.017.063-1.051-5.125-1.051-5.125l-5.504 1.825z" class="color-100"/><path fill="#005CB9" d="M47.396 54.242a8 8 0 1 1-2.777-15.76 8 8 0 0 1 2.777 15.76zm.347 1.97c5.44-.96 9.071-6.146 8.112-11.585-.959-5.44-6.146-9.071-11.585-8.112-5.439.959-9.07 6.146-8.11 11.585.958 5.439 6.144 9.07 11.583 8.112zM28.211 30.369l25.715-9.36c.202.808.541 1.55.988 2.205l-26.703 7.155zm33.03-8.851l-4.224 1.132a4.843 4.843 0 0 1-1.197-2.33l3.456-1.258a1.002 1.002 0 0 1 1.287.595l.678 1.86zm-50.073 15.15a2.78 2.78 0 0 0-.125 1.444l4.931 27.964a2.805 2.805 0 0 0 3.25 2.272l59.47-10.486a2.804 2.804 0 0 0 2.277-3.247l-4.93-27.964a2.806 2.806 0 0 0-3.25-2.272l-2.685.473-.649-2.423a3.006 3.006 0 0 0-3.675-2.128l-2.602.698-.738-2.026a3.001 3.001 0 0 0-3.85-1.79l-45.446 16.54a3.008 3.008 0 0 0-1.978 2.946zm19.226-4.814l29.607-7.933c.22.926.605 1.773 1.12 2.515l-30.727 5.418zM68.13 25.2l-4.748.837a5.422 5.422 0 0 1-1.447-2.635l4.366-1.17a1.006 1.006 0 0 1 1.225.713l.604 2.255zm-.124 2.052l5.132-.905a.806.806 0 0 1 .933.65l.904 5.126a6.033 6.033 0 0 1-6.969-4.871zm5.21 29.544c-.549-3.26 1.588-6.34 4.884-6.953l.902 5.118a.804.804 0 0 1-.655.93l-5.132.905zM24.05 65.466l-5.173.913a.807.807 0 0 1-.934-.65l-.902-5.12c3.322-.575 6.407 1.593 7.01 4.857zm-5.209-29.544c.554 3.276-1.604 6.373-4.925 6.968l-.904-5.125a.805.805 0 0 1 .655-.931l5.174-.912zm1.97-.347L66.035 27.6a8.033 8.033 0 0 0 9.286 6.492l2.43 13.78a8.034 8.034 0 0 0-6.506 9.272L26.02 65.119a8.034 8.034 0 0 0-9.327-6.48l-2.43-13.78a8.035 8.035 0 0 0 6.548-9.284z" class="color-500"/></g><g class="animate-left"><path fill="#40A0FF" d="M38.572 77.237C36.508 78.357 33.754 79 31 79c-5.5 0-11-2.567-11-6.364v-2.545l11 4.738 11-4.738v2.545c0 1.896-1.371 3.485-3.428 4.601" class="color-300"/><path fill="#A6D2FF" d="M31 75c-6.075 0-11-3.358-11-7.5 0-4.142 4.925-7.5 11-7.5s11 3.358 11 7.5c0 4.142-4.925 7.5-11 7.5" class="color-200"/><path fill="#FFF" d="M31 71.417c-3.866 0-7-1.828-7-4.083 0-2.256 3.134-4.084 7-4.084s7 1.828 7 4.084c0 2.255-3.134 4.083-7 4.083" class="color-100"/><path fill="#000" d="M31 75c-6.075 0-11-3.358-11-7.5 0-4.142 4.925-7.5 11-7.5s11 3.358 11 7.5c0 4.142-4.925 7.5-11 7.5" class="color-shadow" opacity=".1"/><path fill="#005CB9" d="M31 71.417c-3.866 0-7-1.828-7-4.083 0-2.256 3.134-4.084 7-4.084s7 1.828 7 4.084c0 2.255-3.134 4.083-7 4.083zm0 2c4.825 0 9-2.435 9-6.083s-4.175-6.084-9-6.084-9 2.436-9 6.084c0 3.648 4.175 6.083 9 6.083zM31 75c-6.075 0-11-3.358-11-7.5 0-4.142 4.925-7.5 11-7.5s11 3.358 11 7.5c0 4.142-4.925 7.5-11 7.5zm12.997-7.301c.002-.066.003-.132.003-.2 0-5.444-5.947-9.5-13-9.5s-13 4.056-13 9.5c0 .068.001.134.003.2H18v4.938C18 77.665 24.163 81 31 81c3.071 0 6.154-.718 8.525-2.004C42.286 77.498 44 75.288 44 72.636V67.7l-.003-.001zM22 76.295c-1.239-1.004-2-2.246-2-3.658v-.02c.567.655 1.24 1.25 2 1.777v1.9zm18 0v-1.901a10.692 10.692 0 0 0 2-1.776v.019c0 1.412-.761 2.654-2 3.658zm-2 1.232c-.621.294-1.293.548-2 .759v-2.002a15.44 15.44 0 0 0 2-.753v1.996zm-6 1.445v-2a17.804 17.804 0 0 0 2-.222v1.998c-.655.11-1.325.187-2 .224zm-6-.686a14.125 14.125 0 0 1-2-.76v-1.995a15.44 15.44 0 0 0 2 .753v2.002zm2 .462V76.75c.651.11 1.319.186 2 .223v1.999a17.833 17.833 0 0 1-2-.224z" class="color-500"/><path fill="#40A0FF" d="M41.572 69.237C39.508 70.357 36.754 71 34 71c-5.5 0-11-2.567-11-6.364v-2.545l11 4.738 11-4.738v2.545c0 1.896-1.371 3.485-3.428 4.601" class="color-300"/><path fill="#A6D2FF" d="M34 67c-6.075 0-11-3.358-11-7.5 0-4.142 4.925-7.5 11-7.5s11 3.358 11 7.5c0 4.142-4.925 7.5-11 7.5" class="color-200"/><path fill="#FFF" d="M34 63.417c-3.866 0-7-1.828-7-4.083 0-2.256 3.134-4.084 7-4.084s7 1.828 7 4.084c0 2.255-3.134 4.083-7 4.083" class="color-100"/><path fill="#005CB9" d="M34 63.417c-3.866 0-7-1.828-7-4.083 0-2.256 3.134-4.084 7-4.084s7 1.828 7 4.084c0 2.255-3.134 4.083-7 4.083zm0 2c4.825 0 9-2.435 9-6.083s-4.175-6.084-9-6.084-9 2.436-9 6.084c0 3.648 4.175 6.083 9 6.083zM34 67c-6.075 0-11-3.358-11-7.5 0-4.142 4.925-7.5 11-7.5s11 3.358 11 7.5c0 4.142-4.925 7.5-11 7.5zm12.997-7.301c.002-.066.003-.132.003-.2 0-5.444-5.947-9.5-13-9.5s-13 4.056-13 9.5c0 .068.001.134.003.2H21v4.938C21 69.665 27.163 73 34 73c3.071 0 6.154-.718 8.525-2.004C45.286 69.498 47 67.288 47 64.636V59.7l-.003-.001zM25 68.295c-1.239-1.004-2-2.246-2-3.658v-.02c.567.655 1.24 1.25 2 1.777v1.9zm18 0v-1.901a10.692 10.692 0 0 0 2-1.776v.019c0 1.412-.761 2.654-2 3.658zm-2 1.232c-.621.294-1.293.548-2 .759v-2.002a15.44 15.44 0 0 0 2-.753v1.996zm-6 1.445v-2a17.804 17.804 0 0 0 2-.222v1.998c-.655.11-1.325.187-2 .224zm-6-.686a14.125 14.125 0 0 1-2-.76v-1.995a15.44 15.44 0 0 0 2 .753v2.002zm2 .462V68.75c.651.11 1.319.186 2 .223v1.999a17.833 17.833 0 0 1-2-.224z" class="color-500"/></g><g class="animate-right"><path fill="#FFF" d="M82.114 55.898L69.877 45.005c-.685-.61-1.24-.356-1.24.567v6.53c-8.813.073-15.777 7.295-15.777 16.198 0 .333.024.663.045.993-.002.023-.001.045-.001.067 0 .106.02.206.044.304.134.535.61.932 1.182.932.441 0 .826-.24 1.04-.595.044-.117.07-.231.118-.345 1.748-4.156 6.188-7.126 13.348-7.163v5.938c0 .923.556 1.177 1.24.567l12.238-10.891c.685-.61.685-1.599 0-2.21z" class="color-100"/><path fill="#005CB9" fill-rule="nonzero" d="M82.114 55.898L69.877 45.005c-.685-.61-1.24-.356-1.24.567v6.53c-8.813.073-15.777 7.295-15.777 16.198 0 .333.024.663.045.993-.001.173.02.273.043.371.134.535.61.932 1.182.932.441 0 .826-.24 1.04-.595.044-.117.07-.231.118-.345 1.748-4.156 6.188-7.126 13.348-7.163v5.938c0 .923.556 1.177 1.24.567l12.238-10.891c.685-.61.685-1.599 0-2.21zM57.126 70.445c-.032.114-.05.17-.085.263a2 2 0 0 1-.158.325 3.214 3.214 0 0 1-2.753 1.563c-1.49 0-2.764-1.022-3.126-2.462-.064-.266-.1-.49-.1-.774a15.628 15.628 0 0 1-.044-1.06c0-9.338 6.834-17.01 15.776-18.073v-4.655c0-2.64 2.59-3.826 4.57-2.061l12.238 10.893c1.578 1.407 1.578 3.79 0 5.197L71.207 70.49c-1.982 1.765-4.57.58-4.57-2.06v-3.838c-4.895.473-8.149 2.612-9.51 5.852z" class="color-500"/></g></g></svg>