<svg xmlns="http://www.w3.org/2000/svg" width="92" height="92" class="wd-applet wd-applet-total-spend-ytd" focusable="false" role="presentation" viewBox="0 0 92 92"><g fill="none" fill-rule="evenodd" class="wd-icon-container"><g fill="#0B77E3" fill-opacity=".2" class="animate-flood"><path d="M46 82c19.882 0 36-16.118 36-36S65.882 10 46 10 10 26.118 10 46s16.118 36 36 36z" class="color-400-alpha-20"/></g><g class="animate-shrink"><path fill="#FFF" d="M19 33h54v35.565A2.425 2.425 0 0 1 70.575 71h-49.15A2.434 2.434 0 0 1 19 68.565V33z" class="color-100"/><path fill="#40A0FF" d="M43 41.99c0-.546.451-.99.99-.99h4.02c.546 0 .99.451.99.99v4.02c0 .546-.451.99-.99.99h-4.02a.996.996 0 0 1-.99-.99v-4.02zm10 0c0-.546.451-.99.99-.99h4.02c.546 0 .99.451.99.99v4.02c0 .546-.451.99-.99.99h-4.02a.996.996 0 0 1-.99-.99v-4.02zm10 0c0-.546.451-.99.99-.99h4.02c.546 0 .99.451.99.99v4.02c0 .546-.451.99-.99.99h-4.02a.996.996 0 0 1-.99-.99v-4.02zm-20 10c0-.546.451-.99.99-.99h4.02c.546 0 .99.451.99.99v4.02c0 .546-.451.99-.99.99h-4.02a.996.996 0 0 1-.99-.99v-4.02zm10 0c0-.546.451-.99.99-.99h4.02c.546 0 .99.451.99.99v4.02c0 .546-.451.99-.99.99h-4.02a.996.996 0 0 1-.99-.99v-4.02zm10 0c0-.546.451-.99.99-.99h4.02c.546 0 .99.451.99.99v4.02c0 .546-.451.99-.99.99h-4.02a.996.996 0 0 1-.99-.99v-4.02zm-10 10c0-.546.451-.99.99-.99h4.02c.546 0 .99.451.99.99v4.02c0 .546-.451.99-.99.99h-4.02a.996.996 0 0 1-.99-.99v-4.02zm10 0c0-.546.451-.99.99-.99h4.02c.546 0 .99.451.99.99v4.02c0 .546-.451.99-.99.99h-4.02a.996.996 0 0 1-.99-.99v-4.02zm-40-10c0-.546.451-.99.99-.99h4.02c.546 0 .99.451.99.99v4.02c0 .546-.451.99-.99.99h-4.02a.996.996 0 0 1-.99-.99v-4.02zm10 0c0-.546.451-.99.99-.99h4.02c.546 0 .99.451.99.99v4.02c0 .546-.451.99-.99.99h-4.02a.996.996 0 0 1-.99-.99v-4.02zm10 10c0-.546.451-.99.99-.99h4.02c.546 0 .99.451.99.99v4.02c0 .546-.451.99-.99.99h-4.02a.996.996 0 0 1-.99-.99v-4.02zm-20 0c0-.546.451-.99.99-.99h4.02c.546 0 .99.451.99.99v4.02c0 .546-.451.99-.99.99h-4.02a.996.996 0 0 1-.99-.99v-4.02zm10 0c0-.546.451-.99.99-.99h4.02c.546 0 .99.451.99.99v4.02c0 .546-.451.99-.99.99h-4.02a.996.996 0 0 1-.99-.99v-4.02z" class="color-300"/><path fill="#A6D2FF" d="M33 41.99c0-.546.451-.99.99-.99h4.02c.546 0 .99.451.99.99v4.02c0 .546-.451.99-.99.99h-4.02a.996.996 0 0 1-.99-.99v-4.02zm-10 0c0-.546.451-.99.99-.99h4.02c.546 0 .99.451.99.99v4.02c0 .546-.451.99-.99.99h-4.02a.996.996 0 0 1-.99-.99v-4.02z" class="color-200"/><path fill="#40A0FF" d="M70.575 21A2.426 2.426 0 0 1 73 23.428V33H19v-9.572A2.422 2.422 0 0 1 21.425 21h49.15zM29 25a2 2 0 1 0 0 4 2 2 0 0 0 0-4zm34 0a2 2 0 1 0 0 4 2 2 0 0 0 0-4z" class="color-300"/><path fill="#005CB9" fill-rule="nonzero" d="M19 23.429V68.57A2.43 2.43 0 0 0 21.425 71h49.15A2.422 2.422 0 0 0 73 68.571V23.43A2.43 2.43 0 0 0 70.575 21h-49.15A2.422 2.422 0 0 0 19 23.429zM29 29a2 2 0 1 0 0-4 2 2 0 0 0 0 4zm0 2a4 4 0 1 1 0-8 4 4 0 0 1 0 8zm34-2a2 2 0 1 0 0-4 2 2 0 0 0 0 4zm0 2a4 4 0 1 1 0-8 4 4 0 0 1 0 8zm-46-7.571A4.422 4.422 0 0 1 21.425 19h49.15A4.43 4.43 0 0 1 75 23.429V68.57A4.422 4.422 0 0 1 70.575 73h-49.15A4.43 4.43 0 0 1 17 68.571V23.43z" class="color-500"/><path fill="#0B77E3" d="M19 33h54v4H19z" class="color-400"/></g><g class="animate-sink"><path fill="#40A0FF" d="M56.428 79.237C58.492 80.357 61.246 81 64 81c5.5 0 11-2.566 11-6.364v-2.545L64 76.83l-11-4.74v2.546c0 1.896 1.371 3.485 3.428 4.601z" class="color-300"/><path fill="#A6D2FF" d="M64 77c6.075 0 11-3.358 11-7.5 0-4.142-4.925-7.5-11-7.5s-11 3.358-11 7.5c0 4.142 4.925 7.5 11 7.5z" class="color-200"/><path fill="#FFF" d="M64 73.417c3.866 0 7-1.829 7-4.084s-3.134-4.083-7-4.083-7 1.828-7 4.083 3.134 4.084 7 4.084z" class="color-100"/><path fill="#000" d="M64 77c6.075 0 11-3.358 11-7.5 0-4.142-4.925-7.5-11-7.5s-11 3.358-11 7.5c0 4.142 4.925 7.5 11 7.5z" class="color-shadow" opacity=".1"/><path fill="#005CB9" d="M67 80.748V78.75c-.65.11-1.319.185-2 .223v1.999a18.068 18.068 0 0 0 2-.224zm2-.463c.707-.21 1.379-.464 2-.758V77.53c-.633.292-1.302.544-2 .753v2.002zm-6 .687v-2a17.747 17.747 0 0 1-2-.222v1.998c.655.11 1.325.186 2 .224zm-6-1.445c.621.294 1.293.548 2 .758v-2.002a15.227 15.227 0 0 1-2-.753v1.997zm-2-1.233v-1.9a10.736 10.736 0 0 1-2-1.776v.018c0 1.413.761 2.655 2 3.658zm18 0c1.239-1.003 2-2.245 2-3.658v-.018c-.567.654-1.24 1.25-2 1.776v1.9zM51.003 69.7A7.448 7.448 0 0 1 51 69.5c0-5.445 5.947-9.5 13-9.5s13 4.055 13 9.5c0 .067 0 .133-.003.199L77 69.7v4.936C77 79.665 70.837 83 64 83c-3.071 0-6.153-.718-8.525-2.005C52.714 79.498 51 77.287 51 74.636V69.7l.003-.001zM64 77c6.075 0 11-3.358 11-7.5 0-4.142-4.925-7.5-11-7.5s-11 3.358-11 7.5c0 4.142 4.925 7.5 11 7.5zm0-1.583c-4.825 0-9-2.436-9-6.084 0-3.648 4.175-6.083 9-6.083s9 2.435 9 6.083-4.175 6.084-9 6.084zm0-2c3.866 0 7-1.829 7-4.084s-3.134-4.083-7-4.083-7 1.828-7 4.083 3.134 4.084 7 4.084z" class="color-500"/></g><path fill="#40A0FF" d="M53.428 71.237C55.492 72.357 58.246 73 61 73c5.5 0 11-2.566 11-6.364v-2.545L61 68.83l-11-4.74v2.546c0 1.896 1.371 3.485 3.428 4.601z" class="color-300"/><path fill="#A6D2FF" d="M61 69c6.075 0 11-3.358 11-7.5 0-4.142-4.925-7.5-11-7.5s-11 3.358-11 7.5c0 4.142 4.925 7.5 11 7.5z" class="color-200"/><path fill="#FFF" d="M61 65.417c-3.866 0-7-1.829-7-4.084s3.134-4.083 7-4.083 7 1.828 7 4.083-3.134 4.084-7 4.084z" class="color-100"/><path fill="#000" d="M61 69c6.075 0 11-3.358 11-7.5 0-4.142-4.925-7.5-11-7.5s-11 3.358-11 7.5c0 4.142 4.925 7.5 11 7.5z" class="color-shadow" opacity=".1"/><path fill="#005CB9" fill-rule="nonzero" d="M61 52c7.053 0 13 4.055 13 9.5 0 .067 0 .133-.003.199L74 66.636C74 71.665 67.837 75 61 75c-3.071 0-6.153-.718-8.525-2.005C49.714 71.498 48 69.287 48 66.636V61.7v-.2c0-5.445 5.947-9.5 13-9.5zm-3 18.75v1.998c.655.11 1.325.186 2 .224v-2a17.747 17.747 0 0 1-2-.222zm6 0c-.65.11-1.319.185-2 .223v1.999a18.068 18.068 0 0 0 2-.224V70.75zm-10-1.22v1.997c.621.294 1.293.548 2 .758v-2.002a15.227 15.227 0 0 1-2-.753zm14 0c-.633.292-1.302.544-2 .753v2.002c.707-.21 1.379-.464 2-.758V69.53zm4-2.912c-.567.654-1.24 1.25-2 1.776v1.9c1.239-1.003 2-2.245 2-3.658v-.018zm-22 0v.018c0 1.413.761 2.655 2 3.658v-1.9a10.736 10.736 0 0 1-2-1.776zM61 54c-6.075 0-11 3.358-11 7.5 0 4.142 4.925 7.5 11 7.5s11-3.358 11-7.5c0-4.142-4.925-7.5-11-7.5zm0 1.25c4.825 0 9 2.435 9 6.083s-4.175 6.084-9 6.084-9-2.436-9-6.084c0-3.648 4.175-6.083 9-6.083zm0 2c-3.866 0-7 1.828-7 4.083s3.134 4.084 7 4.084 7-1.829 7-4.084-3.134-4.083-7-4.083z" class="color-500"/><g class="animate-float"><path fill="#40A0FF" d="M59.428 65.237C61.492 66.357 64.246 67 67 67c5.5 0 11-2.566 11-6.364v-2.545L67 62.83l-11-4.74v2.546c0 1.896 1.371 3.485 3.428 4.601z" class="color-300"/><path fill="#A6D2FF" d="M67 63c6.075 0 11-3.358 11-7.5 0-4.142-4.925-7.5-11-7.5s-11 3.358-11 7.5c0 4.142 4.925 7.5 11 7.5z" class="color-200"/><path fill="#FFF" d="M67 59.417c3.866 0 7-1.829 7-4.084s-3.134-4.083-7-4.083-7 1.828-7 4.083 3.134 4.084 7 4.084z" class="color-100"/><path fill="#005CB9" d="M70 66.748V64.75c-.65.11-1.319.185-2 .223v1.999a18.068 18.068 0 0 0 2-.224zm2-.463c.707-.21 1.379-.464 2-.758V63.53c-.633.292-1.302.544-2 .753v2.002zm-6 .687v-2a17.747 17.747 0 0 1-2-.222v1.998c.655.11 1.325.186 2 .224zm-6-1.445c.621.294 1.293.548 2 .758v-2.002a15.227 15.227 0 0 1-2-.753v1.997zm-2-1.233v-1.9a10.736 10.736 0 0 1-2-1.776v.018c0 1.413.761 2.655 2 3.658zm18 0c1.239-1.003 2-2.245 2-3.658v-.018c-.567.654-1.24 1.25-2 1.776v1.9zM54.003 55.7A7.448 7.448 0 0 1 54 55.5c0-5.445 5.947-9.5 13-9.5s13 4.055 13 9.5c0 .067 0 .133-.003.199L80 55.7v4.936C80 65.665 73.837 69 67 69c-3.071 0-6.153-.718-8.525-2.005C55.714 65.498 54 63.287 54 60.636V55.7l.003-.001zM67 63c6.075 0 11-3.358 11-7.5 0-4.142-4.925-7.5-11-7.5s-11 3.358-11 7.5c0 4.142 4.925 7.5 11 7.5zm0-1.583c-4.825 0-9-2.436-9-6.084 0-3.648 4.175-6.083 9-6.083s9 2.435 9 6.083-4.175 6.084-9 6.084zm0-2c3.866 0 7-1.829 7-4.084s-3.134-4.083-7-4.083-7 1.828-7 4.083 3.134 4.084 7 4.084z" class="color-500"/></g></g></svg>