<svg xmlns="http://www.w3.org/2000/svg" width="92" height="92" class="wd-applet wd-applet-trainer-systems" focusable="false" role="presentation" viewBox="0 0 92 92"><g fill="none" fill-rule="evenodd" class="wd-icon-container"><g fill="#0B77E3" fill-opacity=".2" class="animate-flood"><path d="M46 82c19.882 0 36-16.118 36-36S65.882 10 46 10 10 26.118 10 46s16.118 36 36 36z" class="color-400-alpha-20"/></g><g class="animate-shrink"><path fill="#005CB9" fill-rule="nonzero" d="M2 17a2 2 0 0 1-2-2V8.5C0 3.81 3.808 0 8.5 0H19a2 2 0 0 1 2 2v13a2 2 0 0 1-2 2H2zm0-2h17V2H8.5C4.91 2 2 4.917 2 8.5V15z" class="color-500" transform="translate(18 9)"/><rect width="42" height="64" x="7" y="2" fill="#40A0FF" class="color-300" rx="1" transform="translate(18 9)"/><path fill="#005CB9" fill-rule="nonzero" d="M48.003 68A2.996 2.996 0 0 0 51 64.995V3.005A3 3 0 0 0 48.003 0H7.997A2.996 2.996 0 0 0 5 3.005v61.99A3 3 0 0 0 7.997 68h40.006zm0-2H7.997A1 1 0 0 1 7 64.995V3.005A.996.996 0 0 1 7.997 2h40.006A1 1 0 0 1 49 3.005v61.99A.996.996 0 0 1 48.003 66z" class="color-500" transform="translate(18 9)"/><rect width="48" height="64" x="4" y="5" fill="#A6D2FF" class="color-200" rx="1" transform="translate(18 9)"/><path fill="#005CB9" fill-rule="nonzero" d="M50.997 3A3 3 0 0 1 54 6.005v61.99A3.001 3.001 0 0 1 50.997 71H5.003A3 3 0 0 1 2 67.995V6.005A3.001 3.001 0 0 1 5.003 3h45.994zm0 2H5.003C4.445 5 4 5.45 4 6.005v61.99A1 1 0 0 0 5.003 69h45.994c.558 0 1.003-.45 1.003-1.005V6.005A1 1 0 0 0 50.997 5z" class="color-500" transform="translate(18 9)"/><rect width="52" height="64" x="2" y="8" fill="#FFF" class="color-100" rx="1" transform="translate(18 9)"/><path fill="#0B77E3" d="M2 8.995C2 8.445 2.443 8 3.01 8H6v65H3.01C2.451 73 2 72.55 2 72.005V8.995z" class="color-400" transform="translate(18 9)"/><path fill="#005CB9" fill-rule="nonzero" d="M53.008 6A2.994 2.994 0 0 1 56 9.005v61.99A3.002 3.002 0 0 1 53.008 74H2.992A2.994 2.994 0 0 1 0 70.995V9.005A3.002 3.002 0 0 1 2.992 6h50.016zm0 2H2.992C2.45 8 2 8.45 2 9.005v61.99A.994.994 0 0 0 2.992 72h50.016c.542 0 .992-.45.992-1.005V9.005A.994.994 0 0 0 53.008 8z" class="color-500" transform="translate(18 9)"/><path fill="#005CB9" d="M6 8h2v64H6z" class="color-500" transform="translate(18 9)"/><path fill="#005CB9" fill-rule="nonzero" d="M6 6a2 2 0 0 1 2 2v64a2 2 0 0 1-2 2H3.01A3.003 3.003 0 0 1 0 70.995V9.005A3.002 3.002 0 0 1 3.01 6H6zm0 2H3.01C2.442 8 2 8.45 2 9.005v61.99C2 71.557 2.452 72 3.01 72H6V8z" class="color-500" transform="translate(18 9)"/><path fill="#40A0FF" d="M56 14h2.99c.558 0 1.01.456 1.01.995v8.01c0 .55-.443.995-1.01.995H56V14zm0 16h2.99c.558 0 1.01.456 1.01.995v8.01c0 .55-.443.995-1.01.995H56V30zm0 16h2.99c.558 0 1.01.456 1.01.995v8.01c0 .55-.443.995-1.01.995H56V46z" class="color-300" transform="translate(18 9)"/><path fill="#005CB9" fill-rule="nonzero" d="M58.99 44A3.009 3.009 0 0 1 62 46.995v8.01A2.997 2.997 0 0 1 58.99 58H56a2 2 0 0 1-2-2V46a2 2 0 0 1 2-2h2.99zm0 2H56v10h2.99a.997.997 0 0 0 1.01-.995v-8.01c0-.54-.452-.995-1.01-.995zm0-18A3.009 3.009 0 0 1 62 30.995v8.01A2.997 2.997 0 0 1 58.99 42H56a2 2 0 0 1-2-2V30a2 2 0 0 1 2-2h2.99zm0 2H56v10h2.99a.997.997 0 0 0 1.01-.995v-8.01c0-.54-.452-.995-1.01-.995zm0-18A3.009 3.009 0 0 1 62 14.995v8.01A2.997 2.997 0 0 1 58.99 26H56a2 2 0 0 1-2-2V14a2 2 0 0 1 2-2h2.99zm0 2H56v10h2.99a.997.997 0 0 0 1.01-.995v-8.01c0-.54-.452-.995-1.01-.995z" class="color-500" transform="translate(18 9)"/><path fill="#0B77E3" d="M34.808 34.31c.909 1.198 2.273 2.033 4.006 2.433 1.733.401 3.34.253 4.9-.451.522.432.963.871 1.491 1.383-.134.333-.268.665-.322.99-.297 1.309-.159 2.977.448 4.443.607 1.465 1.51 2.582 2.62 3.28-.128.413-.182.738-.243.984-.06.245-.114.57-.242.983-1.285.118-2.605.8-3.811 1.872-.228.181-.456.362-.597.616-.891.962-1.522 2.141-1.758 3.204-.054.325-.101.73-.155 1.055-.63.218-1.266.357-1.976.582-1.082-1.34-2.447-2.176-4.253-2.49-1.814-.393-3.333-.172-4.733.517l-.696-.576c-.267-.296-.615-.584-.875-.8.134-.333.268-.665.396-1.077.06-.246.048-.405.115-.571.225-3.143-.776-5.453-3.09-7 .189-.659.29-1.389.479-2.046 1.6-.228 2.839-.903 3.965-1.967.824-.797 1.468-1.817 2.012-3.068.067-.166.135-.332.195-.578.128-.412.095-.81.149-1.135.395-.116.79-.233 1.105-.342l.87-.24zm1.135 7.113c-1.94.614-3.04 2.713-2.457 4.688.583 1.976 2.63 3.08 4.57 2.466 1.942-.614 3.042-2.713 2.458-4.688-.583-1.976-2.63-3.08-4.57-2.466z" class="color-400" transform="translate(18 9)"/><path fill="#40A0FF" d="M18.093 23.742c1.053.612 2.342.818 3.78.59 1.437-.228 2.612-.824 3.583-1.819.527.163.995.355 1.551.574 0 .288-.002.575.056.832.172 1.06.783 2.254 1.689 3.156.905.902 1.929 1.457 2.984 1.638.022.276.063.496.094.675l.02.127c.028.2.086.458.114.802-.94.477-1.735 1.382-2.325 2.542-.118.203-.236.406-.267.637-.384.983-.506 2.048-.362 2.907.057.257.144.571.202.829-.412.352-.853.647-1.323 1.03-1.23-.667-2.518-.873-3.985-.558-1.496.258-2.583.881-3.437 1.816l-.703-.217c-.293-.138-.644-.246-.907-.327 0-.288.002-.575-.026-.919-.029-.2-.087-.314-.087-.458-.782-2.397-2.243-3.806-4.47-4.252-.056-.545-.2-1.116-.257-1.661 1.146-.653 1.882-1.528 2.414-2.658.385-.84.564-1.791.597-2.883 0-.143.001-.287-.027-.488-.028-.344-.174-.628-.231-.885.264-.206.529-.412.735-.588l.588-.442zm3.02 4.927a3 3 0 1 0 3.775 4.662 3 3 0 0 0-3.776-4.662z" class="color-300" transform="translate(18 9)"/></g></g></svg>