<svg xmlns="http://www.w3.org/2000/svg" width="92" height="92" class="wd-applet wd-applet-triangle" focusable="false" role="presentation" viewBox="0 0 92 92"><g fill="none" fill-rule="evenodd" class="wd-icon-container"><g fill="#0B77E3" fill-opacity=".2" class="animate-flood"><path d="M46 84c19.882 0 36-16.118 36-36S65.882 12 46 12 10 28.118 10 48s16.118 36 36 36z" class="color-400-alpha-20"/></g><g class="animate-shrink"><path fill="#005CB9" fill-rule="nonzero" d="M47.425 10.465a3 3 0 0 1 1.215 1.216l32.324 59.894A3 3 0 0 1 78.324 76H13.676a3 3 0 0 1-2.64-4.425L43.36 11.681a3 3 0 0 1 4.065-1.216zm-2.305 2.166L12.796 72.525a1 1 0 0 0 .88 1.475h64.648a1 1 0 0 0 .88-1.475L46.88 12.631a1 1 0 0 0-1.76 0z" class="color-500"/><path fill="#FFF" d="M46.88 12.63l32.324 59.895a1 1 0 0 1-.88 1.475H13.676a1 1 0 0 1-.88-1.475L45.12 12.631a1 1 0 0 1 1.76 0z" class="color-100"/></g></g></svg>