<svg xmlns="http://www.w3.org/2000/svg" width="92" height="92" class="wd-applet wd-applet-troubleshoot-security" focusable="false" role="presentation" viewBox="0 0 92 92"><g fill="none" fill-rule="evenodd" class="wd-icon-container"><g fill="#0B77E3" fill-opacity=".2" class="animate-flood"><path d="M46 82c19.882 0 36-16.118 36-36S65.882 10 46 10 10 26.118 10 46s16.118 36 36 36z" class="color-400-alpha-20"/></g><g class="animate-shrink"><path fill="#FFF" d="M75.971 41.738a13.725 13.725 0 0 0-7.884-3.902 19.553 19.553 0 0 0-1.34-4.83 19.664 19.664 0 0 0-4.213-6.248 19.664 19.664 0 0 0-6.248-4.213A19.796 19.796 0 0 0 48.593 21c-.484 0-.964.023-1.44.057a18.255 18.255 0 0 0-6.256 1.431A19.665 19.665 0 0 0 30.524 32.77a6.725 6.725 0 0 0-3.01-.713 6.77 6.77 0 0 0-6.77 6.77c0 1.055.249 2.05.678 2.94a11.834 11.834 0 0 0-8.204 6.366A11.764 11.764 0 0 0 12 53.346c0 6.267 4.878 11.38 11.044 11.785l5.85.04H47.152l7.294-.002h11.798c3.79 0 7.242-1.543 9.725-4.031A13.722 13.722 0 0 0 80 51.409c0-1.129-.152-2.222-.41-3.276a13.874 13.874 0 0 0-3.619-6.395z" class="color-100"/><path fill="#005CB9" fill-rule="nonzero" d="M75.971 41.738a13.725 13.725 0 0 0-7.884-3.902 19.553 19.553 0 0 0-1.34-4.83 19.664 19.664 0 0 0-4.213-6.248 19.664 19.664 0 0 0-6.248-4.213A19.796 19.796 0 0 0 48.593 21c-.484 0-.964.023-1.44.057a18.255 18.255 0 0 0-6.256 1.431A19.665 19.665 0 0 0 30.524 32.77a6.725 6.725 0 0 0-3.01-.713 6.77 6.77 0 0 0-6.77 6.77c0 1.055.249 2.05.678 2.94a11.834 11.834 0 0 0-8.204 6.366A11.764 11.764 0 0 0 12 53.346c0 6.267 4.834 11.38 11 11.785L66 65c3.79 0 7.486-1.374 9.97-3.862A13.722 13.722 0 0 0 80 51.409c0-1.129-.152-2.222-.41-3.276a13.874 13.874 0 0 0-3.619-6.395zm-57.227-2.911a8.77 8.77 0 0 1 10.766-8.539 21.665 21.665 0 0 1 10.61-9.642 20.164 20.164 0 0 1 6.89-1.584c.568-.04 1.082-.062 1.583-.062 2.94 0 5.83.586 8.472 1.703a21.662 21.662 0 0 1 6.883 4.64 21.664 21.664 0 0 1 4.641 6.884c.529 1.25.938 2.554 1.223 3.893a15.725 15.725 0 0 1 7.574 4.205c1.996 1.993 3.431 4.523 4.148 7.333.307 1.256.467 2.503.466 3.75 0 4.231-1.685 8.217-4.615 11.142C74.46 65.483 70.23 67 66 67l-43 .002c-7.364-.48-13-6.364-13-13.656 0-2.135.493-4.205 1.424-6.097a13.858 13.858 0 0 1 7.47-6.82 8.672 8.672 0 0 1-.15-1.602z" class="color-500"/></g><g class="animate-grow"><path fill="#FFF" d="M54 58h9v13h-9z" class="color-100"/><path fill="#A6D2FF" d="M54 47.002A5.004 5.004 0 0 1 59 42a5 5 0 0 1 5 5.002V51h4v-4.003C68 42.032 63.97 38 59 38c-4.972 0-9 4.028-9 8.997V51h4v-3.998z" class="color-200"/><path fill="#005CB9" fill-rule="nonzero" d="M59 36c7.396 0 11 6.032 11 10.997V51h2.003A2.994 2.994 0 0 1 75 54.002v19.996A2.995 2.995 0 0 1 72.003 77H45.997A2.994 2.994 0 0 1 43 73.998V54.002A2.995 2.995 0 0 1 45.997 51H48v-4.003C48 42.028 51.604 36 59 36zm0 23a3 3 0 0 0-1 5.83v3.173c0 .544.448.997 1 .997.556 0 1-.446 1-.997v-3.174A3.001 3.001 0 0 0 59 59zm0-15c-1.39 0-3 1.19-3 3.002V51h6v-3.998C62 45.214 60.39 44 59 44zm0-6c-4.972 0-9 4.028-9 8.997V51h4v-3.998A5.004 5.004 0 0 1 59 42a5 5 0 0 1 5 5.002V51h4v-4.003C68 42.032 63.97 38 59 38z" class="color-500"/><path fill="#40A0FF" d="M72.003 53c.55 0 .997.44.997 1.002v19.996A.995.995 0 0 1 72.003 75H45.997A.994.994 0 0 1 45 73.998V54.002c0-.553.44-1.002.997-1.002h26.006zM59 57a5 5 0 0 0-3 9v2c0 1.651 1.343 3 3 3l.176-.005A3.003 3.003 0 0 0 62 68l.001-2A5 5 0 0 0 59 57z" class="color-300"/></g></g></svg>