<svg xmlns="http://www.w3.org/2000/svg" width="92" height="92" fill="none" class="wd-applet-user-cart-hub wd-applet" focusable="false" role="presentation" viewBox="0 0 92 92"><g class="wd-icon-container"><g class="animate-flood"><path fill="#0B77E3" fill-opacity=".2" fill-rule="evenodd" d="M46 82c19.882 0 36-16.118 36-36S65.882 10 46 10 10 26.118 10 46s16.118 36 36 36z" class="color-400-alpha-20" clip-rule="evenodd"/></g><path fill="#005CB9" d="M46 77c-17.12 0-31-13.88-31-31 0-17.12 13.88-31 31-31 17.12 0 31 13.88 31 31 0 17.12-13.88 31-31 31zm0-2c16.016 0 29-12.984 29-29S62.016 17 46 17 17 29.984 17 46s12.984 29 29 29z" class="color-500"/><g class="animate-grow"><path fill="#A6D2FF" d="M68 75c-7.18 0-13-5.819-13-13 0-7.18 5.819-13 13-13 7.18 0 13 5.819 13 13 0 7.18-5.819 13-13 13z" class="color-200"/><path fill="#fff" d="M60.5 59.5l4-5H72l4.5 5V69h-16v-9.5z" class="color-100"/><g fill="#005CB9" class="color-500"><path d="M55 62c0 7.181 5.82 13 13 13 7.181 0 13-5.82 13-13 0-7.181-5.82-13-13-13-7.181 0-13 5.82-13 13zm-2 0c0-8.285 6.715-15 15-15s15 6.715 15 15-6.715 15-15 15-15-6.715-15-15z"/><path fill-rule="evenodd" d="M67.25 64v-9.5h2V64h-2z" clip-rule="evenodd"/><path fill-rule="evenodd" d="M59.5 59.5a1 1 0 0 1 1-1h16a1 1 0 0 1 1 1V69a1 1 0 0 1-1 1h-16a1 1 0 0 1-1-1v-9.5zm2 1V68h14v-7.5h-14z" clip-rule="evenodd"/><path fill-rule="evenodd" d="M63.72 53.875a1 1 0 0 1 .78-.375H72a1 1 0 0 1 .743.331l4.5 5A1 1 0 0 1 76.5 60.5h-16a1 1 0 0 1-.78-1.625l4-5zm1.26 1.625l-2.4 3h11.675l-2.7-3H64.98z" clip-rule="evenodd"/></g></g><g class="animate-grow"><path fill="#A6D2FF" d="M24 75c-7.18 0-13-5.819-13-13 0-7.18 5.819-13 13-13 7.18 0 13 5.819 13 13 0 7.18-5.819 13-13 13z" class="color-200"/><path fill="#fff" d="M30 58H19l1 5h10v-5z" class="color-100"/><g fill="#005CB9" class="color-500"><path d="M22.204 57.14l.5 5.893 1.993-.17-.5-5.892-1.993.169zM28.249 57.096l-.25 5.893-1.998-.084.25-5.893 1.998.084z"/><path d="M11 62c0 7.181 5.82 13 13 13 7.181 0 13-5.82 13-13 0-7.181-5.82-13-13-13-7.181 0-13 5.82-13 13zm-2 0c0-8.285 6.715-15 15-15s15 6.715 15 15-6.715 15-15 15S9 70.285 9 62z"/><path d="M20.643 71.251a1.548 1.548 0 1 0 0-3.095 1.548 1.548 0 0 0 0 3.095zM29.452 71.251a1.548 1.548 0 1 0 0-3.095 1.548 1.548 0 0 0 0 3.095z"/><path fill-rule="evenodd" d="M16 52.84a1 1 0 0 0 0 2h1.029l3.355 11.657a1 1 0 0 0 .96.724h7.874a1 1 0 1 0 0-2h-7.12l-.305-1.057h8.317a1 1 0 0 0 .989-.853l.89-6.024A1 1 0 0 0 31 56.14H19.484l-.742-2.578a1 1 0 0 0-.96-.723H16zm4.06 5.3l1.158 4.024h8.029l.595-4.023H20.06z" clip-rule="evenodd"/></g></g><g class="animate-grow"><g fill="#A6D2FF" class="color-200"><path d="M46 33a12.956 12.956 0 0 1-9-3.619V28c0-1.66 1.338-3 2.992-3h12.016A2.995 2.995 0 0 1 55 28v1.381A12.956 12.956 0 0 1 46 33z"/><path d="M33 20c0 2.606.767 5.033 2.087 7.067A4.992 4.992 0 0 1 39.992 23h2.69A5.998 5.998 0 0 1 40 17.998v-2.996A6.004 6.004 0 0 1 46 9c3.314 0 6 2.688 6 6.002v2.996A6 6 0 0 1 49.315 23h2.693c2.439 0 4.47 1.75 4.905 4.067A12.94 12.94 0 0 0 59 20c0-7.181-5.82-13-13-13-7.181 0-13 5.82-13 13z"/></g><path fill="#40A0FF" fill-rule="evenodd" d="M37 29.381A12.956 12.956 0 0 0 46 33c3.493 0 6.664-1.377 9-3.619V28h.624H55c0-1.659-1.34-3-2.992-3H39.992A2.993 2.993 0 0 0 37 28h-.624H37v1.381z" class="color-300" clip-rule="evenodd"/><path fill="#fff" d="M46 10.5a4.5 4.5 0 0 1 4.5 4.5v3a4.5 4.5 0 1 1-9 0v-3a4.5 4.5 0 0 1 4.5-4.5z" class="color-100"/><path fill="#005CB9" d="M31 20c0-8.285 6.715-15 15-15s15 6.715 15 15-6.715 15-15 15-15-6.715-15-15zm6 9.381A12.956 12.956 0 0 0 46 33c3.493 0 6.664-1.377 9-3.619V28c0-1.659-1.34-3-2.992-3H39.992A2.993 2.993 0 0 0 37 28v1.381zm-1.913-2.314A4.992 4.992 0 0 1 39.992 23h12.016c2.439 0 4.47 1.75 4.905 4.067A12.94 12.94 0 0 0 59 20c0-7.181-5.82-13-13-13-7.181 0-13 5.82-13 13 0 2.606.767 5.033 2.087 7.067zM49.315 23h-6.632A5.998 5.998 0 0 1 40 17.998v-2.996A6.004 6.004 0 0 1 46 9c3.314 0 6 2.688 6 6.002v2.996A6 6 0 0 1 49.315 23zM42 15.002v2.996C42 20.208 43.79 22 46 22c2.205 0 4-1.792 4-4.002v-2.996C50 12.792 48.21 11 46 11c-2.205 0-4 1.792-4 4.002z" class="color-500"/></g></g></svg>