<svg xmlns="http://www.w3.org/2000/svg" width="92" height="92" class="wd-applet wd-applet-worksheets" focusable="false" role="presentation" viewBox="0 0 92 92"><g fill="none" fill-rule="evenodd" class="wd-icon-container"><g fill="#0B77E3" fill-opacity=".2" class="animate-flood"><path d="M46 85c19.882 0 36-16.118 36-36S65.882 13 46 13 10 29.118 10 49s16.118 36 36 36z" class="color-400-alpha-20"/></g><g class="animate-shrink"><path fill="#005CB9" fill-rule="nonzero" d="M0 3c0-1.66 1.341-3 3.005-3h61.99A2.998 2.998 0 0 1 68 3v56c0 1.66-1.341 3-3.005 3H3.005A2.998 2.998 0 0 1 0 59V3z" class="color-500" transform="translate(12 18)"/><path fill="#FFF" d="M2 12v7.837c0 .089.346.163.773.163H16v-8H2zm16 0v7.837c0 .089.37.163.828.163H33v-8H18zm17 0v7.837c0 .089.37.163.828.163H50v-8H35zm17 0v7.837c0 .089.346.163.773.163H66v-8H52zM2 22v7.837c0 .089.346.163.773.163H16v-8H2zm16 0v7.837c0 .089.37.163.828.163H33v-8H18zm17 0v7.837c0 .089.37.163.828.163H50v-8H35zm17 0v7.837c0 .089.346.163.773.163H66v-8H52zM2 32v7.837c0 .089.346.163.773.163H16v-8H2zm16 0v7.837c0 .089.37.163.828.163H33v-8H18zm17 0v7.837c0 .089.37.163.828.163H50v-8H35zm17 0v7.837c0 .089.346.163.773.163H66v-8H52zM2 42v7.837c0 .089.346.163.773.163H16v-8H2zm16 0v7.837c0 .089.37.163.828.163H33v-8H18zm17 0v7.837c0 .089.37.163.828.163H50v-8H35zm17 0v7.837c0 .089.346.163.773.163H66v-8H52zM2 52v7.837c0 .089.346.163.773.163H16v-8H2zm16 0v7.837c0 .089.37.163.828.163H33v-8H18zm17 0v7.837c0 .089.37.163.828.163H50v-8H35zm17 0v7.837c0 .089.346.163.773.163H66v-8H52z" class="color-100" transform="translate(12 18)"/><path fill="#40A0FF" d="M2 2.997C2 2.447 2.443 2 3.005 2h61.99C65.55 2 66 2.453 66 2.997V10H2V2.997z" class="color-300" transform="translate(12 18)"/><path fill="#005CB9" fill-rule="nonzero" d="M6 8a2 2 0 1 0 0-4 2 2 0 0 0 0 4zm6 0a2 2 0 1 0 0-4 2 2 0 0 0 0 4zm6 0a2 2 0 1 0 0-4 2 2 0 0 0 0 4z" class="color-500" transform="translate(12 18)"/><path fill="#0B77E3" fill-rule="nonzero" d="M35 19a1 1 0 0 1 1 1v12a1 1 0 0 1-1 1H15a1 1 0 0 1-1-1V20a1 1 0 0 1 1-1h20zm-1 2H16v10h18V21z" class="color-500" transform="translate(12 18)"/><path fill="#A6D2FF" d="M16 21h18v10H16z" class="color-200" transform="translate(12 18)"/><path fill="#FFF" fill-rule="nonzero" d="M34 34a3 3 0 1 0 0-6 3 3 0 0 0 0 6zm0 2a5 5 0 1 1 0-10 5 5 0 0 1 0 10z" class="color-100" transform="translate(12 18)"/><circle cx="34" cy="31" r="3" fill="#0B77E3" class="color-400" transform="translate(12 18)"/></g></g></svg>