<svg xmlns="http://www.w3.org/2000/svg" width="92" height="92" class="wd-applet wd-applet-worker-spend" focusable="false" role="presentation" viewBox="0 0 92 92"><g fill="none" fill-rule="evenodd" class="wd-icon-container"><g fill="#0B77E3" fill-opacity=".2" class="animate-flood"><path d="M46 82c19.882 0 36-16.118 36-36S65.882 10 46 10 10 26.118 10 46s16.118 36 36 36z" class="color-400-alpha-20"/></g><g class="animate-sink"><path fill="#40A0FF" d="M56.428 79.237C58.492 80.357 61.246 81 64 81c5.5 0 11-2.566 11-6.364v-2.545L64 76.83l-11-4.74v2.546c0 1.896 1.371 3.485 3.428 4.601z" class="color-300"/><path fill="#A6D2FF" d="M64 77c6.075 0 11-3.358 11-7.5 0-4.142-4.925-7.5-11-7.5s-11 3.358-11 7.5c0 4.142 4.925 7.5 11 7.5z" class="color-200"/><path fill="#FFF" d="M64 73.417c3.866 0 7-1.829 7-4.084s-3.134-4.083-7-4.083-7 1.828-7 4.083 3.134 4.084 7 4.084z" class="color-100"/><path fill="#000" d="M64 77c6.075 0 11-3.358 11-7.5 0-4.142-4.925-7.5-11-7.5s-11 3.358-11 7.5c0 4.142 4.925 7.5 11 7.5z" class="color-shadow" opacity=".1"/><path fill="#005CB9" d="M67 80.748V78.75c-.65.11-1.319.185-2 .223v1.999a18.068 18.068 0 0 0 2-.224zm2-.463c.707-.21 1.379-.464 2-.758V77.53c-.633.292-1.302.544-2 .753v2.002zm-6 .687v-2a17.747 17.747 0 0 1-2-.222v1.998c.655.11 1.325.186 2 .224zm-6-1.445c.621.294 1.293.548 2 .758v-2.002a15.227 15.227 0 0 1-2-.753v1.997zm-2-1.233v-1.9a10.736 10.736 0 0 1-2-1.776v.018c0 1.413.761 2.655 2 3.658zm18 0c1.239-1.003 2-2.245 2-3.658v-.018c-.567.654-1.24 1.25-2 1.776v1.9zM51.003 69.7A7.448 7.448 0 0 1 51 69.5c0-5.445 5.947-9.5 13-9.5s13 4.055 13 9.5c0 .067 0 .133-.003.199L77 69.7v4.936C77 79.665 70.837 83 64 83c-3.071 0-6.153-.718-8.525-2.005C52.714 79.498 51 77.287 51 74.636V69.7l.003-.001zM64 77c6.075 0 11-3.358 11-7.5 0-4.142-4.925-7.5-11-7.5s-11 3.358-11 7.5c0 4.142 4.925 7.5 11 7.5zm0-1.583c-4.825 0-9-2.436-9-6.084 0-3.648 4.175-6.083 9-6.083s9 2.435 9 6.083-4.175 6.084-9 6.084zm0-2c3.866 0 7-1.829 7-4.084s-3.134-4.083-7-4.083-7 1.828-7 4.083 3.134 4.084 7 4.084z" class="color-500"/></g><path fill="#40A0FF" d="M53.428 71.237C55.492 72.357 58.246 73 61 73c5.5 0 11-2.566 11-6.364v-2.545L61 68.83l-11-4.74v2.546c0 1.896 1.371 3.485 3.428 4.601z" class="color-300"/><path fill="#A6D2FF" d="M61 69c6.075 0 11-3.358 11-7.5 0-4.142-4.925-7.5-11-7.5s-11 3.358-11 7.5c0 4.142 4.925 7.5 11 7.5z" class="color-200"/><path fill="#FFF" d="M29 47.417c-3.866 0-5-1.212-5-7.084 0-5.871 3.612-7.083 5-7.083s5 1.645 5 7.083c0 5.439-1.134 7.084-5 7.084zM61 65.417c-3.866 0-7-1.829-7-4.084s3.134-4.083 7-4.083 7 1.828 7 4.083-3.134 4.084-7 4.084z" class="color-100"/><path fill="#000" d="M61 69c6.075 0 11-3.358 11-7.5 0-4.142-4.925-7.5-11-7.5s-11 3.358-11 7.5c0 4.142 4.925 7.5 11 7.5z" class="color-shadow" opacity=".1"/><path fill="#005CB9" fill-rule="nonzero" d="M20 53.46V57h18v-3.54c0-1.952-1.583-3.46-3.535-3.46h-10.93C21.582 50 20 51.504 20 53.46zm5-13.452v1.984C25 44.765 26.79 47 29 47c2.205 0 4-2.242 4-5.008v-1.984C33 37.235 31.21 35 29 35c-2.205 0-4 2.242-4 5.008zM30.05 62h-2v8c0 1.1.896 2 1.995 2h14.53v-2H30.05v-8zM61 65.417c3.866 0 7-1.829 7-4.084s-3.134-4.083-7-4.083-7 1.828-7 4.083 3.134 4.084 7 4.084zm0 2c-4.825 0-9-2.436-9-6.084 0-3.648 4.175-6.083 9-6.083s9 2.435 9 6.083-4.175 6.084-9 6.084zM61 69c6.075 0 11-3.358 11-7.5 0-4.142-4.925-7.5-11-7.5s-11 3.358-11 7.5c0 4.142 4.925 7.5 11 7.5zm-13-7.5c0-5.445 5.947-9.5 13-9.5s13 4.055 13 9.5c0 .067 0 .133-.003.199L74 66.636C74 71.665 67.837 75 61 75c-3.071 0-6.153-.718-8.525-2.005C49.714 71.498 48 69.287 48 66.636V61.7v-.2zm24 5.136v-.018c-.567.654-1.24 1.25-2 1.776v1.9c1.239-1.003 2-2.245 2-3.658zm-20 1.758a10.736 10.736 0 0 1-2-1.776v.018c0 1.413.761 2.655 2 3.658v-1.9zm4 3.891v-2.002a15.227 15.227 0 0 1-2-.753v1.997c.621.294 1.293.548 2 .758zm4-1.312a17.747 17.747 0 0 1-2-.223v1.998c.655.11 1.325.186 2 .224v-2zm8 .554V69.53c-.633.292-1.302.544-2 .753v2.002c.707-.21 1.379-.464 2-.758zm-4-.777c-.65.11-1.319.185-2 .223v1.999a18.068 18.068 0 0 0 2-.224V70.75z" class="color-500"/><g class="animate-grow"><path fill="#A6D2FF" d="M43.997 24c-.557 0-.997.422-.997.942v16.116c0 .515.446.942.997.942h26.006c.557 0 .997-.422.997-.942V24.942c0-.515-.446-.942-.997-.942H43.997z" class="color-200"/><path fill="#40A0FF" d="M48 38.5c0-1.933 1.566-3.5 3.492-3.5h11.016A3.498 3.498 0 0 1 66 38.5V42H48v-3.5z" class="color-300"/><path fill="#005CB9" fill-rule="nonzero" d="M48 38.5V42h18v-3.5c0-1.93-1.563-3.5-3.492-3.5H51.492A3.498 3.498 0 0 0 48 38.5zm-2 0c0-3.036 2.46-5.5 5.492-5.5h11.016A5.498 5.498 0 0 1 68 38.5V44H46v-5.5z" class="color-500"/><path fill="#005CB9" fill-rule="nonzero" d="M44 24a1 1 0 0 0-1 1v16a1 1 0 0 0 1 1h26a1 1 0 0 0 1-1V25a1 1 0 0 0-1-1H44zm0-2h26a3 3 0 0 1 3 3v16a3 3 0 0 1-3 3H44a3 3 0 0 1-3-3V25a3 3 0 0 1 3-3z" class="color-500"/><path fill="#FFF" d="M52 23.878C52 21.184 54.244 19 57 19c2.761 0 5 2.176 5 4.878v3.244C62 29.816 59.756 32 57 32c-2.761 0-5-2.176-5-4.878v-3.244z" class="color-100"/><path fill="#005CB9" fill-rule="nonzero" d="M53 24.502v2.996C53 29.99 54.79 32 57 32c2.205 0 4-2.016 4-4.502v-2.996C61 22.01 59.21 20 57 20c-2.205 0-4 2.016-4 4.502zm-2 0C51 20.962 53.633 18 57 18c3.372 0 6 2.955 6 6.502v2.996C63 31.038 60.367 34 57 34c-3.372 0-6-2.955-6-6.502v-2.996z" class="color-500"/></g><g class="animate-grow"><path fill="#A6D2FF" d="M15.997 39c-.557 0-.997.422-.997.942v16.116c0 .515.446.942.997.942h26.006c.557 0 .997-.422.997-.942V39.942c0-.515-.446-.942-.997-.942H15.997z" class="color-200"/><path fill="#40A0FF" d="M20 53.5c0-1.933 1.566-3.5 3.492-3.5h11.016A3.498 3.498 0 0 1 38 53.5V57H20v-3.5z" class="color-300"/><path fill="#005CB9" fill-rule="nonzero" d="M20 53.5V57h18v-3.5c0-1.93-1.563-3.5-3.492-3.5H23.492A3.498 3.498 0 0 0 20 53.5zm-2 0c0-3.036 2.46-5.5 5.492-5.5h11.016A5.498 5.498 0 0 1 40 53.5V59H18v-5.5z" class="color-500"/><path fill="#005CB9" fill-rule="nonzero" d="M16 39a1 1 0 0 0-1 1v16a1 1 0 0 0 1 1h26a1 1 0 0 0 1-1V40a1 1 0 0 0-1-1H16zm0-2h26a3 3 0 0 1 3 3v16a3 3 0 0 1-3 3H16a3 3 0 0 1-3-3V40a3 3 0 0 1 3-3z" class="color-500"/><path fill="#FFF" d="M24 38.878C24 36.184 26.244 34 29 34c2.761 0 5 2.176 5 4.878v3.244C34 44.816 31.756 47 29 47c-2.761 0-5-2.176-5-4.878v-3.244z" class="color-100"/><path fill="#005CB9" fill-rule="nonzero" d="M25 39.502v2.996C25 44.99 26.79 47 29 47c2.205 0 4-2.016 4-4.502v-2.996C33 37.01 31.21 35 29 35c-2.205 0-4 2.016-4 4.502zm-2 0C23 35.962 25.633 33 29 33c3.372 0 6 2.955 6 6.502v2.996C35 46.038 32.367 49 29 49c-3.372 0-6-2.955-6-6.502v-2.996z" class="color-500"/></g><g class="animate-float"><path fill="#40A0FF" d="M59.428 65.237C61.492 66.357 64.246 67 67 67c5.5 0 11-2.566 11-6.364v-2.545L67 62.83l-11-4.74v2.546c0 1.896 1.371 3.485 3.428 4.601z" class="color-300"/><path fill="#A6D2FF" d="M67 63c6.075 0 11-3.358 11-7.5 0-4.142-4.925-7.5-11-7.5s-11 3.358-11 7.5c0 4.142 4.925 7.5 11 7.5z" class="color-200"/><path fill="#FFF" d="M67 59.417c3.866 0 7-1.829 7-4.084s-3.134-4.083-7-4.083-7 1.828-7 4.083 3.134 4.084 7 4.084z" class="color-100"/><path fill="#005CB9" d="M70 66.748V64.75c-.65.11-1.319.185-2 .223v1.999a18.068 18.068 0 0 0 2-.224zm2-.463c.707-.21 1.379-.464 2-.758V63.53c-.633.292-1.302.544-2 .753v2.002zm-6 .687v-2a17.747 17.747 0 0 1-2-.222v1.998c.655.11 1.325.186 2 .224zm-6-1.445c.621.294 1.293.548 2 .758v-2.002a15.227 15.227 0 0 1-2-.753v1.997zm-2-1.233v-1.9a10.736 10.736 0 0 1-2-1.776v.018c0 1.413.761 2.655 2 3.658zm18 0c1.239-1.003 2-2.245 2-3.658v-.018c-.567.654-1.24 1.25-2 1.776v1.9zM54.003 55.7A7.448 7.448 0 0 1 54 55.5c0-5.445 5.947-9.5 13-9.5s13 4.055 13 9.5c0 .067 0 .133-.003.199L80 55.7v4.936C80 65.665 73.837 69 67 69c-3.071 0-6.153-.718-8.525-2.005C55.714 65.498 54 63.287 54 60.636V55.7l.003-.001zM67 63c6.075 0 11-3.358 11-7.5 0-4.142-4.925-7.5-11-7.5s-11 3.358-11 7.5c0 4.142 4.925 7.5 11 7.5zm0-1.583c-4.825 0-9-2.436-9-6.084 0-3.648 4.175-6.083 9-6.083s9 2.435 9 6.083-4.175 6.084-9 6.084zm0-2c3.866 0 7-1.829 7-4.084s-3.134-4.083-7-4.083-7 1.828-7 4.083 3.134 4.084 7 4.084z" class="color-500"/></g></g></svg>