<svg xmlns="http://www.w3.org/2000/svg" width="92" height="92" class="wd-applet wd-applet-workday-system-monitor" focusable="false" role="presentation" viewBox="0 0 92 92"><g fill="none" fill-rule="evenodd" class="wd-icon-container"><g fill="#0B77E3" fill-opacity=".2" class="animate-flood"><path d="M10 46c0-19.882 16.113-36 36-36 19.882 0 36 16.113 36 36 0 19.882-16.113 36-36 36-19.882 0-36-16.113-36-36z" class="color-400-alpha-20"/></g><g class="animate-shrink"><path fill="#FFF" d="M65.971 22.738a13.725 13.725 0 0 0-7.884-3.902 19.553 19.553 0 0 0-1.34-4.83 19.664 19.664 0 0 0-4.213-6.248 19.664 19.664 0 0 0-6.248-4.213A19.796 19.796 0 0 0 38.593 2c-.484 0-.964.023-1.44.057a18.255 18.255 0 0 0-6.256 1.431A19.665 19.665 0 0 0 20.524 13.77a6.725 6.725 0 0 0-3.01-.713 6.77 6.77 0 0 0-6.77 6.77c0 1.055.249 2.05.678 2.94a11.834 11.834 0 0 0-8.204 6.366A11.764 11.764 0 0 0 2 34.346c0 6.267 4.878 11.38 11.044 11.785l5.85.04H37.152l7.294-.002h11.798c3.79 0 7.242-1.543 9.725-4.031A13.722 13.722 0 0 0 70 32.409c0-1.129-.152-2.222-.41-3.276a13.874 13.874 0 0 0-3.619-6.395z" class="color-100" transform="translate(10 20)"/><rect width="6" height="23" x="46" y="16" fill="#0B77E3" class="color-400" rx="1" transform="translate(10 20)"/><rect width="6" height="17" x="36" y="22" fill="#40A0FF" class="color-300" rx="1" transform="translate(10 20)"/><rect width="6" height="14" x="26" y="25" fill="#A6D2FF" class="color-200" rx="1" transform="translate(10 20)"/><path fill="#005CB9" fill-rule="nonzero" d="M38.593 0c2.94 0 5.83.586 8.472 1.703a21.662 21.662 0 0 1 6.883 4.64 21.664 21.664 0 0 1 4.641 6.884c.529 1.25.938 2.554 1.223 3.893a15.725 15.725 0 0 1 7.574 4.205c1.996 1.993 3.431 4.523 4.148 7.333.307 1.256.467 2.503.466 3.75 0 4.231-1.685 8.217-4.615 11.142a15.716 15.716 0 0 1-11.141 4.62H18.881l-5.85-.04C5.665 47.652 0 41.639 0 34.347c0-2.135.493-4.205 1.424-6.097a13.858 13.858 0 0 1 7.47-6.82 8.77 8.77 0 0 1 10.616-10.14 21.665 21.665 0 0 1 10.61-9.642A20.164 20.164 0 0 1 37.009.06C37.577.022 38.091 0 38.592 0zm0 2c-.484 0-.964.023-1.44.057a18.255 18.255 0 0 0-6.256 1.431A19.665 19.665 0 0 0 20.524 13.77a6.725 6.725 0 0 0-3.01-.713 6.77 6.77 0 0 0-6.77 6.77c0 1.055.249 2.05.678 2.94a11.834 11.834 0 0 0-8.204 6.366A11.764 11.764 0 0 0 2 34.346c0 6.267 4.878 11.38 11.044 11.785l5.85.04h18.258l7.294-.002h11.798c3.79 0 7.242-1.543 9.725-4.031A13.722 13.722 0 0 0 70 32.409c0-1.129-.152-2.222-.41-3.276a13.874 13.874 0 0 0-3.619-6.395 13.725 13.725 0 0 0-7.884-3.902 19.553 19.553 0 0 0-1.34-4.83 19.664 19.664 0 0 0-4.213-6.248 19.664 19.664 0 0 0-6.248-4.213A19.796 19.796 0 0 0 38.593 2zm13.41 13c.55 0 .997.455.997.995v23.01a1 1 0 0 1-.997.995h-6.006c-.55 0-.997-.455-.997-.995v-23.01a1 1 0 0 1 .997-.995h6.006zm-10 6a1 1 0 0 1 .997.995v17.01a1 1 0 0 1-.997.995h-6.006a1 1 0 0 1-.997-.995v-17.01a1 1 0 0 1 .997-.995h6.006zm-10 3c.55 0 .997.445.997 1v14c0 .552-.453 1-.997 1h-6.006A.997.997 0 0 1 25 39V25c0-.552.453-1 .997-1h6.006zM51 17h-4v21h4V17zm-10 6h-4v15h4V23zm-10 3h-4v12h4V26zm-8.997 1c.55 0 .997.447.997.999V39c0 .552-.453.999-.997.999h-6.006a.998.998 0 0 1-.997-.999V28c0-.552.453-.999.997-.999h6.006zM21 29h-4v9h4v-9z" class="color-500" transform="translate(10 20)"/><path fill="#000" d="M55 21c7.85 0 14.525 5.024 16.987 12.032a15.708 15.708 0 0 1-4.602 10.518 15.716 15.716 0 0 1-11.141 4.62H44.447l-4.939.001A17.916 17.916 0 0 1 37 39c0-9.941 8.059-18 18-18z" class="color-shadow" opacity=".1" transform="translate(10 20)"/><path fill="#0B77E3" fill-rule="nonzero" d="M39.818 11.635l-1.683-.714a1 1 0 1 1 .781-1.841l3.84 1.63a1 1 0 0 1 .53 1.311l-1.63 3.84a1 1 0 1 1-1.84-.781l.658-1.553-24.047 9.716a1 1 0 0 1-.749-1.855l24.14-9.753z" class="color-400" transform="translate(10 20)"/></g><g class="animate-spin"><path fill="#005CB9" fill-rule="nonzero" d="M67 76.943c8.805 0 15.943-7.138 15.943-15.943S75.805 45.057 67 45.057 51.057 52.195 51.057 61 58.195 76.943 67 76.943zM67 79c-9.941 0-18-8.059-18-18s8.059-18 18-18 18 8.059 18 18-8.059 18-18 18z" class="color-500"/><path fill="#40A0FF" fill-rule="nonzero" d="M67 77c-8.837 0-16-7.163-16-16s7.163-16 16-16 16 7.163 16 16-7.163 16-16 16z" class="color-300"/><path fill="#005CB9" fill-rule="nonzero" d="M67 71.92c6.03 0 10.92-4.89 10.92-10.92S73.03 50.08 67 50.08 56.08 54.97 56.08 61 60.97 71.92 67 71.92zM67 74c-7.18 0-13-5.82-13-13s5.82-13 13-13 13 5.82 13 13-5.82 13-13 13z" class="color-500"/><path fill="#FFF" d="M67 72c6.075 0 11-4.925 11-11s-4.925-11-11-11-11 4.925-11 11 4.925 11 11 11z" class="color-100"/><path fill="#005CB9" fill-rule="nonzero" d="M67 64a3 3 0 1 1 0-6 3 3 0 0 1 0 6zm-.022-2a1 1 0 1 0 0-2 1 1 0 0 0 0 2z" class="color-500"/><path fill="#005CB9" fill-rule="nonzero" d="M69.566 60.427l4.01-4.785a1 1 0 1 0-1.534-1.284l-4.009 4.784a1 1 0 0 0 1.533 1.285zm-3.975-.658l-4.205-2.435a.77.77 0 1 0-.772 1.332l4.206 2.435a.77.77 0 1 0 .771-1.332z" class="color-500"/></g></g></svg>