<svg xmlns="http://www.w3.org/2000/svg" width="92" height="92" fill="none" class="wd-applet-workday-byok wd-applet" focusable="false" role="presentation" viewBox="0 0 92 92"><g class="wd-icon-container"><g class="animate-flood"><path fill="#0875E1" fill-opacity=".2" fill-rule="evenodd" d="M46 82c19.882 0 36-16.118 36-36S65.882 10 46 10 10 26.118 10 46s16.118 36 36 36z" class="color-400-alpha-20" clip-rule="evenodd"/></g><g class="animate-spin"><path fill="#fff" fill-rule="evenodd" d="M15.025 38.93a31.624 31.624 0 0 1 8.512-15.393 31.624 31.624 0 0 1 15.394-8.512.981.981 0 1 1 .435 1.914 29.66 29.66 0 0 0-14.441 7.986 29.66 29.66 0 0 0-7.986 14.44.982.982 0 0 1-1.914-.434zm36.87-23.166a.981.981 0 0 1 1.174-.74 31.624 31.624 0 0 1 15.394 8.513 31.624 31.624 0 0 1 8.512 15.394.981.981 0 0 1-1.914.435 29.66 29.66 0 0 0-7.986-14.441 29.66 29.66 0 0 0-14.44-7.986.982.982 0 0 1-.74-1.175zm-36.13 36.13a.982.982 0 0 1 1.174.74 29.66 29.66 0 0 0 7.986 14.441 29.66 29.66 0 0 0 14.44 7.986.982.982 0 0 1-.434 1.914 31.624 31.624 0 0 1-15.394-8.512 31.624 31.624 0 0 1-8.512-15.394.981.981 0 0 1 .74-1.174zm36.13 24.342a.982.982 0 0 1 .74-1.175 29.66 29.66 0 0 0 14.44-7.986 29.66 29.66 0 0 0 7.986-14.44.982.982 0 0 1 1.914.434 31.624 31.624 0 0 1-8.512 15.394 31.624 31.624 0 0 1-15.394 8.512.981.981 0 0 1-1.174-.74z" class="color-200" clip-rule="evenodd"/><g fill="#005CB9" class="color-500"><path d="M15 43a3 3 0 1 1 0 6 3 3 0 0 1 0-6zM49 15a3 3 0 1 0-6 0 3 3 0 0 0 6 0zM49 77a3 3 0 1 0-6 0 3 3 0 0 0 6 0zM80 46a3 3 0 1 0-6 0 3 3 0 0 0 6 0z"/></g></g><g class="animate-grow"><path fill="#0875E1" fill-rule="evenodd" d="M46 23l18.97 6.667c.234 6-.844 20-4.216 25.333-2.1 3.322-6.49 6.902-10.011 9.774C48.61 66.514 46.795 67.994 46 69c-.795-1.006-2.61-2.486-4.743-4.226-3.521-2.872-7.91-6.453-10.01-9.774-3.373-5.333-4.45-19.333-4.216-25.333L46 23zm0 4l14.976 5.362c.185 4.826-.666 16.087-3.328 20.377-1.658 2.672-5.123 5.551-7.904 7.862C48.06 62 46.628 63.19 46 64c-.628-.81-2.06-2-3.744-3.4-2.78-2.31-6.246-5.19-7.904-7.86-2.662-4.29-3.513-15.552-3.328-20.378L46 27z" class="color-300" clip-rule="evenodd"/><path fill="#fff" d="M60.976 32.362L46 27l-14.976 5.362c-.185 4.826.666 16.087 3.328 20.377C37.015 57.03 44.336 61.855 46 64c1.664-2.145 8.986-6.971 11.648-11.26 2.662-4.29 3.513-15.552 3.328-20.378z" class="color-100"/><path fill="#fff" d="M60.976 32.362L46 27l-14.976 5.362c-.185 4.826.666 16.087 3.328 20.377C37.015 57.03 44.336 61.855 46 64c1.664-2.145 8.986-6.971 11.648-11.26 2.662-4.29 3.513-15.552 3.328-20.378z" class="color-100"/><g fill="#000" fill-opacity=".1" class="color-shadow"><path d="M39.5 55c-3.2-2.4-5.333-5.667-6-7 .5 2.5 1.5 5 3.5 7 4.757 4.757 8 6.5 9 8v-3c-1-1-3.3-2.6-6.5-5zM52.5 55c3.2-2.4 5.333-5.667 6-7-.5 2.5-1.5 5-3.5 7-4.757 4.757-8 6.5-9 8v-3c1-1 3.3-2.6 6.5-5z"/></g><g fill="#005CB9" class="color-500"><path d="M50 40a4.002 4.002 0 0 1-2.649 3.766l.808 7.121A1 1 0 0 1 47.165 52h-2.363a1 1 0 0 1-.996-1.085l.615-7.238A4 4 0 1 1 50 40z"/><path fill-rule="evenodd" d="M61.97 32.324a.99.99 0 0 0-.658-.903l-15.313-5.483-15.313 5.483a.99.99 0 0 0-.658.903c-.093 3.527.138 7.062.6 10.559.265 2.004.622 4.007 1.086 5.793.461 1.772 1.044 3.392 1.788 4.59 1.425 2.298 4.042 4.67 6.4 6.67.612.52 1.182.993 1.722 1.44.554.461 1.076.895 1.578 1.324.974.83 1.664 1.47 2.007 1.913l.79 1.019.79-1.019c.343-.442 1.033-1.082 2.007-1.913.502-.43 1.024-.863 1.578-1.323.54-.448 1.11-.922 1.721-1.44 2.359-2 4.976-4.373 6.401-6.67.744-1.199 1.327-2.82 1.788-4.591.465-1.786.821-3.79 1.086-5.793.462-3.497.693-7.032.6-10.559zM32.61 42.621c-.469-3.556-.645-7.158-.606-9.548L46 28.063l13.995 5.01c.04 2.39-.137 5.992-.607 9.548-.258 1.95-.6 3.869-1.039 5.551-.441 1.698-.963 3.093-1.55 4.04-1.237 1.992-3.612 4.178-5.996 6.2-.553.468-1.132.95-1.688 1.412h-.001l-.002.003c-.581.483-1.138.945-1.614 1.351-.55.47-1.066.925-1.498 1.347a30.958 30.958 0 0 0-1.498-1.347c-.477-.406-1.034-.87-1.616-1.353l-.001-.001c-.556-.463-1.135-.944-1.688-1.413-2.384-2.021-4.759-4.207-5.995-6.2-.588-.946-1.11-2.341-1.551-4.039-.438-1.682-.781-3.6-1.04-5.551z" clip-rule="evenodd"/><path fill-rule="evenodd" d="M65.98 30.307a1.963 1.963 0 0 0-1.321-1.809l-17.997-6.325a2 2 0 0 0-1.326 0l-17.997 6.325a1.963 1.963 0 0 0-1.321 1.81c-.078 4.145.223 8.303.776 12.409.334 2.485.785 4.966 1.37 7.175.582 2.194 1.313 4.183 2.236 5.642 1.782 2.82 5.067 5.746 8.057 8.235.766.638 1.49 1.228 2.175 1.787.706.575 1.372 1.118 2.005 1.648 1.23 1.031 2.124 1.843 2.578 2.416l.784.993.785-.993c.453-.573 1.347-1.385 2.578-2.416.632-.53 1.298-1.073 2.003-1.648.686-.56 1.41-1.149 2.176-1.787 2.99-2.49 6.275-5.415 8.057-8.234.923-1.46 1.654-3.449 2.236-5.643.585-2.209 1.036-4.69 1.37-7.175.553-4.106.854-8.264.776-12.41zM28.776 42.45c-.607-4.512-.829-9.086-.767-12.067l17.99-6.323 17.99 6.323c.062 2.98-.16 7.555-.767 12.067-.327 2.431-.764 4.825-1.321 6.93-.562 2.117-1.23 3.879-1.993 5.086-1.59 2.514-4.63 5.254-7.646 7.765-.708.59-1.44 1.187-2.143 1.76v.002a211.53 211.53 0 0 0-2.042 1.678c-.784.657-1.505 1.284-2.078 1.85-.573-.566-1.294-1.193-2.078-1.85-.606-.508-1.306-1.079-2.039-1.677l-.002-.001v-.001c-.703-.573-1.436-1.171-2.144-1.76-3.017-2.512-6.056-5.252-7.646-7.766-.763-1.207-1.431-2.969-1.993-5.087-.557-2.104-.994-4.498-1.32-6.929z" clip-rule="evenodd"/></g></g></g></svg>