<svg xmlns="http://www.w3.org/2000/svg" width="24" height="24" class="wd-icon-adjust-inventory wd-icon" focusable="false" role="presentation" viewBox="0 0 24 24"><g class="wd-icon-container"><path fill-rule="evenodd" d="M19.5 7c.3 0 .5.2.5.5v3c0 .3-.2.5-.5.5h-1c-.3 0-.5-.2-.5-.5V9H6v9h3.5c.3 0 .5.2.5.5v1c0 .3-.2.5-.5.5h-5c-.3 0-.5-.2-.5-.5v-12c0-.3.2-.5.5-.5h15zM4.7 6c-.3 0-.4-.2-.2-.4l1.9-2.2c.4-.4.5-.4.8-.4h10c.3 0 .4 0 .8.4l1.9 2.2c.1.2 0 .4-.2.4h-15z" class="wd-icon-fill" clip-rule="evenodd"/><path fill-rule="evenodd" d="M14.31 21.093c-.244.12-1.474-1.077-1.355-1.333l.388-.836a.456.456 0 0 0-.267-.63l-.871-.301c-.258-.09-.282-1.805-.017-1.902l.866-.316a.457.457 0 0 0 .256-.635l-.403-.83c-.12-.244 1.077-1.474 1.333-1.355l.836.388c.247.115.538 0 .63-.267l.301-.871c.09-.258 1.805-.282 1.902-.017l.316.866c.094.255.381.38.635.256l.83-.403c.244-.12 1.474 1.077 1.355 1.333l-.388.836a.456.456 0 0 0 .267.63l.871.301c.258.09.282 1.805.017 1.902l-.866.316a.457.457 0 0 0-.256.635l.403.83c.12.244-1.077 1.474-1.333 1.355l-.836-.388a.456.456 0 0 0-.63.267l-.301.871c-.09.258-1.805.282-1.902.017l-.316-.866a.457.457 0 0 0-.635-.256l-.83.403zM18.965 17a1.964 1.964 0 1 1-3.928 0 1.964 1.964 0 0 1 3.928 0z" class="wd-icon-accent" clip-rule="evenodd"/></g></svg>