<svg xmlns="http://www.w3.org/2000/svg" width="24" height="24" class="wd-icon-alarm-clock-plus wd-icon" focusable="false" role="presentation" viewBox="0 0 24 24"><g fill-rule="evenodd" class="wd-icon-container"><path fill-rule="nonzero" d="M3.043 12.89a9.004 9.004 0 0 1 9.898-9.842c3.064.312 5.776 2.268 7.136 5.03a8.849 8.849 0 0 1 .783 5.515.501.501 0 0 1-.496.407h-1.027c-.319 0-.538-.296-.475-.608.088-.436.135-.887.138-1.352.018-3.458-2.597-6.513-6.024-6.974a7.003 7.003 0 0 0-7.91 7.912c.244 1.812 1.214 3.398 2.586 4.486l.413.238a.498.498 0 0 1 .187.19 6.956 6.956 0 0 0 5.14.97c.312-.062.608.157.608.475v1.027a.5.5 0 0 1-.408.496 8.822 8.822 0 0 1-5.548-.802 9.119 9.119 0 0 1-.58-.315l-.716 1.24a.5.5 0 0 1-.683.183l-.866-.5a.5.5 0 0 1-.183-.683l.838-1.45c-1.566-1.47-2.603-3.47-2.811-5.642zM5.5 3a3.501 3.501 0 0 1 3.412 2.717 7.016 7.016 0 0 0-3.62 4.276A3.498 3.498 0 0 1 5.5 3zm13 0a3.5 3.5 0 0 1 .207 6.994 7.014 7.014 0 0 0-3.618-4.277A3.5 3.5 0 0 1 18.5 3zm-13 2a1.5 1.5 0 1 0 0 3 1.5 1.5 0 0 0 0-3zm13 0a1.5 1.5 0 1 0 0 3 1.5 1.5 0 0 0 0-3z" class="wd-icon-fill"/><path d="M20 20v1.495a.497.497 0 0 1-.505.505h-.99a.497.497 0 0 1-.505-.505V20h-1.495a.497.497 0 0 1-.505-.505v-.99c0-.279.214-.505.505-.505H18v-1.495c0-.279.214-.505.505-.505h.99c.279 0 .505.214.505.505V18h1.495c.279 0 .505.214.505.505v.99a.497.497 0 0 1-.505.505H20zm-8.5-6a.5.5 0 0 1-.5-.5v-5a.5.5 0 0 1 .5-.5h1a.5.5 0 0 1 .5.5V12h2.5a.5.5 0 0 1 .5.5v1a.5.5 0 0 1-.5.5h-4z" class="wd-icon-accent"/></g></svg>