<svg xmlns="http://www.w3.org/2000/svg" width="24" height="24" class="wd-icon-align-top wd-icon" focusable="false" role="presentation" viewBox="0 0 24 24"><g fill-rule="evenodd" class="wd-icon-container"><path d="M4 3.505C4 3.226 4.226 3 4.496 3h15.008c.274 0 .496.214.496.505v.99a.503.503 0 0 1-.496.505H4.496A.493.493 0 0 1 4 4.495v-.99zm7 16.985a.5.5 0 0 0 .505.51h.99a.507.507 0 0 0 .505-.51V11h1.495c.279 0 .376-.172.206-.398L12.3 7.398c-.165-.22-.428-.226-.598 0L9.3 10.602c-.165.22-.085.398.206.398H11v9.49z" class="wd-icon-fill"/></g></svg>