<svg xmlns="http://www.w3.org/2000/svg" width="24" height="24" class="wd-icon-align-middle wd-icon" focusable="false" role="presentation" viewBox="0 0 24 24"><g fill-rule="evenodd" class="wd-icon-container"><path d="M4 11.505c0-.279.226-.505.496-.505h15.008c.274 0 .496.214.496.505v.99a.503.503 0 0 1-.496.505H4.496A.493.493 0 0 1 4 12.495v-.99zm7 9c0 .273.215.495.505.495h.99a.496.496 0 0 0 .506-.495V18h1.495c.279 0 .376-.172.206-.398l-2.403-3.204c-.165-.22-.427-.226-.597 0l-2.403 3.204c-.165.22-.084.398.206.398h1.496v2.505zm0-17.01c0-.273.215-.495.505-.495h.99c.28 0 .506.216.506.495V6h1.495c.279 0 .376.172.206.398l-2.403 3.204c-.165.22-.427.226-.597 0L9.299 6.398C9.134 6.178 9.215 6 9.505 6h1.496V3.495z" class="wd-icon-fill"/></g></svg>