<svg xmlns="http://www.w3.org/2000/svg" width="24" height="24" class="wd-icon-arrow-down wd-icon" focusable="false" role="presentation" viewBox="0 0 24 24"><g fill-rule="evenodd" class="wd-icon-container"><path d="M12.495 2c.279 0 .505.228.505.5v15.626l5.703-5.701a.495.495 0 0 1 .71.003l.7.7a.506.506 0 0 1 .004.711l-7.778 7.778a.493.493 0 0 1-.708 0l-.703-.704-.005-.005-7.07-7.069a.495.495 0 0 1 .004-.71l.7-.701a.506.506 0 0 1 .711-.003L11 18.156V2.5c0-.276.214-.5.505-.5h.99z" class="wd-icon-fill"/></g></svg>