<svg xmlns="http://www.w3.org/2000/svg" width="24" height="24" class="wd-icon-as-applied wd-icon" focusable="false" role="presentation" viewBox="0 0 24 24"><g fill-rule="evenodd" class="wd-icon-container"><path d="M5.498 19A.491.491 0 0 1 5 18.502V5.498C5 5.223 5.214 5 5.505 5h7.985a.5.5 0 0 1 .51.505v.99a.504.504 0 0 1-.51.505H7v10h10v-2.502c0-.275.214-.498.505-.498h.99c.279 0 .505.215.505.498v4.004a.492.492 0 0 1-.245.43l-.078.036a.497.497 0 0 1-.175.032H5.498zm13.17-12.926l.736.663a.507.507 0 0 1 .034.716l-6.35 7.053-4.095-3.687a.49.49 0 0 1-.027-.703l.663-.736a.503.503 0 0 1 .703-.047l2.607 2.348 5.012-5.566a.5.5 0 0 1 .716-.041z" class="wd-icon-fill"/></g></svg>