<svg xmlns="http://www.w3.org/2000/svg" width="24" height="24" class="wd-icon-audio-mute wd-icon" focusable="false" role="presentation" viewBox="0 0 24 24"><g fill-rule="evenodd" class="wd-icon-container"><path d="M12 5.263v13.473c0 .276-.166.346-.368.161l-4.244-3.896H3.491A.496.496 0 0 1 3 14.51V9.488c0-.272.228-.492.491-.492h3.898l4.243-3.894c.203-.186.368-.11.368.161zM19.274 12l1.592-1.592a.457.457 0 0 0-.003-.64l-.63-.631a.446.446 0 0 0-.64-.003L18 10.726l-1.592-1.592a.457.457 0 0 0-.64.003l-.631.63a.446.446 0 0 0-.003.64L16.726 12l-1.592 1.592a.457.457 0 0 0 .003.64l.63.631a.446.446 0 0 0 .64.003L18 13.274l1.592 1.592a.457.457 0 0 0 .64-.003l.631-.63a.446.446 0 0 0 .003-.64L19.274 12z" class="wd-icon-fill"/></g></svg>