<svg xmlns="http://www.w3.org/2000/svg" width="24" height="24" class="wd-icon-audio wd-icon" focusable="false" role="presentation" viewBox="0 0 24 24"><g fill-rule="evenodd" class="wd-icon-container"><path d="M11.999 5.263v13.473c0 .276-.166.346-.368.161l-4.244-3.896H3.491A.496.496 0 0 1 3 14.51V9.488c0-.272.228-.492.49-.492h3.898l4.243-3.894c.203-.186.368-.11.368.161zm5.537 2.065a13.039 13.039 0 0 1-.031-.033L17.5 7.29l.019.019-.044-.049a.755.755 0 0 1-.033-.89l.068-.086.05-.055a.747.747 0 0 1 1.056-.047l-.014-.015a1.228 1.228 0 0 1-.026-.027l.057.058.055.055C20.122 7.716 21 9.68 21 11.84c0 2.146-.866 4.099-2.284 5.559-.137.141-.135.138-.119.12l.017-.018-.084.066a.75.75 0 0 1-.972-.118l-.05-.054a.758.758 0 0 1 .043-1.067l-.004.004-.012.012.012-.011.022-.023c1.127-1.181 1.815-2.751 1.815-4.474 0-1.714-.68-3.277-1.798-4.456l-.041-.044-.008-.008-.003-.004.002.003zm-2.331 7.232a4.408 4.408 0 0 0 .758-2.501 4.41 4.41 0 0 0-.749-2.487l-.014-.02-.013-.019-.001-.001-.023-.035-.017-.024-.016-.023a1 1 0 0 1-.012-.961l.07-.104.095-.124c.257-.33.686-.346.958-.037 0 0-.03-.043-.014-.024l.067.088.046.063c.737 1.009 1.18 2.3 1.18 3.708 0 1.442-.465 2.763-1.235 3.781l-.041.055c-.246.294-.633.294-.893.038l-.068-.076-.096-.124c-.257-.33-.25-.853.014-1.168l-.014.019.01-.014-.008.01z" class="wd-icon-fill"/></g></svg>