<svg xmlns="http://www.w3.org/2000/svg" width="24" height="24" class="wd-icon-barcode-scanner wd-icon" focusable="false" role="presentation" viewBox="0 0 24 24"><g fill-rule="evenodd" class="wd-icon-container"><path d="M21.5 15a.5.5 0 0 1 .5.5v4a.5.5 0 0 1-.5.5h-4a.5.5 0 0 1-.5-.5v-1a.5.5 0 0 1 .5-.5H20v-2.5a.5.5 0 0 1 .5-.5h1zm-18 0a.5.5 0 0 1 .5.5V18h2.5a.5.5 0 0 1 .5.5v1a.5.5 0 0 1-.5.5h-4a.5.5 0 0 1-.5-.5v-4a.5.5 0 0 1 .5-.5h1zM8 8v8H7V8h1zm3 0v8H9V8h2zm4 0v8h-3V8h3zm2 0v8h-1V8h1zm4.5-4a.5.5 0 0 1 .5.5v4a.5.5 0 0 1-.5.5h-1a.5.5 0 0 1-.5-.5V6h-2.5a.5.5 0 0 1-.5-.5v-1a.5.5 0 0 1 .5-.5h4zm-15 0a.5.5 0 0 1 .5.5v1a.5.5 0 0 1-.5.5H4v2.5a.5.5 0 0 1-.5.5h-1a.5.5 0 0 1-.5-.5v-4a.5.5 0 0 1 .5-.5h4z" class="wd-icon-fill"/></g></svg>