<svg xmlns="http://www.w3.org/2000/svg" width="24" height="24" class="wd-icon-birthday wd-icon" focusable="false" role="presentation" viewBox="0 0 24 24"><g class="wd-icon-container"><path fill-rule="evenodd" d="M10.5 8.5A.5.5 0 0 1 11 8h2a.5.5 0 0 1 .5.5V10H18a3 3 0 0 1 3 3v7.5a.5.5 0 0 1-.5.5h-17a.5.5 0 0 1-.5-.5V13a3 3 0 0 1 3-3h4.5V8.5zM18 12H6a1 1 0 0 0-1 1v6h14v-6a1 1 0 0 0-1-1z" class="wd-icon-fill" clip-rule="evenodd"/><path d="M11.821 2.358a.2.2 0 0 1 .358 0l1.203 2.406a1.545 1.545 0 1 1-2.764 0l1.203-2.406zM5 17.708V16.18a5.053 5.053 0 0 0 1.523-.485c.927-.479 1.352-1.121 1.352-1.695a.75.75 0 0 1 1.5 0c0 .496.274 1.028.788 1.46.51.43 1.186.696 1.837.696.65 0 1.327-.266 1.837-.695.514-.433.788-.965.788-1.461a.75.75 0 0 1 1.5 0c0 .574.425 1.216 1.352 1.695.44.228.96.396 1.523.485v1.535a6.212 6.212 0 0 1-2.211-.688 4.702 4.702 0 0 1-1.377-1.05 4.14 4.14 0 0 1-.609.631c-.755.636-1.766 1.048-2.803 1.048s-2.048-.412-2.803-1.048a4.141 4.141 0 0 1-.609-.632 4.702 4.702 0 0 1-1.377 1.051A6.369 6.369 0 0 1 5 17.709z" class="wd-icon-accent"/></g></svg>