<svg xmlns="http://www.w3.org/2000/svg" width="24" height="24" class="wd-icon-book-open wd-icon" focusable="false" role="presentation" viewBox="0 0 24 24"><g class="wd-icon-container"><path fill-rule="evenodd" d="M3 5.429a.48.48 0 0 1 .225-.411C6.197 3.199 10.05 4.18 12 5.162c1.95-.981 5.803-1.963 8.775-.144a.48.48 0 0 1 .225.41v12.855c0 .373-.397.623-.752.51-2.066-.655-5.348-.49-7.966 1.127a.538.538 0 0 1-.564 0c-2.618-1.617-5.9-1.782-7.967-1.127-.354.113-.751-.137-.751-.51V5.43zm8 1.47a9.605 9.605 0 0 0-3.182-.867c-1-.089-1.965.002-2.818.332v10.14c1.842-.203 3.99.023 6 .826V6.899zm2 10.43a12.709 12.709 0 0 1 6-.824V6.364c-.853-.33-1.818-.421-2.818-.332A9.604 9.604 0 0 0 13 6.899v10.43z" class="wd-icon-fill" clip-rule="evenodd"/></g></svg>