<svg xmlns="http://www.w3.org/2000/svg" width="24" height="24" class="wd-icon-border-outside wd-icon" focusable="false" role="presentation" viewBox="0 0 24 24"><g fill-rule="evenodd" class="wd-icon-container"><path d="M20.5 3c.276 0 .5.228.5.5v17c0 .276-.228.5-.5.5h-17a.503.503 0 0 1-.5-.5v-17c0-.276.228-.5.5-.5h17zM19 5v14H5V5h14zm-6.505 10h-.99a.497.497 0 0 0-.505.505v.99c0 .291.226.505.505.505h.99c.291 0 .505-.226.505-.505v-.99a.497.497 0 0 0-.505-.505zm0-4h-.99a.497.497 0 0 0-.505.505v.99c0 .291.226.505.505.505h.99c.291 0 .505-.226.505-.505v-.99a.497.497 0 0 0-.505-.505zm-4 0h-.99a.497.497 0 0 0-.505.505v.99c0 .291.226.505.505.505h.99c.291 0 .505-.226.505-.505v-.99A.497.497 0 0 0 8.495 11zm8 0h-.99a.497.497 0 0 0-.505.505v.99c0 .291.226.505.505.505h.99c.291 0 .505-.226.505-.505v-.99a.497.497 0 0 0-.505-.505zm-4-4h-.99a.497.497 0 0 0-.505.505v.99c0 .291.226.505.505.505h.99c.291 0 .505-.226.505-.505v-.99A.497.497 0 0 0 12.495 7z" class="wd-icon-fill"/></g></svg>