<svg xmlns="http://www.w3.org/2000/svg" width="24" height="24" class="wd-icon-box-text wd-icon" focusable="false" role="presentation" viewBox="0 0 24 24"><g class="wd-icon-container"><path fill-rule="evenodd" d="M6 6v12h12V6H6zM4.5 4a.5.5 0 0 0-.5.5v15a.5.5 0 0 0 .5.5h15a.5.5 0 0 0 .5-.5v-15a.5.5 0 0 0-.5-.5h-15z" class="wd-icon-fill" clip-rule="evenodd"/><path d="M8.5 8a.5.5 0 0 0-.5.5v1a.5.5 0 0 0 .5.5h3a.5.5 0 0 0 .5-.5v-1a.5.5 0 0 0-.5-.5h-3zM8 11.5a.5.5 0 0 1 .5-.5h7a.5.5 0 0 1 .5.5v1a.5.5 0 0 1-.5.5h-7a.5.5 0 0 1-.5-.5v-1zM8.5 14a.5.5 0 0 0-.5.5v1a.5.5 0 0 0 .5.5h5a.5.5 0 0 0 .5-.5v-1a.5.5 0 0 0-.5-.5h-5z" class="wd-icon-accent"/></g></svg>