<svg xmlns="http://www.w3.org/2000/svg" width="24" height="24" class="wd-icon-box-text-search wd-icon" focusable="false" role="presentation" viewBox="0 0 24 24"><g class="wd-icon-container"><path d="M20 4.5a.5.5 0 0 0-.5-.5h-15c-.276 0-.5.215-.5.492v15.013c0 .277.224.495.5.495h6a.5.5 0 0 0 .5-.5v-1a.5.5 0 0 0-.5-.5H6V6h12v2.5a.5.5 0 0 0 .5.5h1a.5.5 0 0 0 .5-.5v-4z" class="wd-icon-fill"/><path d="M8.5 8a.5.5 0 0 0-.5.5v1a.5.5 0 0 0 .5.5h6a.5.5 0 0 0 .5-.5v-1a.5.5 0 0 0-.5-.5h-6zM8 11.5a.5.5 0 0 1 .5-.5h3a.5.5 0 0 1 .5.5v1a.5.5 0 0 1-.5.5h-3a.5.5 0 0 1-.5-.5v-1zM8.5 14a.5.5 0 0 0-.5.5v1a.5.5 0 0 0 .5.5h2a.5.5 0 0 0 .5-.5v-1a.5.5 0 0 0-.5-.5h-2z" class="wd-icon-accent"/><path fill-rule="evenodd" d="M18.453 20.78A4.999 4.999 0 0 1 12 15.997 4.999 4.999 0 0 1 17 11a4.999 4.999 0 0 1 3.212 8.827l.534.924a.5.5 0 0 1-.183.682l-.866.5a.5.5 0 0 1-.683-.183l-.56-.97zM20 15.997a3 3 0 0 1-3 2.999 3 3 0 1 1 3-2.999z" class="wd-icon-accent" clip-rule="evenodd"/></g></svg>