<svg xmlns="http://www.w3.org/2000/svg" width="24" height="24" class="wd-icon-box-text-x wd-icon" focusable="false" role="presentation" viewBox="0 0 24 24"><g class="wd-icon-container"><path d="M20 4.5a.5.5 0 0 0-.5-.5h-15c-.276 0-.5.215-.5.492v15.013c0 .277.224.495.5.495h9.25a.25.25 0 0 0 .25-.25v-1.5a.25.25 0 0 0-.25-.25H6V6h12v7.75c0 .138.112.25.25.25h1.5a.25.25 0 0 0 .25-.25V4.5z" class="wd-icon-fill"/><path d="M8 8.5a.5.5 0 0 1 .5-.5h3a.5.5 0 0 1 .5.5v1a.5.5 0 0 1-.5.5h-3a.5.5 0 0 1-.5-.5v-1zM8.5 11a.5.5 0 0 0-.5.5v1a.5.5 0 0 0 .5.5h7a.5.5 0 0 0 .5-.5v-1a.5.5 0 0 0-.5-.5h-7zM8 14.5a.5.5 0 0 1 .5-.5h5a.5.5 0 0 1 .5.5v1a.5.5 0 0 1-.5.5h-5a.5.5 0 0 1-.5-.5v-1zM20.426 16.148a.504.504 0 0 1 .713 0l.713.713a.504.504 0 0 1 0 .713L20.426 19l1.426 1.426a.504.504 0 0 1 0 .713l-.713.713a.504.504 0 0 1-.713 0L19 20.426l-1.426 1.426a.504.504 0 0 1-.713 0l-.713-.713a.504.504 0 0 1 0-.713L17.574 19l-1.426-1.426a.504.504 0 0 1 0-.713l.713-.713a.504.504 0 0 1 .713 0L19 17.574l1.426-1.426z" class="wd-icon-accent"/></g></svg>