<svg xmlns="http://www.w3.org/2000/svg" width="24" height="24" class="wd-icon-calendar-alt wd-icon" focusable="false" role="presentation" viewBox="0 0 24 24"><g class="wd-icon-container"><path d="M7.5 11a.5.5 0 0 0-.5.5v2a.5.5 0 0 0 .5.5h3a.5.5 0 0 0 .5-.5v-2a.5.5 0 0 0-.5-.5h-3zM13.5 11a.5.5 0 0 0-.5.5v2a.5.5 0 0 0 .5.5h3a.5.5 0 0 0 .5-.5v-2a.5.5 0 0 0-.5-.5h-3zM7 15.5a.5.5 0 0 1 .5-.5h3a.5.5 0 0 1 .5.5v2a.5.5 0 0 1-.5.5h-3a.5.5 0 0 1-.5-.5v-2z" class="wd-icon-fill"/><path fill-rule="evenodd" d="M3 4.99v15.075c0 .459.352.84.817.92.057.01.116.015.176.015h16.014c.047 0 .094-.003.14-.01.485-.066.853-.455.853-.925V4.991c0-.54-.445-.991-.993-.991H18V2.495A.496.496 0 0 0 17.495 2h-.99a.493.493 0 0 0-.505.495V4H8V2.495A.496.496 0 0 0 7.495 2h-.99A.493.493 0 0 0 6 2.495V4H3.993A.992.992 0 0 0 3 4.99zM5 10v9h14v-9H5zm0-4h14v2H5V6z" class="wd-icon-fill" clip-rule="evenodd"/><rect width="4" height="3" x="13" y="15" class="wd-icon-accent" rx=".5"/></g></svg>