<svg xmlns="http://www.w3.org/2000/svg" width="24" height="24" class="wd-icon-capture-delivery wd-icon" focusable="false" role="presentation" viewBox="0 0 24 24"><g fill-rule="evenodd" class="wd-icon-container"><path d="M6 9h12v10H6z" class="wd-icon-background"/><path d="M17.153 4a.5.5 0 0 1 .469.324l1.346 3.591a.5.5 0 0 1 .032.176V19.5a.5.5 0 0 1-.5.5h-13a.5.5 0 0 1-.5-.5V8.09a.5.5 0 0 1 .032-.175l1.346-3.59A.5.5 0 0 1 6.847 4h10.306zM17 10H7v8h10v-8zm-6-4H8l-.8 2H11V6zm5 0h-3v2h3.8L16 6z" class="wd-icon-fill"/></g></svg>