<svg xmlns="http://www.w3.org/2000/svg" width="24" height="24" class="wd-icon-card-view wd-icon" focusable="false" role="presentation" viewBox="0 0 24 24"><g fill-rule="evenodd" class="wd-icon-container"><path d="M17.5 3a.5.5 0 0 1 .5.5v17a.5.5 0 0 1-.5.5h-11a.5.5 0 0 1-.5-.5v-17a.5.5 0 0 1 .5-.5h11zM16 5H8v14h8V5zM5 6v11H3.5a.5.5 0 0 1-.5-.5v-10a.5.5 0 0 1 .5-.5H5zm15.5 0a.5.5 0 0 1 .5.5v10a.5.5 0 0 1-.5.5H19V6h1.5z" class="wd-icon-fill"/><path d="M13 12c.828 0 1.5.666 1.5 1.5V15h-5v-1.5c0-.828.674-1.5 1.5-1.5h2zm-1-3c.78 0 1.42.59 1.493 1.355l.007.145c0 .78-.59 1.42-1.355 1.493L12 12c-.828 0-1.5-.666-1.5-1.5 0-.78.59-1.42 1.355-1.493L12 9z" class="wd-icon-accent"/></g></svg>