<svg xmlns="http://www.w3.org/2000/svg" width="24" height="24" class="wd-icon-c-bubble wd-icon" focusable="false" role="presentation" viewBox="0 0 24 24"><g fill-rule="evenodd" class="wd-icon-container"><path d="M16.775 17.21a4.27 4.27 0 0 0 4.275-4.263 4.27 4.27 0 0 0-4.275-4.263 4.27 4.27 0 0 0-4.275 4.263 4.27 4.27 0 0 0 4.275 4.264zM5.375 21a2.372 2.372 0 0 0 2.375-2.368 2.372 2.372 0 0 0-2.375-2.369A2.372 2.372 0 0 0 3 18.632 2.372 2.372 0 0 0 5.375 21z" class="wd-icon-fill"/><path d="M11.55 9.632a2.846 2.846 0 0 0 2.85-2.843 2.846 2.846 0 0 0-2.85-2.842A2.846 2.846 0 0 0 8.7 6.79a2.846 2.846 0 0 0 2.85 2.843zm-.475 8.526c.787 0 1.425-.636 1.425-1.421s-.638-1.421-1.425-1.421-1.425.636-1.425 1.42c0 .786.638 1.422 1.425 1.422z" class="wd-icon-accent"/><path d="M20.1 6.79c1.05 0 1.9-.849 1.9-1.895C22 3.848 21.15 3 20.1 3c-1.05 0-1.9.848-1.9 1.895 0 1.046.85 1.894 1.9 1.894zM8.7 14.367c1.05 0 1.9-.848 1.9-1.894 0-1.047-.85-1.895-1.9-1.895-1.05 0-1.9.848-1.9 1.895 0 1.046.85 1.894 1.9 1.894z" class="wd-icon-accent2"/></g></svg>