<svg xmlns="http://www.w3.org/2000/svg" width="24" height="24" class="wd-icon-chart wd-icon" focusable="false" role="presentation" viewBox="0 0 24 24"><g fill-rule="evenodd" class="wd-icon-container"><path d="M22 4.494A.498.498 0 0 0 21.509 4h-5.018a.495.495 0 0 0-.491.494v15.012c0 .273.228.494.491.494h5.018a.495.495 0 0 0 .491-.494V4.494zM10 4h4v15h-4zM8 7.51A.506.506 0 0 0 7.509 7H2.491A.497.497 0 0 0 2 7.51v11.98c0 .282.228.51.491.51h5.018A.497.497 0 0 0 8 19.49V7.51z" class="wd-icon-background"/><path fill-rule="nonzero" d="M14.509 3c.271 0 .491.215.491.49v16.02c0 .27-.228.49-.491.49H9.491A.488.488 0 0 1 9 19.51V3.49c0-.27.228-.49.491-.49h5.018zm-7 4C7.78 7 8 7.226 8 7.494v12.012a.498.498 0 0 1-.491.494H2.491A.495.495 0 0 1 2 19.506V7.494C2 7.22 2.228 7 2.491 7h5.018zm14 4c.271 0 .491.222.491.51v7.98c0 .282-.228.51-.491.51h-5.018a.497.497 0 0 1-.491-.51v-7.98c0-.282.228-.51.491-.51h5.018zM13 5h-2v13h2V5zM6 9H4v9h2V9zm14 4h-2v5h2v-5z" class="wd-icon-fill"/></g></svg>