<svg xmlns="http://www.w3.org/2000/svg" width="24" height="24" class="wd-icon-check-circle wd-icon" focusable="false" role="presentation" viewBox="0 0 24 24"><g class="wd-icon-container"><circle cx="12" cy="12" r="9" class="wd-icon-background"/><path fill-rule="evenodd" d="M12 2C6.476 2 2 6.477 2 12c0 5.524 4.477 10 10 10 5.524 0 10-4.477 10-10 0-5.524-4.477-10-10-10zm0 18a8 8 0 0 1-8-8 8 8 0 0 1 8-8 8 8 0 0 1 8 8 8 8 0 0 1-8 8z" class="wd-icon-fill" clip-rule="evenodd"/><path d="M8.962 11.002a.5.5 0 0 1 .707 0l1.646 1.646 3.517-3.518a.5.5 0 0 1 .707 0l.832.832a.5.5 0 0 1 0 .707l-4.7 4.7a.5.5 0 0 1-.707 0l-.365-.364a.514.514 0 0 1-.045-.04L8.13 12.541a.5.5 0 0 1 0-.707l.832-.832z" class="wd-icon-accent"/></g></svg>