<svg xmlns="http://www.w3.org/2000/svg" width="24" height="24" class="wd-icon-chevron-2xright wd-icon" focusable="false" role="presentation" viewBox="0 0 24 24"><g fill-rule="evenodd" class="wd-icon-container"><path fill-rule="nonzero" d="M5.346 3.143l8.511 8.506a.493.493 0 0 1 0 .7l-8.511 8.506a.494.494 0 0 1-.701-.001l-.748-.748a.498.498 0 0 1-.002-.7l7.41-7.407-7.41-7.406a.493.493 0 0 1 .002-.7l.748-.748a.499.499 0 0 1 .7-.002zm7 0l8.511 8.506a.493.493 0 0 1 0 .7l-8.511 8.506a.494.494 0 0 1-.701-.001l-.748-.748a.498.498 0 0 1-.002-.7l7.41-7.407-7.41-7.406a.493.493 0 0 1 .002-.7l.748-.748a.499.499 0 0 1 .7-.002z" class="wd-icon-fill"/></g></svg>