<svg xmlns="http://www.w3.org/2000/svg" width="24" height="24" class="wd-icon-chevron-hierarchy-closed wd-icon" focusable="false" role="presentation" viewBox="0 0 24 24"><g class="wd-icon-container"><path d="M3.628 9.39L6.203 12l-2.575 2.61a.44.44 0 0 0 0 .62l.635.64.002.002a.44.44 0 0 0 .622-.002l3.482-3.523A.44.44 0 0 0 8.496 12a.44.44 0 0 0-.127-.347L4.887 8.13l-.002-.002a.44.44 0 0 0-.622.002l-.635.64a.44.44 0 0 0 0 .62zM17 12a1.5 1.5 0 1 1-3 0 1.5 1.5 0 0 1 3 0zm2 0a3.5 3.5 0 1 1-7 0 3.5 3.5 0 0 1 7 0z" class="wd-icon-fill" clip-rule="evenodd"/></g></svg>