<svg xmlns="http://www.w3.org/2000/svg" width="24" height="24" class="wd-icon-chevron-2xleft wd-icon" focusable="false" role="presentation" viewBox="0 0 24 24"><g fill-rule="evenodd" class="wd-icon-container"><path fill-rule="nonzero" d="M11.657 3.143a.499.499 0 0 1 .7.002l.749.747a.493.493 0 0 1 .001.7L5.696 12l7.411 7.406c.169.169.19.438.056.632l-.057.069-.748.748a.494.494 0 0 1-.701 0L3.145 12.35a.492.492 0 0 1 0-.7zm7 0a.499.499 0 0 1 .7.002l.749.747a.493.493 0 0 1 .001.7l-7.411 7.406 7.411 7.407c.169.169.19.438.056.632l-.057.069-.748.748a.494.494 0 0 1-.701 0l-8.512-8.505a.492.492 0 0 1 0-.7z" class="wd-icon-fill"/></g></svg>