<svg xmlns="http://www.w3.org/2000/svg" width="24" height="24" class="wd-icon-chevron-hierarchy-open wd-icon" focusable="false" role="presentation" viewBox="0 0 24 24"><g class="wd-icon-container"><path fill-rule="evenodd" d="M18.5 8.5a1.5 1.5 0 1 0 0-3 1.5 1.5 0 0 0 0 3zm0 10a1.5 1.5 0 1 0 0-3 1.5 1.5 0 0 0 0 3z" class="wd-icon-background" clip-rule="evenodd"/><path fill-rule="evenodd" d="M18.5 10.5A3.5 3.5 0 1 0 15.145 6H12.5a.5.5 0 0 0-.5.5v11a.5.5 0 0 0 .5.5h2.645A3.502 3.502 0 0 0 22 17a3.5 3.5 0 0 0-6.855-1H14V8h1.145a3.502 3.502 0 0 0 3.355 2.5zm0-2a1.5 1.5 0 1 0 0-3 1.5 1.5 0 0 0 0 3zm0 10a1.5 1.5 0 1 0 0-3 1.5 1.5 0 0 0 0 3z" class="wd-icon-fill" clip-rule="evenodd"/><path d="M8.61 10.128L6 12.703l-2.61-2.575a.44.44 0 0 0-.62 0l-.64.635-.002.002a.44.44 0 0 0 .002.622l3.523 3.482a.44.44 0 0 0 .347.127.44.44 0 0 0 .347-.127l3.523-3.482.002-.002a.44.44 0 0 0-.002-.622l-.64-.635a.44.44 0 0 0-.62 0z" class="wd-icon-fill"/></g></svg>