<svg xmlns="http://www.w3.org/2000/svg" width="24" height="24" class="wd-icon-clipboard-blank-check wd-icon" focusable="false" role="presentation" viewBox="0 0 24 24"><g fill-rule="evenodd" class="wd-icon-container"><path d="M14.427 10.095a.502.502 0 0 1 .708.008l.704.704a.493.493 0 0 1 .009.708l-4.39 4.39a.502.502 0 0 1-.708-.008l-.704-.704a.54.54 0 0 1-.098-.133l-1.795-1.796a.493.493 0 0 1 .01-.708l.703-.704a.503.503 0 0 1 .708-.009l1.552 1.552z" class="wd-icon-accent"/><path d="M16.49 2c.282 0 .51.215.51.498V3h2.504c.274 0 .496.227.496.508v17.984c0 .28-.226.508-.496.508H4.496A.502.502 0 0 1 4 21.492V3.508c0-.28.226-.508.496-.508H7v-.502C7 2.223 7.228 2 7.51 2h8.98zM7 5H6v15h12V5h-1v1.502a.503.503 0 0 1-.51.498H7.51A.499.499 0 0 1 7 6.502V5zm8-1H9v1h6V4z" class="wd-icon-fill"/></g></svg>