<svg xmlns="http://www.w3.org/2000/svg" width="24" height="24" class="wd-icon-clipboard wd-icon" focusable="false" role="presentation" viewBox="0 0 24 24"><g fill-rule="evenodd" class="wd-icon-container"><path d="M19 21V4H5v17z" class="wd-icon-background"/><path d="M7 3.111v-.558C7 2.248 7.23 2 7.51 2h8.98c.28 0 .51.239.51.553v.558h2.5c.13-.002.26.055.35.157.1.102.15.242.15.388v17.8c0 .3-.23.544-.5.544h-15a.462.462 0 0 1-.35-.157.548.548 0 0 1-.15-.387v-17.8c0-.3.23-.545.5-.545H7zM7 5H6v15h12V5h-1l.02 1.425a.65.65 0 0 1-.15.41.485.485 0 0 1-.36.165H7.53a.451.451 0 0 1-.36-.164.6.6 0 0 1-.15-.411L7 5zm2 0V4h6v1H9z" class="wd-icon-fill"/><path d="M8 12.505c0-.279.21-.505.51-.505h.98a.5.5 0 0 1 .51.505v.99c0 .135-.05.264-.15.359a.48.48 0 0 1-.36.146h-.98a.48.48 0 0 1-.36-.146.489.489 0 0 1-.15-.359v-.99zM8.51 15c-.3 0-.51.226-.51.505v.99c0 .135.05.264.15.359a.48.48 0 0 0 .36.146h.98a.48.48 0 0 0 .36-.146c.1-.095.15-.224.15-.359v-.99A.5.5 0 0 0 9.49 15h-.98zM8 9.505C8 9.226 8.21 9 8.51 9h.98a.5.5 0 0 1 .51.505v.99c0 .135-.05.264-.15.359a.48.48 0 0 1-.36.146h-.98a.48.48 0 0 1-.36-.146.489.489 0 0 1-.15-.359v-.99zM11.5 9a.5.5 0 0 0-.5.505v.99c0 .134.05.263.14.358.1.095.22.148.36.147h4c.14.001.26-.053.36-.148a.52.52 0 0 0 .14-.357v-.99A.493.493 0 0 0 15.5 9h-4zm-.5 3.505a.5.5 0 0 1 .5-.505h4c.28 0 .5.214.5.505v.99a.52.52 0 0 1-.14.357.505.505 0 0 1-.36.148h-4a.504.504 0 0 1-.36-.147.52.52 0 0 1-.14-.358v-.99zM11.5 15a.5.5 0 0 0-.5.505v.99c0 .134.05.263.14.358.1.095.22.148.36.147h4c.14.001.26-.053.36-.148a.52.52 0 0 0 .14-.357v-.99a.493.493 0 0 0-.5-.505h-4z" class="wd-icon-accent"/></g></svg>