<svg xmlns="http://www.w3.org/2000/svg" width="24" height="24" class="wd-icon-clipboard-search wd-icon" focusable="false" role="presentation" viewBox="0 0 24 24"><g fill-rule="evenodd" class="wd-icon-container"><path d="M18 15a3 3 0 0 1 2.146 5.096l.629.628a.5.5 0 0 1 0 .707l-.354.354a.5.5 0 0 1-.707 0l-.897-.898A3.002 3.002 0 0 1 15 18a3 3 0 0 1 3-3zM16.49 2c.282 0 .51.215.51.498V3h2.504a.49.49 0 0 1 .496.49V13h-2V5h-1v1.502a.503.503 0 0 1-.51.498H7.51A.499.499 0 0 1 7 6.502V5H6v13h7v2H4.496A.49.49 0 0 1 4 19.51V3.49c0-.27.226-.49.496-.49H7v-.502C7 2.223 7.228 2 7.51 2h8.98zM18 16.5a1.5 1.5 0 1 0 0 3 1.5 1.5 0 0 0 0-3zM9.495 12c.279 0 .505.214.505.505v.99a.497.497 0 0 1-.505.505h-.99A.497.497 0 0 1 8 13.495v-.99c0-.279.214-.505.505-.505h.99zm6.007 0c.275 0 .498.214.498.505v.99a.496.496 0 0 1-.498.505h-4.004a.494.494 0 0 1-.498-.505v-.99c0-.279.215-.505.498-.505h4.004zM9.495 9c.279 0 .505.214.505.505v.99a.497.497 0 0 1-.505.505h-.99A.497.497 0 0 1 8 10.495v-.99C8 9.226 8.214 9 8.505 9h.99zm6.007 0c.275 0 .498.214.498.505v.99a.496.496 0 0 1-.498.505h-4.004a.494.494 0 0 1-.498-.505v-.99c0-.279.215-.505.498-.505h4.004zM15 4H9v1h6V4z" class="wd-icon-fill"/></g></svg>