<svg xmlns="http://www.w3.org/2000/svg" width="24" height="24" class="wd-icon-clock-x wd-icon" focusable="false" role="presentation" viewBox="0 0 24 24"><g class="wd-icon-container"><path d="M13.37 19.883c.322-.055.63.183.63.51v.998a.483.483 0 0 1-.402.482c-.52.084-1.054.127-1.598.127-5.523 0-10-4.477-10-10S6.477 2 12 2s10 4.477 10 10c0 .544-.043 1.078-.127 1.598a.483.483 0 0 1-.482.402h-.998c-.327 0-.565-.309-.51-.63a8 8 0 1 0-6.514 6.514z" class="wd-icon-fill"/><path d="M10 7.5a.5.5 0 0 1 .5-.5h1a.5.5 0 0 1 .5.5V12h4.5a.5.5 0 0 1 .5.5v1a.5.5 0 0 1-.5.5h-6a.5.5 0 0 1-.5-.5v-6z" class="wd-icon-fill"/><path d="M21.14 16.148a.504.504 0 0 0-.714 0L19 17.574l-1.426-1.426a.504.504 0 0 0-.713 0l-.713.713a.504.504 0 0 0 0 .713L17.574 19l-1.426 1.426a.504.504 0 0 0 0 .713l.713.713a.504.504 0 0 0 .713 0L19 20.426l1.426 1.426a.504.504 0 0 0 .713 0l.713-.713a.504.504 0 0 0 0-.713L20.426 19l1.426-1.426a.504.504 0 0 0 0-.713l-.713-.713z" class="wd-icon-accent"/></g></svg>