<svg xmlns="http://www.w3.org/2000/svg" width="24" height="24" class="wd-icon-clock-check wd-icon" focusable="false" role="presentation" viewBox="0 0 24 24"><g class="wd-icon-container"><path d="M13 21.498a.482.482 0 0 1-.451.487c-.182.01-.365.015-.549.015-5.523 0-10-4.477-10-10S6.477 2 12 2s10 4.477 10 10c0 .544-.043 1.078-.127 1.598a.483.483 0 0 1-.482.402h-.998c-.327 0-.565-.309-.51-.63a8 8 0 1 0-7.447 6.619c.3-.017.564.215.564.515v.994z" class="wd-icon-fill"/><path d="M10.5 7a.5.5 0 0 0-.5.5v6a.5.5 0 0 0 .5.5h6a.5.5 0 0 0 .5-.5v-1a.5.5 0 0 0-.5-.5H12V7.5a.5.5 0 0 0-.5-.5h-1z" class="wd-icon-fill"/><path fill-rule="evenodd" d="M21.864 16.874a.502.502 0 0 1-.016.703l-4.434 4.285a.488.488 0 0 1-.684-.004l-2.582-2.55a.502.502 0 0 1-.008-.704l.688-.712c.19-.196.502-.2.696-.008l1.56 1.542 3.404-3.288a.488.488 0 0 1 .696.016l.68.72z" class="wd-icon-accent" clip-rule="evenodd"/></g></svg>