<svg xmlns="http://www.w3.org/2000/svg" width="24" height="24" class="wd-icon-clock-plus wd-icon" focusable="false" role="presentation" viewBox="0 0 24 24"><g class="wd-icon-container"><path d="M13.37 19.883c.322-.055.63.183.63.51v.998a.483.483 0 0 1-.402.482c-.52.084-1.054.127-1.598.127-5.523 0-10-4.477-10-10S6.477 2 12 2s10 4.477 10 10c0 .544-.043 1.078-.127 1.598a.483.483 0 0 1-.482.402h-.998c-.327 0-.565-.309-.51-.63a8 8 0 1 0-6.514 6.514z" class="wd-icon-fill"/><path d="M10 7.5a.5.5 0 0 1 .5-.5h1a.5.5 0 0 1 .5.5V12h4.5a.5.5 0 0 1 .5.5v1a.5.5 0 0 1-.5.5h-6a.5.5 0 0 1-.5-.5v-6z" class="wd-icon-fill"/><path d="M20 16.5a.5.5 0 0 0-.5-.5h-1a.5.5 0 0 0-.5.5V18h-1.5a.5.5 0 0 0-.5.5v1a.5.5 0 0 0 .5.5H18v1.5a.5.5 0 0 0 .5.5h1a.5.5 0 0 0 .5-.5V20h1.5a.5.5 0 0 0 .5-.5v-1a.5.5 0 0 0-.5-.5H20v-1.5z" class="wd-icon-accent"/></g></svg>