<svg xmlns="http://www.w3.org/2000/svg" width="24" height="24" class="wd-icon-clock wd-icon" focusable="false" role="presentation" viewBox="0 0 24 24"><g fill-rule="evenodd" class="wd-icon-container"><circle cx="12" cy="12" r="9" class="wd-icon-background"/><path d="M12 2c5.523 0 10 4.477 10 10s-4.477 10-10 10S2 17.523 2 12 6.477 2 12 2zm0 2a8 8 0 1 0 0 16 8 8 0 0 0 0-16z" class="wd-icon-fill"/><path d="M10.503 14a.497.497 0 0 1-.503-.505V7.503c0-.278.214-.503.505-.503h.99c.279 0 .505.233.505.503V12h4.497c.278 0 .503.214.503.505v.99a.509.509 0 0 1-.503.505h-5.994z" class="wd-icon-accent"/></g></svg>