<svg xmlns="http://www.w3.org/2000/svg" width="24" height="24" class="wd-icon-clock-exclamation wd-icon" focusable="false" role="presentation" viewBox="0 0 24 24"><g class="wd-icon-container"><path d="M15.228 19.322c.352-.155.772.09.772.475v1.044c0 .198-.117.38-.302.453a9.95 9.95 0 0 1-3.149.691h-.002c-.18.01-.363.015-.547.015-5.523 0-10-4.477-10-10S6.477 2 12 2c5.185 0 9.449 3.947 9.95 9 .017.165.03.332.038.5a.481.481 0 0 1-.488.5h-1a.525.525 0 0 1-.515-.5A8.002 8.002 0 0 0 12 4a8 8 0 1 0 3.228 15.322z" class="wd-icon-fill"/><path d="M17 12.5v1a.5.5 0 0 1-.5.5h-6a.5.5 0 0 1-.5-.5v-6a.5.5 0 0 1 .5-.5h1a.5.5 0 0 1 .5.5V12h4.5a.5.5 0 0 1 .5.5z" class="wd-icon-fill"/><g><path d="M18 14.5a.5.5 0 0 1 .5-.5h1a.5.5 0 0 1 .5.5v4a.5.5 0 0 1-.5.5h-1a.5.5 0 0 1-.5-.5v-4zM18 20.5a.5.5 0 0 1 .5-.5h1a.5.5 0 0 1 .5.5v1a.5.5 0 0 1-.5.5h-1a.5.5 0 0 1-.5-.5v-1z" class="wd-icon-accent"/></g></g></svg>