<svg xmlns="http://www.w3.org/2000/svg" width="24" height="24" class="wd-icon-close wd-icon" focusable="false" role="presentation" viewBox="0 0 24 24"><g fill-rule="evenodd" class="wd-icon-container"><path d="M10.505 13l.031.003.054.005a.492.492 0 0 1 .41.492v7c0 .276-.216.5-.495.5h-2.01A.502.502 0 0 1 8 20.5V16H3.5a.494.494 0 0 1-.5-.495v-2.01c0-.273.23-.495.5-.495h7.005zm5-10c.273 0 .495.23.495.5L15.999 8l4.5.001c.277 0 .501.216.501.495v2.01c0 .273-.23.495-.5.495H13.495l-.032-.004-.053-.004A.492.492 0 0 1 13 10.5v-7c0-.276.216-.5.495-.5h2.01z" class="wd-icon-fill"/></g></svg>