<svg xmlns="http://www.w3.org/2000/svg" width="24" height="24" class="wd-icon-coffee wd-icon" focusable="false" role="presentation" viewBox="0 0 24 24"><g fill-rule="evenodd" class="wd-icon-container"><path d="M18.5 18a.5.5 0 0 1 .5.5v1a.5.5 0 0 1-.5.5h-13a.5.5 0 0 1-.5-.5v-1a.5.5 0 0 1 .5-.5h13zm-.012-9l.017.001a.5.5 0 0 1 .466.533c-.028.387-.067.76-.118 1.117a2.5 2.5 0 1 1-1.98 4.58C15.715 16.412 14.091 17 12 17c-4.298 0-6.621-2.489-6.97-7.466A.5.5 0 0 1 5.53 9h12.958zM16.5 11h-9c.261 2.667 1.696 4 4.304 4 2.608 0 4.174-1.333 4.696-4zm2.041 1.159l-.062.214a7.97 7.97 0 0 1-.674 1.606 1 1 0 0 0 .737-1.82zM9.587 4a.25.25 0 0 1 .222.366L8.614 6.654a.5.5 0 0 1-.443.27h-.765a.25.25 0 0 1-.223-.364l1.155-2.285A.5.5 0 0 1 8.784 4zm3 0a.25.25 0 0 1 .222.366l-1.195 2.288a.5.5 0 0 1-.443.27h-.765a.25.25 0 0 1-.223-.364l1.155-2.285A.5.5 0 0 1 11.784 4zm3 0a.25.25 0 0 1 .222.366l-1.195 2.288a.5.5 0 0 1-.443.27h-.765a.25.25 0 0 1-.223-.364l1.155-2.285A.5.5 0 0 1 14.784 4z" class="wd-icon-fill"/></g></svg>