<svg xmlns="http://www.w3.org/2000/svg" width="24" height="24" class="wd-icon-component-edit wd-icon" focusable="false" role="presentation" viewBox="0 0 24 24"><g class="wd-icon-container"><path fill-rule="evenodd" d="M12.093 2.16a.497.497 0 0 1 .7 0l3.758 3.759a.497.497 0 0 1 0 .7l-3.758 3.757a.497.497 0 0 1-.7 0L8.335 6.618a.497.497 0 0 1 0-.7l3.758-3.758zm.35 2.198l-1.91 1.91 1.91 1.91 1.91-1.91-1.91-1.91zm-6.08 3.534a.497.497 0 0 1 .7 0l3.756 3.758a.497.497 0 0 1 0 .7l-3.758 3.758a.497.497 0 0 1-.7 0L2.603 12.35a.497.497 0 0 1 0-.7l3.76-3.758zm.35 2.197L4.8 11.999l1.91 1.91L8.621 12l-1.91-1.91h.001z" class="wd-icon-fill" clip-rule="evenodd"/><path fill-rule="evenodd" d="M8.24 17.901c.001-.225.133-.539.29-.696l9.366-9.365a.416.416 0 0 1 .582-.005l2.946 2.947c.16.159.155.421-.005.581l-9.365 9.365c-.16.16-.475.29-.697.29l-2.712.014a.417.417 0 0 1-.418-.418l.013-2.713zm7.6-5.657L9.83 18.256l.001 1.174h1.173l6.012-6.011-1.175-1.175zm1.175-1.174l1.174 1.174 1.175-1.174-1.175-1.175-1.174 1.175z" class="wd-icon-accent" clip-rule="evenodd"/></g></svg>