<svg xmlns="http://www.w3.org/2000/svg" width="24" height="24" class="wd-icon-compare-files wd-icon" focusable="false" role="presentation" viewBox="0 0 24 24"><g class="wd-icon-container"><path fill-rule="evenodd" d="M10.44 6.354a.5.5 0 0 1 0-.708l3-3a.5.5 0 0 1 .706 0l.707.708a.5.5 0 0 1 0 .707L13.915 5H15a4 4 0 0 1 4 4v6.17a3.001 3.001 0 1 1-2 0V9a2 2 0 0 0-2-2h-1.086l.94.94a.5.5 0 0 1 0 .706l-.708.708a.5.5 0 0 1-.707 0l-3-3zM19 18a1 1 0 1 1-2 0 1 1 0 0 1 2 0zM7 8.83a3.001 3.001 0 1 0-2 0V15a4 4 0 0 0 4 4h1.086l-.94.94a.5.5 0 0 0 0 .706l.708.708a.5.5 0 0 0 .707 0l3-3a.5.5 0 0 0 0-.708l-3-3a.5.5 0 0 0-.707 0l-.708.708a.5.5 0 0 0 0 .707l.94.939H9a2 2 0 0 1-2-2V8.83zM6 7a1 1 0 1 0 0-2 1 1 0 0 0 0 2z" class="wd-icon-fill" clip-rule="evenodd"/></g></svg>