<svg xmlns="http://www.w3.org/2000/svg" width="24" height="24" class="wd-icon-compass wd-icon" focusable="false" role="presentation" viewBox="0 0 24 24"><g class="wd-icon-container"><path fill-rule="evenodd" d="M16.346 8.837c.349-.826-.483-1.657-1.31-1.31l-4.923 2.074a1 1 0 0 0-.533.534l-2.074 4.923c-.348.827.483 1.658 1.31 1.31l4.923-2.074a1 1 0 0 0 .534-.533l2.073-4.924zM13 12a1 1 0 1 1-2 0 1 1 0 0 1 2 0z" class="wd-icon-fill" clip-rule="evenodd"/><path fill-rule="evenodd" d="M2 12C2 6.477 6.476 2 12 2c5.523 0 10 4.476 10 10 0 5.523-4.476 10-10 10-5.523 0-10-4.476-10-10zm2 0a8 8 0 0 0 8 8 8 8 0 0 0 8-8 8 8 0 0 0-8-8 8 8 0 0 0-8 8z" class="wd-icon-fill" clip-rule="evenodd"/></g></svg>