<svg xmlns="http://www.w3.org/2000/svg" width="24" height="24" class="wd-icon-conclusion-popup wd-icon" focusable="false" role="presentation" viewBox="0 0 24 24"><g class="wd-icon-container"><path d="M8.5 16c-.27 0-.5.226-.5.505v.99c0 .291.224.505.5.505h7c.27 0 .5-.226.5-.505v-.99a.495.495 0 0 0-.5-.505h-7zM9.075 10.247l2.154 1.682 3.464-4.764a.375.375 0 0 1 .545-.082l.608.475a.413.413 0 0 1 .074.566l-4.155 5.714a.394.394 0 0 1-.08.081.37.37 0 0 1-.455.005l-3.08-2.405a.4.4 0 0 1-.068-.556l.458-.63a.378.378 0 0 1 .535-.086z" class="wd-icon-fill"/><path fill-rule="evenodd" d="M4.496 2A.498.498 0 0 0 4 2.494v19.012c0 .27.222.494.496.494h15.008c.27 0 .496-.221.496-.494V2.494A.497.497 0 0 0 19.504 2H4.496zM18 20H6V4h12v16z" class="wd-icon-fill" clip-rule="evenodd"/></g></svg>