<svg xmlns="http://www.w3.org/2000/svg" width="24" height="24" class="wd-icon-contact-card-cost-center wd-icon" focusable="false" role="presentation" viewBox="0 0 24 24"><g fill-rule="evenodd" class="wd-icon-container"><path d="M4 20v-9h9c0-.138-1.02-.156-2.138-.133l-.483.012C9.171 10.913 8 10.98 8 10.98V4h12v16H4z" class="wd-icon-background"/><path d="M20.502 3c.275 0 .498.228.498.5v17c0 .276-.22.5-.498.5h-17A.505.505 0 0 1 3 20.499V10.5c0-.277.23-.501.501-.501H7V3.5c0-.276.22-.5.498-.5h13.004zM19 5H9v5h4.499a.5.5 0 0 1 .501.494V19h5V5zm-7 7H5v7h7v-7z" class="wd-icon-fill"/><path d="M7 16.498c0-.275.216-.498.495-.498h2.01c.273 0 .495.215.495.498V21H7v-4.502zm0-2.993c0-.279.216-.505.495-.505h2.01c.273 0 .495.214.495.505v.99a.496.496 0 0 1-.495.505h-2.01A.493.493 0 0 1 7 14.495v-.99zm4-6c0-.279.214-.505.505-.505h.99c.279 0 .505.214.505.505v.99a.497.497 0 0 1-.505.505h-.99A.497.497 0 0 1 11 8.495v-.99zm4 0c0-.279.214-.505.505-.505h.99c.279 0 .505.214.505.505v.99a.497.497 0 0 1-.505.505h-.99A.497.497 0 0 1 15 8.495v-.99zm0 4c0-.279.214-.505.505-.505h.99c.279 0 .505.214.505.505v.99a.497.497 0 0 1-.505.505h-.99a.497.497 0 0 1-.505-.505v-.99zm0 4c0-.279.214-.505.505-.505h.99c.279 0 .505.214.505.505v.99a.497.497 0 0 1-.505.505h-.99a.497.497 0 0 1-.505-.505v-.99z" class="wd-icon-accent"/></g></svg>