<svg xmlns="http://www.w3.org/2000/svg" width="24" height="24" class="wd-icon-contact-card-job-profile wd-icon" focusable="false" role="presentation" viewBox="0 0 24 24"><g fill-rule="evenodd" class="wd-icon-container"><path d="M5 3h14v18H5z" class="wd-icon-background"/><path d="M19.504 2c.274 0 .496.225.496.494v19.012a.498.498 0 0 1-.496.494H4.496A.497.497 0 0 1 4 21.506V2.494C4 2.221 4.226 2 4.496 2h15.008zM18 4H6v16h12V4z" class="wd-icon-fill"/><path d="M13.002 12c1.104 0 1.998.888 1.998 2v2H9v-2c0-1.105.898-2 1.998-2h2.004zM12 8c1.054 0 1.918.809 1.995 1.85L14 10a1.995 1.995 0 0 1-1.85 1.995L12 12c-1.105 0-2-.888-2-2 0-1.054.809-1.918 1.85-1.995L12 8z" class="wd-icon-accent"/></g></svg>