<svg xmlns="http://www.w3.org/2000/svg" width="24" height="24" class="wd-icon-convert-inventory wd-icon" focusable="false" role="presentation" viewBox="0 0 24 24"><g class="wd-icon-container"><path fill-rule="evenodd" d="M19.5 7c.3 0 .5.2.5.5v3c0 .3-.2.5-.5.5h-1c-.3 0-.5-.2-.5-.5V9H6v9h1.5c.3 0 .5.2.5.5v1c0 .3-.2.5-.5.5h-3c-.3 0-.5-.2-.5-.5v-12c0-.3.2-.5.5-.5h15zM4.7 6c-.3 0-.4-.2-.2-.4l1.9-2.2c.4-.4.5-.4.8-.4h10c.3 0 .4 0 .8.4l1.9 2.2c.1.2 0 .4-.2.4h-15z" class="wd-icon-fill" clip-rule="evenodd"/><path d="M11.224 18.398l.357-.389C11.838 20.255 13.777 22 16.13 22a4.608 4.608 0 0 0 2.976-1.08l-1.04-1.101a3.073 3.073 0 0 1-1.937.681c-1.519 0-2.778-1.09-3.013-2.518l.34.301c.241.213.611.194.828-.042l.183-.2a.568.568 0 0 0-.043-.813l-1.814-1.605a.593.593 0 0 0-.827.042l-1.634 1.783a.569.569 0 0 0 .044.813l.203.18c.24.213.61.194.827-.043zM20.698 17.179l.198-.176a.593.593 0 0 1 .827.043l.127.138c.216.236.197.6-.044.813l-1.481 1.31-.023.05-.015-.016-.137.121a.593.593 0 0 1-.827-.042l-1.492-1.628a.569.569 0 0 1 .043-.813l.14-.124a.593.593 0 0 1 .828.042l.331.362c-.125-1.544-1.44-2.759-3.043-2.759-.744 0-1.426.262-1.955.697l-1.128-1.024A4.607 4.607 0 0 1 16.13 13c2.42 0 4.4 1.843 4.568 4.179z" class="wd-icon-accent"/></g></svg>