<svg xmlns="http://www.w3.org/2000/svg" width="24" height="24" class="wd-icon-cut wd-icon" focusable="false" role="presentation" viewBox="0 0 24 24"><g fill-rule="evenodd" class="wd-icon-container"><path d="M6 5a3 3 0 0 1 2.892 3.801l2.651 2.019 6.049-4.509c.225-.168.624-.305.903-.305l1.506-.004c.552-.001.646.268.204.606l-7.08 5.418 7.08 5.392c.413.314.358.567-.1.596l-.104.003-1.506-.01a1.778 1.778 0 0 1-.903-.305L11.55 13.23l-2.644 2.025c.047.183.077.373.088.569L9 16a3 3 0 1 1-1.192-2.394l2.117-1.579-2.162-1.6c-.45.328-.995.534-1.587.568L6 11a3 3 0 1 1 0-6zm0 10a1 1 0 1 0 0 2 1 1 0 0 0 0-2zm0-8a1 1 0 1 0 0 2 1 1 0 0 0 0-2z" class="wd-icon-fill"/></g></svg>