<svg xmlns="http://www.w3.org/2000/svg" width="24" height="24" class="wd-icon-dashboard wd-icon" focusable="false" role="presentation" viewBox="0 0 24 24"><g fill-rule="evenodd" class="wd-icon-container"><path d="M4 4h6v7H4zm10 7h6v9h-6zm0-7h6v4h-6zM4 14h6v6H4z" class="wd-icon-background"/><path fill-rule="nonzero" d="M10.5 13c.276 0 .5.23.5.5v7c0 .276-.23.5-.5.5h-7c-.276 0-.5-.23-.5-.5v-7c0-.276.23-.5.5-.5h7zm10-3c.276 0 .5.23.5.501V20.5c0 .277-.23.501-.5.501h-7c-.276 0-.5-.23-.5-.501V10.5c0-.277.23-.501.5-.501h7zM9 15H5v4h4v-4zm10-3h-4v7h4v-7zm-8.5-9c.276 0 .5.222.5.51v7.98a.51.51 0 0 1-.5.51h-7a.502.502 0 0 1-.5-.51V3.51c0-.282.23-.51.5-.51h7zM9 5H5v5h4V5zm11.5-2c.276 0 .5.228.5.491v5.018a.5.5 0 0 1-.5.491h-7a.501.501 0 0 1-.5-.491V3.491A.5.5 0 0 1 13.5 3h7zM19 5h-4v2h4V5z" class="wd-icon-fill"/></g></svg>