<svg xmlns="http://www.w3.org/2000/svg" width="24" height="24" class="wd-icon-dashboard-workforce wd-icon" focusable="false" role="presentation" viewBox="0 0 24 24"><g class="wd-icon-container"><path fill-rule="evenodd" d="M12 20a8 8 0 1 0 0-16 8 8 0 0 0 0 16zm0 2c5.523 0 10-4.477 10-10S17.523 2 12 2 2 6.477 2 12s4.477 10 10 10z" class="wd-icon-fill" clip-rule="evenodd"/><path fill-rule="evenodd" d="M15.472 15.938h2.424c.2 0 .354-.148.354-.329v-2.296c0-.906-.487-1.706-1.227-2.178.333-.394.533-.894.533-1.438v-.644c0-1.278-1.089-2.303-2.431-2.303-.788 0-1.49.357-1.935.91A2.894 2.894 0 0 0 12 7.406c-.425 0-.828.09-1.188.252a2.474 2.474 0 0 0-1.937-.908c-1.34 0-2.43 1.031-2.43 2.303v.644c0 .546.198 1.046.53 1.44-.738.472-1.225 1.27-1.225 2.175v2.297c0 .177.158.329.354.329h2.424v.984c0 .177.158.328.354.328h6.236c.196 0 .354-.147.354-.328v-.985zm-5.555 0v-1.313c0-.726.62-1.313 1.395-1.313h1.376c.77 0 1.395.59 1.395 1.313v1.313m-3.472-5.907c0-.723.624-1.312 1.389-1.312.764 0 1.389.59 1.389 1.312v.656c0 .724-.624 1.313-1.389 1.313-.764 0-1.389-.591-1.389-1.313m4.861 3.938c0-.952-.54-1.788-1.347-2.248.09-.1.17-.207.244-.319.13-.037.267-.058.409-.058h.694c.766 0 1.39.59 1.39 1.313v1.312m-7.23-2.567c.073.112.154.218.243.317-.809.46-1.347 1.295-1.347 2.25h-1.39v-1.313c0-.722.626-1.312 1.39-1.312h.694m5.556-1.368v-.6c0-.569-.193-1.097-.52-1.527.187-.267.507-.443.867-.443.577 0 1.042.44 1.042.99v.645c0 .547-.469.99-1.042.99m-5.903-.056a1.084 1.084 0 0 1-.347.056c-.577 0-1.042-.439-1.042-.99v-.644c0-.547.469-.99 1.042-.99.363 0 .681.173.868.44-.328.43-.52.958-.52 1.528v.6z" class="wd-icon-fill" clip-rule="evenodd"/></g></svg>