<svg xmlns="http://www.w3.org/2000/svg" width="24" height="24" class="wd-icon-documents-check wd-icon" focusable="false" role="presentation" viewBox="0 0 24 24"><g fill-rule="evenodd" class="wd-icon-container"><path d="M10.5 9h5a.5.5 0 0 1 .5.5v1a.5.5 0 0 1-.5.5h-5a.5.5 0 0 1-.5-.5v-1a.5.5 0 0 1 .5-.5zm0 3h5a.5.5 0 0 1 .5.5v1a.5.5 0 0 1-.5.5h-5a.5.5 0 0 1-.5-.5v-1a.5.5 0 0 1 .5-.5zm0 3h2a.5.5 0 0 1 .5.5v1a.5.5 0 0 1-.5.5h-2a.5.5 0 0 1-.5-.5v-1a.5.5 0 0 1 .5-.5z" class="wd-icon-accent"/><path d="M19.5 5a.5.5 0 0 1 .5.5V14h-2V7H8v13h4v2H6.5a.5.5 0 0 1-.5-.5v-16a.5.5 0 0 1 .5-.5h13zm.59 11.09l.707.707a.5.5 0 0 1 0 .707l-4.293 4.293a.498.498 0 0 1-.218.127.499.499 0 0 1-.572-.095l-2.46-2.461a.5.5 0 0 1 0-.707l.707-.707a.5.5 0 0 1 .707 0l1.425 1.425 3.29-3.29a.5.5 0 0 1 .707 0zM5 4v14H3.5a.5.5 0 0 1-.5-.5v-15a.5.5 0 0 1 .5-.5h13a.5.5 0 0 1 .5.5V4H5z" class="wd-icon-fill"/></g></svg>