<svg xmlns="http://www.w3.org/2000/svg" width="24" height="24" class="wd-icon-document-candidate-action-required wd-icon" focusable="false" role="presentation" viewBox="0 0 24 24"><g fill-rule="evenodd" class="wd-icon-container"><path fill-rule="nonzero" d="M18.5 2a.5.5 0 0 1 .5.5v8.178a6.95 6.95 0 0 0-1.999-.603L17 4.004H5v16h4.674c.356.75.842 1.427 1.429 2.002L3.5 22.004a.5.5 0 0 1-.5-.5V2.5a.5.5 0 0 1 .5-.5h15zM7.498 16.004h2.004c.275 0 .498.214.498.505v.99a.496.496 0 0 1-.498.505H7.498A.494.494 0 0 1 7 17.499v-.99c0-.279.215-.505.498-.505zm0-3h2.004c.275 0 .498.214.498.505v.99a.496.496 0 0 1-.498.505H7.498A.494.494 0 0 1 7 14.499v-.99c0-.279.215-.505.498-.505zM8 7.504c0-.828.666-1.5 1.5-1.5.828 0 1.5.666 1.5 1.5 0 .828-.666 1.5-1.5 1.5-.828 0-1.5-.666-1.5-1.5zm8 4.5a5 5 0 1 1 0 10 5 5 0 0 1 0-10zm.5 6h-1a.5.5 0 0 0-.5.5v1a.5.5 0 0 0 .5.5h1a.5.5 0 0 0 .5-.5v-1a.5.5 0 0 0-.5-.5zm-.005-4h-.99a.493.493 0 0 0-.505.495v2.01c0 .28.226.495.505.495h.99c.291 0 .505-.222.505-.495v-2.01a.496.496 0 0 0-.505-.495zm-5.995-5c.828 0 1.5.666 1.5 1.5v1.5H7v-1.5c0-.828.674-1.5 1.5-1.5h2z" class="wd-icon-fill"/></g></svg>