<svg xmlns="http://www.w3.org/2000/svg" width="24" height="24" class="wd-icon-document-star wd-icon" focusable="false" role="presentation" viewBox="0 0 24 24"><g class="wd-icon-container"><path fill-rule="evenodd" d="M4 2.494C4 2.221 4.226 2 4.496 2h15.008c.274 0 .496.225.496.494v19.012a.498.498 0 0 1-.496.494H4.496A.497.497 0 0 1 4 21.506V2.494zM6 4h12v16H6V4z" class="wd-icon-fill" clip-rule="evenodd"/><path d="M12 9.949l1.537 1.014c.166.11.377-.043.334-.24l-.424-1.919 1.48-1.37c.143-.133.063-.377-.13-.394l-1.927-.167-.665-1.73a.218.218 0 0 0-.41 0l-.665 1.73-1.928.167c-.192.017-.272.261-.129.394l1.48 1.37-.424 1.919c-.043.197.168.35.334.24L12 9.95zM8 13.5a.5.5 0 0 1 .5-.5h7a.5.5 0 0 1 .5.5v1a.5.5 0 0 1-.5.5h-7a.5.5 0 0 1-.5-.5v-1zM8.5 16a.5.5 0 0 0-.5.5v1a.5.5 0 0 0 .5.5h7a.5.5 0 0 0 .5-.5v-1a.5.5 0 0 0-.5-.5h-7z" class="wd-icon-accent"/></g></svg>