<svg xmlns="http://www.w3.org/2000/svg" width="24" height="24" class="wd-icon-document-candidate-search wd-icon" focusable="false" role="presentation" viewBox="0 0 24 24"><g fill-rule="nonzero" class="wd-icon-container"><path d="M17 15c1.7 0 3 1.3 3 3 0 .6-.2 1.1-.4 1.5l.9.9c.2.2.2.5 0 .7l-.4.4c-.2.2-.5.2-.7 0l-.9-.9c-.4.3-1 .4-1.5.4-1.7 0-3-1.3-3-3s1.3-3 3-3zm0 1.5c-.8 0-1.5.7-1.5 1.5s.7 1.5 1.5 1.5 1.5-.7 1.5-1.5-.7-1.5-1.5-1.5zm-5.5-.5c.3 0 .5.2.5.5v1c0 .3-.2.5-.5.5h-3c-.3 0-.5-.2-.5-.5v-1c0-.3.2-.5.5-.5h3zm2-3c.3 0 .5.2.5.5v1c0 .3-.2.5-.5.5h-5c-.3 0-.5-.2-.5-.5v-1c0-.3.2-.5.5-.5h5zm-2-4c.8 0 1.5.7 1.5 1.5V12H8v-1.5C8 9.7 8.7 9 9.5 9h2zm-1-3c.8 0 1.5.7 1.5 1.5S11.3 9 10.5 9 9 8.3 9 7.5 9.7 6 10.5 6z" class="wd-icon-accent"/><path d="M4.5 2h15c.3 0 .5.2.5.5v10c0 .3-.2.5-.5.5h-1c-.3 0-.5-.2-.5-.5V4H6v16h6.5c.3 0 .5.2.5.5v1c0 .3-.2.5-.5.5h-8c-.3 0-.5-.2-.5-.5v-19c0-.3.2-.5.5-.5z" class="wd-icon-fill"/></g></svg>