<svg xmlns="http://www.w3.org/2000/svg" width="24" height="24" class="wd-icon-esignature wd-icon" focusable="false" role="presentation" viewBox="0 0 24 24"><g fill-rule="evenodd" class="wd-icon-container"><path fill-rule="nonzero" d="M6.332 13.406c.01-.017.905.655.914.638.067-.126.215.265 0 .7-.153.29-.275.544-.508 1.048-.134.308-.233.576-.421 1.121l-.014.04-.07.203a1.554 1.554 0 0 0-.095.319l-.011.085.032-.028.171-.154c.487-.437.71-.631 1.025-.878.043-.023.34-.224.408-.266.184-.117.347-.201.506-.256.291-.1.553-.09.762.066a.646.646 0 0 1 .06.053l.043.043.084.086c.098.116.115.123.276.115.038 0 .079-.001.132-.004l.058-.003c.259-.013.377-.01.542.029.153.049.28.083.587.161l.046.012.075.02.078.018c.143.035.216.05.312.061.068.007.204.012.386.016l.428.007c.244.003.48.004.754.004h.818a10.456 10.456 0 0 1 1.838.16s.018.04.04.096l.05.125c.05.131.091.262.028.2a13.55 13.55 0 0 0-1.397.117 11.46 11.46 0 0 1-1.347.09l-.6.013-.218.004-.819.016-.123.003c-.148.002-.246.004-.349.003-.173 0-.317-.005-.435-.016a2.381 2.381 0 0 1-.387-.075l-.062-.016a29.738 29.738 0 0 0-.199-.046 8.726 8.726 0 0 1-.52-.13 1.998 1.998 0 0 0-.393-.003l-.051.003a3.162 3.162 0 0 1-.214.005.739.739 0 0 1-.555-.293l-.043-.041-.054.047c-.208.182-.426.377-.677.607-.75.655-1.286 1.003-2.021 1.195-.308-.007-.408-.157-.42-.446-.008-.312.034-.573.145-.81l.054-.145.143-.396.02-.058-.231.24c-.17.17-.34.332-.514.488l-.478.406c-.435.344-.907.603-1.69.963L2 19.074V18.5l.08-.042a6.85 6.85 0 0 0 1.09-.704c.515-.45 1.008-.958 1.527-1.557.36-.45.6-.788.796-1.14l.143-.279.141-.279c.144-.311.276-.568.555-1.092zm-.914 2.727c-.087.22-.152.398-.294.796l.02-.058.025-.024c.086-.09.172-.184.26-.28l.264-.296zm9.773-1.63l2.348 1.094-1.336 1.03c-.494.38-.915.185-.941-.44l-.07-1.684zm4.293-8.873c.282-.604.99-.861 1.587-.583l.106.05c.599.278.852.989.572 1.59l-3.91 8.385-2.265-1.056z" class="wd-icon-fill"/></g></svg>