<svg xmlns="http://www.w3.org/2000/svg" width="24" height="24" class="wd-icon-excel wd-icon" focusable="false" role="presentation" viewBox="0 0 24 24"><g class="wd-icon-container"><path d="M22 2.494A.498.498 0 0 0 21.504 2H6.496A.498.498 0 0 0 6 2.494V6.5a.5.5 0 0 0 .5.5h1a.5.5 0 0 0 .5-.5V4h12v16H8v-2.5a.5.5 0 0 0-.5-.5h-1a.5.5 0 0 0-.5.5v4.006c0 .27.222.494.496.494h15.008c.27 0 .496-.221.496-.494V2.494z" class="wd-icon-fill"/><path d="M11 7.5a.5.5 0 0 1 .5-.5h2a.5.5 0 0 1 .5.5v1a.5.5 0 0 1-.5.5h-2a.5.5 0 0 1-.5-.5v-1zM11 11.5a.5.5 0 0 1 .5-.5h2a.5.5 0 0 1 .5.5v1a.5.5 0 0 1-.5.5h-2a.5.5 0 0 1-.5-.5v-1zM11 15.5a.5.5 0 0 1 .5-.5h2a.5.5 0 0 1 .5.5v1a.5.5 0 0 1-.5.5h-2a.5.5 0 0 1-.5-.5v-1zM15 7.5a.5.5 0 0 1 .5-.5h2a.5.5 0 0 1 .5.5v1a.5.5 0 0 1-.5.5h-2a.5.5 0 0 1-.5-.5v-1zM15 11.5a.5.5 0 0 1 .5-.5h2a.5.5 0 0 1 .5.5v1a.5.5 0 0 1-.5.5h-2a.5.5 0 0 1-.5-.5v-1zM15 15.5a.5.5 0 0 1 .5-.5h2a.5.5 0 0 1 .5.5v1a.5.5 0 0 1-.5.5h-2a.5.5 0 0 1-.5-.5v-1zM6.604 8.14l-1.239 2.519-1.239-2.52A.25.25 0 0 0 3.902 8H2.288a.25.25 0 0 0-.218.373l2.02 3.593-2.078 3.659a.25.25 0 0 0 .218.373h1.634a.25.25 0 0 0 .224-.139l1.277-2.57 1.277 2.57a.25.25 0 0 0 .224.139h1.64a.25.25 0 0 0 .217-.374l-2.084-3.658 2.026-3.593A.25.25 0 0 0 8.447 8H6.828a.25.25 0 0 0-.224.14z" class="wd-icon-fill"/></g></svg>