<svg xmlns="http://www.w3.org/2000/svg" width="24" height="24" class="wd-icon-exclamation-triangle wd-icon" focusable="false" role="presentation" viewBox="0 0 24 24"><g class="wd-icon-container"><path fill-rule="evenodd" d="M18.2 19.213L12.006 6.182 5.8 19.213h12.4z" class="wd-icon-background" clip-rule="evenodd"/><path fill-rule="evenodd" d="M12.441 3.316a.5.5 0 0 0-.894 0l-8.42 16.916a.5.5 0 0 0 .447.723l16.888.003a.5.5 0 0 0 .448-.724L12.44 3.316zM17.995 19L12.003 6.393 6 19h11.995z" class="wd-icon-fill" clip-rule="evenodd"/><path d="M12.5 10a.5.5 0 0 1 .5.5v4a.5.5 0 0 1-.5.5h-1a.5.5 0 0 1-.5-.5v-4a.5.5 0 0 1 .5-.5h1zM13 17.5a.5.5 0 0 1-.5.5h-1a.5.5 0 0 1-.5-.5v-1a.5.5 0 0 1 .5-.5h1a.5.5 0 0 1 .5.5v1z" class="wd-icon-accent"/></g></svg>