<svg xmlns="http://www.w3.org/2000/svg" width="24" height="24" class="wd-icon-face-id wd-icon" focusable="false" role="presentation" viewBox="0 0 24 24"><g fill-rule="evenodd" class="wd-icon-container"><path d="M8.5 8a.5.5 0 0 1 .5.5v2a.5.5 0 0 1-.5.5h-1a.5.5 0 0 1-.5-.5v-2a.5.5 0 0 1 .5-.5h1zm0-6a.5.5 0 0 1 .5.5v1a.5.5 0 0 1-.5.5H4v4.5a.5.5 0 0 1-.5.5h-1a.5.5 0 0 1-.5-.5v-6a.5.5 0 0 1 .5-.5h6zm-5 13a.5.5 0 0 1 .5.5V20h4.5a.5.5 0 0 1 .5.5v1a.5.5 0 0 1-.5.5h-6a.5.5 0 0 1-.5-.5v-6a.5.5 0 0 1 .5-.5h1zm18 0a.5.5 0 0 1 .5.5v6a.5.5 0 0 1-.5.5h-6a.5.5 0 0 1-.5-.5v-1a.5.5 0 0 1 .5-.5H20v-4.5a.5.5 0 0 1 .5-.5h1zm-5.9.2a1 1 0 0 1 .2 1.4c-.728.97-2.017 1.4-3.8 1.4s-3.072-.43-3.8-1.4a1 1 0 1 1 1.6-1.2c.272.363.983.6 2.2.6s1.928-.237 2.2-.6a1 1 0 0 1 1.4-.2zm.9-7.2a.5.5 0 0 1 .5.5v2a.5.5 0 0 1-.5.5h-1a.5.5 0 0 1-.5-.5v-2a.5.5 0 0 1 .5-.5h1zm5-6a.5.5 0 0 1 .5.5v6a.5.5 0 0 1-.5.5h-1a.5.5 0 0 1-.5-.5V4h-4.5a.5.5 0 0 1-.5-.5v-1a.5.5 0 0 1 .5-.5h6zM11 12V8.5a.5.5 0 0 1 .5-.5h1a.5.5 0 0 1 .5.5v4a1.5 1.5 0 0 1-1.5 1.5h-1a.5.5 0 0 1-.5-.5v-1a.5.5 0 0 1 .5-.5h.5z" class="wd-icon-fill"/></g></svg>