<svg xmlns="http://www.w3.org/2000/svg" width="24" height="24" class="wd-icon-face-happy wd-icon" focusable="false" role="presentation" viewBox="0 0 24 24"><g class="wd-icon-container"><path fill-rule="evenodd" d="M12 20a8 8 0 1 0 0-16 8 8 0 0 0 0 16zm0 2c5.523 0 10-4.477 10-10S17.523 2 12 2 2 6.477 2 12s4.477 10 10 10z" class="wd-icon-fill" clip-rule="evenodd"/><path fill-rule="evenodd" d="M9.324 14.433a1 1 0 0 0-1.656 1.122l.001.002.002.002.003.004.007.011a1.44 1.44 0 0 0 .08.108c.05.063.119.145.207.239.178.188.438.426.79.661.713.475 1.779.918 3.242.918 1.464 0 2.53-.443 3.242-.918.352-.235.612-.473.79-.661a3.489 3.489 0 0 0 .287-.347l.007-.01.003-.005.002-.002v-.001l.001-.001a1 1 0 1 0-1.666-1.108 2.59 2.59 0 0 1-.533.471c-.412.275-1.096.582-2.133.582-1.036 0-1.72-.307-2.133-.582a2.592 2.592 0 0 1-.445-.37 1.493 1.493 0 0 1-.098-.115z" class="wd-icon-accent" clip-rule="evenodd"/><path d="M8.25 8.5a1 1 0 1 1 2 0v1.75a1 1 0 1 1-2 0V8.5zM13.75 8.5a1 1 0 1 1 2 0v1.75a1 1 0 1 1-2 0V8.5z" class="wd-icon-accent"/></g></svg>