<svg xmlns="http://www.w3.org/2000/svg" width="24" height="24" class="wd-icon-face-unhappy wd-icon" focusable="false" role="presentation" viewBox="0 0 24 24"><g class="wd-icon-container"><path fill-rule="evenodd" d="M12 20a8 8 0 1 0 0-16 8 8 0 0 0 0 16zm0 2c5.523 0 10-4.477 10-10S17.523 2 12 2 2 6.477 2 12s4.477 10 10 10z" class="wd-icon-fill" clip-rule="evenodd"/><path fill-rule="evenodd" d="M14.677 16.567a1 1 0 0 0 1.655-1.122l-.001-.002-.002-.002-.003-.004-.007-.011a1.739 1.739 0 0 0-.08-.108 3.489 3.489 0 0 0-.207-.239 4.593 4.593 0 0 0-.79-.661c-.712-.475-1.778-.918-3.242-.918-1.463 0-2.53.443-3.242.918a4.591 4.591 0 0 0-.79.661 3.499 3.499 0 0 0-.287.347l-.007.01-.003.005-.002.002v.001l.002-.003-.003.004a1 1 0 1 0 1.666 1.108 2.588 2.588 0 0 1 .533-.471c.413-.275 1.097-.582 2.133-.582 1.037 0 1.72.307 2.133.582.21.14.357.277.445.37a1.491 1.491 0 0 1 .099.115z" class="wd-icon-accent" clip-rule="evenodd"/><path d="M8.25 8.5a1 1 0 1 1 2 0v1.75a1 1 0 1 1-2 0V8.5zM13.75 8.5a1 1 0 1 1 2 0v1.75a1 1 0 1 1-2 0V8.5z" class="wd-icon-accent"/></g></svg>