<svg xmlns="http://www.w3.org/2000/svg" width="24" height="24" class="wd-icon-face-very-happy wd-icon" focusable="false" role="presentation" viewBox="0 0 24 24"><g class="wd-icon-container"><path fill-rule="evenodd" d="M12 20a8 8 0 1 0 0-16 8 8 0 0 0 0 16zm0 2c5.523 0 10-4.477 10-10S17.523 2 12 2 2 6.477 2 12s4.477 10 10 10z" class="wd-icon-fill" clip-rule="evenodd"/><path d="M10.282 10.597a1.75 1.75 0 1 0-3.063 0c.298-.29.872-.487 1.531-.487.66 0 1.233.197 1.532.487zM16.782 10.597a1.75 1.75 0 1 0-3.063 0c.298-.29.872-.487 1.531-.487.66 0 1.233.197 1.532.487zM17.616 14.559c.314-.674-.41-1.192-1.11-.94-1.153.412-2.83.881-4.506.881-1.676 0-3.353-.469-4.506-.882-.7-.25-1.424.267-1.11.94C7.181 16.269 9.18 18 12 18c2.82 0 4.82-1.732 5.616-3.441z" class="wd-icon-accent"/></g></svg>