<svg xmlns="http://www.w3.org/2000/svg" width="24" height="24" class="wd-icon-face-neutral wd-icon" focusable="false" role="presentation" viewBox="0 0 24 24"><g class="wd-icon-container"><path fill-rule="evenodd" d="M12 20a8 8 0 1 0 0-16 8 8 0 0 0 0 16zm0 2c5.523 0 10-4.477 10-10S17.523 2 12 2 2 6.477 2 12s4.477 10 10 10z" class="wd-icon-fill" clip-rule="evenodd"/><path d="M8 15a1 1 0 0 1 1-1h6a1 1 0 1 1 0 2H9a1 1 0 0 1-1-1zM8.25 8.5a1 1 0 0 1 2 0v1.75a1 1 0 1 1-2 0V8.5zM13.75 8.5a1 1 0 1 1 2 0v1.75a1 1 0 1 1-2 0V8.5z" class="wd-icon-accent"/></g></svg>