<svg xmlns="http://www.w3.org/2000/svg" width="24" height="24" class="wd-icon-filter-checked wd-icon" focusable="false" role="presentation" viewBox="0 0 24 24"><g class="wd-icon-container"><path d="M2 5.505C2 5.226 2.225 5 2.494 5h19.012c.273 0 .494.214.494.505v.99a.502.502 0 0 1-.494.505H2.494A.492.492 0 0 1 2 6.495v-.99zM7 13.505c0-.279.228-.505.51-.505H12v2H7.51a.5.5 0 0 1-.51-.505v-.99zM12 17H9.491a.503.503 0 0 0-.491.505v.99c0 .291.22.505.491.505H12v-2zM18.502 11a.5.5 0 0 0 .498-.505v-.99A.494.494 0 0 0 18.502 9H5.498A.5.5 0 0 0 5 9.505v.99c0 .291.223.505.498.505h13.004z" class="wd-icon-fill"/><path fill-rule="evenodd" d="M17.049 16.353l-1.486-1.486a.499.499 0 0 0-.71.004l-.7.7a.495.495 0 0 0-.005.71l2.174 2.174a.495.495 0 0 0 .034.03l.337.338a.5.5 0 0 0 .715 0l4.258-4.258a.498.498 0 0 0 0-.715l-.7-.7a.5.5 0 0 0-.715 0l-3.202 3.203z" class="wd-icon-accent" clip-rule="evenodd"/></g></svg>