<svg xmlns="http://www.w3.org/2000/svg" width="24" height="24" class="wd-icon-find-inventory wd-icon" focusable="false" role="presentation" viewBox="0 0 24 24"><g class="wd-icon-container"><path fill-rule="evenodd" d="M19.5 7c.3 0 .5.2.5.5v3c0 .3-.2.5-.5.5h-1c-.3 0-.5-.2-.5-.5V9H6v9h3.5c.3 0 .5.2.5.5v1c0 .3-.2.5-.5.5h-5c-.3 0-.5-.2-.5-.5v-12c0-.3.2-.5.5-.5h15zM4.7 6c-.3 0-.4-.2-.2-.4l1.9-2.2c.4-.4.5-.4.8-.4h10c.3 0 .4 0 .8.4l1.9 2.2c.1.2 0 .4-.2.4h-15z" class="wd-icon-fill" clip-rule="evenodd"/><path fill-rule="evenodd" d="M17.923 19.348a3.88 3.88 0 0 1-2.003.553c-2.165 0-3.92-1.769-3.92-3.95C12 13.768 13.755 12 15.92 12c2.166 0 3.92 1.769 3.92 3.95 0 .729-.195 1.41-.536 1.997l2.548 2.508a.497.497 0 0 1 .005.702l-.694.698a.487.487 0 0 1-.689.004l-2.551-2.511zm-.042-3.398c0 1.091-.878 1.976-1.96 1.976a1.968 1.968 0 0 1-1.96-1.976c0-1.09.877-1.975 1.96-1.975 1.082 0 1.96.885 1.96 1.975z" class="wd-icon-accent" clip-rule="evenodd"/></g></svg>