<svg xmlns="http://www.w3.org/2000/svg" width="24" height="24" class="wd-icon-find-transactions wd-icon" focusable="false" role="presentation" viewBox="0 0 24 24"><g class="wd-icon-container"><path d="M8.5 12a.5.5 0 0 0-.5.5v1a.5.5 0 0 0 .5.5h2a.5.5 0 0 0 .5-.5v-1a.5.5 0 0 0-.5-.5h-2zM8 9.5a.5.5 0 0 1 .5-.5h4a.5.5 0 0 1 .5.5v1a.5.5 0 0 1-.5.5h-4a.5.5 0 0 1-.5-.5v-1zM14.5 9a.5.5 0 0 0-.5.5v1a.5.5 0 0 0 .5.5h1a.5.5 0 0 0 .5-.5v-1a.5.5 0 0 0-.5-.5h-1zM8 6.5a.5.5 0 0 1 .5-.5h4a.5.5 0 0 1 .5.5v1a.5.5 0 0 1-.5.5h-4a.5.5 0 0 1-.5-.5v-1zM14.5 6a.5.5 0 0 0-.5.5v1a.5.5 0 0 0 .5.5h1a.5.5 0 0 0 .5-.5v-1a.5.5 0 0 0-.5-.5h-1z" class="wd-icon-fill"/><path fill-rule="evenodd" d="M4 2.5a.5.5 0 0 1 .5-.5h15a.5.5 0 0 1 .5.5v9a.5.5 0 0 1-.5.5h-1a.5.5 0 0 1-.5-.5V4H6v13.865l1.67-1.391a.5.5 0 0 1 .626-.01l5.213 4.054a.5.5 0 0 1 .087.701l-.614.79a.5.5 0 0 1-.701.087l-4.26-3.312-3.2 2.668A.5.5 0 0 1 4 21.067V2.5z" class="wd-icon-fill" clip-rule="evenodd"/><path fill-rule="evenodd" d="M17.923 19.348a3.88 3.88 0 0 1-2.003.553c-2.165 0-3.92-1.769-3.92-3.95C12 13.768 13.755 12 15.92 12c2.166 0 3.92 1.769 3.92 3.95 0 .729-.195 1.41-.536 1.997l2.548 2.508a.497.497 0 0 1 .005.702l-.694.698a.487.487 0 0 1-.689.004l-2.551-2.511zm-.042-3.398c0 1.091-.878 1.976-1.96 1.976a1.968 1.968 0 0 1-1.96-1.976c0-1.09.877-1.975 1.96-1.975 1.082 0 1.96.885 1.96 1.975z" class="wd-icon-accent" clip-rule="evenodd"/></g></svg>