<svg xmlns="http://www.w3.org/2000/svg" width="24" height="24" class="wd-icon-flag wd-icon" focusable="false" role="presentation" viewBox="0 0 24 24"><g fill-rule="evenodd" class="wd-icon-container"><path d="M13.5 4a.5.5 0 0 1 .5.5v1.563l5.132-.004a.5.5 0 0 1 .45.72l-1.585 3.225 1.64 3.272a.5.5 0 0 1-.447.724h-7.685a.5.5 0 0 1-.5-.5V12L7 12.022v8.448a.5.5 0 0 1-.5.5h-1a.5.5 0 0 1-.5-.5V7.5l.004-.048L5 4.501a.5.5 0 0 1 .41-.493L5.5 4h8zm3.518 4H14v4h3.018l-1.022-1.99L17.018 8zM12 6H7v4h5V6z" class="wd-icon-fill"/></g></svg>