<svg xmlns="http://www.w3.org/2000/svg" width="24" height="24" class="wd-icon-formatting wd-icon" focusable="false" role="presentation" viewBox="0 0 24 24"><g fill-rule="evenodd" class="wd-icon-container"><path d="M12.109 4c.272 0 .571.208.67.47l2.96 7.811-2.122 2.136-.31-.865H8.59l-.71 1.976a.762.762 0 0 1-.666.472H5.35c-.275 0-.418-.208-.318-.47L9.27 4.47c.1-.26.407-.47.673-.47h2.167zm6.437 9.536l.829.83-.83.828-.828-.829.829-.829zm.203-1.454l2.08 2.08a.291.291 0 0 1-.004.41l-7.124 7.124a.81.81 0 0 1-.491.205l-1.915.01a.294.294 0 0 1-.295-.295l.01-1.915a.81.81 0 0 1 .205-.491l7.124-7.125a.293.293 0 0 1 .41-.003zM11 7l1.523 4H9.484L11 7z" class="wd-icon-fill"/></g></svg>