<svg xmlns="http://www.w3.org/2000/svg" width="24" height="24" class="wd-icon-fx wd-icon" focusable="false" role="presentation" viewBox="0 0 24 24"><g fill-rule="evenodd" class="wd-icon-container"><path d="M11.373 4a.5.5 0 0 1 .5.5v1.011a.5.5 0 0 1-.5.5h-.86c-.927 0-1.4.454-1.598 1.538L8.68 9.013h2.004a.5.5 0 0 1 .5.5v.991a.5.5 0 0 1-.5.5h-2.36l-.748 4.038C7.2 17.152 6.095 18 4.105 18H3.5a.5.5 0 0 1-.5-.5v-.972a.5.5 0 0 1 .5-.5h.289c.828 0 1.262-.394 1.44-1.34l.69-3.684H4.84a.5.5 0 0 1-.5-.5v-.991a.5.5 0 0 1 .5-.5h1.413l.354-1.957C6.983 5.065 7.93 4 10.06 4h1.314zm2.74 5c.275 0 .61.187.744.418l.028.048.078.132c.262.45.939 1.61 1.143 1.994l1.732-2.187c.173-.219.546-.405.824-.405H20.4c.288 0 .35.184.158.41L17.3 13.28l2.488 4.044c.142.231.031.412-.241.412h-1.849c-.271 0-.6-.183-.733-.408l-1.335-2.273c-.38.479-1.805 2.267-1.805 2.267-.178.223-.554.414-.83.414h-1.727c-.286 0-.348-.182-.161-.405l3.33-3.98L11.99 9.4c-.133-.214-.025-.401.252-.401z" class="wd-icon-fill"/></g></svg>