<svg xmlns="http://www.w3.org/2000/svg" width="24" height="24" class="wd-icon-globe wd-icon" focusable="false" role="presentation" viewBox="0 0 24 24"><g fill-rule="evenodd" class="wd-icon-container"><path fill-rule="nonzero" d="M12 2c5.523 0 10 4.477 10 10s-4.477 10-10 10S2 17.523 2 12 6.477 2 12 2zm-1 13H8.314c.503 2.316 1.55 4.046 2.686 4.706V15zm4.686 0H13v4.706c1.136-.661 2.183-2.39 2.686-4.705zm-9.411.001H4.582A8.028 8.028 0 0 0 7.5 18.615c-.548-1.035-.97-2.263-1.225-3.614zm13.143 0h-1.693c-.255 1.351-.677 2.579-1.226 3.615a8.03 8.03 0 0 0 2.92-3.615zm-13.298-5H4.252a8.015 8.015 0 0 0-.19 3H6.03a16.82 16.82 0 0 1 .09-3zM11 10H8.136a14.565 14.565 0 0 0-.102 3.001L11 13v-3zm4.864 0H13v3l2.966.001a14.878 14.878 0 0 0-.102-3zm3.884 0H17.88a16.557 16.557 0 0 1 .09 3l1.968.001a8.079 8.079 0 0 0-.19-3zM7.501 5.385l-.188.132A8.04 8.04 0 0 0 5.07 8H6.5c.25-.96.59-1.842 1-2.616zM8.575 8H11V4.294C10.035 4.855 9.133 6.189 8.575 8zM13 4.294L13 8h2.425c-.557-1.81-1.459-3.144-2.424-3.706zm3.499 1.09l.089.173c.37.732.679 1.554.912 2.443h1.429a8.04 8.04 0 0 0-2.43-2.615z" class="wd-icon-fill"/></g></svg>