<svg xmlns="http://www.w3.org/2000/svg" width="24" height="24" class="wd-icon-grid wd-icon" focusable="false" role="presentation" viewBox="0 0 24 24"><g fill-rule="evenodd" class="wd-icon-container"><path d="M7.495 3c.279 0 .505.227.505.5V6h3V3.445c0-.246.214-.445.505-.445h.99c.279 0 .505.202.505.445V6h3V3.41c0-.227.214-.41.505-.41h.99c.279 0 .505.178.505.41V6h2.533c.277 0 .5.214.5.505v.99a.505.505 0 0 1-.5.505L18 7.999V11h2.533c.277 0 .5.214.5.505v.99a.505.505 0 0 1-.5.505L18 12.999V16h2.533c.277 0 .5.214.5.505v.99a.505.505 0 0 1-.5.505L18 17.999v2.577c0 .227-.214.41-.505.41h-.99c-.279 0-.505-.178-.505-.41V18h-3v2.542c0 .246-.214.445-.505.445h-.99c-.279 0-.505-.202-.505-.445V18H8v2.487c0 .276-.214.5-.505.5h-.99a.505.505 0 0 1-.505-.5v-2.487L3.501 18A.495.495 0 0 1 3 17.495v-.99c0-.279.228-.505.501-.505H6v-3.001L3.501 13A.495.495 0 0 1 3 12.495v-.99c0-.279.228-.505.501-.505H6V7.999L3.501 8A.495.495 0 0 1 3 7.495v-.99C3 6.226 3.228 6 3.501 6H6V3.5c0-.276.214-.5.505-.5h.99zM11 12.999H8V16h3v-3.001zm5 0h-3V16h3v-3.001zm-5-5H8V11h3V7.999zm5 0h-3V11h3V7.999z" class="wd-icon-fill"/></g></svg>