<svg xmlns="http://www.w3.org/2000/svg" width="24" height="24" class="wd-icon-hierarchy-parent wd-icon" focusable="false" role="presentation" viewBox="0 0 24 24"><g class="wd-icon-container"><path fill-rule="evenodd" d="M5.5 8a1.5 1.5 0 1 0 0-3 1.5 1.5 0 0 0 0 3zm0 2a3.5 3.5 0 1 0 0-7 3.5 3.5 0 0 0 0 7zM18.5 8a1.5 1.5 0 1 0 0-3 1.5 1.5 0 0 0 0 3zm0 2a3.5 3.5 0 1 0 0-7 3.5 3.5 0 0 0 0 7zM18.5 19a1.5 1.5 0 1 0 0-3 1.5 1.5 0 0 0 0 3zm0 2a3.5 3.5 0 1 0 0-7 3.5 3.5 0 0 0 0 7z" class="wd-icon-fill" clip-rule="evenodd"/><path d="M13 5.5h3v2h-3v-2zM13 16.5h3v2h-3v-2zM11 5.5h2v13h-1.5a.5.5 0 0 1-.5-.5V5.5zM8 5.5h3v2H8v-2z" class="wd-icon-fill"/><circle cx="5.5" cy="6.5" r="3.5" class="wd-icon-accent"/></g></svg>