<svg xmlns="http://www.w3.org/2000/svg" width="24" height="24" class="wd-icon-hierarchy-diagonal-parent-child-child wd-icon" focusable="false" role="presentation" viewBox="0 0 24 24"><g class="wd-icon-container"><path fill-rule="evenodd" d="M18.5 17a1.5 1.5 0 1 1 0 3 1.5 1.5 0 0 1 0-3zm0-2a3.5 3.5 0 1 1 0 7 3.5 3.5 0 0 1 0-7zM12 10.5a1.5 1.5 0 1 1 0 3 1.5 1.5 0 0 1 0-3zm0-2a3.5 3.5 0 1 1 0 7 3.5 3.5 0 0 1 0-7zm-5-3a1.5 1.5 0 1 0-3 0 1.5 1.5 0 0 0 3 0zm2 0a3.5 3.5 0 1 0-7 0 3.5 3.5 0 0 0 7 0z" class="wd-icon-fill" clip-rule="evenodd"/><path fill-rule="evenodd" d="M18.5 15a3.5 3.5 0 1 1-3.355 4.5H12a1 1 0 0 1-1-1v-3.145A3.508 3.508 0 0 1 8.645 13H5.5a1 1 0 0 1-1-1V8.855A3.502 3.502 0 0 1 5.5 2a3.5 3.5 0 0 1 1 6.855V11h2.145a3.502 3.502 0 0 1 6.855 1 3.502 3.502 0 0 1-2.5 3.355V17.5h2.145A3.502 3.502 0 0 1 18.5 15z" class="wd-icon-accent" clip-rule="evenodd"/></g></svg>