<svg xmlns="http://www.w3.org/2000/svg" width="24" height="24" class="wd-icon-indent wd-icon" focusable="false" role="presentation" viewBox="0 0 24 24"><g fill-rule="evenodd" class="wd-icon-container"><path d="M3 6.505C3 6.226 3.228 6 3.5 6h17c.276 0 .5.214.5.505v.99a.505.505 0 0 1-.5.505h-17a.495.495 0 0 1-.5-.505v-.99zm0 10c0-.279.228-.505.5-.505h17c.276 0 .5.214.5.505v.99a.505.505 0 0 1-.5.505h-17a.495.495 0 0 1-.5-.505v-.99zm9-5c0-.279.222-.505.51-.505h7.98a.5.5 0 0 1 .51.505v.99a.504.504 0 0 1-.51.505h-7.98a.5.5 0 0 1-.51-.505v-.99zM3.495 11a.493.493 0 0 0-.495.505v.99c0 .279.216.505.495.505H6v1.495c0 .279.172.376.398.206L9.602 12.3c.22-.165.226-.428 0-.598L6.398 9.3C6.178 9.134 6 9.214 6 9.505V11H3.495z" class="wd-icon-fill"/></g></svg>