<svg xmlns="http://www.w3.org/2000/svg" width="24" height="24" class="wd-icon-info wd-icon" focusable="false" role="presentation" viewBox="0 0 24 24"><g fill-rule="evenodd" class="wd-icon-container"><path d="M3 12a9 9 0 0 0 9 9 9 9 0 0 0 9-9 9 9 0 0 0-9-9 9 9 0 0 0-9 9z" class="wd-icon-background"/><path d="M12 2c5.523 0 10 4.476 10 10 0 5.523-4.476 10-10 10-5.523 0-10-4.476-10-10C2 6.477 6.476 2 12 2zm0 2a8 8 0 0 0-8 8 8 8 0 0 0 8 8 8 8 0 0 0 8-8 8 8 0 0 0-8-8z" class="wd-icon-fill"/><path d="M12.495 10c.279 0 .505.233.505.503v5.994a.497.497 0 0 1-.505.503h-.99a.509.509 0 0 1-.505-.503v-5.994c0-.278.214-.503.505-.503h.99zm0-1A.497.497 0 0 0 13 8.495v-.99A.497.497 0 0 0 12.495 7h-.99a.497.497 0 0 0-.505.505v.99c0 .279.214.505.505.505h.99z" class="wd-icon-accent"/></g></svg>