<svg xmlns="http://www.w3.org/2000/svg" width="24" height="24" class="wd-icon-interactiongroup wd-icon" focusable="false" role="presentation" viewBox="0 0 24 24"><g fill-rule="evenodd" class="wd-icon-container"><path d="M9 5h10v10H9z" class="wd-icon-background"/><path d="M18 20.495a.502.502 0 0 1-.5.505h.002H3.499a.497.497 0 0 1-.491-.408L3 20.502V7.497c0-.275.214-.498.505-.498h1.014L5.495 7c.291 0 .505.226.505.505v.99C6 8.786 5.774 9 5.495 9H5v10h11v-.495c0-.259.179-.456.414-.497l.09-.008h.991c.291 0 .505.226.505.505zM20.502 3c.275 0 .498.22.498.498v13.004c0 .275-.22.498-.498.498H7.498A.496.496 0 0 1 7 16.502V3.498C7 3.223 7.22 3 7.498 3h13.004zM19 5H9v10h10V5z" class="wd-icon-fill"/></g></svg>