<svg xmlns="http://www.w3.org/2000/svg" width="24" height="24" class="wd-icon-inventory-search wd-icon" focusable="false" role="presentation" viewBox="0 0 24 24"><g fill-rule="evenodd" class="wd-icon-container"><path d="M12 7.505c0-.279.23-.505.5-.505h7c.276 0 .5.214.5.505v.99c0 .279-.23.505-.5.505h-7a.495.495 0 0 1-.5-.505v-.99zm0 8c0-.279.23-.505.5-.505h7c.276 0 .5.214.5.505v.99c0 .279-.23.505-.5.505h-7a.495.495 0 0 1-.5-.505v-.99zm-2.718-9.95a.504.504 0 0 1 .705-.005l.533.533a.494.494 0 0 1-.005.705l-3.627 3.627a.504.504 0 0 1-.705.005l-.533-.533a.521.521 0 0 1-.023-.025l-1.278-1.28a.49.49 0 0 1 .001-.699l.533-.533a.502.502 0 0 1 .7 0l.952.952zM5.58 13.597l1.158 1.158 1.157-1.158a.499.499 0 0 1 .629-.054l.069.057.533.533a.488.488 0 0 1 .003.697L7.97 15.988l1.158 1.157a.488.488 0 0 1-.003.698l-.533.533a.498.498 0 0 1-.698.003L6.738 17.22 5.58 18.379a.499.499 0 0 1-.628.054l-.069-.057-.533-.533a.488.488 0 0 1-.003-.698l1.157-1.157-1.157-1.158a.488.488 0 0 1 .003-.697l.533-.533a.498.498 0 0 1 .697-.003z" class="wd-icon-fill"/></g></svg>