<svg xmlns="http://www.w3.org/2000/svg" width="24" height="24" class="wd-icon-invisible wd-icon" focusable="false" role="presentation" viewBox="0 0 24 24"><g fill-rule="evenodd" class="wd-icon-container"><path d="M5.986 4.571l13.443 13.443c.193.193.198.501-.008.707l-.7.7a.502.502 0 0 1-.707.008L4.571 5.986a.492.492 0 0 1 .008-.707l.7-.7a.502.502 0 0 1 .707-.008zm-1.213 4.41l1.433 1.434C5.148 11.259 4.5 12 4.5 12S8 16 12 16l-.213-.005 1.855 1.855A9.117 9.117 0 0 1 12 18c-5.778 0-9.701-5.564-9.984-5.976L2 12l.037-.053c.195-.282 1.167-1.627 2.736-2.966zM12 6c5.667 0 9.55 5.352 9.963 5.947l.033.047c.004.006-1.005 1.519-2.769 3.025l-1.434-1.433C18.85 12.742 19.5 12 19.5 12S16 8 12 8l.211.005-1.854-1.855A9.117 9.117 0 0 1 12 6z" class="wd-icon-fill"/><path d="M6.206 10.415l5.581 5.58-.059-.001C7.843 15.82 4.5 12 4.5 12s.648-.741 1.706-1.585zm6.005-2.41L12 8c4 0 7.5 4 7.5 4s-.649.742-1.707 1.586L12.21 8.005z" class="wd-icon-background"/></g></svg>