<svg xmlns="http://www.w3.org/2000/svg" width="24" height="24" class="wd-icon-job-info wd-icon" focusable="false" role="presentation" viewBox="0 0 24 24"><g fill-rule="evenodd" class="wd-icon-container"><path d="M18 18a4 4 0 1 1 0-8 4 4 0 0 1 0 8zm-.444-4.444v2.666h.888v-2.666h-.888zm0-1.33c0 .246.2.44.441.44a.442.442 0 0 0 .447-.44c0-.248-.2-.448-.447-.448-.241 0-.441.2-.441.447zM8.5 10h2a.5.5 0 0 1 .5.5v1a.5.5 0 0 1-.5.5h-2a.5.5 0 0 1-.5-.5v-1a.5.5 0 0 1 .5-.5zm0 3h2a.5.5 0 0 1 .5.5v1a.5.5 0 0 1-.5.5h-2a.5.5 0 0 1-.5-.5v-1a.5.5 0 0 1 .5-.5z" class="wd-icon-accent"/><path d="M6 17.5a.5.5 0 0 1-.5.5h-1a.5.5 0 0 1-.5-.5V8H2.5a.5.5 0 0 1-.5-.5v-1a.5.5 0 0 1 .5-.5h19a.5.5 0 0 1 .5.5v1a.5.5 0 0 1-.5.5H20v1h-2V8H6v9.5z" class="wd-icon-fill"/></g></svg>