<svg xmlns="http://www.w3.org/2000/svg" width="24" height="24" class="wd-icon-legal wd-icon" focusable="false" role="presentation" viewBox="0 0 24 24"><g class="wd-icon-container"><path fill-rule="evenodd" d="M15.082 10.563l.513.533c.182.19.49.188.69-.004l2.878-2.774a.489.489 0 0 0 .031-.69l-5.269-5.485a.487.487 0 0 0-.689.004l-2.88 2.774a.489.489 0 0 0-.03.69l.572.596L7.3 9.675l-.572-.596a.487.487 0 0 0-.69.004L3.16 11.858a.49.49 0 0 0-.031.69l5.269 5.485c.182.19.49.187.689-.004l2.88-2.775a.489.489 0 0 0 .03-.69l-.513-.533.723-.696 6.448 6.712c.227.237.572.274.771.082l1.44-1.387c.199-.192.175-.539-.052-.776l-6.448-6.712.717-.691zm-2.789-2.904l1.395 1.452-3.597 3.465-1.394-1.452 3.596-3.465zm3.756 1.019L12.756 5.25l.717-.691 3.294 3.428-.718.691zm-9.774 2.817l-.72.694 3.294 3.428.72-.694-3.294-3.428zm8.065 1.17l-.694-.72-.72.693.693.72.72-.693zm5.473 5.703l-.691-.723-.723.692.691.722.723-.69z" class="wd-icon-fill" clip-rule="evenodd"/><path d="M5 19.5a.5.5 0 0 1 .5-.5h8a.5.5 0 0 1 .5.5v.5h.5a.5.5 0 0 1 .5.5v1a.5.5 0 0 1-.5.5h-10a.5.5 0 0 1-.5-.5v-1a.5.5 0 0 1 .5-.5H5v-.5z" class="wd-icon-fill"/></g></svg>