<svg xmlns="http://www.w3.org/2000/svg" width="24" height="24" class="wd-icon-lock-plus wd-icon" focusable="false" role="presentation" viewBox="0 0 24 24"><g fill-rule="evenodd" class="wd-icon-container"><path d="M12.495 12c.279 0 .505.228.505.491V14h1.5a.5.5 0 0 1 .5.5v1a.5.5 0 0 1-.5.5H13v1.509a.49.49 0 0 1-.505.491h-.99a.503.503 0 0 1-.505-.491V16H9.5a.5.5 0 0 1-.5-.5v-1a.5.5 0 0 1 .5-.5H11v-1.509a.49.49 0 0 1 .505-.491h.99z" class="wd-icon-accent"/><path d="M14 6.009a2 2 0 1 0-4 0V9H8V5.996a4 4 0 0 1 8 0V9h2.502c.275 0 .498.229.498.5v11c0 .276-.22.5-.498.5H5.498A.503.503 0 0 1 5 20.5v-11c0-.276.22-.5.498-.5H14zM17 11H7v8h10v-8z" class="wd-icon-fill"/></g></svg>