<svg xmlns="http://www.w3.org/2000/svg" width="24" height="24" class="wd-icon-mail-letter wd-icon" focusable="false" role="presentation" viewBox="0 0 24 24"><g fill-rule="evenodd" class="wd-icon-container"><path d="M19.333 2c.369 0 .667.124.667.278V9h1.506c.273 0 .494.226.494.494v12.012a.496.496 0 0 1-.494.494H2.494A.497.497 0 0 1 2 21.506V9.494C2 9.22 2.225 9 2.494 9H4V2.278C4 2.124 4.298 2 4.667 2h14.666zm-4.742 14.651l-1.579 1.229a1.673 1.673 0 0 1-2.024 0l-1.58-1.229L4.719 20H19.28l-4.689-3.349zM20 12.444l-3.762 2.926L20 18.057v-5.613zm-16 0v5.612l3.761-2.686L4 12.444zM18 4H6v7.466l6 4.667 6-4.667V4zm-2.5 2c.276 0 .5.214.5.505v.99c0 .279-.23.505-.5.505h-7a.495.495 0 0 1-.5-.505v-.99C8 6.226 8.23 6 8.5 6h7zM8 10.505c0-.279.228-.505.491-.505h5.018a.49.49 0 0 1 .491.505v.99a.503.503 0 0 1-.491.505H8.491A.49.49 0 0 1 8 11.495v-.99z" class="wd-icon-fill"/></g></svg>