<svg xmlns="http://www.w3.org/2000/svg" width="24" height="24" class="wd-icon-manage-delivery wd-icon" focusable="false" role="presentation" viewBox="0 0 24 24"><g fill-rule="evenodd" class="wd-icon-container"><path d="M19.5 4h-15a.5.5 0 0 0-.5.5V20h10v-2H6V6h12v7h2V4.5a.5.5 0 0 0-.5-.5z" class="wd-icon-fill"/><path d="M8 14.505c0-.279.228-.505.491-.505h5.018a.49.49 0 0 1 .491.505v.99a.503.503 0 0 1-.491.505H8.491A.49.49 0 0 1 8 15.495v-.99zm0-3c0-.279.23-.505.5-.505h7c.276 0 .5.214.5.505v.99c0 .279-.23.505-.5.505h-7a.495.495 0 0 1-.5-.505v-.99zm0-3C8 8.226 8.215 8 8.49 8h3.02c.27 0 .49.214.49.505v.99a.495.495 0 0 1-.49.505H8.49A.49.49 0 0 1 8 9.495v-.99zM19.251 18.5c.966 0 1.749.777 1.749 1.75V22h-5v-1.75c0-.966.781-1.75 1.749-1.75h1.502zM18.5 15c.918 0 1.671.701 1.744 1.606l.006.144c0 .918-.701 1.671-1.606 1.744l-.144.006c-.966 0-1.75-.777-1.75-1.75 0-.918.701-1.671 1.606-1.744L18.5 15z" class="wd-icon-accent"/></g></svg>