<svg xmlns="http://www.w3.org/2000/svg" width="24" height="24" class="wd-icon-map wd-icon" focusable="false" role="presentation" viewBox="0 0 24 24"><g class="wd-icon-container"><path fill-rule="evenodd" d="M22 4.25a.25.25 0 0 0-.319-.24L15 5.993 9.073 4.018a.25.25 0 0 0-.147-.003L2.18 6A.25.25 0 0 0 2 6.24v13.51a.25.25 0 0 0 .319.24L9 17.994l5.927 1.976a.25.25 0 0 0 .147.003l6.745-1.98a.25.25 0 0 0 .181-.24V4.25zm-8 3.518l-4-1.333v9.783l4 1.334V7.768zm2 9.86l4-1.197v-9.86l-4 1.217v9.84zm-8-1.43V6.36L4 7.56v9.87L8 16.2z" class="wd-icon-fill" clip-rule="evenodd"/></g></svg>