<svg xmlns="http://www.w3.org/2000/svg" width="24" height="24" class="wd-icon-medal wd-icon" focusable="false" role="presentation" viewBox="0 0 24 24"><g fill-rule="evenodd" class="wd-icon-container"><path d="M16.5 3c.277 0 .501.226.501.5l-.003 7.52a.5.5 0 0 1-.227.419L13 13.893v1.045a2.751 2.751 0 0 1 1.745 2.394l.005.168A2.75 2.75 0 1 1 11 14.938v-1.015l-3.771-2.486a.5.5 0 0 1-.225-.417L7 3.5c0-.277.228-.5.5-.5h9zM12 16.375a1.125 1.125 0 1 0 0 2.25 1.125 1.125 0 0 0 0-2.25zM11 5H9l.004 4.952L11 11.243V5zm4 0h-2v6.224l1.998-1.276L15 5z" class="wd-icon-fill"/></g></svg>