<svg xmlns="http://www.w3.org/2000/svg" width="24" height="24" class="wd-icon-media-topics wd-icon" focusable="false" role="presentation" viewBox="0 0 24 24"><g fill-rule="evenodd" class="wd-icon-container"><path d="M5 5h5v5H5zm0 9h5v5H5zm9-9h5v5h-5zm0 9h5v5h-5z" class="wd-icon-background"/><path d="M10.497 13c.278 0 .503.233.503.503v5.994a.508.508 0 0 1-.503.503H4.503A.508.508 0 0 1 4 19.497v-5.994c0-.278.233-.503.503-.503h5.994zm9 0c.278 0 .503.233.503.503v5.994a.508.508 0 0 1-.503.503h-5.994a.508.508 0 0 1-.503-.503v-5.994c0-.278.233-.503.503-.503h5.994zM9 15H6v3h3v-3zm9 0h-3v3h3v-3zM10.497 4c.278 0 .503.233.503.503v5.994a.508.508 0 0 1-.503.503H4.503A.508.508 0 0 1 4 10.497V4.503C4 4.225 4.233 4 4.503 4h5.994zm9 0c.278 0 .503.233.503.503v5.994a.508.508 0 0 1-.503.503h-5.994a.508.508 0 0 1-.503-.503V4.503c0-.278.233-.503.503-.503h5.994zM9 6H6v3h3V6zm9 0h-3v3h3V6z" class="wd-icon-fill"/></g></svg>