<svg xmlns="http://www.w3.org/2000/svg" width="24" height="24" class="wd-icon-merge-tag wd-icon" focusable="false" role="presentation" viewBox="0 0 24 24"><g fill-rule="evenodd" class="wd-icon-container"><path d="M2.45 11.642a1.15 1.15 0 0 1-.287-.862l1.033-7.009a.73.73 0 0 1 .575-.575l7.01-1.033c.276-.041.653.08.86.286l10.112 10.112c.2.199.201.52.011.71l-8.494 8.493a.495.495 0 0 1-.71-.01L2.45 11.641zm8.128-7.428l8.707 8.707-6.364 6.364-8.707-8.707.818-5.546 5.546-.818zm4.59 5.932c-1.388-1.389-3.564-1.504-5.06-.007-1.453 1.452-1.331 3.506.166 5.003.48.48 1.292.909 1.919.947l.14-.793c-.588-.103-1.08-.416-1.439-.774-1.177-1.178-1.094-2.656-.057-3.692 1.126-1.126 2.661-1.088 3.704-.045.947.947 1.036 2.227.153 3.11-.607.607-1.311.71-1.612.409-.109-.109-.09-.269.007-.365a.44.44 0 0 1 .083-.07l1.887-1.222-.659-.659-.307.205c.134-.327-.02-.698-.243-.921-.672-.672-1.849-.66-2.68.172-.647.646-.672 1.53-.135 2.067.294.294.716.46 1.12.352-.128.23-.135.607.217.96l.026.025c.671.646 1.99.684 2.968-.294 1.203-1.203 1.133-3.078-.198-4.408zm-3.212 1.97c.41-.41.973-.499 1.325-.147.243.243.198.556-.07.825-.487.474-1.07.57-1.383.256-.281-.281-.185-.62.128-.934zM9.065 6.943a1.5 1.5 0 1 0-2.122 2.122 1.5 1.5 0 0 0 2.122-2.122z" class="wd-icon-fill"/></g></svg>