<svg xmlns="http://www.w3.org/2000/svg" width="24" height="24" class="wd-icon-messaging wd-icon" focusable="false" role="presentation" viewBox="0 0 24 24"><g class="wd-icon-container"><path d="M4 5h10v2.5a.5.5 0 0 0 .5.5h1a.5.5 0 0 0 .5-.5V5a2 2 0 0 0-2-2H4a2 2 0 0 0-2 2v7a2 2 0 0 0 2 2v1.432a.5.5 0 0 0 .82.385l1.91-1.592a.75.75 0 0 0 .27-.576V12.5a.5.5 0 0 0-.5-.5H4V5z" class="wd-icon-fill"/><path fill-rule="evenodd" d="M8 11a2 2 0 0 1 2-2h10a2 2 0 0 1 2 2v7a2 2 0 0 1-2 2v1.433a.5.5 0 0 1-.82.384L17 20h-7a2 2 0 0 1-2-2v-7zm2 0h10v7H10v-7z" class="wd-icon-fill" clip-rule="evenodd"/></g></svg>