<svg xmlns="http://www.w3.org/2000/svg" width="24" height="24" class="wd-icon-microphone wd-icon" focusable="false" role="presentation" viewBox="0 0 24 24"><g class="wd-icon-container"><rect width="6" height="11" x="9" y="3" class="wd-icon-background" rx="3"/><path d="M10.992 18.938A8.005 8.005 0 0 1 4 11.5a.477.477 0 0 1 .485-.5h1.001c.276 0 .498.225.52.5a6.004 6.004 0 0 0 5.986 5.5h.778a5.225 5.225 0 0 0 5.227-5.222V11.5a.5.5 0 0 1 .5-.5H19.5a.5.5 0 0 1 .5.5v.278a7.225 7.225 0 0 1-7.006 7.219V21.5a.5.5 0 0 1-.5.5h-1.002a.5.5 0 0 1-.5-.5v-2.562z" class="wd-icon-fill"/><path fill-rule="evenodd" d="M14 11V6a2 2 0 1 0-4 0v5a2 2 0 1 0 4 0zm-2-9a4 4 0 0 0-4 4v5a4 4 0 0 0 8 0V6a4 4 0 0 0-4-4z" class="wd-icon-fill" clip-rule="evenodd"/></g></svg>