<svg xmlns="http://www.w3.org/2000/svg" width="24" height="24" class="wd-icon-move-inventory wd-icon" focusable="false" role="presentation" viewBox="0 0 24 24"><g class="wd-icon-container"><path d="M3.146 9.096a.5.5 0 0 0 0 .707l.708.707a.5.5 0 0 0 .707 0l1.767-1.767 8.132 8.131a.5.5 0 0 0 .707 0l5.304-5.303a.5.5 0 0 0 0-.707l-.707-.707a.5.5 0 0 0-.708 0l-4.242 4.242-8.132-8.131a.5.5 0 0 0-.707 0L3.146 9.096zM12.692 19.35a2 2 0 1 0-2.828-2.83 2 2 0 0 0 2.828 2.83z" class="wd-icon-fill"/><path d="M8.803 6.975a.5.5 0 0 1 0-.707l2.122-2.122a.5.5 0 0 1 .707 0l1.414 1.415a.5.5 0 0 1 0 .707l-2.121 2.121a.5.5 0 0 1-.708 0L8.803 6.975zM11.632 9.096a.5.5 0 0 0 0 .707l2.828 2.829a.5.5 0 0 0 .707 0l3.536-3.536a.5.5 0 0 0 0-.707l-2.829-2.828a.5.5 0 0 0-.707 0l-3.535 3.535z" class="wd-icon-fill"/></g></svg>