<svg xmlns="http://www.w3.org/2000/svg" width="24" height="24" class="wd-icon-my-referrals wd-icon" focusable="false" role="presentation" viewBox="0 0 24 24"><g class="wd-icon-container"><path d="M4.5 4a.5.5 0 0 0-.5.5v4a.5.5 0 0 0 .5.5h1a.5.5 0 0 0 .5-.5V6h2.5a.5.5 0 0 0 .5-.5v-1a.5.5 0 0 0-.5-.5h-4zM4.5 20a.5.5 0 0 1-.5-.5v-4a.5.5 0 0 1 .5-.5h1a.5.5 0 0 1 .5.5V18h2.5a.5.5 0 0 1 .5.5v1a.5.5 0 0 1-.5.5h-4zM20 4.5a.5.5 0 0 0-.5-.5h-4a.5.5 0 0 0-.5.5v1a.5.5 0 0 0 .5.5H18v2.5a.5.5 0 0 0 .5.5h1a.5.5 0 0 0 .5-.5v-4zM19.5 20a.5.5 0 0 0 .5-.5v-4a.5.5 0 0 0-.5-.5h-1a.5.5 0 0 0-.5.5V18h-2.5a.5.5 0 0 0-.5.5v1a.5.5 0 0 0 .5.5h4z" class="wd-icon-fill"/><path fill-rule="evenodd" d="M10.5 10a1.5 1.5 0 1 1 3 0 1.5 1.5 0 0 1-3 0zm1.5 1.5a2.5 2.5 0 0 1 2.5 2.5v.5h-5V14a2.5 2.5 0 0 1 2.5-2.5z" class="wd-icon-fill" clip-rule="evenodd"/></g></svg>