<svg xmlns="http://www.w3.org/2000/svg" width="24" height="24" class="wd-icon-no-bid wd-icon" focusable="false" role="presentation" viewBox="0 0 24 24"><g fill-rule="evenodd" class="wd-icon-container"><path d="M4 9l13.066 7.743c.24.142.21.257-.062.257H13v3.51a.49.49 0 0 1-.505.49h-.99a.495.495 0 0 1-.505-.49V17H4.496A.503.503 0 0 1 4 16.5V9zm.51-4.493l16.433 9.558c.236.138.32.434.175.686l-.495.858a.5.5 0 0 1-.68.188L3.51 6.24a.494.494 0 0 1-.175-.685l.496-.858a.5.5 0 0 1 .68-.189zM19.494 4a.51.51 0 0 1 .505.503V11L7.945 4.25c-.246-.138-.228-.25.06-.25h11.49z" class="wd-icon-fill"/></g></svg>