<svg xmlns="http://www.w3.org/2000/svg" width="24" height="24" class="wd-icon-notifications wd-icon" focusable="false" role="presentation" viewBox="0 0 24 24"><g fill-rule="evenodd" class="wd-icon-container"><path d="M18.417 17.998a14.272 14.272 0 0 1-.111-.164c-.974-1.46-1.579-2.973-1.579-4.561V8.546A3.554 3.554 0 0 0 13.179 5H10.82a3.539 3.539 0 0 0-3.548 3.546v4.727c0 1.588-.605 3.1-1.579 4.561l-.105.156 12.829.008zm-4.623.605h-3.588a1.794 1.794 0 0 0 3.588 0z" class="wd-icon-background"/><path d="M12 2c1.054 0 1.918.809 1.995 1.85L14 4l-.003.1A5.01 5.01 0 0 1 18 9v4c0 2 2 4 2 4v1.495a.503.503 0 0 1-.496.505l-4.505-.004A3 3 0 1 1 9 19l-.001-.007-4.503-.003A.502.502 0 0 1 4 18.488V17s2-2 2-4V9c0-2.42 1.713-4.44 4.003-4.9a1.995 1.995 0 0 1 1.847-2.094L12 2zm1 17h-2a1 1 0 0 0 2 0zM12 6C9 6 8 7.34 8 9v4c0 1.344-.512 2.623-1.336 3.86l-.09.132 10.856.006a12.076 12.076 0 0 1-.094-.139C16.512 15.623 16 14.344 16 13V9c0-1.651-1-3-4-3z" class="wd-icon-fill"/></g></svg>