<svg xmlns="http://www.w3.org/2000/svg" width="24" height="24" class="wd-icon-object wd-icon" focusable="false" role="presentation" viewBox="0 0 24 24"><g fill-rule="evenodd" class="wd-icon-container"><path d="M5.007 16.926v-2.008c0-1.402-1.562-1.997-1.562-1.997C3.2 12.799 3 12.468 3 12.209v-.683c0-.271.2-.582.445-.711 0 0 1.562-.594 1.562-2.003v-2.01c.018-1.123.073-1.89.627-2.583.555-.692 1.93-1.178 1.93-1.178.24-.097.592-.016.786.18l.3.306c.193.197.172.48-.052.653 0 0-1.68 1.063-1.718 2.621v2.011c0 1.403-.53 2.479-1.59 3.046 1.06.574 1.59 1.645 1.59 3.06v2.008c.037 1.559 1.747 2.894 1.747 2.894a.465.465 0 0 1 .023.683l-.3.306c-.193.196-.547.256-.791.11 0 0-2.037-.82-2.552-3.993zm13.972 0v-2.008c0-1.402 1.562-1.997 1.562-1.997.246-.122.445-.453.445-.712v-.683c0-.271-.2-.582-.445-.711 0 0-1.562-.594-1.562-2.003v-2.01c-.018-1.123-.073-1.89-.627-2.583-.555-.692-1.929-1.178-1.929-1.178-.241-.097-.593-.016-.787.18l-.3.306c-.193.197-.172.48.053.653 0 0 1.68 1.063 1.717 2.621v2.011c0 1.403.53 2.479 1.59 3.046-1.06.574-1.59 1.645-1.59 3.06v2.008c-.037 1.559-1.747 2.894-1.747 2.894a.465.465 0 0 0-.023.683l.3.306c.194.196.547.256.791.11 0 0 2.037-.82 2.552-3.993z" class="wd-icon-fill"/></g></svg>