<svg xmlns="http://www.w3.org/2000/svg" width="24" height="24" class="wd-icon-operator wd-icon" focusable="false" role="presentation" viewBox="0 0 24 24"><g fill-rule="evenodd" class="wd-icon-container"><path d="M7.5 3a.5.5 0 0 1 .5.5V6h2.5a.5.5 0 0 1 .5.5v1a.5.5 0 0 1-.5.5H8v2.5a.5.5 0 0 1-.5.5h-1a.5.5 0 0 1-.5-.5V8H3.5a.5.5 0 0 1-.5-.5v-1a.5.5 0 0 1 .5-.5L6 5.999V3.5a.5.5 0 0 1 .5-.5h1zm9 9h1a.5.5 0 0 1 .5.5v1a.5.5 0 0 1-.5.5h-1a.5.5 0 0 1-.5-.5v-1a.5.5 0 0 1 .5-.5zm0 6h1a.5.5 0 0 1 .5.5v1a.5.5 0 0 1-.5.5h-1a.5.5 0 0 1-.5-.5v-1a.5.5 0 0 1 .5-.5zM4.86 12.646l2.186 2.185 2.104-2.102a.5.5 0 0 1 .707 0l.707.707a.5.5 0 0 1 0 .707L8.46 16.246l2.186 2.186a.5.5 0 0 1 0 .707l-.707.707a.5.5 0 0 1-.707 0L7.046 17.66l-2.103 2.104a.5.5 0 0 1-.707 0l-.707-.707a.5.5 0 0 1 0-.707l2.102-2.104-2.185-2.185a.5.5 0 0 1 0-.707l.708-.708a.5.5 0 0 1 .707 0zM21 6.5v1a.5.5 0 0 1-.5.5h-7a.5.5 0 0 1-.5-.5v-1a.5.5 0 0 1 .5-.5h7a.5.5 0 0 1 .5.5zm0 9v1a.5.5 0 0 1-.5.5h-7a.5.5 0 0 1-.5-.5v-1a.5.5 0 0 1 .5-.5h7a.5.5 0 0 1 .5.5z" class="wd-icon-fill"/></g></svg>