<svg xmlns="http://www.w3.org/2000/svg" width="24" height="24" class="wd-icon-org-chart-people wd-icon" focusable="false" role="presentation" viewBox="0 0 24 24"><g fill-rule="evenodd" class="wd-icon-container"><path d="M19.504 2c.274 0 .496.225.496.494v19.012a.498.498 0 0 1-.496.494H4.496A.497.497 0 0 1 4 21.506V2.494C4 2.221 4.226 2 4.496 2h15.008zM18 4H6v16h12V4zm-3.99 12c.507 0 .926.383.983.883L15 17a1 1 0 0 1-.99 1H9.99A.993.993 0 0 1 9 17a1 1 0 0 1 .99-1h4.02zm.993-3c.511 0 .933.383.99.883L16 14c0 .552-.453 1-.997 1H8.997A.996.996 0 0 1 8 14c0-.552.453-1 .997-1h6.006zm-3.007-7c.635 0 1.044.53 1.035 1.38v.145c.052.078.08.173.08.27a.421.421 0 0 1-.222.395 1.898 1.898 0 0 1-.365.62V9c.001.158.099.295.236.33l.6.13c.338.083.594.394.64.78V11h-4v-.76c.041-.385.291-.7.627-.79l.595-.13c.136-.032.235-.164.24-.32v-.205c-.15-.174-.27-.38-.35-.605a.421.421 0 0 1-.223-.395.48.48 0 0 1 .089-.27V7.38c0-.84.382-1.38 1.018-1.38z" class="wd-icon-fill"/></g></svg>