<svg xmlns="http://www.w3.org/2000/svg" width="24" height="24" class="wd-icon-package-arrow-down wd-icon" focusable="false" role="presentation" viewBox="0 0 24 24"><g class="wd-icon-container"><g class="wd-icon-package-arrow-down"><path fill-rule="evenodd" d="M19.5 7c.3 0 .5.2.5.5v6c0 .3-.2.5-.5.5h-1c-.3 0-.5-.2-.5-.5V9H6v9h7.5c.3 0 .5.2.5.5v1c0 .3-.2.5-.5.5h-9c-.3 0-.5-.2-.5-.5v-12c0-.3.2-.5.5-.5h15zM4.7 6c-.3 0-.4-.2-.2-.4l1.9-2.2c.1-.2.5-.4.8-.4h10c.3 0 .7.2.8.4l1.9 2.2c.1.2 0 .4-.2.4h-15z" class="wd-icon-fill" clip-rule="evenodd"/><path fill-rule="evenodd" d="M17.5 16.45c0-.3.2-.5.5-.5h.8c.3 0 .5.2.5.5v2.2h1.3c.3 0 .4.2.2.4l-2.1 2.8c-.2.2-.4.2-.6 0l-2.1-2.8c-.2-.2-.1-.4.2-.4h1.3v-2.2z" class="wd-icon-accent" clip-rule="evenodd"/></g></g></svg>