<svg xmlns="http://www.w3.org/2000/svg" width="24" height="24" class="wd-icon-pdf wd-icon" focusable="false" role="presentation" viewBox="0 0 24 24"><g class="wd-icon-container"><path d="M5.5 7a.5.5 0 0 0 .5-.5V4h12v2.5a.5.5 0 0 0 .5.5h1a.5.5 0 0 0 .5-.5v-4a.5.5 0 0 0-.5-.5h-15a.5.5 0 0 0-.5.5v4a.5.5 0 0 0 .5.5h1zM6 17.5a.5.5 0 0 0-.5-.5h-1a.5.5 0 0 0-.5.5v4a.5.5 0 0 0 .5.5h15a.5.5 0 0 0 .5-.5v-4a.5.5 0 0 0-.5-.5h-1a.5.5 0 0 0-.5.5V20H6v-2.5zM4.74 13.168v2.198a.25.25 0 0 1-.25.25H3.25a.25.25 0 0 1-.25-.25V8.65a.25.25 0 0 1 .25-.25h2.63c.551 0 1.039.102 1.462.307.426.202.754.49.986.868.234.373.352.798.352 1.273 0 .704-.253 1.267-.759 1.69-.502.42-1.192.63-2.071.63H4.74zm0-1.343h1.14c.336 0 .593-.085.768-.253.178-.169.267-.406.267-.714 0-.337-.09-.606-.272-.808-.182-.201-.43-.304-.744-.307H4.74v2.082zM9.861 15.616a.25.25 0 0 1-.25-.25V8.65a.25.25 0 0 1 .25-.25h2.075c.637 0 1.21.145 1.72.436.508.288.905.696 1.189 1.224.287.526.433 1.115.436 1.77v.332c0 .66-.14 1.253-.421 1.779a3.06 3.06 0 0 1-1.18 1.229 3.346 3.346 0 0 1-1.695.446H9.861zm1.49-5.873v4.535h.605c.498 0 .882-.177 1.15-.53.267-.357.4-.886.4-1.586v-.313c0-.697-.133-1.222-.4-1.576-.268-.353-.658-.53-1.17-.53h-.585zM20.718 12.492a.25.25 0 0 1-.25.25h-2.555v2.624a.25.25 0 0 1-.25.25h-1.24a.25.25 0 0 1-.25-.25V8.65a.25.25 0 0 1 .25-.25h4.327a.25.25 0 0 1 .25.25v.843a.25.25 0 0 1-.25.25h-2.837v1.66h2.555a.25.25 0 0 1 .25.25v.838z" class="wd-icon-fill"/></g></svg>