<svg xmlns="http://www.w3.org/2000/svg" width="24" height="24" class="wd-icon-picked-short wd-icon" focusable="false" role="presentation" viewBox="0 0 24 24"><g fill-rule="evenodd" class="wd-icon-container"><path d="M12 3a9 9 0 0 1 0 18V3z" class="wd-icon-background"/><path d="M12 2c5.43 0 9.848 4.325 9.996 9.72L22 12c0 5.523-4.476 10-10 10-5.43 0-9.848-4.325-9.996-9.72L2 12c0-5.43 4.325-9.848 9.72-9.996L12 2zm0 2l-.249.004C7.456 4.135 4 7.665 4 12c0 4.41 3.582 8 8 8l.249-.004C16.544 19.865 20 16.335 20 12l-.004-.249C19.865 7.456 16.335 4 12 4z" class="wd-icon-fill"/><path d="M11.75 19.996A8 8 0 0 1 12 4v16z" class="wd-icon-accent"/></g></svg>