<svg xmlns="http://www.w3.org/2000/svg" width="24" height="24" class="wd-icon-pi wd-icon" focusable="false" role="presentation" viewBox="0 0 24 24"><g fill-rule="evenodd" class="wd-icon-container"><path d="M4.5 7.004h3.507L8.01 18.5a.5.5 0 0 0 .5.5h1.009a.5.5 0 0 0 .5-.5V7.004h3.985v8.054c0 2.787 1.792 4.113 5.377 3.979a.5.5 0 0 0 .483-.496v-1.01a.5.5 0 0 0-.498-.496c-2.24.009-3.359-.65-3.359-1.977V7.004h3.414a.5.5 0 0 0 .5-.5V5.5a.5.5 0 0 0-.5-.5H4.5a.5.5 0 0 0-.5.5v1.004a.5.5 0 0 0 .5.5z" class="wd-icon-fill"/></g></svg>