<svg xmlns="http://www.w3.org/2000/svg" width="24" height="24" class="wd-icon-play-circle wd-icon" focusable="false" role="presentation" viewBox="0 0 24 24"><g fill-rule="evenodd" class="wd-icon-container"><path d="M12 2c5.523 0 10 4.477 10 10s-4.477 10-10 10S2 17.523 2 12 6.477 2 12 2zm0 2a8 8 0 1 0 0 16 8 8 0 0 0 0-16zM9.713 8.4a.429.429 0 0 1 .438.008l5.626 3.219c.137.078.223.22.223.375a.421.421 0 0 1-.223.371l-5.626 3.219a.429.429 0 0 1-.438.008.421.421 0 0 1-.213-.38V8.78a.421.421 0 0 1 .213-.38z" class="wd-icon-fill"/></g></svg>