<svg xmlns="http://www.w3.org/2000/svg" width="24" height="24" class="wd-icon-print wd-icon" focusable="false" role="presentation" viewBox="0 0 24 24"><g fill-rule="evenodd" class="wd-icon-container"><path d="M17 8h4v4h-4z" class="wd-icon-background"/><path d="M18.5 3a.5.5 0 0 1 .5.5V7h2.5a.5.5 0 0 1 .5.5v8a.5.5 0 0 1-.5.5H19v5.5a.5.5 0 0 1-.5.5h-13a.5.5 0 0 1-.5-.5V16H2.5a.5.5 0 0 1-.5-.5v-8a.5.5 0 0 1 .5-.5H5V3.5a.5.5 0 0 1 .5-.5h13zM17 12H7v8h10v-8zm-4.245 4a.25.25 0 0 1 .25.25v1.512a.25.25 0 0 1-.25.25H9.25a.25.25 0 0 1-.25-.25V16.25a.25.25 0 0 1 .25-.25h3.505zm2.004-3a.25.25 0 0 1 .25.25v1.512a.25.25 0 0 1-.25.25H9.25a.25.25 0 0 1-.25-.25V13.25a.25.25 0 0 1 .25-.25h5.51zm4.748-4H18.5a.5.5 0 0 0-.5.5v1.004a.5.5 0 0 0 .496.5l1.02.008h.01a.5.5 0 0 0 .494-.507l-.014-1.012a.5.5 0 0 0-.5-.493zM17 5H7v2h10V5z" class="wd-icon-fill"/></g></svg>