<svg xmlns="http://www.w3.org/2000/svg" width="24" height="24" class="wd-icon-projects wd-icon" focusable="false" role="presentation" viewBox="0 0 24 24"><g fill-rule="evenodd" class="wd-icon-container"><path d="M8.002 16c.245 0 .448.183.49.412l.008.088c0 .276-.172.656-.384.827l-.029.03a2.387 2.387 0 0 1-1.086.586L7 19.5a.5.5 0 0 1-.5.5h-1a.5.5 0 0 1-.5-.5v-1.557a2.387 2.387 0 0 1-1.088-.586l-.021-.022c-.22-.188-.391-.567-.391-.835 0-.276.215-.5.498-.5h4.004zm7.772-4.977l4.987 4.986a.497.497 0 0 1 0 .714l-.701.7a.509.509 0 0 1-.714 0l-4.986-4.986a.497.497 0 0 1 0-.714l.7-.7a.509.509 0 0 1 .714 0zm-.602-7.655l.023.022c.242.139.255.43.061.623l-1.77 1.77 1.77 1.772a.49.49 0 0 1 .003.697l-3.548 3.549a.5.5 0 0 1-.7-.007l-.354-.353-.707.707 1.057 1.057a.497.497 0 0 1 0 .714l-.7.7a.497.497 0 0 1-.713.001l-4.238-4.237a.509.509 0 0 1 0-.713l.701-.7a.497.497 0 0 1 .714 0l1.057 1.057.708-.708-.708-.707 4.243-4.242c1.94-1.94 2.944-1.152 3.101-1.002z" class="wd-icon-fill"/></g></svg>