<svg xmlns="http://www.w3.org/2000/svg" width="24" height="24" class="wd-icon-proof-of-delivery wd-icon" focusable="false" role="presentation" viewBox="0 0 24 24"><g fill-rule="evenodd" class="wd-icon-container"><path d="M5 8h14v11H5z" class="wd-icon-background"/><path d="M19.504 7c.274 0 .496.226.496.494v12.012a.498.498 0 0 1-.496.494H4.496A.498.498 0 0 1 4 19.506V7.494C4 7.22 4.226 7 4.496 7h15.008zm-1.498 2h-12v9h12V9zm-.842-6c.277 0 .65.179.818.38l1.867 2.24c.175.21.09.38-.18.38H4.662c-.274 0-.348-.179-.18-.38l1.867-2.24c.175-.21.546-.38.818-.38h9.997z" class="wd-icon-fill"/><path d="M14.251 10.65a.5.5 0 0 1 .715 0l.7.7a.498.498 0 0 1 0 .715l-4.258 4.258a.5.5 0 0 1-.715 0l-.353-.351a.518.518 0 0 1-.018-.017L8.148 13.78a.495.495 0 0 1 .004-.71l.7-.7a.5.5 0 0 1 .71-.004l1.486 1.486z" class="wd-icon-accent"/></g></svg>