<svg xmlns="http://www.w3.org/2000/svg" width="24" height="24" class="wd-icon-qr-code wd-icon" focusable="false" role="presentation" viewBox="0 0 24 24"><g fill-rule="nonzero" class="wd-icon-container"><path d="M10.5 13a.5.5 0 0 1 .5.5v7a.5.5 0 0 1-.5.5h-7a.5.5 0 0 1-.5-.5v-7a.5.5 0 0 1 .5-.5h7zM9 15H5v4h4v-4zm1.5-12a.5.5 0 0 1 .5.5v7a.5.5 0 0 1-.5.5h-7a.5.5 0 0 1-.5-.5v-7a.5.5 0 0 1 .5-.5h7zM9 5H5v4h4V5zm11.5-2a.5.5 0 0 1 .5.5v7a.5.5 0 0 1-.5.5h-7a.5.5 0 0 1-.5-.5v-7a.5.5 0 0 1 .5-.5h7zM19 5h-4v4h4V5z" class="wd-icon-fill"/><path d="M6 16h2v2H6zM6 6h2v2H6zm10 0h2v2h-2zm5 11v3.5a.5.5 0 0 1-.5.5H17v-2h2v-2h2zm-6 2v2h-2v-2h2zm2-2v2h-2v-2h2zm0-4v2h-2v2h-2v-4h4zm2 2v2h-2v-2h2zm2-2v2h-2v-2h2z" class="wd-icon-accent"/></g></svg>