<svg xmlns="http://www.w3.org/2000/svg" width="24" height="24" class="wd-icon-remove-zero wd-icon" focusable="false" role="presentation" viewBox="0 0 24 24"><g fill-rule="evenodd" class="wd-icon-container"><path d="M6.77 15.505V17h13.5c.276 0 .5.214.5.505v.99a.5.5 0 0 1-.5.505H6.77v1.495c0 .279-.173.376-.399.206L3.167 18.3c-.22-.165-.226-.428 0-.598L6.371 15.3c.22-.165.398-.085.398.206zM14.6 6c1.06 0 1.78.46 2.21 1.11.45.68.57 1.49.57 2.29s-.12 1.61-.57 2.29c-.43.64-1.15 1.11-2.21 1.11-1.05 0-1.77-.47-2.2-1.11-.45-.68-.57-1.49-.57-2.29s.12-1.61.57-2.29C12.83 6.46 13.55 6 14.6 6zm-4.58 4.68c.56 0 1.03.46 1.03 1.02 0 .55-.47 1.03-1.03 1.03S9 12.25 9 11.7c0-.56.46-1.02 1.02-1.02zm4.58-3.29c-.48 0-.77.24-.95.6-.18.38-.24.89-.24 1.41 0 .52.06 1.03.24 1.41.18.36.47.6.95.6.49 0 .77-.24.95-.6.19-.38.25-.89.25-1.41 0-.52-.06-1.03-.25-1.41-.18-.36-.46-.6-.95-.6z" class="wd-icon-fill"/></g></svg>