<svg xmlns="http://www.w3.org/2000/svg" width="24" height="24" class="wd-icon-rename wd-icon" focusable="false" role="presentation" viewBox="0 0 24 24"><g class="wd-icon-container"><path d="M4.5 2a.5.5 0 0 0-.5.5v19a.5.5 0 0 0 .5.5h3a.5.5 0 0 0 .5-.5v-1a.5.5 0 0 0-.5-.5H6V4h12v3.5a.5.5 0 0 0 .5.5h1a.5.5 0 0 0 .5-.5v-5a.5.5 0 0 0-.5-.5h-15z" class="wd-icon-fill"/><path d="M8.5 7a.5.5 0 0 0-.5.5v1a.5.5 0 0 0 .5.5h7a.5.5 0 0 0 .5-.5v-1a.5.5 0 0 0-.5-.5h-7zM8 11.5a.5.5 0 0 1 .5-.5h5a.5.5 0 0 1 .5.5v1a.5.5 0 0 1-.5.5h-5a.5.5 0 0 1-.5-.5v-1zM8 15.5a.5.5 0 0 1 .5-.5h1a.5.5 0 0 1 .5.5v1a.5.5 0 0 1-.5.5h-1a.5.5 0 0 1-.5-.5v-1z" class="wd-icon-accent"/><path fill-rule="evenodd" d="M9.013 19.102c0-.209.123-.5.269-.645l9.343-9.345a.385.385 0 0 1 .539-.004l2.727 2.727a.382.382 0 0 1-.004.539l-9.344 9.344c-.148.148-.44.268-.645.27L9.387 22A.386.386 0 0 1 9 21.613l.013-2.511zm7.71-5.912l-6.186 6.24v1.033h1.033l6.24-6.186-1.087-1.087zm1.087-1.088l1.087 1.088 1.087-1.088-1.087-1.087-1.087 1.087z" class="wd-icon-accent" clip-rule="evenodd"/></g></svg>