<svg xmlns="http://www.w3.org/2000/svg" width="24" height="24" class="wd-icon-reorder wd-icon" focusable="false" role="presentation" viewBox="0 0 24 24"><g fill-rule="evenodd" class="wd-icon-container"><path d="M12.003 8.828l2.481 2.482a.49.49 0 0 0 .704-.01l.7-.7a.503.503 0 0 0 .01-.705L12.35 6.347a.496.496 0 0 0-.695 0L8.107 9.895a.49.49 0 0 0 .01.705l.7.7a.495.495 0 0 0 .704.01l2.482-2.482zm0 6.35l2.481-2.481a.49.49 0 0 1 .704.01l.7.7a.503.503 0 0 1 .01.704L12.35 17.66a.496.496 0 0 1-.695 0L8.107 14.11a.49.49 0 0 1 .01-.704l.7-.7a.495.495 0 0 1 .704-.01l2.482 2.481z" class="wd-icon-fill"/></g></svg>