<svg xmlns="http://www.w3.org/2000/svg" width="24" height="24" class="wd-icon-restore wd-icon" focusable="false" role="presentation" viewBox="0 0 24 24"><g fill-rule="evenodd" class="wd-icon-container"><path fill-rule="nonzero" d="M8 11.01V14c4.888-.077 8 2 8 8-2.69-4.483-6.906-4.143-7.822-4.024l-.09.012L8 18v2.99c0 .558-.323.687-.712.298l-4.576-4.576a1.01 1.01 0 0 1 0-1.424l4.576-4.576c.393-.393.712-.269.712.297zM18.49 2c.282 0 .51.222.51.495V5h1.495c.291 0 .505.226.505.505v.99c0 .291-.226.505-.505.505H19v10.499a.509.509 0 0 1-.51.501h-1.002a8.948 8.948 0 0 0-.487-1.126L17 7h-6v5.223A9.03 9.03 0 0 0 9 12V7H7.505A.497.497 0 0 1 7 6.495v-.99C7 5.214 7.226 5 7.505 5H9V2.495c0-.28.228-.495.51-.495zM17 4h-6v1h6V4z" class="wd-icon-fill"/><path d="M17 7v9.874a9.017 9.017 0 0 0-6-4.65V7h6z" class="wd-icon-background"/></g></svg>