<svg xmlns="http://www.w3.org/2000/svg" width="24" height="24" class="wd-icon-rewind-30 wd-icon" focusable="false" role="presentation" viewBox="0 0 24 24"><g fill-rule="evenodd" class="wd-icon-container"><path fill-rule="nonzero" d="M6.543 6.158c-1.679 1.635-2.518 3.574-2.518 5.817a8 8 0 0 0 8 8c4.418 0 7.93-3.532 8-8-.101-4.478-3.446-7.59-7.05-7.939l.47-.463a.5.5 0 0 0 0-.712l-.7-.692a.5.5 0 0 0-.706.002L9.482 4.733a.5.5 0 0 0 0 .707l2.558 2.555a.5.5 0 0 0 .704.003l.706-.696a.5.5 0 0 0 .005-.707l-.538-.546c2.004.243 5.075 2.113 5.108 5.926a6 6 0 1 1-12 0c0-1.708.634-3.164 1.903-4.37a.495.495 0 0 0 .024-.704c-.001-.001-.002-.002-.002-.005l-.698-.725a.499.499 0 0 0-.706-.015l-.003.002zm3.239 2.839c1.265 0 2.067.571 2.067 1.477 0 .645-.472 1.113-1.117 1.228v.03c.787.085 1.302.549 1.302 1.28 0 1.002-.905 1.636-2.326 1.636-1.3 0-2.168-.705-2.22-1.796h1.5c.01.357.293.576.753.576.416 0 .694-.23.694-.576 0-.348-.264-.556-.709-.556H9.08v-1.054h.654c.411 0 .668-.212.668-.553 0-.338-.257-.546-.687-.546-.423 0-.709.26-.709.635H7.59c.003-1.073.875-1.781 2.193-1.781zm4.738-.004c1.436 0 2.356 1.032 2.356 2.813 0 1.766-.909 2.842-2.356 2.842-1.448 0-2.36-1.068-2.36-2.838 0-1.782.924-2.817 2.36-2.817zm0 1.21c-.438 0-.757.5-.757 1.607 0 1.102.319 1.629.757 1.629s.753-.527.753-1.63c0-1.105-.315-1.606-.753-1.606z" class="wd-icon-fill"/></g></svg>