<svg xmlns="http://www.w3.org/2000/svg" width="24" height="24" class="wd-icon-ribbon wd-icon" focusable="false" role="presentation" viewBox="0 0 24 24"><g class="wd-icon-container"><path d="M14 10a2 2 0 1 1-4 0 2 2 0 0 1 4 0z" class="wd-icon-accent"/><path fill-rule="evenodd" d="M11.658 2.237a.5.5 0 0 1 .691 0l2.359 2.255L18 4.853a.5.5 0 0 1 .443.555l-.363 3.14 1.742 2.672a.5.5 0 0 1-.16.701l-2.223 1.346 1.57 8.124a.5.5 0 0 1-.637.573L12 20l-6.33 1.963a.5.5 0 0 1-.64-.57l1.54-8.125-2.225-1.347a.5.5 0 0 1-.16-.7l1.743-2.672-.363-3.141a.5.5 0 0 1 .442-.555L9.3 4.492l2.358-2.255zm.346 2.436l1.812 1.733 2.467.27-.273 2.36 1.29 1.977-1.935 1.171-1.24 2.36-2.129-.838-2.08.837-1.286-2.366-1.922-1.164 1.29-1.977-.273-2.36 2.467-.27 1.812-1.733zM8.177 15.531l-.717 3.783 4.538-1.407 4.574 1.41-.725-3.751-.579 1.1a.5.5 0 0 1-.625.232l-2.64-1.04-2.58 1.038a.5.5 0 0 1-.626-.225l-.62-1.14z" class="wd-icon-fill" clip-rule="evenodd"/></g></svg>