<svg xmlns="http://www.w3.org/2000/svg" width="24" height="24" class="wd-icon-rotate wd-icon" focusable="false" role="presentation" viewBox="0 0 24 24"><g class="wd-icon-container"><path d="M18.107 13.637C19.641 12.793 20 11.952 20 11.5c0-.452-.36-1.293-1.893-2.137C16.646 8.56 14.49 8 12 8s-4.646.56-6.107 1.363C4.359 10.207 4 11.048 4 11.5c0 .452.36 1.293 1.893 2.137 1.113.612 2.628 1.082 4.387 1.272l-1.34-1.34a.5.5 0 0 1 0-.708l.707-.707a.5.5 0 0 1 .707 0l3.5 3.5a.5.5 0 0 1 0 .707l-3.5 3.5a.5.5 0 0 1-.707 0l-.707-.707a.5.5 0 0 1 0-.707l1.513-1.512C5.664 16.524 2 14.248 2 11.5 2 8.462 6.477 6 12 6s10 2.462 10 5.5c0 2.343-2.664 4.344-6.416 5.136a.487.487 0 0 1-.584-.482v-1.029c0-.239.169-.443.402-.496 1.048-.241 1.966-.585 2.705-.992z" class="wd-icon-fill"/></g></svg>