<svg xmlns="http://www.w3.org/2000/svg" width="24" height="24" class="wd-icon-rpm wd-icon" focusable="false" role="presentation" viewBox="0 0 24 24"><g fill-rule="evenodd" class="wd-icon-container"><path d="M3.41 9.477C4.858 4.702 9.717 1.99 14.46 3.35a8.934 8.934 0 0 1 6.125 11.05c-.696 2.429-2.214 4.262-4.552 5.501a.494.494 0 0 1-.67-.208l-.58-1.095a.501.501 0 0 1 .21-.679c1.765-.903 2.914-2.28 3.445-4.134a6.7 6.7 0 0 0-12.881-3.694c-.88 3.17.23 5.748 3.334 7.733a.5.5 0 0 1 .206.574l-.384 1.205a.5.5 0 0 1-.717.284C3.728 17.553 2.2 14.083 3.41 9.477zm12.689-1.399a.15.15 0 0 1 .003.17l-2.26 3.405a1.75 1.75 0 1 1-1.154-1.35l3.202-2.26a.15.15 0 0 1 .209.035z" class="wd-icon-fill"/></g></svg>