<svg xmlns="http://www.w3.org/2000/svg" width="24" height="24" class="wd-icon-rte-emphasis wd-icon" focusable="false" role="presentation" viewBox="0 0 24 24"><g fill-rule="evenodd" class="wd-icon-container"><path d="M12.109 4c.272 0 .571.208.67.47l2.96 7.813-2.121 2.135-.31-.866h-4.72l-.708 1.976a.762.762 0 0 1-.667.472H5.35c-.275 0-.418-.208-.318-.47L9.27 4.47c.1-.26.407-.47.673-.47h2.167zm-.534 13.727c.686-.687 1.857-.629 2.615.13.758.757.816 1.928.13 2.615-.687.686-4.274 1.528-4.274 1.528 2.072-2.072.842-3.587 1.529-4.273zm7.888-6.51l1.341 1.342a.498.498 0 0 1 .01.708l-4.63 4.629a.502.502 0 0 1-.708-.01l-1.341-1.341a.498.498 0 0 1-.01-.708l4.63-4.629a.502.502 0 0 1 .708.01zM11 7l1.523 4H9.484L11 7z" class="wd-icon-fill"/></g></svg>