<svg xmlns="http://www.w3.org/2000/svg" width="24" height="24" class="wd-icon-screen-reader wd-icon" focusable="false" role="presentation" viewBox="0 0 24 24"><g class="wd-icon-container"><path d="M4 18h16V7H4v11zM2 4.496C2 4.222 2.225 4 2.494 4h19.012c.273 0 .494.226.494.496v15.008a.497.497 0 0 1-.494.496H2.494A.498.498 0 0 1 2 19.504V4.496zM6.5 6a.5.5 0 1 0 0-1 .5.5 0 0 0 0 1zm-2 0a.5.5 0 1 0 0-1 .5.5 0 0 0 0 1zm4 0a.5.5 0 1 0 0-1 .5.5 0 0 0 0 1z" class="wd-icon-fill"/><path d="M15.752 8.94a.75.75 0 0 1 1.059.062C17.633 9.927 18 11.249 18 12.5c0 1.25-.367 2.573-1.19 3.498a.75.75 0 1 1-1.12-.996c.51-.575.81-1.503.81-2.502 0-1-.3-1.927-.81-2.502a.75.75 0 0 1 .062-1.059z" class="wd-icon-fill"/><path d="M12.9 10.05a.75.75 0 0 1 1.05-.15 3.25 3.25 0 0 1 0 5.2.75.75 0 1 1-.9-1.2c.933-.7.933-2.1 0-2.8a.75.75 0 0 1-.15-1.05zM6.5 14.5h2.25l1.834 1.63a.25.25 0 0 0 .416-.187V9.057a.25.25 0 0 0-.416-.187L8.75 10.5H6.5a.5.5 0 0 0-.5.5v3a.5.5 0 0 0 .5.5z" class="wd-icon-fill"/></g></svg>