<svg xmlns="http://www.w3.org/2000/svg" width="24" height="24" class="wd-icon-screen-magnification wd-icon" focusable="false" role="presentation" viewBox="0 0 24 24"><g class="wd-icon-container"><path fill-rule="evenodd" d="M2.5 4a.5.5 0 0 0-.5.5v14a.5.5 0 0 0 .5.5h7a.5.5 0 0 0 .5-.5v-1a.5.5 0 0 0-.5-.5H4V7h16v4.5a.5.5 0 0 0 .5.5h1a.5.5 0 0 0 .5-.5v-7a.5.5 0 0 0-.5-.5h-19zM5 5.5a.5.5 0 1 1-1 0 .5.5 0 0 1 1 0zm2 0a.5.5 0 1 1-1 0 .5.5 0 0 1 1 0zm1.5.5a.5.5 0 1 0 0-1 .5.5 0 0 0 0 1z" class="wd-icon-fill" clip-rule="evenodd"/><path fill-rule="evenodd" d="M11 15.409a4.409 4.409 0 1 1 8.141 2.347l1.716 1.715a.49.49 0 0 1 0 .693l-.693.692a.49.49 0 0 1-.693 0l-1.715-1.715A4.409 4.409 0 0 1 11 15.408zm4.409-2.45a2.45 2.45 0 1 0 0 4.899 2.45 2.45 0 0 0 0-4.899z" class="wd-icon-fill" clip-rule="evenodd"/></g></svg>