<svg xmlns="http://www.w3.org/2000/svg" width="24" height="24" class="wd-icon-search-user wd-icon" focusable="false" role="presentation" viewBox="0 0 24 24"><g fill-rule="evenodd" class="wd-icon-container"><path d="M12 3a8 8 0 0 1 8 8c0 2.146-.736 4.08-2.038 5.509l2.801 2.803a.51.51 0 0 1 0 .715l-.825.826a.5.5 0 0 1-.715 0l-2.962-2.962C15.068 18.597 13.628 19 12 19a8 8 0 1 1 0-16zm.036 2.025a6 6 0 1 0 0 12 6 6 0 0 0 0-12zM13 10.5c.828 0 1.5.666 1.5 1.5v1.5h-5V12c0-.828.674-1.5 1.5-1.5h2zm-1-3c.78 0 1.42.59 1.493 1.355L13.5 9c0 .78-.59 1.42-1.355 1.493L12 10.5c-.828 0-1.5-.666-1.5-1.5 0-.78.59-1.42 1.355-1.493L12 7.5z" class="wd-icon-fill"/></g></svg>