<svg xmlns="http://www.w3.org/2000/svg" width="24" height="24" class="wd-icon-show-col wd-icon" focusable="false" role="presentation" viewBox="0 0 24 24"><g fill-rule="evenodd" class="wd-icon-container"><path d="M4 5h16v4H4z" class="wd-icon-background"/><path d="M20.007 4c.548 0 .993.451.993.99v15.075c0 .47-.368.86-.854.925a.995.995 0 0 1-.14.01H3.994a1 1 0 0 1-.176-.016c-.465-.08-.817-.46-.817-.919V4.991C3 4.444 3.445 4 3.993 4zM11 10H5v9h6v-9zm8 0h-6v9h6v-9zm0-4H5v2h14V6z" class="wd-icon-fill"/></g></svg>