<svg xmlns="http://www.w3.org/2000/svg" width="24" height="25" class="wd-icon-signal-two wd-icon" focusable="false" role="presentation" viewBox="0 0 24 25"><g class="wd-icon-container"><path d="M16 8.03a.5.5 0 0 0-.5-.5h-2a.5.5 0 0 0-.5.5v13a.5.5 0 0 0 .5.5h2a.5.5 0 0 0 .5-.5v-13zM21 4.03a.5.5 0 0 0-.5-.5h-2a.5.5 0 0 0-.5.5v17a.5.5 0 0 0 .5.5h2a.5.5 0 0 0 .5-.5v-17z" class="wd-icon-background"/><g><path d="M6 16.03a.5.5 0 0 0-.5-.5h-2a.5.5 0 0 0-.5.5v5a.5.5 0 0 0 .5.5h2a.5.5 0 0 0 .5-.5v-5zM11 12.03a.5.5 0 0 0-.5-.5h-2a.5.5 0 0 0-.5.5v9a.5.5 0 0 0 .5.5h2a.5.5 0 0 0 .5-.5v-9z" class="wd-icon-fill"/></g></g></svg>