<svg xmlns="http://www.w3.org/2000/svg" width="24" height="25" class="wd-icon-signal-three wd-icon" focusable="false" role="presentation" viewBox="0 0 24 25"><g class="wd-icon-container"><rect width="3" height="18" class="wd-icon-background" rx=".5" transform="matrix(-1 0 0 1 21 3.53)"/><path d="M6 16.03a.5.5 0 0 0-.5-.5h-2a.5.5 0 0 0-.5.5v5a.5.5 0 0 0 .5.5h2a.5.5 0 0 0 .5-.5v-5zM11 12.03a.5.5 0 0 0-.5-.5h-2a.5.5 0 0 0-.5.5v9a.5.5 0 0 0 .5.5h2a.5.5 0 0 0 .5-.5v-9zM16 8.03a.5.5 0 0 0-.5-.5h-2a.5.5 0 0 0-.5.5v13a.5.5 0 0 0 .5.5h2a.5.5 0 0 0 .5-.5v-13z" class="wd-icon-fill"/></g></svg>