<svg xmlns="http://www.w3.org/2000/svg" width="24" height="25" class="wd-icon-signal-one wd-icon" focusable="false" role="presentation" viewBox="0 0 24 25"><g class="wd-icon-container"><path d="M11 12.03a.5.5 0 0 0-.5-.5h-2a.5.5 0 0 0-.5.5v9a.5.5 0 0 0 .5.5h2a.5.5 0 0 0 .5-.5v-9zM16 8.03a.5.5 0 0 0-.5-.5h-2a.5.5 0 0 0-.5.5v13a.5.5 0 0 0 .5.5h2a.5.5 0 0 0 .5-.5v-13zM21 4.03a.5.5 0 0 0-.5-.5h-2a.5.5 0 0 0-.5.5v17a.5.5 0 0 0 .5.5h2a.5.5 0 0 0 .5-.5v-17z" class="wd-icon-background"/><rect width="3" height="6" class="wd-icon-fill" rx=".5" transform="matrix(-1 0 0 1 6 15.53)"/></g></svg>