<svg xmlns="http://www.w3.org/2000/svg" width="24" height="24" class="wd-icon-skills wd-icon" focusable="false" role="presentation" viewBox="0 0 24 24"><g fill-rule="evenodd" class="wd-icon-container"><path d="M12.416 2c.314 0 .57.25.57.556v1.26c1.376.416 2.378 1.668 2.378 3.145a3.22 3.22 0 0 1-.67 1.967l2.908 11.546c.075.297.001.753-.164 1.013l-.164.258a.552.552 0 0 1-.774.163l-.235-.155c-.261-.17-.536-.554-.61-.85L14.166 15H9.809l-1.488 5.902c-.065.26-.283.586-.511.778l-.098.073-.236.155a.55.55 0 0 1-.774-.162l-.164-.259c-.165-.26-.239-.716-.164-1.013l2.91-11.545a3.22 3.22 0 0 1-.672-1.968c0-1.477 1.002-2.729 2.377-3.145v-1.26c0-.306.257-.556.571-.556zM4.571 12.036c.315 0 .57.25.57.557v.325h1.435L6 15h-.859v.325a.563.563 0 0 1-.57.556.563.563 0 0 1-.571-.556v-2.732c0-.308.255-.557.57-.557zm7.417-1.784c-.33 0-.648-.046-.949-.133l-.739 2.932h3.375l-.738-2.931c-.301.086-.62.132-.949.132zm0-4.914c-.917 0-1.664.728-1.664 1.623 0 .894.747 1.622 1.664 1.622.918 0 1.664-.728 1.664-1.622 0-.895-.746-1.623-1.664-1.623z" class="wd-icon-fill"/></g></svg>