<svg xmlns="http://www.w3.org/2000/svg" width="24" height="24" class="wd-icon-slider wd-icon" focusable="false" role="presentation" viewBox="0 0 24 24"><g fill-rule="evenodd" class="wd-icon-container"><path d="M16.5 10c.818 0 1.544.393 2 1h1.997c.781 0 1.423.59 1.496 1.355L22 12.5c0 .828-.665 1.5-1.503 1.5l-1.998.001A2.496 2.496 0 0 1 16.5 15a2.496 2.496 0 0 1-2-.999L3.504 14C2.673 14 2 13.334 2 12.5c0-.828.665-1.5 1.503-1.5H14.5c.456-.607 1.182-1 2-1zm0 1a1.5 1.5 0 1 0 0 3 1.5 1.5 0 0 0 0-3z" class="wd-icon-fill"/></g></svg>