<svg xmlns="http://www.w3.org/2000/svg" width="24" height="24" class="wd-icon-social-media wd-icon" focusable="false" role="presentation" viewBox="0 0 24 24"><g fill-rule="evenodd" class="wd-icon-container"><path d="M5 7a2 2 0 1 0 0-4 2 2 0 0 0 0 4zm14 2a2 2 0 1 0 0-4 2 2 0 0 0 0 4zm-9 12a2 2 0 1 0 0-4 2 2 0 0 0 0 4z" class="wd-icon-background"/><path fill-rule="nonzero" d="M5 2a3 3 0 0 1 2.707 4.294l1.261 1.26A3.981 3.981 0 0 1 11 7c1.168 0 2.219.5 2.95 1.299l2.073-.923a3 3 0 1 1 .9 1.788l-2.032.905a4 4 0 0 1-3.513 4.913l-.091 1.307a3 3 0 1 1-1.991-.206l.1-1.418a4 4 0 0 1-1.842-5.697l-1.26-1.26A3 3 0 1 1 5 2zm5 16a1 1 0 1 0 0 2 1 1 0 0 0 0-2zm1-9a2 2 0 1 0 0 4 2 2 0 0 0 0-4zm8-3a1 1 0 1 0 0 2 1 1 0 0 0 0-2zM5 4a1 1 0 1 0 0 2 1 1 0 0 0 0-2z" class="wd-icon-fill"/></g></svg>