<svg xmlns="http://www.w3.org/2000/svg" width="24" height="23" class="wd-icon-sort wd-icon" focusable="false" role="presentation" viewBox="0 0 24 23"><g fill-rule="evenodd" class="wd-icon-container"><path d="M16.649 10c.278 0 .504.225.504.5v6.768l1.368-1.368a.49.49 0 0 1 .704.01l.7.7a.503.503 0 0 1 .01.705l-3.536 3.536a.505.505 0 0 1-.719 0l-3.536-3.536a.49.49 0 0 1 .01-.704l.7-.7a.503.503 0 0 1 .704-.01l1.595 1.594v-7.003a.49.49 0 0 1 .505-.492h.99zm-8.14-6.85l3.536 3.536a.49.49 0 0 1-.01.704l-.7.7a.503.503 0 0 1-.704.01L9.036 6.505v7.004A.49.49 0 0 1 8.53 14h-.99a.503.503 0 0 1-.505-.5V6.733L5.668 8.1a.49.49 0 0 1-.704-.01l-.7-.7a.503.503 0 0 1-.01-.704L7.79 3.15a.505.505 0 0 1 .719 0z" class="wd-icon-fill"/></g></svg>