<svg xmlns="http://www.w3.org/2000/svg" width="24" height="24" class="wd-icon-sparkle wd-icon" focusable="false" role="presentation" viewBox="0 0 24 24"><g class="wd-icon-container"><path fill-rule="evenodd" d="M13.5 2c.226 0 .486.137.542.436.376 2.002 1.185 3.697 2.428 4.985 1.242 1.287 2.928 2.178 5.078 2.555a.53.53 0 0 1 0 1.048c-2.15.377-3.836 1.268-5.078 2.555-1.243 1.288-2.052 2.983-2.428 4.984A.538.538 0 0 1 13.5 19a.538.538 0 0 1-.542-.436c-.376-2.002-1.185-3.697-2.428-4.985-1.242-1.287-2.928-2.178-5.078-2.555-.603-.105-.602-.943 0-1.048 2.15-.377 3.836-1.268 5.078-2.555 1.243-1.288 2.053-2.983 2.428-4.984A.538.538 0 0 1 13.5 2zM5.5 15c.14 0 .317.088.354.289.144.768.453 1.41.922 1.896.467.484 1.104.823 1.928.968.395.069.394.626 0 .695-.824.144-1.461.483-1.928.967-.469.485-.778 1.128-.922 1.896A.355.355 0 0 1 5.5 22a.355.355 0 0 1-.354-.289c-.144-.768-.453-1.41-.922-1.896-.467-.484-1.104-.823-1.928-.968-.395-.069-.394-.626 0-.695.824-.144 1.461-.483 1.928-.967.469-.485.778-1.128.922-1.896A.355.355 0 0 1 5.5 15z" class="wd-icon-fill" clip-rule="evenodd"/></g></svg>