<svg xmlns="http://www.w3.org/2000/svg" width="24" height="24" class="wd-icon-switch wd-icon" focusable="false" role="presentation" viewBox="0 0 24 24"><g fill-rule="evenodd" class="wd-icon-container"><path d="M9.844 7.425c0-.278.226-.504.5-.504h6.768l-1.367-1.368a.49.49 0 0 1 .01-.704l.7-.7a.503.503 0 0 1 .704-.01l3.536 3.536a.505.505 0 0 1 0 .719l-3.536 3.536a.49.49 0 0 1-.704-.01l-.7-.7a.503.503 0 0 1-.01-.704L17.34 8.92h-7.004a.49.49 0 0 1-.492-.505v-.99zm-6.85 8.14l3.537-3.536a.49.49 0 0 1 .704.01l.7.7a.503.503 0 0 1 .01.704L6.35 15.038h7.003a.49.49 0 0 1 .492.505v.99a.503.503 0 0 1-.5.505H6.578l1.368 1.368a.49.49 0 0 1-.01.704l-.7.7a.503.503 0 0 1-.705.01l-3.535-3.536a.505.505 0 0 1 0-.72z" class="wd-icon-fill"/></g></svg>