<svg xmlns="http://www.w3.org/2000/svg" width="24" height="24" class="wd-icon-task-career wd-icon" focusable="false" role="presentation" viewBox="0 0 24 24"><g fill-rule="evenodd" class="wd-icon-container"><path d="M12 2c5.523 0 10 4.476 10 10 0 5.523-4.476 10-10 10-5.523 0-10-4.476-10-10C2 6.477 6.476 2 12 2zm0 2a8 8 0 0 0-8 8 8 8 0 0 0 8 8 8 8 0 0 0 8-8 8 8 0 0 0-8-8zm0 2c3.314 0 6 2.693 6 6 0 3.314-2.693 6-6 6-3.314 0-6-2.693-6-6 0-3.314 2.693-6 6-6zm0 2c-2.205 0-4 1.794-4 4 0 2.205 1.794 4 4 4 2.205 0 4-1.794 4-4 0-2.205-1.794-4-4-4zm0 2c1.054 0 1.918.809 1.995 1.85L14 12a1.995 1.995 0 0 1-1.85 1.995L12 14c-1.105 0-2-.888-2-2 0-1.054.809-1.918 1.85-1.995L12 10z" class="wd-icon-fill"/></g></svg>