<svg xmlns="http://www.w3.org/2000/svg" width="24" height="24" class="wd-icon-task-job wd-icon" focusable="false" role="presentation" viewBox="0 0 24 24"><g fill-rule="evenodd" class="wd-icon-container"><path d="M3 6h18v13H3z" class="wd-icon-background"/><path d="M16.49 2c.282 0 .51.23.51.5V5h4.506c.273 0 .494.224.494.5v14c0 .277-.225.5-.494.5H2.494A.497.497 0 0 1 2 19.5v-14c0-.277.225-.5.494-.5H7V2.5c0-.276.228-.5.51-.5h8.98zM20 12V7H4v5h3v2H4v4h16v-4h-3v-2h3zm-5-8H9v1h6V4zm1 10H8v-2h8v2z" class="wd-icon-fill"/><path d="M9.502 10c.275 0 .498.233.498.503V12h4v-1.497c0-.278.215-.503.498-.503h4.004c.275 0 .498.233.498.503V12h3v2h-3v2.497a.496.496 0 0 1-.498.503h-4.004a.505.505 0 0 1-.498-.503V14h-4v2.497a.496.496 0 0 1-.498.503H5.498A.505.505 0 0 1 5 16.497V14H2v-2h3v-1.497c0-.278.215-.503.498-.503h4.004zM8 12H7v3h1v-3zm9 0h-1v3h1v-3z" class="wd-icon-accent"/></g></svg>