<svg xmlns="http://www.w3.org/2000/svg" width="24" height="24" class="wd-icon-task-timeoff wd-icon" focusable="false" role="presentation" viewBox="0 0 24 24"><g fill-rule="evenodd" class="wd-icon-container"><path d="M7 8h10v11H7z" class="wd-icon-background"/><path d="M15.5 2c.276 0 .5.214.5.505v.99c0 .279-.23.505-.5.505H15v2h3.502c.275 0 .498.224.498.5v14c0 .277-.22.5-.498.5H16v.49a.5.5 0 0 1-.505.51h-.99a.504.504 0 0 1-.505-.51V21h-4v.49a.5.5 0 0 1-.505.51h-.99A.504.504 0 0 1 8 21.49V21H5.498A.499.499 0 0 1 5 20.5v-14c0-.277.22-.5.498-.5H9V4h-.5a.495.495 0 0 1-.5-.505v-.99C8 2.226 8.23 2 8.5 2h7zM17 8H7v11h10V8zm-4-4h-2v2h2V4z" class="wd-icon-fill"/><path d="M8 10.505c0-.279.23-.505.5-.505h7c.276 0 .5.214.5.505v.99c0 .279-.23.505-.5.505h-7a.495.495 0 0 1-.5-.505v-.99zm0 5c0-.279.23-.505.5-.505h7c.276 0 .5.214.5.505v.99c0 .279-.23.505-.5.505h-7a.495.495 0 0 1-.5-.505v-.99z" class="wd-icon-accent"/></g></svg>