<svg xmlns="http://www.w3.org/2000/svg" width="24" height="24" class="wd-icon-task-company-property wd-icon" focusable="false" role="presentation" viewBox="0 0 24 24"><g fill-rule="evenodd" class="wd-icon-container"><path d="M21 17h-6v-5H4V7h17v10z" class="wd-icon-background"/><path d="M3.489 5.051L21.51 6.95a.57.57 0 0 1 .489.554V12l.009 2-.01-.001.001 3.498a.502.502 0 0 1-.147.354.48.48 0 0 1-.347.149H2.494A.492.492 0 0 1 2 17.495v-.99c0-.279.225-.505.494-.505H14v-1H3.498A.492.492 0 0 1 3 14.51V12.1l-.506-.05a.473.473 0 0 1-.422-.553l.204-1.48h.007l.645-4.514a.52.52 0 0 1 .56-.452zM16 13.401V16h4v-2.2l-4-.4zM5 12.3V13h6.996l-4.062-.406L5 12.3zm-.293-5.11l-.433 3.026 1.653.166L20 11.79V8.8L4.707 7.19z" class="wd-icon-fill"/><rect width="2" height="2" x="17" y="9" class="wd-icon-accent" rx="1"/></g></svg>