<svg xmlns="http://www.w3.org/2000/svg" width="24" height="24" class="wd-icon-task-performance wd-icon" focusable="false" role="presentation" viewBox="0 0 24 24"><g fill-rule="evenodd" class="wd-icon-container"><path d="M19 4v17H5V4h2v2.502c0 .252.18.45.418.49L7.51 7h8.98c.282 0 .51-.223.51-.498V4h2z" class="wd-icon-background"/><path d="M16.49 2c.282 0 .51.215.51.498V3h2.504c.274 0 .496.227.496.508v17.984c0 .28-.226.508-.496.508H4.496A.502.502 0 0 1 4 21.492V3.508c0-.28.226-.508.496-.508H7v-.502C7 2.223 7.228 2 7.51 2h8.98zM7 5H6v15h12V5h-1v1.502a.503.503 0 0 1-.51.498H7.51A.499.499 0 0 1 7 6.502V5zm8-1H9v1h6V4z" class="wd-icon-fill"/><path d="M8 11.491A.49.49 0 0 1 8.505 11h.99c.279 0 .505.228.505.491V17H8v-5.509zm6 2c0-.271.214-.491.505-.491h.99c.279 0 .505.215.505.49V17h-2v-3.51zM11 9.5c0-.277.214-.501.505-.501h.99c.279 0 .505.23.505.5V17h-2V9.5z" class="wd-icon-accent"/></g></svg>