<svg xmlns="http://www.w3.org/2000/svg" width="24" height="24" class="wd-icon-task-contact wd-icon" focusable="false" role="presentation" viewBox="0 0 24 24"><g fill-rule="evenodd" class="wd-icon-container"><path d="M8 3h11v18H8z" class="wd-icon-background"/><path d="M19.504 2c.274 0 .496.225.496.494v19.012a.498.498 0 0 1-.496.494H4.496A.497.497 0 0 1 4 21.506V2.494C4 2.221 4.226 2 4.496 2h15.008zM18 4H9v16h9V4zM7 4H6v16h1V4z" class="wd-icon-fill"/><path d="M14.5 11.5c.828 0 1.5.666 1.5 1.5v1.5h-5V13c0-.828.674-1.5 1.5-1.5h2zm-1-3c.78 0 1.42.59 1.493 1.355L15 10c0 .78-.59 1.42-1.355 1.493l-.145.007c-.828 0-1.5-.666-1.5-1.5 0-.78.59-1.42 1.355-1.493L13.5 8.5z" class="wd-icon-accent"/></g></svg>