<svg xmlns="http://www.w3.org/2000/svg" width="24" height="24" class="wd-icon-time wd-icon" focusable="false" role="presentation" viewBox="0 0 24 24"><g fill-rule="evenodd" class="wd-icon-container"><path fill-rule="nonzero" d="M6.182 17.481C7.817 19.161 9.757 20 12 20a8 8 0 0 0 8-8c0-4.418-3.532-7.931-8-8-4.478.1-7.591 3.446-7.94 7.049l-.463-.47a.5.5 0 0 0-.711 0l-.693.7a.5.5 0 0 0 .003.706l2.562 2.557a.5.5 0 0 0 .707 0l2.555-2.557a.5.5 0 0 0 .002-.705l-.695-.705a.5.5 0 0 0-.707-.005l-.546.538C6.316 9.103 8.187 6.032 12 6a6 6 0 1 1 0 12c-1.708 0-3.165-.634-4.37-1.903a.495.495 0 0 0-.705-.024s-.002.002-.004.001l-.726.698a.499.499 0 0 0-.015.707l.002.002z" class="wd-icon-fill"/><path d="M10.498 14a.491.491 0 0 1-.498-.498V9.498c0-.275.214-.498.505-.498h.99c.279 0 .505.215.505.498V12h2.502c.275 0 .498.214.498.505v.99a.496.496 0 0 1-.498.505h-4.004z" class="wd-icon-accent"/></g></svg>