<svg xmlns="http://www.w3.org/2000/svg" width="24" height="24" class="wd-icon-transformation-join wd-icon" focusable="false" role="presentation" viewBox="0 0 24 24"><g fill-rule="evenodd" class="wd-icon-container"><path d="M5.9 9.553a.49.49 0 0 1 .01-.704l.7-.7a.503.503 0 0 1 .705-.01l3.536 3.536a.505.505 0 0 1 0 .719L7.315 15.93a.49.49 0 0 1-.704-.01l-.7-.7a.503.503 0 0 1-.01-.704l1.594-1.595H2.507A.498.498 0 0 1 2 12.416v-.99c0-.28.226-.505.505-.505h4.763L5.9 9.553zm12.2 0a.49.49 0 0 0-.01-.704l-.7-.7a.503.503 0 0 0-.704-.01l-3.536 3.536a.505.505 0 0 0 0 .719l3.536 3.536a.49.49 0 0 0 .704-.01l.7-.7a.503.503 0 0 0 .01-.704l-1.595-1.595h4.989c.28 0 .507-.214.507-.505v-.99a.505.505 0 0 0-.505-.505h-4.763L18.1 9.553z" class="wd-icon-fill"/></g></svg>