<svg xmlns="http://www.w3.org/2000/svg" width="24" height="24" class="wd-icon-transformation-groupby wd-icon" focusable="false" role="presentation" viewBox="0 0 24 24"><g fill-rule="evenodd" class="wd-icon-container"><path d="M16.49 4c.282 0 .51.226.51.496v15.008a.503.503 0 0 1-.51.496H7.51a.506.506 0 0 1-.51-.496V4.496C7 4.222 7.228 4 7.51 4h8.98zM15 6H9v12h6V6zm-3 8c.513 0 .936.383.993.883L13 15a.997.997 0 0 1-.883.993L12 16c-.552 0-1-.444-1-1 0-.513.383-.936.883-.993L12 14zm0-6c.513 0 .936.383.993.883L13 9a.997.997 0 0 1-.883.993L12 10c-.552 0-1-.444-1-1 0-.513.383-.936.883-.993L12 8z" class="wd-icon-fill"/></g></svg>