<svg xmlns="http://www.w3.org/2000/svg" width="24" height="24" class="wd-icon-translation wd-icon" focusable="false" role="presentation" viewBox="0 0 24 24"><g class="wd-icon-container"><path d="M18.21 18.94H14.58l-.634 1.89a.25.25 0 0 1-.237.17h-1.661a.25.25 0 0 1-.235-.338l3.555-9.5a.25.25 0 0 1 .235-.162h1.572a.25.25 0 0 1 .235.162l3.575 9.5a.25.25 0 0 1-.235.338h-1.661a.25.25 0 0 1-.238-.17l-.64-1.89zm-3.072-1.67h2.513l-1.263-3.742-1.25 3.743z" class="wd-icon-accent"/><path d="M7.644 2h1.172a.25.25 0 0 1 .25.25v1.723h4.205a.25.25 0 0 1 .25.25v1.149a.25.25 0 0 1-.25.25h-1.157c-.644 1.79-1.507 3.266-2.589 4.495.997.768 2.17 1.38 3.538 1.803.157.048.23.229.147.37l-.723 1.24a.247.247 0 0 1-.289.112c-1.598-.512-2.929-1.258-4.037-2.207-1.11.896-2.385 1.604-3.846 2.159a.248.248 0 0 1-.302-.107l-.682-1.162a.254.254 0 0 1 .139-.368c1.325-.449 2.474-1.038 3.442-1.78-.783-.937-1.434-2.015-1.98-3.229a.247.247 0 0 1 .182-.343l1.23-.227a.254.254 0 0 1 .273.138c.44.89.982 1.7 1.63 2.416.805-.916 1.451-2.008 1.95-3.31H3.25a.25.25 0 0 1-.25-.25V4.223a.25.25 0 0 1 .25-.25h4.144V2.25a.25.25 0 0 1 .25-.25z" class="wd-icon-fill"/></g></svg>