<svg xmlns="http://www.w3.org/2000/svg" width="24" height="24" class="wd-icon-underline wd-icon" focusable="false" role="presentation" viewBox="0 0 24 24"><g fill-rule="evenodd" class="wd-icon-container"><path d="M4 19.505c0-.279.226-.505.496-.505h15.008c.274 0 .496.214.496.505v.99a.503.503 0 0 1-.496.505H4.496A.493.493 0 0 1 4 20.495v-.99zM12 17c3 0 5-1.808 5-5V5.503A.496.496 0 0 0 16.505 5h-2.01a.504.504 0 0 0-.495.503V12c0 1.542-1 2-2 2s-2-.458-2-2V5.503A.496.496 0 0 0 9.505 5h-2.01A.504.504 0 0 0 7 5.503V12c0 3.192 2 5 5 5z" class="wd-icon-fill"/></g></svg>