<svg xmlns="http://www.w3.org/2000/svg" width="24" height="24" class="wd-icon-unfreeze wd-icon" focusable="false" role="presentation" viewBox="0 0 24 24"><g fill-rule="evenodd" class="wd-icon-container"><path d="M12.495 18c.279 0 .505.215.505.49v3.02a.49.49 0 0 1-.505.49h-.99a.495.495 0 0 1-.505-.49v-3.02c0-.27.214-.49.505-.49h.99zM7.55 16.035l.7.7a.495.495 0 0 1 .01.704l-2.134 2.134a.49.49 0 0 1-.704-.01l-.7-.7a.495.495 0 0 1-.01-.704l2.135-2.135a.49.49 0 0 1 .703.01zm9.89-.01l2.134 2.134a.49.49 0 0 1-.01.704l-.7.7a.495.495 0 0 1-.704.01l-2.135-2.134a.49.49 0 0 1 .01-.704l.701-.7a.495.495 0 0 1 .704-.01zM12 8a4 4 0 1 1 0 8 4 4 0 0 1 0-8zm0 2a2 2 0 1 0 0 4 2 2 0 0 0 0-4zm9.51 1c.27 0 .49.214.49.505v.99a.495.495 0 0 1-.49.505h-3.02a.49.49 0 0 1-.49-.505v-.99c0-.279.215-.505.49-.505h3.02zm-16 0c.27 0 .49.214.49.505v.99a.495.495 0 0 1-.49.505H2.49a.49.49 0 0 1-.49-.505v-.99c0-.279.215-.505.49-.505h3.02zm13.353-6.28l.7.701a.495.495 0 0 1 .01.704L17.44 8.26a.49.49 0 0 1-.704-.01l-.7-.7a.495.495 0 0 1-.01-.704l2.134-2.135a.49.49 0 0 1 .704.01zM6.125 4.71L8.26 6.847a.49.49 0 0 1-.01.703l-.7.7a.495.495 0 0 1-.704.01L4.71 6.126a.49.49 0 0 1 .01-.704l.7-.7a.495.495 0 0 1 .704-.01zM12.495 2c.279 0 .505.215.505.49v3.02a.49.49 0 0 1-.505.49h-.99A.495.495 0 0 1 11 5.51V2.49c0-.27.214-.49.505-.49h.99z" class="wd-icon-fill"/><circle cx="12" cy="12" r="2" class="wd-icon-background"/></g></svg>