<svg xmlns="http://www.w3.org/2000/svg" width="24" height="24" class="wd-icon-user-check wd-icon" focusable="false" role="presentation" viewBox="0 0 24 24"><g class="wd-icon-container"><path fill-rule="evenodd" d="M12.5 20.996a.5.5 0 0 0 .5-.5v-1a.5.5 0 0 0-.5-.5H6.083C6 16 8.5 13.997 12 13.997c2.51 0 4.505 1.03 5.433 2.717.094.171.27.286.465.286h1.392a.239.239 0 0 0 .225-.332c-.793-1.82-2.461-3.184-4.27-3.986C16.32 11.674 17 10.174 17 8.5 17 5.462 14.761 3 12 3S7 5.462 7 8.499c0 1.675.682 3.176 1.756 4.184C6.246 13.8 4 16 4 18.997v1.5a.5.5 0 0 0 .5.5h8zM15 8.499c0 1.932-1.343 3.499-3 3.499s-3-1.567-3-3.5C9 6.567 10.343 5 12 5s3 1.566 3 3.499z" class="wd-icon-fill" clip-rule="evenodd"/><path fill-rule="evenodd" d="M22.864 17.874a.502.502 0 0 1-.016.703l-4.434 4.285a.488.488 0 0 1-.684-.004l-2.582-2.55a.502.502 0 0 1-.008-.704l.688-.712c.19-.196.502-.2.696-.008l1.56 1.542 3.404-3.288a.488.488 0 0 1 .696.016l.68.72z" class="wd-icon-accent" clip-rule="evenodd"/></g></svg>