<svg xmlns="http://www.w3.org/2000/svg" width="24" height="24" class="wd-icon-versions wd-icon" focusable="false" role="presentation" viewBox="0 0 24 24"><g fill-rule="evenodd" class="wd-icon-container"><path d="M5 13h14v6H5z" class="wd-icon-background"/><path d="M19.504 12c.274 0 .496.23.496.5v7c0 .276-.226.5-.496.5H4.496A.503.503 0 0 1 4 19.5v-7c0-.276.226-.5.496-.5h15.008zM18 14H6v4h12v-4zm-.5-6c.276 0 .5.214.5.505v.99a.506.506 0 0 1-.5.505h-11a.495.495 0 0 1-.5-.505v-.99C6 8.226 6.229 8 6.5 8h11zm-2-4c.276 0 .5.214.5.505v.99c0 .279-.23.505-.5.505h-7a.495.495 0 0 1-.5-.505v-.99C8 4.226 8.23 4 8.5 4h7z" class="wd-icon-fill"/></g></svg>