<svg xmlns="http://www.w3.org/2000/svg" width="24" height="24" class="wd-icon-visible wd-icon" focusable="false" role="presentation" viewBox="0 0 24 24"><g fill-rule="evenodd" class="wd-icon-container"><path d="M3.25 12S7.333 7.333 12 7.333 20.75 12 20.75 12s-4.083 4.667-8.75 4.667S3.25 12 3.25 12z" class="wd-icon-background"/><path d="M12 6c6 0 10 6 10 6s-4 6-10 6-10-6-10-6l.016-.024C2.3 11.564 6.222 6 12 6zm0 2c-4 0-7.5 4-7.5 4S8 16 12 16s7.5-4 7.5-4S16 8 12 8z" class="wd-icon-fill"/><path d="M9.5 12a2.5 2.5 0 1 0 5 0 2.5 2.5 0 0 0-5 0z" class="wd-icon-accent"/></g></svg>