<svg xmlns="http://www.w3.org/2000/svg" width="24" height="24" class="wd-icon-word wd-icon" focusable="false" role="presentation" viewBox="0 0 24 24"><g class="wd-icon-container"><path d="M21.504 2c.274 0 .496.225.496.494v19.012a.498.498 0 0 1-.496.494H6.496A.498.498 0 0 1 6 21.506V17.5a.5.5 0 0 1 .5-.5h1a.5.5 0 0 1 .5.5V20h12V4H8v2.5a.5.5 0 0 1-.5.5h-1a.5.5 0 0 1-.5-.5V2.494C6 2.221 6.226 2 6.496 2h15.008z" class="wd-icon-fill"/><path d="M13.5 7a.5.5 0 0 0-.5.5v1a.5.5 0 0 0 .5.5h4a.5.5 0 0 0 .5-.5v-1a.5.5 0 0 0-.5-.5h-4zM13 11.5a.5.5 0 0 1 .5-.5h4a.5.5 0 0 1 .5.5v1a.5.5 0 0 1-.5.5h-4a.5.5 0 0 1-.5-.5v-1zM13.5 15a.5.5 0 0 0-.5.5v1a.5.5 0 0 0 .5.5h4a.5.5 0 0 0 .5-.5v-1a.5.5 0 0 0-.5-.5h-4zM9.565 8.207l-.88 4.81-1.071-4.82a.25.25 0 0 0-.244-.195H6.134a.25.25 0 0 0-.244.196l-1.056 4.82-.88-4.811a.25.25 0 0 0-.245-.205h-1.4a.25.25 0 0 0-.245.302l1.597 7.498a.25.25 0 0 0 .244.198h1.593a.25.25 0 0 0 .244-.194l1.004-4.365 1.026 4.366a.25.25 0 0 0 .243.193h1.6a.25.25 0 0 0 .244-.198l1.591-7.498a.25.25 0 0 0-.244-.302H9.81a.25.25 0 0 0-.246.205z" class="wd-icon-fill"/></g></svg>