<svg xmlns="http://www.w3.org/2000/svg" width="24" height="24" class="wd-icon-x-circle wd-icon" focusable="false" role="presentation" viewBox="0 0 24 24"><g class="wd-icon-container"><path d="M9.849 15.505a.5.5 0 0 1-.708 0l-.494-.495a.5.5 0 0 1 0-.707l2.227-2.227-2.228-2.227a.5.5 0 0 1 0-.708l.495-.495a.5.5 0 0 1 .708 0l2.227 2.228 2.227-2.228a.5.5 0 0 1 .707 0l.495.495a.5.5 0 0 1 0 .708l-2.227 2.227 2.227 2.227a.5.5 0 0 1 0 .707l-.495.495a.5.5 0 0 1-.707 0l-2.227-2.227-2.227 2.227z" class="wd-icon-fill"/><path fill-rule="evenodd" d="M22 12c0 5.523-4.477 10-10 10S2 17.523 2 12 6.477 2 12 2s10 4.477 10 10zm-2 0a8 8 0 1 1-16 0 8 8 0 0 1 16 0z" class="wd-icon-fill" clip-rule="evenodd"/></g></svg>