<svg xmlns="http://www.w3.org/2000/svg" width="24" height="24" class="wd-icon-zoom-area wd-icon" focusable="false" role="presentation" viewBox="0 0 24 24"><g fill-rule="evenodd" class="wd-icon-container"><path fill-rule="nonzero" d="M5.5 2a.5.5 0 0 1 .5.5v1a.5.5 0 0 1-.5.5H4v1.5a.5.5 0 0 1-.5.5h-1a.5.5 0 0 1-.5-.5v-3a.5.5 0 0 1 .5-.5h3zm0 16a.5.5 0 0 1 .5.5v1a.5.5 0 0 1-.5.5h-3a.5.5 0 0 1-.5-.5v-3a.5.5 0 0 1 .5-.5h1a.5.5 0 0 1 .5.5V18h1.5zm11-16a.5.5 0 0 0-.5.5v1a.5.5 0 0 0 .5.5H18v1.5a.5.5 0 0 0 .5.5h1a.5.5 0 0 0 .5-.5v-3a.5.5 0 0 0-.5-.5h-3zm-8 0h5a.5.5 0 0 1 .5.5v1a.5.5 0 0 1-.5.5h-5a.5.5 0 0 1-.5-.5v-1a.5.5 0 0 1 .5-.5zm-5 6h-1a.5.5 0 0 0-.5.5v5a.5.5 0 0 0 .5.5h1a.5.5 0 0 0 .5-.5v-5a.5.5 0 0 0-.5-.5zm7.2 10H8.3c-.166 0-.3.224-.3.5v1c0 .276.134.5.3.5h2.4c.166 0 .3-.224.3-.5v-1c0-.276-.134-.5-.3-.5zm7.8-10h1c.276 0 .5.134.5.3v2.4c0 .166-.224.3-.5.3h-1c-.276 0-.5-.134-.5-.3V8.3c0-.166.224-.3.5-.3zm-2 4a4.5 4.5 0 1 0 2.396 8.31l1.75 1.75a.5.5 0 0 0 .708 0l.707-.706a.5.5 0 0 0 0-.708l-1.751-1.75A4.5 4.5 0 0 0 16.5 12zM14 16.5a2.5 2.5 0 1 1 5 0 2.5 2.5 0 0 1-5 0z" class="wd-icon-fill"/></g></svg>