<svg xmlns="http://www.w3.org/2000/svg" width="64" height="64" fill="none"><g fill-rule="evenodd" clip-path="url(#a)" clip-rule="evenodd" transform="matrix(.53333 0 0 .53333 -124.637 -16)"><path fill="#005cb9" d="M251.21 88.776h8.224c1.166 0 2.178.783 2.444 1.892l11.057 44.675c.152.002 12.182-44.64 12.182-44.64.306-1.135 1.36-1.928 2.566-1.928h12.74c1.144 0 2.144.752 2.435 1.83l12.118 44.929c.448-.282 11.147-44.866 11.147-44.866.267-1.109 1.279-1.893 2.444-1.893h8.219c1.649 0 2.854 1.52 2.437 3.075l-15.08 56.317c-.286 1.072-1.272 1.823-2.406 1.833l-12.438-.019c-1.142-.002-2.137-.744-2.429-1.819-2.126-7.805-12.605-47.277-12.605-47.277s-11.008 39.471-13.133 47.277c-.293 1.075-1.288 1.817-2.429 1.819l-12.439.019c-1.133-.01-2.119-.761-2.406-1.833l-15.081-56.323c-.416-1.553.786-3.068 2.433-3.068"/><path fill="#f38b00" d="M333.324 72.245a6 6 0 0 0 1.608-.224c3.18-.896 5.039-4.23 4.153-7.445a46 46 0 0 0-.408-1.394C332.529 43.335 314.569 30 293.987 30c-20.557 0-38.51 13.313-44.673 33.128a45 45 0 0 0-.391 1.323c-.902 3.212.943 6.554 4.12 7.465 3.173.911 6.48-.955 7.381-4.167q.14-.498.292-.989c4.591-14.758 17.961-24.67 33.271-24.67 15.329 0 28.704 9.928 33.281 24.706q.158.51.301 1.026c.737 2.673 3.139 4.423 5.755 4.423"/></g><defs><clipPath id="a"><path fill="#fff" d="M354 30H234v120h120z"/></clipPath></defs></svg>